<?xml version="1.0" encoding="UTF-8"?>
<svg id="Layer_1" data-name="Layer 1" xmlns="http://www.w3.org/2000/svg" xmlns:xlink="http://www.w3.org/1999/xlink" viewBox="0 0 430.06 430.06">
  <defs>
    <style>
      .cls-1 {
        fill: #5c0726;
      }

      .cls-1, .cls-2, .cls-3, .cls-4, .cls-5, .cls-6, .cls-7 {
        stroke-width: 0px;
      }

      .cls-8 {
        clip-path: url(#clippath-2);
      }

      .cls-2 {
        fill-rule: evenodd;
      }

      .cls-2, .cls-7 {
        fill: #5c0425;
      }

      .cls-3, .cls-4, .cls-5 {
        fill: none;
      }

      .cls-9 {
        clip-path: url(#clippath-1);
      }

      .cls-4, .cls-5 {
        clip-rule: evenodd;
      }

      .cls-5 {
        clip-path: url(#clippath);
      }

      .cls-6 {
        fill: #edc8bd;
      }
    </style>
    <clipPath id="clippath">
      <polygon class="cls-4" points="141.19 430.06 289.27 430.06 289.27 281.86 141.19 281.86 141.19 430.06 141.19 430.06"/>
    </clipPath>
    <clipPath id="clippath-1">
      <polygon class="cls-5" points="141.19 281.86 289.27 281.86 289.27 430.06 141.19 430.06 141.19 281.86 141.19 281.86"/>
    </clipPath>
    <clipPath id="clippath-2">
      <polygon class="cls-3" points="141.19 430.06 289.27 430.06 289.27 281.86 141.19 281.86 141.19 430.06 141.19 430.06"/>
    </clipPath>
  </defs>
  <rect class="cls-6" width="430.06" height="430.06"/>
  <path class="cls-2" d="m237.04,253.83h-42.46l2.43-4.04h34.62v-.45h.49v-.5h0v-.45h0l5.9-24.32h.49v-.5h-.49v-.45h0v-.4h-.49v-.5h-.97v-.45h-36.62c-.97,0-1.95.95-1.95,1.8,0,1.4.97,2.3,1.95,2.3h34.13l-5.36,20.27h-27.32l-5.84-29.76h0v-.45h-.49v-.45h-.49v-.45h-6.87c-.97,0-1.95.9-1.95,1.8s.97,1.8,1.95,1.8h4.38l5.41,27.51h-2.43v.45h-.49v.45h-.49l-4.92,7.24v.45h-.49v.45h0v.45h0v.45h.49v.45h0q0,.45.49.45h.49v.45h8.82c-.49.9-.97,2.25-.97,3.6,0,3.65,3.41,7.24,7.79,7.24s7.79-3.6,7.79-7.24c0-1.35-.49-2.7-.92-3.6h9.74c-.49.9-.97,2.25-.97,3.6,0,3.65,3.89,7.24,7.79,7.24,4.38,0,7.84-3.6,7.84-7.24,0-1.35,0-2.7-.97-3.6h.97c1.46,0,1.95-.9,1.95-1.8,0-1.35-.49-1.8-1.95-1.8h0Zm-27.32,7.19h0c0,1.85-1.95,3.65-3.95,3.65s-3.89-1.8-3.89-3.65c0-2.25,1.95-3.6,3.89-3.6s3.95,1.35,3.95,3.6h0Zm23.42,0h0c0,1.85-1.51,3.65-3.95,3.65-1.95,0-3.89-1.8-3.89-3.65,0-2.25,1.95-3.6,3.89-3.6,2.43,0,3.95,1.35,3.95,3.6h0Z"/>
  <polygon class="cls-2" points="237.35 102.32 228.39 102.32 228.39 194.24 201.66 194.24 201.66 102.32 192.71 102.32 215.03 80 237.35 102.32 237.35 102.32"/>
  <g>
    <path class="cls-7" d="m86.25,46.84l1.6,2.35c.29.41.26.84-.2,1.16-1.42,1.02-3.39,1.57-5.4,1.57-5.98,0-9.6-4-9.6-10.67s3.63-10.7,9.57-10.7c1.97,0,3.92.55,5.37,1.57.44.29.46.73.17,1.16l-1.6,2.35c-.29.46-.7.46-1.16.2-.75-.46-1.6-.7-2.5-.7-2.44,0-3.8,2-3.8,6.12s1.36,6.09,3.8,6.09c.93,0,1.8-.23,2.58-.7.46-.29.84-.29,1.16.2Z"/>
    <path class="cls-7" d="m104.28,43.44c0,5.28-2.99,8.47-7.92,8.47s-7.95-3.19-7.95-8.47,2.99-8.47,7.95-8.47,7.92,3.22,7.92,8.47Zm-5.71,0c0-2.67-.78-4.12-2.21-4.12s-2.23,1.45-2.23,4.12.78,4.15,2.23,4.15,2.21-1.48,2.21-4.15Z"/>
    <path class="cls-7" d="m120.44,39.82v10.7c0,.52-.32.84-.84.84h-3.92c-.52,0-.81-.32-.81-.84v-9.75c0-.93-.43-1.45-1.16-1.45s-1.42.55-1.86,1.48v9.72c0,.52-.32.84-.84.84h-3.89c-.55,0-.84-.32-.84-.84v-14.16c0-.52.29-.81.84-.81h3.65c.52,0,.84.29.84.81v1.1c.93-1.54,2.73-2.49,4.41-2.49,2.67,0,4.41,1.97,4.41,4.84Z"/>
    <path class="cls-7" d="m129.97,41.53c2.23.61,5.22,1.36,5.22,4.96,0,3.25-2.93,5.42-7.31,5.42-2.21,0-4.53-.67-6.06-1.74-.44-.32-.49-.72-.17-1.19l1.36-1.86c.32-.43.7-.49,1.19-.2.99.55,2.29.9,3.36.9,1.19,0,1.91-.41,1.91-1.01,0-.75-.7-.99-2.12-1.36-2.15-.58-5.42-1.62-5.42-5.22,0-3.31,2.49-5.25,6.7-5.25,1.83,0,3.97.55,5.57,1.45.49.26.55.7.23,1.16l-1.36,1.86c-.29.46-.67.49-1.13.26-.81-.41-1.83-.64-2.73-.64-1.01,0-1.74.41-1.74.99,0,.78.81.99,2.49,1.48Z"/>
    <path class="cls-7" d="m150.8,36.37v14.16c0,.52-.32.84-.84.84h-3.51c-.52,0-.84-.32-.84-.84v-1.07c-.96,1.57-2.73,2.46-4.41,2.46-2.67,0-4.38-1.91-4.38-4.81v-10.73c0-.52.29-.81.84-.81h3.89c.55,0,.84.29.84.81v9.75c0,.99.41,1.51,1.13,1.51.67,0,1.28-.43,1.68-1.22v-10.04c0-.52.32-.81.84-.81h3.92c.52,0,.84.29.84.81Z"/>
    <path class="cls-7" d="m175.16,39.82v10.7c0,.52-.32.84-.84.84h-3.92c-.52,0-.84-.32-.84-.84v-9.75c0-.93-.35-1.45-1.02-1.45-.58,0-1.13.44-1.51,1.19v10.01c0,.52-.32.84-.84.84h-3.92c-.52,0-.84-.32-.84-.84v-9.75c0-.99-.26-1.45-.9-1.45s-1.22.44-1.65,1.25v9.95c0,.52-.32.84-.84.84h-3.89c-.55,0-.84-.32-.84-.84v-14.16c0-.52.29-.81.84-.81h3.65c.52,0,.84.29.84.81v1.1c.9-1.48,2.67-2.49,4.35-2.49s2.96.93,3.6,2.44c.9-1.45,2.61-2.44,4.21-2.44,2.73,0,4.35,1.83,4.35,4.84Z"/>
    <path class="cls-7" d="m177.04,43.44c0-5.25,3.02-8.47,8.01-8.47,4.55,0,7.22,2.99,7.22,7.95,0,.46-.03.99-.12,1.51-.06.49-.38.75-.87.75h-8.56c.44,1.65,1.6,2.52,3.45,2.52.84,0,1.89-.23,2.76-.61.49-.2.84-.12,1.16.29l1.19,1.62c.29.44.26.84-.15,1.13-1.57,1.13-3.89,1.77-6.09,1.77-4.99,0-8.01-3.19-8.01-8.47Zm9.86-1.51c-.03-1.94-.78-3.07-2.03-3.07s-2.06,1.04-2.32,3.07h4.35Z"/>
    <path class="cls-7" d="m204.8,36.22l-.55,3.77c-.09.55-.41.75-.87.67-.26-.06-.52-.09-.78-.09-1.31,0-2.38.87-2.84,2.23v7.72c0,.52-.32.84-.84.84h-3.89c-.55,0-.84-.32-.84-.84v-14.16c0-.52.29-.81.84-.81h3.65c.52,0,.84.29.84.81v1.31c.75-1.68,2.09-2.7,3.6-2.7.38,0,.81.09,1.16.2.46.14.58.55.52,1.04Z"/>
    <path class="cls-7" d="m227.71,43.47c0,5.25-2.35,8.44-6.21,8.44-1.28,0-2.61-.55-3.57-1.48v6.64c0,.55-.32.84-.84.84h-3.89c-.55,0-.84-.29-.84-.84v-20.71c0-.52.29-.81.84-.81h3.65c.52,0,.84.29.84.81v1.07c.93-1.51,2.73-2.44,4.52-2.44,3.42,0,5.48,3.19,5.48,8.47Zm-5.71-.06c0-2.64-.7-4.09-1.97-4.09-.84,0-1.6.49-2.09,1.42v5.42c.49.9,1.22,1.42,2.06,1.42,1.31,0,2-1.48,2-4.18Z"/>
    <path class="cls-7" d="m240.35,36.22l-.55,3.77c-.09.55-.41.75-.87.67-.26-.06-.52-.09-.78-.09-1.31,0-2.38.87-2.84,2.23v7.72c0,.52-.32.84-.84.84h-3.89c-.55,0-.84-.32-.84-.84v-14.16c0-.52.29-.81.84-.81h3.65c.52,0,.84.29.84.81v1.31c.75-1.68,2.09-2.7,3.6-2.7.38,0,.81.09,1.16.2.46.14.58.55.52,1.04Z"/>
    <path class="cls-7" d="m241.42,32.92v-2.41c0-.52.29-.84.84-.84h3.97c.52,0,.84.32.84.84v2.41c0,.55-.32.84-.84.84h-3.97c-.55,0-.84-.29-.84-.84Zm.03,17.61v-14.16c0-.52.32-.81.84-.81h3.92c.52,0,.81.29.81.81v14.16c0,.52-.29.84-.81.84h-3.92c-.52,0-.84-.32-.84-.84Z"/>
    <path class="cls-7" d="m249.05,43.44c0-5.11,3.22-8.47,8.01-8.47,1.83,0,3.65.55,4.93,1.45.44.35.49.72.17,1.19l-1.54,2.15c-.32.41-.7.41-1.16.14-.49-.29-1.04-.41-1.59-.41-2,0-3.02,1.31-3.02,3.95s.99,3.97,3.05,3.97c.52,0,1.1-.17,1.6-.43.49-.29.84-.29,1.16.14l1.54,2.15c.32.44.32.81-.06,1.1-1.31.96-3.16,1.54-5.08,1.54-4.84,0-8.01-3.34-8.01-8.47Z"/>
    <path class="cls-7" d="m262.59,43.44c0-5.25,3.02-8.47,8.01-8.47,4.55,0,7.22,2.99,7.22,7.95,0,.46-.03.99-.12,1.51-.06.49-.38.75-.87.75h-8.56c.43,1.65,1.59,2.52,3.45,2.52.84,0,1.89-.23,2.76-.61.49-.2.84-.12,1.16.29l1.19,1.62c.29.44.26.84-.14,1.13-1.57,1.13-3.89,1.77-6.09,1.77-4.99,0-8.01-3.19-8.01-8.47Zm9.86-1.51c-.03-1.94-.78-3.07-2.03-3.07s-2.06,1.04-2.32,3.07h4.35Z"/>
    <path class="cls-7" d="m286.16,32.92v-2.41c0-.52.29-.84.84-.84h3.97c.52,0,.84.32.84.84v2.41c0,.55-.32.84-.84.84h-3.97c-.55,0-.84-.29-.84-.84Zm.03,17.61v-14.16c0-.52.32-.81.84-.81h3.92c.52,0,.81.29.81.81v14.16c0,.52-.29.84-.81.84h-3.92c-.52,0-.84-.32-.84-.84Z"/>
    <path class="cls-7" d="m308.5,39.82v10.7c0,.52-.32.84-.84.84h-3.92c-.52,0-.81-.32-.81-.84v-9.75c0-.93-.43-1.45-1.16-1.45s-1.42.55-1.86,1.48v9.72c0,.52-.32.84-.84.84h-3.89c-.55,0-.84-.32-.84-.84v-14.16c0-.52.29-.81.84-.81h3.65c.52,0,.84.29.84.81v1.1c.93-1.54,2.73-2.49,4.41-2.49,2.67,0,4.41,1.97,4.41,4.84Z"/>
    <path class="cls-7" d="m310.38,43.44c0-5.25,2.35-8.44,6.24-8.44,1.28,0,2.61.58,3.57,1.51v-6c0-.52.32-.84.84-.84h3.92c.52,0,.84.32.84.84v20.02c0,.52-.32.84-.84.84h-3.42c-.52,0-.84-.32-.84-.84v-.58c-1.04,1.22-2.64,1.97-4.35,1.97-3.68,0-5.95-3.19-5.95-8.47Zm9.8,2.73v-5.45c-.46-.9-1.22-1.42-2.06-1.42-1.31,0-2.03,1.48-2.03,4.21s.7,4.09,1.97,4.09c.9,0,1.65-.52,2.12-1.42Z"/>
    <path class="cls-7" d="m327.75,43.44c0-5.25,3.02-8.47,8.01-8.47,4.55,0,7.22,2.99,7.22,7.95,0,.46-.03.99-.12,1.51-.06.49-.38.75-.87.75h-8.56c.43,1.65,1.59,2.52,3.45,2.52.84,0,1.89-.23,2.76-.61.49-.2.84-.12,1.16.29l1.19,1.62c.29.44.26.84-.14,1.13-1.57,1.13-3.89,1.77-6.09,1.77-4.99,0-8.01-3.19-8.01-8.47Zm9.86-1.51c-.03-1.94-.78-3.07-2.03-3.07s-2.06,1.04-2.32,3.07h4.35Z"/>
    <path class="cls-7" d="m343.06,50.35l4.12-6.93-3.86-6.87c-.29-.58-.06-.99.61-.99h4.03c.49,0,.81.17.99.64l1.74,4.09,1.86-4.12c.2-.44.49-.61.99-.61h3.92c.64,0,.9.41.58.99l-3.83,6.85,4.06,6.96c.35.58.09,1.02-.58,1.02h-4.03c-.46,0-.78-.2-.99-.64l-2-4.44-2.15,4.47c-.2.41-.52.61-.99.61h-3.92c-.67,0-.9-.44-.55-1.02Z"/>
  </g>
  <g>
    <path class="cls-1" d="m49.91,215.63h-5.9v5.98c0,.79-.48,1.28-1.28,1.28h-3.56c-.79,0-1.28-.48-1.28-1.28v-5.98h-5.9c-.84,0-1.28-.44-1.28-1.23v-3.61c0-.79.44-1.28,1.28-1.28h5.85v-5.99c0-.79.48-1.28,1.28-1.28h3.61c.79,0,1.28.48,1.28,1.28v5.99h5.9c.79,0,1.28.48,1.28,1.28v3.61c0,.79-.48,1.23-1.28,1.23Z"/>
    <path class="cls-1" d="m75.61,222.14v3.78c0,.79-.48,1.28-1.28,1.28h-18c-.84,0-1.28-.48-1.28-1.28v-3.78c0-.84.44-1.28,1.28-1.28h5.59v-15.67l-4.4,2.46c-.7.4-1.28.22-1.76-.35l-2.55-3.04c-.53-.7-.44-1.32.31-1.76l9.59-5.63c.53-.31,1.01-.44,1.58-.44h4.18c.79,0,1.23.48,1.23,1.28v23.15h4.22c.79,0,1.28.44,1.28,1.28Z"/>
    <path class="cls-1" d="m77.23,225.92v-5.76c0-.79.48-1.28,1.28-1.28h6.21c.79,0,1.28.48,1.28,1.28v5.76c0,.79-.48,1.28-1.28,1.28h-6.21c-.79,0-1.28-.48-1.28-1.28Z"/>
    <path class="cls-1" d="m108.3,222.14v3.78c0,.79-.48,1.28-1.28,1.28h-18.22c-.79,0-1.28-.48-1.28-1.28v-3.61c0-.66.22-1.1.66-1.58,4.66-4.53,11.4-10.3,11.4-15.27,0-1.98-1.23-3.3-3.04-3.3-1.58,0-3.56.88-5.33,2.42-.66.53-1.28.53-1.8-.13l-2.2-2.64c-.48-.57-.53-1.19-.04-1.76,2.77-3.12,6.6-4.44,10.12-4.44,6.51,0,10.87,3.48,10.87,8.76s-3.52,10.12-10.03,16.5h8.89c.79,0,1.28.44,1.28,1.28Z"/>
    <path class="cls-1" d="m110.58,204.14c0-5.06,3.08-8.14,8.14-8.14s8.14,3.08,8.14,8.14-3.08,8.14-8.14,8.14-8.14-3.12-8.14-8.14Zm10.74,23.06h-4.14c-1.01,0-1.36-.66-.79-1.54l19.5-28.43c.35-.57.84-.79,1.5-.79h4.14c1.01,0,1.41.66.79,1.54l-19.45,28.43c-.4.57-.88.79-1.54.79Zm-.35-23.06c0-2.16-.79-3.34-2.24-3.34s-2.24,1.19-2.24,3.34.79,3.3,2.24,3.3,2.24-1.19,2.24-3.3Zm10.83,15.36c0-5.06,3.08-8.14,8.14-8.14s8.14,3.08,8.14,8.14-3.08,8.19-8.14,8.19-8.14-3.12-8.14-8.19Zm10.39,0c0-2.11-.79-3.3-2.24-3.3s-2.24,1.19-2.24,3.3.79,3.34,2.24,3.34,2.24-1.19,2.24-3.34Z"/>
    <path class="cls-1" d="m35.54,247.96c-.31-.23-.34-.55-.13-.86l1.13-1.66c.21-.29.48-.38.82-.17,1.05.63,2.52,1.15,3.55,1.15s1.66-.42,1.68-1.24c0-1.07-.86-1.34-2.54-1.89-1.97-.69-4.43-1.66-4.43-4.56s2.25-4.62,5.96-4.62c1.51,0,3.17.44,4.33,1.16.34.21.38.5.15.84l-1.09,1.62c-.19.32-.48.36-.82.21-.8-.36-1.72-.59-2.5-.59-1.05,0-1.66.4-1.66,1.03,0,.78.69,1.03,2.23,1.51,2.02.61,4.75,1.47,4.72,4.81,0,3.3-2.73,4.89-5.96,4.89-1.89,0-3.9-.59-5.44-1.64Z"/>
    <path class="cls-1" d="m47.83,243.47c0-3.8,2.18-6.13,5.79-6.13,3.3,0,5.23,2.16,5.23,5.75,0,.34-.02.71-.08,1.09-.04.36-.27.54-.63.54h-6.19c.31,1.2,1.15,1.83,2.5,1.83.61,0,1.37-.17,1.99-.44.36-.15.61-.08.84.21l.86,1.18c.21.32.19.61-.11.82-1.13.82-2.81,1.28-4.41,1.28-3.61,0-5.79-2.31-5.79-6.13Zm7.14-1.09c-.02-1.41-.57-2.22-1.47-2.22s-1.49.76-1.68,2.22h3.15Z"/>
    <path class="cls-1" d="m71.35,243.49c0,3.8-1.7,6.11-4.49,6.11-.92,0-1.89-.4-2.58-1.07v4.81c0,.4-.23.61-.61.61h-2.81c-.4,0-.61-.21-.61-.61v-14.99c0-.38.21-.59.61-.59h2.65c.38,0,.61.21.61.59v.78c.67-1.09,1.97-1.76,3.28-1.76,2.48,0,3.97,2.31,3.97,6.13Zm-4.14-.04c0-1.91-.5-2.96-1.43-2.96-.61,0-1.15.36-1.51,1.03v3.93c.36.65.88,1.03,1.49,1.03.94,0,1.45-1.07,1.45-3.02Z"/>
    <path class="cls-1" d="m73.43,245.63v-5h-.88c-.38,0-.59-.21-.59-.61v-1.24c0-.34.15-.59.48-.69l.4-.08c.38-.15.61-.27.71-.94l.19-1.2c.06-.38.29-.55.67-.55h2.46c.38,0,.59.23.59.61v1.83h2c.4,0,.61.21.61.59v1.68c0,.4-.21.61-.61.61h-2v4.64c0,.84.36,1.18,1.01,1.18.25,0,.53-.06.88-.15.4-.1.67.04.73.44l.25,1.7c.06.38-.15.65-.57.78-.84.25-1.62.38-2.35.38-2.35,0-3.99-1.32-3.99-3.97Z"/>
    <path class="cls-1" d="m80.59,243.47c0-3.8,2.18-6.13,5.79-6.13,3.3,0,5.23,2.16,5.23,5.75,0,.34-.02.71-.08,1.09-.04.36-.27.54-.63.54h-6.19c.31,1.2,1.15,1.83,2.5,1.83.61,0,1.37-.17,1.99-.44.36-.15.61-.08.84.21l.86,1.18c.21.32.19.61-.11.82-1.13.82-2.81,1.28-4.41,1.28-3.61,0-5.79-2.31-5.79-6.13Zm7.14-1.09c-.02-1.41-.57-2.22-1.47-2.22s-1.49.76-1.68,2.22h3.15Z"/>
    <path class="cls-1" d="m108.81,240.84v7.75c0,.38-.23.61-.61.61h-2.83c-.38,0-.61-.23-.61-.61v-7.05c0-.67-.25-1.05-.73-1.05-.42,0-.82.31-1.09.86v7.24c0,.38-.23.61-.61.61h-2.83c-.38,0-.61-.23-.61-.61v-7.05c0-.71-.19-1.05-.65-1.05s-.88.31-1.2.9v7.2c0,.38-.23.61-.61.61h-2.81c-.4,0-.61-.23-.61-.61v-10.25c0-.38.21-.59.61-.59h2.64c.38,0,.61.21.61.59v.8c.65-1.07,1.93-1.81,3.15-1.81s2.14.67,2.6,1.76c.65-1.05,1.89-1.76,3.04-1.76,1.97,0,3.15,1.32,3.15,3.51Z"/>
    <path class="cls-1" d="m114.25,248.15v.44c0,.38-.21.61-.61.61h-2.46c-.4,0-.61-.23-.61-.61v-14.49c0-.38.21-.61.61-.61h2.81c.38,0,.61.23.61.61v4.79c.71-.95,1.89-1.53,3.11-1.53,2.48,0,3.97,2.31,3.97,6.13s-1.7,6.11-4.49,6.11c-1.09,0-2.25-.57-2.94-1.45Zm3.3-4.7c0-1.91-.5-2.96-1.43-2.96-.61,0-1.16.38-1.51,1.03v3.95c.36.65.88,1.01,1.49,1.01.94,0,1.45-1.07,1.45-3.02Z"/>
    <path class="cls-1" d="m122.76,243.47c0-3.8,2.18-6.13,5.79-6.13,3.3,0,5.23,2.16,5.23,5.75,0,.34-.02.71-.08,1.09-.04.36-.27.54-.63.54h-6.19c.32,1.2,1.16,1.83,2.5,1.83.61,0,1.36-.17,1.99-.44.36-.15.61-.08.84.21l.86,1.18c.21.32.19.61-.11.82-1.13.82-2.81,1.28-4.41,1.28-3.61,0-5.79-2.31-5.79-6.13Zm7.14-1.09c-.02-1.41-.57-2.22-1.47-2.22s-1.49.76-1.68,2.22h3.15Z"/>
    <path class="cls-1" d="m142.85,238.24l-.4,2.73c-.06.4-.29.55-.63.48-.19-.04-.38-.06-.57-.06-.94,0-1.72.63-2.06,1.62v5.58c0,.38-.23.61-.61.61h-2.81c-.4,0-.61-.23-.61-.61v-10.25c0-.38.21-.59.61-.59h2.64c.38,0,.61.21.61.59v.95c.55-1.22,1.51-1.95,2.6-1.95.27,0,.59.06.84.15.34.1.42.4.38.76Z"/>
    <path class="cls-1" d="m60.1,275.34v-5.1c-.76.88-1.93,1.36-3.17,1.36-2.46,0-3.97-2.31-3.97-6.13s1.7-6.11,4.51-6.11c1.09,0,2.18.55,2.92,1.41v-.42c0-.38.21-.59.59-.59h2.54c.4,0,.61.21.61.59v14.99c0,.4-.21.61-.61.61h-2.81c-.38,0-.61-.21-.61-.61Zm0-7.96v-3.82c-.36-.67-.9-1.09-1.53-1.09-.95,0-1.47,1.07-1.47,3.04s.5,2.96,1.43,2.96c.65,0,1.22-.38,1.58-1.09Z"/>
    <path class="cls-1" d="m76.02,260.35v10.25c0,.38-.23.61-.61.61h-2.54c-.38,0-.61-.23-.61-.61v-.78c-.69,1.13-1.97,1.78-3.19,1.78-1.93,0-3.17-1.38-3.17-3.48v-7.77c0-.38.21-.59.61-.59h2.81c.4,0,.61.21.61.59v7.05c0,.71.29,1.09.82,1.09.48,0,.92-.31,1.22-.88v-7.27c0-.38.23-.59.61-.59h2.83c.38,0,.61.21.61.59Z"/>
    <path class="cls-1" d="m87.49,263.2v7.39c0,.38-.21.61-.61.61h-2.48c-.38,0-.59-.23-.59-.61v-.34c-.82.84-2.04,1.34-3.15,1.34-2.02,0-3.36-1.45-3.36-3.61s1.79-3.61,4.45-3.61h1.81v-.65c0-.95-.61-1.34-1.83-1.34-.57,0-1.26.15-1.83.4-.34.17-.61.13-.84-.19l-.96-1.34c-.23-.34-.17-.65.17-.84,1.2-.65,2.79-1.07,4.16-1.07,3.32,0,5.06,1.32,5.06,3.86Zm-3.93,3.13h-1.16c-.74,0-1.16.46-1.16,1.3,0,.69.38,1.11.99,1.11.52,0,1.01-.29,1.32-.82v-1.6Z"/>
    <path class="cls-1" d="m96.94,260.24l-.4,2.73c-.06.4-.29.55-.63.48-.19-.04-.38-.06-.57-.06-.94,0-1.72.63-2.06,1.62v5.58c0,.38-.23.61-.61.61h-2.81c-.4,0-.61-.23-.61-.61v-10.25c0-.38.21-.59.61-.59h2.64c.38,0,.61.21.61.59v.95c.55-1.22,1.51-1.95,2.6-1.95.27,0,.59.06.84.15.34.1.42.4.38.76Z"/>
    <path class="cls-1" d="m98.39,267.63v-5h-.88c-.38,0-.59-.21-.59-.61v-1.24c0-.34.15-.59.48-.69l.4-.08c.38-.15.61-.27.71-.94l.19-1.2c.06-.38.29-.55.67-.55h2.46c.38,0,.59.23.59.61v1.83h1.99c.4,0,.61.21.61.59v1.68c0,.4-.21.61-.61.61h-1.99v4.64c0,.84.36,1.18,1.01,1.18.25,0,.53-.06.88-.15.4-.1.67.04.74.44l.25,1.7c.06.38-.15.65-.57.78-.84.25-1.62.38-2.35.38-2.35,0-3.99-1.32-3.99-3.97Z"/>
    <path class="cls-1" d="m105.55,265.47c0-3.8,2.18-6.13,5.79-6.13,3.3,0,5.23,2.16,5.23,5.75,0,.34-.02.71-.08,1.09-.04.36-.27.54-.63.54h-6.19c.32,1.2,1.16,1.83,2.5,1.83.61,0,1.36-.17,1.99-.44.36-.15.61-.08.84.21l.86,1.18c.21.32.19.61-.11.82-1.13.82-2.81,1.28-4.41,1.28-3.61,0-5.79-2.31-5.79-6.13Zm7.14-1.09c-.02-1.41-.57-2.22-1.47-2.22s-1.49.76-1.68,2.22h3.15Z"/>
    <path class="cls-1" d="m125.64,260.24l-.4,2.73c-.06.4-.29.55-.63.48-.19-.04-.38-.06-.57-.06-.94,0-1.72.63-2.06,1.62v5.58c0,.38-.23.61-.61.61h-2.81c-.4,0-.61-.23-.61-.61v-10.25c0-.38.21-.59.61-.59h2.65c.38,0,.61.21.61.59v.95c.54-1.22,1.51-1.95,2.6-1.95.27,0,.59.06.84.15.34.1.42.4.38.76Z"/>
  </g>
  <g>
    <path class="cls-1" d="m294.1,214.79h-5.9v5.98c0,.79-.48,1.28-1.28,1.28h-3.56c-.79,0-1.28-.48-1.28-1.28v-5.98h-5.9c-.84,0-1.28-.44-1.28-1.23v-3.61c0-.79.44-1.28,1.28-1.28h5.85v-5.99c0-.79.48-1.28,1.28-1.28h3.61c.79,0,1.28.48,1.28,1.28v5.99h5.9c.79,0,1.28.48,1.28,1.28v3.61c0,.79-.48,1.23-1.28,1.23Z"/>
    <path class="cls-1" d="m310.69,225.09v-4.84h-11.31c-.84,0-1.28-.44-1.28-1.28v-3.43c0-.57.09-1.01.31-1.54l7.44-17.43c.31-.62.75-.97,1.5-.97h5.63c.92,0,1.36.57.97,1.5l-7.22,16.9h3.96l1.06-4c.22-.7.66-1.06,1.41-1.06h4.4c.79,0,1.23.48,1.23,1.28v3.74h2.29c.84,0,1.28.48,1.28,1.28v3.74c0,.84-.44,1.28-1.28,1.28h-2.29v4.84c0,.79-.44,1.28-1.23,1.28h-5.59c-.84,0-1.28-.48-1.28-1.28Z"/>
    <path class="cls-1" d="m324.02,225.09v-5.76c0-.79.48-1.28,1.28-1.28h6.21c.79,0,1.28.48,1.28,1.28v5.76c0,.79-.48,1.28-1.28,1.28h-6.21c-.79,0-1.28-.48-1.28-1.28Z"/>
    <path class="cls-1" d="m334.1,224.12c-.62-.48-.66-1.14-.13-1.76l2.42-2.9c.48-.66,1.1-.66,1.8-.18,1.41,1.01,3.17,1.63,4.75,1.63,2.29,0,3.96-1.19,3.96-3.7s-1.72-3.87-4.8-3.87h-1.72c-.79,0-1.32-.44-1.32-1.28v-1.19c0-.66.13-1.1.57-1.54l6.25-7.39h-9.86c-.79,0-1.23-.44-1.23-1.28v-3.79c0-.79.44-1.28,1.23-1.28h17.69c.79,0,1.23.48,1.23,1.28v3.21c0,.66-.18,1.1-.57,1.58l-6.38,7.57c4.84.75,7.53,3.83,7.53,8.49,0,5.98-5.02,9.46-11.27,9.46-3.83,0-7.57-1.14-10.17-3.08Z"/>
    <path class="cls-1" d="m357.42,203.31c0-5.06,3.08-8.14,8.14-8.14s8.14,3.08,8.14,8.14-3.08,8.14-8.14,8.14-8.14-3.12-8.14-8.14Zm10.74,23.06h-4.14c-1.01,0-1.36-.66-.79-1.54l19.5-28.43c.35-.57.84-.79,1.5-.79h4.14c1.01,0,1.41.66.79,1.54l-19.45,28.43c-.4.57-.88.79-1.54.79Zm-.35-23.06c0-2.16-.79-3.34-2.24-3.34s-2.24,1.19-2.24,3.34.79,3.3,2.24,3.3,2.24-1.19,2.24-3.3Zm10.83,15.36c0-5.06,3.08-8.14,8.14-8.14s8.14,3.08,8.14,8.14-3.08,8.19-8.14,8.19-8.14-3.12-8.14-8.19Zm10.38,0c0-2.11-.79-3.3-2.24-3.3s-2.24,1.19-2.24,3.3.79,3.34,2.24,3.34,2.24-1.19,2.24-3.34Z"/>
    <path class="cls-1" d="m280.7,245.95v1.8c0,.38-.23.61-.61.61h-8.59c-.4,0-.61-.23-.61-.61v-1.8c0-.4.21-.61.61-.61h2.67v-7.47l-2.1,1.18c-.34.19-.61.11-.84-.17l-1.22-1.45c-.25-.34-.21-.63.15-.84l4.58-2.69c.25-.15.48-.21.76-.21h2c.38,0,.59.23.59.61v11.04h2.02c.38,0,.61.21.61.61Z"/>
    <path class="cls-1" d="m290.99,245.95v1.8c0,.38-.23.61-.61.61h-8.69c-.38,0-.61-.23-.61-.61v-1.72c0-.32.11-.53.32-.76,2.23-2.16,5.44-4.91,5.44-7.29,0-.94-.59-1.58-1.45-1.58-.76,0-1.7.42-2.54,1.16-.31.25-.61.25-.86-.06l-1.05-1.26c-.23-.27-.25-.57-.02-.84,1.32-1.49,3.15-2.12,4.83-2.12,3.11,0,5.19,1.66,5.19,4.18s-1.68,4.83-4.79,7.87h4.24c.38,0,.61.21.61.61Z"/>
    <path class="cls-1" d="m313.04,240.01v7.75c0,.38-.23.61-.61.61h-2.83c-.38,0-.61-.23-.61-.61v-7.05c0-.67-.25-1.05-.73-1.05-.42,0-.82.31-1.09.86v7.24c0,.38-.23.61-.61.61h-2.83c-.38,0-.61-.23-.61-.61v-7.05c0-.71-.19-1.05-.65-1.05s-.88.31-1.2.9v7.2c0,.38-.23.61-.61.61h-2.81c-.4,0-.61-.23-.61-.61v-10.25c0-.38.21-.59.61-.59h2.65c.38,0,.61.21.61.59v.8c.65-1.07,1.93-1.81,3.15-1.81s2.14.67,2.6,1.76c.65-1.05,1.89-1.76,3.04-1.76,1.97,0,3.15,1.32,3.15,3.51Z"/>
    <path class="cls-1" d="m325.89,242.63c0,3.82-2.16,6.13-5.73,6.13s-5.75-2.31-5.75-6.13,2.16-6.13,5.75-6.13,5.73,2.33,5.73,6.13Zm-4.14,0c0-1.93-.57-2.98-1.6-2.98s-1.62,1.05-1.62,2.98.57,3,1.62,3,1.6-1.07,1.6-3Z"/>
    <path class="cls-1" d="m337.59,240.01v7.75c0,.38-.23.61-.61.61h-2.83c-.38,0-.59-.23-.59-.61v-7.05c0-.67-.31-1.05-.84-1.05s-1.03.4-1.34,1.07v7.03c0,.38-.23.61-.61.61h-2.81c-.4,0-.61-.23-.61-.61v-10.25c0-.38.21-.59.61-.59h2.65c.38,0,.61.21.61.59v.8c.67-1.11,1.97-1.81,3.19-1.81,1.93,0,3.19,1.43,3.19,3.51Z"/>
    <path class="cls-1" d="m339.96,244.8v-5h-.88c-.38,0-.59-.21-.59-.61v-1.24c0-.34.15-.59.48-.69l.4-.08c.38-.15.61-.27.71-.94l.19-1.2c.06-.38.29-.55.67-.55h2.46c.38,0,.59.23.59.61v1.83h1.99c.4,0,.61.21.61.59v1.68c0,.4-.21.61-.61.61h-1.99v4.64c0,.84.36,1.18,1.01,1.18.25,0,.52-.06.88-.15.4-.1.67.04.73.44l.25,1.7c.06.38-.15.65-.57.78-.84.25-1.62.38-2.35.38-2.35,0-3.99-1.32-3.99-3.97Z"/>
    <path class="cls-1" d="m357.98,240.01v7.75c0,.38-.23.61-.61.61h-2.83c-.38,0-.59-.23-.59-.61v-7.05c0-.71-.27-1.05-.86-1.05-.48,0-.99.31-1.32.92v7.18c0,.38-.23.61-.61.61h-2.81c-.4,0-.61-.23-.61-.61v-14.49c0-.38.21-.61.61-.61h2.81c.38,0,.61.23.61.61v4.79c.74-.97,1.87-1.55,3.02-1.55,2.02,0,3.19,1.32,3.19,3.51Z"/>
    <path class="cls-1" d="m364.89,241.25c1.62.44,3.78.99,3.78,3.59,0,2.35-2.12,3.93-5.29,3.93-1.6,0-3.28-.48-4.39-1.26-.31-.23-.36-.52-.13-.86l.99-1.34c.23-.32.5-.36.86-.15.71.4,1.66.65,2.44.65.86,0,1.39-.29,1.39-.74,0-.54-.5-.71-1.53-.99-1.55-.42-3.93-1.18-3.93-3.78,0-2.39,1.81-3.8,4.85-3.8,1.32,0,2.88.4,4.03,1.05.36.19.4.5.17.84l-.99,1.34c-.21.34-.48.36-.82.19-.59-.29-1.32-.46-1.97-.46-.74,0-1.26.29-1.26.71,0,.57.59.71,1.81,1.07Z"/>
    <path class="cls-1" d="m375.22,244.8v-5h-.88c-.38,0-.59-.21-.59-.61v-1.24c0-.34.15-.59.48-.69l.4-.08c.38-.15.61-.27.71-.94l.19-1.2c.06-.38.29-.55.67-.55h2.46c.38,0,.59.23.59.61v1.83h2c.4,0,.61.21.61.59v1.68c0,.4-.21.61-.61.61h-2v4.64c0,.84.36,1.18,1.01,1.18.25,0,.53-.06.88-.15.4-.1.67.04.74.44l.25,1.7c.06.38-.15.65-.57.78-.84.25-1.62.38-2.35.38-2.35,0-3.99-1.32-3.99-3.97Z"/>
    <path class="cls-1" d="m393.87,242.63c0,3.82-2.16,6.13-5.73,6.13s-5.75-2.31-5.75-6.13,2.16-6.13,5.75-6.13,5.73,2.33,5.73,6.13Zm-4.14,0c0-1.93-.57-2.98-1.6-2.98s-1.62,1.05-1.62,2.98.57,3,1.62,3,1.6-1.07,1.6-3Z"/>
    <path class="cls-1" d="m260.82,269.76v-13.46c0-.38.23-.61.61-.61h4.16c.38,0,.59.17.69.52l2.92,10.75h.06c-.17-1.55-.38-3.8-.4-5.42v-5.25c0-.38.23-.61.61-.61h2.5c.4,0,.61.23.61.61v13.46c0,.38-.21.61-.61.61h-4.24c-.36,0-.59-.17-.67-.5l-2.71-9.8h-.06c.15,1.32.23,3.38.25,4.7v5c0,.38-.23.61-.61.61h-2.5c-.38,0-.61-.23-.61-.61Z"/>
    <path class="cls-1" d="m285.56,264.63c0,3.82-2.16,6.13-5.73,6.13s-5.75-2.31-5.75-6.13,2.16-6.13,5.75-6.13,5.73,2.33,5.73,6.13Zm-4.14,0c0-1.93-.57-2.98-1.6-2.98s-1.62,1.05-1.62,2.98.57,3,1.62,3,1.6-1.07,1.6-3Z"/>
    <path class="cls-1" d="m288.86,269.86l-3.13-10.27c-.13-.4.06-.67.5-.67h2.98c.38,0,.59.15.67.53l1.49,7.45h.06l1.51-7.45c.06-.38.29-.53.65-.53h2.9c.44,0,.63.27.5.67l-3.11,10.27c-.1.34-.34.5-.67.5h-3.7c-.34,0-.57-.17-.67-.5Z"/>
    <path class="cls-1" d="m297.17,264.63c0-3.8,2.18-6.13,5.79-6.13,3.3,0,5.23,2.16,5.23,5.75,0,.34-.02.71-.08,1.09-.04.36-.27.54-.63.54h-6.19c.32,1.2,1.16,1.83,2.5,1.83.61,0,1.36-.17,1.99-.44.36-.15.61-.08.84.21l.86,1.18c.21.32.19.61-.11.82-1.13.82-2.81,1.28-4.41,1.28-3.61,0-5.79-2.31-5.79-6.13Zm7.14-1.09c-.02-1.41-.57-2.22-1.47-2.22s-1.49.76-1.68,2.22h3.15Z"/>
    <path class="cls-1" d="m325.4,262.01v7.75c0,.38-.23.61-.61.61h-2.83c-.38,0-.61-.23-.61-.61v-7.05c0-.67-.25-1.05-.73-1.05-.42,0-.82.31-1.09.86v7.24c0,.38-.23.61-.61.61h-2.83c-.38,0-.61-.23-.61-.61v-7.05c0-.71-.19-1.05-.65-1.05s-.88.31-1.2.9v7.2c0,.38-.23.61-.61.61h-2.81c-.4,0-.61-.23-.61-.61v-10.25c0-.38.21-.59.61-.59h2.65c.38,0,.61.21.61.59v.8c.65-1.07,1.93-1.81,3.15-1.81s2.14.67,2.6,1.76c.65-1.05,1.89-1.76,3.04-1.76,1.97,0,3.15,1.32,3.15,3.51Z"/>
    <path class="cls-1" d="m330.84,269.32v.44c0,.38-.21.61-.61.61h-2.46c-.4,0-.61-.23-.61-.61v-14.49c0-.38.21-.61.61-.61h2.81c.38,0,.61.23.61.61v4.79c.71-.95,1.89-1.53,3.11-1.53,2.48,0,3.97,2.31,3.97,6.13s-1.7,6.11-4.49,6.11c-1.09,0-2.25-.57-2.94-1.45Zm3.3-4.7c0-1.91-.5-2.96-1.43-2.96-.61,0-1.16.38-1.51,1.03v3.95c.36.65.88,1.01,1.49,1.01.95,0,1.45-1.07,1.45-3.02Z"/>
    <path class="cls-1" d="m339.34,264.63c0-3.8,2.18-6.13,5.79-6.13,3.3,0,5.23,2.16,5.23,5.75,0,.34-.02.71-.08,1.09-.04.36-.27.54-.63.54h-6.19c.32,1.2,1.16,1.83,2.5,1.83.61,0,1.36-.17,1.99-.44.36-.15.61-.08.84.21l.86,1.18c.21.32.19.61-.11.82-1.13.82-2.81,1.28-4.41,1.28-3.61,0-5.79-2.31-5.79-6.13Zm7.14-1.09c-.02-1.41-.57-2.22-1.47-2.22s-1.49.76-1.68,2.22h3.15Z"/>
    <path class="cls-1" d="m359.44,259.41l-.4,2.73c-.06.4-.29.55-.63.48-.19-.04-.38-.06-.57-.06-.95,0-1.72.63-2.06,1.62v5.58c0,.38-.23.61-.61.61h-2.81c-.4,0-.61-.23-.61-.61v-10.25c0-.38.21-.59.61-.59h2.65c.38,0,.61.21.61.59v.95c.55-1.22,1.51-1.95,2.6-1.95.27,0,.59.06.84.15.34.1.42.4.38.76Z"/>
    <path class="cls-1" d="m374.16,267.95v1.8c0,.38-.23.61-.61.61h-8.69c-.38,0-.61-.23-.61-.61v-1.72c0-.32.11-.53.32-.76,2.23-2.16,5.44-4.91,5.44-7.29,0-.94-.59-1.58-1.45-1.58-.76,0-1.7.42-2.54,1.16-.31.25-.61.25-.86-.06l-1.05-1.26c-.23-.27-.25-.57-.02-.84,1.32-1.49,3.15-2.12,4.83-2.12,3.11,0,5.19,1.66,5.19,4.18s-1.68,4.83-4.79,7.87h4.24c.38,0,.61.21.61.61Z"/>
    <path class="cls-1" d="m386.93,263.04c0,5.02-1.99,7.73-5.77,7.73s-5.77-2.71-5.77-7.73,2-7.75,5.77-7.75,5.77,2.71,5.77,7.75Zm-4.12,0c0-3.25-.48-4.54-1.66-4.54s-1.66,1.28-1.66,4.54.48,4.51,1.66,4.51,1.66-1.28,1.66-4.51Z"/>
    <path class="cls-1" d="m397.68,267.95v1.8c0,.38-.23.61-.61.61h-8.69c-.38,0-.61-.23-.61-.61v-1.72c0-.32.11-.53.32-.76,2.23-2.16,5.44-4.91,5.44-7.29,0-.94-.59-1.58-1.45-1.58-.76,0-1.7.42-2.54,1.16-.31.25-.61.25-.86-.06l-1.05-1.26c-.23-.27-.25-.57-.02-.84,1.32-1.49,3.15-2.12,4.83-2.12,3.11,0,5.19,1.66,5.19,4.18s-1.68,4.83-4.79,7.87h4.24c.38,0,.61.21.61.61Z"/>
    <path class="cls-1" d="m398.46,269.3c-.29-.23-.32-.55-.06-.84l1.16-1.39c.23-.31.52-.31.86-.08.67.48,1.51.78,2.27.78,1.09,0,1.89-.57,1.89-1.76s-.82-1.85-2.29-1.85h-.82c-.38,0-.63-.21-.63-.61v-.57c0-.31.06-.53.27-.73l2.98-3.53h-4.7c-.38,0-.59-.21-.59-.61v-1.81c0-.38.21-.61.59-.61h8.44c.38,0,.59.23.59.61v1.53c0,.32-.08.53-.27.76l-3.04,3.61c2.31.36,3.59,1.83,3.59,4.05,0,2.86-2.39,4.51-5.38,4.51-1.83,0-3.61-.54-4.85-1.47Z"/>
  </g>
  <g class="cls-9">
    <g class="cls-8">
      <path class="cls-2" d="m280.71,429.99h-122.98c-5.82,0-8.44-3.04-7.95-8.78,1.31-9.19,6.39-22.97,24.51-28.88,19.27-7.47,20.74-8.21,20.74-8.21,0,0,4.43-7.47,6.56-7.96,2.13-.49.33-3.45,0-4.18-.33-.9-2.95,0-2.95-10.75,0-3.53.49-3.86-1.31-3.86s-5.74-2.46-5.74-11.08,0-9.03,1.48-9.27c.25-3.28-1.56-8.62-1.56-20.68s9.51-23.39,27.79-23.39c5.33,0,9.84-2.54,14.84-2.87.66,1.56,1.39,4.18,2.46,4.84,3.77,2.54,8.94,8.86,10.74,21.42,0,12.06-1.89,17.4-1.64,20.68,1.48.25,1.48.57,1.48,9.27s-4.02,11.08-5.74,11.08-1.31.25-1.31,3.86c0,10.75-2.62,9.93-2.95,10.75-.33.82-2.05,3.77,0,4.18,2.05.49,6.56,7.96,6.56,7.96,0,0,1.39.82,20.58,8.21,18.28,5.99,23.28,19.94,24.51,29.13.33,5.91-1.48,8.53-8.2,8.53h.08Z"/>
    </g>
  </g>
</svg>