<?xml version="1.0" encoding="UTF-8"?>
<svg id="Layer_1" data-name="Layer 1" xmlns="http://www.w3.org/2000/svg" viewBox="0 0 430.06 430.06">
  <defs>
    <style>
      .cls-1, .cls-2, .cls-3, .cls-4, .cls-5, .cls-6 {
        stroke-width: 0px;
      }

      .cls-1, .cls-4 {
        fill: #bfd4e4;
      }

      .cls-2 {
        fill: #fff;
      }

      .cls-2, .cls-4, .cls-5, .cls-6 {
        fill-rule: evenodd;
      }

      .cls-3, .cls-6 {
        fill: #1e3564;
      }

      .cls-5 {
        fill: #a2c3e7;
      }
    </style>
  </defs>
  <rect class="cls-1" width="430.06" height="430.06"/>
  <g>
    <path class="cls-3" d="m162.89,99.93v3.87c0,.81-.49,1.31-1.3,1.31h-18.4c-.85,0-1.3-.5-1.3-1.31v-3.87c0-.85.45-1.31,1.3-1.31h5.71v-16.02l-4.5,2.52c-.72.4-1.3.22-1.8-.36l-2.61-3.1c-.54-.72-.45-1.35.31-1.8l9.81-5.76c.54-.31,1.04-.45,1.62-.45h4.27c.81,0,1.26.5,1.26,1.3v23.67h4.32c.81,0,1.3.45,1.3,1.31Z"/>
    <path class="cls-3" d="m185.39,99.93v3.87c0,.81-.49,1.31-1.3,1.31h-18.4c-.85,0-1.3-.5-1.3-1.31v-3.87c0-.85.45-1.31,1.3-1.31h5.71v-16.02l-4.5,2.52c-.72.4-1.3.22-1.8-.36l-2.61-3.1c-.54-.72-.45-1.35.31-1.8l9.81-5.76c.54-.31,1.04-.45,1.62-.45h4.27c.81,0,1.26.5,1.26,1.3v23.67h4.32c.81,0,1.3.45,1.3,1.31Z"/>
    <path class="cls-3" d="m188.31,96.6h6.34c.81,0,1.3.5,1.3,1.31v5.58c0,5.22-2.88,8.55-7.74,9.18-.81.14-1.26-.31-1.4-1.12l-.09-.58c-.13-.81.27-1.26,1.04-1.53,1.8-.67,2.83-2.21,2.92-4.32h-2.38c-.81,0-1.31-.5-1.31-1.31v-5.89c0-.81.5-1.31,1.31-1.31Z"/>
    <path class="cls-3" d="m223.01,89.4c0,10.75-4.28,16.56-12.38,16.56s-12.37-5.8-12.37-16.56,4.27-16.6,12.37-16.6,12.38,5.8,12.38,16.6Zm-8.82,0c0-6.97-1.04-9.72-3.56-9.72s-3.55,2.74-3.55,9.72,1.04,9.67,3.55,9.67,3.56-2.74,3.56-9.67Z"/>
    <path class="cls-3" d="m250.28,89.4c0,10.75-4.28,16.56-12.38,16.56s-12.37-5.8-12.37-16.56,4.27-16.6,12.37-16.6,12.38,5.8,12.38,16.6Zm-8.82,0c0-6.97-1.04-9.72-3.56-9.72s-3.55,2.74-3.55,9.72,1.04,9.67,3.55,9.67,3.56-2.74,3.56-9.67Z"/>
    <path class="cls-3" d="m277.55,89.4c0,10.75-4.28,16.56-12.38,16.56s-12.37-5.8-12.37-16.56,4.27-16.6,12.37-16.6,12.38,5.8,12.38,16.6Zm-8.82,0c0-6.97-1.04-9.72-3.56-9.72s-3.55,2.74-3.55,9.72,1.04,9.67,3.55,9.67,3.56-2.74,3.56-9.67Z"/>
    <path class="cls-3" d="m134.87,136.81v-9.1h-1.13c-.43,0-.7-.24-.7-.7v-1.42c0-.38.19-.67.58-.79l.48-.12c.55-.17.77-.46.77-1.03v-.31c0-2.57,2.06-4.25,5.11-4.25.84,0,1.75.14,2.47.38.38.12.53.43.46.84l-.26,1.92c-.07.48-.38.62-.84.5-.36-.1-.77-.14-1.18-.14-1.01,0-1.56.5-1.56,1.42v.41h2.09c.43,0,.7.24.7.67v1.92c0,.43-.26.7-.7.7h-1.68v9.1c0,.43-.26.7-.7.7h-3.24c-.43,0-.67-.26-.67-.7Z"/>
    <path class="cls-3" d="m154.39,125.09v11.71c0,.43-.26.7-.7.7h-2.9c-.43,0-.7-.26-.7-.7v-.89c-.79,1.3-2.26,2.04-3.65,2.04-2.21,0-3.62-1.58-3.62-3.98v-8.88c0-.43.24-.67.7-.67h3.22c.46,0,.7.24.7.67v8.06c0,.82.34,1.25.94,1.25.55,0,1.06-.36,1.39-1.01v-8.3c0-.43.26-.67.7-.67h3.24c.43,0,.7.24.7.67Z"/>
    <path class="cls-3" d="m156.38,136.81v-16.56c0-.43.24-.7.7-.7h3.22c.46,0,.7.26.7.7v16.56c0,.43-.24.7-.7.7h-3.22c-.46,0-.7-.26-.7-.7Z"/>
    <path class="cls-3" d="m162.9,136.81v-16.56c0-.43.24-.7.7-.7h3.22c.46,0,.7.26.7.7v16.56c0,.43-.24.7-.7.7h-3.22c-.46,0-.7-.26-.7-.7Z"/>
    <path class="cls-3" d="m177.06,129.68v1.97c0,.43-.24.7-.67.7h-6.72c-.43,0-.7-.26-.7-.7v-1.97c0-.43.26-.7.7-.7h6.72c.43,0,.67.26.67.7Z"/>
    <path class="cls-3" d="m179.34,133.42v-5.71h-1.01c-.43,0-.67-.24-.67-.7v-1.42c0-.38.17-.67.55-.79l.46-.1c.43-.17.7-.31.82-1.08l.22-1.37c.07-.43.34-.62.77-.62h2.81c.43,0,.67.26.67.7v2.09h2.28c.46,0,.7.24.7.67v1.92c0,.46-.24.7-.7.7h-2.28v5.3c0,.96.41,1.34,1.15,1.34.29,0,.6-.07,1.01-.17.46-.12.77.05.84.5l.29,1.94c.07.43-.17.74-.65.89-.96.29-1.85.43-2.69.43-2.69,0-4.56-1.51-4.56-4.54Z"/>
    <path class="cls-3" d="m188.2,122.24v-1.99c0-.43.24-.7.7-.7h3.29c.43,0,.7.26.7.7v1.99c0,.46-.26.7-.7.7h-3.29c-.46,0-.7-.24-.7-.7Zm.02,14.57v-11.71c0-.43.26-.67.7-.67h3.24c.43,0,.67.24.67.67v11.71c0,.43-.24.7-.67.7h-3.24c-.43,0-.7-.26-.7-.7Z"/>
    <path class="cls-3" d="m213.04,127.95v8.86c0,.43-.26.7-.7.7h-3.24c-.43,0-.7-.26-.7-.7v-8.06c0-.77-.29-1.2-.84-1.2-.48,0-.94.36-1.25.98v8.28c0,.43-.26.7-.7.7h-3.24c-.43,0-.7-.26-.7-.7v-8.06c0-.82-.22-1.2-.74-1.2s-1.01.36-1.37,1.03v8.23c0,.43-.26.7-.7.7h-3.22c-.46,0-.7-.26-.7-.7v-11.71c0-.43.24-.67.7-.67h3.02c.43,0,.7.24.7.67v.91c.74-1.22,2.21-2.06,3.6-2.06s2.45.77,2.98,2.02c.74-1.2,2.16-2.02,3.48-2.02,2.26,0,3.6,1.51,3.6,4.01Z"/>
    <path class="cls-3" d="m214.6,130.95c0-4.34,2.5-7.01,6.62-7.01,3.77,0,5.98,2.47,5.98,6.58,0,.38-.02.82-.1,1.25-.05.41-.31.62-.72.62h-7.08c.36,1.37,1.32,2.09,2.86,2.09.7,0,1.56-.19,2.28-.5.41-.17.7-.1.96.24l.98,1.34c.24.36.22.7-.12.94-1.3.94-3.22,1.46-5.04,1.46-4.13,0-6.62-2.64-6.62-7.01Zm8.16-1.25c-.02-1.61-.65-2.54-1.68-2.54s-1.7.86-1.92,2.54h3.6Z"/>
    <path class="cls-3" d="m232.21,142.71l-.31-2.02c-.07-.41.1-.65.43-.84,1.27-.74,1.85-1.63,1.85-2.98v-11.79c0-.43.24-.67.67-.67h3.24c.43,0,.7.24.7.67v11.4c0,3.46-2.23,6.19-5.81,6.82-.43.07-.7-.17-.77-.6Zm1.92-20.47v-1.99c0-.43.26-.7.7-.7h3.29c.46,0,.7.26.7.7v1.99c0,.46-.24.7-.7.7h-3.29c-.43,0-.7-.24-.7-.7Z"/>
    <path class="cls-3" d="m253.62,130.95c0,4.37-2.47,7.01-6.55,7.01s-6.58-2.64-6.58-7.01,2.47-7.01,6.58-7.01,6.55,2.66,6.55,7.01Zm-4.73,0c0-2.21-.65-3.41-1.82-3.41s-1.85,1.2-1.85,3.41.65,3.43,1.85,3.43,1.82-1.22,1.82-3.43Z"/>
    <path class="cls-3" d="m259.48,136.3v.5c0,.43-.24.7-.7.7h-2.81c-.46,0-.7-.26-.7-.7v-16.56c0-.43.24-.7.7-.7h3.22c.43,0,.7.26.7.7v5.47c.82-1.08,2.16-1.75,3.55-1.75,2.83,0,4.54,2.64,4.54,7.01s-1.94,6.98-5.14,6.98c-1.25,0-2.57-.65-3.36-1.66Zm3.77-5.38c0-2.18-.58-3.38-1.63-3.38-.7,0-1.32.43-1.73,1.18v4.51c.41.74,1.01,1.15,1.7,1.15,1.08,0,1.66-1.22,1.66-3.46Z"/>
    <path class="cls-3" d="m275.53,129.37c1.85.5,4.32,1.13,4.32,4.1,0,2.69-2.42,4.49-6.05,4.49-1.82,0-3.74-.55-5.02-1.44-.36-.26-.41-.6-.14-.98l1.13-1.54c.26-.36.58-.41.98-.17.82.46,1.9.74,2.78.74.98,0,1.58-.34,1.58-.84,0-.62-.58-.82-1.75-1.13-1.78-.48-4.49-1.34-4.49-4.32,0-2.74,2.06-4.34,5.54-4.34,1.51,0,3.29.46,4.61,1.2.41.22.46.58.19.96l-1.13,1.54c-.24.38-.55.41-.94.22-.67-.34-1.51-.53-2.26-.53-.84,0-1.44.34-1.44.82,0,.65.67.82,2.06,1.22Z"/>
    <path class="cls-3" d="m114.79,158.17c1.85.5,4.32,1.13,4.32,4.1,0,2.69-2.42,4.49-6.05,4.49-1.82,0-3.74-.55-5.02-1.44-.36-.26-.41-.6-.14-.98l1.13-1.54c.26-.36.58-.41.98-.17.82.46,1.9.74,2.78.74.98,0,1.58-.34,1.58-.84,0-.62-.58-.82-1.75-1.13-1.78-.48-4.49-1.34-4.49-4.32,0-2.74,2.06-4.34,5.54-4.34,1.51,0,3.29.46,4.61,1.2.41.22.46.58.19.96l-1.13,1.54c-.24.38-.55.41-.94.22-.67-.34-1.51-.53-2.26-.53-.84,0-1.44.34-1.44.82,0,.65.67.82,2.06,1.22Z"/>
    <path class="cls-3" d="m132.26,156.75v8.86c0,.43-.26.7-.7.7h-3.24c-.43,0-.67-.26-.67-.7v-8.06c0-.82-.31-1.2-.98-1.2-.55,0-1.13.36-1.51,1.06v8.21c0,.43-.26.7-.7.7h-3.22c-.46,0-.7-.26-.7-.7v-16.56c0-.43.24-.7.7-.7h3.22c.43,0,.7.26.7.7v5.47c.84-1.1,2.14-1.78,3.46-1.78,2.3,0,3.65,1.51,3.65,4.01Z"/>
    <path class="cls-3" d="m133.82,159.75c0-4.34,2.5-7.01,6.62-7.01,3.77,0,5.98,2.47,5.98,6.58,0,.38-.02.82-.1,1.25-.05.41-.31.62-.72.62h-7.08c.36,1.37,1.32,2.09,2.86,2.09.7,0,1.56-.19,2.28-.5.41-.17.7-.1.96.24l.98,1.34c.24.36.22.7-.12.94-1.3.94-3.22,1.46-5.04,1.46-4.13,0-6.62-2.64-6.62-7.01Zm8.16-1.25c-.02-1.61-.65-2.54-1.68-2.54s-1.7.86-1.92,2.54h3.6Z"/>
    <path class="cls-3" d="m147.54,159.75c0-4.34,1.94-6.98,5.16-6.98,1.06,0,2.16.48,2.95,1.25v-4.97c0-.43.26-.7.7-.7h3.24c.43,0,.7.26.7.7v16.56c0,.43-.26.7-.7.7h-2.83c-.43,0-.7-.26-.7-.7v-.48c-.86,1.01-2.18,1.63-3.6,1.63-3.05,0-4.92-2.64-4.92-7.01Zm8.11,2.26v-4.51c-.38-.74-1.01-1.18-1.7-1.18-1.08,0-1.68,1.22-1.68,3.48s.58,3.38,1.63,3.38c.74,0,1.37-.43,1.75-1.18Z"/>
    <path class="cls-3" d="m167.7,151.04v-1.99c0-.43.24-.7.7-.7h3.29c.43,0,.7.26.7.7v1.99c0,.46-.26.7-.7.7h-3.29c-.46,0-.7-.24-.7-.7Zm.02,14.57v-11.71c0-.43.26-.67.7-.67h3.24c.43,0,.67.24.67.67v11.71c0,.43-.24.7-.67.7h-3.24c-.43,0-.7-.26-.7-.7Z"/>
    <path class="cls-3" d="m186.18,156.75v8.86c0,.43-.26.7-.7.7h-3.24c-.43,0-.67-.26-.67-.7v-8.06c0-.77-.36-1.2-.96-1.2s-1.18.46-1.54,1.22v8.04c0,.43-.26.7-.7.7h-3.22c-.46,0-.7-.26-.7-.7v-11.71c0-.43.24-.67.7-.67h3.02c.43,0,.7.24.7.67v.91c.77-1.27,2.26-2.06,3.65-2.06,2.21,0,3.65,1.63,3.65,4.01Z"/>
    <path class="cls-3" d="m194.25,162.22v-5.71h-1.01c-.43,0-.67-.24-.67-.7v-1.42c0-.38.17-.67.55-.79l.46-.1c.43-.17.7-.31.82-1.08l.22-1.37c.07-.43.34-.62.77-.62h2.81c.43,0,.67.26.67.7v2.09h2.28c.46,0,.7.24.7.67v1.92c0,.46-.24.7-.7.7h-2.28v5.3c0,.96.41,1.34,1.15,1.34.29,0,.6-.07,1.01-.17.46-.12.77.05.84.5l.29,1.94c.07.43-.17.74-.65.89-.96.29-1.85.43-2.69.43-2.69,0-4.56-1.51-4.56-4.54Z"/>
    <path class="cls-3" d="m214.84,156.75v8.86c0,.43-.26.7-.7.7h-3.24c-.43,0-.67-.26-.67-.7v-8.06c0-.82-.31-1.2-.98-1.2-.55,0-1.13.36-1.51,1.06v8.21c0,.43-.26.7-.7.7h-3.22c-.46,0-.7-.26-.7-.7v-16.56c0-.43.24-.7.7-.7h3.22c.43,0,.7.26.7.7v5.47c.84-1.1,2.14-1.78,3.46-1.78,2.3,0,3.65,1.51,3.65,4.01Z"/>
    <path class="cls-3" d="m216.4,159.75c0-4.34,2.5-7.01,6.62-7.01,3.77,0,5.98,2.47,5.98,6.58,0,.38-.02.82-.1,1.25-.05.41-.31.62-.72.62h-7.08c.36,1.37,1.32,2.09,2.86,2.09.7,0,1.56-.19,2.28-.5.41-.17.7-.1.96.24l.98,1.34c.24.36.22.7-.12.94-1.3.94-3.22,1.46-5.04,1.46-4.13,0-6.62-2.64-6.62-7.01Zm8.16-1.25c-.02-1.61-.65-2.54-1.68-2.54s-1.7.86-1.92,2.54h3.6Z"/>
    <path class="cls-3" d="m249.57,150.22v15.39c0,.43-.24.7-.67.7h-3.43c-.43,0-.7-.26-.7-.7v-6.24h-3.98v6.24c0,.43-.26.7-.7.7h-3.41c-.43,0-.7-.26-.7-.7v-15.39c0-.43.26-.7.7-.7h3.41c.43,0,.7.26.7.7v5.57h3.98v-5.57c0-.43.26-.7.7-.7h3.43c.43,0,.67.26.67.7Z"/>
    <path class="cls-3" d="m263.2,153.89v11.71c0,.43-.26.7-.7.7h-2.9c-.43,0-.7-.26-.7-.7v-.89c-.79,1.3-2.26,2.04-3.65,2.04-2.21,0-3.62-1.58-3.62-3.98v-8.88c0-.43.24-.67.7-.67h3.22c.46,0,.7.24.7.67v8.06c0,.82.34,1.25.94,1.25.55,0,1.06-.36,1.39-1.01v-8.3c0-.43.26-.67.7-.67h3.24c.43,0,.7.24.7.67Z"/>
    <path class="cls-3" d="m277,156.75v8.86c0,.43-.26.7-.7.7h-3.24c-.43,0-.67-.26-.67-.7v-8.06c0-.77-.36-1.2-.96-1.2s-1.18.46-1.54,1.22v8.04c0,.43-.26.7-.7.7h-3.22c-.46,0-.7-.26-.7-.7v-11.71c0-.43.24-.67.7-.67h3.02c.43,0,.7.24.7.67v.91c.77-1.27,2.26-2.06,3.65-2.06,2.21,0,3.65,1.63,3.65,4.01Z"/>
    <path class="cls-3" d="m279.71,162.22v-5.71h-1.01c-.43,0-.67-.24-.67-.7v-1.42c0-.38.17-.67.55-.79l.46-.1c.43-.17.7-.31.82-1.08l.22-1.37c.07-.43.34-.62.77-.62h2.81c.43,0,.67.26.67.7v2.09h2.28c.46,0,.7.24.7.67v1.92c0,.46-.24.7-.7.7h-2.28v5.3c0,.96.41,1.34,1.15,1.34.29,0,.6-.07,1.01-.17.46-.12.77.05.84.5l.29,1.94c.07.43-.17.74-.65.89-.96.29-1.85.43-2.69.43-2.69,0-4.56-1.51-4.56-4.54Z"/>
    <path class="cls-3" d="m287.89,159.75c0-4.34,2.5-7.01,6.62-7.01,3.77,0,5.98,2.47,5.98,6.58,0,.38-.02.82-.1,1.25-.05.41-.31.62-.72.62h-7.08c.36,1.37,1.32,2.09,2.86,2.09.7,0,1.56-.19,2.28-.5.41-.17.7-.1.96.24l.98,1.34c.24.36.22.7-.12.94-1.3.94-3.22,1.46-5.04,1.46-4.13,0-6.62-2.64-6.62-7.01Zm8.16-1.25c-.02-1.61-.65-2.54-1.68-2.54s-1.7.86-1.92,2.54h3.6Z"/>
    <path class="cls-3" d="m310.86,153.77l-.46,3.12c-.07.46-.34.62-.72.55-.22-.05-.43-.07-.65-.07-1.08,0-1.97.72-2.35,1.85v6.38c0,.43-.26.7-.7.7h-3.22c-.46,0-.7-.26-.7-.7v-11.71c0-.43.24-.67.7-.67h3.02c.43,0,.7.24.7.67v1.08c.62-1.39,1.73-2.23,2.98-2.23.31,0,.67.07.96.17.38.12.48.46.43.86Z"/>
    <path class="cls-3" d="m89.89,179.84v-1.99c0-.43.24-.7.7-.7h3.29c.43,0,.7.26.7.7v1.99c0,.46-.26.7-.7.7h-3.29c-.46,0-.7-.24-.7-.7Zm.02,14.57v-11.71c0-.43.26-.67.7-.67h3.24c.43,0,.67.24.67.67v11.71c0,.43-.24.7-.67.7h-3.24c-.43,0-.7-.26-.7-.7Z"/>
    <path class="cls-3" d="m108.37,185.55v8.86c0,.43-.26.7-.7.7h-3.24c-.43,0-.67-.26-.67-.7v-8.06c0-.77-.36-1.2-.96-1.2s-1.18.46-1.54,1.22v8.04c0,.43-.26.7-.7.7h-3.22c-.46,0-.7-.26-.7-.7v-11.71c0-.43.24-.67.7-.67h3.02c.43,0,.7.24.7.67v.91c.77-1.27,2.26-2.06,3.65-2.06,2.21,0,3.65,1.63,3.65,4.01Z"/>
    <path class="cls-3" d="m115.64,194.41v-16.56c0-.43.24-.7.7-.7h3.22c.46,0,.7.26.7.7v16.56c0,.43-.24.7-.7.7h-3.22c-.46,0-.7-.26-.7-.7Z"/>
    <path class="cls-3" d="m133.28,185.96v8.45c0,.43-.24.7-.7.7h-2.83c-.43,0-.67-.26-.67-.7v-.38c-.94.96-2.33,1.54-3.6,1.54-2.3,0-3.84-1.66-3.84-4.13s2.04-4.13,5.09-4.13h2.06v-.74c0-1.08-.7-1.54-2.09-1.54-.65,0-1.44.17-2.09.46-.38.19-.7.14-.96-.22l-1.1-1.54c-.26-.38-.19-.74.19-.96,1.37-.74,3.19-1.22,4.75-1.22,3.79,0,5.79,1.51,5.79,4.42Zm-4.49,3.58h-1.32c-.84,0-1.32.53-1.32,1.49,0,.79.43,1.27,1.13,1.27.6,0,1.15-.34,1.51-.94v-1.82Z"/>
    <path class="cls-3" d="m141.17,186.97c1.85.5,4.32,1.13,4.32,4.1,0,2.69-2.42,4.49-6.05,4.49-1.82,0-3.74-.55-5.02-1.44-.36-.26-.41-.6-.14-.98l1.13-1.54c.26-.36.58-.41.98-.17.82.46,1.9.74,2.78.74.98,0,1.58-.34,1.58-.84,0-.62-.58-.82-1.75-1.13-1.78-.48-4.49-1.34-4.49-4.32,0-2.74,2.06-4.34,5.54-4.34,1.51,0,3.29.46,4.61,1.2.41.22.46.58.19.96l-1.13,1.54c-.24.38-.55.41-.94.22-.67-.34-1.51-.53-2.26-.53-.84,0-1.44.34-1.44.82,0,.65.67.82,2.06,1.22Z"/>
    <path class="cls-3" d="m147.63,191.02v-5.71h-1.01c-.43,0-.67-.24-.67-.7v-1.42c0-.38.17-.67.55-.79l.46-.1c.43-.17.7-.31.82-1.08l.22-1.37c.07-.43.34-.62.77-.62h2.81c.43,0,.67.26.67.7v2.09h2.28c.46,0,.7.24.7.67v1.92c0,.46-.24.7-.7.7h-2.28v5.3c0,.96.41,1.34,1.15,1.34.29,0,.6-.07,1.01-.17.46-.12.77.05.84.5l.29,1.94c.07.43-.17.74-.65.89-.96.29-1.85.43-2.69.43-2.69,0-4.56-1.51-4.56-4.54Z"/>
    <path class="cls-3" d="m169.56,199.83v-5.83c-.86,1.01-2.21,1.56-3.62,1.56-2.81,0-4.54-2.64-4.54-7.01s1.94-6.98,5.16-6.98c1.25,0,2.5.62,3.34,1.61v-.48c0-.43.24-.67.67-.67h2.9c.46,0,.7.24.7.67v17.14c0,.46-.24.7-.7.7h-3.22c-.43,0-.7-.24-.7-.7Zm0-9.1v-4.37c-.41-.77-1.03-1.25-1.75-1.25-1.08,0-1.68,1.22-1.68,3.48s.58,3.38,1.63,3.38c.74,0,1.39-.43,1.8-1.25Z"/>
    <path class="cls-3" d="m187.76,182.69v11.71c0,.43-.26.7-.7.7h-2.9c-.43,0-.7-.26-.7-.7v-.89c-.79,1.3-2.26,2.04-3.65,2.04-2.21,0-3.62-1.58-3.62-3.98v-8.88c0-.43.24-.67.7-.67h3.22c.46,0,.7.24.7.67v8.06c0,.82.34,1.25.94,1.25.55,0,1.06-.36,1.39-1.01v-8.3c0-.43.26-.67.7-.67h3.24c.43,0,.7.24.7.67Z"/>
    <path class="cls-3" d="m200.86,185.96v8.45c0,.43-.24.7-.7.7h-2.83c-.43,0-.67-.26-.67-.7v-.38c-.94.96-2.33,1.54-3.6,1.54-2.3,0-3.84-1.66-3.84-4.13s2.04-4.13,5.09-4.13h2.06v-.74c0-1.08-.7-1.54-2.09-1.54-.65,0-1.44.17-2.09.46-.38.19-.7.14-.96-.22l-1.1-1.54c-.26-.38-.19-.74.19-.96,1.37-.74,3.19-1.22,4.75-1.22,3.79,0,5.79,1.51,5.79,4.42Zm-4.49,3.58h-1.32c-.84,0-1.32.53-1.32,1.49,0,.79.43,1.27,1.13,1.27.6,0,1.15-.34,1.51-.94v-1.82Z"/>
    <path class="cls-3" d="m211.66,182.57l-.46,3.12c-.07.46-.34.62-.72.55-.22-.05-.43-.07-.65-.07-1.08,0-1.97.72-2.35,1.85v6.38c0,.43-.26.7-.7.7h-3.22c-.46,0-.7-.26-.7-.7v-11.71c0-.43.24-.67.7-.67h3.02c.43,0,.7.24.7.67v1.08c.62-1.39,1.73-2.23,2.98-2.23.31,0,.67.07.96.17.38.12.48.46.43.86Z"/>
    <path class="cls-3" d="m213.31,191.02v-5.71h-1.01c-.43,0-.67-.24-.67-.7v-1.42c0-.38.17-.67.55-.79l.46-.1c.43-.17.7-.31.82-1.08l.22-1.37c.07-.43.34-.62.77-.62h2.81c.43,0,.67.26.67.7v2.09h2.28c.46,0,.7.24.7.67v1.92c0,.46-.24.7-.7.7h-2.28v5.3c0,.96.41,1.34,1.15,1.34.29,0,.6-.07,1.01-.17.46-.12.77.05.84.5l.29,1.94c.07.43-.17.74-.65.89-.96.29-1.85.43-2.69.43-2.69,0-4.56-1.51-4.56-4.54Z"/>
    <path class="cls-3" d="m221.5,188.55c0-4.34,2.5-7.01,6.62-7.01,3.77,0,5.98,2.47,5.98,6.58,0,.38-.02.82-.1,1.25-.05.41-.31.62-.72.62h-7.08c.36,1.37,1.32,2.09,2.86,2.09.7,0,1.56-.19,2.28-.5.41-.17.7-.1.96.24l.98,1.34c.24.36.22.7-.12.94-1.3.94-3.22,1.46-5.04,1.46-4.13,0-6.62-2.64-6.62-7.01Zm8.16-1.25c-.02-1.61-.65-2.54-1.68-2.54s-1.7.86-1.92,2.54h3.6Z"/>
    <path class="cls-3" d="m244.47,182.57l-.46,3.12c-.07.46-.34.62-.72.55-.22-.05-.43-.07-.65-.07-1.08,0-1.97.72-2.35,1.85v6.38c0,.43-.26.7-.7.7h-3.22c-.46,0-.7-.26-.7-.7v-11.71c0-.43.24-.67.7-.67h3.02c.43,0,.7.24.7.67v1.08c.62-1.39,1.73-2.23,2.98-2.23.31,0,.67.07.96.17.38.12.48.46.43.86Z"/>
    <path class="cls-3" d="m263.4,188.55c0,4.37-2.47,7.01-6.55,7.01s-6.58-2.64-6.58-7.01,2.47-7.01,6.58-7.01,6.55,2.66,6.55,7.01Zm-4.73,0c0-2.21-.65-3.41-1.82-3.41s-1.85,1.2-1.85,3.41.65,3.43,1.85,3.43,1.82-1.22,1.82-3.43Z"/>
    <path class="cls-3" d="m265.8,194.41v-9.1h-1.13c-.43,0-.7-.24-.7-.7v-1.42c0-.38.19-.67.58-.79l.48-.12c.55-.17.77-.46.77-1.03v-.31c0-2.57,2.06-4.25,5.11-4.25.84,0,1.75.14,2.47.38.38.12.53.43.46.84l-.26,1.92c-.07.48-.38.62-.84.5-.36-.1-.77-.14-1.18-.14-1.01,0-1.56.5-1.56,1.42v.41h2.09c.43,0,.7.24.7.67v1.92c0,.43-.26.7-.7.7h-1.68v9.1c0,.43-.26.7-.7.7h-3.24c-.43,0-.67-.26-.67-.7Z"/>
    <path class="cls-3" d="m289.75,192.34v2.06c0,.43-.26.7-.7.7h-9.94c-.43,0-.7-.26-.7-.7v-1.97c0-.36.12-.6.36-.86,2.54-2.47,6.22-5.62,6.22-8.33,0-1.08-.67-1.8-1.66-1.8-.86,0-1.94.48-2.9,1.32-.36.29-.7.29-.98-.07l-1.2-1.44c-.26-.31-.29-.65-.02-.96,1.51-1.7,3.6-2.42,5.52-2.42,3.55,0,5.93,1.9,5.93,4.78s-1.92,5.52-5.47,9h4.85c.43,0,.7.24.7.7Z"/>
    <path class="cls-3" d="m304.35,186.73c0,5.74-2.28,8.83-6.6,8.83s-6.6-3.1-6.6-8.83,2.28-8.86,6.6-8.86,6.6,3.1,6.6,8.86Zm-4.71,0c0-3.72-.55-5.18-1.9-5.18s-1.9,1.46-1.9,5.18.55,5.16,1.9,5.16,1.9-1.46,1.9-5.16Z"/>
    <path class="cls-3" d="m316.63,192.34v2.06c0,.43-.26.7-.7.7h-9.94c-.43,0-.7-.26-.7-.7v-1.97c0-.36.12-.6.36-.86,2.54-2.47,6.22-5.62,6.22-8.33,0-1.08-.67-1.8-1.66-1.8-.86,0-1.94.48-2.9,1.32-.36.29-.7.29-.98-.07l-1.2-1.44c-.26-.31-.29-.65-.02-.96,1.51-1.7,3.6-2.42,5.52-2.42,3.55,0,5.93,1.9,5.93,4.78s-1.92,5.52-5.47,9h4.85c.43,0,.7.24.7.7Z"/>
    <path class="cls-3" d="m317.52,193.88c-.34-.26-.36-.62-.07-.96l1.32-1.58c.26-.36.6-.36.98-.1.77.55,1.73.89,2.59.89,1.25,0,2.16-.65,2.16-2.02s-.94-2.11-2.62-2.11h-.94c-.43,0-.72-.24-.72-.7v-.65c0-.36.07-.6.31-.84l3.41-4.03h-5.38c-.43,0-.67-.24-.67-.7v-2.06c0-.43.24-.7.67-.7h9.65c.43,0,.67.26.67.7v1.75c0,.36-.1.6-.31.86l-3.48,4.13c2.64.41,4.1,2.09,4.1,4.63,0,3.26-2.74,5.16-6.14,5.16-2.09,0-4.13-.62-5.54-1.68Z"/>
  </g>
  <g>
    <polygon class="cls-6" points="18.84 265.81 140.11 265.81 140.11 417.82 18.84 417.82 18.84 265.81 18.84 265.81"/>
    <polygon class="cls-2" points="25.2 269.53 136.15 269.53 136.15 407.86 25.2 407.86 25.2 269.53 25.2 269.53"/>
    <polygon class="cls-2" points="25.2 269.53 136.15 269.53 136.15 412.66 25.2 412.66 25.2 269.53 25.2 269.53"/>
    <path class="cls-6" d="m58.32,340.62h0c4.2-8.5,11.36-11.08,22.91-11.08,13.86,0,21.01,4.55,23.12,11.46-24.82.38-46.03-.38-46.03-.38"/>
    <path class="cls-6" d="m76.32,288.16h0c-5.83,1.6-5.63,4.57-7.53,7.55-1.84,2.78-6.28,4.72-6.68,6.74-.65,1.93,1.25,5.9-.85,8.11-2.09,2.36-2.94,3.35-2.09,5.71.85,2.17,2.74,5.75,2.94,6.13.2.61,2.49,3.96,5.43,4.39,2.94.38,8.37,1.18,10.87,2.36,2.74,1.18,11.51-1.37,16.35-1.18,4.79,0,8.17-3.35,7.93-5.57-.4-2.17,3.59-6.7,3.59-10.47-.2-4.15-5.23-7.31-6.48-10.09-1.5-2.59.2-7.55-5.03-10.28-3.14-1.79-5.43-1.6-7.98-2.41-2.49-.8-6.68-1.98-10.47-.99"/>
    <path class="cls-4" d="m83.6,336.26h0c-1.25,1.8-2.3,1.98-3.75,0-1.05-1.56-3.4-5.15-3.4-6.76v-17.62c0-1.8,1.5-3.35,3.4-3.35h3.75c1.9,0,3.35,1.56,3.35,3.35v17.62c0,1.61-2.1,4.96-3.35,6.76"/>
    <path class="cls-4" d="m83.6,308.53h-3.75c-1.9,0-3.4,1.55-3.4,3.34v15.6c4.2,1.17,8.01-1.22,10.51-4.18v-11.42c0-1.79-1.45-3.34-3.35-3.34"/>
    <path class="cls-4" d="m92.83,308.68h0c0,8.08-5.05,14.57-11.34,14.57s-11.29-6.48-11.29-14.57,5-14.43,11.29-14.43,11.34,6.53,11.34,14.43"/>
    <path class="cls-6" d="m86.63,297.2h0c-7.06,11.29-17.51,10.3-17.51,10.3,0,0,.2-15.01,8.56-15.81s13.13,2.35,15.02,7.48c1.69,5.13,0,8.7,0,8.7,0,0-2.69-1.98-4.18-5.32-1.24-3.15-1.89-5.36-1.89-5.36"/>
    <path class="cls-4" d="m71.39,308.71h0c1.04,2.15.6,4.3-.85,5.09-1.44.56-3.53-.61-4.58-2.76-1.04-1.96-.65-4.3.85-4.91,1.44-.61,3.53.61,4.58,2.57"/>
    <path class="cls-4" d="m91.24,308.71h0c-.99,2.15-.6,4.3.85,5.09,1.49.56,3.58-.61,4.63-2.76,1.04-1.96.6-4.3-.85-4.91-1.49-.61-3.58.61-4.63,2.57"/>
    <path class="cls-6" d="m95.02,363.81h-28.44c-1.89,0-3.34-1.43-3.34-3.24s1.44-3.19,3.34-3.19h28.44c1.89,0,3.34,1.43,3.34,3.19s-1.44,3.24-3.34,3.24"/>
    <path class="cls-6" d="m100.29,373.41h-38.98c-1.65,0-3.34-1.38-3.34-3.19,0-1.62,1.7-3,3.34-3h38.98c1.9,0,3.34,1.38,3.34,3,0,1.81-1.45,3.19-3.34,3.19"/>
    <path class="cls-6" d="m124.16,383.15H40.44c-.93,0-1.68-.42-1.68-.95s.75-.95,1.68-.95h83.72c.93,0,1.68.42,1.68.95s-.75.95-1.68.95"/>
    <path class="cls-6" d="m123.56,392.87H39.84c-.93,0-1.68-.48-1.68-1.08,0-.68.75-1.17,1.68-1.17h83.72c.93,0,1.68.48,1.68,1.17,0,.6-.75,1.08-1.68,1.08"/>
    <path class="cls-6" d="m124.15,402.1H39.85c-.93,0-1.69-.51-1.69-1.17s.76-1.2,1.69-1.2h84.3c.93,0,1.69.54,1.69,1.2s-.76,1.17-1.69,1.17"/>
    <path class="cls-6" d="m114.81,342.81H46.54c-1.85,0-3.34-1.6-3.34-3.39v-59.29c0-1.79,1.5-3.16,3.34-3.16h68.27c1.89,0,3.34,1.37,3.34,3.16v59.29c0,1.79-1.45,3.39-3.34,3.39h0Zm-68.27-63.24h0c-.2,0-.6.38-.6.57v59.29c0,.42.4.61.6.61h68.27c.4,0,.6-.19.6-.61v-59.29c0-.19-.2-.57-.6-.57H46.54Z"/>
    <polygon class="cls-6" points="289.32 265.81 410.71 265.81 410.71 417.82 289.32 417.82 289.32 265.81 289.32 265.81"/>
    <polygon class="cls-2" points="295.68 269.53 406.75 269.53 406.75 412.66 295.68 412.66 295.68 269.53 295.68 269.53"/>
    <path class="cls-6" d="m334.2,307.93h0c0,8.32,5.44,22.03,18,21.61,12.77-.57,15.46-13.47,16.11-17.26.4-3.55-34.11-4.35-34.11-4.35"/>
    <path class="cls-6" d="m328.92,340.62h0c4.2-8.5,11.29-11.08,22.83-11.08,13.84,0,21.18,4.55,23.08,11.46-24.73.38-45.91-.38-45.91-.38"/>
    <path class="cls-4" d="m354.03,336.26h0c-1.25,1.8-2.3,1.98-3.75,0-1.05-1.56-3.35-5.15-3.35-6.76v-17.62c0-1.8,1.65-3.35,3.35-3.35h3.75c1.9,0,3.4,1.56,3.4,3.35v17.62c0,1.61-2.1,4.96-3.4,6.76"/>
    <path class="cls-4" d="m354.03,308.53h-3.75c-1.7,0-3.35,1.55-3.35,3.34v15.6c4.2,1.17,8.16-1.22,10.51-4.18v-11.42c0-1.79-1.5-3.34-3.4-3.34"/>
    <path class="cls-4" d="m363.43,308.68h0c0,8.08-5.05,14.57-11.29,14.57s-11.34-6.48-11.34-14.57,5.25-14.43,11.34-14.43,11.29,6.53,11.29,14.43"/>
    <path class="cls-6" d="m358.42,297.98h0c-1.25,4.35-4.14,4.35-8.33,5.77-4.19,1.56-6.09,2.98-7.33,5.96-1.7,3.55.6,14.29.6,14.29,0,0-10.23-7.33-8.98-19.06,1.05-11.54,8.38-16.08,15.07-16.08s9.43,3.97,9.43,3.97c0,0,3.54,0,6.89,3.97,4.64,5.16,3.14,17.65,0,22.04-3.14,4.54-5.19,5.96-5.19,5.72.2-.19,2.89-10.5,1.45-16.84-1.45-6.39-3.59-9.74-3.59-9.74"/>
    <path class="cls-6" d="m365.37,363.81h-28.5c-1.65,0-3.14-1.43-3.14-3.24s1.5-3.19,3.14-3.19h28.5c1.9,0,3.34,1.43,3.34,3.19s-1.45,3.24-3.34,3.24"/>
    <path class="cls-6" d="m370.88,373.41h-38.84c-1.9,0-3.35-1.38-3.35-3.19,0-1.62,1.45-3,3.35-3h38.84c1.9,0,3.35,1.38,3.35,3,0,1.81-1.45,3.19-3.35,3.19"/>
    <path class="cls-6" d="m399.27,385.65h-94.73c-1.05,0-1.89-.79-1.89-1.78s.85-1.78,1.89-1.78h94.73c1.05,0,1.84.79,1.84,1.78s-.8,1.78-1.84,1.78"/>
    <path class="cls-6" d="m398.79,394.53h-94.85c-1.05,0-1.9-.79-1.9-1.77,0-1.12.85-1.91,1.9-1.91h94.85c1.05,0,1.85.79,1.85,1.91,0,.98-.8,1.77-1.85,1.77"/>
    <path class="cls-6" d="m398.79,402.45h-94.85c-1.05,0-1.9-.73-1.9-1.69s.85-1.74,1.9-1.74h94.85c1.05,0,1.85.78,1.85,1.74s-.8,1.69-1.85,1.69"/>
    <path class="cls-6" d="m385.33,342.81h-67.94c-1.89,0-3.59-1.6-3.59-3.39v-59.29c0-1.79,1.69-3.16,3.59-3.16h67.94c1.89,0,3.54,1.37,3.54,3.16v59.29c0,1.79-1.64,3.39-3.54,3.39h0Zm-67.94-63.24h0c-.45,0-.65.38-.65.57v59.29c0,.42.2.61.65.61h67.94c.4,0,.65-.19.65-.61v-59.29c0-.19-.25-.57-.65-.57h-67.94Z"/>
    <path class="cls-5" d="m289.27,266.65h-1.86c0,1.77-.25,3.49-.25,5.25s.25,3.53.25,5.25l1.86.6v-11.11"/>
    <polygon class="cls-6" points="131.64 233.41 297.19 233.41 297.19 430.06 131.64 430.06 131.64 233.41 131.64 233.41"/>
    <polygon class="cls-2" points="140.16 236.65 291.67 236.65 291.67 424.54 140.16 424.54 140.16 236.65 140.16 236.65"/>
    <path class="cls-6" d="m202.02,287.61h0c-.2-.24-2.74-14.71-3.14-20.29-.4-5.53,9.41-6.53,9.41-6.53,0,0,8.16-3.97,13.99-1.99,5.63,2.18,9.61,5.77,12.35,10.12,2.69,4.35-2.29,18.26-2.29,18.26l-30.32.43"/>
    <path class="cls-6" d="m183.68,333.78h0c-.2-.24.6-5.94.6-6.13,1.3-11.88,16.97-15.27,32.49-15.27,18.22,0,30.6,3.16,32.69,15.65,0,.19,1.05,5.94,1.05,6.32-33.94.42-66.83-.57-66.83-.57"/>
    <path class="cls-4" d="m220.07,321.55h0c-1.89,2.54-3.13,2.54-5.21,0-1.44-2.21-6.65-6.92-6.65-9.32l2.08-23.9c0-2.54,2.08-4.52,4.57-4.52h5.21c2.48,0,4.57,1.98,4.57,4.52l1.04,23.9c0,2.4-3.92,6.92-5.61,9.32"/>
    <path class="cls-4" d="m219.86,283.81h-5.21c-2.48,0-4.56,1.98-4.56,4.52l-1.89,21.17c5.81,1.74,13.55-1.79,16.87-5.55l-.65-15.62c0-2.54-2.08-4.52-4.56-4.52"/>
    <polyline class="cls-4" points="209.28 320.57 215.39 324.27 213.49 334.53 221.69 334.11 219.59 324.88 224.59 320.57 222.29 318.37 211.58 318.37 209.28 320.57"/>
    <path class="cls-6" d="m208.43,306.87h0l-7.54,6.91s7.74,12.83,8.19,12.83c.4,0,6.49-7.1,6.49-7.1l3.75-.23,6.29,6.16,7.14-11.85-7.34-7.33s-6.29,11.28-7.34,11.66c-1.05.19-1.05.38-2.1-.38-.85-.61-7.54-10.67-7.54-10.67"/>
    <path class="cls-4" d="m232.75,284.36h0c0,10.89-6.94,19.8-15.27,19.8s-15.52-8.91-15.52-19.8,6.94-19.99,15.52-19.99,15.27,8.91,15.27,19.99"/>
    <path class="cls-4" d="m203.5,283.83h0c1.29,2.97.84,5.94-.99,6.93-2.14.8-4.82-.8-6.26-3.58-1.49-2.97-1.04-5.94,1.04-6.93,1.84-.75,4.77.8,6.21,3.58"/>
    <path class="cls-4" d="m230.57,283.83h0c-1.25,2.97-.85,5.94,1.05,6.93,2.1.8,4.79-.8,6.29-3.58,1.45-2.97,1.05-5.94-1.05-6.93-1.9-.75-4.84.8-6.29,3.58"/>
    <path class="cls-6" d="m208.28,270.69h0c6.48-4.13,9.22-3.38,14,3.52,4.83,6.9,10.46,6.9,10.46,6.9l.85-7.09s-7.13-13-16.74-11.22c-9.42,1.78-14.85,9.86-14.85,9.86,0,0-.4,14.98.85,15.54,1.45.61,1.45-4.93,2.49-5.92.85-1.17-1.05-6.29.2-8.64,1.25-2.39,2.74-2.96,2.74-2.96"/>
    <path class="cls-6" d="m228.84,278.41h0c2.27,2.36,1.48,11.47,2.52,11.28,1.24,0,1.63-8.73,1.24-9.54-.2-.99-3.76-1.75-3.76-1.75"/>
    <path class="cls-6" d="m251.68,365.01h-70.77c-2.49,0-4.39-1.97-4.39-4.31s1.9-4.17,4.39-4.17h70.77c2.49,0,4.59,1.78,4.59,4.17s-2.09,4.31-4.59,4.31"/>
    <path class="cls-6" d="m242.87,378.21h-53.2c-2.3,0-4.39-1.98-4.39-4.14,0-2.4,2.1-4.33,4.39-4.33h53.2c2.55,0,4.64,1.93,4.64,4.33,0,2.17-2.1,4.14-4.64,4.14"/>
    <path class="cls-6" d="m280.77,389.37h-128.99c-1.49,0-2.74-1.19-2.74-2.57s1.25-2.42,2.74-2.42h128.99c1.49,0,2.74,1,2.74,2.42s-1.25,2.57-2.74,2.57"/>
    <path class="cls-6" d="m280.77,401.01h-128.99c-1.49,0-2.74-1-2.74-2.42s1.25-2.57,2.74-2.57h128.99c1.49,0,2.74,1.19,2.74,2.57s-1.25,2.42-2.74,2.42"/>
    <path class="cls-6" d="m280.77,414.33h-128.99c-1.49,0-2.74-1-2.74-2.38s1.25-2.62,2.74-2.62h128.99c1.49,0,2.74,1.19,2.74,2.62s-1.25,2.38-2.74,2.38"/>
    <path class="cls-6" d="m262.88,336.21h-93.2c-2.35,0-4.19-1.79-4.19-3.96v-81.19c0-2.17,1.85-3.96,4.19-3.96h93.2c2.35,0,4.19,1.79,4.19,3.96v81.19c0,2.17-1.85,3.96-4.19,3.96h0Zm-93.2-86.52h0c-.85,0-1.5.57-1.5,1.37v81.19c0,.61.65,1.18,1.5,1.18h93.2c.65,0,1.3-.57,1.3-1.18v-81.19c0-.8-.65-1.37-1.3-1.37h-93.2Z"/>
  </g>
  <g>
    <path class="cls-3" d="m130.52,37.35v-18.59c0-.52.32-.84.84-.84h11.17c.52,0,.84.32.84.84v2.7c0,.52-.32.84-.84.84h-6.21v3.6h5.11c.52,0,.84.32.84.84v2.26c0,.52-.32.84-.84.84h-5.11v3.97h6.27c.52,0,.81.32.81.84v2.7c0,.52-.29.84-.81.84h-11.23c-.52,0-.84-.32-.84-.84Z"/>
    <path class="cls-3" d="m167.35,26.65v10.7c0,.52-.32.84-.84.84h-3.92c-.52,0-.84-.32-.84-.84v-9.75c0-.93-.35-1.45-1.02-1.45-.58,0-1.13.44-1.51,1.19v10.01c0,.52-.32.84-.84.84h-3.92c-.52,0-.84-.32-.84-.84v-9.75c0-.99-.26-1.45-.9-1.45s-1.22.44-1.65,1.25v9.95c0,.52-.32.84-.84.84h-3.89c-.55,0-.84-.32-.84-.84v-14.16c0-.52.29-.81.84-.81h3.66c.52,0,.84.29.84.81v1.1c.9-1.48,2.67-2.49,4.35-2.49s2.96.93,3.6,2.44c.9-1.45,2.61-2.44,4.21-2.44,2.73,0,4.35,1.83,4.35,4.84Z"/>
    <path class="cls-3" d="m185.13,30.31c0,5.25-2.35,8.44-6.21,8.44-1.28,0-2.61-.55-3.57-1.48v6.64c0,.55-.32.84-.84.84h-3.89c-.55,0-.84-.29-.84-.84v-20.71c0-.52.29-.81.84-.81h3.66c.52,0,.84.29.84.81v1.07c.93-1.51,2.73-2.44,4.53-2.44,3.42,0,5.48,3.19,5.48,8.47Zm-5.71-.06c0-2.64-.7-4.09-1.97-4.09-.84,0-1.6.49-2.09,1.42v5.42c.49.9,1.22,1.42,2.06,1.42,1.31,0,2-1.48,2-4.18Z"/>
    <path class="cls-3" d="m187.04,37.35v-20.01c0-.52.29-.84.84-.84h3.89c.55,0,.84.32.84.84v20.01c0,.52-.29.84-.84.84h-3.89c-.55,0-.84-.32-.84-.84Z"/>
    <path class="cls-3" d="m210.36,30.28c0,5.28-2.99,8.47-7.92,8.47s-7.95-3.19-7.95-8.47,2.99-8.47,7.95-8.47,7.92,3.22,7.92,8.47Zm-5.71,0c0-2.67-.78-4.12-2.21-4.12s-2.23,1.45-2.23,4.12.78,4.15,2.23,4.15,2.21-1.48,2.21-4.15Z"/>
    <path class="cls-3" d="m226.31,23.31l-4.73,15.55c-1.22,4.09-4.03,6.09-9.08,6.41-.52.03-.84-.23-.93-.75l-.32-2.18c-.12-.52.17-.84.73-.93,3.04-.41,4.32-1.36,4.76-3.22h-1.33c-.46,0-.81-.23-.96-.73l-4.03-14.16c-.15-.55.12-.93.72-.93h4.15c.49,0,.78.2.9.73l2.03,10.33,2.35-10.33c.12-.49.43-.73.93-.73h4.12c.58,0,.87.38.7.93Z"/>
    <path class="cls-3" d="m249.07,26.65v10.7c0,.52-.32.84-.84.84h-3.92c-.52,0-.84-.32-.84-.84v-9.75c0-.93-.35-1.45-1.02-1.45-.58,0-1.13.44-1.51,1.19v10.01c0,.52-.32.84-.84.84h-3.92c-.52,0-.84-.32-.84-.84v-9.75c0-.99-.26-1.45-.9-1.45s-1.22.44-1.65,1.25v9.95c0,.52-.32.84-.84.84h-3.89c-.55,0-.84-.32-.84-.84v-14.16c0-.52.29-.81.84-.81h3.66c.52,0,.84.29.84.81v1.1c.9-1.48,2.67-2.49,4.35-2.49s2.96.93,3.6,2.44c.9-1.45,2.61-2.44,4.21-2.44,2.73,0,4.35,1.83,4.35,4.84Z"/>
    <path class="cls-3" d="m250.95,30.28c0-5.25,3.02-8.47,8.01-8.47,4.55,0,7.22,2.99,7.22,7.95,0,.46-.03.99-.12,1.51-.06.49-.38.75-.87.75h-8.56c.44,1.65,1.6,2.52,3.45,2.52.84,0,1.89-.23,2.76-.61.49-.2.84-.12,1.16.29l1.19,1.62c.29.44.26.84-.15,1.13-1.57,1.13-3.89,1.77-6.09,1.77-4.99,0-8.01-3.19-8.01-8.47Zm9.86-1.51c-.03-1.94-.78-3.07-2.03-3.07s-2.06,1.04-2.32,3.07h4.35Z"/>
    <path class="cls-3" d="m282.25,26.65v10.7c0,.52-.32.84-.84.84h-3.92c-.52,0-.81-.32-.81-.84v-9.75c0-.93-.43-1.45-1.16-1.45s-1.42.55-1.86,1.48v9.72c0,.52-.32.84-.84.84h-3.89c-.55,0-.84-.32-.84-.84v-14.16c0-.52.29-.81.84-.81h3.66c.52,0,.84.29.84.81v1.1c.93-1.54,2.73-2.49,4.41-2.49,2.67,0,4.41,1.97,4.41,4.84Z"/>
    <path class="cls-3" d="m285.52,33.26v-6.9h-1.22c-.52,0-.81-.29-.81-.84v-1.71c0-.46.2-.81.67-.96l.55-.12c.52-.2.84-.38.99-1.31l.26-1.65c.09-.52.41-.75.93-.75h3.39c.52,0,.81.32.81.84v2.52h2.76c.55,0,.84.29.84.81v2.32c0,.55-.29.84-.84.84h-2.76v6.41c0,1.16.49,1.62,1.39,1.62.35,0,.73-.09,1.22-.2.55-.15.93.06,1.01.61l.35,2.35c.09.52-.2.9-.78,1.07-1.16.35-2.23.52-3.25.52-3.25,0-5.51-1.83-5.51-5.48Z"/>
  </g>
</svg>