<?xml version="1.0" encoding="UTF-8"?>
<svg id="Layer_1" data-name="Layer 1" xmlns="http://www.w3.org/2000/svg" viewBox="0 0 430.06 430.06">
  <defs>
    <style>
      .cls-1 {
        fill: #bfd4e4;
      }

      .cls-1, .cls-2, .cls-3 {
        stroke-width: 0px;
      }

      .cls-2, .cls-3 {
        fill: #1e3564;
      }

      .cls-3 {
        fill-rule: evenodd;
      }
    </style>
  </defs>
  <rect class="cls-1" width="430.06" height="430.06"/>
  <g>
    <polygon class="cls-3" points="171.69 256.54 185.45 248.14 185.45 241.11 186.73 241.11 186.73 236.5 170.41 236.5 170.41 241.11 171.69 241.11 171.69 256.54 171.69 256.54 171.69 256.54"/>
    <path class="cls-3" d="m213.38,244.29l-51.73,31.56v45.4c1.33.54,2.44,1.05,3.26,1.43l8.61,3.33c-.37-.99-.55-2.03-.56-3.08,0-5.17,4.38-9.36,9.77-9.37,1.93,0,8.47.13,16.5.31v-34.53h28.32v35.22l15.62.33c7.04-.17,14,1.54,20.08,4.96l1.84,1.16v-45.16l-51.71-31.56h0Zm-35.86,62.93h-11.1v-13.39h11.1v13.39h0Zm0-15.89h-11.1v-7.92h11.1v7.92h0Zm13.71,15.89h-11.1v-13.39h11.12l-.02,13.39h0Zm0-15.89h-11.1v-7.92h11.12l-.02,7.92h0Zm41.61-18.66v1.65h-38.91v-1.65h0l8.61-6.7h21.67l8.63,6.7h0Zm13.8,34.55h-11.17v-13.39h11.12l.05,13.39h0Zm0-15.89h-11.17v-7.92h11.12l.05,7.92h0Zm13.71,15.89h-11.12v-13.39h11.12v13.39h0Zm0-15.89h-11.12v-7.92h11.12v7.92h0Z"/>
    <polygon class="cls-3" points="213.44 241.94 154.48 277.9 150.13 272.11 213.44 233.38 276.73 272.11 272.38 277.9 213.44 241.94 213.44 241.94 213.44 241.94"/>
    <path class="cls-3" d="m306.92,345.12l-13.94-13.11c-11.24,9.51-21.61,19.93-31,31.13l13.94,13.11c.65.6,8.11-5.9,16.69-14.49,8.58-8.6,15.01-16.04,14.32-16.64h-.01Z"/>
    <path class="cls-3" d="m264.17,356.73h0c5.73-7.22,12.28-13.81,19.52-19.65-9.42-7.21-19.92-14.07-21.66-15.07-5.67-3.18-12.16-4.78-18.73-4.6-3,0-54.35-1.36-60.49-1.36-3.96.01-7.17,3.1-7.17,6.9.1,3.33,2.63,6.14,6.05,6.7l38.25,2.99h0c.5.08.83.52.75,1-.06.37-.37.66-.75.72h-.67l-35.99-1.7-19.33-7.84c-3.41-1.59-6.94-2.93-10.56-4.02-1-.29-7.98-1.72-10.59,2.59-.26.42,0,.92.35,1.3,1.14.88,2.35,1.68,3.61,2.39,1.05.65,18.5,11.16,20.94,12.48,2.22,1.3,4.56,2.4,6.98,3.3,0,0,19.17,6.7,21.87,7.52,2.82.98,5.76,1.61,8.75,1.88h37.92c6.54.09,13.01,1.31,19.1,3.59.65.23,1.27.52,1.86.87h0Z"/>
  </g>
  <polygon class="cls-3" points="156.31 204.26 165.86 204.26 165.86 89.96 194.39 89.96 194.39 204.26 203.95 204.26 180.13 228.08 156.31 204.26 156.31 204.26"/>
  <polygon class="cls-3" points="262.67 79.6 253.11 79.6 253.11 193.9 224.58 193.9 224.58 79.6 215.03 79.6 238.85 55.78 262.67 79.6 262.67 79.6"/>
  <g>
    <path class="cls-2" d="m61.49,126.9v3.2c0,.7-.39,1.13-1.09,1.13h-10.92c-.7,0-1.13-.43-1.13-1.13v-3.2c0-.7.43-1.13,1.13-1.13h10.92c.7,0,1.09.43,1.09,1.13Z"/>
    <path class="cls-2" d="m80.44,135.13v3.35c0,.7-.43,1.13-1.13,1.13h-15.95c-.74,0-1.13-.43-1.13-1.13v-3.35c0-.74.39-1.13,1.13-1.13h4.95v-13.88l-3.9,2.18c-.62.35-1.13.19-1.56-.31l-2.26-2.69c-.47-.62-.39-1.17.27-1.56l8.5-4.99c.47-.27.9-.39,1.4-.39h3.71c.7,0,1.09.43,1.09,1.13v20.51h3.74c.7,0,1.13.39,1.13,1.13Z"/>
    <path class="cls-2" d="m81.53,119.18c0-4.49,2.73-7.22,7.22-7.22s7.22,2.73,7.22,7.22-2.73,7.21-7.22,7.21-7.22-2.77-7.22-7.21Zm9.52,20.44h-3.67c-.9,0-1.21-.58-.7-1.37l17.28-25.19c.31-.51.74-.7,1.33-.7h3.67c.9,0,1.25.58.7,1.37l-17.24,25.19c-.35.51-.78.7-1.36.7Zm-.31-20.44c0-1.91-.7-2.96-1.99-2.96s-1.99,1.05-1.99,2.96.7,2.92,1.99,2.92,1.99-1.05,1.99-2.92Zm9.59,13.61c0-4.49,2.73-7.22,7.22-7.22s7.22,2.73,7.22,7.22-2.73,7.25-7.22,7.25-7.22-2.77-7.22-7.25Zm9.2,0c0-1.87-.7-2.92-1.99-2.92s-1.99,1.05-1.99,2.92.7,2.96,1.99,2.96,1.99-1.05,1.99-2.96Z"/>
    <path class="cls-2" d="m53.53,161.16v-10.26c0-.29.18-.46.46-.46h3.2c.27,0,.45.13.5.42l1.58,7.71,1.54-7.71c.06-.29.24-.42.51-.42h3.2c.29,0,.46.18.46.46v10.26c0,.29-.18.46-.46.46h-1.94c-.29,0-.45-.18-.45-.46v-3.47c0-1.02.1-3.09.21-4.1h-.05l-1.71,7.62c-.06.27-.24.42-.51.42h-1.6c-.27,0-.45-.14-.51-.42l-1.74-7.62h-.05c.11,1.01.21,3.07.21,4.1v3.47c0,.29-.16.46-.46.46h-1.92c-.29,0-.46-.18-.46-.46Z"/>
    <path class="cls-2" d="m66.12,157.25c0-2.9,1.66-4.67,4.42-4.67,2.51,0,3.99,1.65,3.99,4.39,0,.26-.02.54-.06.83-.03.27-.21.42-.48.42h-4.72c.24.91.88,1.39,1.9,1.39.46,0,1.04-.13,1.52-.34.27-.11.46-.06.64.16l.66.9c.16.24.14.46-.08.62-.86.62-2.14.98-3.36.98-2.75,0-4.42-1.76-4.42-4.67Zm5.44-.83c-.02-1.07-.43-1.7-1.12-1.7s-1.14.58-1.28,1.7h2.4Z"/>
    <path class="cls-2" d="m75.27,157.25c0-2.9,1.3-4.66,3.44-4.66.7,0,1.44.32,1.97.83v-3.31c0-.29.18-.46.46-.46h2.16c.29,0,.46.18.46.46v11.04c0,.29-.18.46-.46.46h-1.89c-.29,0-.46-.18-.46-.46v-.32c-.58.67-1.46,1.09-2.4,1.09-2.03,0-3.28-1.76-3.28-4.67Zm5.41,1.5v-3.01c-.26-.5-.67-.78-1.14-.78-.72,0-1.12.82-1.12,2.32s.38,2.26,1.09,2.26c.5,0,.91-.29,1.17-.78Z"/>
    <path class="cls-2" d="m85.14,151.44v-1.33c0-.29.16-.46.46-.46h2.19c.29,0,.46.18.46.46v1.33c0,.3-.18.46-.46.46h-2.19c-.3,0-.46-.16-.46-.46Zm.02,9.72v-7.81c0-.29.18-.45.46-.45h2.16c.29,0,.45.16.45.45v7.81c0,.29-.16.46-.45.46h-2.16c-.29,0-.46-.18-.46-.46Z"/>
    <path class="cls-2" d="m97,155.52v5.63c0,.29-.16.46-.46.46h-1.89c-.29,0-.45-.18-.45-.46v-.26c-.62.64-1.55,1.02-2.4,1.02-1.54,0-2.56-1.1-2.56-2.75s1.36-2.75,3.39-2.75h1.38v-.5c0-.72-.46-1.02-1.39-1.02-.43,0-.96.11-1.39.3-.26.13-.46.1-.64-.14l-.74-1.02c-.18-.26-.13-.5.13-.64.91-.5,2.13-.82,3.17-.82,2.53,0,3.86,1.01,3.86,2.95Zm-2.99,2.38h-.88c-.56,0-.88.35-.88.99,0,.53.29.85.75.85.4,0,.77-.22,1.01-.62v-1.22Z"/>
    <path class="cls-2" d="m106.15,155.25v5.91c0,.29-.18.46-.46.46h-2.16c-.29,0-.45-.18-.45-.46v-5.38c0-.51-.24-.8-.64-.8s-.78.3-1.02.82v5.36c0,.29-.18.46-.46.46h-2.15c-.3,0-.46-.18-.46-.46v-7.81c0-.29.16-.45.46-.45h2.02c.29,0,.46.16.46.45v.61c.51-.85,1.5-1.38,2.43-1.38,1.47,0,2.43,1.09,2.43,2.67Z"/>
    <path class="cls-2" d="m43.51,177.25v5.91c0,.29-.18.46-.46.46h-2.16c-.29,0-.45-.18-.45-.46v-5.38c0-.54-.21-.8-.66-.8-.37,0-.75.24-1.01.7v5.47c0,.29-.18.46-.46.46h-2.15c-.3,0-.46-.18-.46-.46v-11.04c0-.29.16-.46.46-.46h2.15c.29,0,.46.18.46.46v3.65c.56-.74,1.42-1.18,2.31-1.18,1.54,0,2.43,1.01,2.43,2.67Z"/>
    <path class="cls-2" d="m53.31,179.25c0,2.91-1.65,4.67-4.37,4.67s-4.39-1.76-4.39-4.67,1.65-4.67,4.39-4.67,4.37,1.78,4.37,4.67Zm-3.15,0c0-1.47-.43-2.27-1.22-2.27s-1.23.8-1.23,2.27.43,2.29,1.23,2.29,1.22-.82,1.22-2.29Z"/>
    <path class="cls-2" d="m62.06,175.34v7.81c0,.29-.18.46-.46.46h-1.94c-.29,0-.46-.18-.46-.46v-.59c-.53.86-1.5,1.36-2.43,1.36-1.47,0-2.42-1.06-2.42-2.66v-5.92c0-.29.16-.45.46-.45h2.15c.3,0,.46.16.46.45v5.38c0,.54.22.83.62.83.37,0,.7-.24.93-.67v-5.54c0-.29.18-.45.46-.45h2.16c.29,0,.46.16.46.45Z"/>
    <path class="cls-2" d="m67.37,178.19c1.23.34,2.88.75,2.88,2.74,0,1.79-1.62,2.99-4.03,2.99-1.22,0-2.5-.37-3.35-.96-.24-.18-.27-.4-.1-.66l.75-1.02c.18-.24.38-.27.66-.11.54.3,1.26.5,1.86.5.66,0,1.06-.22,1.06-.56,0-.42-.38-.54-1.17-.75-1.18-.32-2.99-.9-2.99-2.88,0-1.83,1.38-2.9,3.7-2.9,1.01,0,2.19.3,3.07.8.27.14.3.38.13.64l-.75,1.02c-.16.26-.37.27-.62.14-.45-.22-1.01-.35-1.5-.35-.56,0-.96.22-.96.54,0,.43.45.54,1.38.82Z"/>
    <path class="cls-2" d="m70.9,179.25c0-2.9,1.66-4.67,4.42-4.67,2.51,0,3.99,1.65,3.99,4.39,0,.26-.02.54-.06.83-.03.27-.21.42-.48.42h-4.72c.24.91.88,1.39,1.9,1.39.46,0,1.04-.13,1.52-.34.27-.11.46-.06.64.16l.66.9c.16.24.14.46-.08.62-.86.62-2.14.98-3.36.98-2.75,0-4.42-1.76-4.42-4.67Zm5.44-.83c-.02-1.07-.43-1.7-1.12-1.7s-1.14.58-1.28,1.7h2.4Z"/>
    <path class="cls-2" d="m92.39,179.27c0,2.9-1.3,4.66-3.43,4.66-.7,0-1.44-.3-1.97-.82v3.67c0,.3-.18.46-.46.46h-2.15c-.3,0-.46-.16-.46-.46v-11.43c0-.29.16-.45.46-.45h2.02c.29,0,.46.16.46.45v.59c.51-.83,1.5-1.34,2.5-1.34,1.89,0,3.03,1.76,3.03,4.67Zm-3.15-.03c0-1.46-.38-2.26-1.09-2.26-.46,0-.88.27-1.15.78v2.99c.27.5.67.78,1.14.78.72,0,1.1-.82,1.1-2.3Z"/>
    <path class="cls-2" d="m99.37,175.26l-.3,2.08c-.05.3-.22.42-.48.37-.14-.03-.29-.05-.43-.05-.72,0-1.31.48-1.57,1.23v4.26c0,.29-.18.46-.46.46h-2.15c-.3,0-.46-.18-.46-.46v-7.81c0-.29.16-.45.46-.45h2.02c.29,0,.46.16.46.45v.72c.42-.93,1.15-1.49,1.98-1.49.21,0,.45.05.64.11.26.08.32.3.29.58Z"/>
    <path class="cls-2" d="m99.96,173.44v-1.33c0-.29.16-.46.46-.46h2.19c.29,0,.46.18.46.46v1.33c0,.3-.18.46-.46.46h-2.19c-.3,0-.46-.16-.46-.46Zm.02,9.72v-7.81c0-.29.18-.45.46-.45h2.16c.29,0,.45.16.45.45v7.81c0,.29-.16.46-.45.46h-2.16c-.29,0-.46-.18-.46-.46Z"/>
    <path class="cls-2" d="m104.16,179.25c0-2.82,1.78-4.67,4.42-4.67,1.01,0,2.02.3,2.72.8.24.19.27.4.1.66l-.85,1.18c-.18.22-.38.22-.64.08-.27-.16-.58-.22-.88-.22-1.1,0-1.66.72-1.66,2.18s.54,2.19,1.68,2.19c.29,0,.61-.1.88-.24.27-.16.46-.16.64.08l.85,1.18c.18.24.18.45-.03.61-.72.53-1.74.85-2.8.85-2.67,0-4.42-1.84-4.42-4.67Z"/>
    <path class="cls-2" d="m111.64,179.25c0-2.9,1.66-4.67,4.42-4.67,2.51,0,3.99,1.65,3.99,4.39,0,.26-.02.54-.06.83-.03.27-.21.42-.48.42h-4.72c.24.91.88,1.39,1.9,1.39.46,0,1.04-.13,1.52-.34.27-.11.46-.06.64.16l.66.9c.16.24.14.46-.08.62-.86.62-2.14.98-3.36.98-2.75,0-4.42-1.76-4.42-4.67Zm5.44-.83c-.02-1.07-.43-1.7-1.12-1.7s-1.14.58-1.28,1.7h2.4Z"/>
    <path class="cls-2" d="m125.01,178.19c1.23.34,2.88.75,2.88,2.74,0,1.79-1.62,2.99-4.03,2.99-1.22,0-2.5-.37-3.35-.96-.24-.18-.27-.4-.1-.66l.75-1.02c.18-.24.38-.27.66-.11.54.3,1.26.5,1.86.5.66,0,1.06-.22,1.06-.56,0-.42-.38-.54-1.17-.75-1.18-.32-2.99-.9-2.99-2.88,0-1.83,1.38-2.9,3.7-2.9,1.01,0,2.19.3,3.07.8.27.14.3.38.13.64l-.75,1.02c-.16.26-.37.27-.62.14-.45-.22-1.01-.35-1.5-.35-.56,0-.96.22-.96.54,0,.43.45.54,1.38.82Z"/>
  </g>
  <g>
    <path class="cls-2" d="m316.69,121.85v3.35c0,.7-.43,1.13-1.13,1.13h-15.95c-.74,0-1.13-.43-1.13-1.13v-3.35c0-.74.39-1.13,1.13-1.13h4.95v-13.88l-3.9,2.18c-.62.35-1.13.19-1.56-.31l-2.26-2.69c-.47-.62-.39-1.17.27-1.56l8.5-4.99c.47-.27.9-.39,1.4-.39h3.71c.7,0,1.09.43,1.09,1.13v20.51h3.74c.7,0,1.13.39,1.13,1.13Z"/>
    <path class="cls-2" d="m318.13,125.21v-5.11c0-.7.43-1.13,1.13-1.13h5.5c.7,0,1.13.43,1.13,1.13v5.11c0,.7-.43,1.13-1.13,1.13h-5.5c-.7,0-1.13-.43-1.13-1.13Z"/>
    <path class="cls-2" d="m327.06,124.35c-.55-.43-.58-1.01-.12-1.56l2.14-2.57c.43-.58.98-.58,1.6-.16,1.25.9,2.81,1.44,4.21,1.44,2.03,0,3.51-1.05,3.51-3.28s-1.52-3.43-4.25-3.43h-1.52c-.7,0-1.17-.39-1.17-1.13v-1.05c0-.58.12-.97.51-1.37l5.54-6.55h-8.74c-.7,0-1.09-.39-1.09-1.13v-3.35c0-.7.39-1.13,1.09-1.13h15.68c.7,0,1.09.43,1.09,1.13v2.85c0,.58-.16.98-.51,1.4l-5.66,6.71c4.29.66,6.67,3.39,6.67,7.53,0,5.3-4.45,8.39-9.98,8.39-3.39,0-6.71-1.01-9.01-2.73Z"/>
    <path class="cls-2" d="m347.73,105.9c0-4.49,2.73-7.22,7.22-7.22s7.21,2.73,7.21,7.22-2.73,7.21-7.21,7.21-7.22-2.77-7.22-7.21Zm9.52,20.44h-3.67c-.9,0-1.21-.58-.7-1.37l17.28-25.19c.31-.51.74-.7,1.33-.7h3.67c.9,0,1.25.58.7,1.37l-17.24,25.19c-.35.51-.78.7-1.37.7Zm-.31-20.44c0-1.91-.7-2.96-1.99-2.96s-1.99,1.05-1.99,2.96.7,2.92,1.99,2.92,1.99-1.05,1.99-2.92Zm9.59,13.61c0-4.49,2.73-7.22,7.22-7.22s7.21,2.73,7.21,7.22-2.73,7.25-7.21,7.25-7.22-2.77-7.22-7.25Zm9.21,0c0-1.87-.7-2.92-1.99-2.92s-1.99,1.05-1.99,2.92.7,2.96,1.99,2.96,1.99-1.05,1.99-2.96Z"/>
    <path class="cls-2" d="m287.07,147.88v-10.26c0-.29.18-.46.46-.46h3.2c.27,0,.45.13.5.42l1.58,7.71,1.54-7.71c.06-.29.24-.42.51-.42h3.2c.29,0,.46.18.46.46v10.26c0,.29-.18.46-.46.46h-1.94c-.29,0-.45-.18-.45-.46v-3.47c0-1.02.1-3.09.21-4.1h-.05l-1.71,7.62c-.06.27-.24.42-.51.42h-1.6c-.27,0-.45-.14-.51-.42l-1.74-7.62h-.05c.11,1.01.21,3.07.21,4.1v3.47c0,.29-.16.46-.46.46h-1.92c-.29,0-.46-.18-.46-.46Z"/>
    <path class="cls-2" d="m299.66,143.97c0-2.9,1.66-4.67,4.42-4.67,2.51,0,3.99,1.65,3.99,4.39,0,.26-.02.54-.06.83-.03.27-.21.42-.48.42h-4.72c.24.91.88,1.39,1.91,1.39.46,0,1.04-.13,1.52-.34.27-.11.46-.06.64.16l.66.9c.16.24.14.46-.08.62-.86.62-2.14.98-3.36.98-2.75,0-4.42-1.76-4.42-4.67Zm5.44-.83c-.02-1.07-.43-1.7-1.12-1.7s-1.14.58-1.28,1.7h2.4Z"/>
    <path class="cls-2" d="m308.82,143.97c0-2.9,1.3-4.66,3.44-4.66.7,0,1.44.32,1.97.83v-3.31c0-.29.18-.46.46-.46h2.16c.29,0,.46.18.46.46v11.04c0,.29-.18.46-.46.46h-1.89c-.29,0-.46-.18-.46-.46v-.32c-.58.67-1.46,1.09-2.4,1.09-2.03,0-3.28-1.76-3.28-4.67Zm5.41,1.5v-3.01c-.26-.5-.67-.78-1.14-.78-.72,0-1.12.82-1.12,2.32s.38,2.26,1.09,2.26c.5,0,.91-.29,1.17-.78Z"/>
    <path class="cls-2" d="m318.69,138.16v-1.33c0-.29.16-.46.46-.46h2.19c.29,0,.46.18.46.46v1.33c0,.3-.18.46-.46.46h-2.19c-.3,0-.46-.16-.46-.46Zm.02,9.72v-7.81c0-.29.18-.45.46-.45h2.16c.29,0,.45.16.45.45v7.81c0,.29-.16.46-.45.46h-2.16c-.29,0-.46-.18-.46-.46Z"/>
    <path class="cls-2" d="m330.55,142.24v5.63c0,.29-.16.46-.46.46h-1.89c-.29,0-.45-.18-.45-.46v-.26c-.62.64-1.55,1.02-2.4,1.02-1.54,0-2.56-1.1-2.56-2.75s1.36-2.75,3.39-2.75h1.38v-.5c0-.72-.46-1.02-1.39-1.02-.43,0-.96.11-1.39.3-.26.13-.46.1-.64-.14l-.74-1.02c-.18-.26-.13-.5.13-.64.91-.5,2.13-.82,3.17-.82,2.53,0,3.86,1.01,3.86,2.95Zm-2.99,2.38h-.88c-.56,0-.88.35-.88.99,0,.53.29.85.75.85.4,0,.77-.22,1.01-.62v-1.22Z"/>
    <path class="cls-2" d="m339.7,141.97v5.91c0,.29-.18.46-.46.46h-2.16c-.29,0-.45-.18-.45-.46v-5.38c0-.51-.24-.8-.64-.8s-.78.3-1.02.82v5.36c0,.29-.18.46-.46.46h-2.14c-.3,0-.46-.18-.46-.46v-7.81c0-.29.16-.45.46-.45h2.02c.29,0,.46.16.46.45v.61c.51-.85,1.5-1.38,2.43-1.38,1.47,0,2.43,1.09,2.43,2.67Z"/>
    <path class="cls-2" d="m352.42,141.97v5.91c0,.29-.18.46-.46.46h-2.16c-.29,0-.45-.18-.45-.46v-5.38c0-.54-.21-.8-.66-.8-.37,0-.75.24-1.01.7v5.47c0,.29-.18.46-.46.46h-2.14c-.3,0-.46-.18-.46-.46v-11.04c0-.29.16-.46.46-.46h2.14c.29,0,.46.18.46.46v3.65c.56-.74,1.42-1.18,2.31-1.18,1.54,0,2.43,1.01,2.43,2.67Z"/>
    <path class="cls-2" d="m362.21,143.97c0,2.91-1.65,4.67-4.37,4.67s-4.39-1.76-4.39-4.67,1.65-4.67,4.39-4.67,4.37,1.78,4.37,4.67Zm-3.15,0c0-1.47-.43-2.27-1.22-2.27s-1.23.8-1.23,2.27.43,2.29,1.23,2.29,1.22-.82,1.22-2.29Z"/>
    <path class="cls-2" d="m370.96,140.06v7.81c0,.29-.18.46-.46.46h-1.94c-.29,0-.46-.18-.46-.46v-.59c-.53.86-1.5,1.36-2.43,1.36-1.47,0-2.42-1.06-2.42-2.66v-5.92c0-.29.16-.45.46-.45h2.14c.3,0,.46.16.46.45v5.38c0,.54.22.83.62.83.37,0,.7-.24.93-.67v-5.54c0-.29.18-.45.46-.45h2.16c.29,0,.46.16.46.45Z"/>
    <path class="cls-2" d="m376.27,142.91c1.23.34,2.88.75,2.88,2.74,0,1.79-1.62,2.99-4.03,2.99-1.22,0-2.5-.37-3.35-.96-.24-.18-.27-.4-.1-.66l.75-1.02c.18-.24.38-.27.66-.11.54.3,1.26.5,1.86.5.66,0,1.06-.22,1.06-.56,0-.42-.38-.54-1.17-.75-1.18-.32-2.99-.9-2.99-2.88,0-1.83,1.38-2.9,3.7-2.9,1.01,0,2.19.3,3.07.8.27.14.3.38.13.64l-.75,1.02c-.16.26-.37.27-.62.14-.45-.22-1.01-.35-1.5-.35-.56,0-.96.22-.96.54,0,.43.45.54,1.38.82Z"/>
    <path class="cls-2" d="m379.81,143.97c0-2.9,1.66-4.67,4.42-4.67,2.51,0,3.99,1.65,3.99,4.39,0,.26-.02.54-.06.83-.03.27-.21.42-.48.42h-4.72c.24.91.88,1.39,1.91,1.39.46,0,1.04-.13,1.52-.34.27-.11.46-.06.64.16l.66.9c.16.24.14.46-.08.62-.86.62-2.14.98-3.36.98-2.75,0-4.42-1.76-4.42-4.67Zm5.44-.83c-.02-1.07-.43-1.7-1.12-1.7s-1.14.58-1.28,1.7h2.4Z"/>
    <path class="cls-2" d="m308.18,161.98l-.3,2.08c-.05.3-.22.42-.48.37-.14-.03-.29-.05-.43-.05-.72,0-1.31.48-1.57,1.23v4.26c0,.29-.18.46-.46.46h-2.15c-.3,0-.46-.18-.46-.46v-7.81c0-.29.16-.45.46-.45h2.02c.29,0,.46.16.46.45v.72c.42-.93,1.15-1.49,1.98-1.49.21,0,.45.05.64.11.26.08.32.3.29.58Z"/>
    <path class="cls-2" d="m308.26,165.97c0-2.9,1.66-4.67,4.42-4.67,2.51,0,3.99,1.65,3.99,4.39,0,.26-.02.54-.06.83-.03.27-.21.42-.48.42h-4.72c.24.91.88,1.39,1.91,1.39.46,0,1.04-.13,1.52-.34.27-.11.46-.06.64.16l.66.9c.16.24.14.46-.08.62-.86.62-2.14.98-3.36.98-2.75,0-4.42-1.76-4.42-4.67Zm5.44-.83c-.02-1.07-.43-1.7-1.12-1.7s-1.14.58-1.28,1.7h2.4Z"/>
    <path class="cls-2" d="m325.52,163.97v5.91c0,.29-.18.46-.46.46h-2.16c-.29,0-.45-.18-.45-.46v-5.38c0-.51-.24-.8-.64-.8s-.78.3-1.02.82v5.36c0,.29-.18.46-.46.46h-2.15c-.3,0-.46-.18-.46-.46v-7.81c0-.29.16-.45.46-.45h2.02c.29,0,.46.16.46.45v.61c.51-.85,1.5-1.38,2.43-1.38,1.47,0,2.43,1.09,2.43,2.67Z"/>
    <path class="cls-2" d="m327.33,167.62v-3.81h-.67c-.29,0-.45-.16-.45-.46v-.94c0-.26.11-.45.37-.53l.3-.06c.29-.11.46-.21.54-.72l.14-.91c.05-.29.22-.42.51-.42h1.87c.29,0,.45.18.45.46v1.39h1.52c.3,0,.46.16.46.45v1.28c0,.3-.16.46-.46.46h-1.52v3.54c0,.64.27.9.77.9.19,0,.4-.05.67-.11.3-.08.51.03.56.34l.19,1.3c.05.29-.11.5-.43.59-.64.19-1.23.29-1.79.29-1.79,0-3.04-1.01-3.04-3.02Z"/>
    <path class="cls-2" d="m345.28,165.99c0,2.9-1.3,4.66-3.43,4.66-.7,0-1.44-.3-1.97-.82v3.67c0,.3-.18.46-.46.46h-2.15c-.3,0-.46-.16-.46-.46v-11.43c0-.29.16-.45.46-.45h2.02c.29,0,.46.16.46.45v.59c.51-.83,1.5-1.34,2.5-1.34,1.89,0,3.03,1.76,3.03,4.67Zm-3.15-.03c0-1.46-.38-2.26-1.09-2.26-.46,0-.88.27-1.15.78v2.99c.27.5.67.78,1.14.78.72,0,1.1-.82,1.1-2.3Z"/>
    <path class="cls-2" d="m352.26,161.98l-.3,2.08c-.05.3-.22.42-.48.37-.14-.03-.29-.05-.43-.05-.72,0-1.31.48-1.57,1.23v4.26c0,.29-.18.46-.46.46h-2.15c-.3,0-.46-.18-.46-.46v-7.81c0-.29.16-.45.46-.45h2.02c.29,0,.46.16.46.45v.72c.42-.93,1.15-1.49,1.98-1.49.21,0,.45.05.64.11.26.08.32.3.29.58Z"/>
    <path class="cls-2" d="m352.85,160.16v-1.33c0-.29.16-.46.46-.46h2.19c.29,0,.46.18.46.46v1.33c0,.3-.18.46-.46.46h-2.19c-.3,0-.46-.16-.46-.46Zm.02,9.72v-7.81c0-.29.18-.45.46-.45h2.16c.29,0,.45.16.45.45v7.81c0,.29-.16.46-.45.46h-2.16c-.29,0-.46-.18-.46-.46Z"/>
    <path class="cls-2" d="m357.05,165.97c0-2.82,1.78-4.67,4.42-4.67,1.01,0,2.02.3,2.72.8.24.19.27.4.1.66l-.85,1.18c-.18.22-.38.22-.64.08-.27-.16-.58-.22-.88-.22-1.1,0-1.66.72-1.66,2.18s.54,2.19,1.68,2.19c.29,0,.61-.1.88-.24.27-.16.46-.16.64.08l.85,1.18c.18.24.18.45-.03.61-.72.53-1.75.85-2.8.85-2.67,0-4.42-1.84-4.42-4.67Z"/>
    <path class="cls-2" d="m364.53,165.97c0-2.9,1.66-4.67,4.42-4.67,2.51,0,3.99,1.65,3.99,4.39,0,.26-.02.54-.06.83-.03.27-.21.42-.48.42h-4.72c.24.91.88,1.39,1.91,1.39.46,0,1.04-.13,1.52-.34.27-.11.46-.06.64.16l.66.9c.16.24.14.46-.08.62-.86.62-2.14.98-3.36.98-2.75,0-4.42-1.76-4.42-4.67Zm5.44-.83c-.02-1.07-.43-1.7-1.12-1.7s-1.14.58-1.28,1.7h2.4Z"/>
  </g>
  <g>
    <path class="cls-2" d="m6.16,399.29c-.23-.17-.24-.39-.09-.62l.81-1.18c.15-.21.35-.27.58-.12.75.45,1.8.83,2.54.83s1.19-.3,1.2-.88c0-.77-.61-.96-1.81-1.35-1.41-.5-3.16-1.18-3.16-3.25s1.6-3.3,4.26-3.3c1.08,0,2.26.32,3.09.83.24.15.27.36.1.6l-.78,1.16c-.13.22-.34.25-.58.15-.57-.25-1.23-.42-1.78-.42-.75,0-1.19.28-1.19.73,0,.55.5.74,1.59,1.08,1.44.43,3.39,1.05,3.38,3.43,0,2.36-1.95,3.5-4.26,3.5-1.35,0-2.79-.42-3.88-1.17Z"/>
    <path class="cls-2" d="m14.93,396.08c0-2.71,1.56-4.38,4.14-4.38,2.35,0,3.73,1.54,3.73,4.11,0,.24-.01.51-.06.78-.03.25-.19.39-.45.39h-4.42c.23.85.82,1.3,1.78,1.3.44,0,.98-.12,1.43-.32.25-.1.43-.06.6.15l.62.84c.15.23.13.44-.08.58-.81.58-2.01.92-3.15.92-2.58,0-4.14-1.65-4.14-4.38Zm5.1-.78c-.01-1-.4-1.59-1.05-1.59s-1.06.54-1.2,1.59h2.25Z"/>
    <path class="cls-2" d="m23.51,396.08c0-2.64,1.67-4.38,4.14-4.38.95,0,1.89.29,2.55.75.22.18.25.38.09.62l-.79,1.11c-.17.21-.36.21-.6.08-.25-.15-.54-.21-.83-.21-1.03,0-1.56.67-1.56,2.04s.51,2.05,1.57,2.05c.27,0,.57-.09.83-.22.25-.15.44-.15.6.08l.8,1.11c.16.23.16.42-.03.57-.67.5-1.63.79-2.62.79-2.5,0-4.14-1.72-4.14-4.38Z"/>
    <path class="cls-2" d="m38.72,396.08c0,2.73-1.54,4.38-4.09,4.38s-4.11-1.65-4.11-4.38,1.54-4.38,4.11-4.38,4.09,1.67,4.09,4.38Zm-2.95,0c0-1.38-.41-2.13-1.14-2.13s-1.15.75-1.15,2.13.4,2.15,1.15,2.15,1.14-.77,1.14-2.15Z"/>
    <path class="cls-2" d="m47.08,394.2v5.54c0,.27-.17.43-.43.43h-2.03c-.27,0-.42-.17-.42-.43v-5.04c0-.48-.22-.75-.6-.75s-.74.29-.96.76v5.03c0,.27-.17.43-.44.43h-2.01c-.28,0-.43-.17-.43-.43v-7.32c0-.27.15-.42.43-.42h1.89c.27,0,.44.15.44.42v.57c.48-.79,1.41-1.29,2.28-1.29,1.38,0,2.28,1.02,2.28,2.5Z"/>
    <path class="cls-2" d="m48.05,396.08c0-2.71,1.21-4.36,3.22-4.36.66,0,1.35.3,1.85.78v-3.1c0-.27.17-.44.44-.44h2.02c.27,0,.44.17.44.44v10.35c0,.27-.17.43-.44.43h-1.77c-.27,0-.44-.17-.44-.43v-.3c-.54.63-1.36,1.02-2.25,1.02-1.9,0-3.07-1.65-3.07-4.38Zm5.07,1.41v-2.82c-.24-.46-.63-.73-1.06-.73-.67,0-1.05.76-1.05,2.17s.36,2.12,1.02,2.12c.47,0,.85-.27,1.1-.74Z"/>
    <path class="cls-2" d="m65.48,403.13v-3.64c-.54.63-1.38.97-2.26.97-1.75,0-2.83-1.65-2.83-4.38s1.21-4.36,3.23-4.36c.78,0,1.56.39,2.08,1v-.3c0-.27.15-.42.42-.42h1.81c.29,0,.44.15.44.42v10.71c0,.29-.15.43-.44.43h-2.01c-.27,0-.44-.15-.44-.43Zm0-5.68v-2.73c-.25-.48-.65-.78-1.09-.78-.67,0-1.05.76-1.05,2.17s.36,2.12,1.02,2.12c.47,0,.87-.27,1.12-.78Z"/>
    <path class="cls-2" d="m76.85,392.42v7.32c0,.27-.17.43-.44.43h-1.81c-.27,0-.43-.17-.43-.43v-.55c-.5.81-1.41,1.27-2.28,1.27-1.38,0-2.26-.99-2.26-2.49v-5.55c0-.27.15-.42.44-.42h2.01c.29,0,.44.15.44.42v5.04c0,.51.21.78.58.78.34,0,.66-.23.87-.63v-5.19c0-.27.17-.42.44-.42h2.02c.27,0,.44.15.44.42Z"/>
    <path class="cls-2" d="m85.04,394.46v5.28c0,.27-.15.43-.44.43h-1.77c-.27,0-.42-.17-.42-.43v-.24c-.58.6-1.46.96-2.25.96-1.44,0-2.4-1.04-2.4-2.58s1.27-2.58,3.18-2.58h1.29v-.46c0-.67-.44-.96-1.3-.96-.41,0-.9.11-1.31.29-.24.12-.44.09-.6-.13l-.69-.96c-.17-.24-.12-.46.12-.6.85-.47,2-.77,2.97-.77,2.37,0,3.62.95,3.62,2.76Zm-2.81,2.24h-.82c-.53,0-.83.33-.83.93,0,.5.27.79.71.79.38,0,.72-.21.94-.58v-1.14Z"/>
    <path class="cls-2" d="m91.79,392.34l-.29,1.95c-.04.29-.21.39-.45.35-.13-.03-.27-.04-.4-.04-.67,0-1.23.45-1.47,1.15v3.99c0,.27-.17.43-.44.43h-2.01c-.28,0-.43-.17-.43-.43v-7.32c0-.27.15-.42.43-.42h1.89c.27,0,.44.15.44.42v.68c.39-.87,1.08-1.4,1.86-1.4.19,0,.42.04.6.11.24.08.3.29.27.54Z"/>
    <path class="cls-2" d="m92.83,397.62v-3.57h-.63c-.27,0-.42-.15-.42-.44v-.88c0-.24.1-.42.35-.5l.28-.06c.27-.11.44-.2.51-.67l.13-.86c.04-.27.21-.39.48-.39h1.75c.27,0,.42.17.42.43v1.3h1.43c.28,0,.44.15.44.42v1.2c0,.29-.15.44-.44.44h-1.43v3.31c0,.6.26.84.72.84.18,0,.38-.04.63-.1.29-.08.48.03.52.31l.18,1.21c.04.27-.1.46-.4.56-.6.18-1.16.27-1.68.27-1.68,0-2.85-.95-2.85-2.83Z"/>
    <path class="cls-2" d="m97.94,396.08c0-2.71,1.56-4.38,4.14-4.38,2.35,0,3.73,1.54,3.73,4.11,0,.24-.01.51-.06.78-.03.25-.19.39-.45.39h-4.42c.23.85.82,1.3,1.78,1.3.44,0,.98-.12,1.43-.32.25-.1.43-.06.6.15l.62.84c.15.23.13.44-.08.58-.81.58-2.01.92-3.15.92-2.58,0-4.14-1.65-4.14-4.38Zm5.1-.78c-.01-1-.4-1.59-1.05-1.59s-1.06.54-1.2,1.59h2.25Z"/>
    <path class="cls-2" d="m112.3,392.34l-.29,1.95c-.04.29-.21.39-.45.35-.13-.03-.27-.04-.4-.04-.67,0-1.23.45-1.47,1.15v3.99c0,.27-.17.43-.44.43h-2.01c-.28,0-.43-.17-.43-.43v-7.32c0-.27.15-.42.43-.42h1.89c.27,0,.44.15.44.42v.68c.39-.87,1.08-1.4,1.86-1.4.19,0,.42.04.6.11.24.08.3.29.27.54Z"/>
    <path class="cls-2" d="m122.81,398.45v1.29c0,.27-.17.43-.44.43h-6.21c-.27,0-.43-.17-.43-.43v-1.23c0-.22.07-.38.22-.54,1.59-1.54,3.89-3.51,3.89-5.2,0-.67-.42-1.12-1.04-1.12-.54,0-1.21.3-1.81.83-.23.18-.44.18-.61-.05l-.75-.9c-.17-.2-.18-.41-.02-.6.94-1.07,2.25-1.52,3.45-1.52,2.22,0,3.71,1.19,3.71,2.99s-1.2,3.45-3.42,5.62h3.03c.27,0,.44.15.44.44Z"/>
    <path class="cls-2" d="m131.93,394.94c0,3.58-1.42,5.52-4.12,5.52s-4.12-1.93-4.12-5.52,1.42-5.54,4.12-5.54,4.12,1.94,4.12,5.54Zm-2.94,0c0-2.33-.35-3.24-1.19-3.24s-1.19.92-1.19,3.24.35,3.22,1.19,3.22,1.19-.92,1.19-3.22Z"/>
    <path class="cls-2" d="m139.61,398.45v1.29c0,.27-.17.43-.44.43h-6.21c-.27,0-.43-.17-.43-.43v-1.23c0-.22.07-.38.22-.54,1.59-1.54,3.89-3.51,3.89-5.2,0-.67-.42-1.12-1.04-1.12-.54,0-1.21.3-1.81.83-.23.18-.44.18-.61-.05l-.75-.9c-.17-.2-.18-.41-.02-.6.94-1.07,2.25-1.52,3.45-1.52,2.22,0,3.71,1.19,3.71,2.99s-1.2,3.45-3.42,5.62h3.03c.27,0,.44.15.44.44Z"/>
    <path class="cls-2" d="m140.16,399.41c-.21-.17-.23-.39-.04-.6l.82-.99c.17-.23.38-.23.62-.06.48.35,1.08.56,1.62.56.78,0,1.35-.41,1.35-1.26s-.58-1.32-1.63-1.32h-.58c-.27,0-.45-.15-.45-.44v-.4c0-.23.04-.38.2-.53l2.13-2.52h-3.36c-.27,0-.42-.15-.42-.44v-1.29c0-.27.15-.43.42-.43h6.03c.27,0,.42.17.42.43v1.1c0,.22-.06.38-.2.54l-2.17,2.58c1.65.26,2.56,1.31,2.56,2.9,0,2.04-1.71,3.22-3.84,3.22-1.3,0-2.58-.39-3.46-1.05Z"/>
    <path class="cls-2" d="m152.31,399.74v-5.68h-.71c-.27,0-.44-.15-.44-.44v-.88c0-.24.12-.42.36-.5l.3-.08c.34-.1.48-.28.48-.64v-.2c0-1.6,1.29-2.65,3.19-2.65.52,0,1.09.09,1.54.24.24.08.33.27.29.53l-.17,1.2c-.04.3-.24.39-.53.31-.22-.06-.48-.09-.73-.09-.63,0-.97.32-.97.88v.25h1.3c.27,0,.44.15.44.42v1.2c0,.27-.17.44-.44.44h-1.05v5.68c0,.27-.17.43-.44.43h-2.02c-.27,0-.42-.17-.42-.43Z"/>
    <path class="cls-2" d="m165.11,396.08c0,2.73-1.54,4.38-4.09,4.38s-4.11-1.65-4.11-4.38,1.54-4.38,4.11-4.38,4.09,1.67,4.09,4.38Zm-2.96,0c0-1.38-.4-2.13-1.14-2.13s-1.15.75-1.15,2.13.4,2.15,1.15,2.15,1.14-.77,1.14-2.15Z"/>
    <path class="cls-2" d="m171.63,392.34l-.28,1.95c-.05.29-.21.39-.45.35-.14-.03-.27-.04-.41-.04-.67,0-1.23.45-1.47,1.15v3.99c0,.27-.17.43-.44.43h-2.01c-.29,0-.43-.17-.43-.43v-7.32c0-.27.15-.42.43-.42h1.89c.27,0,.43.15.43.42v.68c.39-.87,1.08-1.4,1.86-1.4.2,0,.42.04.6.11.24.08.3.29.27.54Z"/>
    <path class="cls-2" d="m179.22,395.09c1.16.32,2.7.71,2.7,2.57,0,1.68-1.52,2.8-3.78,2.8-1.14,0-2.34-.34-3.13-.9-.23-.17-.25-.38-.09-.62l.71-.96c.17-.23.36-.25.61-.11.51.29,1.19.46,1.74.46.62,0,.99-.21.99-.52,0-.39-.36-.51-1.09-.71-1.11-.3-2.81-.84-2.81-2.7,0-1.71,1.29-2.71,3.46-2.71.95,0,2.06.29,2.88.75.25.13.29.36.12.6l-.71.96c-.15.24-.34.25-.58.13-.42-.21-.94-.33-1.41-.33-.53,0-.9.21-.9.51,0,.41.42.51,1.29.76Z"/>
    <path class="cls-2" d="m189.71,394.46v5.28c0,.27-.15.43-.44.43h-1.77c-.27,0-.42-.17-.42-.43v-.24c-.58.6-1.46.96-2.25.96-1.44,0-2.4-1.04-2.4-2.58s1.28-2.58,3.18-2.58h1.29v-.46c0-.67-.44-.96-1.31-.96-.4,0-.9.11-1.3.29-.24.12-.43.09-.6-.13l-.69-.96c-.17-.24-.12-.46.12-.6.85-.47,2-.77,2.97-.77,2.37,0,3.62.95,3.62,2.76Zm-2.8,2.24h-.83c-.53,0-.83.33-.83.93,0,.5.27.79.71.79.38,0,.72-.21.95-.58v-1.14Z"/>
    <path class="cls-2" d="m190.91,399.74v-10.35c0-.27.15-.44.44-.44h2.01c.29,0,.43.17.43.44v10.35c0,.27-.15.43-.43.43h-2.01c-.29,0-.44-.17-.44-.43Z"/>
    <path class="cls-2" d="m194.76,396.08c0-2.71,1.56-4.38,4.14-4.38,2.36,0,3.74,1.54,3.74,4.11,0,.24-.02.51-.06.78-.03.25-.19.39-.45.39h-4.42c.23.85.83,1.3,1.79,1.3.44,0,.98-.12,1.42-.32.25-.1.44-.06.6.15l.61.84c.15.23.14.44-.07.58-.81.58-2.01.92-3.15.92-2.58,0-4.14-1.65-4.14-4.38Zm5.1-.78c-.01-1-.41-1.59-1.05-1.59s-1.07.54-1.2,1.59h2.25Z"/>
    <path class="cls-2" d="m207.3,395.09c1.16.32,2.7.71,2.7,2.57,0,1.68-1.52,2.8-3.78,2.8-1.14,0-2.34-.34-3.13-.9-.23-.17-.25-.38-.09-.62l.71-.96c.17-.23.36-.25.61-.11.51.29,1.19.46,1.74.46.62,0,.99-.21.99-.52,0-.39-.36-.51-1.09-.71-1.11-.3-2.81-.84-2.81-2.7,0-1.71,1.29-2.71,3.46-2.71.95,0,2.06.29,2.88.75.25.13.29.36.12.6l-.71.96c-.15.24-.34.25-.58.13-.42-.21-.94-.33-1.41-.33-.53,0-.9.21-.9.51,0,.41.42.51,1.29.76Z"/>
    <path class="cls-2" d="m211.01,397.34h2.12c.27,0,.43.17.43.44v1.86c0,1.74-.96,2.85-2.58,3.06-.27.04-.42-.11-.47-.38l-.03-.2c-.04-.27.09-.42.34-.51.6-.23.95-.74.97-1.44h-.79c-.27,0-.43-.17-.43-.43v-1.96c0-.27.17-.44.43-.44Z"/>
    <path class="cls-2" d="m218.34,397.62v-3.57h-.63c-.27,0-.42-.15-.42-.44v-.88c0-.24.11-.42.34-.5l.29-.06c.27-.11.44-.2.51-.67l.14-.86c.04-.27.21-.39.48-.39h1.75c.27,0,.42.17.42.43v1.3h1.42c.29,0,.44.15.44.42v1.2c0,.29-.15.44-.44.44h-1.42v3.31c0,.6.25.84.72.84.18,0,.38-.04.63-.1.28-.08.48.03.52.31l.18,1.21c.05.27-.1.46-.4.56-.6.18-1.16.27-1.68.27-1.68,0-2.85-.95-2.85-2.83Z"/>
    <path class="cls-2" d="m231.21,394.2v5.54c0,.27-.17.43-.43.43h-2.03c-.27,0-.42-.17-.42-.43v-5.04c0-.51-.19-.75-.62-.75-.34,0-.7.22-.94.66v5.13c0,.27-.17.43-.44.43h-2.01c-.29,0-.43-.17-.43-.43v-10.35c0-.27.15-.44.43-.44h2.01c.27,0,.44.17.44.44v3.42c.52-.69,1.33-1.11,2.16-1.11,1.44,0,2.28.95,2.28,2.5Z"/>
    <path class="cls-2" d="m232.46,390.63v-1.25c0-.27.15-.44.44-.44h2.05c.27,0,.44.17.44.44v1.25c0,.29-.17.43-.44.43h-2.05c-.29,0-.44-.15-.44-.43Zm.02,9.1v-7.32c0-.27.17-.42.43-.42h2.03c.27,0,.42.15.42.42v7.32c0,.27-.15.43-.42.43h-2.03c-.27,0-.43-.17-.43-.43Z"/>
    <path class="cls-2" d="m242.18,392.34l-.28,1.95c-.05.29-.21.39-.45.35-.13-.03-.27-.04-.41-.04-.67,0-1.23.45-1.47,1.15v3.99c0,.27-.17.43-.44.43h-2.01c-.29,0-.43-.17-.43-.43v-7.32c0-.27.15-.42.43-.42h1.89c.27,0,.43.15.43.42v.68c.39-.87,1.08-1.4,1.86-1.4.19,0,.42.04.6.11.24.08.3.29.27.54Z"/>
    <path class="cls-2" d="m242.25,396.08c0-2.71,1.21-4.36,3.22-4.36.66,0,1.35.3,1.84.78v-3.1c0-.27.17-.44.44-.44h2.02c.27,0,.44.17.44.44v10.35c0,.27-.17.43-.44.43h-1.77c-.27,0-.43-.17-.43-.43v-.3c-.54.63-1.37,1.02-2.25,1.02-1.91,0-3.08-1.65-3.08-4.38Zm5.07,1.41v-2.82c-.24-.46-.63-.73-1.06-.73-.67,0-1.05.76-1.05,2.17s.36,2.12,1.02,2.12c.46,0,.86-.27,1.09-.74Z"/>
    <path class="cls-2" d="m259.68,403.13v-3.64c-.54.63-1.38.97-2.26.97-1.75,0-2.83-1.65-2.83-4.38s1.21-4.36,3.22-4.36c.78,0,1.56.39,2.08,1v-.3c0-.27.15-.42.42-.42h1.82c.29,0,.43.15.43.42v10.71c0,.29-.15.43-.43.43h-2.01c-.27,0-.44-.15-.44-.43Zm0-5.68v-2.73c-.25-.48-.64-.78-1.09-.78-.67,0-1.05.76-1.05,2.17s.36,2.12,1.02,2.12c.46,0,.87-.27,1.12-.78Z"/>
    <path class="cls-2" d="m271.05,392.42v7.32c0,.27-.17.43-.44.43h-1.81c-.27,0-.44-.17-.44-.43v-.55c-.5.81-1.41,1.27-2.28,1.27-1.38,0-2.27-.99-2.27-2.49v-5.55c0-.27.15-.42.44-.42h2.01c.29,0,.43.15.43.42v5.04c0,.51.21.78.58.78.35,0,.66-.23.87-.63v-5.19c0-.27.17-.42.44-.42h2.02c.27,0,.44.15.44.42Z"/>
    <path class="cls-2" d="m279.24,394.46v5.28c0,.27-.15.43-.44.43h-1.77c-.27,0-.42-.17-.42-.43v-.24c-.58.6-1.46.96-2.25.96-1.44,0-2.4-1.04-2.4-2.58s1.28-2.58,3.18-2.58h1.29v-.46c0-.67-.44-.96-1.31-.96-.4,0-.9.11-1.3.29-.24.12-.43.09-.6-.13l-.69-.96c-.17-.24-.12-.46.12-.6.85-.47,2-.77,2.97-.77,2.37,0,3.62.95,3.62,2.76Zm-2.8,2.24h-.83c-.53,0-.83.33-.83.93,0,.5.27.79.71.79.38,0,.72-.21.95-.58v-1.14Z"/>
    <path class="cls-2" d="m285.99,392.34l-.28,1.95c-.05.29-.21.39-.45.35-.13-.03-.27-.04-.41-.04-.67,0-1.23.45-1.47,1.15v3.99c0,.27-.17.43-.44.43h-2.01c-.29,0-.43-.17-.43-.43v-7.32c0-.27.15-.42.43-.42h1.89c.27,0,.43.15.43.42v.68c.39-.87,1.08-1.4,1.86-1.4.19,0,.42.04.6.11.24.08.3.29.27.54Z"/>
    <path class="cls-2" d="m287.03,397.62v-3.57h-.63c-.27,0-.42-.15-.42-.44v-.88c0-.24.11-.42.34-.5l.29-.06c.27-.11.44-.2.51-.67l.14-.86c.04-.27.21-.39.48-.39h1.75c.27,0,.42.17.42.43v1.3h1.42c.29,0,.44.15.44.42v1.2c0,.29-.15.44-.44.44h-1.42v3.31c0,.6.25.84.72.84.18,0,.38-.04.63-.1.28-.08.48.03.52.31l.18,1.21c.05.27-.1.46-.4.56-.6.18-1.16.27-1.68.27-1.68,0-2.85-.95-2.85-2.83Z"/>
    <path class="cls-2" d="m292.14,396.08c0-2.71,1.56-4.38,4.14-4.38,2.36,0,3.74,1.54,3.74,4.11,0,.24-.02.51-.06.78-.03.25-.19.39-.45.39h-4.42c.23.85.83,1.3,1.79,1.3.44,0,.98-.12,1.42-.32.25-.1.44-.06.6.15l.61.84c.15.23.14.44-.07.58-.81.58-2.01.92-3.15.92-2.58,0-4.14-1.65-4.14-4.38Zm5.1-.78c-.01-1-.41-1.59-1.05-1.59s-1.07.54-1.2,1.59h2.25Z"/>
    <path class="cls-2" d="m306.5,392.34l-.28,1.95c-.05.29-.21.39-.45.35-.14-.03-.27-.04-.41-.04-.67,0-1.23.45-1.47,1.15v3.99c0,.27-.17.43-.44.43h-2.01c-.29,0-.43-.17-.43-.43v-7.32c0-.27.15-.42.43-.42h1.89c.27,0,.43.15.43.42v.68c.39-.87,1.08-1.4,1.86-1.4.2,0,.42.04.6.11.24.08.3.29.27.54Z"/>
    <path class="cls-2" d="m317.01,398.45v1.29c0,.27-.17.43-.43.43h-6.21c-.27,0-.44-.17-.44-.43v-1.23c0-.22.08-.38.23-.54,1.59-1.54,3.88-3.51,3.88-5.2,0-.67-.42-1.12-1.04-1.12-.54,0-1.21.3-1.82.83-.22.18-.43.18-.61-.05l-.75-.9c-.17-.2-.18-.41-.02-.6.95-1.07,2.25-1.52,3.45-1.52,2.22,0,3.71,1.19,3.71,2.99s-1.2,3.45-3.42,5.62h3.03c.27,0,.43.15.43.44Z"/>
    <path class="cls-2" d="m326.13,394.94c0,3.58-1.42,5.52-4.12,5.52s-4.12-1.93-4.12-5.52,1.42-5.54,4.12-5.54,4.12,1.94,4.12,5.54Zm-2.94,0c0-2.33-.34-3.24-1.18-3.24s-1.18.92-1.18,3.24.34,3.22,1.18,3.22,1.18-.92,1.18-3.22Z"/>
    <path class="cls-2" d="m333.81,398.45v1.29c0,.27-.17.43-.43.43h-6.21c-.27,0-.44-.17-.44-.43v-1.23c0-.22.08-.38.23-.54,1.59-1.54,3.88-3.51,3.88-5.2,0-.67-.42-1.12-1.04-1.12-.54,0-1.21.3-1.81.83-.23.18-.44.18-.62-.05l-.75-.9c-.17-.2-.18-.41-.02-.6.95-1.07,2.25-1.52,3.45-1.52,2.22,0,3.71,1.19,3.71,2.99s-1.2,3.45-3.42,5.62h3.03c.27,0,.43.15.43.44Z"/>
    <path class="cls-2" d="m334.37,399.41c-.21-.17-.23-.39-.05-.6l.83-.99c.17-.23.38-.23.62-.06.48.35,1.08.56,1.62.56.78,0,1.35-.41,1.35-1.26s-.58-1.32-1.63-1.32h-.58c-.27,0-.45-.15-.45-.44v-.4c0-.23.04-.38.2-.53l2.13-2.52h-3.36c-.27,0-.42-.15-.42-.44v-1.29c0-.27.15-.43.42-.43h6.03c.27,0,.42.17.42.43v1.1c0,.22-.06.38-.2.54l-2.17,2.58c1.65.26,2.57,1.31,2.57,2.9,0,2.04-1.71,3.22-3.84,3.22-1.31,0-2.58-.39-3.46-1.05Z"/>
    <path class="cls-2" d="m346.52,399.74v-5.68h-.71c-.27,0-.43-.15-.43-.44v-.88c0-.24.12-.42.36-.5l.3-.08c.34-.1.48-.28.48-.64v-.2c0-1.6,1.29-2.65,3.2-2.65.53,0,1.09.09,1.54.24.24.08.33.27.29.53l-.17,1.2c-.04.3-.24.39-.53.31-.22-.06-.48-.09-.73-.09-.63,0-.98.32-.98.88v.25h1.31c.27,0,.43.15.43.42v1.2c0,.27-.17.44-.43.44h-1.05v5.68c0,.27-.17.43-.43.43h-2.03c-.27,0-.42-.17-.42-.43Z"/>
    <path class="cls-2" d="m359.31,396.08c0,2.73-1.54,4.38-4.1,4.38s-4.11-1.65-4.11-4.38,1.54-4.38,4.11-4.38,4.1,1.67,4.1,4.38Zm-2.96,0c0-1.38-.41-2.13-1.14-2.13s-1.15.75-1.15,2.13.4,2.15,1.15,2.15,1.14-.77,1.14-2.15Z"/>
    <path class="cls-2" d="m365.84,392.34l-.28,1.95c-.05.29-.21.39-.45.35-.13-.03-.27-.04-.41-.04-.67,0-1.23.45-1.47,1.15v3.99c0,.27-.17.43-.44.43h-2.01c-.29,0-.43-.17-.43-.43v-7.32c0-.27.15-.42.43-.42h1.89c.27,0,.43.15.43.42v.68c.39-.87,1.08-1.4,1.86-1.4.19,0,.42.04.6.11.24.08.3.29.27.54Z"/>
    <path class="cls-2" d="m375.24,392.34l-.28,1.95c-.05.29-.21.39-.45.35-.13-.03-.27-.04-.41-.04-.67,0-1.23.45-1.47,1.15v3.99c0,.27-.17.43-.44.43h-2.01c-.29,0-.43-.17-.43-.43v-7.32c0-.27.15-.42.43-.42h1.89c.27,0,.43.15.43.42v.68c.39-.87,1.08-1.4,1.86-1.4.19,0,.42.04.6.11.24.08.3.29.27.54Z"/>
    <path class="cls-2" d="m375.32,396.08c0-2.71,1.56-4.38,4.14-4.38,2.36,0,3.74,1.54,3.74,4.11,0,.24-.02.51-.06.78-.03.25-.19.39-.45.39h-4.42c.23.85.83,1.3,1.79,1.3.44,0,.98-.12,1.42-.32.25-.1.44-.06.6.15l.61.84c.15.23.14.44-.07.58-.81.58-2.01.92-3.15.92-2.58,0-4.14-1.65-4.14-4.38Zm5.1-.78c-.01-1-.41-1.59-1.05-1.59s-1.06.54-1.2,1.59h2.25Z"/>
    <path class="cls-2" d="m391.5,394.2v5.54c0,.27-.17.43-.43.43h-2.03c-.27,0-.42-.17-.42-.43v-5.04c0-.48-.22-.75-.6-.75s-.74.29-.96.76v5.03c0,.27-.17.43-.44.43h-2.01c-.29,0-.43-.17-.43-.43v-7.32c0-.27.15-.42.43-.42h1.89c.27,0,.43.15.43.42v.57c.48-.79,1.41-1.29,2.28-1.29,1.38,0,2.28,1.02,2.28,2.5Z"/>
    <path class="cls-2" d="m393.2,397.62v-3.57h-.63c-.27,0-.42-.15-.42-.44v-.88c0-.24.11-.42.34-.5l.29-.06c.27-.11.44-.2.51-.67l.14-.86c.04-.27.21-.39.48-.39h1.75c.27,0,.42.17.42.43v1.3h1.42c.29,0,.44.15.44.42v1.2c0,.29-.15.44-.44.44h-1.42v3.31c0,.6.25.84.72.84.18,0,.38-.04.63-.1.28-.08.48.03.52.31l.18,1.21c.05.27-.1.46-.4.56-.6.18-1.16.27-1.68.27-1.68,0-2.85-.95-2.85-2.83Z"/>
    <path class="cls-2" d="m402.42,395.09c1.16.32,2.7.71,2.7,2.57,0,1.68-1.52,2.8-3.78,2.8-1.14,0-2.34-.34-3.13-.9-.23-.17-.25-.38-.09-.62l.71-.96c.17-.23.36-.25.61-.11.51.29,1.19.46,1.74.46.62,0,.99-.21.99-.52,0-.39-.36-.51-1.09-.71-1.11-.3-2.81-.84-2.81-2.7,0-1.71,1.29-2.71,3.46-2.71.95,0,2.06.29,2.88.75.25.13.29.36.12.6l-.71.96c-.15.24-.34.25-.58.13-.42-.21-.94-.33-1.41-.33-.53,0-.9.21-.9.51,0,.41.42.51,1.29.76Z"/>
    <path class="cls-2" d="m405.7,399.74v-1.96c0-.27.17-.44.44-.44h2.11c.27,0,.44.17.44.44v1.96c0,.27-.17.43-.44.43h-2.11c-.27,0-.44-.17-.44-.43Z"/>
    <path class="cls-2" d="m15.05,416.53v4.39c0,.21-.06.38-.24.51-.87.6-2.26,1.02-3.61,1.02-3.13,0-4.96-2-4.96-5.52s1.97-5.54,5.22-5.54c1.06,0,2.14.36,3,.98.23.15.25.38.09.6l-.8,1.09c-.16.23-.37.25-.61.09-.48-.34-.99-.5-1.5-.5-1.47,0-2.26,1.14-2.26,3.27s.67,3.25,1.96,3.25c.31,0,.65-.06.92-.17v-1.95h-.6c-.27,0-.42-.17-.42-.43v-1.11c0-.27.15-.43.42-.43h2.97c.29,0,.44.17.44.43Z"/>
    <path class="cls-2" d="m21.76,414.34l-.29,1.95c-.04.29-.21.39-.45.35-.13-.03-.27-.04-.4-.04-.67,0-1.23.45-1.47,1.15v3.99c0,.27-.17.43-.44.43h-2.01c-.28,0-.43-.17-.43-.43v-7.32c0-.27.15-.42.43-.42h1.89c.27,0,.44.15.44.42v.68c.39-.87,1.08-1.4,1.86-1.4.19,0,.42.04.6.11.24.08.3.29.27.54Z"/>
    <path class="cls-2" d="m21.83,418.08c0-2.71,1.56-4.38,4.14-4.38,2.35,0,3.73,1.54,3.73,4.11,0,.24-.01.51-.06.78-.03.25-.19.39-.45.39h-4.42c.23.85.82,1.3,1.78,1.3.44,0,.98-.12,1.43-.32.25-.1.44-.06.6.15l.62.84c.15.23.13.44-.08.58-.81.58-2.01.92-3.15.92-2.58,0-4.14-1.65-4.14-4.38Zm5.1-.78c-.01-1-.4-1.59-1.05-1.59s-1.06.54-1.2,1.59h2.25Z"/>
    <path class="cls-2" d="m37.58,416.46v5.28c0,.27-.15.43-.44.43h-1.77c-.27,0-.42-.17-.42-.43v-.24c-.58.6-1.46.96-2.25.96-1.44,0-2.4-1.04-2.4-2.58s1.27-2.58,3.18-2.58h1.29v-.46c0-.67-.44-.96-1.3-.96-.41,0-.9.11-1.31.29-.24.12-.44.09-.6-.13l-.69-.96c-.17-.24-.12-.46.12-.6.85-.47,2-.77,2.97-.77,2.37,0,3.62.95,3.62,2.76Zm-2.81,2.24h-.82c-.53,0-.83.33-.83.93,0,.5.27.79.71.79.38,0,.72-.21.94-.58v-1.14Z"/>
    <path class="cls-2" d="m39.28,419.62v-3.57h-.63c-.27,0-.42-.15-.42-.44v-.88c0-.24.1-.42.35-.5l.28-.06c.27-.11.44-.2.51-.67l.13-.86c.04-.27.21-.39.48-.39h1.75c.27,0,.42.17.42.43v1.3h1.43c.28,0,.44.15.44.42v1.2c0,.29-.15.44-.44.44h-1.43v3.31c0,.6.26.84.72.84.18,0,.38-.04.63-.1.29-.08.48.03.52.31l.18,1.21c.04.27-.1.46-.4.56-.6.18-1.16.27-1.68.27-1.68,0-2.85-.95-2.85-2.83Z"/>
    <path class="cls-2" d="m44.39,418.08c0-2.71,1.56-4.38,4.14-4.38,2.35,0,3.73,1.54,3.73,4.11,0,.24-.01.51-.06.78-.03.25-.19.39-.45.39h-4.42c.23.85.82,1.3,1.78,1.3.44,0,.98-.12,1.43-.32.25-.1.44-.06.6.15l.62.84c.15.23.13.44-.08.58-.81.58-2.01.92-3.15.92-2.58,0-4.14-1.65-4.14-4.38Zm5.1-.78c-.01-1-.4-1.59-1.05-1.59s-1.06.54-1.2,1.59h2.25Z"/>
    <path class="cls-2" d="m58.75,414.34l-.29,1.95c-.04.29-.21.39-.45.35-.13-.03-.27-.04-.4-.04-.67,0-1.23.45-1.47,1.15v3.99c0,.27-.17.43-.44.43h-2.01c-.28,0-.43-.17-.43-.43v-7.32c0-.27.15-.42.43-.42h1.89c.27,0,.44.15.44.42v.68c.39-.87,1.08-1.4,1.86-1.4.19,0,.42.04.6.11.24.08.3.29.27.54Z"/>
    <path class="cls-2" d="m62.69,421.74v-9.62c0-.27.17-.43.44-.43h2.97c.27,0,.42.12.5.38l2.08,7.68h.04c-.12-1.11-.27-2.71-.29-3.87v-3.75c0-.27.17-.43.44-.43h1.79c.28,0,.44.17.44.43v9.62c0,.27-.15.43-.44.43h-3.03c-.26,0-.42-.12-.48-.36l-1.94-7h-.04c.1.94.17,2.42.18,3.36v3.57c0,.27-.17.43-.44.43h-1.78c-.27,0-.44-.17-.44-.43Z"/>
    <path class="cls-2" d="m72.16,418.08c0-2.71,1.56-4.38,4.14-4.38,2.35,0,3.73,1.54,3.73,4.11,0,.24-.01.51-.06.78-.03.25-.19.39-.45.39h-4.42c.23.85.82,1.3,1.78,1.3.44,0,.98-.12,1.43-.32.25-.1.44-.06.6.15l.62.84c.15.23.13.44-.08.58-.81.58-2.01.92-3.15.92-2.58,0-4.14-1.65-4.14-4.38Zm5.1-.78c-.01-1-.4-1.59-1.05-1.59s-1.06.54-1.2,1.59h2.25Z"/>
    <path class="cls-2" d="m81.94,421.78l-1.54-7.32c-.06-.29.08-.47.38-.47h2.06c.27,0,.42.15.45.41l.6,4.75h.04l.79-4.77c.05-.27.21-.39.47-.39h2.07c.25,0,.44.14.46.39l.75,4.74h.04l.58-4.72c.03-.25.18-.41.45-.41h2.04c.3,0,.45.18.39.47l-1.5,7.32c-.04.25-.19.39-.45.39h-2.49c-.26,0-.42-.12-.47-.39l-.84-4.5h-.04l-.79,4.5c-.04.27-.21.39-.46.39h-2.52c-.25,0-.41-.15-.47-.39Z"/>
    <path class="cls-2" d="m92.23,418.08c0-2.64,1.67-4.38,4.14-4.38.95,0,1.89.29,2.55.75.22.18.25.38.09.62l-.79,1.11c-.17.21-.36.21-.6.08-.25-.15-.54-.21-.83-.21-1.03,0-1.56.67-1.56,2.04s.51,2.05,1.57,2.05c.27,0,.57-.09.83-.22.25-.15.44-.15.6.08l.8,1.11c.16.23.16.42-.03.57-.67.5-1.63.79-2.62.79-2.5,0-4.14-1.72-4.14-4.38Z"/>
    <path class="cls-2" d="m106.55,416.46v5.28c0,.27-.15.43-.44.43h-1.77c-.27,0-.42-.17-.42-.43v-.24c-.58.6-1.46.96-2.25.96-1.44,0-2.4-1.04-2.4-2.58s1.27-2.58,3.18-2.58h1.29v-.46c0-.67-.44-.96-1.3-.96-.41,0-.9.11-1.31.29-.24.12-.44.09-.6-.13l-.69-.96c-.17-.24-.12-.46.12-.6.85-.47,2-.77,2.97-.77,2.37,0,3.62.95,3.62,2.76Zm-2.81,2.24h-.82c-.53,0-.83.33-.83.93,0,.5.27.79.71.79.38,0,.72-.21.94-.58v-1.14Z"/>
    <path class="cls-2" d="m111.49,417.09c1.15.32,2.7.71,2.7,2.57,0,1.68-1.51,2.8-3.78,2.8-1.14,0-2.34-.34-3.13-.9-.23-.17-.25-.38-.09-.62l.71-.96c.17-.23.36-.25.62-.11.51.29,1.18.46,1.74.46.62,0,.99-.21.99-.52,0-.39-.36-.51-1.09-.71-1.11-.3-2.8-.84-2.8-2.7,0-1.71,1.29-2.71,3.46-2.71.94,0,2.05.29,2.88.75.25.13.28.36.12.6l-.7.96c-.15.24-.35.25-.58.13-.42-.21-.95-.33-1.41-.33-.52,0-.9.21-.9.51,0,.41.42.51,1.29.76Z"/>
    <path class="cls-2" d="m115.52,419.62v-3.57h-.63c-.27,0-.42-.15-.42-.44v-.88c0-.24.1-.42.35-.5l.28-.06c.27-.11.44-.2.51-.67l.13-.86c.04-.27.21-.39.48-.39h1.75c.27,0,.42.17.42.43v1.3h1.43c.28,0,.44.15.44.42v1.2c0,.29-.15.44-.44.44h-1.43v3.31c0,.6.26.84.72.84.18,0,.38-.04.63-.1.29-.08.48.03.52.31l.18,1.21c.04.27-.1.46-.4.56-.6.18-1.16.27-1.68.27-1.68,0-2.85-.95-2.85-2.83Z"/>
    <path class="cls-2" d="m121.01,421.74v-10.35c0-.27.15-.44.44-.44h2.01c.29,0,.44.17.44.44v10.35c0,.27-.15.43-.44.43h-2.01c-.29,0-.44-.17-.44-.43Z"/>
    <path class="cls-2" d="m124.87,418.08c0-2.71,1.56-4.38,4.14-4.38,2.35,0,3.73,1.54,3.73,4.11,0,.24-.01.51-.06.78-.03.25-.19.39-.45.39h-4.42c.23.85.82,1.3,1.78,1.3.44,0,.98-.12,1.43-.32.25-.1.44-.06.6.15l.62.84c.15.23.13.44-.08.58-.81.58-2.01.92-3.15.92-2.58,0-4.14-1.65-4.14-4.38Zm5.1-.78c-.01-1-.4-1.59-1.05-1.59s-1.06.54-1.2,1.59h2.25Z"/>
    <path class="cls-2" d="m142.56,414.34l-.29,1.95c-.04.29-.21.39-.45.35-.13-.03-.27-.04-.4-.04-.67,0-1.23.45-1.47,1.15v3.99c0,.27-.17.43-.44.43h-2.01c-.28,0-.43-.17-.43-.43v-7.32c0-.27.15-.42.43-.42h1.89c.27,0,.44.15.44.42v.68c.39-.87,1.08-1.4,1.86-1.4.19,0,.42.04.6.11.24.08.3.29.27.54Z"/>
    <path class="cls-2" d="m142.64,418.08c0-2.71,1.56-4.38,4.14-4.38,2.35,0,3.73,1.54,3.73,4.11,0,.24-.01.51-.06.78-.03.25-.19.39-.45.39h-4.42c.23.85.82,1.3,1.78,1.3.44,0,.98-.12,1.43-.32.25-.1.43-.06.6.15l.62.84c.15.23.13.44-.08.58-.81.58-2.01.92-3.15.92-2.58,0-4.14-1.65-4.14-4.38Zm5.1-.78c-.01-1-.4-1.59-1.05-1.59s-1.06.54-1.2,1.59h2.25Z"/>
    <path class="cls-2" d="m152.27,425.23c-.22-.11-.28-.3-.25-.54l.18-1.21c.04-.3.24-.41.54-.29.75.3,1.53.51,2.11.51.93,0,1.47-.38,1.47-1.42v-.79c-.51.61-1.36.97-2.26.97-1.75,0-2.83-1.65-2.83-4.38s1.21-4.36,3.22-4.36c.78,0,1.56.39,2.08,1v-.3c0-.27.15-.42.42-.42h1.81c.28,0,.43.15.43.42v7.68c0,2.48-1.42,3.75-4.15,3.75-.97,0-2.04-.24-2.77-.61Zm4.05-5.79v-2.73c-.25-.48-.65-.78-1.09-.78-.67,0-1.05.76-1.05,2.17s.36,2.12,1.02,2.12c.47,0,.87-.27,1.12-.78Z"/>
    <path class="cls-2" d="m160.52,412.63v-1.25c0-.27.15-.44.44-.44h2.06c.27,0,.43.17.43.44v1.25c0,.29-.17.43-.43.43h-2.06c-.29,0-.44-.15-.44-.43Zm.02,9.1v-7.32c0-.27.17-.42.43-.42h2.02c.27,0,.42.15.42.42v7.32c0,.27-.15.43-.42.43h-2.02c-.27,0-.43-.17-.43-.43Z"/>
    <path class="cls-2" d="m172.67,418.08c0,2.73-1.54,4.38-4.1,4.38s-4.11-1.65-4.11-4.38,1.54-4.38,4.11-4.38,4.1,1.67,4.1,4.38Zm-2.96,0c0-1.38-.41-2.13-1.14-2.13s-1.15.75-1.15,2.13.4,2.15,1.15,2.15,1.14-.77,1.14-2.15Z"/>
    <path class="cls-2" d="m181.02,416.2v5.54c0,.27-.17.43-.43.43h-2.03c-.27,0-.42-.17-.42-.43v-5.04c0-.48-.22-.75-.6-.75s-.74.29-.96.76v5.03c0,.27-.17.43-.44.43h-2.01c-.29,0-.43-.17-.43-.43v-7.32c0-.27.15-.42.43-.42h1.89c.27,0,.43.15.43.42v.57c.48-.79,1.41-1.29,2.28-1.29,1.38,0,2.28,1.02,2.28,2.5Z"/>
    <path class="cls-2" d="m181.97,421.74v-1.96c0-.27.17-.44.44-.44h2.11c.27,0,.44.17.44.44v1.96c0,.27-.17.43-.44.43h-2.11c-.27,0-.44-.17-.44-.43Z"/>
  </g>
  <g>
    <path class="cls-2" d="m170.33,18.7v18.59c0,.52-.29.84-.81.84h-4.15c-.52,0-.84-.32-.84-.84v-7.54h-4.81v7.54c0,.52-.32.84-.84.84h-4.12c-.52,0-.84-.32-.84-.84v-18.59c0-.52.32-.84.84-.84h4.12c.52,0,.84.32.84.84v6.73h4.81v-6.73c0-.52.32-.84.84-.84h4.15c.52,0,.81.32.81.84Z"/>
    <path class="cls-2" d="m188.26,30.22c0,5.28-2.99,8.47-7.92,8.47s-7.95-3.19-7.95-8.47,2.99-8.47,7.95-8.47,7.92,3.22,7.92,8.47Zm-5.71,0c0-2.67-.78-4.12-2.2-4.12s-2.23,1.45-2.23,4.12.78,4.15,2.23,4.15,2.2-1.48,2.2-4.15Z"/>
    <path class="cls-2" d="m204.12,23.14v14.16c0,.52-.32.84-.84.84h-3.51c-.52,0-.84-.32-.84-.84v-1.07c-.96,1.57-2.73,2.47-4.41,2.47-2.67,0-4.38-1.91-4.38-4.82v-10.73c0-.52.29-.81.84-.81h3.89c.55,0,.84.29.84.81v9.75c0,.99.41,1.51,1.13,1.51.67,0,1.28-.44,1.68-1.22v-10.04c0-.52.32-.81.84-.81h3.92c.52,0,.84.29.84.81Z"/>
    <path class="cls-2" d="m213.74,28.3c2.23.61,5.22,1.36,5.22,4.96,0,3.25-2.93,5.42-7.31,5.42-2.21,0-4.53-.67-6.06-1.74-.44-.32-.49-.73-.17-1.19l1.36-1.86c.32-.44.7-.49,1.19-.2.99.55,2.29.9,3.37.9,1.19,0,1.91-.41,1.91-1.02,0-.75-.7-.99-2.12-1.36-2.15-.58-5.42-1.62-5.42-5.22,0-3.31,2.5-5.25,6.7-5.25,1.83,0,3.97.55,5.57,1.45.49.26.55.7.23,1.16l-1.36,1.86c-.29.46-.67.49-1.13.26-.81-.41-1.83-.64-2.73-.64-1.02,0-1.74.41-1.74.99,0,.78.81.99,2.49,1.48Z"/>
    <path class="cls-2" d="m220.67,19.69v-2.41c0-.52.29-.84.84-.84h3.97c.52,0,.84.32.84.84v2.41c0,.55-.32.84-.84.84h-3.97c-.55,0-.84-.29-.84-.84Zm.03,17.61v-14.16c0-.52.32-.81.84-.81h3.92c.52,0,.81.29.81.81v14.16c0,.52-.29.84-.81.84h-3.92c-.52,0-.84-.32-.84-.84Z"/>
    <path class="cls-2" d="m243.01,26.59v10.7c0,.52-.32.84-.84.84h-3.92c-.52,0-.81-.32-.81-.84v-9.75c0-.93-.43-1.45-1.16-1.45s-1.42.55-1.86,1.48v9.72c0,.52-.32.84-.84.84h-3.89c-.55,0-.84-.32-.84-.84v-14.16c0-.52.29-.81.84-.81h3.66c.52,0,.84.29.84.81v1.1c.93-1.54,2.73-2.49,4.41-2.49,2.67,0,4.41,1.97,4.41,4.84Z"/>
    <path class="cls-2" d="m246.92,44.06c-.44-.2-.55-.58-.49-1.04l.35-2.35c.09-.58.46-.78,1.04-.55,1.45.58,2.96.99,4.09.99,1.8,0,2.84-.73,2.84-2.76v-1.54c-.99,1.19-2.64,1.89-4.38,1.89-3.39,0-5.48-3.19-5.48-8.47s2.35-8.44,6.24-8.44c1.51,0,3.02.75,4.03,1.94v-.58c0-.52.29-.81.81-.81h3.51c.55,0,.84.29.84.81v14.85c0,4.79-2.76,7.25-8.04,7.25-1.89,0-3.95-.46-5.37-1.19Zm7.83-11.2v-5.28c-.49-.93-1.25-1.51-2.12-1.51-1.3,0-2.03,1.48-2.03,4.21s.7,4.09,1.97,4.09c.9,0,1.68-.52,2.18-1.51Z"/>
  </g>
</svg>