<?xml version="1.0" encoding="UTF-8"?>
<svg id="Layer_1" data-name="Layer 1" xmlns="http://www.w3.org/2000/svg" xmlns:xlink="http://www.w3.org/1999/xlink" viewBox="0 0 430.06 430.07">
  <defs>
    <style>
      .cls-1 {
        fill: #5c0726;
      }

      .cls-1, .cls-2, .cls-3, .cls-4, .cls-5, .cls-6, .cls-7, .cls-8 {
        stroke-width: 0px;
      }

      .cls-9 {
        clip-path: url(#clippath-2);
      }

      .cls-2 {
        fill-rule: evenodd;
      }

      .cls-2, .cls-8 {
        fill: #5c0425;
      }

      .cls-3 {
        clip-path: url(#clippath);
      }

      .cls-3, .cls-4, .cls-5, .cls-7 {
        fill: none;
      }

      .cls-10 {
        clip-path: url(#clippath-7);
      }

      .cls-11 {
        clip-path: url(#clippath-1);
      }

      .cls-12 {
        clip-path: url(#clippath-4);
      }

      .cls-5 {
        clip-path: url(#clippath-6);
      }

      .cls-13 {
        clip-path: url(#clippath-8);
      }

      .cls-6 {
        fill: #edc8bd;
      }

      .cls-7 {
        clip-path: url(#clippath-3);
      }

      .cls-14 {
        clip-path: url(#clippath-5);
      }
    </style>
    <clipPath id="clippath">
      <polygon class="cls-4" points="22.32 430.07 128.28 430.07 128.28 324.11 22.32 324.11 22.32 430.07 22.32 430.07"/>
    </clipPath>
    <clipPath id="clippath-1">
      <polygon class="cls-3" points="22.32 324.11 128.28 324.11 128.28 430.07 22.32 430.07 22.32 324.11 22.32 324.11"/>
    </clipPath>
    <clipPath id="clippath-2">
      <polygon class="cls-4" points="22.32 430.07 128.28 430.07 128.28 324.11 22.32 324.11 22.32 430.07 22.32 430.07"/>
    </clipPath>
    <clipPath id="clippath-3">
      <polygon class="cls-4" points="160.05 429.95 265.77 429.95 265.77 324.23 160.05 324.23 160.05 429.95 160.05 429.95"/>
    </clipPath>
    <clipPath id="clippath-4">
      <polygon class="cls-7" points="160.05 324.23 265.77 324.23 265.77 429.95 160.05 429.95 160.05 324.23 160.05 324.23"/>
    </clipPath>
    <clipPath id="clippath-5">
      <polygon class="cls-4" points="160.05 429.95 265.77 429.95 265.77 324.23 160.05 324.23 160.05 429.95 160.05 429.95"/>
    </clipPath>
    <clipPath id="clippath-6">
      <polygon class="cls-4" points="297.53 429.95 403.25 429.95 403.25 324.23 297.53 324.23 297.53 429.95 297.53 429.95"/>
    </clipPath>
    <clipPath id="clippath-7">
      <polygon class="cls-5" points="297.53 324.23 403.25 324.23 403.25 429.95 297.53 429.95 297.53 324.23 297.53 324.23"/>
    </clipPath>
    <clipPath id="clippath-8">
      <polygon class="cls-4" points="297.53 429.95 403.25 429.95 403.25 324.23 297.53 324.23 297.53 429.95 297.53 429.95"/>
    </clipPath>
  </defs>
  <rect class="cls-6" width="430.06" height="430.06"/>
  <polygon class="cls-2" points="197.9 212.17 204.79 212.17 204.79 153.97 225.34 153.97 225.34 212.17 232.22 212.17 215.06 229.33 197.9 212.17 197.9 212.17"/>
  <g class="cls-11">
    <g class="cls-9">
      <path class="cls-2" d="m90.89,393.06c1.53.35,4.69,5.46,4.69,5.46,0,0,1,.59,14.78,5.69,12.44,3.87,16.31,12.73,17.36,19.07,1.41,4.87-1.06,6.75-5.69,6.75H34.51c-4.52,0-6.57-1.88-6.1-6.34,1-6.22,4.63-15.55,17.31-19.48,13.55-5.1,14.55-5.69,14.55-5.69,0,0,3.23-5.1,4.63-5.46,1.53-.29.29-2.35,0-2.87-1.23-2.87-3.7-5.16-4.58-9.68-.88-4.46-1.06-8.15-1.47-14.26.12-1.17-.23-2.82-.59-5.34-1.11.47-2.17,1.17-3.05,2.29-4.4-13.85,9.86-24.87,11.26-25.11,2.99-1.7,6.69-2.82,11.03-2.93h.65c.76,0,1.47.12,2.17.18h0c-.59-2.11-10.03-2.52-12.2,1.41.23-5.93,7.45-6.75,9.56-6.75,24.4,0,26.93,21.71,26.93,38.49s9.86,22.7,9.86,22.7c-10.44-.94-20.36-3.4-20.24-5.1v-4.58c3.05-1.7,5.34-5.63,5.34-5.63,0,0-.82.29-2.05.41-.88,2.93-2.7,3.87-3.64,3.87-1.23,0-.94.18-.94,2.58,0,7.39-1.88,6.81-2.17,7.39-.18.53-1.47,2.58,0,2.87h0l.12.06h0Z"/>
    </g>
  </g>
  <g class="cls-12">
    <g class="cls-14">
      <path class="cls-2" d="m259.66,429.9h-87.8c-4.16,0-6.03-2.17-5.68-6.26.94-6.56,4.57-16.39,17.5-20.6,13.75-5.33,14.81-5.85,14.81-5.85,0,0,3.16-5.33,4.68-5.68,1.52-.35.23-2.46,0-2.99-.23-.64-2.11,0-2.11-7.67,0-2.52.35-2.75-.94-2.75s-4.1-1.76-4.1-7.9,0-6.44,1.05-6.61c.18-2.34-1.11-6.15-1.11-14.75s6.79-16.68,19.84-16.68c3.8,0,7.02-1.81,10.59-2.05.47,1.11,1,2.99,1.76,3.45,2.69,1.81,6.38,6.32,7.67,15.28,0,8.6-1.35,12.41-1.17,14.75,1.05.18,1.05.41,1.05,6.61s-2.87,7.9-4.1,7.9-.94.18-.94,2.75c0,7.67-1.87,7.08-2.11,7.67-.23.59-1.46,2.69,0,2.99,1.46.35,4.68,5.68,4.68,5.68,0,0,1,.59,14.69,5.85,13.05,4.27,16.62,14.22,17.5,20.78.23,4.21-1.05,6.09-5.85,6.09h.09Z"/>
    </g>
  </g>
  <g class="cls-10">
    <g class="cls-13">
      <path class="cls-2" d="m365.41,392.02c1.46.29,4.8,5.56,4.8,5.56,0,0,.99.59,15.03,5.79,13.22,4.15,16.91,13.86,17.84,20.3.64,5.03-1.05,6.2-5.73,6.2h-88.1c-3.22,0-6.26-1.35-5.79-6.2.94-6.43,4.5-16.15,17.14-20.3,13.51-5.21,14.45-5.79,14.45-5.79,0,0,3.16-5.26,4.62-5.56,1.46-.35.23-2.4,0-2.98-.18-.47-1.35-.23-1.87-3.57-1.81,2.57-6.49,2.28-19.89,2.11,12.05-4.86,9.24-11.29,12.23-35.51,2.81-21.88,19.01-22.11,22.11-21.94,3.28-.18,20.18,0,23.05,21.94,3.16,24.22.18,30.65,12.75,35.51-13.98.18-18.84.47-20.71-2.11-.58,3.33-1.75,3.1-1.93,3.57-.23.59-1.52,2.63,0,2.98h0Z"/>
    </g>
  </g>
  <g>
    <path class="cls-1" d="m181.49,107.84v-4.29h-10.02c-.74,0-1.13-.39-1.13-1.13v-3.04c0-.51.08-.9.27-1.36l6.59-15.45c.27-.55.66-.86,1.33-.86h4.99c.82,0,1.21.51.86,1.33l-6.4,14.98h3.51l.94-3.55c.2-.62.58-.94,1.25-.94h3.9c.7,0,1.09.43,1.09,1.13v3.32h2.03c.74,0,1.13.43,1.13,1.13v3.31c0,.74-.39,1.13-1.13,1.13h-2.03v4.29c0,.7-.39,1.13-1.09,1.13h-4.95c-.74,0-1.13-.43-1.13-1.13Z"/>
    <path class="cls-1" d="m193.31,107.84v-5.11c0-.7.43-1.13,1.13-1.13h5.5c.7,0,1.13.43,1.13,1.13v5.11c0,.7-.43,1.13-1.13,1.13h-5.5c-.7,0-1.13-.43-1.13-1.13Z"/>
    <path class="cls-1" d="m224.51,95.36c0,9.32-3.71,14.35-10.73,14.35s-10.73-5.03-10.73-14.35,3.71-14.39,10.73-14.39,10.73,5.03,10.73,14.39Zm-7.64,0c0-6.04-.9-8.42-3.08-8.42s-3.08,2.38-3.08,8.42.9,8.38,3.08,8.38,3.08-2.38,3.08-8.38Z"/>
    <path class="cls-1" d="m226.46,88.53c0-4.49,2.73-7.22,7.22-7.22s7.21,2.73,7.21,7.22-2.73,7.21-7.21,7.21-7.22-2.77-7.22-7.21Zm9.52,20.44h-3.67c-.9,0-1.21-.58-.7-1.37l17.28-25.19c.31-.51.74-.7,1.33-.7h3.67c.9,0,1.25.58.7,1.37l-17.24,25.19c-.35.51-.78.7-1.37.7Zm-.31-20.44c0-1.91-.7-2.96-1.99-2.96s-1.99,1.05-1.99,2.96.7,2.92,1.99,2.92,1.99-1.05,1.99-2.92Zm9.59,13.61c0-4.49,2.73-7.22,7.22-7.22s7.21,2.73,7.21,7.22-2.73,7.25-7.21,7.25-7.22-2.77-7.22-7.25Zm9.2,0c0-1.87-.7-2.92-1.99-2.92s-1.99,1.05-1.99,2.92.7,2.96,1.99,2.96,1.99-1.05,1.99-2.96Z"/>
    <path class="cls-1" d="m159.1,120.79v-1.33c0-.29.16-.46.46-.46h2.19c.29,0,.46.18.46.46v1.33c0,.3-.18.46-.46.46h-2.19c-.3,0-.46-.16-.46-.46Zm.02,9.72v-7.81c0-.29.18-.45.46-.45h2.16c.29,0,.45.16.45.45v7.81c0,.29-.16.46-.45.46h-2.16c-.29,0-.46-.18-.46-.46Z"/>
    <path class="cls-1" d="m171.43,124.6v5.91c0,.29-.18.46-.46.46h-2.16c-.29,0-.45-.18-.45-.46v-5.38c0-.51-.24-.8-.64-.8s-.78.3-1.02.82v5.36c0,.29-.18.46-.46.46h-2.14c-.3,0-.46-.18-.46-.46v-7.81c0-.29.16-.45.46-.45h2.02c.29,0,.46.16.46.45v.61c.51-.85,1.5-1.38,2.43-1.38,1.47,0,2.43,1.09,2.43,2.67Z"/>
    <path class="cls-1" d="m175.85,130.43c-.22-.19-.22-.42-.06-.64l.88-1.3c.18-.24.4-.26.66-.08.29.21.61.32.88.32.69,0,1.02-.48,1.02-1.28v-5.23h-2.29c-.29,0-.45-.16-.45-.46v-1.5c0-.29.16-.46.45-.46h5.03c.29,0,.46.18.46.46l-.02,7.11c-.02,2.35-1.58,3.92-3.92,3.92-.96,0-1.97-.34-2.64-.85Z"/>
    <path class="cls-1" d="m191.17,124.87v5.63c0,.29-.16.46-.46.46h-1.89c-.29,0-.45-.18-.45-.46v-.26c-.62.64-1.55,1.02-2.4,1.02-1.54,0-2.56-1.1-2.56-2.75s1.36-2.75,3.39-2.75h1.38v-.5c0-.72-.46-1.02-1.39-1.02-.43,0-.96.11-1.39.3-.26.13-.46.1-.64-.14l-.74-1.02c-.18-.26-.13-.5.13-.64.91-.5,2.13-.82,3.17-.82,2.53,0,3.86,1.01,3.86,2.95Zm-2.99,2.38h-.88c-.56,0-.88.35-.88.99,0,.53.29.85.75.85.4,0,.77-.22,1.01-.62v-1.22Z"/>
    <path class="cls-1" d="m200.32,124.6v5.91c0,.29-.18.46-.46.46h-2.16c-.29,0-.45-.18-.45-.46v-5.38c0-.51-.24-.8-.64-.8s-.78.3-1.02.82v5.36c0,.29-.18.46-.46.46h-2.14c-.3,0-.46-.18-.46-.46v-7.81c0-.29.16-.45.46-.45h2.02c.29,0,.46.16.46.45v.61c.51-.85,1.5-1.38,2.43-1.38,1.47,0,2.43,1.09,2.43,2.67Z"/>
    <path class="cls-1" d="m209.31,122.69v7.81c0,.29-.18.46-.46.46h-1.94c-.29,0-.46-.18-.46-.46v-.59c-.53.86-1.5,1.36-2.43,1.36-1.47,0-2.42-1.06-2.42-2.66v-5.92c0-.29.16-.45.46-.45h2.15c.3,0,.46.16.46.45v5.38c0,.54.22.83.62.83.37,0,.7-.24.93-.67v-5.54c0-.29.18-.45.46-.45h2.16c.29,0,.46.16.46.45Z"/>
    <path class="cls-1" d="m218.05,124.87v5.63c0,.29-.16.46-.46.46h-1.89c-.29,0-.45-.18-.45-.46v-.26c-.62.64-1.55,1.02-2.4,1.02-1.54,0-2.56-1.1-2.56-2.75s1.36-2.75,3.39-2.75h1.38v-.5c0-.72-.46-1.02-1.39-1.02-.43,0-.96.11-1.39.3-.26.13-.46.1-.64-.14l-.74-1.02c-.18-.26-.13-.5.13-.64.91-.5,2.13-.82,3.17-.82,2.53,0,3.86,1.01,3.86,2.95Zm-2.99,2.38h-.88c-.56,0-.88.35-.88.99,0,.53.29.85.75.85.4,0,.77-.22,1.01-.62v-1.22Z"/>
    <path class="cls-1" d="m225.25,122.61l-.3,2.08c-.05.3-.22.42-.48.37-.14-.03-.29-.05-.43-.05-.72,0-1.31.48-1.57,1.23v4.26c0,.29-.18.46-.46.46h-2.15c-.3,0-.46-.18-.46-.46v-7.81c0-.29.16-.45.46-.45h2.02c.29,0,.46.16.46.45v.72c.42-.93,1.15-1.49,1.98-1.49.21,0,.45.05.64.11.26.08.32.3.29.58Z"/>
    <path class="cls-1" d="m233.89,122.76l-2.61,8.58c-.67,2.26-2.22,3.36-5.01,3.54-.29.02-.46-.13-.51-.42l-.18-1.2c-.06-.29.1-.46.4-.51,1.68-.22,2.38-.75,2.62-1.78h-.74c-.26,0-.45-.13-.53-.4l-2.22-7.81c-.08-.3.06-.51.4-.51h2.29c.27,0,.43.11.5.4l1.12,5.7,1.3-5.7c.06-.27.24-.4.51-.4h2.27c.32,0,.48.21.38.51Z"/>
    <path class="cls-1" d="m245.01,129.13v1.38c0,.29-.18.46-.46.46h-6.63c-.29,0-.46-.18-.46-.46v-1.31c0-.24.08-.4.24-.58,1.7-1.65,4.15-3.75,4.15-5.55,0-.72-.45-1.2-1.1-1.2-.58,0-1.3.32-1.94.88-.24.19-.46.19-.66-.05l-.8-.96c-.18-.21-.19-.43-.02-.64,1.01-1.14,2.4-1.62,3.68-1.62,2.37,0,3.95,1.26,3.95,3.18s-1.28,3.68-3.65,6h3.23c.29,0,.46.16.46.46Z"/>
    <path class="cls-1" d="m254.74,125.38c0,3.83-1.52,5.89-4.4,5.89s-4.4-2.06-4.4-5.89,1.52-5.91,4.4-5.91,4.4,2.06,4.4,5.91Zm-3.14,0c0-2.48-.37-3.46-1.26-3.46s-1.26.98-1.26,3.46.37,3.44,1.26,3.44,1.26-.98,1.26-3.44Z"/>
    <path class="cls-1" d="m262.93,129.13v1.38c0,.29-.18.46-.46.46h-6.63c-.29,0-.46-.18-.46-.46v-1.31c0-.24.08-.4.24-.58,1.7-1.65,4.15-3.75,4.15-5.55,0-.72-.45-1.2-1.1-1.2-.58,0-1.3.32-1.94.88-.24.19-.46.19-.66-.05l-.8-.96c-.18-.21-.19-.43-.02-.64,1.01-1.14,2.4-1.62,3.68-1.62,2.37,0,3.95,1.26,3.95,3.18s-1.28,3.68-3.65,6h3.23c.29,0,.46.16.46.46Z"/>
    <path class="cls-1" d="m263.52,130.15c-.22-.18-.24-.42-.05-.64l.88-1.06c.18-.24.4-.24.66-.06.51.37,1.15.59,1.73.59.83,0,1.44-.43,1.44-1.34s-.62-1.41-1.75-1.41h-.62c-.29,0-.48-.16-.48-.46v-.43c0-.24.05-.4.21-.56l2.27-2.69h-3.59c-.29,0-.45-.16-.45-.46v-1.38c0-.29.16-.46.45-.46h6.43c.29,0,.45.18.45.46v1.17c0,.24-.06.4-.21.58l-2.32,2.75c1.76.27,2.74,1.39,2.74,3.09,0,2.18-1.82,3.44-4.1,3.44-1.39,0-2.75-.42-3.7-1.12Z"/>
  </g>
  <g>
    <path class="cls-1" d="m189.97,274.66v3.35c0,.7-.43,1.13-1.13,1.13h-16.15c-.7,0-1.13-.43-1.13-1.13v-3.2c0-.58.2-.98.58-1.4,4.13-4.02,10.1-9.13,10.1-13.53,0-1.75-1.09-2.92-2.69-2.92-1.4,0-3.16.78-4.72,2.14-.58.47-1.13.47-1.6-.12l-1.95-2.34c-.43-.51-.47-1.05-.04-1.56,2.46-2.77,5.85-3.94,8.97-3.94,5.77,0,9.63,3.08,9.63,7.76s-3.12,8.97-8.89,14.63h7.88c.7,0,1.13.39,1.13,1.13Z"/>
    <path class="cls-1" d="m192.04,278.01v-5.11c0-.7.43-1.13,1.13-1.13h5.5c.7,0,1.13.43,1.13,1.13v5.11c0,.7-.43,1.13-1.13,1.13h-5.5c-.7,0-1.13-.43-1.13-1.13Z"/>
    <path class="cls-1" d="m201.55,272.09c0-2.81,1.83-5.26,4.88-6.55-2.18-1.33-3.86-3.16-3.86-6.36,0-4.99,3.71-8.03,9.83-8.03s9.79,2.89,9.79,7.61c0,2.61-1.6,4.88-4.29,6.24,2.81,1.21,5.27,2.92,5.27,6.98,0,4.76-4.33,7.92-10.88,7.92s-10.73-3.12-10.73-7.8Zm14.16-.31c0-2.11-2.15-3-4.68-4.1-1.33.98-1.99,2.26-1.99,3.78,0,2.07,1.25,3.2,3.35,3.2s3.32-1.05,3.32-2.89Zm-.82-12.6c0-1.83-.94-2.85-2.5-2.85s-2.54,1.05-2.54,2.89c0,1.95,1.33,3,3.08,3.78,1.29-.9,1.95-2.18,1.95-3.82Z"/>
    <path class="cls-1" d="m224.88,258.71c0-4.49,2.73-7.22,7.21-7.22s7.22,2.73,7.22,7.22-2.73,7.21-7.22,7.21-7.21-2.77-7.21-7.21Zm9.52,20.44h-3.67c-.9,0-1.21-.58-.7-1.37l17.28-25.19c.31-.51.74-.7,1.33-.7h3.67c.9,0,1.25.58.7,1.37l-17.24,25.19c-.35.51-.78.7-1.36.7Zm-.31-20.44c0-1.91-.7-2.96-1.99-2.96s-1.99,1.05-1.99,2.96.7,2.92,1.99,2.92,1.99-1.05,1.99-2.92Zm9.59,13.61c0-4.49,2.73-7.22,7.21-7.22s7.22,2.73,7.22,7.22-2.73,7.25-7.22,7.25-7.21-2.77-7.21-7.25Zm9.2,0c0-1.87-.7-2.92-1.99-2.92s-1.99,1.05-1.99,2.92.7,2.96,1.99,2.96,1.99-1.05,1.99-2.96Z"/>
    <path class="cls-1" d="m150.73,290.97v-1.33c0-.29.16-.46.46-.46h2.19c.29,0,.46.18.46.46v1.33c0,.3-.18.46-.46.46h-2.19c-.3,0-.46-.16-.46-.46Zm.02,9.72v-7.81c0-.29.18-.45.46-.45h2.16c.29,0,.45.16.45.45v7.81c0,.29-.16.46-.45.46h-2.16c-.29,0-.46-.18-.46-.46Z"/>
    <path class="cls-1" d="m163.06,294.78v5.91c0,.29-.18.46-.46.46h-2.16c-.29,0-.45-.18-.45-.46v-5.38c0-.51-.24-.8-.64-.8s-.78.3-1.02.82v5.36c0,.29-.18.46-.46.46h-2.14c-.3,0-.46-.18-.46-.46v-7.81c0-.29.16-.45.46-.45h2.02c.29,0,.46.16.46.45v.61c.51-.85,1.5-1.38,2.43-1.38,1.47,0,2.43,1.09,2.43,2.67Z"/>
    <path class="cls-1" d="m168.46,301.15c-.29,0-.46-.18-.46-.46v-10.26c0-.29.18-.46.46-.46h3.47c3.57,0,5.44,1.92,5.44,5.59s-1.87,5.6-5.44,5.6h-3.47Zm5.62-5.59c0-2.23-.62-3.04-1.94-3.04h-.94v6.1h.94c1.31,0,1.94-.82,1.94-3.06Z"/>
    <path class="cls-1" d="m178.09,296.78c0-2.9,1.66-4.67,4.42-4.67,2.51,0,3.99,1.65,3.99,4.39,0,.26-.02.54-.06.83-.03.27-.21.42-.48.42h-4.72c.24.91.88,1.39,1.91,1.39.46,0,1.04-.13,1.52-.34.27-.11.46-.06.64.16l.66.9c.16.24.14.46-.08.62-.86.62-2.14.98-3.36.98-2.75,0-4.42-1.76-4.42-4.67Zm5.44-.83c-.02-1.07-.43-1.7-1.12-1.7s-1.14.58-1.28,1.7h2.4Z"/>
    <path class="cls-1" d="m187.25,296.78c0-2.82,1.78-4.67,4.42-4.67,1.01,0,2.02.3,2.72.8.24.19.27.4.1.66l-.85,1.18c-.18.22-.38.22-.64.08-.27-.16-.58-.22-.88-.22-1.1,0-1.67.72-1.67,2.18s.54,2.19,1.68,2.19c.29,0,.61-.1.88-.24.27-.16.46-.16.64.08l.85,1.18c.18.24.18.45-.03.61-.72.53-1.74.85-2.8.85-2.67,0-4.42-1.84-4.42-4.67Z"/>
    <path class="cls-1" d="m194.72,296.78c0-2.9,1.67-4.67,4.42-4.67,2.51,0,3.99,1.65,3.99,4.39,0,.26-.02.54-.06.83-.03.27-.21.42-.48.42h-4.72c.24.91.88,1.39,1.9,1.39.46,0,1.04-.13,1.52-.34.27-.11.46-.06.64.16l.66.9c.16.24.14.46-.08.62-.86.62-2.14.98-3.36.98-2.75,0-4.42-1.76-4.42-4.67Zm5.44-.83c-.02-1.07-.43-1.7-1.12-1.7s-1.14.58-1.28,1.7h2.4Z"/>
    <path class="cls-1" d="m216.23,294.78v5.91c0,.29-.18.46-.46.46h-2.16c-.29,0-.46-.18-.46-.46v-5.38c0-.51-.19-.8-.56-.8-.32,0-.62.24-.83.66v5.52c0,.29-.18.46-.46.46h-2.16c-.29,0-.46-.18-.46-.46v-5.38c0-.54-.14-.8-.5-.8s-.67.24-.91.69v5.49c0,.29-.18.46-.46.46h-2.14c-.3,0-.46-.18-.46-.46v-7.81c0-.29.16-.45.46-.45h2.02c.29,0,.46.16.46.45v.61c.5-.82,1.47-1.38,2.4-1.38s1.63.51,1.98,1.34c.5-.8,1.44-1.34,2.32-1.34,1.5,0,2.4,1.01,2.4,2.67Z"/>
    <path class="cls-1" d="m220.37,300.34v.34c0,.29-.16.46-.46.46h-1.87c-.3,0-.46-.18-.46-.46v-11.04c0-.29.16-.46.46-.46h2.14c.29,0,.46.18.46.46v3.65c.54-.72,1.44-1.17,2.37-1.17,1.89,0,3.03,1.76,3.03,4.67s-1.3,4.66-3.43,4.66c-.83,0-1.71-.43-2.24-1.1Zm2.51-3.58c0-1.46-.38-2.26-1.09-2.26-.46,0-.88.29-1.15.78v3.01c.27.5.67.77,1.14.77.72,0,1.1-.82,1.1-2.3Z"/>
    <path class="cls-1" d="m226.85,296.78c0-2.9,1.67-4.67,4.42-4.67,2.51,0,3.99,1.65,3.99,4.39,0,.26-.02.54-.06.83-.03.27-.21.42-.48.42h-4.72c.24.91.88,1.39,1.9,1.39.46,0,1.04-.13,1.52-.34.27-.11.46-.06.64.16l.66.9c.16.24.14.46-.08.62-.86.62-2.14.98-3.36.98-2.75,0-4.42-1.76-4.42-4.67Zm5.44-.83c-.02-1.07-.43-1.7-1.12-1.7s-1.14.58-1.28,1.7h2.4Z"/>
    <path class="cls-1" d="m242.16,292.79l-.3,2.08c-.05.3-.22.42-.48.37-.14-.03-.29-.05-.43-.05-.72,0-1.31.48-1.57,1.23v4.26c0,.29-.18.46-.46.46h-2.15c-.3,0-.46-.18-.46-.46v-7.81c0-.29.16-.45.46-.45h2.02c.29,0,.46.16.46.45v.72c.42-.93,1.15-1.49,1.98-1.49.21,0,.45.05.64.11.26.08.32.3.29.58Z"/>
    <path class="cls-1" d="m253.38,299.3v1.38c0,.29-.18.46-.46.46h-6.63c-.29,0-.46-.18-.46-.46v-1.31c0-.24.08-.4.24-.58,1.7-1.65,4.15-3.75,4.15-5.55,0-.72-.45-1.2-1.1-1.2-.58,0-1.3.32-1.94.88-.24.19-.46.19-.66-.05l-.8-.96c-.18-.21-.19-.43-.02-.64,1.01-1.14,2.4-1.62,3.68-1.62,2.37,0,3.95,1.26,3.95,3.18s-1.28,3.68-3.65,6h3.23c.29,0,.46.16.46.46Z"/>
    <path class="cls-1" d="m263.1,295.56c0,3.83-1.52,5.89-4.4,5.89s-4.4-2.06-4.4-5.89,1.52-5.91,4.4-5.91,4.4,2.06,4.4,5.91Zm-3.14,0c0-2.48-.37-3.46-1.26-3.46s-1.26.98-1.26,3.46.37,3.44,1.26,3.44,1.26-.98,1.26-3.44Z"/>
    <path class="cls-1" d="m271.3,299.3v1.38c0,.29-.18.46-.46.46h-6.63c-.29,0-.46-.18-.46-.46v-1.31c0-.24.08-.4.24-.58,1.7-1.65,4.15-3.75,4.15-5.55,0-.72-.45-1.2-1.1-1.2-.58,0-1.3.32-1.94.88-.24.19-.46.19-.66-.05l-.8-.96c-.18-.21-.19-.43-.02-.64,1.01-1.14,2.4-1.62,3.68-1.62,2.37,0,3.95,1.26,3.95,3.18s-1.28,3.68-3.65,6h3.23c.29,0,.46.16.46.46Z"/>
    <path class="cls-1" d="m271.88,300.33c-.22-.18-.24-.42-.05-.64l.88-1.06c.18-.24.4-.24.66-.06.51.37,1.15.59,1.73.59.83,0,1.44-.43,1.44-1.34s-.62-1.41-1.75-1.41h-.62c-.29,0-.48-.16-.48-.46v-.43c0-.24.05-.4.21-.56l2.27-2.69h-3.59c-.29,0-.45-.16-.45-.46v-1.38c0-.29.16-.46.45-.46h6.43c.29,0,.45.18.45.46v1.17c0,.24-.06.4-.21.58l-2.32,2.75c1.76.27,2.74,1.39,2.74,3.09,0,2.18-1.82,3.44-4.1,3.44-1.39,0-2.75-.42-3.7-1.12Z"/>
  </g>
  <g>
    <path class="cls-8" d="m129.25,25.94v12.27c0,4.99-2.9,7.72-8.3,7.72s-8.3-2.73-8.3-7.72v-12.27c0-.52.32-.84.84-.84h4.12c.52,0,.84.32.84.84v12.56c0,2.21.96,3.13,2.5,3.13s2.49-.93,2.49-3.13v-12.56c0-.52.32-.84.84-.84h4.12c.55,0,.84.32.84.84Z"/>
    <path class="cls-8" d="m145.72,33.83v10.7c0,.52-.32.84-.84.84h-3.92c-.52,0-.81-.32-.81-.84v-9.75c0-.93-.43-1.45-1.16-1.45s-1.42.55-1.86,1.48v9.72c0,.52-.32.84-.84.84h-3.89c-.55,0-.84-.32-.84-.84v-14.16c0-.52.29-.81.84-.81h3.65c.52,0,.84.29.84.81v1.1c.93-1.54,2.73-2.49,4.41-2.49,2.67,0,4.41,1.97,4.41,4.84Z"/>
    <path class="cls-8" d="m147.6,37.45c0-5.25,3.02-8.47,8.01-8.47,4.55,0,7.22,2.99,7.22,7.95,0,.46-.03.99-.12,1.51-.06.49-.38.75-.87.75h-8.56c.43,1.65,1.59,2.52,3.45,2.52.84,0,1.89-.23,2.76-.61.49-.2.84-.12,1.16.29l1.19,1.62c.29.44.26.84-.14,1.13-1.57,1.13-3.89,1.77-6.09,1.77-4.99,0-8.01-3.19-8.01-8.47Zm9.86-1.51c-.03-1.94-.78-3.07-2.03-3.07s-2.06,1.04-2.32,3.07h4.35Z"/>
    <path class="cls-8" d="m186.58,33.83v10.7c0,.52-.32.84-.84.84h-3.92c-.52,0-.84-.32-.84-.84v-9.75c0-.93-.35-1.45-1.02-1.45-.58,0-1.13.44-1.51,1.19v10.01c0,.52-.32.84-.84.84h-3.92c-.52,0-.84-.32-.84-.84v-9.75c0-.99-.26-1.45-.9-1.45s-1.22.44-1.65,1.25v9.95c0,.52-.32.84-.84.84h-3.89c-.55,0-.84-.32-.84-.84v-14.16c0-.52.29-.81.84-.81h3.65c.52,0,.84.29.84.81v1.1c.9-1.48,2.67-2.49,4.35-2.49s2.96.93,3.6,2.44c.9-1.45,2.61-2.44,4.21-2.44,2.73,0,4.35,1.83,4.35,4.84Z"/>
    <path class="cls-8" d="m204.36,37.48c0,5.25-2.35,8.44-6.21,8.44-1.28,0-2.61-.55-3.57-1.48v6.64c0,.55-.32.84-.84.84h-3.89c-.55,0-.84-.29-.84-.84v-20.71c0-.52.29-.81.84-.81h3.65c.52,0,.84.29.84.81v1.07c.93-1.51,2.73-2.44,4.52-2.44,3.42,0,5.48,3.19,5.48,8.47Zm-5.71-.06c0-2.64-.7-4.09-1.97-4.09-.84,0-1.6.49-2.09,1.42v5.42c.49.9,1.22,1.42,2.06,1.42,1.31,0,2-1.48,2-4.18Z"/>
    <path class="cls-8" d="m206.27,44.53v-20.02c0-.52.29-.84.84-.84h3.89c.55,0,.84.32.84.84v20.02c0,.52-.29.84-.84.84h-3.89c-.55,0-.84-.32-.84-.84Z"/>
    <path class="cls-8" d="m229.59,37.45c0,5.28-2.99,8.47-7.92,8.47s-7.95-3.19-7.95-8.47,2.99-8.47,7.95-8.47,7.92,3.22,7.92,8.47Zm-5.71,0c0-2.67-.78-4.12-2.21-4.12s-2.23,1.45-2.23,4.12.78,4.15,2.23,4.15,2.21-1.48,2.21-4.15Z"/>
    <path class="cls-8" d="m245.54,30.49l-4.73,15.55c-1.22,4.09-4.03,6.09-9.08,6.41-.52.03-.84-.23-.93-.75l-.32-2.17c-.12-.52.17-.84.72-.93,3.05-.41,4.32-1.36,4.76-3.22h-1.33c-.46,0-.81-.23-.96-.73l-4.03-14.16c-.14-.55.12-.93.73-.93h4.15c.49,0,.78.2.9.72l2.03,10.33,2.35-10.33c.12-.49.44-.72.93-.72h4.12c.58,0,.87.38.7.93Z"/>
    <path class="cls-8" d="m268.3,33.83v10.7c0,.52-.32.84-.84.84h-3.92c-.52,0-.84-.32-.84-.84v-9.75c0-.93-.35-1.45-1.02-1.45-.58,0-1.13.44-1.51,1.19v10.01c0,.52-.32.84-.84.84h-3.92c-.52,0-.84-.32-.84-.84v-9.75c0-.99-.26-1.45-.9-1.45s-1.22.44-1.65,1.25v9.95c0,.52-.32.84-.84.84h-3.89c-.55,0-.84-.32-.84-.84v-14.16c0-.52.29-.81.84-.81h3.65c.52,0,.84.29.84.81v1.1c.9-1.48,2.67-2.49,4.35-2.49s2.96.93,3.6,2.44c.9-1.45,2.61-2.44,4.21-2.44,2.73,0,4.35,1.83,4.35,4.84Z"/>
    <path class="cls-8" d="m270.18,37.45c0-5.25,3.02-8.47,8.01-8.47,4.55,0,7.22,2.99,7.22,7.95,0,.46-.03.99-.12,1.51-.06.49-.38.75-.87.75h-8.56c.44,1.65,1.6,2.52,3.45,2.52.84,0,1.89-.23,2.76-.61.49-.2.84-.12,1.16.29l1.19,1.62c.29.44.26.84-.15,1.13-1.57,1.13-3.89,1.77-6.09,1.77-4.99,0-8.01-3.19-8.01-8.47Zm9.86-1.51c-.03-1.94-.78-3.07-2.03-3.07s-2.06,1.04-2.32,3.07h4.35Z"/>
    <path class="cls-8" d="m301.48,33.83v10.7c0,.52-.32.84-.84.84h-3.92c-.52,0-.81-.32-.81-.84v-9.75c0-.93-.43-1.45-1.16-1.45s-1.42.55-1.86,1.48v9.72c0,.52-.32.84-.84.84h-3.89c-.55,0-.84-.32-.84-.84v-14.16c0-.52.29-.81.84-.81h3.65c.52,0,.84.29.84.81v1.1c.93-1.54,2.73-2.49,4.41-2.49,2.67,0,4.41,1.97,4.41,4.84Z"/>
    <path class="cls-8" d="m304.75,40.44v-6.9h-1.22c-.52,0-.81-.29-.81-.84v-1.71c0-.46.2-.81.67-.96l.55-.12c.52-.2.84-.38.99-1.3l.26-1.65c.09-.52.41-.75.93-.75h3.39c.52,0,.81.32.81.84v2.52h2.75c.55,0,.84.29.84.81v2.32c0,.55-.29.84-.84.84h-2.75v6.41c0,1.16.49,1.62,1.39,1.62.35,0,.73-.09,1.22-.2.55-.15.93.06,1.01.61l.35,2.35c.09.52-.2.9-.78,1.07-1.16.35-2.23.52-3.25.52-3.25,0-5.51-1.83-5.51-5.48Z"/>
  </g>
  <text/>
</svg>