<?xml version="1.0" encoding="UTF-8"?>
<svg xmlns="http://www.w3.org/2000/svg" width="430.06" height="430.06" version="1.1" xmlns:xlink="http://www.w3.org/1999/xlink" viewBox="0 0 430.06 430.06">
  <defs>
    <style>
      .cls-1 {
        letter-spacing: .05em;
      }

      .cls-2 {
        fill: #edc8bd;
      }

      .cls-3 {
        fill-rule: evenodd;
      }

      .cls-3, .cls-4, .cls-5 {
        fill: #5c0425;
      }

      .cls-6, .cls-7, .cls-8 {
        fill: none;
      }

      .cls-9 {
        clip-path: url(#clippath-1);
      }

      .cls-10 {
        font-size: 16px;
      }

      .cls-7, .cls-8 {
        clip-rule: evenodd;
      }

      .cls-11 {
        font-size: 40px;
      }

      .cls-12 {
        clip-path: url(#clippath-2);
      }

      .cls-8 {
        clip-path: url(#clippath);
      }

      .cls-4 {
        font-size: 28px;
      }

      .cls-4, .cls-5 {
        font-family: Arial-Black, Arial;
        font-weight: 800;
      }
    </style>
    <clipPath id="clippath">
      <polygon class="cls-7" points="138.34 430.06 286.42 430.06 286.42 281.86 138.34 281.86 138.34 430.06 138.34 430.06"/>
    </clipPath>
    <clipPath id="clippath-1">
      <polygon class="cls-8" points="138.34 281.86 286.42 281.86 286.42 430.06 138.34 430.06 138.34 281.86 138.34 281.86"/>
    </clipPath>
    <clipPath id="clippath-2">
      <polygon class="cls-6" points="138.34 430.06 286.42 430.06 286.42 281.86 138.34 281.86 138.34 430.06 138.34 430.06"/>
    </clipPath>
  </defs>
  <!-- Generator: Adobe Illustrator 28.7.1, SVG Export Plug-In . SVG Version: 1.2.0 Build 142)  -->
  <g>
    <g id="Layer_1">
      <rect class="cls-2" width="430.06" height="430.06"/>
      <path class="cls-3" d="M166.47,201.11h-89.61l5.14-8.52h73.06v-.95h1.03v-1.05h0v-.95h0l12.44-51.25h1.03v-1.05h-1.03v-.95h0v-.84h-1.03v-1.05h-2.05v-.95h-77.28c-2.05,0-4.11,2-4.11,3.79,0,2.95,2.05,4.84,4.11,4.84h72.03l-11.3,42.73h-57.65l-12.33-62.72h0v-.95h-1.03v-.95h-1.03v-.95h-14.5c-2.05,0-4.11,1.89-4.11,3.79s2.05,3.79,4.11,3.79h9.25l11.42,57.99h-5.14v.95h-1.03v.95h-1.03l-10.39,15.26v.95h-1.03v.95h0v.95h0v.95h1.03v.95h0q0,.95,1.03.95h1.03v.95h18.61c-1.03,1.89-2.05,4.74-2.05,7.58,0,7.68,7.19,15.26,16.44,15.26s16.44-7.58,16.44-15.26c0-2.84-1.03-5.68-1.94-7.58h20.55c-1.03,1.89-2.05,4.74-2.05,7.58,0,7.68,8.22,15.26,16.44,15.26,9.25,0,16.55-7.58,16.55-15.26,0-2.84,0-5.68-2.05-7.58h2.05c3.08,0,4.11-1.89,4.11-3.79,0-2.84-1.03-3.79-4.11-3.79h0ZM108.82,216.26h0c0,3.89-4.11,7.68-8.33,7.68s-8.22-3.79-8.22-7.68c0-4.74,4.11-7.58,8.22-7.58s8.33,2.84,8.33,7.58h0ZM158.25,216.26h0c0,3.89-3.2,7.68-8.33,7.68-4.11,0-8.22-3.79-8.22-7.68,0-4.74,4.11-7.58,8.22-7.58,5.14,0,8.33,2.84,8.33,7.58h0Z"/>
      <polygon class="cls-3" points="338.36 114.11 328.74 114.11 328.74 187.33 299.99 187.33 299.99 114.11 290.36 114.11 314.36 96.33 338.36 114.11 338.36 114.11"/>
      <text class="cls-4" transform="translate(47.78 51.36)"><tspan x="0" y="0">Consumer price index</tspan></text>
      <text/>
      <text class="cls-5" transform="translate(253.05 235.51)"><tspan class="cls-11"><tspan x="0" y="0">+</tspan><tspan class="cls-1" x="26.41" y="0">2.4</tspan><tspan x="99.09" y="0">%</tspan></tspan><tspan class="cls-10"><tspan x="9.54" y="22">12 months to </tspan></tspan><tspan class="cls-10"><tspan x="25.09" y="44">April 2025</tspan></tspan></text>
      <g class="cls-9">
        <g class="cls-12">
          <path class="cls-3" d="M277.86,429.99h-122.98c-5.82,0-8.44-3.04-7.95-8.78,1.31-9.19,6.39-22.97,24.51-28.88,19.27-7.47,20.74-8.21,20.74-8.21,0,0,4.43-7.47,6.56-7.96,2.13-.49.33-3.45,0-4.18-.33-.9-2.95,0-2.95-10.75,0-3.53.49-3.86-1.31-3.86s-5.74-2.46-5.74-11.08,0-9.03,1.48-9.27c.25-3.28-1.56-8.62-1.56-20.68s9.51-23.39,27.79-23.39c5.33,0,9.84-2.54,14.84-2.87.66,1.56,1.39,4.18,2.46,4.84,3.77,2.54,8.94,8.86,10.74,21.42,0,12.06-1.89,17.4-1.64,20.68,1.48.25,1.48.57,1.48,9.27s-4.02,11.08-5.74,11.08-1.31.25-1.31,3.86c0,10.75-2.62,9.93-2.95,10.75-.33.82-2.05,3.77,0,4.18,2.05.49,6.56,7.96,6.56,7.96,0,0,1.39.82,20.58,8.21,18.28,5.99,23.28,19.94,24.51,29.13.33,5.91-1.48,8.53-8.2,8.53h.08Z"/>
        </g>
      </g>
    </g>
  </g>
</svg>