<?xml version="1.0" encoding="UTF-8"?>
<svg xmlns="http://www.w3.org/2000/svg" width="430.06" height="430.06" version="1.1" viewBox="0 0 430.06 430.06">
  <defs>
    <style>
      .cls-1, .cls-2 {
        fill: #bfd4e4;
      }

      .cls-2, .cls-3, .cls-4, .cls-5 {
        fill-rule: evenodd;
      }

      .cls-3 {
        fill: #fff;
      }

      .cls-6 {
        font-size: 3px;
      }

      .cls-7 {
        font-size: 45px;
      }

      .cls-4 {
        fill: #a2c3e7;
      }

      .cls-8 {
        font-size: 24px;
      }

      .cls-5, .cls-9 {
        fill: #1e3564;
      }

      .cls-9 {
        font-family: Arial-Black, Arial;
        font-weight: 800;
      }
    </style>
  </defs>
  <!-- Generator: Adobe Illustrator 28.7.1, SVG Export Plug-In . SVG Version: 1.2.0 Build 142)  -->
  <g>
    <g id="Layer_1">
      <g>
        <rect class="cls-1" width="430.06" height="430.06"/>
        <text class="cls-9" transform="translate(147.33 93.69)"><tspan class="cls-7"><tspan x="0" y="0">2,100</tspan></tspan><tspan class="cls-6"><tspan x="67.02" y="3.6"> </tspan></tspan><tspan class="cls-8"><tspan x="-21.8" y="32.4">full-time jobs </tspan></tspan><tspan class="cls-8"><tspan x="-40.5" y="61.2">added in quarter</tspan></tspan><tspan class="cls-8"><tspan x="-26.49" y="90">to March 2025</tspan></tspan></text>
        <g>
          <polygon class="cls-5" points="18.84 265.81 140.11 265.81 140.11 417.82 18.84 417.82 18.84 265.81 18.84 265.81"/>
          <polygon class="cls-3" points="25.2 269.53 136.15 269.53 136.15 407.86 25.2 407.86 25.2 269.53 25.2 269.53"/>
          <polygon class="cls-3" points="25.2 269.53 136.15 269.53 136.15 412.66 25.2 412.66 25.2 269.53 25.2 269.53"/>
          <path class="cls-5" d="M58.32,340.62h0c4.2-8.5,11.36-11.08,22.91-11.08,13.86,0,21.01,4.55,23.12,11.46-24.82.38-46.03-.38-46.03-.38"/>
          <path class="cls-5" d="M76.32,288.16h0c-5.83,1.6-5.63,4.57-7.53,7.55-1.84,2.78-6.28,4.72-6.68,6.74-.65,1.93,1.25,5.9-.85,8.11-2.09,2.36-2.94,3.35-2.09,5.71.85,2.17,2.74,5.75,2.94,6.13.2.61,2.49,3.96,5.43,4.39,2.94.38,8.37,1.18,10.87,2.36,2.74,1.18,11.51-1.37,16.35-1.18,4.79,0,8.17-3.35,7.93-5.57-.4-2.17,3.59-6.7,3.59-10.47-.2-4.15-5.23-7.31-6.48-10.09-1.5-2.59.2-7.55-5.03-10.28-3.14-1.79-5.43-1.6-7.98-2.41-2.49-.8-6.68-1.98-10.47-.99"/>
          <path class="cls-2" d="M83.6,336.26h0c-1.25,1.8-2.3,1.98-3.75,0-1.05-1.56-3.4-5.15-3.4-6.76v-17.62c0-1.8,1.5-3.35,3.4-3.35h3.75c1.9,0,3.35,1.56,3.35,3.35v17.62c0,1.61-2.1,4.96-3.35,6.76"/>
          <path class="cls-2" d="M83.6,308.53h-3.75c-1.9,0-3.4,1.55-3.4,3.34v15.6c4.2,1.17,8.01-1.22,10.51-4.18v-11.42c0-1.79-1.45-3.34-3.35-3.34"/>
          <path class="cls-2" d="M92.83,308.68h0c0,8.08-5.05,14.57-11.34,14.57s-11.29-6.48-11.29-14.57,5-14.43,11.29-14.43,11.34,6.53,11.34,14.43"/>
          <path class="cls-5" d="M86.63,297.2h0c-7.06,11.29-17.51,10.3-17.51,10.3,0,0,.2-15.01,8.56-15.81s13.13,2.35,15.02,7.48c1.69,5.13,0,8.7,0,8.7,0,0-2.69-1.98-4.18-5.32-1.24-3.15-1.89-5.36-1.89-5.36"/>
          <path class="cls-2" d="M71.39,308.71h0c1.04,2.15.6,4.3-.85,5.09-1.44.56-3.53-.61-4.58-2.76-1.04-1.96-.65-4.3.85-4.91,1.44-.61,3.53.61,4.58,2.57"/>
          <path class="cls-2" d="M91.24,308.71h0c-.99,2.15-.6,4.3.85,5.09,1.49.56,3.58-.61,4.63-2.76,1.04-1.96.6-4.3-.85-4.91-1.49-.61-3.58.61-4.63,2.57"/>
          <path class="cls-5" d="M95.02,363.81h-28.44c-1.89,0-3.34-1.43-3.34-3.24s1.44-3.19,3.34-3.19h28.44c1.89,0,3.34,1.43,3.34,3.19s-1.44,3.24-3.34,3.24"/>
          <path class="cls-5" d="M100.29,373.41h-38.98c-1.65,0-3.34-1.38-3.34-3.19,0-1.62,1.7-3,3.34-3h38.98c1.9,0,3.34,1.38,3.34,3,0,1.81-1.45,3.19-3.34,3.19"/>
          <path class="cls-5" d="M124.16,383.15H40.44c-.93,0-1.68-.42-1.68-.95s.75-.95,1.68-.95h83.72c.93,0,1.68.42,1.68.95s-.75.95-1.68.95"/>
          <path class="cls-5" d="M123.56,392.87H39.84c-.93,0-1.68-.48-1.68-1.08,0-.68.75-1.17,1.68-1.17h83.72c.93,0,1.68.48,1.68,1.17,0,.6-.75,1.08-1.68,1.08"/>
          <path class="cls-5" d="M124.15,402.1H39.85c-.93,0-1.69-.51-1.69-1.17s.76-1.2,1.69-1.2h84.3c.93,0,1.69.54,1.69,1.2s-.76,1.17-1.69,1.17"/>
          <path class="cls-5" d="M114.81,342.81H46.54c-1.85,0-3.34-1.6-3.34-3.39v-59.29c0-1.79,1.5-3.16,3.34-3.16h68.27c1.89,0,3.34,1.37,3.34,3.16v59.29c0,1.79-1.45,3.39-3.34,3.39h0ZM46.54,279.56h0c-.2,0-.6.38-.6.57v59.29c0,.42.4.61.6.61h68.27c.4,0,.6-.19.6-.61v-59.29c0-.19-.2-.57-.6-.57H46.54Z"/>
          <polygon class="cls-5" points="289.32 265.81 410.71 265.81 410.71 417.82 289.32 417.82 289.32 265.81 289.32 265.81"/>
          <polygon class="cls-3" points="295.68 269.53 406.75 269.53 406.75 412.66 295.68 412.66 295.68 269.53 295.68 269.53"/>
          <path class="cls-5" d="M334.2,307.93h0c0,8.32,5.44,22.03,18,21.61,12.77-.57,15.46-13.47,16.11-17.26.4-3.55-34.11-4.35-34.11-4.35"/>
          <path class="cls-5" d="M328.92,340.62h0c4.2-8.5,11.29-11.08,22.83-11.08,13.84,0,21.18,4.55,23.08,11.46-24.73.38-45.91-.38-45.91-.38"/>
          <path class="cls-2" d="M354.03,336.26h0c-1.25,1.8-2.3,1.98-3.75,0-1.05-1.56-3.35-5.15-3.35-6.76v-17.62c0-1.8,1.65-3.35,3.35-3.35h3.75c1.9,0,3.4,1.56,3.4,3.35v17.62c0,1.61-2.1,4.96-3.4,6.76"/>
          <path class="cls-2" d="M354.03,308.53h-3.75c-1.7,0-3.35,1.55-3.35,3.34v15.6c4.2,1.17,8.16-1.22,10.51-4.18v-11.42c0-1.79-1.5-3.34-3.4-3.34"/>
          <path class="cls-2" d="M363.43,308.68h0c0,8.08-5.05,14.57-11.29,14.57s-11.34-6.48-11.34-14.57,5.25-14.43,11.34-14.43,11.29,6.53,11.29,14.43"/>
          <path class="cls-5" d="M358.42,297.98h0c-1.25,4.35-4.14,4.35-8.33,5.77-4.19,1.56-6.09,2.98-7.33,5.96-1.7,3.55.6,14.29.6,14.29,0,0-10.23-7.33-8.98-19.06,1.05-11.54,8.38-16.08,15.07-16.08s9.43,3.97,9.43,3.97c0,0,3.54,0,6.89,3.97,4.64,5.16,3.14,17.65,0,22.04-3.14,4.54-5.19,5.96-5.19,5.72.2-.19,2.89-10.5,1.45-16.84-1.45-6.39-3.59-9.74-3.59-9.74"/>
          <path class="cls-5" d="M365.37,363.81h-28.5c-1.65,0-3.14-1.43-3.14-3.24s1.5-3.19,3.14-3.19h28.5c1.9,0,3.34,1.43,3.34,3.19s-1.45,3.24-3.34,3.24"/>
          <path class="cls-5" d="M370.88,373.41h-38.84c-1.9,0-3.35-1.38-3.35-3.19,0-1.62,1.45-3,3.35-3h38.84c1.9,0,3.35,1.38,3.35,3,0,1.81-1.45,3.19-3.35,3.19"/>
          <path class="cls-5" d="M399.27,385.65h-94.73c-1.05,0-1.89-.79-1.89-1.78s.85-1.78,1.89-1.78h94.73c1.05,0,1.84.79,1.84,1.78s-.8,1.78-1.84,1.78"/>
          <path class="cls-5" d="M398.79,394.53h-94.85c-1.05,0-1.9-.79-1.9-1.77,0-1.12.85-1.91,1.9-1.91h94.85c1.05,0,1.85.79,1.85,1.91,0,.98-.8,1.77-1.85,1.77"/>
          <path class="cls-5" d="M398.79,402.45h-94.85c-1.05,0-1.9-.73-1.9-1.69s.85-1.74,1.9-1.74h94.85c1.05,0,1.85.78,1.85,1.74s-.8,1.69-1.85,1.69"/>
          <path class="cls-5" d="M385.33,342.81h-67.94c-1.89,0-3.59-1.6-3.59-3.39v-59.29c0-1.79,1.69-3.16,3.59-3.16h67.94c1.89,0,3.54,1.37,3.54,3.16v59.29c0,1.79-1.64,3.39-3.54,3.39h0ZM317.39,279.56h0c-.45,0-.65.38-.65.57v59.29c0,.42.2.61.65.61h67.94c.4,0,.65-.19.65-.61v-59.29c0-.19-.25-.57-.65-.57h-67.94Z"/>
          <path class="cls-4" d="M289.27,266.65h-1.86c0,1.77-.25,3.49-.25,5.25s.25,3.53.25,5.25l1.86.6v-11.11"/>
          <polygon class="cls-5" points="131.64 233.41 297.19 233.41 297.19 430.06 131.64 430.06 131.64 233.41 131.64 233.41"/>
          <polygon class="cls-3" points="140.16 236.65 291.67 236.65 291.67 424.54 140.16 424.54 140.16 236.65 140.16 236.65"/>
          <path class="cls-5" d="M202.02,287.61h0c-.2-.24-2.74-14.71-3.14-20.29-.4-5.53,9.41-6.53,9.41-6.53,0,0,8.16-3.97,13.99-1.99,5.63,2.18,9.61,5.77,12.35,10.12,2.69,4.35-2.29,18.26-2.29,18.26l-30.32.43"/>
          <path class="cls-5" d="M183.68,333.78h0c-.2-.24.6-5.94.6-6.13,1.3-11.88,16.97-15.27,32.49-15.27,18.22,0,30.6,3.16,32.69,15.65,0,.19,1.05,5.94,1.05,6.32-33.94.42-66.83-.57-66.83-.57"/>
          <path class="cls-2" d="M220.07,321.55h0c-1.89,2.54-3.13,2.54-5.21,0-1.44-2.21-6.65-6.92-6.65-9.32l2.08-23.9c0-2.54,2.08-4.52,4.57-4.52h5.21c2.48,0,4.57,1.98,4.57,4.52l1.04,23.9c0,2.4-3.92,6.92-5.61,9.32"/>
          <path class="cls-2" d="M219.86,283.81h-5.21c-2.48,0-4.56,1.98-4.56,4.52l-1.89,21.17c5.81,1.74,13.55-1.79,16.87-5.55l-.65-15.62c0-2.54-2.08-4.52-4.56-4.52"/>
          <polyline class="cls-2" points="209.28 320.57 215.39 324.27 213.49 334.53 221.69 334.11 219.59 324.88 224.59 320.57 222.29 318.37 211.58 318.37 209.28 320.57"/>
          <path class="cls-5" d="M208.43,306.87h0l-7.54,6.91s7.74,12.83,8.19,12.83c.4,0,6.49-7.1,6.49-7.1l3.75-.23,6.29,6.16,7.14-11.85-7.34-7.33s-6.29,11.28-7.34,11.66c-1.05.19-1.05.38-2.1-.38-.85-.61-7.54-10.67-7.54-10.67"/>
          <path class="cls-2" d="M232.75,284.36h0c0,10.89-6.94,19.8-15.27,19.8s-15.52-8.91-15.52-19.8,6.94-19.99,15.52-19.99,15.27,8.91,15.27,19.99"/>
          <path class="cls-2" d="M203.5,283.83h0c1.29,2.97.84,5.94-.99,6.93-2.14.8-4.82-.8-6.26-3.58-1.49-2.97-1.04-5.94,1.04-6.93,1.84-.75,4.77.8,6.21,3.58"/>
          <path class="cls-2" d="M230.57,283.83h0c-1.25,2.97-.85,5.94,1.05,6.93,2.1.8,4.79-.8,6.29-3.58,1.45-2.97,1.05-5.94-1.05-6.93-1.9-.75-4.84.8-6.29,3.58"/>
          <path class="cls-5" d="M208.28,270.69h0c6.48-4.13,9.22-3.38,14,3.52,4.83,6.9,10.46,6.9,10.46,6.9l.85-7.09s-7.13-13-16.74-11.22c-9.42,1.78-14.85,9.86-14.85,9.86,0,0-.4,14.98.85,15.54,1.45.61,1.45-4.93,2.49-5.92.85-1.17-1.05-6.29.2-8.64,1.25-2.39,2.74-2.96,2.74-2.96"/>
          <path class="cls-5" d="M228.84,278.41h0c2.27,2.36,1.48,11.47,2.52,11.28,1.24,0,1.63-8.73,1.24-9.54-.2-.99-3.76-1.75-3.76-1.75"/>
          <path class="cls-5" d="M251.68,365.01h-70.77c-2.49,0-4.39-1.97-4.39-4.31s1.9-4.17,4.39-4.17h70.77c2.49,0,4.59,1.78,4.59,4.17s-2.09,4.31-4.59,4.31"/>
          <path class="cls-5" d="M242.87,378.21h-53.2c-2.3,0-4.39-1.98-4.39-4.14,0-2.4,2.1-4.33,4.39-4.33h53.2c2.55,0,4.64,1.93,4.64,4.33,0,2.17-2.1,4.14-4.64,4.14"/>
          <path class="cls-5" d="M280.77,389.37h-128.99c-1.49,0-2.74-1.19-2.74-2.57s1.25-2.42,2.74-2.42h128.99c1.49,0,2.74,1,2.74,2.42s-1.25,2.57-2.74,2.57"/>
          <path class="cls-5" d="M280.77,401.01h-128.99c-1.49,0-2.74-1-2.74-2.42s1.25-2.57,2.74-2.57h128.99c1.49,0,2.74,1.19,2.74,2.57s-1.25,2.42-2.74,2.42"/>
          <path class="cls-5" d="M280.77,414.33h-128.99c-1.49,0-2.74-1-2.74-2.38s1.25-2.62,2.74-2.62h128.99c1.49,0,2.74,1.19,2.74,2.62s-1.25,2.38-2.74,2.38"/>
          <path class="cls-5" d="M262.88,336.21h-93.2c-2.35,0-4.19-1.79-4.19-3.96v-81.19c0-2.17,1.85-3.96,4.19-3.96h93.2c2.35,0,4.19,1.79,4.19,3.96v81.19c0,2.17-1.85,3.96-4.19,3.96h0ZM169.68,249.69h0c-.85,0-1.5.57-1.5,1.37v81.19c0,.61.65,1.18,1.5,1.18h93.2c.65,0,1.3-.57,1.3-1.18v-81.19c0-.8-.65-1.37-1.3-1.37h-93.2Z"/>
        </g>
      </g>
      <text/>
    </g>
  </g>
</svg>