<?xml version="1.0" encoding="UTF-8"?>
<svg xmlns="http://www.w3.org/2000/svg" width="430.06" height="430.06" version="1.1" viewBox="0 0 430.06 430.06">
  <defs>
    <style>
      .cls-1, .cls-2 {
        fill: #edc8bd;
      }

      .cls-3, .cls-4, .cls-5 {
        fill: #5c0425;
      }

      .cls-3, .cls-2 {
        fill-rule: evenodd;
      }

      .cls-6 {
        font-size: 39px;
      }

      .cls-4 {
        font-size: 29px;
      }

      .cls-4, .cls-7, .cls-5 {
        font-family: Arial-Black, Arial;
        font-weight: 800;
      }

      .cls-7 {
        fill: #fff;
      }

      .cls-5 {
        font-size: 16px;
      }

      .cls-8 {
        font-size: 15px;
      }
    </style>
  </defs>
  <!-- Generator: Adobe Illustrator 28.7.1, SVG Export Plug-In . SVG Version: 1.2.0 Build 142)  -->
  <g>
    <g id="Layer_1">
      <rect class="cls-1" width="430.06" height="430.06"/>
      <path class="cls-3" d="M213.61,68.44c-4.01,0-6.02-3.93-10.03-3.93-2.01-1.97-2.01,0,0,1.97,0,1.97,4.01,0,4.01,0,2.01,1.97,0,5.9,2.01,5.9,0,1.97-2.01,1.97-4.01,1.97-2.01,1.97-4.01,1.97-6.02,1.97-4.01-1.97-4.01,0-8.02,0-6.02,1.97-4.01,7.87-8.02,9.83-4.01,3.93-6.02,9.83-4.01,13.77,4.01,5.9-6.02,1.97-8.02,1.97s-8.02,5.9-8.02,5.9c0,0-2.01-9.83-4.01-11.8,0-1.97-2.01-1.97-4.01-1.97q-2.01-1.97-2.01-3.93c-2.01-1.97-2.01,1.97-2.01,3.93-2.01,0-4.01,0-4.01-1.97-4.01,0-2.01,7.87-6.02,5.9l-2.01-1.97-2.01,1.97c-6.02-1.97-2.01,5.9-2.01,5.9h-4.01c0,1.97,2.01,1.97,2.01,1.97-2.01,3.93-4.01,0-4.01,5.9,0,1.97,2.01,1.97,2.01,3.93,0,3.93-14.04-3.93-14.04,1.97,0,1.97,8.02,5.9,4.01,7.87-2.01,0-2.01-1.97-2.01,0q-2.01,1.97-4.01,0c-2.01,0,0-3.93-2.01-5.9-2.01-3.93-6.02,3.93-8.02,5.9,0,1.97-2.01,3.93-2.01,5.9,0,0,2.01,1.97,2.01,3.93,0,0-4.01,3.93-6.02,5.9-6.02,5.9-12.03,9.83-20.05,11.8-6.02,0-12.03,3.93-20.05,5.9-6.02,1.97-12.03,1.97-18.05,5.9-4.01,3.93-6.02,3.93-10.03,5.9-2.01,1.97-6.02,7.87-6.02,7.87-2.01,0,0-5.9,0-7.87-4.01,0-6.02,9.83-6.02,9.83,2.01,5.9-2.01,7.87-2.01,13.77,0,1.97,10.03,23.6,6.02,25.57l-6.02-7.87c0,1.97,6.02,7.87,2.01,9.83-4.01,0-4.01-9.83-8.02-9.83,0,0,12.03,15.73,12.03,17.7,2.01,1.97,0,5.9,2.01,9.83,2.01,3.93,4.01,5.9,6.02,9.83,2.01,1.97,2.01,7.87,2.01,9.83,0,3.93,2.01,7.87,4.01,9.83,2.01,5.9,2.01,7.87,2.01,13.77v11.8c-2.01,1.97-4.01,1.97-6.02,3.93-2.01,5.9,2.01,5.9,4.01,7.87,8.02,3.93,14.04,7.87,24.06,5.9,4.01-1.97,8.02-3.93,10.03-5.9,6.02-1.97,4.01,0,6.02-3.93,4.01-3.93,18.05-3.93,22.06-1.97,6.02,0,16.04,3.93,20.05-1.97,2.01-1.97,2.01-5.9,6.02-7.87,4.01-1.97,8.02-3.93,12.03-5.9,6.02-3.93,14.04,0,20.05-3.93,10.03-3.93,18.05-3.93,30.08-5.9,2.01,0,4.01-1.97,8.02-1.97,2.01,1.97,6.02,3.93,8.02,5.9,2.01,0,22.06,3.93,22.06,5.9-2.01,1.97-4.01,7.87,0,5.9,2.01,0,6.02,5.9,8.02,7.87,2.01,1.97,2.01,3.93,2.01,7.87,2.01,1.97,6.02,5.9,6.02,5.9,0-1.97-2.01-3.93,2.01-5.9,2.01-1.97,4.01-3.93,8.02-5.9,2.01-1.97,12.03-11.8,10.03-13.77,2.01,3.93,0,5.9,0,9.83,2.01,1.97-2.01,3.93-2.01,3.93-2.01,3.93-2.01,5.9-2.01,7.87,0,3.93-8.02,5.9-2.01,5.9,8.02,0,4.01-7.87,6.02-11.8,0,0,8.02,7.87,6.02,11.8-6.02,7.87,2.01,1.97,6.02,5.9,6.02,5.9,6.02,7.87,6.02,13.77-2.01,5.9,6.02,11.8,10.03,11.8,4.01,1.97,8.02,3.93,12.03,3.93s12.03,9.83,16.04,7.87,8.02-3.93,10.03-7.87c0,0,4.01-5.9,6.02-3.93,0,1.97-4.01,3.93-2.01,5.9,2.01,1.97,2.01-3.93,4.01-3.93,0,0,4.01,5.9,6.02,5.9,0,1.97,4.01,5.9,6.02,5.9-2.01,0,4.01-5.9,4.01-5.9,4.01-1.97,6.02-5.9,8.02-7.87,6.02-1.97,22.06,1.97,22.06-5.9,2.01-9.83,4.01-15.73,6.02-23.6,4.01-7.87,6.02-15.73,12.03-23.6,2.01-1.97,6.02-3.93,8.02-7.87v-3.93c2.01-1.97,4.01-3.93,4.01-7.87,2.01-3.93,0-7.87,2.01-11.8,0-1.97,2.01-3.93,2.01-5.9,2.01-1.97-2.01-3.93,0-5.9,2.01-1.97,4.01-7.87,2.01-9.83,0-3.93-2.01-5.9-2.01-7.87-2.01-1.97-2.01-5.9-2.01-7.87-2.01-7.87,4.01-11.8,2.01-19.67,0,1.97-2.01,5.9-4.01,5.9-4.01,0-6.02-7.87-8.02-11.8-4.01-5.9-12.03-5.9-12.03-15.73-2.01-3.93-4.01-3.93-6.02-5.9-4.01-1.97-4.01,3.93-6.02,0,0-5.9-2.01-7.87-6.02-11.8,0,0-2.01-1.97-2.01-3.93-2.01,0,0-3.93,0-1.97-4.01-3.93-8.02-5.9-12.03-7.87-4.01-3.93-10.03-1.97-12.03-5.9-4.01-3.93-2.01-11.8-4.01-13.77,0-3.93,0-7.87-2.01-9.83-2.01-1.97-4.01-1.97-4.01-5.9s0-9.83-4.01-15.73c-2.01,0-6.02-5.9-6.02-3.93-4.01,0-4.01,1.97-6.02-1.97-4.01-3.93-2.01-11.8-6.02-17.7,0-1.97-8.02-15.73-8.02-15.73-2.01,0-2.01,3.93-2.01,5.9s-2.01,3.93-4.01,5.9c0,0-4.01,3.93-2.01,5.9,0,0,4.01,0,2.01,1.97-2.01,0-4.01,9.83-4.01,11.8,2.01,3.93,2.01,7.87,2.01,11.8-2.01,7.87-2.01,27.53-14.04,27.53-8.02,0-8.02-7.87-14.04-9.83-4.01-1.97-8.02-1.97-12.03-5.9-2.01-1.97-24.06-13.77-22.06-15.73,0-1.97,2.01-3.93,4.01-5.9,0-1.97,4.01-1.97,4.01-3.93,0,0-2.01-1.97-2.01-3.93l4.01-3.93c0-1.97,4.01-3.93,6.02-5.9,0-1.97-4.01-5.9-6.02-3.93l-2.01,3.93-4.01-3.93c0-1.97-4.01,1.97-6.02,1.97-2.01,1.97-4.01,0-6.02,0-4.01-1.97-10.03-3.93-16.04-5.9-4.01,0,4.01,1.97,0,0h0Z"/>
      <polygon class="cls-2" points="235.57 156.09 227.55 156.09 227.55 248.55 203.63 248.55 203.63 156.09 195.61 156.09 215.59 136.11 235.57 156.09 235.57 156.09"/>
      <text class="cls-7" transform="translate(245.24 214.29)"><tspan class="cls-6"><tspan x="0" y="0">+1.3%</tspan></tspan><tspan class="cls-8"><tspan x="1.54" y="22">Last 12 months</tspan></tspan></text>
      <text class="cls-7" transform="translate(52.66 214.29)"><tspan class="cls-6"><tspan x="0" y="0">+0.4%</tspan></tspan><tspan class="cls-8"><tspan x="14.47" y="22">Last quarter</tspan></tspan></text>
      <path class="cls-3" d="M336.75,376.42c0,1.45,2.73,5.79,2.73,7.23,1.36,1.45,2.73,2.89,2.73,4.34s-1.36,1.45-1.36,2.89c1.36,4.34,5.46,7.23,8.19,8.68,2.73,0,2.73-2.89,4.09-4.34l1.36,2.89c0-1.45,0-4.34,1.36-4.34,1.36-1.45,1.36,1.45,2.73,1.45-1.36,0,2.73-10.13,2.73-11.57s1.36-10.13-2.73-8.68c-4.09,1.45-8.19,4.34-12.28,2.89-1.36,0-8.19-4.34-9.55-1.45,0,1.45,1.36-2.89,0,0h0Z"/>
      <path class="cls-3" d="M361.39,363.27c0-1.08-3.6,3.24-2.4,4.32,1.2,0,2.4-1.08,2.4-4.32h0Z"/>
      <path class="cls-3" d="M335.4,368.94c-1.8,0-1.8-3.6,0-3.6s1.8,3.6,0,3.6h0Z"/>
      <text class="cls-5" transform="translate(6.91 424.36)"><tspan x="0" y="0">March quarter, chain volume measures.</tspan></text>
      <text class="cls-4" transform="translate(25.48 45.26)"><tspan x="0" y="0">Gross domestic product</tspan></text>
    </g>
  </g>
</svg>