<?xml version="1.0" encoding="UTF-8"?>
<svg xmlns="http://www.w3.org/2000/svg" width="430.06" height="430.06" version="1.1" viewBox="0 0 430.06 430.06">
  <defs>
    <style>
      .cls-1 {
        fill: #bfd4e4;
      }

      .cls-2 {
        font-size: 39px;
      }

      .cls-3 {
        font-size: 16px;
      }

      .cls-4 {
        font-size: 14px;
      }

      .cls-5 {
        letter-spacing: .07em;
      }

      .cls-6 {
        font-family: ArialUnicodeMS, 'Arial Unicode MS';
        font-size: 15px;
      }

      .cls-6, .cls-7, .cls-8, .cls-9 {
        fill: #1e3564;
      }

      .cls-7 {
        fill-rule: evenodd;
      }

      .cls-8 {
        font-family: Arial-Black, Arial;
        font-weight: 800;
      }
    </style>
  </defs>
  <!-- Generator: Adobe Illustrator 28.7.1, SVG Export Plug-In . SVG Version: 1.2.0 Build 142)  -->
  <g>
    <g id="Layer_1">
      <g>
        <rect class="cls-1" width="430.06" height="430.06"/>
        <g>
          <polygon class="cls-7" points="171.69 254.89 185.45 246.49 185.45 239.46 186.73 239.46 186.73 234.85 170.41 234.85 170.41 239.46 171.69 239.46 171.69 254.89 171.69 254.89 171.69 254.89"/>
          <path class="cls-7" d="M213.38,242.64l-51.73,31.56v45.4c1.33.54,2.44,1.05,3.26,1.43l8.61,3.33c-.37-.99-.55-2.03-.56-3.08,0-5.17,4.38-9.36,9.77-9.37,1.93,0,8.47.13,16.5.31v-34.53h28.32v35.22l15.62.33c7.04-.17,14,1.54,20.08,4.96l1.84,1.16v-45.16l-51.71-31.56h0ZM177.52,305.57h-11.1v-13.39h11.1v13.39h0ZM177.52,289.68h-11.1v-7.92h11.1v7.92h0ZM191.23,305.57h-11.1v-13.39h11.12l-.02,13.39h0ZM191.23,289.68h-11.1v-7.92h11.12l-.02,7.92h0ZM232.84,271.02v1.65h-38.91v-1.65h0l8.61-6.7h21.67l8.63,6.7h0ZM246.64,305.57h-11.17v-13.39h11.12l.05,13.39h0ZM246.64,289.68h-11.17v-7.92h11.12l.05,7.92h0ZM260.35,305.57h-11.12v-13.39h11.12v13.39h0ZM260.35,289.68h-11.12v-7.92h11.12v7.92h0Z"/>
          <polygon class="cls-7" points="213.44 240.29 154.48 276.25 150.13 270.46 213.44 231.73 276.73 270.46 272.38 276.25 213.44 240.29 213.44 240.29 213.44 240.29"/>
          <path class="cls-7" d="M306.92,343.47l-13.94-13.11c-11.24,9.51-21.61,19.93-31,31.13l13.94,13.11c.65.6,8.11-5.9,16.69-14.49,8.58-8.6,15.01-16.04,14.32-16.64h-.01Z"/>
          <path class="cls-7" d="M264.17,355.08h0c5.73-7.22,12.28-13.81,19.52-19.65-9.42-7.21-19.92-14.07-21.66-15.07-5.67-3.18-12.16-4.78-18.73-4.6-3,0-54.35-1.36-60.49-1.36-3.96.01-7.17,3.1-7.17,6.9.1,3.33,2.63,6.14,6.05,6.7l38.25,2.99h0c.5.08.83.52.75,1-.06.37-.37.66-.75.72h-.67l-35.99-1.7-19.33-7.84c-3.41-1.59-6.94-2.93-10.56-4.02-1-.29-7.98-1.72-10.59,2.59-.26.42,0,.92.35,1.3,1.14.88,2.35,1.68,3.61,2.39,1.05.65,18.5,11.16,20.94,12.48,2.22,1.3,4.56,2.4,6.98,3.3,0,0,19.17,6.7,21.87,7.52,2.82.98,5.76,1.61,8.75,1.88h37.92c6.54.09,13.01,1.31,19.1,3.59.65.23,1.27.52,1.86.87h0Z"/>
        </g>
        <polygon class="cls-7" points="154.75 109.99 164.3 109.99 164.3 224.29 192.83 224.29 192.83 109.99 202.39 109.99 178.57 86.17 154.75 109.99 154.75 109.99"/>
        <polygon class="cls-7" points="264.87 75.66 255.31 75.66 255.31 189.96 226.78 189.96 226.78 75.66 217.23 75.66 241.05 51.84 264.87 75.66 264.87 75.66"/>
        <text class="cls-8" transform="translate(11.94 139.65)"><tspan class="cls-2"><tspan x="0" y="0">+</tspan><tspan class="cls-5" x="25.75" y="0">5.4</tspan><tspan x="99.53" y="0">%</tspan></tspan><tspan class="cls-3"><tspan x="35.04" y="22">Median </tspan></tspan><tspan class="cls-3"><tspan x="18.15" y="44">house price</tspan></tspan></text>
        <text class="cls-8" transform="translate(273.55 111.65)"><tspan class="cls-2"><tspan class="cls-5" x="0" y="0">+9.0</tspan><tspan x="102.46" y="0">%</tspan></tspan><tspan class="cls-4"><tspan x="40.78" y="22">Median </tspan></tspan><tspan class="cls-4"><tspan x="2.66" y="44">3-bedroom house </tspan></tspan><tspan class="cls-4"><tspan x="31.06" y="66">rent price </tspan></tspan></text>
        <text class="cls-6" transform="translate(5.93 400.17)"><tspan x="0" y="0">Latest 12 month data; </tspan><tspan x="0" y="22">Greater Newcastle region.</tspan></text>
        <g>
          <path class="cls-9" d="M176.42,16.54v18.59c0,.52-.29.84-.81.84h-4.15c-.52,0-.84-.32-.84-.84v-7.54h-4.81v7.54c0,.52-.32.84-.84.84h-4.12c-.52,0-.84-.32-.84-.84v-18.59c0-.52.32-.84.84-.84h4.12c.52,0,.84.32.84.84v6.73h4.81v-6.73c0-.52.32-.84.84-.84h4.15c.52,0,.81.32.81.84Z"/>
          <path class="cls-9" d="M194.34,28.06c0,5.28-2.99,8.47-7.92,8.47s-7.95-3.19-7.95-8.47,2.99-8.47,7.95-8.47,7.92,3.22,7.92,8.47ZM188.63,28.06c0-2.67-.78-4.12-2.2-4.12s-2.23,1.45-2.23,4.12.78,4.15,2.23,4.15,2.2-1.48,2.2-4.15Z"/>
          <path class="cls-9" d="M210.2,20.98v14.16c0,.52-.32.84-.84.84h-3.51c-.52,0-.84-.32-.84-.84v-1.07c-.96,1.57-2.73,2.46-4.41,2.46-2.67,0-4.38-1.91-4.38-4.81v-10.73c0-.52.29-.81.84-.81h3.89c.55,0,.84.29.84.81v9.75c0,.99.41,1.51,1.13,1.51.67,0,1.28-.43,1.68-1.22v-10.04c0-.52.32-.81.84-.81h3.92c.52,0,.84.29.84.81Z"/>
          <path class="cls-9" d="M219.83,26.15c2.23.61,5.22,1.36,5.22,4.96,0,3.25-2.93,5.42-7.31,5.42-2.2,0-4.52-.67-6.06-1.74-.44-.32-.49-.72-.17-1.19l1.36-1.86c.32-.43.7-.49,1.19-.2.99.55,2.29.9,3.37.9,1.19,0,1.91-.41,1.91-1.01,0-.75-.7-.99-2.12-1.36-2.15-.58-5.42-1.62-5.42-5.22,0-3.31,2.49-5.25,6.7-5.25,1.83,0,3.97.55,5.57,1.45.49.26.55.7.23,1.16l-1.36,1.86c-.29.46-.67.49-1.13.26-.81-.41-1.83-.64-2.73-.64-1.02,0-1.74.41-1.74.99,0,.78.81.99,2.5,1.48Z"/>
          <path class="cls-9" d="M226.76,17.53v-2.41c0-.52.29-.84.84-.84h3.97c.52,0,.84.32.84.84v2.41c0,.55-.32.84-.84.84h-3.97c-.55,0-.84-.29-.84-.84ZM226.79,35.14v-14.16c0-.52.32-.81.84-.81h3.92c.52,0,.81.29.81.81v14.16c0,.52-.29.84-.81.84h-3.92c-.52,0-.84-.32-.84-.84Z"/>
          <path class="cls-9" d="M249.09,24.43v10.7c0,.52-.32.84-.84.84h-3.92c-.52,0-.81-.32-.81-.84v-9.75c0-.93-.43-1.45-1.16-1.45s-1.42.55-1.86,1.48v9.72c0,.52-.32.84-.84.84h-3.89c-.55,0-.84-.32-.84-.84v-14.16c0-.52.29-.81.84-.81h3.65c.52,0,.84.29.84.81v1.1c.93-1.54,2.73-2.49,4.41-2.49,2.67,0,4.41,1.97,4.41,4.84Z"/>
          <path class="cls-9" d="M253,41.9c-.43-.2-.55-.58-.49-1.04l.35-2.35c.09-.58.46-.78,1.04-.55,1.45.58,2.96.99,4.09.99,1.8,0,2.84-.73,2.84-2.76v-1.54c-.99,1.19-2.64,1.88-4.38,1.88-3.39,0-5.48-3.19-5.48-8.47s2.35-8.44,6.24-8.44c1.51,0,3.02.75,4.03,1.94v-.58c0-.52.29-.81.81-.81h3.51c.55,0,.84.29.84.81v14.85c0,4.79-2.76,7.25-8.04,7.25-1.89,0-3.94-.46-5.37-1.19ZM260.84,30.7v-5.28c-.49-.93-1.25-1.51-2.12-1.51-1.31,0-2.03,1.48-2.03,4.21s.7,4.09,1.97,4.09c.9,0,1.68-.52,2.18-1.51Z"/>
        </g>
      </g>
      <text/>
      <text/>
    </g>
  </g>
</svg>