<?xml version="1.0" encoding="UTF-8"?>
<svg xmlns="http://www.w3.org/2000/svg" width="430.06" height="430.06" version="1.1" xmlns:xlink="http://www.w3.org/1999/xlink" viewBox="0 0 430.06 430.06">
  <defs>
    <style>
      .cls-1 {
        clip-path: url(#clippath-7);
      }

      .cls-2 {
        clip-path: url(#clippath-4);
      }

      .cls-3 {
        fill: #edc8bd;
      }

      .cls-4 {
        fill-rule: evenodd;
      }

      .cls-4, .cls-5, .cls-6 {
        fill: #5c0425;
      }

      .cls-7 {
        font-size: 39px;
      }

      .cls-5 {
        font-size: 29px;
      }

      .cls-5, .cls-6 {
        font-family: Arial-Black, Arial;
        font-weight: 800;
      }

      .cls-8, .cls-9, .cls-10, .cls-11 {
        fill: none;
      }

      .cls-12 {
        clip-path: url(#clippath-1);
      }

      .cls-9 {
        clip-path: url(#clippath-3);
      }

      .cls-13 {
        clip-path: url(#clippath-5);
      }

      .cls-10 {
        clip-path: url(#clippath);
      }

      .cls-14 {
        clip-path: url(#clippath-8);
      }

      .cls-15 {
        font-size: 16px;
      }

      .cls-16 {
        letter-spacing: .07em;
      }

      .cls-11 {
        clip-path: url(#clippath-6);
      }

      .cls-17 {
        clip-path: url(#clippath-2);
      }
    </style>
    <clipPath id="clippath">
      <polygon class="cls-8" points="22.42 429.69 128.38 429.69 128.38 323.73 22.42 323.73 22.42 429.69 22.42 429.69"/>
    </clipPath>
    <clipPath id="clippath-1">
      <polygon class="cls-10" points="22.42 323.73 128.38 323.73 128.38 429.69 22.42 429.69 22.42 323.73 22.42 323.73"/>
    </clipPath>
    <clipPath id="clippath-2">
      <polygon class="cls-8" points="22.42 429.69 128.38 429.69 128.38 323.73 22.42 323.73 22.42 429.69 22.42 429.69"/>
    </clipPath>
    <clipPath id="clippath-3">
      <polygon class="cls-8" points="160.14 429.57 265.86 429.57 265.86 323.85 160.14 323.85 160.14 429.57 160.14 429.57"/>
    </clipPath>
    <clipPath id="clippath-4">
      <polygon class="cls-9" points="160.14 323.85 265.86 323.85 265.86 429.57 160.14 429.57 160.14 323.85 160.14 323.85"/>
    </clipPath>
    <clipPath id="clippath-5">
      <polygon class="cls-8" points="160.14 429.57 265.86 429.57 265.86 323.85 160.14 323.85 160.14 429.57 160.14 429.57"/>
    </clipPath>
    <clipPath id="clippath-6">
      <polygon class="cls-8" points="297.62 429.57 403.34 429.57 403.34 323.85 297.62 323.85 297.62 429.57 297.62 429.57"/>
    </clipPath>
    <clipPath id="clippath-7">
      <polygon class="cls-11" points="297.62 323.85 403.34 323.85 403.34 429.57 297.62 429.57 297.62 323.85 297.62 323.85"/>
    </clipPath>
    <clipPath id="clippath-8">
      <polygon class="cls-8" points="297.62 429.57 403.34 429.57 403.34 323.85 297.62 323.85 297.62 429.57 297.62 429.57"/>
    </clipPath>
  </defs>
  <!-- Generator: Adobe Illustrator 28.7.1, SVG Export Plug-In . SVG Version: 1.2.0 Build 142)  -->
  <g>
    <g id="Layer_1">
      <g>
        <rect class="cls-3" width="430.06" height="430.06"/>
        <polygon class="cls-4" points="197.87 171.12 204.76 171.12 204.76 229.32 225.31 229.32 225.31 171.12 232.19 171.12 215.03 153.96 197.87 171.12 197.87 171.12"/>
        <text class="cls-6" transform="translate(158.61 108.96)"><tspan class="cls-7"><tspan class="cls-16" x="0" y="0">4.3</tspan><tspan x="73.79" y="0">%</tspan></tspan><tspan class="cls-15"><tspan x="1.28" y="22">in April 2025</tspan></tspan></text>
        <text class="cls-6" transform="translate(158.61 279.13)"><tspan class="cls-7"><tspan class="cls-16" x="0" y="0">3.5</tspan><tspan x="73.79" y="0">%</tspan></tspan><tspan class="cls-15"><tspan x="-1.39" y="22">in April 2024 </tspan></tspan></text>
        <text class="cls-5" transform="translate(34.85 45.36)"><tspan x="0" y="0">Hunter Unemployment</tspan></text>
        <g class="cls-12">
          <g class="cls-17">
            <path class="cls-4" d="M90.99,392.68c1.53.35,4.69,5.46,4.69,5.46,0,0,1,.59,14.78,5.69,12.44,3.87,16.31,12.73,17.36,19.07,1.41,4.87-1.06,6.75-5.69,6.75H34.61c-4.52,0-6.57-1.88-6.1-6.34,1-6.22,4.63-15.55,17.31-19.48,13.55-5.1,14.55-5.69,14.55-5.69,0,0,3.23-5.1,4.63-5.46,1.53-.29.29-2.35,0-2.87-1.23-2.87-3.7-5.16-4.58-9.68-.88-4.46-1.06-8.15-1.47-14.26.12-1.17-.23-2.82-.59-5.34-1.11.47-2.17,1.17-3.05,2.29-4.4-13.85,9.86-24.87,11.26-25.11,2.99-1.7,6.69-2.82,11.03-2.93h.65c.76,0,1.47.12,2.17.18h0c-.59-2.11-10.03-2.52-12.2,1.41.23-5.93,7.45-6.75,9.56-6.75,24.4,0,26.93,21.71,26.93,38.49s9.86,22.7,9.86,22.7c-10.44-.94-20.36-3.4-20.24-5.1v-4.58c3.05-1.7,5.34-5.63,5.34-5.63,0,0-.82.29-2.05.41-.88,2.93-2.7,3.87-3.64,3.87-1.23,0-.94.18-.94,2.58,0,7.39-1.88,6.81-2.17,7.39-.18.53-1.47,2.58,0,2.87h0l.12.06h0Z"/>
          </g>
        </g>
        <g class="cls-2">
          <g class="cls-13">
            <path class="cls-4" d="M259.75,429.52h-87.8c-4.16,0-6.03-2.17-5.68-6.26.94-6.56,4.57-16.39,17.5-20.6,13.75-5.33,14.81-5.85,14.81-5.85,0,0,3.16-5.33,4.68-5.68,1.52-.35.23-2.46,0-2.99-.23-.64-2.11,0-2.11-7.67,0-2.52.35-2.75-.94-2.75s-4.1-1.76-4.1-7.9,0-6.44,1.05-6.61c.18-2.34-1.11-6.15-1.11-14.75s6.79-16.68,19.84-16.68c3.8,0,7.02-1.81,10.59-2.05.47,1.11,1,2.99,1.76,3.45,2.69,1.81,6.38,6.32,7.67,15.28,0,8.6-1.35,12.41-1.17,14.75,1.05.18,1.05.41,1.05,6.61s-2.87,7.9-4.1,7.9-.94.18-.94,2.75c0,7.67-1.87,7.08-2.11,7.67-.23.59-1.46,2.69,0,2.99,1.46.35,4.68,5.68,4.68,5.68,0,0,1,.59,14.69,5.85,13.05,4.27,16.62,14.22,17.5,20.78.23,4.21-1.05,6.09-5.85,6.09h.09Z"/>
          </g>
        </g>
        <g class="cls-1">
          <g class="cls-14">
            <path class="cls-4" d="M365.5,391.64c1.46.29,4.8,5.56,4.8,5.56,0,0,.99.59,15.03,5.79,13.22,4.15,16.91,13.86,17.84,20.3.64,5.03-1.05,6.2-5.73,6.2h-88.1c-3.22,0-6.26-1.35-5.79-6.2.94-6.43,4.5-16.15,17.14-20.3,13.51-5.21,14.45-5.79,14.45-5.79,0,0,3.16-5.26,4.62-5.56,1.46-.35.23-2.4,0-2.98-.18-.47-1.35-.23-1.87-3.57-1.81,2.57-6.49,2.28-19.89,2.11,12.05-4.86,9.24-11.29,12.23-35.51,2.81-21.88,19.01-22.11,22.11-21.94,3.28-.18,20.18,0,23.05,21.94,3.16,24.22.18,30.65,12.75,35.51-13.98.18-18.84.47-20.71-2.11-.58,3.33-1.75,3.1-1.93,3.57-.23.59-1.52,2.63,0,2.98h0Z"/>
          </g>
        </g>
      </g>
    </g>
  </g>
</svg>