<?xml version="1.0" encoding="UTF-8"?>
<svg xmlns="http://www.w3.org/2000/svg" width="430.06" height="430.06" version="1.1" xmlns:xlink="http://www.w3.org/1999/xlink" viewBox="0 0 430.06 430.06">
  <defs>
    <style>
      .cls-1 {
        letter-spacing: .05em;
      }

      .cls-2 {
        fill: #edc8bd;
      }

      .cls-3 {
        fill-rule: evenodd;
      }

      .cls-3, .cls-4, .cls-5 {
        fill: #5c0425;
      }

      .cls-6 {
        font-size: 39px;
      }

      .cls-7, .cls-8, .cls-9 {
        fill: none;
      }

      .cls-10 {
        clip-path: url(#clippath-1);
      }

      .cls-11 {
        font-size: 16px;
      }

      .cls-12 {
        letter-spacing: .05em;
      }

      .cls-8, .cls-9 {
        clip-rule: evenodd;
      }

      .cls-13 {
        font-size: 40px;
      }

      .cls-14 {
        clip-path: url(#clippath-2);
      }

      .cls-9 {
        clip-path: url(#clippath);
      }

      .cls-4 {
        font-size: 28px;
      }

      .cls-4, .cls-5 {
        font-family: Arial-Black, Arial;
        font-weight: 800;
      }
    </style>
    <clipPath id="clippath">
      <polygon class="cls-8" points="138.34 430.06 286.42 430.06 286.42 281.86 138.34 281.86 138.34 430.06 138.34 430.06"/>
    </clipPath>
    <clipPath id="clippath-1">
      <polygon class="cls-9" points="138.34 281.86 286.42 281.86 286.42 430.06 138.34 430.06 138.34 281.86 138.34 281.86"/>
    </clipPath>
    <clipPath id="clippath-2">
      <polygon class="cls-7" points="138.34 430.06 286.42 430.06 286.42 281.86 138.34 281.86 138.34 430.06 138.34 430.06"/>
    </clipPath>
  </defs>
  <!-- Generator: Adobe Illustrator 28.7.1, SVG Export Plug-In . SVG Version: 1.2.0 Build 142)  -->
  <g>
    <g id="Layer_1">
      <rect class="cls-2" width="430.06" height="430.06"/>
      <path class="cls-3" d="M237.04,253.83h-42.46l2.43-4.04h34.62v-.45h.49v-.5h0v-.45h0l5.9-24.32h.49v-.5h-.49v-.45h0v-.4h-.49v-.5h-.97v-.45h-36.62c-.97,0-1.95.95-1.95,1.8,0,1.4.97,2.3,1.95,2.3h34.13l-5.36,20.27h-27.32l-5.84-29.76h0v-.45h-.49v-.45h-.49v-.45h-6.87c-.97,0-1.95.9-1.95,1.8s.97,1.8,1.95,1.8h4.38l5.41,27.51h-2.43v.45h-.49v.45h-.49l-4.92,7.24v.45h-.49v.45h0v.45h0v.45h.49v.45h0q0,.45.49.45h.49v.45h8.82c-.49.9-.97,2.25-.97,3.6,0,3.65,3.41,7.24,7.79,7.24s7.79-3.6,7.79-7.24c0-1.35-.49-2.7-.92-3.6h9.74c-.49.9-.97,2.25-.97,3.6,0,3.65,3.89,7.24,7.79,7.24,4.38,0,7.84-3.6,7.84-7.24,0-1.35,0-2.7-.97-3.6h.97c1.46,0,1.95-.9,1.95-1.8,0-1.35-.49-1.8-1.95-1.8h0ZM209.73,261.02h0c0,1.85-1.95,3.65-3.95,3.65s-3.89-1.8-3.89-3.65c0-2.25,1.95-3.6,3.89-3.6s3.95,1.35,3.95,3.6h0ZM233.15,261.02h0c0,1.85-1.51,3.65-3.95,3.65-1.95,0-3.89-1.8-3.89-3.65,0-2.25,1.95-3.6,3.89-3.6,2.43,0,3.95,1.35,3.95,3.6h0Z"/>
      <polygon class="cls-3" points="362.36 99.35 352.74 99.35 352.74 172.57 323.99 172.57 323.99 99.35 314.36 99.35 338.36 81.57 362.36 99.35 362.36 99.35"/>
      <text class="cls-4" transform="translate(47.78 51.36)"><tspan x="0" y="0">Consumer price index</tspan></text>
      <text class="cls-5" transform="translate(35.16 219.36)"><tspan class="cls-6"><tspan x="0" y="0">-</tspan><tspan class="cls-12" x="12.99" y="0">0.3</tspan><tspan x="83.85" y="0">%</tspan></tspan><tspan class="cls-11"><tspan x="6.75" y="22">August 2024</tspan></tspan></text>
      <text class="cls-5" transform="translate(261.78 209.33)"><tspan class="cls-13"><tspan x="0" y="0">+</tspan><tspan class="cls-1" x="26.41" y="0">2.7</tspan><tspan x="99.09" y="0">%</tspan></tspan><tspan class="cls-11"><tspan x="9.54" y="22">12 months to </tspan></tspan><tspan class="cls-11"><tspan x="14.86" y="44">August 2024</tspan></tspan></text>
      <g class="cls-10">
        <g class="cls-14">
          <path class="cls-3" d="M277.86,429.99h-122.98c-5.82,0-8.44-3.04-7.95-8.78,1.31-9.19,6.39-22.97,24.51-28.88,19.27-7.47,20.74-8.21,20.74-8.21,0,0,4.43-7.47,6.56-7.96,2.13-.49.33-3.45,0-4.18-.33-.9-2.95,0-2.95-10.75,0-3.53.49-3.86-1.31-3.86s-5.74-2.46-5.74-11.08,0-9.03,1.48-9.27c.25-3.28-1.56-8.62-1.56-20.68s9.51-23.39,27.79-23.39c5.33,0,9.84-2.54,14.84-2.87.66,1.56,1.39,4.18,2.46,4.84,3.77,2.54,8.94,8.86,10.74,21.42,0,12.06-1.89,17.4-1.64,20.68,1.48.25,1.48.57,1.48,9.27s-4.02,11.08-5.74,11.08-1.31.25-1.31,3.86c0,10.75-2.62,9.93-2.95,10.75-.33.82-2.05,3.77,0,4.18,2.05.49,6.56,7.96,6.56,7.96,0,0,1.39.82,20.58,8.21,18.28,5.99,23.28,19.94,24.51,29.13.33,5.91-1.48,8.53-8.2,8.53h.08Z"/>
        </g>
      </g>
      <polygon class="cls-3" points="124.1 154.79 114.47 154.79 114.47 81.57 85.73 81.57 85.73 154.79 76.1 154.79 100.1 172.57 124.1 154.79 124.1 154.79"/>
    </g>
  </g>
</svg>