<?xml version="1.0" encoding="UTF-8"?>
<svg id="Layer_1" data-name="Layer 1" xmlns="http://www.w3.org/2000/svg" viewBox="0 0 430.06 430.06">
  <defs>
    <style>
      .cls-1, .cls-2 {
        fill-rule: evenodd;
      }

      .cls-1, .cls-2, .cls-3, .cls-4, .cls-5 {
        stroke-width: 0px;
      }

      .cls-1, .cls-5 {
        fill: #5c0425;
      }

      .cls-2, .cls-4 {
        fill: #edc8bd;
      }

      .cls-3 {
        fill: #fff;
      }
    </style>
  </defs>
  <rect class="cls-4" width="430.06" height="430.06"/>
  <path class="cls-1" d="m213.61,68.44c-4.01,0-6.02-3.93-10.03-3.93-2.01-1.97-2.01,0,0,1.97,0,1.97,4.01,0,4.01,0,2.01,1.97,0,5.9,2.01,5.9,0,1.97-2.01,1.97-4.01,1.97-2.01,1.97-4.01,1.97-6.02,1.97-4.01-1.97-4.01,0-8.02,0-6.02,1.97-4.01,7.87-8.02,9.83-4.01,3.93-6.02,9.83-4.01,13.77,4.01,5.9-6.02,1.97-8.02,1.97s-8.02,5.9-8.02,5.9c0,0-2.01-9.83-4.01-11.8,0-1.97-2.01-1.97-4.01-1.97q-2.01-1.97-2.01-3.93c-2.01-1.97-2.01,1.97-2.01,3.93-2.01,0-4.01,0-4.01-1.97-4.01,0-2.01,7.87-6.02,5.9l-2.01-1.97-2.01,1.97c-6.02-1.97-2.01,5.9-2.01,5.9h-4.01c0,1.97,2.01,1.97,2.01,1.97-2.01,3.93-4.01,0-4.01,5.9,0,1.97,2.01,1.97,2.01,3.93,0,3.93-14.04-3.93-14.04,1.97,0,1.97,8.02,5.9,4.01,7.87-2.01,0-2.01-1.97-2.01,0q-2.01,1.97-4.01,0c-2.01,0,0-3.93-2.01-5.9-2.01-3.93-6.02,3.93-8.02,5.9,0,1.97-2.01,3.93-2.01,5.9,0,0,2.01,1.97,2.01,3.93,0,0-4.01,3.93-6.02,5.9-6.02,5.9-12.03,9.83-20.05,11.8-6.02,0-12.03,3.93-20.05,5.9-6.02,1.97-12.03,1.97-18.05,5.9-4.01,3.93-6.02,3.93-10.03,5.9-2.01,1.97-6.02,7.87-6.02,7.87-2.01,0,0-5.9,0-7.87-4.01,0-6.02,9.83-6.02,9.83,2.01,5.9-2.01,7.87-2.01,13.77,0,1.97,10.03,23.6,6.02,25.57l-6.02-7.87c0,1.97,6.02,7.87,2.01,9.83-4.01,0-4.01-9.83-8.02-9.83,0,0,12.03,15.73,12.03,17.7,2.01,1.97,0,5.9,2.01,9.83,2.01,3.93,4.01,5.9,6.02,9.83,2.01,1.97,2.01,7.87,2.01,9.83,0,3.93,2.01,7.87,4.01,9.83,2.01,5.9,2.01,7.87,2.01,13.77v11.8c-2.01,1.97-4.01,1.97-6.02,3.93-2.01,5.9,2.01,5.9,4.01,7.87,8.02,3.93,14.04,7.87,24.06,5.9,4.01-1.97,8.02-3.93,10.03-5.9,6.02-1.97,4.01,0,6.02-3.93,4.01-3.93,18.05-3.93,22.06-1.97,6.02,0,16.04,3.93,20.05-1.97,2.01-1.97,2.01-5.9,6.02-7.87,4.01-1.97,8.02-3.93,12.03-5.9,6.02-3.93,14.04,0,20.05-3.93,10.03-3.93,18.05-3.93,30.08-5.9,2.01,0,4.01-1.97,8.02-1.97,2.01,1.97,6.02,3.93,8.02,5.9,2.01,0,22.06,3.93,22.06,5.9-2.01,1.97-4.01,7.87,0,5.9,2.01,0,6.02,5.9,8.02,7.87,2.01,1.97,2.01,3.93,2.01,7.87,2.01,1.97,6.02,5.9,6.02,5.9,0-1.97-2.01-3.93,2.01-5.9,2.01-1.97,4.01-3.93,8.02-5.9,2.01-1.97,12.03-11.8,10.03-13.77,2.01,3.93,0,5.9,0,9.83,2.01,1.97-2.01,3.93-2.01,3.93-2.01,3.93-2.01,5.9-2.01,7.87,0,3.93-8.02,5.9-2.01,5.9,8.02,0,4.01-7.87,6.02-11.8,0,0,8.02,7.87,6.02,11.8-6.02,7.87,2.01,1.97,6.02,5.9,6.02,5.9,6.02,7.87,6.02,13.77-2.01,5.9,6.02,11.8,10.03,11.8,4.01,1.97,8.02,3.93,12.03,3.93s12.03,9.83,16.04,7.87,8.02-3.93,10.03-7.87c0,0,4.01-5.9,6.02-3.93,0,1.97-4.01,3.93-2.01,5.9,2.01,1.97,2.01-3.93,4.01-3.93,0,0,4.01,5.9,6.02,5.9,0,1.97,4.01,5.9,6.02,5.9-2.01,0,4.01-5.9,4.01-5.9,4.01-1.97,6.02-5.9,8.02-7.87,6.02-1.97,22.06,1.97,22.06-5.9,2.01-9.83,4.01-15.73,6.02-23.6,4.01-7.87,6.02-15.73,12.03-23.6,2.01-1.97,6.02-3.93,8.02-7.87v-3.93c2.01-1.97,4.01-3.93,4.01-7.87,2.01-3.93,0-7.87,2.01-11.8,0-1.97,2.01-3.93,2.01-5.9,2.01-1.97-2.01-3.93,0-5.9,2.01-1.97,4.01-7.87,2.01-9.83,0-3.93-2.01-5.9-2.01-7.87-2.01-1.97-2.01-5.9-2.01-7.87-2.01-7.87,4.01-11.8,2.01-19.67,0,1.97-2.01,5.9-4.01,5.9-4.01,0-6.02-7.87-8.02-11.8-4.01-5.9-12.03-5.9-12.03-15.73-2.01-3.93-4.01-3.93-6.02-5.9-4.01-1.97-4.01,3.93-6.02,0,0-5.9-2.01-7.87-6.02-11.8,0,0-2.01-1.97-2.01-3.93-2.01,0,0-3.93,0-1.97-4.01-3.93-8.02-5.9-12.03-7.87-4.01-3.93-10.03-1.97-12.03-5.9-4.01-3.93-2.01-11.8-4.01-13.77,0-3.93,0-7.87-2.01-9.83-2.01-1.97-4.01-1.97-4.01-5.9s0-9.83-4.01-15.73c-2.01,0-6.02-5.9-6.02-3.93-4.01,0-4.01,1.97-6.02-1.97-4.01-3.93-2.01-11.8-6.02-17.7,0-1.97-8.02-15.73-8.02-15.73-2.01,0-2.01,3.93-2.01,5.9s-2.01,3.93-4.01,5.9c0,0-4.01,3.93-2.01,5.9,0,0,4.01,0,2.01,1.97-2.01,0-4.01,9.83-4.01,11.8,2.01,3.93,2.01,7.87,2.01,11.8-2.01,7.87-2.01,27.53-14.04,27.53-8.02,0-8.02-7.87-14.04-9.83-4.01-1.97-8.02-1.97-12.03-5.9-2.01-1.97-24.06-13.77-22.06-15.73,0-1.97,2.01-3.93,4.01-5.9,0-1.97,4.01-1.97,4.01-3.93,0,0-2.01-1.97-2.01-3.93l4.01-3.93c0-1.97,4.01-3.93,6.02-5.9,0-1.97-4.01-5.9-6.02-3.93l-2.01,3.93-4.01-3.93c0-1.97-4.01,1.97-6.02,1.97-2.01,1.97-4.01,0-6.02,0-4.01-1.97-10.03-3.93-16.04-5.9-4.01,0,4.01,1.97,0,0h0Z"/>
  <polygon class="cls-2" points="235.57 156.09 227.55 156.09 227.55 248.55 203.63 248.55 203.63 156.09 195.61 156.09 215.59 136.11 235.57 156.09 235.57 156.09"/>
  <g>
    <path class="cls-3" d="m272.15,202.71h-5.9v5.98c0,.79-.48,1.28-1.28,1.28h-3.56c-.79,0-1.28-.48-1.28-1.28v-5.98h-5.9c-.84,0-1.28-.44-1.28-1.23v-3.61c0-.79.44-1.28,1.28-1.28h5.85v-5.99c0-.79.48-1.28,1.28-1.28h3.61c.79,0,1.28.48,1.28,1.28v5.99h5.9c.79,0,1.28.48,1.28,1.28v3.61c0,.79-.48,1.23-1.28,1.23Z"/>
    <path class="cls-3" d="m296.53,209.23v3.78c0,.79-.48,1.28-1.28,1.28h-18.22c-.79,0-1.28-.48-1.28-1.28v-3.61c0-.66.22-1.1.66-1.58,4.67-4.53,11.4-10.3,11.4-15.27,0-1.98-1.23-3.3-3.04-3.3-1.58,0-3.56.88-5.32,2.42-.66.53-1.28.53-1.8-.13l-2.2-2.64c-.48-.57-.53-1.19-.04-1.76,2.77-3.12,6.6-4.44,10.12-4.44,6.51,0,10.87,3.48,10.87,8.76s-3.52,10.12-10.03,16.5h8.89c.79,0,1.28.44,1.28,1.28Z"/>
    <path class="cls-3" d="m298.86,213.01v-5.76c0-.79.48-1.28,1.28-1.28h6.2c.79,0,1.28.48,1.28,1.28v5.76c0,.79-.48,1.28-1.28,1.28h-6.2c-.79,0-1.28-.48-1.28-1.28Z"/>
    <path class="cls-3" d="m329.4,209.23v3.78c0,.79-.48,1.28-1.28,1.28h-18c-.84,0-1.28-.48-1.28-1.28v-3.78c0-.84.44-1.28,1.28-1.28h5.59v-15.67l-4.4,2.46c-.7.4-1.28.22-1.76-.35l-2.55-3.04c-.53-.7-.44-1.32.31-1.76l9.59-5.63c.53-.31,1.01-.44,1.58-.44h4.18c.79,0,1.23.48,1.23,1.28v23.15h4.22c.79,0,1.28.44,1.28,1.28Z"/>
    <path class="cls-3" d="m330.62,191.23c0-5.06,3.08-8.14,8.14-8.14s8.14,3.08,8.14,8.14-3.08,8.14-8.14,8.14-8.14-3.12-8.14-8.14Zm10.74,23.06h-4.14c-1.01,0-1.36-.66-.79-1.54l19.5-28.43c.35-.57.84-.79,1.5-.79h4.14c1.01,0,1.41.66.79,1.54l-19.45,28.43c-.4.57-.88.79-1.54.79Zm-.35-23.06c0-2.16-.79-3.34-2.24-3.34s-2.24,1.19-2.24,3.34.79,3.3,2.24,3.3,2.24-1.19,2.24-3.3Zm10.83,15.36c0-5.06,3.08-8.14,8.14-8.14s8.14,3.08,8.14,8.14-3.08,8.19-8.14,8.19-8.14-3.12-8.14-8.19Zm10.39,0c0-2.11-.79-3.3-2.25-3.3s-2.24,1.19-2.24,3.3.79,3.34,2.24,3.34,2.25-1.19,2.25-3.34Z"/>
    <path class="cls-3" d="m248.28,233.68v1.99c0,.38-.21.61-.61.61h-8.08c-.38,0-.61-.23-.61-.61v-13.46c0-.38.23-.61.61-.61h2.98c.38,0,.61.23.61.61v10.88h4.49c.4,0,.61.21.61.59Z"/>
    <path class="cls-3" d="m259.05,228.29v7.39c0,.38-.21.61-.61.61h-2.48c-.38,0-.59-.23-.59-.61v-.34c-.82.84-2.04,1.34-3.15,1.34-2.02,0-3.36-1.45-3.36-3.61s1.79-3.61,4.45-3.61h1.81v-.65c0-.95-.61-1.34-1.83-1.34-.57,0-1.26.15-1.83.4-.34.17-.61.13-.84-.19l-.97-1.34c-.23-.34-.17-.65.17-.84,1.2-.65,2.79-1.07,4.16-1.07,3.32,0,5.06,1.32,5.06,3.86Zm-3.93,3.13h-1.15c-.74,0-1.16.46-1.16,1.3,0,.69.38,1.11.99,1.11.52,0,1.01-.29,1.32-.82v-1.6Z"/>
    <path class="cls-3" d="m265.96,229.17c1.62.44,3.78.99,3.78,3.59,0,2.35-2.12,3.93-5.29,3.93-1.6,0-3.28-.48-4.39-1.26-.32-.23-.36-.52-.13-.86l.99-1.34c.23-.32.5-.36.86-.15.71.4,1.66.65,2.44.65.86,0,1.39-.29,1.39-.74,0-.54-.5-.71-1.53-.99-1.55-.42-3.93-1.18-3.93-3.78,0-2.39,1.81-3.8,4.85-3.8,1.32,0,2.88.4,4.03,1.05.36.19.4.5.17.84l-.99,1.34c-.21.34-.48.36-.82.19-.59-.29-1.32-.46-1.97-.46-.73,0-1.26.29-1.26.71,0,.57.59.71,1.81,1.07Z"/>
    <path class="cls-3" d="m271.61,232.72v-5h-.88c-.38,0-.59-.21-.59-.61v-1.24c0-.34.15-.59.48-.69l.4-.08c.38-.15.61-.27.71-.94l.19-1.2c.06-.38.29-.55.67-.55h2.46c.38,0,.59.23.59.61v1.83h2c.4,0,.61.21.61.59v1.68c0,.4-.21.61-.61.61h-2v4.64c0,.84.36,1.18,1.01,1.18.25,0,.53-.06.88-.15.4-.1.67.04.74.44l.25,1.7c.06.38-.15.65-.57.78-.84.25-1.62.38-2.35.38-2.35,0-3.99-1.32-3.99-3.97Z"/>
    <path class="cls-3" d="m293.93,233.87v1.8c0,.38-.23.61-.61.61h-8.59c-.4,0-.61-.23-.61-.61v-1.8c0-.4.21-.61.61-.61h2.67v-7.47l-2.1,1.18c-.34.19-.61.11-.84-.17l-1.22-1.45c-.25-.34-.21-.63.15-.84l4.58-2.69c.25-.15.48-.21.76-.21h1.99c.38,0,.59.23.59.61v11.04h2.02c.38,0,.61.21.61.61Z"/>
    <path class="cls-3" d="m304.22,233.87v1.8c0,.38-.23.61-.61.61h-8.69c-.38,0-.61-.23-.61-.61v-1.72c0-.32.1-.53.31-.76,2.23-2.16,5.44-4.91,5.44-7.29,0-.94-.59-1.58-1.45-1.58-.76,0-1.7.42-2.54,1.16-.32.25-.61.25-.86-.06l-1.05-1.26c-.23-.27-.25-.57-.02-.84,1.32-1.49,3.15-2.12,4.83-2.12,3.11,0,5.19,1.66,5.19,4.18s-1.68,4.83-4.79,7.87h4.24c.38,0,.61.21.61.61Z"/>
    <path class="cls-3" d="m326.27,227.93v7.75c0,.38-.23.61-.61.61h-2.83c-.38,0-.61-.23-.61-.61v-7.05c0-.67-.25-1.05-.74-1.05-.42,0-.82.31-1.09.86v7.24c0,.38-.23.61-.61.61h-2.83c-.38,0-.61-.23-.61-.61v-7.05c0-.71-.19-1.05-.65-1.05s-.88.31-1.2.9v7.2c0,.38-.23.61-.61.61h-2.81c-.4,0-.61-.23-.61-.61v-10.25c0-.38.21-.59.61-.59h2.65c.38,0,.61.21.61.59v.8c.65-1.07,1.93-1.81,3.15-1.81s2.14.67,2.6,1.76c.65-1.05,1.89-1.76,3.04-1.76,1.97,0,3.15,1.32,3.15,3.51Z"/>
    <path class="cls-3" d="m339.12,230.56c0,3.82-2.16,6.13-5.73,6.13s-5.75-2.31-5.75-6.13,2.16-6.13,5.75-6.13,5.73,2.33,5.73,6.13Zm-4.14,0c0-1.93-.57-2.98-1.6-2.98s-1.62,1.05-1.62,2.98.57,3,1.62,3,1.6-1.07,1.6-3Z"/>
    <path class="cls-3" d="m350.82,227.93v7.75c0,.38-.23.61-.61.61h-2.83c-.38,0-.59-.23-.59-.61v-7.05c0-.67-.31-1.05-.84-1.05s-1.03.4-1.34,1.07v7.03c0,.38-.23.61-.61.61h-2.81c-.4,0-.61-.23-.61-.61v-10.25c0-.38.21-.59.61-.59h2.65c.38,0,.61.21.61.59v.8c.67-1.11,1.97-1.81,3.19-1.81,1.93,0,3.19,1.43,3.19,3.51Z"/>
    <path class="cls-3" d="m353.19,232.72v-5h-.88c-.38,0-.59-.21-.59-.61v-1.24c0-.34.15-.59.48-.69l.4-.08c.38-.15.61-.27.71-.94l.19-1.2c.06-.38.29-.55.67-.55h2.46c.38,0,.59.23.59.61v1.83h1.99c.4,0,.61.21.61.59v1.68c0,.4-.21.61-.61.61h-1.99v4.64c0,.84.36,1.18,1.01,1.18.25,0,.52-.06.88-.15.4-.1.67.04.73.44l.25,1.7c.06.38-.15.65-.57.78-.84.25-1.62.38-2.35.38-2.35,0-3.99-1.32-3.99-3.97Z"/>
    <path class="cls-3" d="m371.21,227.93v7.75c0,.38-.23.61-.61.61h-2.83c-.38,0-.59-.23-.59-.61v-7.05c0-.71-.27-1.05-.86-1.05-.48,0-.99.31-1.32.92v7.18c0,.38-.23.61-.61.61h-2.81c-.4,0-.61-.23-.61-.61v-14.49c0-.38.21-.61.61-.61h2.81c.38,0,.61.23.61.61v4.79c.73-.97,1.87-1.55,3.02-1.55,2.02,0,3.19,1.32,3.19,3.51Z"/>
    <path class="cls-3" d="m378.12,229.17c1.62.44,3.78.99,3.78,3.59,0,2.35-2.12,3.93-5.29,3.93-1.6,0-3.28-.48-4.39-1.26-.31-.23-.36-.52-.13-.86l.99-1.34c.23-.32.5-.36.86-.15.71.4,1.66.65,2.44.65.86,0,1.39-.29,1.39-.74,0-.54-.5-.71-1.53-.99-1.55-.42-3.93-1.18-3.93-3.78,0-2.39,1.81-3.8,4.85-3.8,1.32,0,2.88.4,4.03,1.05.36.19.4.5.17.84l-.99,1.34c-.21.34-.48.36-.82.19-.59-.29-1.32-.46-1.97-.46-.74,0-1.26.29-1.26.71,0,.57.59.71,1.81,1.07Z"/>
  </g>
  <g>
    <path class="cls-3" d="m76.75,202.71h-5.9v5.98c0,.79-.48,1.28-1.28,1.28h-3.56c-.79,0-1.28-.48-1.28-1.28v-5.98h-5.9c-.84,0-1.28-.44-1.28-1.23v-3.61c0-.79.44-1.28,1.28-1.28h5.85v-5.99c0-.79.48-1.28,1.28-1.28h3.61c.79,0,1.28.48,1.28,1.28v5.99h5.9c.79,0,1.28.48,1.28,1.28v3.61c0,.79-.48,1.23-1.28,1.23Z"/>
    <path class="cls-3" d="m105.26,198.93c0,10.52-4.18,16.19-12.1,16.19s-12.1-5.68-12.1-16.19,4.18-16.24,12.1-16.24,12.1,5.68,12.1,16.24Zm-8.62,0c0-6.82-1.01-9.5-3.48-9.5s-3.48,2.68-3.48,9.5,1.01,9.46,3.48,9.46,3.48-2.68,3.48-9.46Z"/>
    <path class="cls-3" d="m107.5,213.01v-5.76c0-.79.48-1.28,1.28-1.28h6.21c.79,0,1.28.48,1.28,1.28v5.76c0,.79-.48,1.28-1.28,1.28h-6.21c-.79,0-1.28-.48-1.28-1.28Z"/>
    <path class="cls-3" d="m138.57,209.23v3.78c0,.79-.48,1.28-1.28,1.28h-18.22c-.79,0-1.28-.48-1.28-1.28v-3.61c0-.66.22-1.1.66-1.58,4.67-4.53,11.4-10.3,11.4-15.27,0-1.98-1.23-3.3-3.04-3.3-1.58,0-3.56.88-5.32,2.42-.66.53-1.28.53-1.8-.13l-2.2-2.64c-.48-.57-.53-1.19-.04-1.76,2.77-3.12,6.6-4.44,10.12-4.44,6.51,0,10.87,3.48,10.87,8.76s-3.52,10.12-10.03,16.5h8.89c.79,0,1.28.44,1.28,1.28Z"/>
    <path class="cls-3" d="m140.86,191.23c0-5.06,3.08-8.14,8.14-8.14s8.14,3.08,8.14,8.14-3.08,8.14-8.14,8.14-8.14-3.12-8.14-8.14Zm10.74,23.06h-4.14c-1.01,0-1.36-.66-.79-1.54l19.5-28.43c.35-.57.84-.79,1.5-.79h4.14c1.01,0,1.41.66.79,1.54l-19.45,28.43c-.4.57-.88.79-1.54.79Zm-.35-23.06c0-2.16-.79-3.34-2.24-3.34s-2.24,1.19-2.24,3.34.79,3.3,2.24,3.3,2.24-1.19,2.24-3.3Zm10.83,15.36c0-5.06,3.08-8.14,8.14-8.14s8.14,3.08,8.14,8.14-3.08,8.19-8.14,8.19-8.14-3.12-8.14-8.19Zm10.39,0c0-2.11-.79-3.3-2.24-3.3s-2.24,1.19-2.24,3.3.79,3.34,2.24,3.34,2.24-1.19,2.24-3.34Z"/>
    <path class="cls-3" d="m68.7,233.68v1.99c0,.38-.21.61-.61.61h-8.08c-.38,0-.61-.23-.61-.61v-13.46c0-.38.23-.61.61-.61h2.98c.38,0,.61.23.61.61v10.88h4.49c.4,0,.61.21.61.59Z"/>
    <path class="cls-3" d="m79.47,228.29v7.39c0,.38-.21.61-.61.61h-2.48c-.38,0-.59-.23-.59-.61v-.34c-.82.84-2.04,1.34-3.15,1.34-2.02,0-3.36-1.45-3.36-3.61s1.78-3.61,4.45-3.61h1.81v-.65c0-.95-.61-1.34-1.83-1.34-.57,0-1.26.15-1.83.4-.34.17-.61.13-.84-.19l-.97-1.34c-.23-.34-.17-.65.17-.84,1.2-.65,2.79-1.07,4.16-1.07,3.32,0,5.06,1.32,5.06,3.86Zm-3.93,3.13h-1.15c-.73,0-1.15.46-1.15,1.3,0,.69.38,1.11.99,1.11.52,0,1.01-.29,1.32-.82v-1.6Z"/>
    <path class="cls-3" d="m86.38,229.17c1.62.44,3.78.99,3.78,3.59,0,2.35-2.12,3.93-5.29,3.93-1.6,0-3.28-.48-4.39-1.26-.31-.23-.36-.52-.13-.86l.99-1.34c.23-.32.5-.36.86-.15.71.4,1.66.65,2.44.65.86,0,1.39-.29,1.39-.74,0-.54-.5-.71-1.53-.99-1.55-.42-3.93-1.18-3.93-3.78,0-2.39,1.81-3.8,4.85-3.8,1.32,0,2.88.4,4.03,1.05.36.19.4.5.17.84l-.99,1.34c-.21.34-.48.36-.82.19-.59-.29-1.32-.46-1.97-.46-.73,0-1.26.29-1.26.71,0,.57.59.71,1.81,1.07Z"/>
    <path class="cls-3" d="m92.03,232.72v-5h-.88c-.38,0-.59-.21-.59-.61v-1.24c0-.34.15-.59.48-.69l.4-.08c.38-.15.61-.27.71-.94l.19-1.2c.06-.38.29-.55.67-.55h2.46c.38,0,.59.23.59.61v1.83h1.99c.4,0,.61.21.61.59v1.68c0,.4-.21.61-.61.61h-1.99v4.64c0,.84.36,1.18,1.01,1.18.25,0,.52-.06.88-.15.4-.1.67.04.73.44l.25,1.7c.06.38-.15.65-.57.78-.84.25-1.62.38-2.35.38-2.35,0-3.99-1.32-3.99-3.97Z"/>
    <path class="cls-3" d="m111.22,240.42v-5.1c-.76.88-1.93,1.36-3.17,1.36-2.46,0-3.97-2.31-3.97-6.13s1.7-6.11,4.51-6.11c1.09,0,2.18.55,2.92,1.41v-.42c0-.38.21-.59.59-.59h2.54c.4,0,.61.21.61.59v14.99c0,.4-.21.61-.61.61h-2.81c-.38,0-.61-.21-.61-.61Zm0-7.96v-3.82c-.36-.67-.9-1.09-1.53-1.09-.94,0-1.47,1.07-1.47,3.04s.5,2.96,1.43,2.96c.65,0,1.22-.38,1.57-1.09Z"/>
    <path class="cls-3" d="m127.14,225.43v10.25c0,.38-.23.61-.61.61h-2.54c-.38,0-.61-.23-.61-.61v-.78c-.69,1.13-1.97,1.78-3.19,1.78-1.93,0-3.17-1.38-3.17-3.48v-7.77c0-.38.21-.59.61-.59h2.81c.4,0,.61.21.61.59v7.05c0,.71.29,1.09.82,1.09.48,0,.92-.31,1.22-.88v-7.27c0-.38.23-.59.61-.59h2.83c.38,0,.61.21.61.59Z"/>
    <path class="cls-3" d="m138.61,228.29v7.39c0,.38-.21.61-.61.61h-2.48c-.38,0-.59-.23-.59-.61v-.34c-.82.84-2.04,1.34-3.15,1.34-2.02,0-3.36-1.45-3.36-3.61s1.78-3.61,4.45-3.61h1.81v-.65c0-.95-.61-1.34-1.83-1.34-.57,0-1.26.15-1.83.4-.34.17-.61.13-.84-.19l-.97-1.34c-.23-.34-.17-.65.17-.84,1.2-.65,2.79-1.07,4.16-1.07,3.32,0,5.06,1.32,5.06,3.86Zm-3.93,3.13h-1.15c-.73,0-1.15.46-1.15,1.3,0,.69.38,1.11.99,1.11.52,0,1.01-.29,1.32-.82v-1.6Z"/>
    <path class="cls-3" d="m148.06,225.33l-.4,2.73c-.06.4-.29.55-.63.48-.19-.04-.38-.06-.57-.06-.94,0-1.72.63-2.06,1.62v5.58c0,.38-.23.61-.61.61h-2.81c-.4,0-.61-.23-.61-.61v-10.25c0-.38.21-.59.61-.59h2.65c.38,0,.61.21.61.59v.95c.55-1.22,1.51-1.95,2.6-1.95.27,0,.59.06.84.15.34.1.42.4.38.76Z"/>
    <path class="cls-3" d="m149.51,232.72v-5h-.88c-.38,0-.59-.21-.59-.61v-1.24c0-.34.15-.59.48-.69l.4-.08c.38-.15.61-.27.71-.94l.19-1.2c.06-.38.29-.55.67-.55h2.46c.38,0,.59.23.59.61v1.83h1.99c.4,0,.61.21.61.59v1.68c0,.4-.21.61-.61.61h-1.99v4.64c0,.84.36,1.18,1.01,1.18.25,0,.52-.06.88-.15.4-.1.67.04.73.44l.25,1.7c.06.38-.15.65-.57.78-.84.25-1.62.38-2.35.38-2.35,0-3.99-1.32-3.99-3.97Z"/>
    <path class="cls-3" d="m156.67,230.56c0-3.8,2.18-6.13,5.79-6.13,3.3,0,5.23,2.16,5.23,5.75,0,.34-.02.71-.08,1.09-.04.36-.27.54-.63.54h-6.19c.31,1.2,1.15,1.83,2.5,1.83.61,0,1.36-.17,1.99-.44.36-.15.61-.08.84.21l.86,1.18c.21.32.19.61-.1.82-1.13.82-2.81,1.28-4.41,1.28-3.61,0-5.79-2.31-5.79-6.13Zm7.14-1.09c-.02-1.41-.57-2.22-1.47-2.22s-1.49.76-1.68,2.22h3.15Z"/>
    <path class="cls-3" d="m176.76,225.33l-.4,2.73c-.06.4-.29.55-.63.48-.19-.04-.38-.06-.57-.06-.94,0-1.72.63-2.06,1.62v5.58c0,.38-.23.61-.61.61h-2.81c-.4,0-.61-.23-.61-.61v-10.25c0-.38.21-.59.61-.59h2.65c.38,0,.61.21.61.59v.95c.55-1.22,1.51-1.95,2.6-1.95.27,0,.59.06.84.15.34.1.42.4.38.76Z"/>
  </g>
  <path class="cls-1" d="m336.75,376.42c0,1.45,2.73,5.79,2.73,7.23,1.36,1.45,2.73,2.89,2.73,4.34s-1.36,1.45-1.36,2.89c1.36,4.34,5.46,7.23,8.19,8.68,2.73,0,2.73-2.89,4.09-4.34l1.36,2.89c0-1.45,0-4.34,1.36-4.34,1.36-1.45,1.36,1.45,2.73,1.45-1.36,0,2.73-10.13,2.73-11.57s1.36-10.13-2.73-8.68c-4.09,1.45-8.19,4.34-12.28,2.89-1.36,0-8.19-4.34-9.55-1.45,0,1.45,1.36-2.89,0,0h0Z"/>
  <path class="cls-1" d="m361.39,363.27c0-1.08-3.6,3.24-2.4,4.32,1.2,0,2.4-1.08,2.4-4.32h0Z"/>
  <path class="cls-1" d="m335.4,368.94c-1.8,0-1.8-3.6,0-3.6s1.8,3.6,0,3.6h0Z"/>
  <g>
    <path class="cls-5" d="m7.15,423.42c-.24-.18-.26-.42-.1-.66l.86-1.26c.16-.22.37-.29.62-.13.8.48,1.92.88,2.71.88s1.26-.32,1.28-.94c0-.82-.66-1.02-1.94-1.44-1.5-.53-3.38-1.26-3.38-3.47s1.71-3.52,4.55-3.52c1.15,0,2.42.34,3.3.88.26.16.29.38.11.64l-.83,1.23c-.14.24-.37.27-.62.16-.61-.27-1.31-.45-1.9-.45-.8,0-1.26.3-1.26.79,0,.59.53.78,1.7,1.15,1.54.46,3.62,1.12,3.6,3.67,0,2.51-2.08,3.73-4.55,3.73-1.44,0-2.98-.45-4.15-1.25Z"/>
    <path class="cls-5" d="m16.51,419.99c0-2.9,1.66-4.67,4.42-4.67,2.51,0,3.99,1.65,3.99,4.39,0,.26-.02.54-.06.83-.03.27-.21.42-.48.42h-4.72c.24.91.88,1.39,1.9,1.39.46,0,1.04-.13,1.52-.34.27-.11.46-.06.64.16l.66.9c.16.24.14.46-.08.62-.86.62-2.14.98-3.36.98-2.75,0-4.42-1.76-4.42-4.67Zm5.44-.83c-.02-1.07-.43-1.7-1.12-1.7s-1.14.58-1.28,1.7h2.4Z"/>
    <path class="cls-5" d="m34.43,420.01c0,2.9-1.3,4.66-3.43,4.66-.7,0-1.44-.3-1.97-.82v3.67c0,.3-.18.46-.46.46h-2.15c-.3,0-.46-.16-.46-.46v-11.43c0-.29.16-.45.46-.45h2.02c.29,0,.46.16.46.45v.59c.51-.83,1.5-1.34,2.5-1.34,1.89,0,3.03,1.76,3.03,4.67Zm-3.15-.03c0-1.46-.38-2.26-1.09-2.26-.46,0-.88.27-1.15.78v2.99c.27.5.67.78,1.14.78.72,0,1.1-.82,1.1-2.3Z"/>
    <path class="cls-5" d="m36.01,421.64v-3.81h-.67c-.29,0-.45-.16-.45-.46v-.94c0-.26.11-.45.37-.53l.3-.06c.29-.11.46-.21.54-.72l.14-.91c.05-.29.22-.42.51-.42h1.87c.29,0,.45.18.45.46v1.39h1.52c.3,0,.46.16.46.45v1.28c0,.3-.16.46-.46.46h-1.52v3.54c0,.64.27.9.77.9.19,0,.4-.05.67-.11.3-.08.51.03.56.34l.19,1.3c.05.29-.11.5-.43.59-.64.19-1.23.29-1.79.29-1.79,0-3.04-1.01-3.04-3.03Z"/>
    <path class="cls-5" d="m41.47,419.99c0-2.9,1.66-4.67,4.42-4.67,2.51,0,3.99,1.65,3.99,4.39,0,.26-.02.54-.06.83-.03.27-.21.42-.48.42h-4.72c.24.91.88,1.39,1.9,1.39.46,0,1.04-.13,1.52-.34.27-.11.46-.06.64.16l.66.9c.16.24.14.46-.08.62-.86.62-2.14.98-3.36.98-2.75,0-4.42-1.76-4.42-4.67Zm5.44-.83c-.02-1.07-.43-1.7-1.12-1.7s-1.14.58-1.28,1.7h2.4Z"/>
    <path class="cls-5" d="m62.98,417.99v5.91c0,.29-.18.46-.46.46h-2.16c-.29,0-.46-.18-.46-.46v-5.38c0-.51-.19-.8-.56-.8-.32,0-.62.24-.83.66v5.52c0,.29-.18.46-.46.46h-2.16c-.29,0-.46-.18-.46-.46v-5.38c0-.54-.14-.8-.5-.8s-.67.24-.91.69v5.49c0,.29-.18.46-.46.46h-2.15c-.3,0-.46-.18-.46-.46v-7.81c0-.29.16-.45.46-.45h2.02c.29,0,.46.16.46.45v.61c.5-.82,1.47-1.38,2.4-1.38s1.63.51,1.98,1.34c.5-.8,1.44-1.34,2.32-1.34,1.5,0,2.4,1.01,2.4,2.67Z"/>
    <path class="cls-5" d="m67.12,423.56v.34c0,.29-.16.46-.46.46h-1.87c-.3,0-.46-.18-.46-.46v-11.04c0-.29.16-.46.46-.46h2.15c.29,0,.46.18.46.46v3.65c.54-.72,1.44-1.17,2.37-1.17,1.89,0,3.03,1.76,3.03,4.67s-1.3,4.66-3.43,4.66c-.83,0-1.71-.43-2.24-1.1Zm2.51-3.58c0-1.46-.38-2.26-1.09-2.26-.46,0-.88.29-1.15.78v3.01c.27.5.67.77,1.14.77.72,0,1.1-.82,1.1-2.3Z"/>
    <path class="cls-5" d="m73.59,419.99c0-2.9,1.66-4.67,4.42-4.67,2.51,0,3.99,1.65,3.99,4.39,0,.26-.02.54-.06.83-.03.27-.21.42-.48.42h-4.72c.24.91.88,1.39,1.9,1.39.46,0,1.04-.13,1.52-.34.27-.11.46-.06.64.16l.66.9c.16.24.14.46-.08.62-.86.62-2.14.98-3.36.98-2.75,0-4.42-1.76-4.42-4.67Zm5.44-.83c-.02-1.07-.43-1.7-1.12-1.7s-1.14.58-1.28,1.7h2.4Z"/>
    <path class="cls-5" d="m88.91,416.01l-.3,2.08c-.05.3-.22.42-.48.37-.14-.03-.29-.05-.43-.05-.72,0-1.31.48-1.57,1.23v4.26c0,.29-.18.46-.46.46h-2.15c-.3,0-.46-.18-.46-.46v-7.81c0-.29.16-.45.46-.45h2.02c.29,0,.46.16.46.45v.72c.42-.93,1.15-1.49,1.98-1.49.21,0,.45.05.64.11.26.08.32.3.29.58Z"/>
    <path class="cls-5" d="m98.22,427.52v-3.89c-.58.67-1.47,1.04-2.42,1.04-1.87,0-3.02-1.76-3.02-4.67s1.3-4.66,3.44-4.66c.83,0,1.66.42,2.22,1.07v-.32c0-.29.16-.45.45-.45h1.94c.3,0,.46.16.46.45v11.43c0,.3-.16.46-.46.46h-2.14c-.29,0-.46-.16-.46-.46Zm0-6.07v-2.91c-.27-.51-.69-.83-1.17-.83-.72,0-1.12.82-1.12,2.32s.38,2.26,1.09,2.26c.5,0,.93-.29,1.2-.83Z"/>
    <path class="cls-5" d="m110.35,416.09v7.81c0,.29-.18.46-.46.46h-1.94c-.29,0-.46-.18-.46-.46v-.59c-.53.86-1.5,1.36-2.43,1.36-1.47,0-2.42-1.06-2.42-2.66v-5.92c0-.29.16-.45.46-.45h2.15c.3,0,.46.16.46.45v5.38c0,.54.22.83.62.83.37,0,.7-.24.93-.67v-5.54c0-.29.18-.45.46-.45h2.16c.29,0,.46.16.46.45Z"/>
    <path class="cls-5" d="m119.08,418.26v5.63c0,.29-.16.46-.46.46h-1.89c-.29,0-.45-.18-.45-.46v-.26c-.62.64-1.55,1.02-2.4,1.02-1.54,0-2.56-1.1-2.56-2.75s1.36-2.75,3.39-2.75h1.38v-.5c0-.72-.46-1.02-1.39-1.02-.43,0-.96.11-1.39.3-.26.13-.46.1-.64-.14l-.74-1.02c-.18-.26-.13-.5.13-.64.91-.5,2.13-.82,3.17-.82,2.53,0,3.86,1.01,3.86,2.95Zm-2.99,2.38h-.88c-.56,0-.88.35-.88.99,0,.53.29.85.75.85.4,0,.77-.22,1.01-.62v-1.22Z"/>
    <path class="cls-5" d="m126.28,416.01l-.3,2.08c-.05.3-.22.42-.48.37-.14-.03-.29-.05-.43-.05-.72,0-1.31.48-1.57,1.23v4.26c0,.29-.18.46-.46.46h-2.15c-.3,0-.46-.18-.46-.46v-7.81c0-.29.16-.45.46-.45h2.02c.29,0,.46.16.46.45v.72c.42-.93,1.15-1.49,1.98-1.49.21,0,.45.05.64.11.26.08.32.3.29.58Z"/>
    <path class="cls-5" d="m127.39,421.64v-3.81h-.67c-.29,0-.45-.16-.45-.46v-.94c0-.26.11-.45.37-.53l.3-.06c.29-.11.46-.21.54-.72l.14-.91c.05-.29.22-.42.51-.42h1.87c.29,0,.45.18.45.46v1.39h1.52c.3,0,.46.16.46.45v1.28c0,.3-.16.46-.46.46h-1.52v3.54c0,.64.27.9.77.9.19,0,.4-.05.67-.11.3-.08.51.03.56.34l.19,1.3c.05.29-.11.5-.43.59-.64.19-1.23.29-1.79.29-1.79,0-3.04-1.01-3.04-3.03Z"/>
    <path class="cls-5" d="m132.84,419.99c0-2.9,1.66-4.67,4.42-4.67,2.51,0,3.99,1.65,3.99,4.39,0,.26-.02.54-.06.83-.03.27-.21.42-.48.42h-4.72c.24.91.88,1.39,1.9,1.39.46,0,1.04-.13,1.52-.34.27-.11.46-.06.64.16l.66.9c.16.24.14.46-.08.62-.86.62-2.14.98-3.36.98-2.75,0-4.42-1.76-4.42-4.67Zm5.44-.83c-.02-1.07-.43-1.7-1.12-1.7s-1.14.58-1.28,1.7h2.4Z"/>
    <path class="cls-5" d="m148.16,416.01l-.3,2.08c-.05.3-.22.42-.48.37-.14-.03-.29-.05-.43-.05-.72,0-1.31.48-1.57,1.23v4.26c0,.29-.18.46-.46.46h-2.15c-.3,0-.46-.18-.46-.46v-7.81c0-.29.16-.45.46-.45h2.02c.29,0,.46.16.46.45v.72c.42-.93,1.15-1.49,1.98-1.49.21,0,.45.05.64.11.26.08.32.3.29.58Z"/>
    <path class="cls-5" d="m147.75,421.34h2.26c.29,0,.46.18.46.46v1.99c0,1.86-1.02,3.04-2.75,3.26-.29.05-.45-.11-.5-.4l-.03-.21c-.05-.29.1-.45.37-.54.64-.24,1.01-.78,1.04-1.54h-.85c-.29,0-.46-.18-.46-.46v-2.1c0-.29.18-.46.46-.46Z"/>
    <path class="cls-5" d="m154.81,419.99c0-2.82,1.78-4.67,4.42-4.67,1.01,0,2.02.3,2.72.8.24.19.27.4.1.66l-.85,1.18c-.18.22-.38.22-.64.08-.27-.16-.58-.22-.88-.22-1.1,0-1.66.72-1.66,2.18s.54,2.19,1.68,2.19c.29,0,.61-.1.88-.24.27-.16.46-.16.64.08l.85,1.18c.18.24.18.45-.03.61-.72.53-1.74.85-2.8.85-2.67,0-4.42-1.84-4.42-4.67Z"/>
    <path class="cls-5" d="m170.56,417.99v5.91c0,.29-.18.46-.46.46h-2.16c-.29,0-.45-.18-.45-.46v-5.38c0-.54-.21-.8-.66-.8-.37,0-.75.24-1.01.7v5.47c0,.29-.18.46-.46.46h-2.14c-.3,0-.46-.18-.46-.46v-11.04c0-.29.16-.46.46-.46h2.14c.29,0,.46.18.46.46v3.65c.56-.74,1.42-1.18,2.3-1.18,1.54,0,2.43,1.01,2.43,2.67Z"/>
    <path class="cls-5" d="m179.24,418.26v5.63c0,.29-.16.46-.46.46h-1.89c-.29,0-.45-.18-.45-.46v-.26c-.62.64-1.55,1.02-2.4,1.02-1.54,0-2.56-1.1-2.56-2.75s1.36-2.75,3.39-2.75h1.38v-.5c0-.72-.46-1.02-1.39-1.02-.43,0-.96.11-1.39.3-.26.13-.46.1-.64-.14l-.74-1.02c-.18-.26-.13-.5.13-.64.91-.5,2.13-.82,3.17-.82,2.53,0,3.86,1.01,3.86,2.95Zm-2.99,2.38h-.88c-.56,0-.88.35-.88.99,0,.53.29.85.75.85.4,0,.77-.22,1.01-.62v-1.22Z"/>
    <path class="cls-5" d="m180.57,414.18v-1.33c0-.29.16-.46.46-.46h2.19c.29,0,.46.18.46.46v1.33c0,.3-.18.46-.46.46h-2.19c-.3,0-.46-.16-.46-.46Zm.02,9.72v-7.81c0-.29.18-.45.46-.45h2.16c.29,0,.45.16.45.45v7.81c0,.29-.16.46-.45.46h-2.16c-.29,0-.46-.18-.46-.46Z"/>
    <path class="cls-5" d="m192.89,417.99v5.91c0,.29-.18.46-.46.46h-2.16c-.29,0-.45-.18-.45-.46v-5.38c0-.51-.24-.8-.64-.8s-.78.3-1.02.82v5.36c0,.29-.18.46-.46.46h-2.14c-.3,0-.46-.18-.46-.46v-7.81c0-.29.16-.45.46-.45h2.02c.29,0,.46.16.46.45v.61c.51-.85,1.5-1.38,2.43-1.38,1.47,0,2.43,1.09,2.43,2.67Z"/>
    <path class="cls-5" d="m199.37,423.98l-2.38-7.83c-.1-.3.05-.51.38-.51h2.27c.29,0,.45.11.51.4l1.14,5.68h.05l1.15-5.68c.05-.29.22-.4.5-.4h2.21c.34,0,.48.21.38.51l-2.37,7.83c-.08.26-.26.38-.51.38h-2.82c-.26,0-.43-.13-.51-.38Z"/>
    <path class="cls-5" d="m214.46,419.99c0,2.91-1.65,4.67-4.37,4.67s-4.39-1.76-4.39-4.67,1.65-4.67,4.39-4.67,4.37,1.78,4.37,4.67Zm-3.15,0c0-1.47-.43-2.27-1.22-2.27s-1.23.8-1.23,2.27.43,2.29,1.23,2.29,1.22-.82,1.22-2.29Z"/>
    <path class="cls-5" d="m215.5,423.9v-11.04c0-.29.16-.46.46-.46h2.15c.3,0,.46.18.46.46v11.04c0,.29-.16.46-.46.46h-2.15c-.3,0-.46-.18-.46-.46Z"/>
    <path class="cls-5" d="m227.56,416.09v7.81c0,.29-.18.46-.46.46h-1.94c-.29,0-.46-.18-.46-.46v-.59c-.53.86-1.5,1.36-2.43,1.36-1.47,0-2.42-1.06-2.42-2.66v-5.92c0-.29.16-.45.46-.45h2.14c.3,0,.46.16.46.45v5.38c0,.54.22.83.62.83.37,0,.7-.24.93-.67v-5.54c0-.29.18-.45.46-.45h2.16c.29,0,.46.16.46.45Z"/>
    <path class="cls-5" d="m241,417.99v5.91c0,.29-.18.46-.46.46h-2.16c-.29,0-.46-.18-.46-.46v-5.38c0-.51-.19-.8-.56-.8-.32,0-.62.24-.83.66v5.52c0,.29-.18.46-.46.46h-2.16c-.29,0-.46-.18-.46-.46v-5.38c0-.54-.14-.8-.5-.8s-.67.24-.91.69v5.49c0,.29-.18.46-.46.46h-2.14c-.3,0-.46-.18-.46-.46v-7.81c0-.29.16-.45.46-.45h2.02c.29,0,.46.16.46.45v.61c.5-.82,1.47-1.38,2.4-1.38s1.63.51,1.98,1.34c.5-.8,1.44-1.34,2.32-1.34,1.5,0,2.4,1.01,2.4,2.67Z"/>
    <path class="cls-5" d="m242.04,419.99c0-2.9,1.66-4.67,4.42-4.67,2.51,0,3.99,1.65,3.99,4.39,0,.26-.02.54-.06.83-.03.27-.21.42-.48.42h-4.72c.24.91.88,1.39,1.91,1.39.46,0,1.04-.13,1.52-.34.27-.11.46-.06.64.16l.66.9c.16.24.14.46-.08.62-.86.62-2.15.98-3.36.98-2.75,0-4.42-1.76-4.42-4.67Zm5.44-.83c-.02-1.07-.43-1.7-1.12-1.7s-1.14.58-1.28,1.7h2.4Z"/>
    <path class="cls-5" d="m267.12,417.99v5.91c0,.29-.18.46-.46.46h-2.16c-.29,0-.46-.18-.46-.46v-5.38c0-.51-.19-.8-.56-.8-.32,0-.62.24-.83.66v5.52c0,.29-.18.46-.46.46h-2.16c-.29,0-.46-.18-.46-.46v-5.38c0-.54-.14-.8-.5-.8s-.67.24-.91.69v5.49c0,.29-.18.46-.46.46h-2.14c-.3,0-.46-.18-.46-.46v-7.81c0-.29.16-.45.46-.45h2.02c.29,0,.46.16.46.45v.61c.5-.82,1.47-1.38,2.4-1.38s1.63.51,1.98,1.34c.5-.8,1.44-1.34,2.32-1.34,1.5,0,2.4,1.01,2.4,2.67Z"/>
    <path class="cls-5" d="m268.15,419.99c0-2.9,1.66-4.67,4.42-4.67,2.51,0,3.99,1.65,3.99,4.39,0,.26-.02.54-.06.83-.03.27-.21.42-.48.42h-4.72c.24.91.88,1.39,1.91,1.39.46,0,1.04-.13,1.52-.34.27-.11.46-.06.64.16l.66.9c.16.24.14.46-.08.62-.86.62-2.15.98-3.36.98-2.75,0-4.42-1.76-4.42-4.67Zm5.44-.83c-.02-1.07-.43-1.7-1.12-1.7s-1.14.58-1.28,1.7h2.4Z"/>
    <path class="cls-5" d="m284.95,418.26v5.63c0,.29-.16.46-.46.46h-1.89c-.29,0-.45-.18-.45-.46v-.26c-.62.64-1.55,1.02-2.4,1.02-1.54,0-2.56-1.1-2.56-2.75s1.36-2.75,3.39-2.75h1.38v-.5c0-.72-.46-1.02-1.39-1.02-.43,0-.96.11-1.39.3-.26.13-.46.1-.64-.14l-.74-1.02c-.18-.26-.13-.5.13-.64.91-.5,2.13-.82,3.17-.82,2.53,0,3.86,1.01,3.86,2.95Zm-2.99,2.38h-.88c-.56,0-.88.35-.88.99,0,.53.29.85.75.85.4,0,.77-.22,1.01-.62v-1.22Z"/>
    <path class="cls-5" d="m290.22,418.94c1.23.34,2.88.75,2.88,2.74,0,1.79-1.62,2.99-4.03,2.99-1.22,0-2.5-.37-3.35-.96-.24-.18-.27-.4-.1-.66l.75-1.02c.18-.24.38-.27.66-.11.54.3,1.26.5,1.86.5.66,0,1.06-.22,1.06-.56,0-.42-.38-.54-1.17-.75-1.18-.32-2.99-.9-2.99-2.88,0-1.83,1.38-2.9,3.7-2.9,1.01,0,2.19.3,3.07.8.27.14.3.38.13.64l-.75,1.02c-.16.26-.37.27-.62.14-.45-.22-1.01-.35-1.5-.35-.56,0-.96.22-.96.54,0,.43.45.54,1.38.82Z"/>
    <path class="cls-5" d="m301.71,416.09v7.81c0,.29-.18.46-.46.46h-1.94c-.29,0-.46-.18-.46-.46v-.59c-.53.86-1.5,1.36-2.43,1.36-1.47,0-2.42-1.06-2.42-2.66v-5.92c0-.29.16-.45.46-.45h2.14c.3,0,.46.16.46.45v5.38c0,.54.22.83.62.83.37,0,.7-.24.93-.67v-5.54c0-.29.18-.45.46-.45h2.16c.29,0,.46.16.46.45Z"/>
    <path class="cls-5" d="m308.95,416.01l-.3,2.08c-.05.3-.22.42-.48.37-.14-.03-.29-.05-.43-.05-.72,0-1.31.48-1.57,1.23v4.26c0,.29-.18.46-.46.46h-2.14c-.3,0-.46-.18-.46-.46v-7.81c0-.29.16-.45.46-.45h2.02c.29,0,.46.16.46.45v.72c.42-.93,1.15-1.49,1.99-1.49.21,0,.45.05.64.11.26.08.32.3.29.58Z"/>
    <path class="cls-5" d="m309.03,419.99c0-2.9,1.66-4.67,4.42-4.67,2.51,0,3.99,1.65,3.99,4.39,0,.26-.02.54-.06.83-.03.27-.21.42-.48.42h-4.72c.24.91.88,1.39,1.91,1.39.46,0,1.04-.13,1.52-.34.27-.11.46-.06.64.16l.66.9c.16.24.14.46-.08.62-.86.62-2.15.98-3.36.98-2.75,0-4.42-1.76-4.42-4.67Zm5.44-.83c-.02-1.07-.43-1.7-1.12-1.7s-1.14.58-1.28,1.7h2.4Z"/>
    <path class="cls-5" d="m322.41,418.94c1.23.34,2.88.75,2.88,2.74,0,1.79-1.62,2.99-4.03,2.99-1.22,0-2.5-.37-3.35-.96-.24-.18-.27-.4-.1-.66l.75-1.02c.18-.24.38-.27.66-.11.54.3,1.26.5,1.86.5.66,0,1.06-.22,1.06-.56,0-.42-.38-.54-1.17-.75-1.18-.32-2.99-.9-2.99-2.88,0-1.83,1.38-2.9,3.7-2.9,1.01,0,2.19.3,3.07.8.27.14.3.38.13.64l-.75,1.02c-.16.26-.37.27-.62.14-.45-.22-1.01-.35-1.5-.35-.56,0-.96.22-.96.54,0,.43.45.54,1.38.82Z"/>
    <path class="cls-5" d="m325.91,423.9v-2.1c0-.29.18-.46.46-.46h2.26c.29,0,.46.18.46.46v2.1c0,.29-.18.46-.46.46h-2.26c-.29,0-.46-.18-.46-.46Z"/>
  </g>
  <g>
    <path class="cls-5" d="m73.98,34.35v8.5c0,.41-.12.72-.46.99-1.68,1.16-4.38,1.97-6.99,1.97-6.06,0-9.6-3.86-9.6-10.67s3.8-10.7,10.09-10.7c2.06,0,4.15.7,5.8,1.89.44.29.49.72.17,1.16l-1.54,2.12c-.32.44-.73.49-1.19.17-.93-.67-1.91-.96-2.9-.96-2.84,0-4.38,2.21-4.38,6.32s1.31,6.29,3.8,6.29c.61,0,1.25-.12,1.77-.32v-3.77h-1.16c-.52,0-.81-.32-.81-.84v-2.15c0-.52.29-.84.81-.84h5.74c.55,0,.84.32.84.84Z"/>
    <path class="cls-5" d="m86.94,30.12l-.55,3.77c-.09.55-.41.75-.87.67-.26-.06-.52-.09-.78-.09-1.31,0-2.38.87-2.84,2.23v7.72c0,.52-.32.84-.84.84h-3.89c-.55,0-.84-.32-.84-.84v-14.16c0-.52.29-.81.84-.81h3.65c.52,0,.84.29.84.81v1.31c.75-1.68,2.09-2.7,3.6-2.7.38,0,.81.09,1.16.2.46.14.58.55.52,1.04Z"/>
    <path class="cls-5" d="m102.95,37.34c0,5.28-2.99,8.47-7.92,8.47s-7.95-3.19-7.95-8.47,2.99-8.47,7.95-8.47,7.92,3.22,7.92,8.47Zm-5.71,0c0-2.67-.78-4.12-2.2-4.12s-2.23,1.45-2.23,4.12.78,4.15,2.23,4.15,2.2-1.48,2.2-4.15Z"/>
    <path class="cls-5" d="m112.05,35.43c2.23.61,5.22,1.36,5.22,4.96,0,3.25-2.93,5.42-7.31,5.42-2.2,0-4.52-.67-6.06-1.74-.44-.32-.49-.72-.17-1.19l1.36-1.86c.32-.43.7-.49,1.19-.2.99.55,2.29.9,3.36.9,1.19,0,1.91-.41,1.91-1.01,0-.75-.7-.99-2.12-1.36-2.15-.58-5.42-1.62-5.42-5.22,0-3.31,2.49-5.25,6.7-5.25,1.83,0,3.97.55,5.57,1.45.49.26.55.7.23,1.16l-1.36,1.86c-.29.46-.67.49-1.13.26-.81-.41-1.83-.64-2.73-.64-1.02,0-1.74.41-1.74.99,0,.78.81.99,2.49,1.48Z"/>
    <path class="cls-5" d="m126.11,35.43c2.23.61,5.22,1.36,5.22,4.96,0,3.25-2.93,5.42-7.31,5.42-2.2,0-4.52-.67-6.06-1.74-.44-.32-.49-.72-.17-1.19l1.36-1.86c.32-.43.7-.49,1.19-.2.99.55,2.29.9,3.36.9,1.19,0,1.91-.41,1.91-1.01,0-.75-.7-.99-2.12-1.36-2.15-.58-5.42-1.62-5.42-5.22,0-3.31,2.49-5.25,6.7-5.25,1.83,0,3.97.55,5.57,1.45.49.26.55.7.23,1.16l-1.36,1.86c-.29.46-.67.49-1.13.26-.81-.41-1.83-.64-2.73-.64-1.02,0-1.74.41-1.74.99,0,.78.81.99,2.49,1.48Z"/>
    <path class="cls-5" d="m140.44,45.26c-.52,0-.84-.32-.84-.84v-18.59c0-.52.32-.84.84-.84h6.29c6.47,0,9.86,3.48,9.86,10.12s-3.39,10.15-9.86,10.15h-6.29Zm10.18-10.12c0-4.03-1.13-5.51-3.51-5.51h-1.71v11.05h1.71c2.38,0,3.51-1.48,3.51-5.54Z"/>
    <path class="cls-5" d="m173.76,37.34c0,5.28-2.99,8.47-7.92,8.47s-7.95-3.19-7.95-8.47,2.99-8.47,7.95-8.47,7.92,3.22,7.92,8.47Zm-5.71,0c0-2.67-.78-4.12-2.2-4.12s-2.23,1.45-2.23,4.12.78,4.15,2.23,4.15,2.2-1.48,2.2-4.15Z"/>
    <path class="cls-5" d="m197.6,33.71v10.7c0,.52-.32.84-.84.84h-3.92c-.52,0-.84-.32-.84-.84v-9.75c0-.93-.35-1.45-1.02-1.45-.58,0-1.13.44-1.51,1.19v10.01c0,.52-.32.84-.84.84h-3.92c-.52,0-.84-.32-.84-.84v-9.75c0-.99-.26-1.45-.9-1.45s-1.22.44-1.65,1.25v9.95c0,.52-.32.84-.84.84h-3.89c-.55,0-.84-.32-.84-.84v-14.16c0-.52.29-.81.84-.81h3.65c.52,0,.84.29.84.81v1.1c.9-1.48,2.67-2.49,4.35-2.49s2.96.93,3.6,2.44c.9-1.45,2.61-2.44,4.21-2.44,2.73,0,4.35,1.83,4.35,4.84Z"/>
    <path class="cls-5" d="m199.48,37.34c0-5.25,3.02-8.47,8.01-8.47,4.55,0,7.22,2.99,7.22,7.95,0,.46-.03.99-.12,1.51-.06.49-.38.75-.87.75h-8.56c.44,1.65,1.6,2.52,3.45,2.52.84,0,1.89-.23,2.76-.61.49-.2.84-.12,1.16.29l1.19,1.62c.29.44.26.84-.15,1.13-1.57,1.13-3.89,1.77-6.09,1.77-4.99,0-8.01-3.19-8.01-8.47Zm9.86-1.51c-.03-1.94-.78-3.07-2.03-3.07s-2.06,1.04-2.32,3.07h4.35Z"/>
    <path class="cls-5" d="m223.73,35.43c2.23.61,5.22,1.36,5.22,4.96,0,3.25-2.93,5.42-7.31,5.42-2.2,0-4.52-.67-6.06-1.74-.44-.32-.49-.72-.17-1.19l1.36-1.86c.32-.43.7-.49,1.19-.2.99.55,2.29.9,3.37.9,1.19,0,1.91-.41,1.91-1.01,0-.75-.7-.99-2.12-1.36-2.15-.58-5.42-1.62-5.42-5.22,0-3.31,2.5-5.25,6.7-5.25,1.83,0,3.97.55,5.57,1.45.49.26.55.7.23,1.16l-1.36,1.86c-.29.46-.67.49-1.13.26-.81-.41-1.83-.64-2.73-.64-1.02,0-1.74.41-1.74.99,0,.78.81.99,2.5,1.48Z"/>
    <path class="cls-5" d="m231.53,40.33v-6.9h-1.22c-.52,0-.81-.29-.81-.84v-1.71c0-.46.2-.81.67-.96l.55-.12c.52-.2.84-.38.99-1.3l.26-1.65c.09-.52.41-.75.93-.75h3.39c.52,0,.81.32.81.84v2.52h2.76c.55,0,.84.29.84.81v2.32c0,.55-.29.84-.84.84h-2.76v6.41c0,1.16.49,1.62,1.39,1.62.35,0,.72-.09,1.22-.2.55-.15.93.06,1.02.61l.35,2.35c.09.52-.2.9-.78,1.07-1.16.35-2.23.52-3.25.52-3.25,0-5.51-1.83-5.51-5.48Z"/>
    <path class="cls-5" d="m242.23,26.81v-2.41c0-.52.29-.84.84-.84h3.97c.52,0,.84.32.84.84v2.41c0,.55-.32.84-.84.84h-3.97c-.55,0-.84-.29-.84-.84Zm.03,17.61v-14.16c0-.52.32-.81.84-.81h3.92c.52,0,.81.29.81.81v14.16c0,.52-.29.84-.81.84h-3.92c-.52,0-.84-.32-.84-.84Z"/>
    <path class="cls-5" d="m249.85,37.34c0-5.11,3.22-8.47,8.01-8.47,1.83,0,3.66.55,4.93,1.45.43.35.49.72.17,1.19l-1.54,2.15c-.32.41-.7.41-1.16.14-.49-.29-1.04-.41-1.6-.41-2,0-3.02,1.31-3.02,3.95s.99,3.97,3.05,3.97c.52,0,1.1-.17,1.59-.43.49-.29.84-.29,1.16.14l1.54,2.15c.32.44.32.81-.06,1.1-1.3.96-3.16,1.54-5.08,1.54-4.84,0-8.01-3.34-8.01-8.47Z"/>
    <path class="cls-5" d="m270.76,44.42v-18.59c0-.52.32-.84.84-.84h5.51c6.21,0,9.54,2.38,9.54,6.79,0,4.64-3.31,7.17-9.49,7.17h-.61v5.48c0,.52-.32.84-.84.84h-4.12c-.52,0-.84-.32-.84-.84Zm7.4-9.63c1.86,0,2.78-.96,2.78-2.76s-.93-2.75-2.73-2.75h-1.65v5.51h1.6Z"/>
    <path class="cls-5" d="m298.95,30.12l-.55,3.77c-.09.55-.41.75-.87.67-.26-.06-.52-.09-.78-.09-1.31,0-2.38.87-2.84,2.23v7.72c0,.52-.32.84-.84.84h-3.89c-.55,0-.84-.32-.84-.84v-14.16c0-.52.29-.81.84-.81h3.66c.52,0,.84.29.84.81v1.31c.75-1.68,2.09-2.7,3.6-2.7.38,0,.81.09,1.16.2.46.14.58.55.52,1.04Z"/>
    <path class="cls-5" d="m314.96,37.34c0,5.28-2.99,8.47-7.92,8.47s-7.95-3.19-7.95-8.47,2.99-8.47,7.95-8.47,7.92,3.22,7.92,8.47Zm-5.71,0c0-2.67-.78-4.12-2.21-4.12s-2.23,1.45-2.23,4.12.78,4.15,2.23,4.15,2.21-1.48,2.21-4.15Z"/>
    <path class="cls-5" d="m316.41,37.34c0-5.25,2.35-8.44,6.24-8.44,1.28,0,2.61.58,3.57,1.51v-6c0-.52.32-.84.84-.84h3.92c.52,0,.84.32.84.84v20.02c0,.52-.32.84-.84.84h-3.42c-.52,0-.84-.32-.84-.84v-.58c-1.04,1.22-2.64,1.97-4.35,1.97-3.68,0-5.95-3.19-5.95-8.47Zm9.8,2.73v-5.45c-.46-.9-1.22-1.42-2.06-1.42-1.31,0-2.03,1.48-2.03,4.21s.7,4.09,1.97,4.09c.9,0,1.65-.52,2.12-1.42Z"/>
    <path class="cls-5" d="m348.19,30.26v14.16c0,.52-.32.84-.84.84h-3.51c-.52,0-.84-.32-.84-.84v-1.07c-.96,1.57-2.73,2.46-4.41,2.46-2.67,0-4.38-1.91-4.38-4.81v-10.73c0-.52.29-.81.84-.81h3.89c.55,0,.84.29.84.81v9.75c0,.99.41,1.51,1.13,1.51.67,0,1.28-.43,1.68-1.22v-10.04c0-.52.32-.81.84-.81h3.92c.52,0,.84.29.84.81Z"/>
    <path class="cls-5" d="m350.16,37.34c0-5.11,3.22-8.47,8.01-8.47,1.83,0,3.66.55,4.93,1.45.43.35.49.72.17,1.19l-1.54,2.15c-.32.41-.7.41-1.16.14-.49-.29-1.04-.41-1.59-.41-2,0-3.02,1.31-3.02,3.95s.99,3.97,3.05,3.97c.52,0,1.1-.17,1.59-.43.49-.29.84-.29,1.16.14l1.54,2.15c.32.44.32.81-.06,1.1-1.3.96-3.16,1.54-5.08,1.54-4.84,0-8.01-3.34-8.01-8.47Z"/>
    <path class="cls-5" d="m365.39,40.33v-6.9h-1.22c-.52,0-.81-.29-.81-.84v-1.71c0-.46.2-.81.67-.96l.55-.12c.52-.2.84-.38.99-1.3l.26-1.65c.09-.52.41-.75.93-.75h3.39c.52,0,.81.32.81.84v2.52h2.76c.55,0,.84.29.84.81v2.32c0,.55-.29.84-.84.84h-2.76v6.41c0,1.16.49,1.62,1.39,1.62.35,0,.73-.09,1.22-.2.55-.15.93.06,1.01.61l.35,2.35c.09.52-.2.9-.78,1.07-1.16.35-2.23.52-3.25.52-3.25,0-5.51-1.83-5.51-5.48Z"/>
  </g>
</svg>