<svg width="2366" height="2486" xmlns="http://www.w3.org/2000/svg" xmlns:xlink="http://www.w3.org/1999/xlink" xml:space="preserve" overflow="hidden"><g transform="translate(-2141 0)"><rect x="2141.5" y="0.5" width="2365" height="2485" fill="#FFFFFF"/><rect x="2141.5" y="0.5" width="2365" height="2485" stroke="#D9D9D9" stroke-width="3.4375" stroke-miterlimit="2" fill="none"/><g><path d="M3323.5 1001.45C3314.98 1001.45 3306.46 1001.83 3297.97 1002.58L3272.45 714.706C3289.42 713.201 3306.46 712.447 3323.5 712.447Z" stroke="#FFFFFF" stroke-width="6.875" stroke-miterlimit="2" fill="#772C2A"/><path d="M3297.97 1002.58C3286.1 1003.64 3274.31 1005.42 3262.66 1007.93L3201.83 725.398C3225.12 720.382 3248.71 716.811 3272.45 714.706Z" stroke="#FFFFFF" stroke-width="6.875" stroke-miterlimit="2" fill="#4F81BD"/><path d="M3262.66 1007.93C3248.42 1011 3234.42 1015.14 3220.8 1020.32L3118.09 750.176C3145.34 739.817 3173.33 731.534 3201.83 725.398Z" stroke="#FFFFFF" stroke-width="6.875" stroke-miterlimit="2" fill="#4BACC6"/><path d="M3220.8 1020.32C3194.99 1030.13 3170.73 1043.59 3148.74 1060.28L2973.98 830.093C3017.96 796.709 3066.48 769.797 3118.09 750.177Z" stroke="#FFFFFF" stroke-width="6.875" stroke-miterlimit="2" fill="#8064A2"/><path d="M3148.74 1060.28C3117.47 1084.02 3091.36 1113.88 3072.02 1148.05L2820.53 1005.63C2859.23 937.304 2911.44 877.576 2973.98 830.093Z" stroke="#FFFFFF" stroke-width="6.875" stroke-miterlimit="2" fill="#2C4D75"/><path d="M3072.02 1148.05C3051.83 1183.7 3039.45 1223.24 3035.7 1264.04L2747.91 1237.61C2755.4 1156.01 2780.16 1076.94 2820.53 1005.63Z" stroke="#FFFFFF" stroke-width="6.875" stroke-miterlimit="2" fill="#F79646"/><path d="M3035.7 1264.04C3029.68 1329.58 3046.22 1395.22 3082.58 1450.09L2841.66 1609.72C2768.94 1499.98 2735.87 1368.7 2747.91 1237.61Z" stroke="#FFFFFF" stroke-width="6.875" stroke-miterlimit="2" fill="#9BBB59"/><path d="M3082.58 1450.09C3158.81 1565.15 3305.76 1610.24 3433.41 1557.76 3561.06 1505.27 3633.78 1369.85 3607.03 1234.45 3580.28 1099.05 3461.52 1001.45 3323.5 1001.45L3323.5 712.447C3599.54 712.447 3837.05 907.628 3890.55 1178.43 3944.06 1449.23 3798.61 1720.07 3543.32 1825.05 3288.02 1930.02 2994.12 1839.83 2841.66 1609.72Z" stroke="#FFFFFF" stroke-width="6.875" stroke-miterlimit="2" fill="#C0504D"/><path d="M3323.5 712.447C3320.45 712.447 3317.39 712.471 3314.34 712.52L3309.76 423.548C3314.34 423.475 3318.92 423.439 3323.5 423.439Z" stroke="#FFFFFF" stroke-width="6.875" stroke-miterlimit="2" fill="#772C2A"/><path d="M3314.34 712.52C3300.35 712.741 3286.38 713.471 3272.45 714.706L3246.92 426.828C3267.82 424.975 3288.78 423.881 3309.76 423.548Z" stroke="#FFFFFF" stroke-width="6.875" stroke-miterlimit="2" fill="#772C2A"/><path d="M3323.5 423.439C3321.78 423.439 3320.06 423.444 3318.34 423.454L3316.62 134.452C3318.92 134.438 3321.21 134.431 3323.5 134.431Z" stroke="#FFFFFF" stroke-width="6.875" stroke-miterlimit="2" fill="#772C2A"/><path d="M3318.34 423.454C3315.48 423.471 3312.62 423.503 3309.76 423.548L3305.18 134.576C3308.99 134.516 3312.81 134.474 3316.62 134.452Z" stroke="#FFFFFF" stroke-width="6.875" stroke-miterlimit="2" fill="#772C2A"/><path d="M3309.76 423.548C3288.78 423.881 3267.82 424.975 3246.92 426.828L3221.39 138.949C3249.26 136.479 3277.21 135.02 3305.18 134.577Z" stroke="#FFFFFF" stroke-width="6.875" stroke-miterlimit="2" fill="#772C2A"/><path d="M3272.45 714.706C3269.44 714.972 3266.44 715.262 3263.44 715.576L3233.41 428.133C3237.91 427.662 3242.41 427.227 3246.92 426.828Z" stroke="#FFFFFF" stroke-width="6.875" stroke-miterlimit="2" fill="#4F81BD"/><path d="M3263.44 715.576C3258.63 716.079 3253.82 716.642 3249.02 717.265L3211.79 430.666C3218.98 429.731 3226.19 428.887 3233.41 428.133Z" stroke="#FFFFFF" stroke-width="6.875" stroke-miterlimit="2" fill="#4F81BD"/><path d="M3249.02 717.265C3233.19 719.323 3217.44 722.036 3201.83 725.398L3140.99 442.866C3164.41 437.823 3188.03 433.753 3211.79 430.666Z" stroke="#FFFFFF" stroke-width="6.875" stroke-miterlimit="2" fill="#4F81BD"/><path d="M3233.41 428.133C3226.19 428.887 3218.98 429.731 3211.79 430.666L3174.55 144.067C3184.14 142.821 3193.75 141.695 3203.38 140.689Z" stroke="#FFFFFF" stroke-width="6.875" stroke-miterlimit="2" fill="#4F81BD"/><path d="M3211.79 430.666C3188.03 433.753 3164.41 437.823 3140.99 442.866L3080.15 160.334C3111.38 153.61 3142.87 148.183 3174.55 144.068Z" stroke="#FFFFFF" stroke-width="6.875" stroke-miterlimit="2" fill="#4F81BD"/><path d="M3201.83 725.398C3201.03 725.57 3200.23 725.743 3199.44 725.918L3137.41 443.645C3138.6 443.383 3139.8 443.123 3140.99 442.866Z" stroke="#FFFFFF" stroke-width="6.875" stroke-miterlimit="2" fill="#4BACC6"/><path d="M3199.44 725.918C3198.02 726.229 3196.61 726.545 3195.19 726.867L3131.04 445.07C3133.16 444.587 3135.28 444.112 3137.41 443.645Z" stroke="#FFFFFF" stroke-width="6.875" stroke-miterlimit="2" fill="#4BACC6"/><path d="M3195.19 726.867C3168.98 732.834 3143.22 740.623 3118.09 750.176L3015.39 480.033C3053.08 465.703 3091.72 454.021 3131.04 445.07Z" stroke="#FFFFFF" stroke-width="6.875" stroke-miterlimit="2" fill="#4BACC6"/><path d="M3140.99 442.866C3139.8 443.123 3138.6 443.383 3137.41 443.645L3075.38 161.373C3076.97 161.023 3078.56 160.677 3080.16 160.334Z" stroke="#FFFFFF" stroke-width="6.875" stroke-miterlimit="2" fill="#4BACC6"/><path d="M3137.41 443.645C3135.28 444.112 3133.16 444.587 3131.04 445.07L3066.89 163.272C3069.72 162.628 3072.54 161.995 3075.38 161.373Z" stroke="#FFFFFF" stroke-width="6.875" stroke-miterlimit="2" fill="#4BACC6"/><path d="M3131.04 445.07C3091.72 454.02 3053.08 465.703 3015.39 480.033L2912.68 209.89C2962.94 190.784 3014.46 175.207 3066.89 163.272Z" stroke="#FFFFFF" stroke-width="6.875" stroke-miterlimit="2" fill="#4BACC6"/><path d="M3118.09 750.176C3066.49 769.796 3017.96 796.708 2973.98 830.093L2799.22 599.909C2865.18 549.832 2937.98 509.463 3015.39 480.034Z" stroke="#FFFFFF" stroke-width="6.875" stroke-miterlimit="2" fill="#8064A2"/><path d="M3015.39 480.033C2937.98 509.463 2865.18 549.831 2799.23 599.908L2624.47 369.724C2712.41 302.955 2809.47 249.13 2912.68 209.891Z" stroke="#FFFFFF" stroke-width="6.875" stroke-miterlimit="2" fill="#8064A2"/><path d="M2973.98 830.093 2799.03 600.057Z" stroke="#FFFFFF" stroke-width="6.875" stroke-miterlimit="2" fill="#2C4D75"/><path d="M2973.85 830.192C2973.26 830.645 2972.66 831.099 2972.07 831.555L2796.35 602.101C2797.24 601.418 2798.13 600.737 2799.03 600.057Z" stroke="#FFFFFF" stroke-width="6.875" stroke-miterlimit="2" fill="#2C4D75"/><path d="M2972.07 831.555C2970.01 833.133 2967.96 834.724 2965.92 836.329L2787.13 609.262C2790.19 606.855 2793.26 604.467 2796.35 602.101Z" stroke="#FFFFFF" stroke-width="6.875" stroke-miterlimit="2" fill="#2C4D75"/><path d="M2965.92 836.329C2957.48 842.977 2949.22 849.859 2941.16 856.967L2749.99 640.219C2762.08 629.557 2774.46 619.234 2787.13 609.262Z" stroke="#FFFFFF" stroke-width="6.875" stroke-miterlimit="2" fill="#2C4D75"/><path d="M2941.16 856.967C2892.97 899.473 2852.2 949.717 2820.53 1005.63L2569.05 863.219C2616.55 779.345 2677.7 703.979 2749.99 640.22Z" stroke="#FFFFFF" stroke-width="6.875" stroke-miterlimit="2" fill="#2C4D75"/><path d="M2799.22 599.909 2624.39 369.784Z" stroke="#FFFFFF" stroke-width="6.875" stroke-miterlimit="2" fill="#2C4D75"/><path d="M2799.17 599.954 2624.21 369.921Z" stroke="#FFFFFF" stroke-width="6.875" stroke-miterlimit="2" fill="#2C4D75"/><path d="M2799.03 600.057C2798.14 600.736 2797.24 601.418 2796.35 602.101L2620.63 372.647C2621.82 371.736 2623.01 370.828 2624.21 369.922Z" stroke="#FFFFFF" stroke-width="6.875" stroke-miterlimit="2" fill="#2C4D75"/><path d="M2796.35 602.101C2793.26 604.468 2790.18 606.855 2787.13 609.262L2608.34 382.195C2612.41 378.985 2616.51 375.802 2620.63 372.647Z" stroke="#FFFFFF" stroke-width="6.875" stroke-miterlimit="2" fill="#2C4D75"/><path d="M2787.13 609.262C2774.46 619.234 2762.08 629.557 2749.99 640.219L2558.82 423.472C2574.94 409.255 2591.45 395.491 2608.34 382.195Z" stroke="#FFFFFF" stroke-width="6.875" stroke-miterlimit="2" fill="#2C4D75"/><path d="M2749.99 640.219C2727.22 660.301 2705.52 681.564 2684.99 703.921L2472.15 508.408C2499.53 478.598 2528.46 450.247 2558.82 423.472Z" stroke="#FFFFFF" stroke-width="6.875" stroke-miterlimit="2" fill="#2C4D75"/><path d="M2684.99 703.922C2640.41 752.443 2601.52 805.888 2569.05 863.22L2317.57 720.805C2360.86 644.362 2412.72 573.104 2472.15 508.408Z" stroke="#FFFFFF" stroke-width="6.875" stroke-miterlimit="2" fill="#2C4D75"/><path d="M2820.53 1005.63C2780.16 1076.94 2755.4 1156.01 2747.91 1237.61L2460.11 1211.18C2471.35 1088.78 2508.48 970.174 2569.05 863.219Z" stroke="#FFFFFF" stroke-width="6.875" stroke-miterlimit="2" fill="#F79646"/><path d="M2569.05 863.219C2508.48 970.174 2471.35 1088.78 2460.11 1211.18L2172.31 1184.75C2187.3 1021.56 2236.81 863.411 2317.57 720.805Z" stroke="#FFFFFF" stroke-width="6.875" stroke-miterlimit="2" fill="#F79646"/><path d="M2747.91 1237.61C2735.87 1368.7 2768.94 1499.98 2841.66 1609.72L2600.73 1769.35C2491.66 1604.74 2442.05 1407.82 2460.11 1211.18Z" stroke="#FFFFFF" stroke-width="6.875" stroke-miterlimit="2" fill="#9BBB59"/><path d="M2460.11 1211.18C2442.05 1407.82 2491.66 1604.74 2600.73 1769.36L2359.81 1928.99C2214.38 1709.5 2148.24 1446.94 2172.31 1184.75Z" stroke="#FFFFFF" stroke-width="6.875" stroke-miterlimit="2" fill="#9BBB59"/><path d="M2841.66 1609.72C2994.12 1839.83 3288.02 1930.02 3543.32 1825.05 3798.61 1720.07 3944.06 1449.23 3890.55 1178.43 3837.05 907.628 3599.54 712.447 3323.5 712.447L3323.5 423.439C3737.56 423.439 4093.83 716.21 4174.08 1122.41 4254.33 1528.62 4036.17 1934.88 3653.22 2092.34 3270.28 2249.81 2829.43 2114.52 2600.73 1769.35Z" stroke="#FFFFFF" stroke-width="6.875" stroke-miterlimit="2" fill="#C0504D"/><path d="M2600.73 1769.35C2829.43 2114.52 3270.28 2249.81 3653.22 2092.34 4036.17 1934.88 4254.33 1528.62 4174.08 1122.41 4093.83 716.21 3737.56 423.439 3323.5 423.439L3323.5 134.431C3875.57 134.431 4350.61 524.793 4457.61 1066.4 4564.61 1608 4273.73 2149.69 3763.13 2359.64 3252.53 2569.59 2664.74 2389.21 2359.81 1928.98Z" stroke="#FFFFFF" stroke-width="6.875" stroke-miterlimit="2" fill="#C0504D"/><text fill="#FEFEFE" font-family="Calibri,Calibri_MSFontService,sans-serif" font-weight="400" font-size="12" transform="matrix(0.583756 3.38757 -3.38757 0.583756 3170.29 251.63)" x="3.35005" y="0.43344">Beef</text><text fill="#FEFEFE" font-family="Calibri,Calibri_MSFontService,sans-serif" font-weight="400" font-size="12" transform="matrix(3.02846 1.6263 -1.6263 3.02846 3645.82 1405.82)" x="2.65961" y="2.46066">Electricity<tspan font-size="12" x="14.9346" y="-4.13111"> </tspan><tspan font-size="12" x="3.80245" y="6.68389">Generation</tspan></text><text fill="#FEFEFE" font-family="Calibri,Calibri_MSFontService,sans-serif" font-weight="400" font-size="12" transform="matrix(3.02846 1.6263 -1.6263 3.02846 3900.43 1542.55)" x="2.65961" y="2.46066">Electricity<tspan font-size="12" x="14.9346" y="-4.13111"> </tspan><tspan font-size="12" x="3.80245" y="6.68389">Generation</tspan></text><text fill="#FEFEFE" font-family="Calibri,Calibri_MSFontService,sans-serif" font-weight="400" font-size="12" transform="matrix(3.02846 1.6263 -1.6263 3.02846 4155.05 1679.29)" x="2.65961" y="2.46066">Electricity<tspan font-size="12" x="14.9346" y="-4.13111"> </tspan><tspan font-size="12" x="3.80245" y="6.68389">Generation</tspan></text><text fill="#FEFEFE" font-family="Calibri,Calibri_MSFontService,sans-serif" font-weight="400" font-size="12" transform="matrix(3.33334 -0.839791 0.839791 3.33334 2774.29 1376.38)" x="-0.717456" y="3.35244">Fugitives from<tspan font-size="12" x="18.79" y="8.26709"> </tspan><tspan font-size="12" x="4.69687" y="9.11103">fuels</tspan><tspan font-size="12" x="-84.7924" y="3.35242">Fugitives from</tspan><tspan font-size="12" x="-65.2849" y="8.26707"> </tspan><tspan font-size="12" x="-79.3781" y="9.11101">fuels</tspan><tspan font-size="12" x="-168.867" y="3.35243">Fugitives from</tspan><tspan font-size="12" x="-149.36" y="8.26709"> </tspan><tspan font-size="12" x="-163.453" y="9.11102">fuels</tspan></text><text fill="#FEFEFE" font-family="Calibri,Calibri_MSFontService,sans-serif" font-weight="400" font-size="12" transform="matrix(1.66712 3.00618 -3.00618 1.66712 3089.83 816.67)" x="3.00512" y="1.54016">Industrial<tspan font-size="12" x="9.48869" y="-10.1512">…</tspan><tspan font-size="12" x="-82.5969" y="-14.8951">Industrial</tspan><tspan font-size="12" x="-76.1133" y="-26.5864"> </tspan><tspan font-size="12" x="-79.7212" y="-11.2938">Process and</tspan><tspan font-size="12" x="-71.5356" y="-26.0544"> </tspan><tspan font-size="12" x="-76.0847" y="-9.06464">Product Use</tspan><tspan font-size="12" x="-166.672" y="-14.8952">Industrial</tspan><tspan font-size="12" x="-160.188" y="-26.5865"> </tspan><tspan font-size="12" x="-163.796" y="-11.2939">Process and</tspan><tspan font-size="12" x="-155.611" y="-26.0545"> </tspan><tspan font-size="12" x="-160.16" y="-9.06474">Product Use</tspan></text><text fill="#FEFEFE" font-family="Calibri,Calibri_MSFontService,sans-serif" font-weight="400" font-size="12" transform="matrix(0.994732 3.29043 -3.29043 0.994732 3114.77 512.146)" x="3.28305" y="0.803151">Grassland<tspan font-size="12" x="-80.792" y="0.803295">Grassland</tspan></text><text fill="#FEFEFE" font-family="Calibri,Calibri_MSFontService,sans-serif" font-weight="400" font-size="12" transform="matrix(3.28048 1.02707 -1.02707 3.28048 2842.55 1086.59)" x="1.19529" y="3.2159">Stationary<tspan font-size="12" x="15.0107" y="-1.10952"> </tspan><tspan font-size="12" x="3.6129" y="6.92432">Energy</tspan><tspan font-size="12" x="12.8394" y="4.03561">…</tspan></text><text fill="#FEFEFE" font-family="Calibri,Calibri_MSFontService,sans-serif" font-weight="400" font-size="12" transform="matrix(3.28048 1.02707 -1.02707 3.28048 2571.31 948.377)" x="2.05871" y="3.05274">Stationary<tspan font-size="12" x="15.8741" y="-1.27268"> </tspan><tspan font-size="12" x="5.62638" y="6.40109">Energy</tspan><tspan font-size="12" x="14.8529" y="3.51239"> </tspan><tspan font-size="12" x="4.64178" y="11.1747">(excluding</tspan><tspan font-size="12" x="18.384" y="6.87219"> </tspan><tspan font-size="12" x="4.9878" y="15.5317">Electricity</tspan><tspan font-size="12" x="18.2843" y="11.3687">…</tspan></text><text fill="#FEFEFE" font-family="Calibri,Calibri_MSFontService,sans-serif" font-weight="400" font-size="12" transform="matrix(3.28048 1.02707 -1.02707 3.28048 2299.51 836.634)" x="2.30815" y="2.87582">Stationary<tspan font-size="12" x="16.1236" y="-1.44961"> </tspan><tspan font-size="12" x="5.87582" y="6.22416">Energy</tspan><tspan font-size="12" x="15.1024" y="3.33545"> </tspan><tspan font-size="12" x="4.89122" y="10.9978">(excluding</tspan><tspan font-size="12" x="18.6334" y="6.69526"> </tspan><tspan font-size="12" x="6.38731" y="14.9947">Electricity</tspan><tspan font-size="12" x="19.6838" y="10.8317"> </tspan><tspan font-size="12" x="6.20954" y="19.5157">Generation)</tspan></text><text fill="#FEFEFE" font-family="Calibri,Calibri_MSFontService,sans-serif" font-weight="400" font-size="12" transform="matrix(2.58807 2.26237 -2.26237 2.58807 2952.91 932.738)" x="2.37203" y="2.4092">Transport</text><text fill="#FEFEFE" font-family="Calibri,Calibri_MSFontService,sans-serif" font-weight="400" font-size="12" transform="matrix(2.66935 2.16587 -2.16587 2.66935 2724.14 771.404)" x="2.20613" y="2.55619">On-road</text><text fill="#FEFEFE" font-family="Calibri,Calibri_MSFontService,sans-serif" font-weight="400" font-size="12" transform="matrix(2.40598 2.45513 -2.45513 2.40598 2555.84 470.794)" x="2.50673" y="2.26403">Heavy Duty<tspan font-size="12" x="13.8622" y="-9.32338">…</tspan></text><text fill="#FEFEFE" font-family="Calibri,Calibri_MSFontService,sans-serif" font-weight="400" font-size="12" transform="matrix(2.77935 2.02278 -2.02278 2.77935 2466.08 603.538)" x="2.19112" y="2.64277">Light Duty<tspan font-size="12" x="13.8368" y="-5.83284"> </tspan><tspan font-size="12" x="5.8488" y="5.25122">Vehicles</tspan></text><text fill="#FEFEFE" font-family="Calibri,Calibri_MSFontService,sans-serif" font-weight="400" font-size="12" transform="matrix(2.07899 2.73756 -2.73756 2.07899 2856.75 675.718)" x="1.11675" y="0.742861">Other</text><text fill="#FEFEFE" font-family="Calibri,Calibri_MSFontService,sans-serif" font-weight="400" font-size="12" transform="matrix(2.07911 2.73747 -2.73747 2.07911 2651.93 406.095)" x="1.15503" y="0.692458">Non-Road<tspan font-size="12" x="9.72439" y="-10.5904">…</tspan></text><text fill="#FEFEFE" font-family="Calibri,Calibri_MSFontService,sans-serif" font-weight="400" font-size="12" transform="matrix(2.07872 2.73776 -2.73776 2.07872 2665.96 424.394)" x="1.18004" y="0.659486">Pipelines</text><text fill="#FFFFFF" font-family="Calibri,Calibri_MSFontService,sans-serif" font-weight="400" font-size="12" transform="matrix(0.179161 3.43283 -3.43283 0.179161 3291.04 180.526)" x="3.37955" y="0.000858024">Solid Waste</text></g><g><text fill="#595959" font-family="Calibri,Calibri_MSFontService,sans-serif" font-weight="400" font-size="64" transform="translate(2761.48 86)">Hunter 2021 Emissions by source</text></g><g><text fill="#595959" font-family="Calibri,Calibri_MSFontService,sans-serif" font-weight="400" font-size="64" transform="translate(3624.5 86)">, t CO2</text></g><g><text fill="#595959" font-family="Calibri,Calibri_MSFontService,sans-serif" font-weight="400" font-size="64" transform="translate(3800.25 86)">-</text></g><g><text fill="#595959" font-family="Calibri,Calibri_MSFontService,sans-serif" font-weight="400" font-size="64" transform="translate(3819.89 86)">eq</text></g><path d="M2142 0 4507 0 4507 2485.31 2142 2485.31Z" fill="#000000" fill-rule="evenodd" fill-opacity="0"/></g></svg>