<svg width="2262" height="2424" xmlns="http://www.w3.org/2000/svg" xmlns:xlink="http://www.w3.org/1999/xlink" xml:space="preserve" overflow="hidden"><g transform="translate(-2609 -134)"><rect x="2609.5" y="134.5" width="2261" height="2423" fill="#FFFFFF"/><rect x="2609.5" y="134.5" width="2261" height="2423" stroke="#D9D9D9" stroke-width="3.4375" stroke-miterlimit="2" fill="none"/><g><path d="M3739.94 1117.41C3725.99 1117.41 3712.06 1118.47 3698.26 1120.57L3656.59 847.616C3684.17 843.405 3712.04 841.291 3739.94 841.291Z" stroke="#FFFFFF" stroke-width="6.875" stroke-miterlimit="2" fill="#2C4D75"/><path d="M3698.26 1120.57C3678.97 1123.52 3660.05 1128.5 3641.81 1135.43L3543.68 877.34C3580.16 863.47 3618.01 853.507 3656.59 847.617Z" stroke="#FFFFFF" stroke-width="6.875" stroke-miterlimit="2" fill="#4F81BD"/><path d="M3641.81 1135.43C3619.49 1143.92 3598.37 1155.26 3578.97 1169.18L3418 944.838C3456.8 916.999 3499.05 894.311 3543.68 877.34Z" stroke="#FFFFFF" stroke-width="6.875" stroke-miterlimit="2" fill="#8064A2"/><path d="M3578.97 1169.18C3542.14 1195.61 3512.38 1230.7 3492.32 1271.35L3244.71 1149.17C3284.82 1067.87 3344.34 997.692 3418 944.839Z" stroke="#FFFFFF" stroke-width="6.875" stroke-miterlimit="2" fill="#9BBB59"/><path d="M3492.32 1271.35C3463.7 1329.36 3456.35 1395.59 3471.57 1458.46L3203.19 1523.4C3172.76 1397.65 3187.46 1265.2 3244.71 1149.17Z" stroke="#FFFFFF" stroke-width="6.875" stroke-miterlimit="2" fill="#F79646"/><path d="M3471.57 1458.46C3487.45 1524.12 3526.85 1581.67 3582.32 1620.23L3424.69 1846.94C3313.77 1769.82 3234.97 1654.71 3203.19 1523.4Z" stroke="#FFFFFF" stroke-width="6.875" stroke-miterlimit="2" fill="#4BACC6"/><path d="M3582.32 1620.23C3672.46 1682.91 3791.18 1686.22 3884.68 1628.67L4029.42 1863.81C3842.42 1978.91 3604.99 1972.29 3424.69 1846.94Z" stroke="#FFFFFF" stroke-width="6.875" stroke-miterlimit="2" fill="#C0504D"/><path d="M3884.68 1628.67C3989.87 1563.91 4039.26 1437.17 4005.61 1318.31 3971.96 1199.45 3863.47 1117.41 3739.94 1117.41L3739.94 841.291C3986.99 841.291 4203.99 1005.38 4271.29 1243.1 4338.59 1480.81 4239.81 1734.3 4029.42 1863.81Z" stroke="#FFFFFF" stroke-width="6.875" stroke-miterlimit="2" fill="#772C2A"/><path d="M3739.94 841.291C3734.94 841.291 3729.94 841.359 3724.95 841.494L3717.45 565.479C3724.94 565.275 3732.44 565.173 3739.94 565.173Z" stroke="#FFFFFF" stroke-width="6.875" stroke-miterlimit="2" fill="#2C4D75"/><path d="M3724.95 841.494C3702.06 842.116 3679.23 844.161 3656.59 847.616L3614.92 574.662C3648.87 569.478 3683.12 566.411 3717.45 565.479Z" stroke="#FFFFFF" stroke-width="6.875" stroke-miterlimit="2" fill="#2C4D75"/><path d="M3739.94 565.173C3737.12 565.173 3734.31 565.188 3731.5 565.216L3728.68 289.114C3732.43 289.076 3736.19 289.056 3739.94 289.056Z" stroke="#FFFFFF" stroke-width="6.875" stroke-miterlimit="2" fill="#2C4D75"/><path d="M3731.5 565.217C3726.81 565.264 3722.13 565.352 3717.45 565.479L3709.96 289.463C3716.2 289.294 3722.44 289.177 3728.68 289.114Z" stroke="#FFFFFF" stroke-width="6.875" stroke-miterlimit="2" fill="#2C4D75"/><path d="M3717.45 565.479C3683.12 566.411 3648.87 569.478 3614.92 574.662L3573.25 301.708C3618.52 294.796 3664.18 290.706 3709.96 289.463Z" stroke="#FFFFFF" stroke-width="6.875" stroke-miterlimit="2" fill="#2C4D75"/><path d="M3656.59 847.616 3614.6 574.711Z" stroke="#FFFFFF" stroke-width="6.875" stroke-miterlimit="2" fill="#4F81BD"/><path d="M3656.38 847.649 3614.11 574.785Z" stroke="#FFFFFF" stroke-width="6.875" stroke-miterlimit="2" fill="#4F81BD"/><path d="M3656.06 847.698C3655.14 847.839 3654.23 847.981 3653.32 848.126L3610.01 575.426C3611.38 575.209 3612.75 574.995 3614.11 574.785Z" stroke="#FFFFFF" stroke-width="6.875" stroke-miterlimit="2" fill="#4F81BD"/><path d="M3653.32 848.126C3651.49 848.417 3649.66 848.716 3647.84 849.025L3601.79 576.775C3604.53 576.312 3607.27 575.862 3610.01 575.426Z" stroke="#FFFFFF" stroke-width="6.875" stroke-miterlimit="2" fill="#4F81BD"/><path d="M3647.84 849.025C3645.88 849.356 3643.93 849.697 3641.98 850.048L3593 578.31C3595.92 577.783 3598.85 577.271 3601.79 576.775Z" stroke="#FFFFFF" stroke-width="6.875" stroke-miterlimit="2" fill="#4F81BD"/><path d="M3641.98 850.048C3634.19 851.453 3626.42 853.025 3618.7 854.763L3558.08 585.382C3569.67 582.775 3581.31 580.417 3593 578.31Z" stroke="#FFFFFF" stroke-width="6.875" stroke-miterlimit="2" fill="#4F81BD"/><path d="M3618.7 854.763C3593.19 860.503 3568.12 868.048 3543.68 877.34L3445.56 619.248C3482.22 605.31 3519.82 593.993 3558.08 585.382Z" stroke="#FFFFFF" stroke-width="6.875" stroke-miterlimit="2" fill="#4F81BD"/><path d="M3614.92 574.662 3572.82 301.772Z" stroke="#FFFFFF" stroke-width="6.875" stroke-miterlimit="2" fill="#4F81BD"/><path d="M3614.6 574.711 3572.17 301.872Z" stroke="#FFFFFF" stroke-width="6.875" stroke-miterlimit="2" fill="#4F81BD"/><path d="M3614.11 574.785C3612.75 574.995 3611.38 575.209 3610.01 575.426L3566.7 302.727C3568.53 302.437 3570.35 302.152 3572.17 301.872Z" stroke="#FFFFFF" stroke-width="6.875" stroke-miterlimit="2" fill="#4F81BD"/><path d="M3610.01 575.426C3607.27 575.862 3604.53 576.312 3601.79 576.775L3555.74 304.525C3559.39 303.907 3563.05 303.308 3566.7 302.727Z" stroke="#FFFFFF" stroke-width="6.875" stroke-miterlimit="2" fill="#4F81BD"/><path d="M3601.79 576.775C3598.85 577.271 3595.93 577.783 3593 578.31L3544.02 306.572C3547.92 305.869 3551.83 305.186 3555.74 304.525Z" stroke="#FFFFFF" stroke-width="6.875" stroke-miterlimit="2" fill="#4F81BD"/><path d="M3593 578.31C3581.31 580.417 3569.67 582.775 3558.08 585.382L3497.46 316.002C3512.91 312.525 3528.43 309.381 3544.02 306.572Z" stroke="#FFFFFF" stroke-width="6.875" stroke-miterlimit="2" fill="#4F81BD"/><path d="M3558.08 585.382C3519.82 593.993 3482.21 605.31 3445.56 619.248L3347.43 361.155C3396.31 342.571 3446.45 327.482 3497.46 316.001Z" stroke="#FFFFFF" stroke-width="6.875" stroke-miterlimit="2" fill="#4F81BD"/><path d="M3543.68 877.34C3542.44 877.814 3541.19 878.293 3539.95 878.776L3439.95 621.401C3441.82 620.676 3443.69 619.958 3445.56 619.247Z" stroke="#FFFFFF" stroke-width="6.875" stroke-miterlimit="2" fill="#8064A2"/><path d="M3539.95 878.776C3537.74 879.635 3535.53 880.508 3533.33 881.396L3430.03 625.332C3433.33 624 3436.64 622.69 3439.95 621.401Z" stroke="#FFFFFF" stroke-width="6.875" stroke-miterlimit="2" fill="#8064A2"/><path d="M3533.33 881.396C3492.49 897.87 3453.78 919.169 3418 944.839L3257.03 720.495C3310.7 681.991 3368.77 650.043 3430.03 625.332Z" stroke="#FFFFFF" stroke-width="6.875" stroke-miterlimit="2" fill="#8064A2"/><path d="M3445.56 619.248C3443.69 619.959 3441.82 620.676 3439.95 621.401L3339.96 364.026C3342.44 363.06 3344.94 362.103 3347.43 361.155Z" stroke="#FFFFFF" stroke-width="6.875" stroke-miterlimit="2" fill="#8064A2"/><path d="M3439.95 621.401C3436.64 622.69 3433.33 624 3430.03 625.332L3326.72 369.267C3331.12 367.492 3335.54 365.745 3339.96 364.026Z" stroke="#FFFFFF" stroke-width="6.875" stroke-miterlimit="2" fill="#8064A2"/><path d="M3430.03 625.332C3368.77 650.043 3310.7 681.991 3257.03 720.495L3096.06 496.152C3167.62 444.813 3245.05 402.215 3326.72 369.267Z" stroke="#FFFFFF" stroke-width="6.875" stroke-miterlimit="2" fill="#8064A2"/><path d="M3418 944.838C3344.34 997.691 3284.82 1067.87 3244.71 1149.17L2997.09 1026.99C3057.27 905.037 3146.54 799.775 3257.03 720.496Z" stroke="#FFFFFF" stroke-width="6.875" stroke-miterlimit="2" fill="#9BBB59"/><path d="M3257.03 720.495C3146.54 799.774 3057.27 905.036 2997.09 1026.99L2749.48 904.813C2829.71 742.208 2948.74 601.858 3096.06 496.153Z" stroke="#FFFFFF" stroke-width="6.875" stroke-miterlimit="2" fill="#9BBB59"/><path d="M3244.71 1149.17 2996.91 1027.35Z" stroke="#FFFFFF" stroke-width="6.875" stroke-miterlimit="2" fill="#F79646"/><path d="M3244.59 1149.41C3244.05 1150.51 3243.51 1151.61 3242.97 1152.71L2994.49 1032.31C2995.29 1030.65 2996.1 1029 2996.91 1027.35Z" stroke="#FFFFFF" stroke-width="6.875" stroke-miterlimit="2" fill="#F79646"/><path d="M3242.97 1152.71C3241.12 1156.54 3239.31 1160.38 3237.55 1164.24L2986.36 1049.6C2989 1043.8 2991.71 1038.04 2994.49 1032.31Z" stroke="#FFFFFF" stroke-width="6.875" stroke-miterlimit="2" fill="#F79646"/><path d="M3237.55 1164.24C3230.25 1180.24 3223.71 1196.59 3217.97 1213.21L2956.99 1123.06C2965.6 1098.12 2975.4 1073.6 2986.36 1049.6Z" stroke="#FFFFFF" stroke-width="6.875" stroke-miterlimit="2" fill="#F79646"/><path d="M3217.97 1213.21C3183.48 1313.07 3178.35 1420.72 3203.19 1523.4L2934.82 1588.34C2897.55 1434.32 2905.24 1272.84 2956.99 1123.06Z" stroke="#FFFFFF" stroke-width="6.875" stroke-miterlimit="2" fill="#F79646"/><path d="M2997.09 1026.99 2749.41 904.959Z" stroke="#FFFFFF" stroke-width="6.875" stroke-miterlimit="2" fill="#F79646"/><path d="M2997.04 1027.1 2749.24 905.293Z" stroke="#FFFFFF" stroke-width="6.875" stroke-miterlimit="2" fill="#F79646"/><path d="M2996.91 1027.35C2996.1 1029 2995.29 1030.65 2994.49 1032.31L2746.01 911.902C2747.08 909.696 2748.16 907.493 2749.24 905.294Z" stroke="#FFFFFF" stroke-width="6.875" stroke-miterlimit="2" fill="#F79646"/><path d="M2994.49 1032.31C2991.71 1038.04 2989 1043.81 2986.36 1049.6L2735.17 934.958C2738.69 927.231 2742.31 919.545 2746.01 911.901Z" stroke="#FFFFFF" stroke-width="6.875" stroke-miterlimit="2" fill="#F79646"/><path d="M2986.36 1049.6C2975.4 1073.6 2965.6 1098.12 2956.99 1123.06L2696 1032.9C2707.49 999.647 2720.56 966.963 2735.17 934.958Z" stroke="#FFFFFF" stroke-width="6.875" stroke-miterlimit="2" fill="#F79646"/><path d="M2956.99 1123.06C2940.76 1170.04 2928.79 1218.39 2921.23 1267.52L2648.32 1225.52C2658.4 1160.01 2674.36 1095.54 2696 1032.9Z" stroke="#FFFFFF" stroke-width="6.875" stroke-miterlimit="2" fill="#F79646"/><path d="M2921.23 1267.52C2904.79 1374.32 2909.41 1483.31 2934.82 1588.34L2666.45 1653.28C2632.56 1513.24 2626.4 1367.93 2648.32 1225.52Z" stroke="#FFFFFF" stroke-width="6.875" stroke-miterlimit="2" fill="#F79646"/><path d="M3203.19 1523.4C3234.97 1654.71 3313.77 1769.82 3424.69 1846.94L3267.07 2073.65C3100.69 1957.96 2982.48 1785.31 2934.82 1588.34Z" stroke="#FFFFFF" stroke-width="6.875" stroke-miterlimit="2" fill="#4BACC6"/><path d="M2934.82 1588.34C2982.48 1785.31 3100.69 1957.96 3267.07 2073.65L3109.45 2300.35C2887.61 2146.11 2730 1915.9 2666.45 1653.28Z" stroke="#FFFFFF" stroke-width="6.875" stroke-miterlimit="2" fill="#4BACC6"/><path d="M3424.69 1846.94C3604.99 1972.29 3842.42 1978.91 4029.42 1863.81L4174.15 2098.95C3893.65 2271.61 3537.51 2261.67 3267.07 2073.65Z" stroke="#FFFFFF" stroke-width="6.875" stroke-miterlimit="2" fill="#C0504D"/><path d="M3267.07 2073.65C3537.51 2261.67 3893.65 2271.61 4174.16 2098.95L4318.89 2334.09C3944.89 2564.3 3470.03 2551.06 3109.45 2300.35Z" stroke="#FFFFFF" stroke-width="6.875" stroke-miterlimit="2" fill="#C0504D"/><path d="M4029.42 1863.81C4103.52 1818.19 4165.79 1755.72 4211.16 1681.47L4446.77 1825.44C4378.72 1936.81 4285.31 2030.53 4174.15 2098.95Z" stroke="#FFFFFF" stroke-width="6.875" stroke-miterlimit="2" fill="#772C2A"/><path d="M4211.16 1681.47C4315.32 1511.02 4319.3 1297.61 4221.59 1123.38 4123.87 949.163 3939.69 841.291 3739.94 841.291L3739.94 565.173C4039.57 565.173 4315.84 726.982 4462.41 988.314 4608.98 1249.65 4603 1569.76 4446.77 1825.44Z" stroke="#FFFFFF" stroke-width="6.875" stroke-miterlimit="2" fill="#772C2A"/><path d="M4174.15 2098.95C4285.31 2030.53 4378.72 1936.81 4446.77 1825.44L4682.39 1969.41C4591.65 2117.91 4467.1 2242.86 4318.89 2334.09Z" stroke="#FFFFFF" stroke-width="6.875" stroke-miterlimit="2" fill="#772C2A"/><path d="M4446.77 1825.44C4603 1569.76 4608.98 1249.65 4462.41 988.314 4315.84 726.982 4039.57 565.173 3739.94 565.173L3739.94 289.056C4139.44 289.056 4507.81 504.801 4703.24 853.244 4898.67 1201.69 4890.69 1628.51 4682.39 1969.41Z" stroke="#FFFFFF" stroke-width="6.875" stroke-miterlimit="2" fill="#772C2A"/><text fill="#FEFEFE" font-family="Calibri,Calibri_MSFontService,sans-serif" font-weight="400" font-size="12" transform="matrix(0.875125 3.32424 -3.32424 0.875125 3635.23 895.9)" x="3.30148" y="0.716079">Agriculture</text><text fill="#FEFEFE" font-family="Calibri,Calibri_MSFontService,sans-serif" font-weight="400" font-size="12" transform="matrix(0.990642 3.29166 -3.29166 0.990642 3554.34 688.577)" x="3.27267" y="0.836884">Beef<tspan font-size="12" x="-77.0522" y="0.836815">Beef</tspan></text><text fill="#FFFFFF" font-family="Calibri,Calibri_MSFontService,sans-serif" font-weight="400" font-size="12" transform="matrix(0.521134 3.39777 -3.39777 0.521134 3615.58 581.59)" x="1.35564" y="-0.00878784">Other Livestock</text><text fill="#FEFEFE" font-family="Calibri,Calibri_MSFontService,sans-serif" font-weight="400" font-size="12" transform="matrix(0.519465 3.39802 -3.39802 0.519465 3631.9 686.087)" x="1.33202" y="0.145002">Pig<tspan font-size="12" x="-78.993" y="0.129418">Pig</tspan></text><text fill="#FEFEFE" font-family="Calibri,Calibri_MSFontService,sans-serif" font-weight="400" font-size="12" transform="matrix(0.0958504 -3.43616 3.43616 0.0958504 3674.2 1926.12)" x="-3.42137" y="0.218781">Fugitives from<tspan font-size="12" x="-2.86043" y="20.328"> </tspan><tspan font-size="12" x="-7.49545" y="6.99212">fuels</tspan><tspan font-size="12" x="-83.7463" y="0.218697">Fugitives from</tspan><tspan font-size="12" x="-83.1853" y="20.3279"> </tspan><tspan font-size="12" x="-87.8204" y="6.99203">fuels</tspan><tspan font-size="12" x="-164.071" y="0.218756">Fugitives from</tspan><tspan font-size="12" x="-163.51" y="20.328"> </tspan><tspan font-size="12" x="-168.145" y="6.99209">fuels</tspan></text><text fill="#FEFEFE" font-family="Calibri,Calibri_MSFontService,sans-serif" font-weight="400" font-size="12" transform="matrix(2.62162 2.2234 -2.2234 2.62162 3369.18 1012.4)" x="4.55059" y="0.63302">Industrial<tspan font-size="12" x="14.7463" y="-8.014"> </tspan><tspan font-size="12" x="5.04947" y="5.79748">Process and</tspan><tspan font-size="12" x="17.9218" y="-5.11962">…</tspan></text><text fill="#FEFEFE" font-family="Calibri,Calibri_MSFontService,sans-serif" font-weight="400" font-size="12" transform="matrix(2.62162 2.2234 -2.2234 2.62162 3184.32 822.278)" x="3.80715" y="1.33059">Industrial<tspan font-size="12" x="14.0029" y="-7.31643"> </tspan><tspan font-size="12" x="5.22511" y="5.71557">Process and</tspan><tspan font-size="12" x="18.0975" y="-5.20153"> </tspan><tspan font-size="12" x="7.8397" y="9.08568">Product Use</tspan><tspan font-size="12" x="-76.5178" y="1.33058">Industrial</tspan><tspan font-size="12" x="-66.3221" y="-7.31644"> </tspan><tspan font-size="12" x="-75.0998" y="5.71556">Process and</tspan><tspan font-size="12" x="-62.2275" y="-5.20154"> </tspan><tspan font-size="12" x="-72.4853" y="9.08567">Product Use</tspan></text><text fill="#FEFEFE" font-family="Calibri,Calibri_MSFontService,sans-serif" font-weight="400" font-size="12" transform="matrix(1.62642 3.02839 -3.02839 1.62642 3504.31 901.041)" x="3.07186" y="1.4134">Land Use, Lan<tspan font-size="12" x="12.3328" y="-15.8304">…</tspan></text><text fill="#FEFEFE" font-family="Calibri,Calibri_MSFontService,sans-serif" font-weight="400" font-size="12" transform="matrix(1.65682 3.01187 -3.01187 1.65682 3389.55 703.815)" x="3.04446" y="1.46789">Grassland<tspan font-size="12" x="-77.2805" y="1.46793">Grassland</tspan></text><text fill="#FEFEFE" font-family="Calibri,Calibri_MSFontService,sans-serif" font-weight="400" font-size="12" transform="matrix(2.83645 -1.9419 1.9419 2.83645 3260.25 1598.66)" x="-1.12474" y="3.50607">Stationary<tspan font-size="12" x="10.8207" y="11.6842"> </tspan><tspan font-size="12" x="-1.54819" y="8.38053">Energy</tspan><tspan font-size="12" x="6.42949" y="13.8422"> </tspan><tspan font-size="12" x="-5.90773" y="10.5602">(excluding</tspan><tspan font-size="12" x="5.9744" y="18.695"> </tspan><tspan font-size="12" x="-9.11675" y="13.5276">Electricity</tspan><tspan font-size="12" x="2.37999" y="21.3986">…</tspan><tspan font-size="12" x="-82.2513" y="-3.80486">Stationary</tspan><tspan font-size="12" x="-70.3059" y="4.37327"> </tspan><tspan font-size="12" x="-82.6747" y="1.0696">Energy</tspan><tspan font-size="12" x="-74.697" y="6.53132"> </tspan><tspan font-size="12" x="-87.0343" y="3.24931">(excluding</tspan><tspan font-size="12" x="-75.1521" y="11.3841"> </tspan><tspan font-size="12" x="-89.2489" y="6.89749">Electricity</tspan><tspan font-size="12" x="-77.7521" y="14.7685"> </tspan><tspan font-size="12" x="-92.9108" y="9.55481">Generation)</tspan><tspan font-size="12" x="-162.576" y="-3.80485">Stationary</tspan><tspan font-size="12" x="-150.631" y="4.37329"> </tspan><tspan font-size="12" x="-163" y="1.06961">Energy</tspan><tspan font-size="12" x="-155.022" y="6.53133"> </tspan><tspan font-size="12" x="-167.359" y="3.24933">(excluding</tspan><tspan font-size="12" x="-155.477" y="11.3841"> </tspan><tspan font-size="12" x="-169.574" y="6.8975">Electricity</tspan><tspan font-size="12" x="-158.077" y="14.7685"> </tspan><tspan font-size="12" x="-173.236" y="9.55482">Generation)</tspan></text><text fill="#FEFEFE" font-family="Calibri,Calibri_MSFontService,sans-serif" font-weight="400" font-size="12" transform="matrix(3.41654 0.378999 -0.378999 3.41654 3250.65 1313.66)" x="0.571171" y="3.33234">Transport</text><text fill="#FEFEFE" font-family="Calibri,Calibri_MSFontService,sans-serif" font-weight="400" font-size="12" transform="matrix(3.43361 0.16357 -0.16357 3.43361 2981.77 1331.95)" x="0.263036" y="3.3663">On-road</text><text fill="#FEFEFE" font-family="Calibri,Calibri_MSFontService,sans-serif" font-weight="400" font-size="12" transform="matrix(3.33679 0.825984 -0.825984 3.33679 2720.09 1088.68)" x="0.996987" y="3.28275">Heavy Duty<tspan font-size="12" x="16.7455" y="-0.615618"> </tspan><tspan font-size="12" x="4.28526" y="6.85876">Vehicles</tspan></text><text fill="#FEFEFE" font-family="Calibri,Calibri_MSFontService,sans-serif" font-weight="400" font-size="12" transform="matrix(3.43442 -0.145545 0.145545 3.43442 2686.37 1387.27)" x="0.0712194" y="3.43223">Light Duty<tspan font-size="12" x="14.4617" y="4.04207"> </tspan><tspan font-size="12" x="1.31196" y="7.75">Vehicles</tspan></text><text fill="#FEFEFE" font-family="Calibri,Calibri_MSFontService,sans-serif" font-weight="400" font-size="12" transform="matrix(3.08303 1.5203 -1.5203 3.08303 3076.63 1066.29)" x="0.667204" y="1.16353">Other</text><text fill="#FEFEFE" font-family="Calibri,Calibri_MSFontService,sans-serif" font-weight="400" font-size="12" transform="matrix(3.08315 1.52007 -1.52007 3.08315 2784.48 922.303)" x="0.723938" y="1.13557">Non-Road<tspan font-size="12" x="13.4316" y="-5.12964">…</tspan></text><text fill="#FEFEFE" font-family="Calibri,Calibri_MSFontService,sans-serif" font-weight="400" font-size="12" transform="matrix(3.08278 1.52082 -1.52082 3.08278 2805.24 932.344)" x="0.761156" y="1.11717">Pipelines</text><text fill="#FEFEFE" font-family="Calibri,Calibri_MSFontService,sans-serif" font-weight="400" font-size="12" transform="matrix(3.19179 1.27627 -1.27627 3.19179 3048.51 1089.67)" x="1.36491" y="3.08904">Railway<tspan font-size="12" x="-78.9601" y="3.08898">Railway</tspan></text><text fill="#FEFEFE" font-family="Calibri,Calibri_MSFontService,sans-serif" font-weight="400" font-size="12" transform="matrix(0.306654 3.42379 -3.42379 0.306654 3694.89 605.516)" x="3.37718" y="0.126493">Solid Waste<tspan font-size="12" x="-76.9478" y="0.126466">Solid Waste</tspan></text><text fill="#FEFEFE" font-family="Calibri,Calibri_MSFontService,sans-serif" font-weight="400" font-size="12" transform="matrix(3.30751 -0.936368 0.936368 3.30751 3998.12 1241.15)" x="2.56641" y="4.3405">Electricity<tspan font-size="12" x="15.9725" y="8.1358"> </tspan><tspan font-size="12" x="-1.90817" y="7.50257">Consumption -</tspan><tspan font-size="12" x="18.1255" y="13.1742"> </tspan><tspan font-size="12" x="1.64547" y="12.9375">Scope 2</tspan></text><text fill="#FEFEFE" font-family="Calibri,Calibri_MSFontService,sans-serif" font-weight="400" font-size="12" transform="matrix(2.99813 -1.68155 1.68155 2.99813 4266.06 1069.29)" x="-1.51668" y="3.01895">Business<tspan font-size="12" x="78.8083" y="3.01897">Business</tspan></text><text fill="#FEFEFE" font-family="Calibri,Calibri_MSFontService,sans-serif" font-weight="400" font-size="12" transform="matrix(2.43464 2.42671 -2.42671 2.43464 4181.17 1797.41)" x="2.44657" y="2.3266">Residential</text><text fill="#FEFEFE" font-family="Calibri,Calibri_MSFontService,sans-serif" font-weight="400" font-size="12" transform="matrix(2.43464 2.42671 -2.42671 2.43464 4376.73 1992.34)" x="2.44657" y="2.3266">Residential</text></g><g><text fill="#595959" font-family="Calibri,Calibri_MSFontService,sans-serif" font-weight="400" font-size="64" transform="translate(2831.69 220)">Hunter emissions excluding electricity consumed elsewhere</text></g><g><text fill="#595959" font-family="Calibri,Calibri_MSFontService,sans-serif" font-weight="400" font-size="64" transform="translate(4387.16 220)">, t CO2</text></g><g><text fill="#595959" font-family="Calibri,Calibri_MSFontService,sans-serif" font-weight="400" font-size="64" transform="translate(4562.91 220)">-</text></g><g><text fill="#595959" font-family="Calibri,Calibri_MSFontService,sans-serif" font-weight="400" font-size="64" transform="translate(4582.55 220)">eq</text></g><path d="M2609 134 4870.88 134 4870.88 2557.44 2609 2557.44Z" fill="#000000" fill-rule="evenodd" fill-opacity="0"/></g></svg>