<?xml version="1.0" encoding="UTF-8"?>
<svg id="Layer_1" data-name="Layer 1" xmlns="http://www.w3.org/2000/svg" viewBox="0 0 430.06 430.06">
  <defs>
    <style>
      .cls-1, .cls-2 {
        fill-rule: evenodd;
      }

      .cls-1, .cls-2, .cls-3, .cls-4, .cls-5 {
        stroke-width: 0px;
      }

      .cls-1, .cls-5 {
        fill: #5c0425;
      }

      .cls-2, .cls-4 {
        fill: #edc8bd;
      }

      .cls-3 {
        fill: #fff;
      }
    </style>
  </defs>
  <rect class="cls-4" width="430.06" height="430.06"/>
  <path class="cls-1" d="m213.61,68.44c-4.01,0-6.02-3.93-10.03-3.93-2.01-1.97-2.01,0,0,1.97,0,1.97,4.01,0,4.01,0,2.01,1.97,0,5.9,2.01,5.9,0,1.97-2.01,1.97-4.01,1.97-2.01,1.97-4.01,1.97-6.02,1.97-4.01-1.97-4.01,0-8.02,0-6.02,1.97-4.01,7.87-8.02,9.83-4.01,3.93-6.02,9.83-4.01,13.77,4.01,5.9-6.02,1.97-8.02,1.97s-8.02,5.9-8.02,5.9c0,0-2.01-9.83-4.01-11.8,0-1.97-2.01-1.97-4.01-1.97q-2.01-1.97-2.01-3.93c-2.01-1.97-2.01,1.97-2.01,3.93-2.01,0-4.01,0-4.01-1.97-4.01,0-2.01,7.87-6.02,5.9l-2.01-1.97-2.01,1.97c-6.02-1.97-2.01,5.9-2.01,5.9h-4.01c0,1.97,2.01,1.97,2.01,1.97-2.01,3.93-4.01,0-4.01,5.9,0,1.97,2.01,1.97,2.01,3.93,0,3.93-14.04-3.93-14.04,1.97,0,1.97,8.02,5.9,4.01,7.87-2.01,0-2.01-1.97-2.01,0q-2.01,1.97-4.01,0c-2.01,0,0-3.93-2.01-5.9-2.01-3.93-6.02,3.93-8.02,5.9,0,1.97-2.01,3.93-2.01,5.9,0,0,2.01,1.97,2.01,3.93,0,0-4.01,3.93-6.02,5.9-6.02,5.9-12.03,9.83-20.05,11.8-6.02,0-12.03,3.93-20.05,5.9-6.02,1.97-12.03,1.97-18.05,5.9-4.01,3.93-6.02,3.93-10.03,5.9-2.01,1.97-6.02,7.87-6.02,7.87-2.01,0,0-5.9,0-7.87-4.01,0-6.02,9.83-6.02,9.83,2.01,5.9-2.01,7.87-2.01,13.77,0,1.97,10.03,23.6,6.02,25.57l-6.02-7.87c0,1.97,6.02,7.87,2.01,9.83-4.01,0-4.01-9.83-8.02-9.83,0,0,12.03,15.73,12.03,17.7,2.01,1.97,0,5.9,2.01,9.83,2.01,3.93,4.01,5.9,6.02,9.83,2.01,1.97,2.01,7.87,2.01,9.83,0,3.93,2.01,7.87,4.01,9.83,2.01,5.9,2.01,7.87,2.01,13.77v11.8c-2.01,1.97-4.01,1.97-6.02,3.93-2.01,5.9,2.01,5.9,4.01,7.87,8.02,3.93,14.04,7.87,24.06,5.9,4.01-1.97,8.02-3.93,10.03-5.9,6.02-1.97,4.01,0,6.02-3.93,4.01-3.93,18.05-3.93,22.06-1.97,6.02,0,16.04,3.93,20.05-1.97,2.01-1.97,2.01-5.9,6.02-7.87,4.01-1.97,8.02-3.93,12.03-5.9,6.02-3.93,14.04,0,20.05-3.93,10.03-3.93,18.05-3.93,30.08-5.9,2.01,0,4.01-1.97,8.02-1.97,2.01,1.97,6.02,3.93,8.02,5.9,2.01,0,22.06,3.93,22.06,5.9-2.01,1.97-4.01,7.87,0,5.9,2.01,0,6.02,5.9,8.02,7.87,2.01,1.97,2.01,3.93,2.01,7.87,2.01,1.97,6.02,5.9,6.02,5.9,0-1.97-2.01-3.93,2.01-5.9,2.01-1.97,4.01-3.93,8.02-5.9,2.01-1.97,12.03-11.8,10.03-13.77,2.01,3.93,0,5.9,0,9.83,2.01,1.97-2.01,3.93-2.01,3.93-2.01,3.93-2.01,5.9-2.01,7.87,0,3.93-8.02,5.9-2.01,5.9,8.02,0,4.01-7.87,6.02-11.8,0,0,8.02,7.87,6.02,11.8-6.02,7.87,2.01,1.97,6.02,5.9,6.02,5.9,6.02,7.87,6.02,13.77-2.01,5.9,6.02,11.8,10.03,11.8,4.01,1.97,8.02,3.93,12.03,3.93s12.03,9.83,16.04,7.87,8.02-3.93,10.03-7.87c0,0,4.01-5.9,6.02-3.93,0,1.97-4.01,3.93-2.01,5.9,2.01,1.97,2.01-3.93,4.01-3.93,0,0,4.01,5.9,6.02,5.9,0,1.97,4.01,5.9,6.02,5.9-2.01,0,4.01-5.9,4.01-5.9,4.01-1.97,6.02-5.9,8.02-7.87,6.02-1.97,22.06,1.97,22.06-5.9,2.01-9.83,4.01-15.73,6.02-23.6,4.01-7.87,6.02-15.73,12.03-23.6,2.01-1.97,6.02-3.93,8.02-7.87v-3.93c2.01-1.97,4.01-3.93,4.01-7.87,2.01-3.93,0-7.87,2.01-11.8,0-1.97,2.01-3.93,2.01-5.9,2.01-1.97-2.01-3.93,0-5.9,2.01-1.97,4.01-7.87,2.01-9.83,0-3.93-2.01-5.9-2.01-7.87-2.01-1.97-2.01-5.9-2.01-7.87-2.01-7.87,4.01-11.8,2.01-19.67,0,1.97-2.01,5.9-4.01,5.9-4.01,0-6.02-7.87-8.02-11.8-4.01-5.9-12.03-5.9-12.03-15.73-2.01-3.93-4.01-3.93-6.02-5.9-4.01-1.97-4.01,3.93-6.02,0,0-5.9-2.01-7.87-6.02-11.8,0,0-2.01-1.97-2.01-3.93-2.01,0,0-3.93,0-1.97-4.01-3.93-8.02-5.9-12.03-7.87-4.01-3.93-10.03-1.97-12.03-5.9-4.01-3.93-2.01-11.8-4.01-13.77,0-3.93,0-7.87-2.01-9.83-2.01-1.97-4.01-1.97-4.01-5.9s0-9.83-4.01-15.73c-2.01,0-6.02-5.9-6.02-3.93-4.01,0-4.01,1.97-6.02-1.97-4.01-3.93-2.01-11.8-6.02-17.7,0-1.97-8.02-15.73-8.02-15.73-2.01,0-2.01,3.93-2.01,5.9s-2.01,3.93-4.01,5.9c0,0-4.01,3.93-2.01,5.9,0,0,4.01,0,2.01,1.97-2.01,0-4.01,9.83-4.01,11.8,2.01,3.93,2.01,7.87,2.01,11.8-2.01,7.87-2.01,27.53-14.04,27.53-8.02,0-8.02-7.87-14.04-9.83-4.01-1.97-8.02-1.97-12.03-5.9-2.01-1.97-24.06-13.77-22.06-15.73,0-1.97,2.01-3.93,4.01-5.9,0-1.97,4.01-1.97,4.01-3.93,0,0-2.01-1.97-2.01-3.93l4.01-3.93c0-1.97,4.01-3.93,6.02-5.9,0-1.97-4.01-5.9-6.02-3.93l-2.01,3.93-4.01-3.93c0-1.97-4.01,1.97-6.02,1.97-2.01,1.97-4.01,0-6.02,0-4.01-1.97-10.03-3.93-16.04-5.9-4.01,0,4.01,1.97,0,0h0Z"/>
  <polygon class="cls-2" points="235.57 156.09 227.55 156.09 227.55 248.55 203.63 248.55 203.63 156.09 195.61 156.09 215.59 136.11 235.57 156.09 235.57 156.09"/>
  <g>
    <path class="cls-3" d="m276.46,204.03h-5.23v5.3c0,.7-.43,1.13-1.13,1.13h-3.16c-.7,0-1.13-.43-1.13-1.13v-5.3h-5.23c-.74,0-1.13-.39-1.13-1.09v-3.2c0-.7.39-1.13,1.13-1.13h5.19v-5.3c0-.7.43-1.13,1.13-1.13h3.2c.7,0,1.13.43,1.13,1.13v5.3h5.23c.7,0,1.13.43,1.13,1.13v3.2c0,.7-.43,1.09-1.13,1.09Z"/>
    <path class="cls-3" d="m298.07,209.8v3.35c0,.7-.43,1.13-1.13,1.13h-16.15c-.7,0-1.13-.43-1.13-1.13v-3.2c0-.58.2-.98.58-1.4,4.13-4.02,10.1-9.13,10.1-13.53,0-1.75-1.09-2.92-2.69-2.92-1.4,0-3.16.78-4.72,2.14-.58.47-1.13.47-1.6-.12l-1.95-2.34c-.43-.51-.47-1.05-.04-1.56,2.46-2.77,5.85-3.94,8.97-3.94,5.77,0,9.63,3.08,9.63,7.76s-3.12,8.97-8.89,14.63h7.88c.7,0,1.13.39,1.13,1.13Z"/>
    <path class="cls-3" d="m300.14,213.16v-5.11c0-.7.43-1.13,1.13-1.13h5.5c.7,0,1.13.43,1.13,1.13v5.11c0,.7-.43,1.13-1.13,1.13h-5.5c-.7,0-1.13-.43-1.13-1.13Z"/>
    <path class="cls-3" d="m327.2,209.8v3.35c0,.7-.43,1.13-1.13,1.13h-15.95c-.74,0-1.13-.43-1.13-1.13v-3.35c0-.74.39-1.13,1.13-1.13h4.95v-13.88l-3.9,2.18c-.62.35-1.13.19-1.56-.31l-2.26-2.69c-.47-.62-.39-1.17.27-1.56l8.5-4.99c.47-.27.9-.39,1.4-.39h3.71c.7,0,1.09.43,1.09,1.13v20.51h3.74c.7,0,1.13.39,1.13,1.13Z"/>
    <path class="cls-3" d="m328.29,193.85c0-4.49,2.73-7.22,7.22-7.22s7.21,2.73,7.21,7.22-2.73,7.21-7.21,7.21-7.22-2.77-7.22-7.21Zm9.52,20.44h-3.67c-.9,0-1.21-.58-.7-1.37l17.28-25.19c.31-.51.74-.7,1.33-.7h3.67c.9,0,1.25.58.7,1.37l-17.24,25.19c-.35.51-.78.7-1.37.7Zm-.31-20.44c0-1.91-.7-2.96-1.99-2.96s-1.99,1.05-1.99,2.96.7,2.92,1.99,2.92,1.99-1.05,1.99-2.92Zm9.59,13.61c0-4.49,2.73-7.22,7.22-7.22s7.21,2.73,7.21,7.22-2.73,7.25-7.21,7.25-7.22-2.77-7.22-7.25Zm9.21,0c0-1.87-.7-2.92-1.99-2.92s-1.99,1.05-1.99,2.92.7,2.96,1.99,2.96,1.99-1.05,1.99-2.96Z"/>
    <path class="cls-3" d="m265.95,234.43v1.43c0,.27-.15.43-.43.43h-5.77c-.27,0-.44-.17-.44-.43v-9.62c0-.27.17-.43.44-.43h2.13c.27,0,.43.17.43.43v7.77h3.21c.29,0,.43.15.43.42Z"/>
    <path class="cls-3" d="m273.64,230.57v5.28c0,.27-.15.43-.43.43h-1.77c-.27,0-.42-.17-.42-.43v-.24c-.58.6-1.46.96-2.25.96-1.44,0-2.4-1.04-2.4-2.58s1.27-2.58,3.18-2.58h1.29v-.46c0-.67-.44-.96-1.3-.96-.41,0-.9.11-1.31.29-.24.12-.43.09-.6-.13l-.69-.96c-.17-.24-.12-.46.12-.6.86-.46,2-.76,2.97-.76,2.37,0,3.62.95,3.62,2.76Zm-2.8,2.24h-.83c-.53,0-.83.33-.83.93,0,.5.27.79.71.79.38,0,.72-.21.95-.58v-1.14Z"/>
    <path class="cls-3" d="m278.58,231.2c1.15.32,2.7.71,2.7,2.57,0,1.68-1.51,2.8-3.78,2.8-1.14,0-2.34-.34-3.13-.9-.23-.17-.25-.38-.09-.61l.71-.96c.17-.23.36-.26.62-.11.51.29,1.18.46,1.74.46.62,0,.99-.21.99-.52,0-.39-.36-.51-1.1-.71-1.11-.3-2.8-.84-2.8-2.7,0-1.71,1.29-2.71,3.46-2.71.95,0,2.05.29,2.88.75.25.13.29.36.12.6l-.71.96c-.15.24-.34.25-.58.14-.42-.21-.95-.33-1.41-.33-.52,0-.9.21-.9.51,0,.41.42.51,1.29.76Z"/>
    <path class="cls-3" d="m282.61,233.74v-3.57h-.63c-.27,0-.42-.15-.42-.43v-.88c0-.24.11-.42.35-.5l.28-.06c.27-.1.44-.19.51-.67l.13-.85c.04-.27.21-.39.48-.39h1.75c.27,0,.42.17.42.44v1.3h1.43c.28,0,.43.15.43.42v1.2c0,.29-.15.43-.43.43h-1.43v3.32c0,.6.26.84.72.84.18,0,.38-.04.63-.11.29-.07.48.03.52.32l.18,1.21c.04.27-.11.46-.41.55-.6.18-1.16.27-1.68.27-1.68,0-2.85-.95-2.85-2.83Z"/>
    <path class="cls-3" d="m298.56,234.56v1.29c0,.27-.16.43-.43.43h-6.13c-.29,0-.43-.17-.43-.43v-1.29c0-.29.15-.44.43-.44h1.91v-5.34l-1.5.84c-.24.14-.44.08-.6-.12l-.87-1.04c-.18-.24-.15-.45.1-.6l3.27-1.92c.18-.1.35-.15.54-.15h1.42c.27,0,.42.17.42.43v7.89h1.44c.27,0,.43.15.43.44Z"/>
    <path class="cls-3" d="m305.91,234.56v1.29c0,.27-.17.43-.44.43h-6.21c-.27,0-.43-.17-.43-.43v-1.23c0-.22.08-.38.22-.54,1.59-1.54,3.89-3.51,3.89-5.21,0-.67-.42-1.12-1.04-1.12-.54,0-1.21.3-1.82.82-.22.18-.43.18-.61-.04l-.75-.9c-.17-.2-.18-.41-.02-.6.95-1.06,2.25-1.51,3.45-1.51,2.22,0,3.71,1.18,3.71,2.98s-1.2,3.45-3.42,5.62h3.03c.27,0,.44.15.44.44Z"/>
    <path class="cls-3" d="m321.65,230.32v5.54c0,.27-.17.43-.43.43h-2.03c-.27,0-.43-.17-.43-.43v-5.04c0-.48-.18-.75-.53-.75-.3,0-.58.22-.78.62v5.17c0,.27-.17.43-.44.43h-2.02c-.27,0-.44-.17-.44-.43v-5.04c0-.51-.13-.75-.46-.75s-.63.22-.85.64v5.15c0,.27-.17.43-.44.43h-2.01c-.29,0-.43-.17-.43-.43v-7.32c0-.27.15-.42.43-.42h1.89c.27,0,.44.15.44.42v.57c.46-.76,1.38-1.29,2.25-1.29s1.53.48,1.86,1.26c.46-.75,1.35-1.26,2.17-1.26,1.41,0,2.25.95,2.25,2.5Z"/>
    <path class="cls-3" d="m330.83,232.19c0,2.73-1.54,4.38-4.09,4.38s-4.11-1.65-4.11-4.38,1.54-4.38,4.11-4.38,4.09,1.67,4.09,4.38Zm-2.95,0c0-1.38-.41-2.13-1.14-2.13s-1.15.75-1.15,2.13.4,2.14,1.15,2.14,1.14-.76,1.14-2.14Z"/>
    <path class="cls-3" d="m339.19,230.32v5.54c0,.27-.17.43-.43.43h-2.03c-.27,0-.42-.17-.42-.43v-5.04c0-.48-.22-.75-.6-.75s-.74.29-.96.76v5.03c0,.27-.17.43-.44.43h-2.01c-.29,0-.43-.17-.43-.43v-7.32c0-.27.15-.42.43-.42h1.89c.27,0,.44.15.44.42v.57c.48-.79,1.41-1.29,2.28-1.29,1.38,0,2.28,1.02,2.28,2.5Z"/>
    <path class="cls-3" d="m340.88,233.74v-3.57h-.63c-.27,0-.42-.15-.42-.43v-.88c0-.24.11-.42.35-.5l.28-.06c.27-.1.44-.19.51-.67l.13-.85c.04-.27.21-.39.48-.39h1.75c.27,0,.42.17.42.44v1.3h1.43c.28,0,.43.15.43.42v1.2c0,.29-.15.43-.43.43h-1.43v3.32c0,.6.26.84.72.84.18,0,.38-.04.63-.11.29-.07.48.03.52.32l.18,1.21c.04.27-.11.46-.41.55-.6.18-1.16.27-1.68.27-1.68,0-2.85-.95-2.85-2.83Z"/>
    <path class="cls-3" d="m353.75,230.32v5.54c0,.27-.17.43-.43.43h-2.03c-.27,0-.42-.17-.42-.43v-5.04c0-.51-.2-.75-.62-.75-.34,0-.71.22-.94.66v5.13c0,.27-.17.43-.44.43h-2.01c-.29,0-.43-.17-.43-.43v-10.35c0-.27.15-.44.43-.44h2.01c.27,0,.44.17.44.44v3.42c.52-.69,1.33-1.11,2.16-1.11,1.44,0,2.28.95,2.28,2.5Z"/>
    <path class="cls-3" d="m358.69,231.2c1.15.32,2.7.71,2.7,2.57,0,1.68-1.51,2.8-3.78,2.8-1.14,0-2.34-.34-3.13-.9-.23-.17-.25-.38-.09-.61l.71-.96c.17-.23.36-.26.62-.11.51.29,1.18.46,1.74.46.62,0,.99-.21.99-.52,0-.39-.36-.51-1.1-.71-1.11-.3-2.8-.84-2.8-2.7,0-1.71,1.29-2.71,3.46-2.71.95,0,2.05.29,2.88.75.25.13.29.36.12.6l-.71.96c-.15.24-.34.25-.58.14-.42-.21-.95-.33-1.41-.33-.52,0-.9.21-.9.51,0,.41.42.51,1.29.76Z"/>
  </g>
  <g>
    <path class="cls-3" d="m79.96,204.03h-5.23v5.3c0,.7-.43,1.13-1.13,1.13h-3.16c-.7,0-1.13-.43-1.13-1.13v-5.3h-5.23c-.74,0-1.13-.39-1.13-1.09v-3.2c0-.7.39-1.13,1.13-1.13h5.19v-5.3c0-.7.43-1.13,1.13-1.13h3.2c.7,0,1.13.43,1.13,1.13v5.3h5.23c.7,0,1.13.43,1.13,1.13v3.2c0,.7-.43,1.09-1.13,1.09Z"/>
    <path class="cls-3" d="m105.23,200.68c0,9.32-3.71,14.35-10.73,14.35s-10.73-5.03-10.73-14.35,3.71-14.39,10.73-14.39,10.73,5.03,10.73,14.39Zm-7.64,0c0-6.04-.9-8.42-3.08-8.42s-3.08,2.38-3.08,8.42.9,8.38,3.08,8.38,3.08-2.38,3.08-8.38Z"/>
    <path class="cls-3" d="m107.22,213.16v-5.11c0-.7.43-1.13,1.13-1.13h5.5c.7,0,1.13.43,1.13,1.13v5.11c0,.7-.43,1.13-1.13,1.13h-5.5c-.7,0-1.13-.43-1.13-1.13Z"/>
    <path class="cls-3" d="m127.85,213.16v-4.29h-10.02c-.74,0-1.13-.39-1.13-1.13v-3.04c0-.51.08-.9.27-1.36l6.59-15.45c.27-.55.66-.86,1.33-.86h4.99c.82,0,1.21.51.86,1.33l-6.4,14.98h3.51l.94-3.55c.19-.62.58-.94,1.25-.94h3.9c.7,0,1.09.43,1.09,1.13v3.32h2.03c.74,0,1.13.43,1.13,1.13v3.31c0,.74-.39,1.13-1.13,1.13h-2.03v4.29c0,.7-.39,1.13-1.09,1.13h-4.95c-.74,0-1.13-.43-1.13-1.13Z"/>
    <path class="cls-3" d="m139.63,193.85c0-4.49,2.73-7.22,7.22-7.22s7.21,2.73,7.21,7.22-2.73,7.21-7.21,7.21-7.22-2.77-7.22-7.21Zm9.52,20.44h-3.67c-.9,0-1.21-.58-.7-1.37l17.28-25.19c.31-.51.74-.7,1.33-.7h3.67c.9,0,1.25.58.7,1.37l-17.24,25.19c-.35.51-.78.7-1.37.7Zm-.31-20.44c0-1.91-.7-2.96-1.99-2.96s-1.99,1.05-1.99,2.96.7,2.92,1.99,2.92,1.99-1.05,1.99-2.92Zm9.59,13.61c0-4.49,2.73-7.22,7.22-7.22s7.21,2.73,7.21,7.22-2.73,7.25-7.21,7.25-7.22-2.77-7.22-7.25Zm9.21,0c0-1.87-.7-2.92-1.99-2.92s-1.99,1.05-1.99,2.92.7,2.96,1.99,2.96,1.99-1.05,1.99-2.96Z"/>
    <path class="cls-3" d="m82.65,234.43v1.43c0,.27-.15.43-.43.43h-5.77c-.27,0-.44-.17-.44-.43v-9.62c0-.27.17-.43.44-.43h2.13c.27,0,.43.17.43.43v7.77h3.21c.29,0,.43.15.43.42Z"/>
    <path class="cls-3" d="m90.35,230.57v5.28c0,.27-.15.43-.43.43h-1.77c-.27,0-.42-.17-.42-.43v-.24c-.58.6-1.46.96-2.25.96-1.44,0-2.4-1.04-2.4-2.58s1.27-2.58,3.18-2.58h1.29v-.46c0-.67-.44-.96-1.3-.96-.41,0-.9.11-1.31.29-.24.12-.43.09-.6-.13l-.69-.96c-.17-.24-.12-.46.12-.6.86-.46,2-.76,2.97-.76,2.37,0,3.62.95,3.62,2.76Zm-2.8,2.24h-.83c-.53,0-.83.33-.83.93,0,.5.27.79.71.79.38,0,.72-.21.95-.58v-1.14Z"/>
    <path class="cls-3" d="m95.28,231.2c1.15.32,2.7.71,2.7,2.57,0,1.68-1.51,2.8-3.78,2.8-1.14,0-2.34-.34-3.13-.9-.23-.17-.25-.38-.09-.61l.71-.96c.17-.23.36-.26.62-.11.51.29,1.18.46,1.74.46.62,0,.99-.21.99-.52,0-.39-.36-.51-1.1-.71-1.11-.3-2.8-.84-2.8-2.7,0-1.71,1.29-2.71,3.46-2.71.95,0,2.05.29,2.88.75.25.13.29.36.12.6l-.71.96c-.15.24-.34.25-.58.14-.42-.21-.95-.33-1.41-.33-.52,0-.9.21-.9.51,0,.41.42.51,1.29.76Z"/>
    <path class="cls-3" d="m99.32,233.74v-3.57h-.63c-.27,0-.42-.15-.42-.43v-.88c0-.24.11-.42.35-.5l.28-.06c.27-.1.44-.19.51-.67l.13-.85c.04-.27.21-.39.48-.39h1.75c.27,0,.42.17.42.44v1.3h1.43c.28,0,.43.15.43.42v1.2c0,.29-.15.43-.43.43h-1.43v3.32c0,.6.26.84.72.84.18,0,.38-.04.63-.11.29-.07.48.03.52.32l.18,1.21c.04.27-.11.46-.41.55-.6.18-1.16.27-1.68.27-1.68,0-2.85-.95-2.85-2.83Z"/>
    <path class="cls-3" d="m113.03,239.24v-3.65c-.54.63-1.38.98-2.26.98-1.75,0-2.83-1.65-2.83-4.38s1.21-4.37,3.22-4.37c.78,0,1.56.39,2.08,1v-.3c0-.27.15-.42.42-.42h1.82c.28,0,.43.15.43.42v10.71c0,.29-.15.43-.43.43h-2.01c-.27,0-.43-.15-.43-.43Zm0-5.68v-2.73c-.25-.48-.65-.78-1.09-.78-.67,0-1.05.77-1.05,2.18s.36,2.11,1.02,2.11c.46,0,.87-.27,1.12-.78Z"/>
    <path class="cls-3" d="m124.4,228.53v7.32c0,.27-.17.43-.44.43h-1.81c-.27,0-.43-.17-.43-.43v-.56c-.5.81-1.41,1.28-2.28,1.28-1.38,0-2.26-.99-2.26-2.49v-5.55c0-.27.15-.42.43-.42h2.01c.29,0,.44.15.44.42v5.04c0,.51.21.78.58.78.34,0,.66-.23.87-.63v-5.19c0-.27.17-.42.44-.42h2.02c.27,0,.44.15.44.42Z"/>
    <path class="cls-3" d="m132.59,230.57v5.28c0,.27-.15.43-.43.43h-1.77c-.27,0-.42-.17-.42-.43v-.24c-.58.6-1.46.96-2.25.96-1.44,0-2.4-1.04-2.4-2.58s1.27-2.58,3.18-2.58h1.29v-.46c0-.67-.44-.96-1.3-.96-.41,0-.9.11-1.31.29-.24.12-.43.09-.6-.13l-.69-.96c-.17-.24-.12-.46.12-.6.86-.46,2-.76,2.97-.76,2.37,0,3.62.95,3.62,2.76Zm-2.8,2.24h-.83c-.53,0-.83.33-.83.93,0,.5.27.79.71.79.38,0,.72-.21.95-.58v-1.14Z"/>
    <path class="cls-3" d="m139.34,228.46l-.29,1.95c-.04.29-.21.39-.45.34-.13-.03-.27-.04-.4-.04-.67,0-1.23.45-1.47,1.16v3.99c0,.27-.17.43-.44.43h-2.01c-.29,0-.43-.17-.43-.43v-7.32c0-.27.15-.42.43-.42h1.89c.27,0,.44.15.44.42v.67c.39-.87,1.08-1.39,1.86-1.39.2,0,.42.04.6.1.24.08.3.29.27.54Z"/>
    <path class="cls-3" d="m140.37,233.74v-3.57h-.63c-.27,0-.42-.15-.42-.43v-.88c0-.24.1-.42.34-.5l.29-.06c.27-.1.43-.19.51-.67l.13-.85c.04-.27.21-.39.48-.39h1.75c.27,0,.42.17.42.44v1.3h1.42c.29,0,.44.15.44.42v1.2c0,.29-.15.43-.44.43h-1.42v3.32c0,.6.25.84.72.84.18,0,.38-.04.63-.11.29-.07.48.03.53.32l.18,1.21c.04.27-.1.46-.4.55-.6.18-1.16.27-1.68.27-1.68,0-2.85-.95-2.85-2.83Z"/>
    <path class="cls-3" d="m145.49,232.19c0-2.71,1.56-4.38,4.14-4.38,2.35,0,3.73,1.54,3.73,4.11,0,.24-.01.51-.06.78-.03.25-.2.39-.45.39h-4.42c.23.86.83,1.31,1.79,1.31.43,0,.97-.12,1.42-.32.25-.1.44-.06.6.15l.62.84c.15.22.13.43-.08.58-.81.58-2.01.92-3.15.92-2.58,0-4.14-1.65-4.14-4.38Zm5.1-.78c-.01-1-.41-1.59-1.05-1.59s-1.07.54-1.2,1.59h2.25Z"/>
    <path class="cls-3" d="m159.84,228.46l-.29,1.95c-.04.29-.21.39-.45.34-.13-.03-.27-.04-.41-.04-.67,0-1.23.45-1.47,1.16v3.99c0,.27-.17.43-.43.43h-2.01c-.28,0-.43-.17-.43-.43v-7.32c0-.27.15-.42.43-.42h1.89c.27,0,.43.15.43.42v.67c.39-.87,1.08-1.39,1.86-1.39.19,0,.42.04.6.1.24.08.3.29.27.54Z"/>
  </g>
  <path class="cls-1" d="m336.75,376.42c0,1.45,2.73,5.79,2.73,7.23,1.36,1.45,2.73,2.89,2.73,4.34s-1.36,1.45-1.36,2.89c1.36,4.34,5.46,7.23,8.19,8.68,2.73,0,2.73-2.89,4.09-4.34l1.36,2.89c0-1.45,0-4.34,1.36-4.34,1.36-1.45,1.36,1.45,2.73,1.45-1.36,0,2.73-10.13,2.73-11.57s1.36-10.13-2.73-8.68c-4.09,1.45-8.19,4.34-12.28,2.89-1.36,0-8.19-4.34-9.55-1.45,0,1.45,1.36-2.89,0,0h0Z"/>
  <path class="cls-1" d="m361.39,363.27c0-1.08-3.6,3.24-2.4,4.32,1.2,0,2.4-1.08,2.4-4.32h0Z"/>
  <path class="cls-1" d="m335.4,368.94c-1.8,0-1.8-3.6,0-3.6s1.8,3.6,0,3.6h0Z"/>
  <g>
    <path class="cls-5" d="m7.07,423.95c-.17-.14-.17-.31-.05-.48l.66-.97c.13-.18.3-.19.49-.06.22.16.46.24.66.24.52,0,.77-.36.77-.96v-3.92h-1.72c-.22,0-.34-.12-.34-.35v-1.13c0-.22.12-.35.34-.35h3.77c.22,0,.35.13.35.35v5.33c-.02,1.76-1.2,2.94-2.95,2.94-.72,0-1.48-.25-1.98-.64Z"/>
    <path class="cls-5" d="m18.78,418.16v5.85c0,.22-.13.35-.35.35h-1.45c-.22,0-.35-.13-.35-.35v-.44c-.4.65-1.13,1.02-1.82,1.02-1.1,0-1.81-.79-1.81-1.99v-4.44c0-.22.12-.34.35-.34h1.61c.23,0,.35.12.35.34v4.03c0,.41.17.62.47.62.28,0,.53-.18.7-.5v-4.15c0-.22.13-.34.35-.34h1.62c.22,0,.35.12.35.34Z"/>
    <path class="cls-5" d="m25.68,419.59v4.43c0,.22-.13.35-.35.35h-1.62c-.22,0-.34-.13-.34-.35v-4.03c0-.38-.18-.6-.48-.6s-.59.23-.77.61v4.02c0,.22-.13.35-.35.35h-1.61c-.23,0-.35-.13-.35-.35v-5.85c0-.22.12-.34.35-.34h1.51c.22,0,.35.12.35.34v.46c.38-.64,1.13-1.03,1.82-1.03,1.1,0,1.82.82,1.82,2Z"/>
    <path class="cls-5" d="m26.47,421.09c0-2.17,1.25-3.5,3.31-3.5,1.88,0,2.99,1.24,2.99,3.29,0,.19-.01.41-.05.62-.02.2-.16.31-.36.31h-3.54c.18.68.66,1.04,1.43,1.04.35,0,.78-.1,1.14-.25.2-.08.35-.05.48.12l.49.67c.12.18.11.35-.06.47-.65.47-1.61.73-2.52.73-2.06,0-3.31-1.32-3.31-3.5Zm4.08-.62c-.01-.8-.32-1.27-.84-1.27s-.85.43-.96,1.27h1.8Z"/>
    <path class="cls-5" d="m40.08,426.72v-2.91c-.43.5-1.1.78-1.81.78-1.4,0-2.27-1.32-2.27-3.5s.97-3.49,2.58-3.49c.62,0,1.25.31,1.67.8v-.24c0-.22.12-.34.34-.34h1.45c.23,0,.35.12.35.34v8.56c0,.23-.12.35-.35.35h-1.61c-.22,0-.35-.12-.35-.35Zm0-4.54v-2.18c-.2-.38-.52-.62-.88-.62-.54,0-.84.61-.84,1.74s.29,1.69.82,1.69c.37,0,.7-.22.9-.62Z"/>
    <path class="cls-5" d="m49.18,418.16v5.85c0,.22-.13.35-.35.35h-1.45c-.22,0-.35-.13-.35-.35v-.44c-.4.65-1.13,1.02-1.82,1.02-1.1,0-1.81-.79-1.81-1.99v-4.44c0-.22.12-.34.35-.34h1.61c.23,0,.35.12.35.34v4.03c0,.41.17.62.47.62.28,0,.53-.18.7-.5v-4.15c0-.22.13-.34.35-.34h1.62c.22,0,.35.12.35.34Z"/>
    <path class="cls-5" d="m55.73,419.79v4.22c0,.22-.12.35-.35.35h-1.42c-.22,0-.33-.13-.33-.35v-.19c-.47.48-1.16.77-1.8.77-1.15,0-1.92-.83-1.92-2.06s1.02-2.06,2.54-2.06h1.03v-.37c0-.54-.35-.77-1.04-.77-.32,0-.72.08-1.04.23-.19.1-.35.07-.48-.11l-.55-.77c-.13-.19-.1-.37.1-.48.68-.37,1.6-.61,2.38-.61,1.89,0,2.89.76,2.89,2.21Zm-2.24,1.79h-.66c-.42,0-.66.26-.66.74,0,.4.22.64.56.64.3,0,.58-.17.76-.47v-.91Z"/>
    <path class="cls-5" d="m61.13,418.1l-.23,1.56c-.04.23-.17.31-.36.28-.11-.02-.22-.04-.32-.04-.54,0-.98.36-1.18.92v3.19c0,.22-.13.35-.35.35h-1.61c-.23,0-.35-.13-.35-.35v-5.85c0-.22.12-.34.35-.34h1.51c.22,0,.35.12.35.34v.54c.31-.7.86-1.12,1.49-1.12.16,0,.34.04.48.08.19.06.24.23.22.43Z"/>
    <path class="cls-5" d="m61.96,422.32v-2.85h-.5c-.22,0-.33-.12-.33-.35v-.71c0-.19.08-.34.28-.4l.23-.05c.22-.08.35-.16.41-.54l.11-.68c.04-.22.17-.31.38-.31h1.4c.22,0,.34.13.34.35v1.04h1.14c.23,0,.35.12.35.34v.96c0,.23-.12.35-.35.35h-1.14v2.65c0,.48.2.67.58.67.14,0,.3-.04.5-.08.23-.06.38.02.42.25l.14.97c.04.22-.08.37-.32.44-.48.14-.92.22-1.34.22-1.34,0-2.28-.76-2.28-2.27Z"/>
    <path class="cls-5" d="m66.05,421.09c0-2.17,1.25-3.5,3.31-3.5,1.88,0,2.99,1.24,2.99,3.29,0,.19-.01.41-.05.62-.02.2-.16.31-.36.31h-3.54c.18.68.66,1.04,1.43,1.04.35,0,.78-.1,1.14-.25.2-.08.35-.05.48.12l.49.67c.12.18.11.35-.06.47-.65.47-1.61.73-2.52.73-2.06,0-3.31-1.32-3.31-3.5Zm4.08-.62c-.01-.8-.32-1.27-.84-1.27s-.85.43-.96,1.27h1.8Z"/>
    <path class="cls-5" d="m77.54,418.1l-.23,1.56c-.04.23-.17.31-.36.28-.11-.02-.22-.04-.32-.04-.54,0-.98.36-1.17.92v3.19c0,.22-.13.35-.35.35h-1.61c-.23,0-.35-.13-.35-.35v-5.85c0-.22.12-.34.35-.34h1.51c.22,0,.35.12.35.34v.54c.31-.7.86-1.12,1.49-1.12.16,0,.34.04.48.08.19.06.24.23.22.43Z"/>
    <path class="cls-5" d="m77.24,422.1h1.69c.22,0,.35.13.35.35v1.49c0,1.39-.77,2.28-2.06,2.45-.22.04-.34-.08-.37-.3l-.02-.16c-.04-.22.07-.34.28-.41.48-.18.76-.59.78-1.15h-.64c-.22,0-.35-.13-.35-.35v-1.57c0-.22.13-.35.35-.35Z"/>
    <path class="cls-5" d="m82.53,421.09c0-2.11,1.33-3.5,3.31-3.5.76,0,1.51.23,2.04.6.18.14.2.3.07.49l-.64.89c-.13.17-.29.17-.48.06-.2-.12-.43-.17-.66-.17-.83,0-1.25.54-1.25,1.63s.41,1.64,1.26,1.64c.22,0,.46-.07.66-.18.2-.12.35-.12.48.06l.64.89c.13.18.13.33-.02.46-.54.4-1.31.64-2.1.64-2,0-3.31-1.38-3.31-3.5Z"/>
    <path class="cls-5" d="m94.33,419.59v4.43c0,.22-.13.35-.35.35h-1.62c-.22,0-.34-.13-.34-.35v-4.03c0-.41-.16-.6-.49-.6-.28,0-.56.18-.76.53v4.1c0,.22-.13.35-.35.35h-1.61c-.23,0-.35-.13-.35-.35v-8.28c0-.22.12-.35.35-.35h1.61c.22,0,.35.13.35.35v2.73c.42-.55,1.07-.89,1.73-.89,1.15,0,1.82.76,1.82,2Z"/>
    <path class="cls-5" d="m100.85,419.79v4.22c0,.22-.12.35-.35.35h-1.42c-.22,0-.34-.13-.34-.35v-.19c-.47.48-1.16.77-1.8.77-1.15,0-1.92-.83-1.92-2.06s1.02-2.06,2.54-2.06h1.03v-.37c0-.54-.35-.77-1.04-.77-.32,0-.72.08-1.04.23-.19.1-.35.07-.48-.11l-.55-.77c-.13-.19-.1-.37.1-.48.68-.37,1.59-.61,2.37-.61,1.9,0,2.89.76,2.89,2.21Zm-2.24,1.79h-.66c-.42,0-.66.26-.66.74,0,.4.22.64.56.64.3,0,.58-.17.76-.47v-.91Z"/>
    <path class="cls-5" d="m101.85,416.73v-1c0-.22.12-.35.35-.35h1.64c.22,0,.35.13.35.35v1c0,.23-.13.35-.35.35h-1.64c-.23,0-.35-.12-.35-.35Zm.01,7.28v-5.85c0-.22.13-.34.35-.34h1.62c.22,0,.34.12.34.34v5.85c0,.22-.12.35-.34.35h-1.62c-.22,0-.35-.13-.35-.35Z"/>
    <path class="cls-5" d="m111.09,419.59v4.43c0,.22-.13.35-.35.35h-1.62c-.22,0-.34-.13-.34-.35v-4.03c0-.38-.18-.6-.48-.6s-.59.23-.77.61v4.02c0,.22-.13.35-.35.35h-1.61c-.23,0-.35-.13-.35-.35v-5.85c0-.22.12-.34.35-.34h1.51c.22,0,.35.12.35.34v.46c.38-.64,1.13-1.03,1.82-1.03,1.1,0,1.82.82,1.82,2Z"/>
    <path class="cls-5" d="m115.95,424.07l-1.79-5.87c-.07-.23.04-.38.29-.38h1.7c.22,0,.34.08.38.3l.85,4.26h.04l.86-4.26c.04-.22.17-.3.37-.3h1.66c.25,0,.36.16.29.38l-1.77,5.87c-.06.19-.19.29-.38.29h-2.11c-.19,0-.32-.1-.38-.29Z"/>
    <path class="cls-5" d="m127.26,421.09c0,2.18-1.24,3.5-3.27,3.5s-3.29-1.32-3.29-3.5,1.24-3.5,3.29-3.5,3.27,1.33,3.27,3.5Zm-2.36,0c0-1.1-.32-1.7-.91-1.7s-.92.6-.92,1.7.32,1.71.92,1.71.91-.61.91-1.71Z"/>
    <path class="cls-5" d="m128.04,424.01v-8.28c0-.22.12-.35.35-.35h1.61c.23,0,.35.13.35.35v8.28c0,.22-.12.35-.35.35h-1.61c-.23,0-.35-.13-.35-.35Z"/>
    <path class="cls-5" d="m137.09,418.16v5.85c0,.22-.13.35-.35.35h-1.45c-.22,0-.35-.13-.35-.35v-.44c-.4.65-1.13,1.02-1.82,1.02-1.1,0-1.81-.79-1.81-1.99v-4.44c0-.22.12-.34.35-.34h1.61c.23,0,.35.12.35.34v4.03c0,.41.17.62.47.62.28,0,.53-.18.7-.5v-4.15c0-.22.13-.34.35-.34h1.62c.22,0,.35.12.35.34Z"/>
    <path class="cls-5" d="m147.17,419.59v4.43c0,.22-.13.35-.35.35h-1.62c-.22,0-.35-.13-.35-.35v-4.03c0-.38-.14-.6-.42-.6-.24,0-.47.18-.62.49v4.14c0,.22-.13.35-.35.35h-1.62c-.22,0-.35-.13-.35-.35v-4.03c0-.41-.11-.6-.37-.6s-.5.18-.68.52v4.11c0,.22-.13.35-.35.35h-1.61c-.23,0-.35-.13-.35-.35v-5.85c0-.22.12-.34.35-.34h1.51c.22,0,.35.12.35.34v.46c.37-.61,1.1-1.03,1.8-1.03s1.22.38,1.49,1.01c.37-.6,1.08-1.01,1.74-1.01,1.13,0,1.8.76,1.8,2Z"/>
    <path class="cls-5" d="m147.95,421.09c0-2.17,1.25-3.5,3.31-3.5,1.88,0,2.99,1.24,2.99,3.29,0,.19-.01.41-.05.62-.02.2-.16.31-.36.31h-3.54c.18.68.66,1.04,1.43,1.04.35,0,.78-.1,1.14-.25.2-.08.35-.05.48.12l.49.67c.12.18.11.35-.06.47-.65.47-1.61.73-2.52.73-2.06,0-3.31-1.32-3.31-3.5Zm4.08-.62c-.01-.8-.32-1.27-.84-1.27s-.85.43-.96,1.27h1.8Z"/>
    <path class="cls-5" d="m166.75,419.59v4.43c0,.22-.13.35-.35.35h-1.62c-.22,0-.35-.13-.35-.35v-4.03c0-.38-.14-.6-.42-.6-.24,0-.47.18-.62.49v4.14c0,.22-.13.35-.35.35h-1.62c-.22,0-.35-.13-.35-.35v-4.03c0-.41-.11-.6-.37-.6s-.5.18-.68.52v4.11c0,.22-.13.35-.35.35h-1.61c-.23,0-.35-.13-.35-.35v-5.85c0-.22.12-.34.35-.34h1.51c.22,0,.35.12.35.34v.46c.37-.61,1.1-1.03,1.8-1.03s1.22.38,1.49,1.01c.37-.6,1.08-1.01,1.74-1.01,1.13,0,1.8.76,1.8,2Z"/>
    <path class="cls-5" d="m167.54,421.09c0-2.17,1.25-3.5,3.31-3.5,1.88,0,2.99,1.24,2.99,3.29,0,.19-.01.41-.05.62-.02.2-.16.31-.36.31h-3.54c.18.68.66,1.04,1.43,1.04.35,0,.78-.1,1.14-.25.2-.08.35-.05.48.12l.49.67c.12.18.11.35-.06.47-.65.47-1.61.73-2.52.73-2.06,0-3.31-1.32-3.31-3.5Zm4.08-.62c-.01-.8-.32-1.27-.84-1.27s-.85.43-.96,1.27h1.8Z"/>
    <path class="cls-5" d="m180.13,419.79v4.22c0,.22-.12.35-.35.35h-1.42c-.22,0-.34-.13-.34-.35v-.19c-.47.48-1.16.77-1.8.77-1.15,0-1.92-.83-1.92-2.06s1.02-2.06,2.54-2.06h1.03v-.37c0-.54-.35-.77-1.04-.77-.32,0-.72.08-1.04.23-.19.1-.35.07-.48-.11l-.55-.77c-.13-.19-.1-.37.1-.48.68-.37,1.59-.61,2.38-.61,1.89,0,2.89.76,2.89,2.21Zm-2.24,1.79h-.66c-.42,0-.66.26-.66.74,0,.4.22.64.56.64.3,0,.58-.17.76-.47v-.91Z"/>
    <path class="cls-5" d="m184.08,420.3c.92.25,2.16.56,2.16,2.05,0,1.34-1.21,2.24-3.02,2.24-.91,0-1.87-.28-2.51-.72-.18-.13-.2-.3-.07-.49l.56-.77c.13-.18.29-.2.49-.08.41.23.95.37,1.39.37.49,0,.79-.17.79-.42,0-.31-.29-.41-.88-.56-.89-.24-2.24-.67-2.24-2.16,0-1.37,1.03-2.17,2.77-2.17.76,0,1.64.23,2.3.6.2.11.23.29.1.48l-.56.77c-.12.19-.28.2-.47.11-.33-.17-.75-.26-1.13-.26-.42,0-.72.17-.72.41,0,.32.34.41,1.03.61Z"/>
    <path class="cls-5" d="m192.7,418.16v5.85c0,.22-.13.35-.35.35h-1.45c-.22,0-.35-.13-.35-.35v-.44c-.4.65-1.13,1.02-1.82,1.02-1.1,0-1.81-.79-1.81-1.99v-4.44c0-.22.12-.34.35-.34h1.61c.23,0,.35.12.35.34v4.03c0,.41.17.62.47.62.28,0,.53-.18.7-.5v-4.15c0-.22.13-.34.35-.34h1.62c.22,0,.35.12.35.34Z"/>
    <path class="cls-5" d="m198.13,418.1l-.23,1.56c-.04.23-.17.31-.36.28-.11-.02-.22-.04-.32-.04-.54,0-.98.36-1.18.92v3.19c0,.22-.13.35-.35.35h-1.61c-.23,0-.35-.13-.35-.35v-5.85c0-.22.12-.34.35-.34h1.51c.22,0,.35.12.35.34v.54c.31-.7.86-1.12,1.49-1.12.16,0,.34.04.48.08.19.06.24.23.22.43Z"/>
    <path class="cls-5" d="m198.2,421.09c0-2.17,1.25-3.5,3.31-3.5,1.88,0,2.99,1.24,2.99,3.29,0,.19-.01.41-.05.62-.02.2-.16.31-.36.31h-3.54c.18.68.66,1.04,1.43,1.04.35,0,.78-.1,1.14-.25.2-.08.35-.05.48.12l.49.67c.12.18.11.35-.06.47-.65.47-1.61.73-2.52.73-2.06,0-3.31-1.32-3.31-3.5Zm4.08-.62c-.01-.8-.32-1.27-.84-1.27s-.85.43-.96,1.27h1.8Z"/>
    <path class="cls-5" d="m208.23,420.3c.92.25,2.16.56,2.16,2.05,0,1.34-1.21,2.24-3.02,2.24-.91,0-1.87-.28-2.51-.72-.18-.13-.2-.3-.07-.49l.56-.77c.13-.18.29-.2.49-.08.41.23.95.37,1.39.37.49,0,.79-.17.79-.42,0-.31-.29-.41-.88-.56-.89-.24-2.24-.67-2.24-2.16,0-1.37,1.03-2.17,2.77-2.17.76,0,1.64.23,2.3.6.2.11.23.29.1.48l-.56.77c-.12.19-.28.2-.47.11-.33-.17-.75-.26-1.13-.26-.42,0-.72.17-.72.41,0,.32.34.41,1.03.61Z"/>
    <path class="cls-5" d="m210.86,424.01v-1.57c0-.22.13-.35.35-.35h1.69c.22,0,.35.13.35.35v1.57c0,.22-.13.35-.35.35h-1.69c-.22,0-.35-.13-.35-.35Z"/>
  </g>
  <g>
    <path class="cls-5" d="m83.73,35.11v7.91c0,.38-.11.67-.43.92-1.57,1.08-4.08,1.83-6.5,1.83-5.64,0-8.93-3.59-8.93-9.93s3.54-9.96,9.39-9.96c1.92,0,3.86.65,5.4,1.75.4.27.46.67.16,1.08l-1.43,1.97c-.3.41-.67.46-1.11.16-.86-.62-1.78-.89-2.7-.89-2.65,0-4.08,2.05-4.08,5.88s1.21,5.86,3.54,5.86c.57,0,1.16-.11,1.65-.3v-3.51h-1.08c-.49,0-.76-.3-.76-.78v-2c0-.49.27-.78.76-.78h5.34c.51,0,.78.3.78.78Z"/>
    <path class="cls-5" d="m95.8,31.17l-.51,3.51c-.08.51-.38.7-.81.62-.24-.05-.49-.08-.73-.08-1.21,0-2.21.81-2.65,2.08v7.18c0,.49-.3.78-.78.78h-3.62c-.51,0-.78-.3-.78-.78v-13.17c0-.49.27-.76.78-.76h3.4c.49,0,.78.27.78.76v1.21c.7-1.57,1.94-2.51,3.35-2.51.35,0,.76.08,1.08.19.43.13.54.51.49.97Z"/>
    <path class="cls-5" d="m110.71,37.89c0,4.91-2.78,7.88-7.37,7.88s-7.4-2.97-7.4-7.88,2.78-7.88,7.4-7.88,7.37,3,7.37,7.88Zm-5.32,0c0-2.48-.73-3.83-2.05-3.83s-2.08,1.35-2.08,3.83.73,3.86,2.08,3.86,2.05-1.38,2.05-3.86Z"/>
    <path class="cls-5" d="m119.19,36.11c2.08.57,4.86,1.27,4.86,4.62,0,3.02-2.73,5.05-6.8,5.05-2.05,0-4.21-.62-5.64-1.62-.41-.3-.46-.67-.16-1.11l1.27-1.73c.3-.4.65-.46,1.11-.19.92.51,2.13.84,3.13.84,1.11,0,1.78-.38,1.78-.95,0-.7-.65-.92-1.97-1.27-2-.54-5.05-1.51-5.05-4.86,0-3.08,2.32-4.89,6.24-4.89,1.7,0,3.7.51,5.18,1.35.46.24.51.65.22,1.08l-1.27,1.73c-.27.43-.62.46-1.05.24-.75-.38-1.7-.59-2.54-.59-.94,0-1.62.38-1.62.92,0,.73.76.92,2.32,1.38Z"/>
    <path class="cls-5" d="m132.28,36.11c2.08.57,4.86,1.27,4.86,4.62,0,3.02-2.73,5.05-6.8,5.05-2.05,0-4.21-.62-5.64-1.62-.4-.3-.46-.67-.16-1.11l1.27-1.73c.3-.4.65-.46,1.11-.19.92.51,2.13.84,3.13.84,1.11,0,1.78-.38,1.78-.95,0-.7-.65-.92-1.97-1.27-2-.54-5.05-1.51-5.05-4.86,0-3.08,2.32-4.89,6.24-4.89,1.7,0,3.7.51,5.18,1.35.46.24.51.65.22,1.08l-1.27,1.73c-.27.43-.62.46-1.05.24-.76-.38-1.7-.59-2.54-.59-.95,0-1.62.38-1.62.92,0,.73.76.92,2.32,1.38Z"/>
    <path class="cls-5" d="m145.62,45.26c-.49,0-.78-.3-.78-.78v-17.3c0-.49.3-.78.78-.78h5.86c6.02,0,9.18,3.24,9.18,9.42s-3.16,9.45-9.18,9.45h-5.86Zm9.47-9.42c0-3.75-1.05-5.13-3.27-5.13h-1.59v10.28h1.59c2.21,0,3.27-1.38,3.27-5.16Z"/>
    <path class="cls-5" d="m176.64,37.89c0,4.91-2.78,7.88-7.37,7.88s-7.4-2.97-7.4-7.88,2.78-7.88,7.4-7.88,7.37,3,7.37,7.88Zm-5.32,0c0-2.48-.73-3.83-2.05-3.83s-2.08,1.35-2.08,3.83.73,3.86,2.08,3.86,2.05-1.38,2.05-3.86Z"/>
    <path class="cls-5" d="m198.83,34.52v9.96c0,.49-.3.78-.78.78h-3.64c-.49,0-.78-.3-.78-.78v-9.07c0-.86-.32-1.35-.94-1.35-.54,0-1.05.41-1.4,1.11v9.31c0,.49-.3.78-.78.78h-3.64c-.49,0-.78-.3-.78-.78v-9.07c0-.92-.24-1.35-.84-1.35s-1.13.41-1.54,1.16v9.26c0,.49-.3.78-.78.78h-3.62c-.51,0-.78-.3-.78-.78v-13.17c0-.49.27-.76.78-.76h3.4c.49,0,.78.27.78.76v1.03c.84-1.38,2.48-2.32,4.05-2.32s2.75.86,3.35,2.27c.84-1.35,2.43-2.27,3.91-2.27,2.54,0,4.05,1.7,4.05,4.51Z"/>
    <path class="cls-5" d="m200.59,37.89c0-4.89,2.81-7.88,7.45-7.88,4.24,0,6.72,2.78,6.72,7.4,0,.43-.03.92-.11,1.4-.05.46-.35.7-.81.7h-7.96c.4,1.54,1.48,2.35,3.21,2.35.78,0,1.75-.22,2.56-.57.46-.19.78-.11,1.08.27l1.11,1.51c.27.41.24.78-.13,1.05-1.46,1.05-3.62,1.65-5.67,1.65-4.64,0-7.45-2.97-7.45-7.88Zm9.18-1.4c-.03-1.81-.73-2.86-1.89-2.86s-1.92.97-2.16,2.86h4.05Z"/>
    <path class="cls-5" d="m223.16,36.11c2.08.57,4.86,1.27,4.86,4.62,0,3.02-2.73,5.05-6.8,5.05-2.05,0-4.21-.62-5.64-1.62-.41-.3-.46-.67-.16-1.11l1.27-1.73c.3-.4.65-.46,1.11-.19.92.51,2.13.84,3.13.84,1.11,0,1.78-.38,1.78-.95,0-.7-.65-.92-1.97-1.27-2-.54-5.05-1.51-5.05-4.86,0-3.08,2.32-4.89,6.24-4.89,1.7,0,3.7.51,5.18,1.35.46.24.51.65.22,1.08l-1.27,1.73c-.27.43-.62.46-1.05.24-.75-.38-1.7-.59-2.54-.59-.94,0-1.62.38-1.62.92,0,.73.76.92,2.32,1.38Z"/>
    <path class="cls-5" d="m230.43,40.67v-6.42h-1.13c-.49,0-.76-.27-.76-.78v-1.59c0-.43.19-.76.62-.89l.51-.11c.49-.19.78-.35.92-1.21l.24-1.54c.08-.49.38-.7.86-.7h3.16c.49,0,.76.3.76.78v2.35h2.56c.51,0,.78.27.78.76v2.16c0,.51-.27.78-.78.78h-2.56v5.96c0,1.08.46,1.51,1.29,1.51.32,0,.67-.08,1.13-.19.51-.14.86.05.95.57l.32,2.19c.08.49-.19.84-.73,1-1.08.32-2.08.49-3.02.49-3.02,0-5.13-1.7-5.13-5.1Z"/>
    <path class="cls-5" d="m240.39,28.09v-2.24c0-.49.27-.78.78-.78h3.7c.49,0,.78.3.78.78v2.24c0,.51-.3.78-.78.78h-3.7c-.51,0-.78-.27-.78-.78Zm.03,16.38v-13.17c0-.49.3-.76.78-.76h3.64c.49,0,.76.27.76.76v13.17c0,.49-.27.78-.76.78h-3.64c-.49,0-.78-.3-.78-.78Z"/>
    <path class="cls-5" d="m247.49,37.89c0-4.75,3-7.88,7.45-7.88,1.7,0,3.4.51,4.59,1.35.41.32.46.67.16,1.11l-1.43,2c-.3.38-.65.38-1.08.13-.46-.27-.97-.38-1.48-.38-1.86,0-2.81,1.21-2.81,3.67s.92,3.7,2.83,3.7c.49,0,1.03-.16,1.48-.41.46-.27.78-.27,1.08.13l1.43,2c.3.4.3.76-.05,1.03-1.21.89-2.94,1.43-4.72,1.43-4.51,0-7.45-3.1-7.45-7.88Z"/>
    <path class="cls-5" d="m266.95,44.48v-17.3c0-.49.3-.78.78-.78h5.13c5.78,0,8.88,2.21,8.88,6.32,0,4.32-3.08,6.67-8.83,6.67h-.57v5.1c0,.49-.3.78-.78.78h-3.83c-.49,0-.78-.3-.78-.78Zm6.88-8.96c1.73,0,2.59-.89,2.59-2.56s-.86-2.56-2.54-2.56h-1.54v5.13h1.49Z"/>
    <path class="cls-5" d="m293.2,31.17l-.51,3.51c-.08.51-.38.7-.81.62-.24-.05-.49-.08-.73-.08-1.21,0-2.21.81-2.65,2.08v7.18c0,.49-.3.78-.78.78h-3.62c-.51,0-.78-.3-.78-.78v-13.17c0-.49.27-.76.78-.76h3.4c.49,0,.78.27.78.76v1.21c.7-1.57,1.94-2.51,3.35-2.51.35,0,.76.08,1.08.19.43.13.54.51.49.97Z"/>
    <path class="cls-5" d="m308.1,37.89c0,4.91-2.78,7.88-7.37,7.88s-7.4-2.97-7.4-7.88,2.78-7.88,7.4-7.88,7.37,3,7.37,7.88Zm-5.32,0c0-2.48-.73-3.83-2.05-3.83s-2.08,1.35-2.08,3.83.73,3.86,2.08,3.86,2.05-1.38,2.05-3.86Z"/>
    <path class="cls-5" d="m309.45,37.89c0-4.89,2.19-7.85,5.8-7.85,1.19,0,2.43.54,3.32,1.4v-5.59c0-.49.3-.78.78-.78h3.64c.49,0,.78.3.78.78v18.62c0,.49-.3.78-.78.78h-3.18c-.49,0-.78-.3-.78-.78v-.54c-.97,1.13-2.46,1.83-4.05,1.83-3.43,0-5.53-2.97-5.53-7.88Zm9.12,2.54v-5.07c-.43-.84-1.13-1.32-1.92-1.32-1.21,0-1.89,1.38-1.89,3.91s.65,3.81,1.84,3.81c.84,0,1.54-.49,1.97-1.32Z"/>
    <path class="cls-5" d="m339.04,31.3v13.17c0,.49-.3.78-.78.78h-3.27c-.49,0-.78-.3-.78-.78v-1c-.89,1.46-2.54,2.29-4.1,2.29-2.48,0-4.08-1.78-4.08-4.48v-9.99c0-.49.27-.76.78-.76h3.62c.51,0,.78.27.78.76v9.07c0,.92.38,1.4,1.05,1.4.62,0,1.19-.4,1.57-1.13v-9.34c0-.49.3-.76.78-.76h3.64c.49,0,.78.27.78.76Z"/>
    <path class="cls-5" d="m340.88,37.89c0-4.75,3-7.88,7.45-7.88,1.7,0,3.4.51,4.59,1.35.41.32.46.67.16,1.11l-1.43,2c-.3.38-.65.38-1.08.13-.46-.27-.97-.38-1.48-.38-1.86,0-2.81,1.21-2.81,3.67s.92,3.7,2.83,3.7c.49,0,1.03-.16,1.48-.41.46-.27.78-.27,1.08.13l1.43,2c.3.4.3.76-.05,1.03-1.21.89-2.94,1.43-4.72,1.43-4.51,0-7.45-3.1-7.45-7.88Z"/>
    <path class="cls-5" d="m355.05,40.67v-6.42h-1.13c-.49,0-.76-.27-.76-.78v-1.59c0-.43.19-.76.62-.89l.51-.11c.49-.19.78-.35.92-1.21l.24-1.54c.08-.49.38-.7.86-.7h3.16c.49,0,.76.3.76.78v2.35h2.56c.51,0,.78.27.78.76v2.16c0,.51-.27.78-.78.78h-2.56v5.96c0,1.08.46,1.51,1.3,1.51.32,0,.67-.08,1.13-.19.51-.14.86.05.94.57l.32,2.19c.08.49-.19.84-.73,1-1.08.32-2.08.49-3.02.49-3.02,0-5.13-1.7-5.13-5.1Z"/>
  </g>
</svg>