<?xml version="1.0" encoding="UTF-8"?>
<svg id="Layer_1" data-name="Layer 1" xmlns="http://www.w3.org/2000/svg" viewBox="0 0 430.06 430.06">
  <defs>
    <style>
      .cls-1 {
        fill: #bfd4e4;
      }

      .cls-1, .cls-2, .cls-3, .cls-4 {
        stroke-width: 0px;
      }

      .cls-2 {
        fill: #fff;
      }

      .cls-3, .cls-4 {
        fill: #1e3564;
      }

      .cls-4 {
        fill-rule: evenodd;
      }
    </style>
  </defs>
  <rect class="cls-1" width="430.06" height="430.06"/>
  <g>
    <polygon class="cls-4" points="173.05 281.82 186.81 273.42 186.81 266.39 188.09 266.39 188.09 261.78 171.77 261.78 171.77 266.39 173.05 266.39 173.05 281.82 173.05 281.82 173.05 281.82"/>
    <path class="cls-4" d="m214.74,269.57l-51.73,31.56v45.4c1.33.54,2.44,1.05,3.26,1.43l8.61,3.33c-.37-.99-.55-2.03-.56-3.08,0-5.17,4.38-9.36,9.77-9.37,1.93,0,8.47.13,16.5.31v-34.53h28.32v35.22l15.62.33c7.04-.17,14,1.54,20.08,4.96l1.84,1.16v-45.16l-51.71-31.56h0Zm-35.86,62.93h-11.1v-13.39h11.1v13.39h0Zm0-15.89h-11.1v-7.92h11.1v7.92h0Zm13.71,15.89h-11.1v-13.39h11.12l-.02,13.39h0Zm0-15.89h-11.1v-7.92h11.12l-.02,7.92h0Zm41.61-18.66v1.65h-38.91v-1.65h0l8.61-6.7h21.67l8.63,6.7h0Zm13.8,34.55h-11.17v-13.39h11.12l.05,13.39h0Zm0-15.89h-11.17v-7.92h11.12l.05,7.92h0Zm13.71,15.89h-11.12v-13.39h11.12v13.39h0Zm0-15.89h-11.12v-7.92h11.12v7.92h0Z"/>
    <polygon class="cls-4" points="214.8 267.22 155.84 303.18 151.49 297.39 214.8 258.66 278.09 297.39 273.74 303.18 214.8 267.22 214.8 267.22 214.8 267.22"/>
    <path class="cls-4" d="m308.28,370.4l-13.94-13.11c-11.24,9.51-21.61,19.93-31,31.13l13.94,13.11c.65.6,8.11-5.9,16.69-14.49,8.58-8.6,15.01-16.04,14.32-16.64h-.01Z"/>
    <path class="cls-4" d="m265.53,382.01h0c5.73-7.22,12.28-13.81,19.52-19.65-9.42-7.21-19.92-14.07-21.66-15.07-5.67-3.18-12.16-4.78-18.73-4.6-3,0-54.35-1.36-60.49-1.36-3.96.01-7.17,3.1-7.17,6.9.1,3.33,2.63,6.14,6.05,6.7l38.25,2.99h0c.5.08.83.52.75,1-.06.37-.37.66-.75.72h-.67l-35.99-1.7-19.33-7.84c-3.41-1.59-6.94-2.93-10.56-4.02-1-.29-7.98-1.72-10.59,2.59-.26.42,0,.92.35,1.3,1.14.88,2.35,1.68,3.61,2.39,1.05.65,18.5,11.16,20.94,12.48,2.22,1.3,4.56,2.4,6.98,3.3,0,0,19.17,6.7,21.87,7.52,2.82.98,5.76,1.61,8.75,1.88h37.92c6.54.09,13.01,1.31,19.1,3.59.65.23,1.27.52,1.86.87h0Z"/>
  </g>
  <polygon class="cls-4" points="157.67 216.35 167.22 216.35 167.22 102.05 195.75 102.05 195.75 216.35 205.31 216.35 181.49 240.17 157.67 216.35 157.67 216.35"/>
  <polygon class="cls-4" points="258.02 66.01 248.46 66.01 248.46 180.31 219.93 180.31 219.93 66.01 210.38 66.01 234.2 42.19 258.02 66.01 258.02 66.01"/>
  <g>
    <path class="cls-2" d="m65.91,149.81v3.2c0,.7-.39,1.13-1.09,1.13h-10.92c-.7,0-1.13-.43-1.13-1.13v-3.2c0-.7.43-1.13,1.13-1.13h10.92c.7,0,1.09.43,1.09,1.13Z"/>
    <path class="cls-2" d="m84.87,158.04v3.35c0,.7-.43,1.13-1.13,1.13h-16.15c-.7,0-1.13-.43-1.13-1.13v-3.2c0-.58.2-.98.58-1.4,4.13-4.02,10.1-9.13,10.1-13.53,0-1.75-1.09-2.92-2.69-2.92-1.4,0-3.16.78-4.72,2.14-.58.47-1.13.47-1.6-.12l-1.95-2.34c-.43-.51-.47-1.05-.04-1.56,2.46-2.77,5.85-3.94,8.97-3.94,5.77,0,9.63,3.08,9.63,7.76s-3.12,8.97-8.89,14.63h7.88c.7,0,1.13.39,1.13,1.13Z"/>
    <path class="cls-2" d="m86.89,142.09c0-4.49,2.73-7.22,7.22-7.22s7.21,2.73,7.21,7.22-2.73,7.21-7.21,7.21-7.22-2.77-7.22-7.21Zm9.52,20.44h-3.67c-.9,0-1.21-.58-.7-1.37l17.28-25.19c.31-.51.74-.7,1.33-.7h3.67c.9,0,1.25.58.7,1.37l-17.24,25.19c-.35.51-.78.7-1.37.7Zm-.31-20.44c0-1.91-.7-2.96-1.99-2.96s-1.99,1.05-1.99,2.96.7,2.92,1.99,2.92,1.99-1.05,1.99-2.92Zm9.59,13.61c0-4.49,2.73-7.22,7.22-7.22s7.21,2.73,7.21,7.22-2.73,7.25-7.21,7.25-7.22-2.77-7.22-7.25Zm9.21,0c0-1.87-.7-2.92-1.99-2.92s-1.99,1.05-1.99,2.92.7,2.96,1.99,2.96,1.99-1.05,1.99-2.96Z"/>
    <path class="cls-2" d="m40.18,173.8v10.26c0,.29-.16.46-.45.46h-2.29c-.29,0-.46-.18-.46-.46v-4.16h-2.66v4.16c0,.29-.18.46-.46.46h-2.27c-.29,0-.46-.18-.46-.46v-10.26c0-.29.18-.46.46-.46h2.27c.29,0,.46.18.46.46v3.71h2.66v-3.71c0-.29.18-.46.46-.46h2.29c.29,0,.45.18.45.46Z"/>
    <path class="cls-2" d="m49.27,176.25v7.81c0,.29-.18.46-.46.46h-1.94c-.29,0-.46-.18-.46-.46v-.59c-.53.86-1.5,1.36-2.43,1.36-1.47,0-2.42-1.06-2.42-2.66v-5.92c0-.29.16-.45.46-.45h2.15c.3,0,.46.16.46.45v5.38c0,.54.22.83.62.83.37,0,.7-.24.93-.67v-5.54c0-.29.18-.45.46-.45h2.16c.29,0,.46.16.46.45Z"/>
    <path class="cls-2" d="m58.47,178.16v5.91c0,.29-.18.46-.46.46h-2.16c-.29,0-.45-.18-.45-.46v-5.38c0-.51-.24-.8-.64-.8s-.78.3-1.02.82v5.36c0,.29-.18.46-.46.46h-2.15c-.3,0-.46-.18-.46-.46v-7.81c0-.29.16-.45.46-.45h2.02c.29,0,.46.16.46.45v.61c.51-.85,1.5-1.38,2.43-1.38,1.47,0,2.43,1.09,2.43,2.67Z"/>
    <path class="cls-2" d="m60.27,181.81v-3.81h-.67c-.29,0-.45-.16-.45-.46v-.94c0-.26.11-.45.37-.53l.3-.06c.29-.11.46-.21.54-.72l.14-.91c.05-.29.22-.42.51-.42h1.87c.29,0,.45.18.45.46v1.39h1.52c.3,0,.46.16.46.45v1.28c0,.3-.16.46-.46.46h-1.52v3.54c0,.64.27.9.77.9.19,0,.4-.05.67-.11.3-.08.51.03.56.34l.19,1.3c.05.29-.11.5-.43.59-.64.19-1.23.29-1.79.29-1.79,0-3.04-1.01-3.04-3.02Z"/>
    <path class="cls-2" d="m65.73,180.16c0-2.9,1.66-4.67,4.42-4.67,2.51,0,3.99,1.65,3.99,4.39,0,.26-.02.54-.06.83-.03.27-.21.42-.48.42h-4.72c.24.91.88,1.39,1.91,1.39.46,0,1.04-.13,1.52-.34.27-.11.46-.06.64.16l.66.9c.16.24.14.46-.08.62-.86.62-2.14.98-3.36.98-2.75,0-4.42-1.76-4.42-4.67Zm5.44-.83c-.02-1.07-.43-1.7-1.12-1.7s-1.14.58-1.28,1.7h2.4Z"/>
    <path class="cls-2" d="m81.04,176.17l-.3,2.08c-.05.3-.22.42-.48.37-.14-.03-.29-.05-.43-.05-.72,0-1.31.48-1.57,1.23v4.26c0,.29-.18.46-.46.46h-2.14c-.3,0-.46-.18-.46-.46v-7.81c0-.29.16-.45.46-.45h2.02c.29,0,.46.16.46.45v.72c.42-.93,1.15-1.49,1.99-1.49.21,0,.45.05.64.11.26.08.32.3.29.58Z"/>
    <path class="cls-2" d="m97.27,178.16v5.91c0,.29-.18.46-.46.46h-2.16c-.29,0-.46-.18-.46-.46v-5.38c0-.51-.19-.8-.56-.8-.32,0-.62.24-.83.66v5.52c0,.29-.18.46-.46.46h-2.16c-.29,0-.46-.18-.46-.46v-5.38c0-.54-.14-.8-.5-.8s-.67.24-.91.69v5.49c0,.29-.18.46-.46.46h-2.15c-.3,0-.46-.18-.46-.46v-7.81c0-.29.16-.45.46-.45h2.02c.29,0,.46.16.46.45v.61c.5-.82,1.47-1.38,2.4-1.38s1.63.51,1.99,1.34c.5-.8,1.44-1.34,2.32-1.34,1.5,0,2.4,1.01,2.4,2.67Z"/>
    <path class="cls-2" d="m98.3,180.16c0-2.9,1.66-4.67,4.42-4.67,2.51,0,3.99,1.65,3.99,4.39,0,.26-.02.54-.06.83-.03.27-.21.42-.48.42h-4.72c.24.91.88,1.39,1.91,1.39.46,0,1.04-.13,1.52-.34.27-.11.46-.06.64.16l.66.9c.16.24.14.46-.08.62-.86.62-2.14.98-3.36.98-2.75,0-4.42-1.76-4.42-4.67Zm5.44-.83c-.02-1.07-.43-1.7-1.12-1.7s-1.14.58-1.28,1.7h2.4Z"/>
    <path class="cls-2" d="m107.46,180.16c0-2.9,1.3-4.66,3.44-4.66.7,0,1.44.32,1.97.83v-3.31c0-.29.18-.46.46-.46h2.16c.29,0,.46.18.46.46v11.04c0,.29-.18.46-.46.46h-1.89c-.29,0-.46-.18-.46-.46v-.32c-.58.67-1.46,1.09-2.4,1.09-2.03,0-3.28-1.76-3.28-4.67Zm5.41,1.5v-3.01c-.26-.5-.67-.78-1.14-.78-.72,0-1.12.82-1.12,2.32s.38,2.26,1.09,2.26c.5,0,.91-.29,1.17-.78Z"/>
    <path class="cls-2" d="m117.33,174.35v-1.33c0-.29.16-.46.46-.46h2.19c.29,0,.46.18.46.46v1.33c0,.3-.18.46-.46.46h-2.19c-.3,0-.46-.16-.46-.46Zm.02,9.72v-7.81c0-.29.18-.45.46-.45h2.16c.29,0,.45.16.45.45v7.81c0,.29-.16.46-.45.46h-2.16c-.29,0-.46-.18-.46-.46Z"/>
    <path class="cls-2" d="m129.19,178.43v5.63c0,.29-.16.46-.46.46h-1.89c-.29,0-.45-.18-.45-.46v-.26c-.62.64-1.55,1.02-2.4,1.02-1.54,0-2.56-1.1-2.56-2.75s1.36-2.75,3.39-2.75h1.38v-.5c0-.72-.46-1.02-1.39-1.02-.43,0-.96.11-1.39.3-.26.13-.46.1-.64-.14l-.74-1.02c-.18-.26-.13-.5.13-.64.91-.5,2.13-.82,3.17-.82,2.53,0,3.86,1.01,3.86,2.95Zm-2.99,2.38h-.88c-.56,0-.88.35-.88.99,0,.53.29.85.75.85.4,0,.77-.22,1.01-.62v-1.22Z"/>
    <path class="cls-2" d="m138.34,178.16v5.91c0,.29-.18.46-.46.46h-2.16c-.29,0-.45-.18-.45-.46v-5.38c0-.51-.24-.8-.64-.8s-.78.3-1.02.82v5.36c0,.29-.18.46-.46.46h-2.15c-.3,0-.46-.18-.46-.46v-7.81c0-.29.16-.45.46-.45h2.02c.29,0,.46.16.46.45v.61c.51-.85,1.5-1.38,2.43-1.38,1.47,0,2.43,1.09,2.43,2.67Z"/>
    <path class="cls-3" d="m48.4,200.16v5.91c0,.29-.18.46-.46.46h-2.16c-.29,0-.45-.18-.45-.46v-5.38c0-.54-.21-.8-.66-.8-.37,0-.75.24-1.01.7v5.47c0,.29-.18.46-.46.46h-2.15c-.3,0-.46-.18-.46-.46v-11.04c0-.29.16-.46.46-.46h2.15c.29,0,.46.18.46.46v3.65c.56-.74,1.42-1.18,2.3-1.18,1.54,0,2.43,1.01,2.43,2.67Z"/>
    <path class="cls-3" d="m58.2,202.16c0,2.91-1.65,4.67-4.37,4.67s-4.39-1.76-4.39-4.67,1.65-4.67,4.39-4.67,4.37,1.78,4.37,4.67Zm-3.15,0c0-1.47-.43-2.27-1.22-2.27s-1.23.8-1.23,2.27.43,2.29,1.23,2.29,1.22-.82,1.22-2.29Z"/>
    <path class="cls-3" d="m66.95,198.25v7.81c0,.29-.18.46-.46.46h-1.94c-.29,0-.46-.18-.46-.46v-.59c-.53.86-1.5,1.36-2.43,1.36-1.47,0-2.42-1.06-2.42-2.66v-5.92c0-.29.16-.45.46-.45h2.15c.3,0,.46.16.46.45v5.38c0,.54.22.83.62.83.37,0,.7-.24.93-.67v-5.54c0-.29.18-.45.46-.45h2.16c.29,0,.46.16.46.45Z"/>
    <path class="cls-3" d="m72.26,201.1c1.23.34,2.88.75,2.88,2.74,0,1.79-1.62,2.99-4.03,2.99-1.22,0-2.5-.37-3.35-.96-.24-.18-.27-.4-.1-.66l.75-1.02c.18-.24.38-.27.66-.11.54.3,1.26.5,1.86.5.66,0,1.06-.22,1.06-.56,0-.42-.38-.54-1.17-.75-1.18-.32-2.99-.9-2.99-2.88,0-1.83,1.38-2.9,3.7-2.9,1.01,0,2.19.3,3.07.8.27.14.3.38.13.64l-.75,1.02c-.16.26-.37.27-.62.14-.45-.22-1.01-.35-1.5-.35-.56,0-.96.22-.96.54,0,.43.45.54,1.38.82Z"/>
    <path class="cls-3" d="m75.79,202.16c0-2.9,1.66-4.67,4.42-4.67,2.51,0,3.99,1.65,3.99,4.39,0,.26-.02.54-.06.83-.03.27-.21.42-.48.42h-4.72c.24.91.88,1.39,1.91,1.39.46,0,1.04-.13,1.52-.34.27-.11.46-.06.64.16l.66.9c.16.24.14.46-.08.62-.86.62-2.14.98-3.36.98-2.75,0-4.42-1.76-4.42-4.67Zm5.44-.83c-.02-1.07-.43-1.7-1.12-1.7s-1.14.58-1.28,1.7h2.4Z"/>
    <path class="cls-2" d="m97.28,202.17c0,2.9-1.3,4.66-3.43,4.66-.7,0-1.44-.3-1.97-.82v3.67c0,.3-.18.46-.46.46h-2.15c-.3,0-.46-.16-.46-.46v-11.43c0-.29.16-.45.46-.45h2.02c.29,0,.46.16.46.45v.59c.51-.83,1.5-1.34,2.5-1.34,1.89,0,3.03,1.76,3.03,4.67Zm-3.15-.03c0-1.46-.38-2.26-1.09-2.26-.46,0-.88.27-1.15.78v2.99c.27.5.67.78,1.14.78.72,0,1.1-.82,1.1-2.3Z"/>
    <path class="cls-2" d="m104.26,198.17l-.3,2.08c-.05.3-.22.42-.48.37-.14-.03-.29-.05-.43-.05-.72,0-1.31.48-1.57,1.23v4.26c0,.29-.18.46-.46.46h-2.15c-.3,0-.46-.18-.46-.46v-7.81c0-.29.16-.45.46-.45h2.02c.29,0,.46.16.46.45v.72c.42-.93,1.15-1.49,1.98-1.49.21,0,.45.05.64.11.26.08.32.3.29.58Z"/>
    <path class="cls-2" d="m104.85,196.35v-1.33c0-.29.16-.46.46-.46h2.19c.29,0,.46.18.46.46v1.33c0,.3-.18.46-.46.46h-2.19c-.3,0-.46-.16-.46-.46Zm.02,9.72v-7.81c0-.29.18-.45.46-.45h2.16c.29,0,.45.16.45.45v7.81c0,.29-.16.46-.45.46h-2.16c-.29,0-.46-.18-.46-.46Z"/>
    <path class="cls-2" d="m109.06,202.16c0-2.82,1.78-4.67,4.42-4.67,1.01,0,2.02.3,2.72.8.24.19.27.4.1.66l-.85,1.18c-.18.22-.38.22-.64.08-.27-.16-.58-.22-.88-.22-1.1,0-1.66.72-1.66,2.18s.54,2.19,1.68,2.19c.29,0,.61-.1.88-.24.27-.16.46-.16.64.08l.85,1.18c.18.24.18.45-.03.61-.72.53-1.75.85-2.8.85-2.67,0-4.42-1.84-4.42-4.67Z"/>
    <path class="cls-2" d="m116.53,202.16c0-2.9,1.66-4.67,4.42-4.67,2.51,0,3.99,1.65,3.99,4.39,0,.26-.02.54-.06.83-.03.27-.21.42-.48.42h-4.72c.24.91.88,1.39,1.91,1.39.46,0,1.04-.13,1.52-.34.27-.11.46-.06.64.16l.66.9c.16.24.14.46-.08.62-.86.62-2.14.98-3.36.98-2.75,0-4.42-1.76-4.42-4.67Zm5.44-.83c-.02-1.07-.43-1.7-1.12-1.7s-1.14.58-1.28,1.7h2.4Z"/>
    <path class="cls-2" d="m129.91,201.1c1.23.34,2.88.75,2.88,2.74,0,1.79-1.62,2.99-4.03,2.99-1.22,0-2.5-.37-3.35-.96-.24-.18-.27-.4-.1-.66l.75-1.02c.18-.24.38-.27.66-.11.54.3,1.26.5,1.86.5.66,0,1.06-.22,1.06-.56,0-.42-.38-.54-1.17-.75-1.18-.32-2.99-.9-2.99-2.88,0-1.83,1.38-2.9,3.7-2.9,1.01,0,2.19.3,3.07.8.27.14.3.38.13.64l-.75,1.02c-.16.26-.37.27-.62.14-.45-.22-1.01-.35-1.5-.35-.56,0-.96.22-.96.54,0,.43.45.54,1.38.82Z"/>
  </g>
  <g>
    <path class="cls-2" d="m278.47,95.78v3.2c0,.7-.39,1.13-1.09,1.13h-10.92c-.7,0-1.13-.43-1.13-1.13v-3.2c0-.7.43-1.13,1.13-1.13h10.92c.7,0,1.09.43,1.09,1.13Z"/>
    <path class="cls-2" d="m297.42,104.01v3.35c0,.7-.43,1.13-1.13,1.13h-15.95c-.74,0-1.13-.43-1.13-1.13v-3.35c0-.74.39-1.13,1.13-1.13h4.95v-13.88l-3.9,2.18c-.62.35-1.13.19-1.56-.31l-2.26-2.69c-.47-.62-.39-1.17.27-1.56l8.5-4.99c.47-.27.9-.39,1.4-.39h3.71c.7,0,1.09.43,1.09,1.13v20.51h3.74c.7,0,1.13.39,1.13,1.13Z"/>
    <path class="cls-2" d="m298.86,107.36v-5.11c0-.7.43-1.13,1.13-1.13h5.5c.7,0,1.13.43,1.13,1.13v5.11c0,.7-.43,1.13-1.13,1.13h-5.5c-.7,0-1.13-.43-1.13-1.13Z"/>
    <path class="cls-2" d="m327.18,99.49c0,6.12-4.52,9.75-10.34,9.75-3.35,0-6.83-1.09-9.09-2.85-.58-.47-.58-1.05-.12-1.6l2.15-2.57c.47-.58,1.01-.58,1.56-.16,1.44,1.05,3.16,1.68,4.56,1.68,2.22,0,3.67-1.37,3.67-4.06,0-2.5-1.33-3.9-3.67-3.9-.9,0-1.75.2-2.5.55-.58.27-1.01.27-1.56.08l-2.26-.94c-.62-.27-.9-.66-.86-1.33l.66-11.82c.04-.74.39-1.09,1.09-1.09h14.2c.7,0,1.13.43,1.13,1.13v3.35c0,.74-.43,1.13-1.13,1.13h-8.58l-.27,4.8c1.29-.58,2.65-.82,3.94-.82,4.48,0,7.41,3.43,7.41,8.66Z"/>
    <path class="cls-2" d="m329.05,88.06c0-4.49,2.73-7.22,7.21-7.22s7.22,2.73,7.22,7.22-2.73,7.21-7.22,7.21-7.21-2.77-7.21-7.21Zm9.52,20.44h-3.67c-.9,0-1.21-.58-.7-1.37l17.28-25.19c.31-.51.74-.7,1.33-.7h3.67c.9,0,1.25.58.7,1.37l-17.24,25.19c-.35.51-.78.7-1.36.7Zm-.31-20.44c0-1.91-.7-2.96-1.99-2.96s-1.99,1.05-1.99,2.96.7,2.92,1.99,2.92,1.99-1.05,1.99-2.92Zm9.59,13.61c0-4.49,2.73-7.22,7.21-7.22s7.22,2.73,7.22,7.22-2.73,7.25-7.22,7.25-7.21-2.77-7.21-7.25Zm9.2,0c0-1.87-.7-2.92-1.99-2.92s-1.99,1.05-1.99,2.92.7,2.96,1.99,2.96,1.99-1.05,1.99-2.96Z"/>
    <path class="cls-2" d="m374.68,101.87v-9.28h-1.64c-.7,0-1.09-.39-1.09-1.13v-2.3c0-.62.27-1.09.9-1.29l.74-.16c.7-.27,1.13-.51,1.33-1.75l.35-2.22c.12-.7.55-1.01,1.25-1.01h4.56c.7,0,1.09.43,1.09,1.13v3.39h3.71c.74,0,1.13.39,1.13,1.09v3.12c0,.74-.39,1.13-1.13,1.13h-3.71v8.62c0,1.56.66,2.18,1.87,2.18.47,0,.97-.12,1.64-.27.74-.2,1.25.08,1.37.82l.47,3.16c.12.7-.27,1.21-1.05,1.44-1.56.47-3,.7-4.37.7-4.37,0-7.41-2.46-7.41-7.37Z"/>
    <path class="cls-2" d="m409.31,97.85c0,7.1-4.02,11.39-10.65,11.39s-10.69-4.29-10.69-11.39,4.02-11.39,10.69-11.39,10.65,4.33,10.65,11.39Zm-7.68,0c0-3.59-1.05-5.54-2.96-5.54s-3,1.95-3,5.54,1.05,5.58,3,5.58,2.96-1.99,2.96-5.58Z"/>
    <path class="cls-2" d="m315.44,143.33c0,5.97-4.1,9.91-10.3,9.91-6.63,0-10.53-4.84-10.53-13.03,0-9.44,4.95-15.72,12.32-15.72,2.65,0,5.5.86,7.37,2.18.62.39.62,1.01.16,1.56l-1.87,2.26c-.47.55-.97.58-1.6.23-.98-.51-2.22-.82-3.28-.82-2.81,0-4.49,2.03-5.03,6.12,1.44-1.05,3.28-1.72,5.07-1.72,4.68,0,7.68,3.55,7.68,9.01Zm-7.49.04c0-2.89-.74-4.06-2.54-4.06-1.05,0-2.15.55-2.96,1.37.08,5.42.86,7.33,2.81,7.33,1.72,0,2.69-1.6,2.69-4.64Z"/>
    <path class="cls-2" d="m317,151.36v-5.11c0-.7.43-1.13,1.13-1.13h5.5c.7,0,1.13.43,1.13,1.13v5.11c0,.7-.43,1.13-1.13,1.13h-5.5c-.7,0-1.13-.43-1.13-1.13Z"/>
    <path class="cls-2" d="m345.31,143.49c0,6.12-4.52,9.75-10.33,9.75-3.35,0-6.83-1.09-9.09-2.85-.58-.47-.58-1.05-.12-1.6l2.14-2.57c.47-.58,1.01-.58,1.56-.16,1.44,1.05,3.16,1.68,4.56,1.68,2.22,0,3.67-1.37,3.67-4.06,0-2.5-1.33-3.9-3.67-3.9-.9,0-1.75.2-2.5.55-.58.27-1.01.27-1.56.08l-2.26-.94c-.62-.27-.9-.66-.86-1.33l.66-11.82c.04-.74.39-1.09,1.09-1.09h14.2c.7,0,1.13.43,1.13,1.13v3.35c0,.74-.43,1.13-1.13,1.13h-8.58l-.27,4.8c1.29-.58,2.65-.82,3.94-.82,4.49,0,7.41,3.43,7.41,8.66Z"/>
    <path class="cls-2" d="m347.18,132.06c0-4.49,2.73-7.22,7.22-7.22s7.21,2.73,7.21,7.22-2.73,7.21-7.21,7.21-7.22-2.77-7.22-7.21Zm9.52,20.44h-3.67c-.9,0-1.21-.58-.7-1.37l17.28-25.19c.31-.51.74-.7,1.33-.7h3.67c.9,0,1.25.58.7,1.37l-17.24,25.19c-.35.51-.78.7-1.37.7Zm-.31-20.44c0-1.91-.7-2.96-1.99-2.96s-1.99,1.05-1.99,2.96.7,2.92,1.99,2.92,1.99-1.05,1.99-2.92Zm9.59,13.61c0-4.49,2.73-7.22,7.22-7.22s7.21,2.73,7.21,7.22-2.73,7.25-7.21,7.25-7.22-2.77-7.22-7.25Zm9.2,0c0-1.87-.7-2.92-1.99-2.92s-1.99,1.05-1.99,2.92.7,2.96,1.99,2.96,1.99-1.05,1.99-2.96Z"/>
    <path class="cls-3" d="m288.45,174.5h-2.37c-.26,0-.42-.11-.54-.32l-2.19-4.05h-.45v3.91c0,.29-.18.46-.46.46h-2.27c-.29,0-.46-.18-.46-.46v-10.26c0-.29.18-.46.46-.46h3.04c3.43,0,5.27,1.06,5.27,3.47,0,1.57-.8,2.67-2.03,3.12l2.34,4.03c.19.32.05.56-.32.56Zm-5.55-6.26h.88c1.01,0,1.54-.5,1.54-1.41,0-.85-.51-1.33-1.5-1.33h-.91v2.74Z"/>
    <path class="cls-3" d="m288.87,170.13c0-2.9,1.67-4.67,4.42-4.67,2.51,0,3.99,1.65,3.99,4.39,0,.26-.02.54-.06.83-.03.27-.21.42-.48.42h-4.72c.24.91.88,1.39,1.9,1.39.46,0,1.04-.13,1.52-.34.27-.11.46-.06.64.16l.66.9c.16.24.14.46-.08.62-.86.62-2.14.98-3.36.98-2.75,0-4.42-1.76-4.42-4.67Zm5.44-.83c-.02-1.07-.43-1.7-1.12-1.7s-1.14.58-1.28,1.7h2.4Z"/>
    <path class="cls-3" d="m306.14,168.13v5.91c0,.29-.18.46-.46.46h-2.16c-.29,0-.45-.18-.45-.46v-5.38c0-.51-.24-.8-.64-.8s-.78.3-1.02.82v5.36c0,.29-.18.46-.46.46h-2.15c-.3,0-.46-.18-.46-.46v-7.81c0-.29.16-.45.46-.45h2.02c.29,0,.46.16.46.45v.61c.51-.85,1.5-1.38,2.43-1.38,1.47,0,2.43,1.09,2.43,2.67Z"/>
    <path class="cls-3" d="m307.95,171.78v-3.81h-.67c-.29,0-.45-.16-.45-.46v-.94c0-.26.11-.45.37-.53l.3-.06c.29-.11.46-.21.54-.72l.14-.91c.05-.29.22-.42.51-.42h1.87c.29,0,.45.18.45.46v1.39h1.52c.3,0,.46.16.46.45v1.28c0,.3-.16.46-.46.46h-1.52v3.54c0,.64.27.9.77.9.19,0,.4-.05.67-.11.3-.08.51.03.56.34l.19,1.3c.05.29-.11.5-.43.59-.64.19-1.23.29-1.79.29-1.79,0-3.04-1.01-3.04-3.02Z"/>
    <path class="cls-3" d="m317.79,169.07c1.23.34,2.88.75,2.88,2.74,0,1.79-1.62,2.99-4.03,2.99-1.22,0-2.5-.37-3.35-.96-.24-.18-.27-.4-.1-.66l.75-1.02c.18-.24.38-.27.66-.11.54.3,1.26.5,1.86.5.66,0,1.06-.22,1.06-.56,0-.42-.38-.54-1.17-.75-1.18-.32-2.99-.9-2.99-2.88,0-1.83,1.38-2.9,3.7-2.9,1.01,0,2.19.3,3.07.8.27.14.3.38.13.64l-.75,1.02c-.16.26-.37.27-.62.14-.45-.22-1.01-.35-1.5-.35-.56,0-.96.22-.96.54,0,.43.45.54,1.38.82Z"/>
    <path class="cls-2" d="m325.18,164.32v-1.33c0-.29.16-.46.46-.46h2.19c.29,0,.46.18.46.46v1.33c0,.3-.18.46-.46.46h-2.19c-.3,0-.46-.16-.46-.46Zm.02,9.72v-7.81c0-.29.18-.45.46-.45h2.16c.29,0,.45.16.45.45v7.81c0,.29-.16.46-.45.46h-2.16c-.29,0-.46-.18-.46-.46Z"/>
    <path class="cls-2" d="m337.5,168.13v5.91c0,.29-.18.46-.46.46h-2.16c-.29,0-.45-.18-.45-.46v-5.38c0-.51-.24-.8-.64-.8s-.78.3-1.02.82v5.36c0,.29-.18.46-.46.46h-2.14c-.3,0-.46-.18-.46-.46v-7.81c0-.29.16-.45.46-.45h2.02c.29,0,.46.16.46.45v.61c.51-.85,1.5-1.38,2.43-1.38,1.47,0,2.43,1.09,2.43,2.67Z"/>
    <path class="cls-2" d="m351.5,163.77v10.26c0,.29-.16.46-.45.46h-2.29c-.29,0-.46-.18-.46-.46v-4.16h-2.66v4.16c0,.29-.18.46-.46.46h-2.27c-.29,0-.46-.18-.46-.46v-10.26c0-.29.18-.46.46-.46h2.27c.29,0,.46.18.46.46v3.71h2.66v-3.71c0-.29.18-.46.46-.46h2.29c.29,0,.45.18.45.46Z"/>
    <path class="cls-2" d="m360.59,166.22v7.81c0,.29-.18.46-.46.46h-1.94c-.29,0-.46-.18-.46-.46v-.59c-.53.86-1.5,1.36-2.43,1.36-1.47,0-2.42-1.06-2.42-2.66v-5.92c0-.29.16-.45.46-.45h2.15c.3,0,.46.16.46.45v5.38c0,.54.22.83.62.83.37,0,.7-.24.93-.67v-5.54c0-.29.18-.45.46-.45h2.16c.29,0,.46.16.46.45Z"/>
    <path class="cls-2" d="m369.79,168.13v5.91c0,.29-.18.46-.46.46h-2.16c-.29,0-.45-.18-.45-.46v-5.38c0-.51-.24-.8-.64-.8s-.78.3-1.02.82v5.36c0,.29-.18.46-.46.46h-2.15c-.3,0-.46-.18-.46-.46v-7.81c0-.29.16-.45.46-.45h2.02c.29,0,.46.16.46.45v.61c.51-.85,1.5-1.38,2.43-1.38,1.47,0,2.43,1.09,2.43,2.67Z"/>
    <path class="cls-2" d="m371.59,171.78v-3.81h-.67c-.29,0-.45-.16-.45-.46v-.94c0-.26.11-.45.37-.53l.3-.06c.29-.11.46-.21.54-.72l.14-.91c.05-.29.22-.42.51-.42h1.87c.29,0,.45.18.45.46v1.39h1.52c.3,0,.46.16.46.45v1.28c0,.3-.16.46-.46.46h-1.52v3.54c0,.64.27.9.77.9.19,0,.4-.05.67-.11.3-.08.51.03.56.34l.19,1.3c.05.29-.11.5-.43.59-.64.19-1.23.29-1.79.29-1.79,0-3.04-1.01-3.04-3.02Z"/>
    <path class="cls-2" d="m377.05,170.13c0-2.9,1.67-4.67,4.42-4.67,2.51,0,3.99,1.65,3.99,4.39,0,.26-.02.54-.06.83-.03.27-.21.42-.48.42h-4.72c.24.91.88,1.39,1.9,1.39.46,0,1.04-.13,1.52-.34.27-.11.46-.06.64.16l.66.9c.16.24.14.46-.08.62-.86.62-2.14.98-3.36.98-2.75,0-4.42-1.76-4.42-4.67Zm5.44-.83c-.02-1.07-.43-1.7-1.12-1.7s-1.14.58-1.28,1.7h2.4Z"/>
    <path class="cls-2" d="m392.36,166.14l-.3,2.08c-.05.3-.22.42-.48.37-.14-.03-.29-.05-.43-.05-.72,0-1.31.48-1.57,1.23v4.26c0,.29-.18.46-.46.46h-2.14c-.3,0-.46-.18-.46-.46v-7.81c0-.29.16-.45.46-.45h2.02c.29,0,.46.16.46.45v.72c.42-.93,1.15-1.49,1.99-1.49.21,0,.45.05.64.11.26.08.32.3.29.58Z"/>
    <path class="cls-2" d="m327.57,194.51v1.52c0,.29-.16.46-.46.46h-6.16c-.29,0-.46-.18-.46-.46v-10.26c0-.29.18-.46.46-.46h2.27c.29,0,.46.18.46.46v8.29h3.42c.3,0,.46.16.46.45Z"/>
    <path class="cls-2" d="m337.33,190.48v4.69c0,.22-.06.4-.26.54-.93.64-2.42,1.09-3.86,1.09-3.34,0-5.3-2.13-5.3-5.89s2.1-5.91,5.57-5.91c1.14,0,2.29.38,3.2,1.04.24.16.27.4.1.64l-.85,1.17c-.18.24-.4.27-.66.1-.51-.37-1.06-.53-1.6-.53-1.57,0-2.42,1.22-2.42,3.49s.72,3.47,2.1,3.47c.34,0,.69-.06.98-.18v-2.08h-.64c-.29,0-.45-.18-.45-.46v-1.18c0-.29.16-.46.45-.46h3.17c.3,0,.46.18.46.46Z"/>
    <path class="cls-2" d="m337.58,195.98l2.77-10.28c.06-.26.26-.4.53-.4h3.47c.27,0,.46.14.53.4l2.75,10.28c.08.3-.06.51-.4.51h-2.37c-.27,0-.45-.13-.51-.42l-.37-1.78h-2.77l-.35,1.78c-.06.29-.24.42-.51.42h-2.37c-.32,0-.48-.19-.4-.51Zm5.99-3.92l-.94-4.61h-.03l-.94,4.61h1.92Z"/>
    <path class="cls-2" d="m351.92,191.07c1.23.34,2.88.75,2.88,2.74,0,1.79-1.62,2.99-4.03,2.99-1.22,0-2.5-.37-3.35-.96-.24-.18-.27-.4-.1-.66l.75-1.02c.18-.24.38-.27.66-.11.54.3,1.26.5,1.86.5.66,0,1.06-.22,1.06-.56,0-.42-.38-.54-1.17-.75-1.18-.32-2.99-.9-2.99-2.88,0-1.83,1.38-2.9,3.7-2.9,1.01,0,2.19.3,3.07.8.27.14.3.38.13.64l-.75,1.02c-.16.26-.37.27-.62.14-.45-.22-1.01-.35-1.5-.35-.56,0-.96.22-.96.54,0,.43.45.54,1.38.82Z"/>
  </g>
  <g>
    <path class="cls-3" d="m13.86,417.65h-2.29v1.88h1.85c.22,0,.35.13.35.35v.94c0,.22-.13.35-.35.35h-1.85v2.82c0,.22-.13.35-.35.35h-1.7c-.22,0-.35-.13-.35-.35v-7.69c0-.22.13-.35.35-.35h4.34c.22,0,.35.13.35.35v1.01c0,.22-.13.35-.35.35Z"/>
    <path class="cls-3" d="m14.86,416.7v-1c0-.22.12-.35.35-.35h1.64c.22,0,.35.13.35.35v1c0,.23-.13.35-.35.35h-1.64c-.23,0-.35-.12-.35-.35Zm.01,7.28v-5.85c0-.22.13-.34.35-.34h1.62c.22,0,.34.12.34.34v5.85c0,.22-.12.35-.34.35h-1.62c-.22,0-.35-.13-.35-.35Z"/>
    <path class="cls-3" d="m22.63,418.07l-.23,1.56c-.04.23-.17.31-.36.28-.11-.02-.22-.04-.32-.04-.54,0-.98.36-1.18.92v3.19c0,.22-.13.35-.35.35h-1.61c-.23,0-.35-.13-.35-.35v-5.85c0-.22.12-.34.35-.34h1.51c.22,0,.35.12.35.34v.54c.31-.7.86-1.12,1.49-1.12.16,0,.34.04.48.08.19.06.24.23.22.43Z"/>
    <path class="cls-3" d="m25.95,420.27c.92.25,2.16.56,2.16,2.05,0,1.34-1.21,2.24-3.02,2.24-.91,0-1.87-.28-2.51-.72-.18-.13-.2-.3-.07-.49l.56-.77c.13-.18.29-.2.49-.08.41.23.95.37,1.39.37.49,0,.79-.17.79-.42,0-.31-.29-.41-.88-.56-.89-.24-2.24-.67-2.24-2.16,0-1.37,1.03-2.17,2.77-2.17.75,0,1.64.23,2.3.6.2.11.23.29.1.48l-.56.77c-.12.19-.28.2-.47.11-.34-.17-.76-.26-1.13-.26-.42,0-.72.17-.72.41,0,.32.34.41,1.03.61Z"/>
    <path class="cls-3" d="m29.18,422.29v-2.85h-.5c-.22,0-.33-.12-.33-.35v-.71c0-.19.08-.34.28-.4l.23-.05c.22-.08.35-.16.41-.54l.11-.68c.04-.22.17-.31.38-.31h1.4c.22,0,.34.13.34.35v1.04h1.14c.23,0,.35.12.35.34v.96c0,.23-.12.35-.35.35h-1.14v2.65c0,.48.2.67.58.67.14,0,.3-.04.5-.08.23-.06.38.02.42.25l.14.97c.04.22-.08.37-.32.44-.48.14-.92.22-1.34.22-1.34,0-2.28-.76-2.28-2.27Z"/>
    <path class="cls-3" d="m40.15,426.7v-2.92c-.43.5-1.1.78-1.81.78-1.4,0-2.27-1.32-2.27-3.5s.97-3.49,2.58-3.49c.62,0,1.25.31,1.67.8v-.24c0-.22.12-.34.34-.34h1.45c.23,0,.35.12.35.34v8.56c0,.23-.12.35-.35.35h-1.61c-.22,0-.35-.12-.35-.35Zm0-4.55v-2.18c-.2-.38-.52-.62-.88-.62-.54,0-.84.61-.84,1.74s.29,1.69.82,1.69c.37,0,.7-.22.9-.62Z"/>
    <path class="cls-3" d="m49.24,418.13v5.85c0,.22-.13.35-.35.35h-1.45c-.22,0-.35-.13-.35-.35v-.44c-.4.65-1.13,1.02-1.82,1.02-1.1,0-1.81-.79-1.81-1.99v-4.44c0-.22.12-.34.35-.34h1.61c.23,0,.35.12.35.34v4.03c0,.41.17.62.47.62.28,0,.53-.18.7-.5v-4.15c0-.22.13-.34.35-.34h1.62c.22,0,.35.12.35.34Z"/>
    <path class="cls-3" d="m55.8,419.76v4.22c0,.22-.12.35-.35.35h-1.42c-.22,0-.34-.13-.34-.35v-.19c-.47.48-1.16.77-1.8.77-1.15,0-1.92-.83-1.92-2.06s1.02-2.06,2.54-2.06h1.03v-.37c0-.54-.35-.77-1.04-.77-.32,0-.72.08-1.04.23-.19.1-.35.07-.48-.11l-.55-.77c-.13-.19-.1-.37.1-.48.68-.37,1.6-.61,2.38-.61,1.89,0,2.89.76,2.89,2.21Zm-2.24,1.79h-.66c-.42,0-.66.26-.66.74,0,.4.22.64.56.64.3,0,.58-.17.76-.47v-.91Z"/>
    <path class="cls-3" d="m61.2,418.07l-.23,1.56c-.04.23-.17.31-.36.28-.11-.02-.22-.04-.32-.04-.54,0-.98.36-1.18.92v3.19c0,.22-.13.35-.35.35h-1.61c-.23,0-.35-.13-.35-.35v-5.85c0-.22.12-.34.35-.34h1.51c.22,0,.35.12.35.34v.54c.31-.7.86-1.12,1.49-1.12.16,0,.34.04.48.08.19.06.24.23.22.43Z"/>
    <path class="cls-3" d="m62.03,422.29v-2.85h-.5c-.22,0-.33-.12-.33-.35v-.71c0-.19.08-.34.28-.4l.23-.05c.22-.08.35-.16.41-.54l.11-.68c.04-.22.17-.31.38-.31h1.4c.22,0,.34.13.34.35v1.04h1.14c.23,0,.35.12.35.34v.96c0,.23-.12.35-.35.35h-1.14v2.65c0,.48.2.67.58.67.14,0,.3-.04.5-.08.23-.06.38.02.42.25l.14.97c.04.22-.08.37-.32.44-.48.14-.92.22-1.34.22-1.34,0-2.28-.76-2.28-2.27Z"/>
    <path class="cls-3" d="m66.12,421.06c0-2.17,1.25-3.5,3.31-3.5,1.88,0,2.99,1.24,2.99,3.29,0,.19-.01.41-.05.62-.02.2-.16.31-.36.31h-3.54c.18.68.66,1.04,1.43,1.04.35,0,.78-.1,1.14-.25.2-.08.35-.05.48.12l.49.67c.12.18.11.35-.06.47-.65.47-1.61.73-2.52.73-2.06,0-3.31-1.32-3.31-3.5Zm4.08-.62c-.01-.8-.32-1.27-.84-1.27s-.85.43-.96,1.27h1.8Z"/>
    <path class="cls-3" d="m77.6,418.07l-.23,1.56c-.04.23-.17.31-.36.28-.11-.02-.22-.04-.32-.04-.54,0-.98.36-1.17.92v3.19c0,.22-.13.35-.35.35h-1.61c-.23,0-.35-.13-.35-.35v-5.85c0-.22.12-.34.35-.34h1.51c.22,0,.35.12.35.34v.54c.31-.7.86-1.12,1.49-1.12.16,0,.34.04.48.08.19.06.24.23.22.43Z"/>
    <path class="cls-3" d="m86.01,422.95v1.03c0,.22-.13.35-.35.35h-4.96c-.22,0-.35-.13-.35-.35v-.98c0-.18.06-.3.18-.43,1.27-1.24,3.11-2.81,3.11-4.16,0-.54-.34-.9-.83-.9-.43,0-.97.24-1.45.66-.18.14-.35.14-.49-.04l-.6-.72c-.13-.16-.14-.32-.01-.48.76-.85,1.8-1.21,2.76-1.21,1.78,0,2.96.95,2.96,2.39s-.96,2.76-2.74,4.5h2.42c.22,0,.35.12.35.35Z"/>
    <path class="cls-3" d="m93.31,420.15c0,2.87-1.14,4.41-3.3,4.41s-3.3-1.55-3.3-4.41,1.14-4.43,3.3-4.43,3.3,1.55,3.3,4.43Zm-2.35,0c0-1.86-.28-2.59-.95-2.59s-.95.73-.95,2.59.28,2.58.95,2.58.95-.73.95-2.58Z"/>
    <path class="cls-3" d="m99.45,422.95v1.03c0,.22-.13.35-.35.35h-4.97c-.22,0-.35-.13-.35-.35v-.98c0-.18.06-.3.18-.43,1.27-1.24,3.11-2.81,3.11-4.16,0-.54-.34-.9-.83-.9-.43,0-.97.24-1.45.66-.18.14-.35.14-.49-.04l-.6-.72c-.13-.16-.14-.32-.01-.48.76-.85,1.8-1.21,2.76-1.21,1.77,0,2.96.95,2.96,2.39s-.96,2.76-2.73,4.5h2.42c.22,0,.35.12.35.35Z"/>
    <path class="cls-3" d="m99.9,423.72c-.17-.13-.18-.31-.04-.48l.66-.79c.13-.18.3-.18.49-.05.38.28.86.44,1.29.44.62,0,1.08-.32,1.08-1.01s-.47-1.06-1.31-1.06h-.47c-.22,0-.36-.12-.36-.35v-.32c0-.18.04-.3.16-.42l1.7-2.01h-2.69c-.22,0-.34-.12-.34-.35v-1.03c0-.22.12-.35.34-.35h4.82c.22,0,.34.13.34.35v.88c0,.18-.05.3-.16.43l-1.74,2.06c1.32.2,2.05,1.04,2.05,2.31,0,1.63-1.37,2.58-3.07,2.58-1.04,0-2.06-.31-2.77-.84Z"/>
    <path class="cls-3" d="m109.62,423.98v-4.55h-.56c-.22,0-.35-.12-.35-.35v-.71c0-.19.1-.34.29-.4l.24-.06c.28-.08.38-.23.38-.52v-.16c0-1.28,1.03-2.12,2.55-2.12.42,0,.88.07,1.24.19.19.06.26.22.23.42l-.13.96c-.04.24-.19.31-.42.25-.18-.05-.38-.07-.59-.07-.5,0-.78.25-.78.71v.2h1.04c.22,0,.35.12.35.34v.96c0,.22-.13.35-.35.35h-.84v4.55c0,.22-.13.35-.35.35h-1.62c-.22,0-.34-.13-.34-.35Z"/>
    <path class="cls-3" d="m119.85,421.06c0,2.18-1.24,3.5-3.27,3.5s-3.29-1.32-3.29-3.5,1.24-3.5,3.29-3.5,3.27,1.33,3.27,3.5Zm-2.36,0c0-1.1-.32-1.7-.91-1.7s-.92.6-.92,1.7.32,1.72.92,1.72.91-.61.91-1.72Z"/>
    <path class="cls-3" d="m125.07,418.07l-.23,1.56c-.04.23-.17.31-.36.28-.11-.02-.22-.04-.32-.04-.54,0-.98.36-1.18.92v3.19c0,.22-.13.35-.35.35h-1.61c-.23,0-.35-.13-.35-.35v-5.85c0-.22.12-.34.35-.34h1.51c.22,0,.35.12.35.34v.54c.31-.7.86-1.12,1.49-1.12.16,0,.34.04.48.08.19.06.24.23.22.43Z"/>
    <path class="cls-3" d="m131.15,420.27c.92.25,2.16.56,2.16,2.05,0,1.34-1.21,2.24-3.02,2.24-.91,0-1.87-.28-2.51-.72-.18-.13-.2-.3-.07-.49l.56-.77c.13-.18.29-.2.49-.08.41.23.95.37,1.39.37.49,0,.79-.17.79-.42,0-.31-.29-.41-.88-.56-.89-.24-2.24-.67-2.24-2.16,0-1.37,1.03-2.17,2.77-2.17.75,0,1.64.23,2.3.6.2.11.23.29.1.48l-.56.77c-.12.19-.28.2-.47.11-.34-.17-.76-.26-1.13-.26-.42,0-.72.17-.72.41,0,.32.34.41,1.03.61Z"/>
    <path class="cls-3" d="m139.53,419.76v4.22c0,.22-.12.35-.35.35h-1.42c-.22,0-.34-.13-.34-.35v-.19c-.47.48-1.16.77-1.8.77-1.15,0-1.92-.83-1.92-2.06s1.02-2.06,2.54-2.06h1.03v-.37c0-.54-.35-.77-1.04-.77-.32,0-.72.08-1.04.23-.19.1-.35.07-.48-.11l-.55-.77c-.13-.19-.1-.37.1-.48.68-.37,1.6-.61,2.38-.61,1.89,0,2.89.76,2.89,2.21Zm-2.24,1.79h-.66c-.42,0-.66.26-.66.74,0,.4.22.64.56.64.3,0,.58-.17.76-.47v-.91Z"/>
    <path class="cls-3" d="m140.49,423.98v-8.28c0-.22.12-.35.35-.35h1.61c.23,0,.35.13.35.35v8.28c0,.22-.12.35-.35.35h-1.61c-.23,0-.35-.13-.35-.35Z"/>
    <path class="cls-3" d="m143.58,421.06c0-2.17,1.25-3.5,3.31-3.5,1.88,0,2.99,1.24,2.99,3.29,0,.19-.01.41-.05.62-.02.2-.16.31-.36.31h-3.54c.18.68.66,1.04,1.43,1.04.35,0,.78-.1,1.14-.25.2-.08.35-.05.48.12l.49.67c.12.18.11.35-.06.47-.65.47-1.61.73-2.52.73-2.06,0-3.31-1.32-3.31-3.5Zm4.08-.62c-.01-.8-.32-1.27-.84-1.27s-.85.43-.96,1.27h1.8Z"/>
    <path class="cls-3" d="m153.61,420.27c.92.25,2.16.56,2.16,2.05,0,1.34-1.21,2.24-3.02,2.24-.91,0-1.87-.28-2.51-.72-.18-.13-.2-.3-.07-.49l.56-.77c.13-.18.29-.2.49-.08.41.23.95.37,1.39.37.49,0,.79-.17.79-.42,0-.31-.29-.41-.88-.56-.89-.24-2.24-.67-2.24-2.16,0-1.37,1.03-2.17,2.77-2.17.76,0,1.64.23,2.3.6.2.11.23.29.1.48l-.56.77c-.12.19-.28.2-.47.11-.34-.17-.76-.26-1.13-.26-.42,0-.72.17-.72.41,0,.32.34.41,1.03.61Z"/>
    <path class="cls-3" d="m156.57,422.07h1.69c.22,0,.35.13.35.35v1.49c0,1.39-.77,2.28-2.06,2.45-.22.04-.34-.08-.37-.3l-.02-.16c-.04-.22.07-.34.28-.41.48-.18.76-.59.78-1.15h-.63c-.22,0-.35-.13-.35-.35v-1.57c0-.22.13-.35.35-.35Z"/>
    <path class="cls-3" d="m165.03,420.27c.92.25,2.16.56,2.16,2.05,0,1.34-1.21,2.24-3.02,2.24-.91,0-1.87-.28-2.51-.72-.18-.13-.2-.3-.07-.49l.56-.77c.13-.18.29-.2.49-.08.41.23.95.37,1.39.37.49,0,.79-.17.79-.42,0-.31-.29-.41-.88-.56-.89-.24-2.24-.67-2.24-2.16,0-1.37,1.03-2.17,2.77-2.17.76,0,1.64.23,2.3.6.2.11.23.29.1.48l-.56.77c-.12.19-.28.2-.47.11-.33-.17-.75-.26-1.13-.26-.42,0-.72.17-.72.41,0,.32.34.41,1.03.61Z"/>
    <path class="cls-3" d="m167.69,421.06c0-2.17,1.25-3.5,3.31-3.5,1.88,0,2.99,1.24,2.99,3.29,0,.19-.01.41-.05.62-.02.2-.16.31-.36.31h-3.54c.18.68.66,1.04,1.43,1.04.35,0,.78-.1,1.14-.25.2-.08.35-.05.48.12l.49.67c.12.18.11.35-.06.47-.65.47-1.61.73-2.52.73-2.06,0-3.31-1.32-3.31-3.5Zm4.08-.62c-.01-.8-.32-1.27-.84-1.27s-.85.43-.96,1.27h1.8Z"/>
    <path class="cls-3" d="m174.55,421.06c0-2.11,1.33-3.5,3.31-3.5.75,0,1.51.23,2.04.6.18.14.2.3.07.49l-.64.89c-.13.17-.29.17-.48.06-.2-.12-.43-.17-.66-.17-.83,0-1.25.54-1.25,1.63s.41,1.64,1.26,1.64c.22,0,.46-.07.66-.18.2-.12.35-.12.48.06l.63.89c.13.18.13.34-.02.46-.54.4-1.31.64-2.1.64-2,0-3.31-1.38-3.31-3.5Z"/>
    <path class="cls-3" d="m186.71,421.06c0,2.18-1.24,3.5-3.27,3.5s-3.29-1.32-3.29-3.5,1.24-3.5,3.29-3.5,3.27,1.33,3.27,3.5Zm-2.36,0c0-1.1-.32-1.7-.91-1.7s-.92.6-.92,1.7.32,1.72.92,1.72.91-.61.91-1.72Z"/>
    <path class="cls-3" d="m193.4,419.56v4.43c0,.22-.13.35-.35.35h-1.62c-.22,0-.34-.13-.34-.35v-4.03c0-.38-.18-.6-.48-.6s-.59.23-.77.61v4.02c0,.22-.13.35-.35.35h-1.61c-.23,0-.35-.13-.35-.35v-5.85c0-.22.12-.34.35-.34h1.51c.22,0,.35.12.35.34v.46c.38-.64,1.13-1.03,1.82-1.03,1.1,0,1.82.82,1.82,2Z"/>
    <path class="cls-3" d="m194.18,421.06c0-2.17.97-3.49,2.58-3.49.53,0,1.08.24,1.48.62v-2.48c0-.22.13-.35.35-.35h1.62c.22,0,.35.13.35.35v8.28c0,.22-.13.35-.35.35h-1.42c-.22,0-.35-.13-.35-.35v-.24c-.43.5-1.09.82-1.8.82-1.52,0-2.46-1.32-2.46-3.5Zm4.05,1.13v-2.25c-.19-.37-.5-.59-.85-.59-.54,0-.84.61-.84,1.74s.29,1.69.82,1.69c.37,0,.68-.22.88-.59Z"/>
    <path class="cls-3" d="m208.12,426.7v-2.92c-.43.5-1.1.78-1.81.78-1.4,0-2.27-1.32-2.27-3.5s.97-3.49,2.58-3.49c.62,0,1.25.31,1.67.8v-.24c0-.22.12-.34.33-.34h1.45c.23,0,.35.12.35.34v8.56c0,.23-.12.35-.35.35h-1.61c-.22,0-.35-.12-.35-.35Zm0-4.55v-2.18c-.2-.38-.52-.62-.88-.62-.54,0-.84.61-.84,1.74s.29,1.69.82,1.69c.37,0,.7-.22.9-.62Z"/>
    <path class="cls-3" d="m217.22,418.13v5.85c0,.22-.13.35-.35.35h-1.45c-.22,0-.35-.13-.35-.35v-.44c-.4.65-1.13,1.02-1.82,1.02-1.1,0-1.81-.79-1.81-1.99v-4.44c0-.22.12-.34.35-.34h1.61c.23,0,.35.12.35.34v4.03c0,.41.17.62.47.62.28,0,.53-.18.7-.5v-4.15c0-.22.13-.34.35-.34h1.62c.22,0,.35.12.35.34Z"/>
    <path class="cls-3" d="m223.77,419.76v4.22c0,.22-.12.35-.35.35h-1.42c-.22,0-.34-.13-.34-.35v-.19c-.47.48-1.16.77-1.8.77-1.15,0-1.92-.83-1.92-2.06s1.02-2.06,2.54-2.06h1.03v-.37c0-.54-.35-.77-1.04-.77-.32,0-.72.08-1.04.23-.19.1-.35.07-.48-.11l-.55-.77c-.13-.19-.1-.37.1-.48.68-.37,1.59-.61,2.38-.61,1.89,0,2.89.76,2.89,2.21Zm-2.24,1.79h-.66c-.42,0-.66.26-.66.74,0,.4.22.64.56.64.3,0,.58-.17.76-.47v-.91Z"/>
    <path class="cls-3" d="m229.17,418.07l-.23,1.56c-.04.23-.17.31-.36.28-.11-.02-.22-.04-.32-.04-.54,0-.98.36-1.18.92v3.19c0,.22-.13.35-.35.35h-1.61c-.23,0-.35-.13-.35-.35v-5.85c0-.22.12-.34.35-.34h1.51c.22,0,.35.12.35.34v.54c.31-.7.86-1.12,1.49-1.12.16,0,.34.04.48.08.19.06.24.23.22.43Z"/>
    <path class="cls-3" d="m230,422.29v-2.85h-.5c-.22,0-.34-.12-.34-.35v-.71c0-.19.08-.34.28-.4l.23-.05c.22-.08.35-.16.41-.54l.11-.68c.04-.22.17-.31.38-.31h1.4c.22,0,.34.13.34.35v1.04h1.14c.23,0,.35.12.35.34v.96c0,.23-.12.35-.35.35h-1.14v2.65c0,.48.2.67.58.67.14,0,.3-.04.5-.08.23-.06.38.02.42.25l.14.97c.04.22-.08.37-.32.44-.48.14-.92.22-1.34.22-1.34,0-2.28-.76-2.28-2.27Z"/>
    <path class="cls-3" d="m234.09,421.06c0-2.17,1.25-3.5,3.31-3.5,1.88,0,2.99,1.24,2.99,3.29,0,.19-.01.41-.05.62-.02.2-.16.31-.36.31h-3.54c.18.68.66,1.04,1.43,1.04.35,0,.78-.1,1.14-.25.2-.08.35-.05.48.12l.49.67c.12.18.11.35-.06.47-.65.47-1.61.73-2.52.73-2.06,0-3.31-1.32-3.31-3.5Zm4.08-.62c-.01-.8-.32-1.27-.84-1.27s-.85.43-.96,1.27h1.8Z"/>
    <path class="cls-3" d="m245.57,418.07l-.23,1.56c-.04.23-.17.31-.36.28-.11-.02-.22-.04-.32-.04-.54,0-.98.36-1.18.92v3.19c0,.22-.13.35-.35.35h-1.61c-.23,0-.35-.13-.35-.35v-5.85c0-.22.12-.34.35-.34h1.51c.22,0,.35.12.35.34v.54c.31-.7.86-1.12,1.49-1.12.16,0,.34.04.48.08.19.06.24.23.22.43Z"/>
    <path class="cls-3" d="m253.98,422.95v1.03c0,.22-.13.35-.35.35h-4.96c-.22,0-.35-.13-.35-.35v-.98c0-.18.06-.3.18-.43,1.27-1.24,3.11-2.81,3.11-4.16,0-.54-.33-.9-.83-.9-.43,0-.97.24-1.45.66-.18.14-.35.14-.49-.04l-.6-.72c-.13-.16-.14-.32-.01-.48.76-.85,1.8-1.21,2.76-1.21,1.77,0,2.96.95,2.96,2.39s-.96,2.76-2.73,4.5h2.42c.22,0,.35.12.35.35Z"/>
    <path class="cls-3" d="m261.28,420.15c0,2.87-1.14,4.41-3.3,4.41s-3.3-1.55-3.3-4.41,1.14-4.43,3.3-4.43,3.3,1.55,3.3,4.43Zm-2.35,0c0-1.86-.28-2.59-.95-2.59s-.95.73-.95,2.59.28,2.58.95,2.58.95-.73.95-2.58Z"/>
    <path class="cls-3" d="m267.42,422.95v1.03c0,.22-.13.35-.35.35h-4.96c-.22,0-.35-.13-.35-.35v-.98c0-.18.06-.3.18-.43,1.27-1.24,3.11-2.81,3.11-4.16,0-.54-.33-.9-.83-.9-.43,0-.97.24-1.45.66-.18.14-.35.14-.49-.04l-.6-.72c-.13-.16-.14-.32-.01-.48.76-.85,1.8-1.21,2.76-1.21,1.77,0,2.96.95,2.96,2.39s-.96,2.76-2.73,4.5h2.42c.22,0,.35.12.35.35Z"/>
    <path class="cls-3" d="m267.87,423.72c-.17-.13-.18-.31-.04-.48l.66-.79c.13-.18.3-.18.49-.05.38.28.86.44,1.29.44.62,0,1.08-.32,1.08-1.01s-.47-1.06-1.31-1.06h-.47c-.22,0-.36-.12-.36-.35v-.32c0-.18.04-.3.16-.42l1.7-2.01h-2.69c-.22,0-.34-.12-.34-.35v-1.03c0-.22.12-.35.34-.35h4.82c.22,0,.34.13.34.35v.88c0,.18-.05.3-.16.43l-1.74,2.06c1.32.2,2.05,1.04,2.05,2.31,0,1.63-1.37,2.58-3.07,2.58-1.04,0-2.06-.31-2.77-.84Z"/>
    <path class="cls-3" d="m277.59,423.98v-4.55h-.56c-.22,0-.35-.12-.35-.35v-.71c0-.19.1-.34.29-.4l.24-.06c.28-.08.38-.23.38-.52v-.16c0-1.28,1.03-2.12,2.55-2.12.42,0,.88.07,1.24.19.19.06.26.22.23.42l-.13.96c-.04.24-.19.31-.42.25-.18-.05-.38-.07-.59-.07-.5,0-.78.25-.78.71v.2h1.04c.22,0,.35.12.35.34v.96c0,.22-.13.35-.35.35h-.84v4.55c0,.22-.13.35-.35.35h-1.62c-.22,0-.34-.13-.34-.35Z"/>
    <path class="cls-3" d="m287.82,421.06c0,2.18-1.24,3.5-3.27,3.5s-3.29-1.32-3.29-3.5,1.24-3.5,3.29-3.5,3.27,1.33,3.27,3.5Zm-2.36,0c0-1.1-.32-1.7-.91-1.7s-.92.6-.92,1.7.32,1.72.92,1.72.91-.61.91-1.72Z"/>
    <path class="cls-3" d="m293.04,418.07l-.23,1.56c-.04.23-.17.31-.36.28-.11-.02-.22-.04-.32-.04-.54,0-.98.36-1.18.92v3.19c0,.22-.13.35-.35.35h-1.61c-.23,0-.35-.13-.35-.35v-5.85c0-.22.12-.34.35-.34h1.51c.22,0,.35.12.35.34v.54c.31-.7.86-1.12,1.49-1.12.16,0,.34.04.48.08.19.06.24.23.22.43Z"/>
    <path class="cls-3" d="m300.57,418.07l-.23,1.56c-.04.23-.17.31-.36.28-.11-.02-.22-.04-.32-.04-.54,0-.98.36-1.18.92v3.19c0,.22-.13.35-.35.35h-1.61c-.23,0-.35-.13-.35-.35v-5.85c0-.22.12-.34.35-.34h1.51c.22,0,.35.12.35.34v.54c.31-.7.86-1.12,1.49-1.12.16,0,.34.04.48.08.19.06.24.23.22.43Z"/>
    <path class="cls-3" d="m300.63,421.06c0-2.17,1.25-3.5,3.31-3.5,1.88,0,2.99,1.24,2.99,3.29,0,.19-.01.41-.05.62-.02.2-.16.31-.36.31h-3.54c.18.68.66,1.04,1.43,1.04.35,0,.78-.1,1.14-.25.2-.08.35-.05.48.12l.49.67c.12.18.11.35-.06.47-.65.47-1.61.73-2.52.73-2.06,0-3.31-1.32-3.31-3.5Zm4.08-.62c-.01-.8-.32-1.27-.84-1.27s-.85.43-.96,1.27h1.8Z"/>
    <path class="cls-3" d="m313.58,419.56v4.43c0,.22-.13.35-.35.35h-1.62c-.22,0-.33-.13-.33-.35v-4.03c0-.38-.18-.6-.48-.6s-.59.23-.77.61v4.02c0,.22-.13.35-.35.35h-1.61c-.23,0-.35-.13-.35-.35v-5.85c0-.22.12-.34.35-.34h1.51c.22,0,.35.12.35.34v.46c.38-.64,1.13-1.03,1.82-1.03,1.1,0,1.82.82,1.82,2Z"/>
    <path class="cls-3" d="m314.94,422.29v-2.85h-.5c-.22,0-.34-.12-.34-.35v-.71c0-.19.08-.34.28-.4l.23-.05c.22-.08.35-.16.41-.54l.11-.68c.04-.22.17-.31.38-.31h1.4c.22,0,.34.13.34.35v1.04h1.14c.23,0,.35.12.35.34v.96c0,.23-.12.35-.35.35h-1.14v2.65c0,.48.2.67.58.67.14,0,.3-.04.5-.08.23-.06.38.02.42.25l.14.97c.04.22-.08.37-.32.44-.48.14-.92.22-1.34.22-1.34,0-2.28-.76-2.28-2.27Z"/>
    <path class="cls-3" d="m322.31,420.27c.92.25,2.16.56,2.16,2.05,0,1.34-1.21,2.24-3.02,2.24-.91,0-1.87-.28-2.51-.72-.18-.13-.2-.3-.07-.49l.56-.77c.13-.18.29-.2.49-.08.41.23.95.37,1.39.37.49,0,.79-.17.79-.42,0-.31-.29-.41-.88-.56-.89-.24-2.24-.67-2.24-2.16,0-1.37,1.03-2.17,2.77-2.17.76,0,1.64.23,2.3.6.2.11.23.29.1.48l-.56.77c-.12.19-.28.2-.47.11-.33-.17-.75-.26-1.13-.26-.42,0-.72.17-.72.41,0,.32.34.41,1.03.61Z"/>
    <path class="cls-3" d="m324.94,423.98v-1.57c0-.22.13-.35.35-.35h1.69c.22,0,.35.13.35.35v1.57c0,.22-.13.35-.35.35h-1.69c-.22,0-.35-.13-.35-.35Z"/>
  </g>
</svg>