<?xml version="1.0" encoding="UTF-8"?>
<svg id="Layer_1" data-name="Layer 1" xmlns="http://www.w3.org/2000/svg" viewBox="0 0 430.06 430.06">
  <defs>
    <style>
      .cls-1, .cls-2, .cls-3, .cls-4, .cls-5, .cls-6, .cls-7 {
        stroke-width: 0px;
      }

      .cls-1, .cls-5 {
        fill: #bfd4e4;
      }

      .cls-2, .cls-3 {
        fill: #fff;
      }

      .cls-3, .cls-5, .cls-6, .cls-7 {
        fill-rule: evenodd;
      }

      .cls-4, .cls-7 {
        fill: #1e3564;
      }

      .cls-6 {
        fill: #a2c3e7;
      }
    </style>
  </defs>
  <rect class="cls-1" width="430.06" height="430.06"/>
  <g>
    <path class="cls-2" d="m169.83,88.52v3.87c0,.81-.5,1.31-1.3,1.31h-18.4c-.86,0-1.31-.5-1.31-1.31v-3.87c0-.85.45-1.31,1.31-1.31h5.71v-16.02l-4.5,2.52c-.72.4-1.3.22-1.8-.36l-2.61-3.1c-.54-.72-.45-1.35.32-1.8l9.81-5.76c.54-.31,1.04-.45,1.62-.45h4.27c.81,0,1.26.5,1.26,1.3v23.67h4.32c.81,0,1.3.45,1.3,1.31Z"/>
    <path class="cls-2" d="m192.33,88.52v3.87c0,.81-.5,1.31-1.3,1.31h-18.4c-.86,0-1.31-.5-1.31-1.31v-3.87c0-.85.45-1.31,1.31-1.31h5.71v-16.02l-4.5,2.52c-.72.4-1.3.22-1.8-.36l-2.61-3.1c-.54-.72-.45-1.35.32-1.8l9.81-5.76c.54-.31,1.04-.45,1.62-.45h4.27c.81,0,1.26.5,1.26,1.3v23.67h4.32c.81,0,1.3.45,1.3,1.31Z"/>
    <path class="cls-2" d="m195.25,85.19h6.34c.81,0,1.31.5,1.31,1.31v5.58c0,5.22-2.88,8.55-7.74,9.18-.81.14-1.26-.31-1.39-1.12l-.09-.58c-.13-.81.27-1.26,1.04-1.53,1.8-.67,2.83-2.21,2.92-4.32h-2.38c-.81,0-1.3-.5-1.3-1.31v-5.89c0-.81.5-1.31,1.3-1.31Z"/>
    <path class="cls-2" d="m226.62,83.3c0,7.06-5.22,11.25-11.92,11.25-3.87,0-7.88-1.26-10.48-3.28-.67-.54-.67-1.22-.14-1.85l2.48-2.97c.54-.67,1.17-.67,1.8-.18,1.67,1.21,3.64,1.94,5.26,1.94,2.56,0,4.23-1.58,4.23-4.68,0-2.88-1.53-4.5-4.23-4.5-1.04,0-2.02.23-2.88.63-.67.31-1.17.31-1.8.09l-2.61-1.08c-.72-.31-1.03-.77-.99-1.53l.76-13.63c.04-.85.45-1.26,1.26-1.26h16.38c.81,0,1.3.5,1.3,1.3v3.87c0,.85-.5,1.3-1.3,1.3h-9.9l-.31,5.54c1.48-.68,3.06-.95,4.54-.95,5.17,0,8.55,3.96,8.55,9.99Z"/>
    <path class="cls-2" d="m253.8,77.99c0,10.75-4.28,16.56-12.38,16.56s-12.37-5.8-12.37-16.56,4.27-16.6,12.37-16.6,12.38,5.8,12.38,16.6Zm-8.82,0c0-6.97-1.04-9.72-3.56-9.72s-3.55,2.74-3.55,9.72,1.04,9.67,3.55,9.67,3.56-2.74,3.56-9.67Z"/>
    <path class="cls-2" d="m281.06,77.99c0,10.75-4.27,16.56-12.37,16.56s-12.38-5.8-12.38-16.56,4.28-16.6,12.38-16.6,12.37,5.8,12.37,16.6Zm-8.82,0c0-6.97-1.04-9.72-3.55-9.72s-3.55,2.74-3.55,9.72,1.04,9.67,3.55,9.67,3.55-2.74,3.55-9.67Z"/>
    <path class="cls-4" d="m146.64,119.46v-8.34h-1.03c-.4,0-.64-.22-.64-.64v-1.3c0-.35.18-.62.53-.73l.44-.11c.51-.15.7-.42.7-.95v-.29c0-2.35,1.89-3.89,4.69-3.89.77,0,1.61.13,2.27.35.35.11.48.4.42.77l-.24,1.76c-.07.44-.35.57-.77.46-.33-.09-.7-.13-1.08-.13-.92,0-1.43.46-1.43,1.3v.37h1.91c.4,0,.64.22.64.62v1.76c0,.4-.24.64-.64.64h-1.54v8.34c0,.4-.24.64-.64.64h-2.97c-.4,0-.62-.24-.62-.64Z"/>
    <path class="cls-4" d="m164.53,108.72v10.74c0,.4-.24.64-.64.64h-2.66c-.4,0-.64-.24-.64-.64v-.81c-.73,1.19-2.07,1.87-3.34,1.87-2.02,0-3.32-1.45-3.32-3.65v-8.14c0-.4.22-.62.64-.62h2.95c.42,0,.64.22.64.62v7.39c0,.75.31,1.14.86,1.14.51,0,.97-.33,1.28-.92v-7.61c0-.4.24-.62.64-.62h2.97c.4,0,.64.22.64.62Z"/>
    <path class="cls-4" d="m166.35,119.46v-15.18c0-.4.22-.64.64-.64h2.95c.42,0,.64.24.64.64v15.18c0,.4-.22.64-.64.64h-2.95c-.42,0-.64-.24-.64-.64Z"/>
    <path class="cls-4" d="m172.33,119.46v-15.18c0-.4.22-.64.64-.64h2.95c.42,0,.64.24.64.64v15.18c0,.4-.22.64-.64.64h-2.95c-.42,0-.64-.24-.64-.64Z"/>
    <path class="cls-4" d="m185.31,112.92v1.8c0,.4-.22.64-.62.64h-6.16c-.4,0-.64-.24-.64-.64v-1.8c0-.4.24-.64.64-.64h6.16c.4,0,.62.24.62.64Z"/>
    <path class="cls-4" d="m187.4,116.35v-5.24h-.92c-.4,0-.62-.22-.62-.64v-1.3c0-.35.15-.62.51-.73l.42-.09c.4-.15.64-.29.75-.99l.2-1.25c.07-.4.31-.57.7-.57h2.57c.4,0,.62.24.62.64v1.91h2.09c.42,0,.64.22.64.62v1.76c0,.42-.22.64-.64.64h-2.09v4.86c0,.88.37,1.23,1.06,1.23.26,0,.55-.07.92-.15.42-.11.7.04.77.46l.26,1.78c.07.4-.15.68-.59.81-.88.26-1.69.4-2.46.4-2.46,0-4.18-1.39-4.18-4.16Z"/>
    <path class="cls-4" d="m195.52,106.1v-1.83c0-.4.22-.64.64-.64h3.01c.4,0,.64.24.64.64v1.83c0,.42-.24.64-.64.64h-3.01c-.42,0-.64-.22-.64-.64Zm.02,13.36v-10.74c0-.4.24-.62.64-.62h2.97c.4,0,.62.22.62.62v10.74c0,.4-.22.64-.62.64h-2.97c-.4,0-.64-.24-.64-.64Z"/>
    <path class="cls-4" d="m218.29,111.34v8.12c0,.4-.24.64-.64.64h-2.97c-.4,0-.64-.24-.64-.64v-7.39c0-.7-.26-1.1-.77-1.1-.44,0-.86.33-1.14.9v7.59c0,.4-.24.64-.64.64h-2.97c-.4,0-.64-.24-.64-.64v-7.39c0-.75-.2-1.1-.68-1.1s-.92.33-1.25.95v7.55c0,.4-.24.64-.64.64h-2.95c-.42,0-.64-.24-.64-.64v-10.74c0-.4.22-.62.64-.62h2.77c.4,0,.64.22.64.62v.84c.68-1.12,2.02-1.89,3.3-1.89s2.24.7,2.73,1.85c.68-1.1,1.98-1.85,3.19-1.85,2.07,0,3.3,1.39,3.3,3.67Z"/>
    <path class="cls-4" d="m219.72,114.09c0-3.98,2.29-6.42,6.07-6.42,3.46,0,5.48,2.27,5.48,6.03,0,.35-.02.75-.09,1.14-.04.37-.29.57-.66.57h-6.49c.33,1.25,1.21,1.91,2.62,1.91.64,0,1.43-.18,2.09-.46.37-.15.64-.09.88.22l.9,1.23c.22.33.2.64-.11.86-1.19.86-2.95,1.34-4.62,1.34-3.78,0-6.07-2.42-6.07-6.42Zm7.48-1.14c-.02-1.47-.59-2.33-1.54-2.33s-1.56.79-1.76,2.33h3.3Z"/>
    <path class="cls-4" d="m235.87,124.87l-.29-1.85c-.07-.37.09-.59.4-.77,1.17-.68,1.69-1.5,1.69-2.73v-10.8c0-.4.22-.62.62-.62h2.97c.4,0,.64.22.64.62v10.45c0,3.17-2.05,5.68-5.32,6.25-.4.07-.64-.15-.7-.55Zm1.76-18.77v-1.83c0-.4.24-.64.64-.64h3.01c.42,0,.64.24.64.64v1.83c0,.42-.22.64-.64.64h-3.01c-.4,0-.64-.22-.64-.64Z"/>
    <path class="cls-4" d="m255.49,114.09c0,4-2.27,6.42-6.01,6.42s-6.03-2.42-6.03-6.42,2.27-6.42,6.03-6.42,6.01,2.44,6.01,6.42Zm-4.33,0c0-2.02-.59-3.12-1.67-3.12s-1.69,1.1-1.69,3.12.59,3.15,1.69,3.15,1.67-1.12,1.67-3.15Z"/>
    <path class="cls-4" d="m260.86,118.99v.46c0,.4-.22.64-.64.64h-2.57c-.42,0-.64-.24-.64-.64v-15.18c0-.4.22-.64.64-.64h2.95c.4,0,.64.24.64.64v5.02c.75-.99,1.98-1.61,3.26-1.61,2.6,0,4.16,2.42,4.16,6.42s-1.78,6.4-4.71,6.4c-1.14,0-2.35-.59-3.08-1.52Zm3.45-4.93c0-2-.53-3.1-1.5-3.1-.64,0-1.21.4-1.58,1.08v4.14c.37.68.92,1.06,1.56,1.06.99,0,1.52-1.12,1.52-3.17Z"/>
    <path class="cls-4" d="m275.58,112.64c1.69.46,3.96,1.03,3.96,3.76,0,2.46-2.22,4.11-5.54,4.11-1.67,0-3.43-.51-4.6-1.32-.33-.24-.37-.55-.13-.9l1.03-1.41c.24-.33.53-.37.9-.15.75.42,1.74.68,2.55.68.9,0,1.45-.31,1.45-.77,0-.57-.53-.75-1.61-1.03-1.63-.44-4.11-1.23-4.11-3.96,0-2.51,1.89-3.98,5.08-3.98,1.39,0,3.01.42,4.22,1.1.37.2.42.53.18.88l-1.03,1.41c-.22.35-.51.37-.86.2-.62-.31-1.39-.48-2.07-.48-.77,0-1.32.31-1.32.75,0,.59.62.75,1.89,1.12Z"/>
    <path class="cls-2" d="m155.72,138.11v7.75c0,.4-.22.64-.64.64h-2.6c-.4,0-.62-.24-.62-.64v-.35c-.86.88-2.13,1.41-3.3,1.41-2.11,0-3.52-1.52-3.52-3.78s1.87-3.78,4.66-3.78h1.89v-.68c0-.99-.64-1.41-1.91-1.41-.59,0-1.32.15-1.91.42-.35.18-.64.13-.88-.2l-1.01-1.41c-.24-.35-.18-.68.18-.88,1.25-.68,2.93-1.12,4.36-1.12,3.48,0,5.3,1.39,5.3,4.05Zm-4.11,3.28h-1.21c-.77,0-1.21.48-1.21,1.36,0,.73.4,1.17,1.03,1.17.55,0,1.06-.31,1.39-.86v-1.67Z"/>
    <path class="cls-2" d="m157.15,140.49c0-3.98,1.78-6.4,4.73-6.4.97,0,1.98.44,2.71,1.14v-4.55c0-.4.24-.64.64-.64h2.97c.4,0,.64.24.64.64v15.18c0,.4-.24.64-.64.64h-2.6c-.4,0-.64-.24-.64-.64v-.44c-.79.92-2,1.5-3.3,1.5-2.79,0-4.51-2.42-4.51-6.42Zm7.44,2.07v-4.14c-.35-.68-.92-1.08-1.56-1.08-.99,0-1.54,1.12-1.54,3.19s.53,3.1,1.5,3.1c.68,0,1.25-.4,1.61-1.08Z"/>
    <path class="cls-2" d="m170.33,140.49c0-3.98,1.78-6.4,4.73-6.4.97,0,1.98.44,2.71,1.14v-4.55c0-.4.24-.64.64-.64h2.97c.4,0,.64.24.64.64v15.18c0,.4-.24.64-.64.64h-2.6c-.4,0-.64-.24-.64-.64v-.44c-.79.92-2,1.5-3.3,1.5-2.79,0-4.51-2.42-4.51-6.42Zm7.44,2.07v-4.14c-.35-.68-.92-1.08-1.56-1.08-.99,0-1.54,1.12-1.54,3.19s.53,3.1,1.5,3.1c.68,0,1.25-.4,1.61-1.08Z"/>
    <path class="cls-2" d="m183.51,140.49c0-3.98,2.29-6.42,6.07-6.42,3.46,0,5.48,2.27,5.48,6.03,0,.35-.02.75-.09,1.14-.04.37-.29.57-.66.57h-6.49c.33,1.25,1.21,1.91,2.62,1.91.64,0,1.43-.18,2.09-.46.37-.15.64-.09.88.22l.9,1.23c.22.33.2.64-.11.86-1.19.86-2.95,1.34-4.62,1.34-3.78,0-6.07-2.42-6.07-6.42Zm7.48-1.14c-.02-1.47-.59-2.33-1.54-2.33s-1.56.79-1.76,2.33h3.3Z"/>
    <path class="cls-2" d="m196.09,140.49c0-3.98,1.78-6.4,4.73-6.4.97,0,1.98.44,2.71,1.14v-4.55c0-.4.24-.64.64-.64h2.97c.4,0,.64.24.64.64v15.18c0,.4-.24.64-.64.64h-2.6c-.4,0-.64-.24-.64-.64v-.44c-.79.92-2,1.5-3.3,1.5-2.79,0-4.51-2.42-4.51-6.42Zm7.44,2.07v-4.14c-.35-.68-.92-1.08-1.56-1.08-.99,0-1.54,1.12-1.54,3.19s.53,3.1,1.5,3.1c.68,0,1.25-.4,1.61-1.08Z"/>
    <path class="cls-2" d="m214.18,140.49c0-3.98,1.78-6.4,4.73-6.4.97,0,1.98.44,2.71,1.14v-4.55c0-.4.24-.64.64-.64h2.97c.4,0,.64.24.64.64v15.18c0,.4-.24.64-.64.64h-2.6c-.4,0-.64-.24-.64-.64v-.44c-.79.92-2,1.5-3.3,1.5-2.79,0-4.51-2.42-4.51-6.42Zm7.44,2.07v-4.14c-.35-.68-.92-1.08-1.56-1.08-.99,0-1.54,1.12-1.54,3.19s.53,3.1,1.5,3.1c.68,0,1.25-.4,1.61-1.08Z"/>
    <path class="cls-2" d="m238.29,135.12v10.74c0,.4-.24.64-.64.64h-2.66c-.4,0-.64-.24-.64-.64v-.81c-.73,1.19-2.07,1.87-3.34,1.87-2.02,0-3.32-1.45-3.32-3.65v-8.14c0-.4.22-.62.64-.62h2.95c.42,0,.64.22.64.62v7.39c0,.75.31,1.14.86,1.14.51,0,.97-.33,1.28-.92v-7.61c0-.4.24-.62.64-.62h2.97c.4,0,.64.22.64.62Z"/>
    <path class="cls-2" d="m248.26,135.01l-.42,2.86c-.07.42-.31.57-.66.51-.2-.04-.4-.07-.59-.07-.99,0-1.8.66-2.16,1.69v5.85c0,.4-.24.64-.64.64h-2.95c-.42,0-.64-.24-.64-.64v-10.74c0-.4.22-.62.64-.62h2.77c.4,0,.64.22.64.62v.99c.57-1.28,1.58-2.05,2.73-2.05.29,0,.62.07.88.15.35.11.44.42.4.79Z"/>
    <path class="cls-2" d="m249.07,132.5v-1.83c0-.4.22-.64.64-.64h3.01c.4,0,.64.24.64.64v1.83c0,.42-.24.64-.64.64h-3.01c-.42,0-.64-.22-.64-.64Zm.02,13.36v-10.74c0-.4.24-.62.64-.62h2.97c.4,0,.62.22.62.62v10.74c0,.4-.22.64-.62.64h-2.97c-.4,0-.64-.24-.64-.64Z"/>
    <path class="cls-2" d="m266.01,137.74v8.12c0,.4-.24.64-.64.64h-2.97c-.4,0-.62-.24-.62-.64v-7.39c0-.7-.33-1.1-.88-1.1s-1.08.42-1.41,1.12v7.37c0,.4-.24.64-.64.64h-2.95c-.42,0-.64-.24-.64-.64v-10.74c0-.4.22-.62.64-.62h2.77c.4,0,.64.22.64.62v.84c.7-1.17,2.07-1.89,3.34-1.89,2.02,0,3.34,1.5,3.34,3.67Z"/>
    <path class="cls-2" d="m268.98,150.98c-.33-.15-.42-.44-.37-.79l.26-1.78c.07-.44.35-.59.79-.42,1.1.44,2.24.75,3.1.75,1.36,0,2.16-.55,2.16-2.09v-1.17c-.75.9-2,1.43-3.32,1.43-2.57,0-4.16-2.42-4.16-6.42s1.78-6.4,4.73-6.4c1.14,0,2.29.57,3.06,1.47v-.44c0-.4.22-.62.62-.62h2.66c.42,0,.64.22.64.62v11.27c0,3.63-2.09,5.5-6.09,5.5-1.43,0-2.99-.35-4.07-.9Zm5.94-8.49v-4c-.37-.7-.95-1.14-1.61-1.14-.99,0-1.54,1.12-1.54,3.19s.53,3.1,1.5,3.1c.68,0,1.28-.4,1.65-1.14Z"/>
    <path class="cls-2" d="m119.94,172.15c-.31-.26-.31-.57-.09-.88l1.21-1.78c.24-.33.55-.35.9-.11.4.29.84.44,1.21.44.95,0,1.41-.66,1.41-1.76v-7.19h-3.15c-.4,0-.62-.22-.62-.64v-2.07c0-.4.22-.64.62-.64h6.91c.4,0,.64.24.64.64l-.02,9.77c-.02,3.23-2.18,5.39-5.39,5.39-1.32,0-2.71-.46-3.63-1.17Z"/>
    <path class="cls-2" d="m141,164.51v7.75c0,.4-.22.64-.64.64h-2.6c-.4,0-.62-.24-.62-.64v-.35c-.86.88-2.13,1.41-3.3,1.41-2.11,0-3.52-1.52-3.52-3.78s1.87-3.78,4.67-3.78h1.89v-.68c0-.99-.64-1.41-1.92-1.41-.59,0-1.32.15-1.91.42-.35.18-.64.13-.88-.2l-1.01-1.41c-.24-.35-.18-.68.18-.88,1.25-.68,2.93-1.12,4.36-1.12,3.48,0,5.3,1.39,5.3,4.05Zm-4.11,3.28h-1.21c-.77,0-1.21.48-1.21,1.36,0,.73.4,1.17,1.03,1.17.55,0,1.06-.31,1.39-.86v-1.67Z"/>
    <path class="cls-2" d="m153.58,164.14v8.12c0,.4-.24.64-.64.64h-2.97c-.4,0-.62-.24-.62-.64v-7.39c0-.7-.33-1.1-.88-1.1s-1.08.42-1.41,1.12v7.37c0,.4-.24.64-.64.64h-2.95c-.42,0-.64-.24-.64-.64v-10.74c0-.4.22-.62.64-.62h2.77c.4,0,.64.22.64.62v.84c.7-1.17,2.07-1.89,3.34-1.89,2.02,0,3.34,1.5,3.34,3.67Z"/>
    <path class="cls-2" d="m165.94,161.52v10.74c0,.4-.24.64-.64.64h-2.66c-.4,0-.64-.24-.64-.64v-.81c-.73,1.19-2.07,1.87-3.34,1.87-2.02,0-3.32-1.45-3.32-3.65v-8.14c0-.4.22-.62.64-.62h2.95c.42,0,.64.22.64.62v7.39c0,.75.31,1.14.86,1.14.51,0,.97-.33,1.28-.92v-7.61c0-.4.24-.62.64-.62h2.97c.4,0,.64.22.64.62Z"/>
    <path class="cls-2" d="m177.96,164.51v7.75c0,.4-.22.64-.64.64h-2.6c-.4,0-.62-.24-.62-.64v-.35c-.86.88-2.13,1.41-3.3,1.41-2.11,0-3.52-1.52-3.52-3.78s1.87-3.78,4.66-3.78h1.89v-.68c0-.99-.64-1.41-1.91-1.41-.59,0-1.32.15-1.91.42-.35.18-.64.13-.88-.2l-1.01-1.41c-.24-.35-.18-.68.18-.88,1.25-.68,2.93-1.12,4.36-1.12,3.48,0,5.3,1.39,5.3,4.05Zm-4.11,3.28h-1.21c-.77,0-1.21.48-1.21,1.36,0,.73.4,1.17,1.03,1.17.55,0,1.06-.31,1.39-.86v-1.67Z"/>
    <path class="cls-2" d="m187.86,161.41l-.42,2.86c-.07.42-.31.57-.66.51-.2-.04-.4-.07-.59-.07-.99,0-1.8.66-2.16,1.69v5.85c0,.4-.24.64-.64.64h-2.95c-.42,0-.64-.24-.64-.64v-10.74c0-.4.22-.62.64-.62h2.77c.4,0,.64.22.64.62v.99c.57-1.28,1.58-2.05,2.73-2.05.29,0,.62.07.88.15.35.11.44.42.4.79Z"/>
    <path class="cls-2" d="m199.74,161.61l-3.59,11.79c-.92,3.1-3.06,4.62-6.89,4.86-.4.02-.64-.18-.7-.57l-.24-1.65c-.09-.4.13-.64.55-.7,2.31-.31,3.28-1.03,3.61-2.44h-1.01c-.35,0-.62-.18-.73-.55l-3.06-10.74c-.11-.42.09-.7.55-.7h3.15c.37,0,.59.15.68.55l1.54,7.83,1.78-7.83c.09-.37.33-.55.7-.55h3.12c.44,0,.66.29.53.7Z"/>
    <path class="cls-2" d="m212.25,165.72v1.8c0,.4-.22.64-.62.64h-6.16c-.4,0-.64-.24-.64-.64v-1.8c0-.4.24-.64.64-.64h6.16c.4,0,.62.24.62.64Z"/>
    <path class="cls-2" d="m217.95,172.15c-.31-.26-.31-.57-.09-.88l1.21-1.78c.24-.33.55-.35.9-.11.4.29.84.44,1.21.44.95,0,1.41-.66,1.41-1.76v-7.19h-3.15c-.4,0-.62-.22-.62-.64v-2.07c0-.4.22-.64.62-.64h6.91c.4,0,.64.24.64.64l-.02,9.77c-.02,3.23-2.18,5.39-5.39,5.39-1.32,0-2.71-.46-3.63-1.17Z"/>
    <path class="cls-2" d="m239.42,161.52v10.74c0,.4-.24.64-.64.64h-2.66c-.4,0-.64-.24-.64-.64v-.81c-.73,1.19-2.07,1.87-3.34,1.87-2.02,0-3.32-1.45-3.32-3.65v-8.14c0-.4.22-.62.64-.62h2.95c.42,0,.64.22.64.62v7.39c0,.75.31,1.14.86,1.14.51,0,.97-.33,1.28-.92v-7.61c0-.4.24-.62.64-.62h2.97c.4,0,.64.22.64.62Z"/>
    <path class="cls-2" d="m241.25,172.26v-15.18c0-.4.22-.64.64-.64h2.95c.42,0,.64.24.64.64v15.18c0,.4-.22.64-.64.64h-2.95c-.42,0-.64-.24-.64-.64Z"/>
    <path class="cls-2" d="m258.14,161.61l-3.59,11.79c-.92,3.1-3.06,4.62-6.89,4.86-.4.02-.64-.18-.7-.57l-.24-1.65c-.09-.4.13-.64.55-.7,2.31-.31,3.28-1.03,3.61-2.44h-1.01c-.35,0-.62-.18-.73-.55l-3.06-10.74c-.11-.42.09-.7.55-.7h3.15c.37,0,.59.15.68.55l1.54,7.83,1.78-7.83c.09-.37.33-.55.7-.55h3.12c.44,0,.66.29.53.7Z"/>
    <path class="cls-2" d="m273.43,170.36v1.89c0,.4-.24.64-.64.64h-9.11c-.4,0-.64-.24-.64-.64v-1.8c0-.33.11-.55.33-.79,2.33-2.27,5.7-5.15,5.7-7.64,0-.99-.62-1.65-1.52-1.65-.79,0-1.78.44-2.66,1.21-.33.26-.64.26-.9-.07l-1.1-1.32c-.24-.29-.26-.59-.02-.88,1.39-1.56,3.3-2.22,5.06-2.22,3.26,0,5.43,1.74,5.43,4.38s-1.76,5.06-5.02,8.25h4.44c.4,0,.64.22.64.64Z"/>
    <path class="cls-2" d="m286.81,165.22c0,5.26-2.09,8.1-6.05,8.1s-6.05-2.84-6.05-8.1,2.09-8.12,6.05-8.12,6.05,2.84,6.05,8.12Zm-4.31,0c0-3.41-.51-4.75-1.74-4.75s-1.74,1.34-1.74,4.75.51,4.73,1.74,4.73,1.74-1.34,1.74-4.73Z"/>
    <path class="cls-2" d="m298.07,170.36v1.89c0,.4-.24.64-.64.64h-9.11c-.4,0-.64-.24-.64-.64v-1.8c0-.33.11-.55.33-.79,2.33-2.27,5.7-5.15,5.7-7.64,0-.99-.62-1.65-1.52-1.65-.79,0-1.78.44-2.66,1.21-.33.26-.64.26-.9-.07l-1.1-1.32c-.24-.29-.26-.59-.02-.88,1.39-1.56,3.3-2.22,5.06-2.22,3.26,0,5.43,1.74,5.43,4.38s-1.76,5.06-5.02,8.25h4.44c.4,0,.64.22.64.64Z"/>
    <path class="cls-2" d="m298.89,171.77c-.31-.24-.33-.57-.07-.88l1.21-1.45c.24-.33.55-.33.9-.09.7.51,1.58.81,2.38.81,1.14,0,1.98-.59,1.98-1.85s-.86-1.94-2.4-1.94h-.86c-.4,0-.66-.22-.66-.64v-.59c0-.33.07-.55.29-.77l3.12-3.7h-4.93c-.4,0-.62-.22-.62-.64v-1.89c0-.4.22-.64.62-.64h8.85c.4,0,.62.24.62.64v1.61c0,.33-.09.55-.29.79l-3.19,3.78c2.42.37,3.76,1.91,3.76,4.25,0,2.99-2.51,4.73-5.63,4.73-1.91,0-3.78-.57-5.08-1.54Z"/>
  </g>
  <g>
    <polygon class="cls-7" points="18.84 265.81 140.11 265.81 140.11 417.82 18.84 417.82 18.84 265.81 18.84 265.81"/>
    <polygon class="cls-3" points="25.2 269.53 136.15 269.53 136.15 407.86 25.2 407.86 25.2 269.53 25.2 269.53"/>
    <polygon class="cls-3" points="25.2 269.53 136.15 269.53 136.15 412.66 25.2 412.66 25.2 269.53 25.2 269.53"/>
    <path class="cls-7" d="m58.32,340.62h0c4.2-8.5,11.36-11.08,22.91-11.08,13.86,0,21.01,4.55,23.12,11.46-24.82.38-46.03-.38-46.03-.38"/>
    <path class="cls-7" d="m76.32,288.16h0c-5.83,1.6-5.63,4.57-7.53,7.55-1.84,2.78-6.28,4.72-6.68,6.74-.65,1.93,1.25,5.9-.85,8.11-2.09,2.36-2.94,3.35-2.09,5.71.85,2.17,2.74,5.75,2.94,6.13.2.61,2.49,3.96,5.43,4.39,2.94.38,8.37,1.18,10.87,2.36,2.74,1.18,11.51-1.37,16.35-1.18,4.79,0,8.17-3.35,7.93-5.57-.4-2.17,3.59-6.7,3.59-10.47-.2-4.15-5.23-7.31-6.48-10.09-1.5-2.59.2-7.55-5.03-10.28-3.14-1.79-5.43-1.6-7.98-2.41-2.49-.8-6.68-1.98-10.47-.99"/>
    <path class="cls-5" d="m83.6,336.26h0c-1.25,1.8-2.3,1.98-3.75,0-1.05-1.56-3.4-5.15-3.4-6.76v-17.62c0-1.8,1.5-3.35,3.4-3.35h3.75c1.9,0,3.35,1.56,3.35,3.35v17.62c0,1.61-2.1,4.96-3.35,6.76"/>
    <path class="cls-5" d="m83.6,308.53h-3.75c-1.9,0-3.4,1.55-3.4,3.34v15.6c4.2,1.17,8.01-1.22,10.51-4.18v-11.42c0-1.79-1.45-3.34-3.35-3.34"/>
    <path class="cls-5" d="m92.83,308.68h0c0,8.08-5.05,14.57-11.34,14.57s-11.29-6.48-11.29-14.57,5-14.43,11.29-14.43,11.34,6.53,11.34,14.43"/>
    <path class="cls-7" d="m86.63,297.2h0c-7.06,11.29-17.51,10.3-17.51,10.3,0,0,.2-15.01,8.56-15.81s13.13,2.35,15.02,7.48c1.69,5.13,0,8.7,0,8.7,0,0-2.69-1.98-4.18-5.32-1.24-3.15-1.89-5.36-1.89-5.36"/>
    <path class="cls-5" d="m71.39,308.71h0c1.04,2.15.6,4.3-.85,5.09-1.44.56-3.53-.61-4.58-2.76-1.04-1.96-.65-4.3.85-4.91,1.44-.61,3.53.61,4.58,2.57"/>
    <path class="cls-5" d="m91.24,308.71h0c-.99,2.15-.6,4.3.85,5.09,1.49.56,3.58-.61,4.63-2.76,1.04-1.96.6-4.3-.85-4.91-1.49-.61-3.58.61-4.63,2.57"/>
    <path class="cls-7" d="m95.02,363.81h-28.44c-1.89,0-3.34-1.43-3.34-3.24s1.44-3.19,3.34-3.19h28.44c1.89,0,3.34,1.43,3.34,3.19s-1.44,3.24-3.34,3.24"/>
    <path class="cls-7" d="m100.29,373.41h-38.98c-1.65,0-3.34-1.38-3.34-3.19,0-1.62,1.7-3,3.34-3h38.98c1.9,0,3.34,1.38,3.34,3,0,1.81-1.45,3.19-3.34,3.19"/>
    <path class="cls-7" d="m124.16,383.15H40.44c-.93,0-1.68-.42-1.68-.95s.75-.95,1.68-.95h83.72c.93,0,1.68.42,1.68.95s-.75.95-1.68.95"/>
    <path class="cls-7" d="m123.56,392.87H39.84c-.93,0-1.68-.48-1.68-1.08,0-.68.75-1.17,1.68-1.17h83.72c.93,0,1.68.48,1.68,1.17,0,.6-.75,1.08-1.68,1.08"/>
    <path class="cls-7" d="m124.15,402.1H39.85c-.93,0-1.69-.51-1.69-1.17s.76-1.2,1.69-1.2h84.3c.93,0,1.69.54,1.69,1.2s-.76,1.17-1.69,1.17"/>
    <path class="cls-7" d="m114.81,342.81H46.54c-1.85,0-3.34-1.6-3.34-3.39v-59.29c0-1.79,1.5-3.16,3.34-3.16h68.27c1.89,0,3.34,1.37,3.34,3.16v59.29c0,1.79-1.45,3.39-3.34,3.39h0Zm-68.27-63.24h0c-.2,0-.6.38-.6.57v59.29c0,.42.4.61.6.61h68.27c.4,0,.6-.19.6-.61v-59.29c0-.19-.2-.57-.6-.57H46.54Z"/>
    <polygon class="cls-7" points="289.32 265.81 410.71 265.81 410.71 417.82 289.32 417.82 289.32 265.81 289.32 265.81"/>
    <polygon class="cls-3" points="295.68 269.53 406.75 269.53 406.75 412.66 295.68 412.66 295.68 269.53 295.68 269.53"/>
    <path class="cls-7" d="m334.2,307.93h0c0,8.32,5.44,22.03,18,21.61,12.77-.57,15.46-13.47,16.11-17.26.4-3.55-34.11-4.35-34.11-4.35"/>
    <path class="cls-7" d="m328.92,340.62h0c4.2-8.5,11.29-11.08,22.83-11.08,13.84,0,21.18,4.55,23.08,11.46-24.73.38-45.91-.38-45.91-.38"/>
    <path class="cls-5" d="m354.03,336.26h0c-1.25,1.8-2.3,1.98-3.75,0-1.05-1.56-3.35-5.15-3.35-6.76v-17.62c0-1.8,1.65-3.35,3.35-3.35h3.75c1.9,0,3.4,1.56,3.4,3.35v17.62c0,1.61-2.1,4.96-3.4,6.76"/>
    <path class="cls-5" d="m354.03,308.53h-3.75c-1.7,0-3.35,1.55-3.35,3.34v15.6c4.2,1.17,8.16-1.22,10.51-4.18v-11.42c0-1.79-1.5-3.34-3.4-3.34"/>
    <path class="cls-5" d="m363.43,308.68h0c0,8.08-5.05,14.57-11.29,14.57s-11.34-6.48-11.34-14.57,5.25-14.43,11.34-14.43,11.29,6.53,11.29,14.43"/>
    <path class="cls-7" d="m358.42,297.98h0c-1.25,4.35-4.14,4.35-8.33,5.77-4.19,1.56-6.09,2.98-7.33,5.96-1.7,3.55.6,14.29.6,14.29,0,0-10.23-7.33-8.98-19.06,1.05-11.54,8.38-16.08,15.07-16.08s9.43,3.97,9.43,3.97c0,0,3.54,0,6.89,3.97,4.64,5.16,3.14,17.65,0,22.04-3.14,4.54-5.19,5.96-5.19,5.72.2-.19,2.89-10.5,1.45-16.84-1.45-6.39-3.59-9.74-3.59-9.74"/>
    <path class="cls-7" d="m365.37,363.81h-28.5c-1.65,0-3.14-1.43-3.14-3.24s1.5-3.19,3.14-3.19h28.5c1.9,0,3.34,1.43,3.34,3.19s-1.45,3.24-3.34,3.24"/>
    <path class="cls-7" d="m370.88,373.41h-38.84c-1.9,0-3.35-1.38-3.35-3.19,0-1.62,1.45-3,3.35-3h38.84c1.9,0,3.35,1.38,3.35,3,0,1.81-1.45,3.19-3.35,3.19"/>
    <path class="cls-7" d="m399.27,385.65h-94.73c-1.05,0-1.89-.79-1.89-1.78s.85-1.78,1.89-1.78h94.73c1.05,0,1.84.79,1.84,1.78s-.8,1.78-1.84,1.78"/>
    <path class="cls-7" d="m398.79,394.53h-94.85c-1.05,0-1.9-.79-1.9-1.77,0-1.12.85-1.91,1.9-1.91h94.85c1.05,0,1.85.79,1.85,1.91,0,.98-.8,1.77-1.85,1.77"/>
    <path class="cls-7" d="m398.79,402.45h-94.85c-1.05,0-1.9-.73-1.9-1.69s.85-1.74,1.9-1.74h94.85c1.05,0,1.85.78,1.85,1.74s-.8,1.69-1.85,1.69"/>
    <path class="cls-7" d="m385.33,342.81h-67.94c-1.89,0-3.59-1.6-3.59-3.39v-59.29c0-1.79,1.69-3.16,3.59-3.16h67.94c1.89,0,3.54,1.37,3.54,3.16v59.29c0,1.79-1.64,3.39-3.54,3.39h0Zm-67.94-63.24h0c-.45,0-.65.38-.65.57v59.29c0,.42.2.61.65.61h67.94c.4,0,.65-.19.65-.61v-59.29c0-.19-.25-.57-.65-.57h-67.94Z"/>
    <path class="cls-6" d="m289.27,266.65h-1.86c0,1.77-.25,3.49-.25,5.25s.25,3.53.25,5.25l1.86.6v-11.11"/>
    <polygon class="cls-7" points="131.64 233.41 297.19 233.41 297.19 430.06 131.64 430.06 131.64 233.41 131.64 233.41"/>
    <polygon class="cls-3" points="140.16 236.65 291.67 236.65 291.67 424.54 140.16 424.54 140.16 236.65 140.16 236.65"/>
    <path class="cls-7" d="m202.02,287.61h0c-.2-.24-2.74-14.71-3.14-20.29-.4-5.53,9.41-6.53,9.41-6.53,0,0,8.16-3.97,13.99-1.99,5.63,2.18,9.61,5.77,12.35,10.12,2.69,4.35-2.29,18.26-2.29,18.26l-30.32.43"/>
    <path class="cls-7" d="m183.68,333.78h0c-.2-.24.6-5.94.6-6.13,1.3-11.88,16.97-15.27,32.49-15.27,18.22,0,30.6,3.16,32.69,15.65,0,.19,1.05,5.94,1.05,6.32-33.94.42-66.83-.57-66.83-.57"/>
    <path class="cls-5" d="m220.07,321.55h0c-1.89,2.54-3.13,2.54-5.21,0-1.44-2.21-6.65-6.92-6.65-9.32l2.08-23.9c0-2.54,2.08-4.52,4.57-4.52h5.21c2.48,0,4.57,1.98,4.57,4.52l1.04,23.9c0,2.4-3.92,6.92-5.61,9.32"/>
    <path class="cls-5" d="m219.86,283.81h-5.21c-2.48,0-4.56,1.98-4.56,4.52l-1.89,21.17c5.81,1.74,13.55-1.79,16.87-5.55l-.65-15.62c0-2.54-2.08-4.52-4.56-4.52"/>
    <polyline class="cls-5" points="209.28 320.57 215.39 324.27 213.49 334.53 221.69 334.11 219.59 324.88 224.59 320.57 222.29 318.37 211.58 318.37 209.28 320.57"/>
    <path class="cls-7" d="m208.43,306.87h0l-7.54,6.91s7.74,12.83,8.19,12.83c.4,0,6.49-7.1,6.49-7.1l3.75-.23,6.29,6.16,7.14-11.85-7.34-7.33s-6.29,11.28-7.34,11.66c-1.05.19-1.05.38-2.1-.38-.85-.61-7.54-10.67-7.54-10.67"/>
    <path class="cls-5" d="m232.75,284.36h0c0,10.89-6.94,19.8-15.27,19.8s-15.52-8.91-15.52-19.8,6.94-19.99,15.52-19.99,15.27,8.91,15.27,19.99"/>
    <path class="cls-5" d="m203.5,283.83h0c1.29,2.97.84,5.94-.99,6.93-2.14.8-4.82-.8-6.26-3.58-1.49-2.97-1.04-5.94,1.04-6.93,1.84-.75,4.77.8,6.21,3.58"/>
    <path class="cls-5" d="m230.57,283.83h0c-1.25,2.97-.85,5.94,1.05,6.93,2.1.8,4.79-.8,6.29-3.58,1.45-2.97,1.05-5.94-1.05-6.93-1.9-.75-4.84.8-6.29,3.58"/>
    <path class="cls-7" d="m208.28,270.69h0c6.48-4.13,9.22-3.38,14,3.52,4.83,6.9,10.46,6.9,10.46,6.9l.85-7.09s-7.13-13-16.74-11.22c-9.42,1.78-14.85,9.86-14.85,9.86,0,0-.4,14.98.85,15.54,1.45.61,1.45-4.93,2.49-5.92.85-1.17-1.05-6.29.2-8.64,1.25-2.39,2.74-2.96,2.74-2.96"/>
    <path class="cls-7" d="m228.84,278.41h0c2.27,2.36,1.48,11.47,2.52,11.28,1.24,0,1.63-8.73,1.24-9.54-.2-.99-3.76-1.75-3.76-1.75"/>
    <path class="cls-7" d="m251.68,365.01h-70.77c-2.49,0-4.39-1.97-4.39-4.31s1.9-4.17,4.39-4.17h70.77c2.49,0,4.59,1.78,4.59,4.17s-2.09,4.31-4.59,4.31"/>
    <path class="cls-7" d="m242.87,378.21h-53.2c-2.3,0-4.39-1.98-4.39-4.14,0-2.4,2.1-4.33,4.39-4.33h53.2c2.55,0,4.64,1.93,4.64,4.33,0,2.17-2.1,4.14-4.64,4.14"/>
    <path class="cls-7" d="m280.77,389.37h-128.99c-1.49,0-2.74-1.19-2.74-2.57s1.25-2.42,2.74-2.42h128.99c1.49,0,2.74,1,2.74,2.42s-1.25,2.57-2.74,2.57"/>
    <path class="cls-7" d="m280.77,401.01h-128.99c-1.49,0-2.74-1-2.74-2.42s1.25-2.57,2.74-2.57h128.99c1.49,0,2.74,1.19,2.74,2.57s-1.25,2.42-2.74,2.42"/>
    <path class="cls-7" d="m280.77,414.33h-128.99c-1.49,0-2.74-1-2.74-2.38s1.25-2.62,2.74-2.62h128.99c1.49,0,2.74,1.19,2.74,2.62s-1.25,2.38-2.74,2.38"/>
    <path class="cls-7" d="m262.88,336.21h-93.2c-2.35,0-4.19-1.79-4.19-3.96v-81.19c0-2.17,1.85-3.96,4.19-3.96h93.2c2.35,0,4.19,1.79,4.19,3.96v81.19c0,2.17-1.85,3.96-4.19,3.96h0Zm-93.2-86.52h0c-.85,0-1.5.57-1.5,1.37v81.19c0,.61.65,1.18,1.5,1.18h93.2c.65,0,1.3-.57,1.3-1.18v-81.19c0-.8-.65-1.37-1.3-1.37h-93.2Z"/>
  </g>
</svg>