<svg class="main-svg" xmlns="http://www.w3.org/2000/svg" xmlns:xlink="http://www.w3.org/1999/xlink" width="800" height="600" style="" viewBox="0 0 800 600"><rect x="0" y="0" width="800" height="600" style="fill: rgb(255, 255, 255); fill-opacity: 1;"/><defs id="defs-7f8568"><g class="clips"><clipPath id="clip7f8568xyplot" class="plotclip"><rect width="751" height="564"/></clipPath><clipPath class="axesclip" id="clip7f8568x"><rect x="49" y="0" width="751" height="600"/></clipPath><clipPath class="axesclip" id="clip7f8568y"><rect x="0" y="20" width="800" height="564"/></clipPath><clipPath class="axesclip" id="clip7f8568xy"><rect x="49" y="20" width="751" height="564"/></clipPath></g><g class="gradients"/><g class="patterns"/></defs><g class="bglayer"/><g class="layer-below"><g class="imagelayer"/><g class="shapelayer"/></g><g class="cartesianlayer"><g class="subplot xy"><g class="layer-subplot"><g class="shapelayer"/><g class="imagelayer"/></g><g class="minor-gridlayer"><g class="x"/><g class="y"/></g><g class="gridlayer"><g class="x"><path class="xgrid crisp" transform="translate(89.68,0)" d="M0,20v564" style="stroke: rgb(235, 240, 248); stroke-opacity: 1; stroke-width: 1px;"/><path class="xgrid crisp" transform="translate(211.41,0)" d="M0,20v564" style="stroke: rgb(235, 240, 248); stroke-opacity: 1; stroke-width: 1px;"/><path class="xgrid crisp" transform="translate(333.13,0)" d="M0,20v564" style="stroke: rgb(235, 240, 248); stroke-opacity: 1; stroke-width: 1px;"/><path class="xgrid crisp" transform="translate(455.18,0)" d="M0,20v564" style="stroke: rgb(235, 240, 248); stroke-opacity: 1; stroke-width: 1px;"/><path class="xgrid crisp" transform="translate(576.9,0)" d="M0,20v564" style="stroke: rgb(235, 240, 248); stroke-opacity: 1; stroke-width: 1px;"/><path class="xgrid crisp" transform="translate(698.62,0)" d="M0,20v564" style="stroke: rgb(235, 240, 248); stroke-opacity: 1; stroke-width: 1px;"/></g><g class="y"><path class="ygrid crisp" transform="translate(0,545.42)" d="M49,0h751" style="stroke: rgb(235, 240, 248); stroke-opacity: 1; stroke-width: 1px;"/><path class="ygrid crisp" transform="translate(0,441.62)" d="M49,0h751" style="stroke: rgb(235, 240, 248); stroke-opacity: 1; stroke-width: 1px;"/><path class="ygrid crisp" transform="translate(0,337.81)" d="M49,0h751" style="stroke: rgb(235, 240, 248); stroke-opacity: 1; stroke-width: 1px;"/><path class="ygrid crisp" transform="translate(0,234.01)" d="M49,0h751" style="stroke: rgb(235, 240, 248); stroke-opacity: 1; stroke-width: 1px;"/><path class="ygrid crisp" transform="translate(0,130.2)" d="M49,0h751" style="stroke: rgb(235, 240, 248); stroke-opacity: 1; stroke-width: 1px;"/><path class="ygrid crisp" transform="translate(0,26.4)" d="M49,0h751" style="stroke: rgb(235, 240, 248); stroke-opacity: 1; stroke-width: 1px;"/></g></g><g class="zerolinelayer"/><path class="xlines-below"/><path class="ylines-below"/><g class="overlines-below"/><g class="xaxislayer-below"/><g class="yaxislayer-below"/><g class="overaxes-below"/><g class="plot" transform="translate(49,20)" clip-path="url(#clip7f8568xyplot)"><g class="scatterlayer mlayer"><g class="trace scatter trace96cb9c" style="stroke-miterlimit: 2; opacity: 1;"><g class="fills"/><g class="errorbars"/><g class="lines"><path class="js-line" d="M0,421.62L20.34,421.62L30.35,412.27L51.02,412.27L60.36,393.59L80.7,393.59L91.04,407.08L111.38,407.08L121.72,401.89L142.06,401.89L152.07,393.59L172.74,393.59L182.08,399.82L202.42,399.82L212.76,417.46L233.1,417.46L243.44,424.73L263.78,424.73L273.79,430.96L294.46,430.96L304.13,417.46L324.48,417.46L334.82,443.41L355.16,443.41L365.5,450.68L385.84,450.68L395.84,528.53L416.52,528.53L425.86,535.8L446.2,535.8L456.54,503.62L476.88,503.62L487.22,501.54L497.22,505.7L507.56,496.35L517.56,493.24L527.9,494.28L538.24,497.39L547.58,498.43L557.91,503.62L567.92,501.54L578.26,476.63L588.26,466.25L598.6,452.76L608.94,496.35L618.94,392.55L629.28,394.63L639.28,352.07L649.62,346.88L659.96,346.88L669.3,347.92L679.63,358.3L689.64,366.6L699.98,375.94L709.98,310.55L720.32,325.08L730.66,323L740.66,284.6L751,280.44" style="vector-effect: non-scaling-stroke; fill: none; stroke: rgb(0, 0, 139); stroke-opacity: 1; stroke-width: 2px; opacity: 1;"/></g><g class="points"/><g class="text"/></g><g class="trace scatter tracea11457" style="stroke-miterlimit: 2; opacity: 1;"><g class="fills"/><g class="errorbars"/><g class="lines"><path class="js-line" d="M0,421.62L10,425.77L20.34,420.58L30.35,413.31L40.68,415.39L51.02,415.39L60.36,412.27L70.7,410.2L80.7,407.08L91.04,401.89L101.04,403.97L111.38,408.12L121.72,403.97L131.73,402.93L142.06,400.86L152.07,398.78L162.41,402.93L172.74,402.93L182.08,400.86L202.42,405.01L212.76,403.97L222.77,403.97L233.1,408.12L243.44,402.93L253.45,401.89L263.78,401.89L273.79,399.82L284.13,398.78L294.46,394.63L304.13,395.67L314.47,395.67L324.48,398.78L334.82,393.59L355.16,389.44L365.5,389.44L375.5,387.36L385.84,383.21L395.84,383.21L406.18,374.9L416.52,385.28L425.86,386.32L436.19,395.67L446.2,382.17L456.54,373.87L466.54,368.68L476.88,345.84L487.22,335.46L497.22,333.38L507.56,308.47L517.56,279.4L527.9,260.72L538.24,241L547.58,217.12L557.91,190.13L567.92,173.53L578.26,149.65L588.26,132L598.6,117.47L608.94,110.2L618.94,103.98L629.28,102.94L639.28,90.48L649.62,84.25L659.96,82.18L669.3,79.06L689.64,66.61L699.98,63.49L709.98,54.15L720.32,53.11L730.66,43.77L740.66,40.66L751,28.2" style="vector-effect: non-scaling-stroke; fill: none; stroke: rgb(128, 0, 128); stroke-opacity: 1; stroke-width: 2px; opacity: 1;"/></g><g class="points"/><g class="text"/></g><g class="trace scatter trace7c25af" style="stroke-miterlimit: 2; opacity: 1;"><g class="fills"/><g class="errorbars"/><g class="lines"><path class="js-line" d="M0,421.62L20.34,421.62L30.35,439.26L51.02,439.26L60.36,378.02L80.7,378.02L91.04,401.89L111.38,401.89L121.72,390.47L142.06,390.47L152.07,406.05L172.74,406.05L182.08,396.7L202.42,396.7L212.76,401.89L233.1,401.89L243.44,370.75L263.78,370.75L273.79,391.51L294.46,391.51L304.13,387.36L324.48,387.36L334.82,396.7L355.16,396.7L365.5,403.97L385.84,403.97L395.84,419.54L416.52,419.54L425.86,402.93L446.2,402.93L456.54,406.05L476.88,406.05L487.22,393.59L497.22,419.54L507.56,394.63L517.56,370.75L527.9,360.37L538.24,339.61L547.58,338.57L557.91,340.65L567.92,371.79L578.26,335.46L588.26,225.43L598.6,209.86L608.94,205.7L618.94,241L629.28,211.93L639.28,167.3L649.62,62.46L659.96,50L669.3,45.85L679.63,45.85L689.64,75.95L699.98,86.33L709.98,54.15L720.32,48.96L730.66,46.88L740.66,82.18L751,51.04" style="vector-effect: non-scaling-stroke; fill: none; stroke: rgb(0, 191, 255); stroke-opacity: 1; stroke-width: 2px; opacity: 1;"/></g><g class="points"/><g class="text"/></g><g class="trace scatter trace02a974" style="stroke-miterlimit: 2; opacity: 1;"><g class="fills"/><g class="errorbars"/><g class="lines"><path class="js-line" d="M0,421.62L10,421.62L20.34,419.54L40.68,419.54L51.02,416.43L101.04,416.43L111.38,415.39L131.73,415.39L142.06,413.31L162.41,413.31L172.74,412.27L222.77,412.27L233.1,411.24L284.13,411.24L294.46,410.2L314.47,410.2L324.48,424.73L344.82,424.73L355.16,426.81L375.5,426.81L385.84,425.77L436.19,425.77L446.2,424.73L466.54,424.73L476.88,423.69L497.22,423.69L507.56,422.65L527.9,422.65L538.24,415.39L557.91,415.39L567.92,409.16L578.26,409.16L588.26,403.97L608.94,393.59L618.94,387.36L629.28,385.28L639.28,380.09L659.96,365.56L669.3,360.37L679.63,352.07L689.64,342.73L699.98,332.34L709.98,324.04L720.32,315.74L730.66,312.62L740.66,316.77L751,308.47" style="vector-effect: non-scaling-stroke; fill: none; stroke: rgb(138, 43, 226); stroke-opacity: 1; stroke-width: 2px; opacity: 1;"/></g><g class="points"/><g class="text"/></g></g></g><g class="overplot"/><path class="xlines-above crisp" d="M0,0" style="fill: none;"/><path class="ylines-above crisp" d="M0,0" style="fill: none;"/><g class="overlines-above"/><g class="xaxislayer-above"><g class="xtick"><text text-anchor="middle" x="0" y="597" transform="translate(89.68,0)" style="font-family: 'Open Sans', verdana, arial, sans-serif; font-size: 12px; fill: rgb(42, 63, 95); fill-opacity: 1; white-space: pre; opacity: 1;">2018</text></g><g class="xtick"><text text-anchor="middle" x="0" y="597" style="font-family: 'Open Sans', verdana, arial, sans-serif; font-size: 12px; fill: rgb(42, 63, 95); fill-opacity: 1; white-space: pre; opacity: 1;" transform="translate(211.41,0)">2019</text></g><g class="xtick"><text text-anchor="middle" x="0" y="597" style="font-family: 'Open Sans', verdana, arial, sans-serif; font-size: 12px; fill: rgb(42, 63, 95); fill-opacity: 1; white-space: pre; opacity: 1;" transform="translate(333.13,0)">2020</text></g><g class="xtick"><text text-anchor="middle" x="0" y="597" style="font-family: 'Open Sans', verdana, arial, sans-serif; font-size: 12px; fill: rgb(42, 63, 95); fill-opacity: 1; white-space: pre; opacity: 1;" transform="translate(455.18,0)">2021</text></g><g class="xtick"><text text-anchor="middle" x="0" y="597" style="font-family: 'Open Sans', verdana, arial, sans-serif; font-size: 12px; fill: rgb(42, 63, 95); fill-opacity: 1; white-space: pre; opacity: 1;" transform="translate(576.9,0)">2022</text></g><g class="xtick"><text text-anchor="middle" x="0" y="597" style="font-family: 'Open Sans', verdana, arial, sans-serif; font-size: 12px; fill: rgb(42, 63, 95); fill-opacity: 1; white-space: pre; opacity: 1;" transform="translate(698.62,0)">2023</text></g></g><g class="yaxislayer-above"><g class="ytick"><text text-anchor="end" x="48" y="4.199999999999999" transform="translate(0,545.42)" style="font-family: 'Open Sans', verdana, arial, sans-serif; font-size: 12px; fill: rgb(42, 63, 95); fill-opacity: 1; white-space: pre; opacity: 1;">90</text></g><g class="ytick"><text text-anchor="end" x="48" y="4.199999999999999" style="font-family: 'Open Sans', verdana, arial, sans-serif; font-size: 12px; fill: rgb(42, 63, 95); fill-opacity: 1; white-space: pre; opacity: 1;" transform="translate(0,441.62)">100</text></g><g class="ytick"><text text-anchor="end" x="48" y="4.199999999999999" style="font-family: 'Open Sans', verdana, arial, sans-serif; font-size: 12px; fill: rgb(42, 63, 95); fill-opacity: 1; white-space: pre; opacity: 1;" transform="translate(0,337.81)">110</text></g><g class="ytick"><text text-anchor="end" x="48" y="4.199999999999999" style="font-family: 'Open Sans', verdana, arial, sans-serif; font-size: 12px; fill: rgb(42, 63, 95); fill-opacity: 1; white-space: pre; opacity: 1;" transform="translate(0,234.01)">120</text></g><g class="ytick"><text text-anchor="end" x="48" y="4.199999999999999" style="font-family: 'Open Sans', verdana, arial, sans-serif; font-size: 12px; fill: rgb(42, 63, 95); fill-opacity: 1; white-space: pre; opacity: 1;" transform="translate(0,130.2)">130</text></g><g class="ytick"><text text-anchor="end" x="48" y="4.199999999999999" style="font-family: 'Open Sans', verdana, arial, sans-serif; font-size: 12px; fill: rgb(42, 63, 95); fill-opacity: 1; white-space: pre; opacity: 1;" transform="translate(0,26.4)">140</text></g></g><g class="overaxes-above"/></g></g><g class="polarlayer"/><g class="smithlayer"/><g class="ternarylayer"/><g class="geolayer"/><g class="funnelarealayer"/><g class="pielayer"/><g class="iciclelayer"/><g class="treemaplayer"/><g class="sunburstlayer"/><g class="glimages"/><defs id="topdefs-7f8568"><g class="clips"/><clipPath id="legend7f8568"><rect width="717" height="29" x="0" y="0"/></clipPath></defs><g class="layer-above"><g class="imagelayer"/><g class="shapelayer"/></g><g class="infolayer"><g class="legend" pointer-events="all" transform="translate(66,19.200000000000024)"><rect class="bg" shape-rendering="crispEdges" width="717" height="29" x="0" y="0" style="stroke: rgb(68, 68, 68); stroke-opacity: 1; fill: rgb(255, 255, 255); fill-opacity: 1; stroke-width: 0px;"/><g class="scrollbox" transform="" clip-path="url(#legend7f8568)"><g class="groups" transform=""><g class="traces" transform="translate(0,14.5)" style="opacity: 1;"><text class="legendtext" text-anchor="start" x="40" y="4.680000000000001" style="font-family: 'Open Sans', verdana, arial, sans-serif; font-size: 12px; fill: rgb(42, 63, 95); fill-opacity: 1; white-space: pre;">Electricity</text><g class="layers" style="opacity: 1;"><g class="legendfill"/><g class="legendlines"><path class="js-line" d="M5,0h30" style="fill: none; stroke: rgb(0, 0, 139); stroke-opacity: 1; stroke-width: 2px;"/></g><g class="legendsymbols"><g class="legendpoints"/></g></g><rect class="legendtoggle" x="0" y="-9.5" width="101.25" height="19" style="fill: rgb(0, 0, 0); fill-opacity: 0;"/></g></g><g class="groups" transform="translate(103.75,0)"><g class="traces" transform="translate(0,14.5)" style="opacity: 1;"><text class="legendtext" text-anchor="start" x="40" y="4.680000000000001" style="font-family: 'Open Sans', verdana, arial, sans-serif; font-size: 12px; fill: rgb(42, 63, 95); fill-opacity: 1; white-space: pre;">New dwelling purchase by owner-occupiers</text><g class="layers" style="opacity: 1;"><g class="legendfill"/><g class="legendlines"><path class="js-line" d="M5,0h30" style="fill: none; stroke: rgb(128, 0, 128); stroke-opacity: 1; stroke-width: 2px;"/></g><g class="legendsymbols"><g class="legendpoints"/></g></g><rect class="legendtoggle" x="0" y="-9.5" width="302.890625" height="19" style="fill: rgb(0, 0, 0); fill-opacity: 0;"/></g></g><g class="groups" transform="translate(409.140625,0)"><g class="traces" transform="translate(0,14.5)" style="opacity: 1;"><text class="legendtext" text-anchor="start" x="40" y="4.680000000000001" style="font-family: 'Open Sans', verdana, arial, sans-serif; font-size: 12px; fill: rgb(42, 63, 95); fill-opacity: 1; white-space: pre;">Gas and other household fuels</text><g class="layers" style="opacity: 1;"><g class="legendfill"/><g class="legendlines"><path class="js-line" d="M5,0h30" style="fill: none; stroke: rgb(0, 191, 255); stroke-opacity: 1; stroke-width: 2px;"/></g><g class="legendsymbols"><g class="legendpoints"/></g></g><rect class="legendtoggle" x="0" y="-9.5" width="226.328125" height="19" style="fill: rgb(0, 0, 0); fill-opacity: 0;"/></g></g><g class="groups" transform="translate(637.96875,0)"><g class="traces" transform="translate(0,14.5)" style="opacity: 1;"><text class="legendtext" text-anchor="start" x="40" y="4.680000000000001" style="font-family: 'Open Sans', verdana, arial, sans-serif; font-size: 12px; fill: rgb(42, 63, 95); fill-opacity: 1; white-space: pre;">Rents</text><g class="layers" style="opacity: 1;"><g class="legendfill"/><g class="legendlines"><path class="js-line" d="M5,0h30" style="fill: none; stroke: rgb(138, 43, 226); stroke-opacity: 1; stroke-width: 2px;"/></g><g class="legendsymbols"><g class="legendpoints"/></g></g><rect class="legendtoggle" x="0" y="-9.5" width="76.28125" height="19" style="fill: rgb(0, 0, 0); fill-opacity: 0;"/></g></g></g><rect class="scrollbar" rx="20" ry="3" width="0" height="0" x="0" y="0" style="fill: rgb(128, 139, 164); fill-opacity: 1;"/></g><g class="g-gtitle"/><g class="g-xtitle"/><g class="g-ytitle" transform="translate(13.6904296875,0)"><text class="ytitle" transform="rotate(-90,0.30937500000000284,302)" x="0.30937500000000284" y="302" text-anchor="middle" style="font-family: 'Open Sans', verdana, arial, sans-serif; font-size: 14px; fill: rgb(42, 63, 95); opacity: 1; font-weight: normal; white-space: pre;">Index</text></g><g class="annotation" data-index="0" style="opacity: 1;"><g class="annotation-text-g" transform="rotate(0,221.51,745.2)"><g class="cursor-pointer" transform="translate(57,737)"><rect class="bg" x="0.5" y="0.5" width="329" height="15" style="stroke-width: 1px; stroke: rgb(0, 0, 0); stroke-opacity: 0; fill: rgb(0, 0, 0); fill-opacity: 0;"/><text class="annotation-text" text-anchor="middle" x="164.921875" y="12" style="font-family: 'Open Sans', verdana, arial, sans-serif; font-size: 10px; fill: rgb(42, 63, 95); fill-opacity: 1; white-space: pre;">Data source: ABS API - Consumer Price Index: ABS,CPI_M,1.2.0</text></g></g></g></g></svg>