<svg class="main-svg" xmlns="http://www.w3.org/2000/svg" xmlns:xlink="http://www.w3.org/1999/xlink" width="800" height="600" style="" viewBox="0 0 800 600"><rect x="0" y="0" width="800" height="600" style="fill: rgb(255, 255, 255); fill-opacity: 1;"/><defs id="defs-eb72e3"><g class="clips"><clipPath id="clipeb72e3xyplot" class="plotclip"><rect width="620" height="564"/></clipPath><clipPath class="axesclip" id="clipeb72e3x"><rect x="45" y="0" width="620" height="600"/></clipPath><clipPath class="axesclip" id="clipeb72e3y"><rect x="0" y="20" width="800" height="564"/></clipPath><clipPath class="axesclip" id="clipeb72e3xy"><rect x="45" y="20" width="620" height="564"/></clipPath></g><g class="gradients"/><g class="patterns"/></defs><g class="bglayer"/><g class="layer-below"><g class="imagelayer"/><g class="shapelayer"/></g><g class="cartesianlayer"><g class="subplot xy"><g class="layer-subplot"><g class="shapelayer"/><g class="imagelayer"/></g><g class="minor-gridlayer"><g class="x"/><g class="y"/></g><g class="gridlayer"><g class="x"><path class="xgrid crisp" transform="translate(71.89,0)" d="M0,20v564" style="stroke: rgb(235, 240, 248); stroke-opacity: 1; stroke-width: 1px;"/><path class="xgrid crisp" transform="translate(195.94,0)" d="M0,20v564" style="stroke: rgb(235, 240, 248); stroke-opacity: 1; stroke-width: 1px;"/><path class="xgrid crisp" transform="translate(319.93,0)" d="M0,20v564" style="stroke: rgb(235, 240, 248); stroke-opacity: 1; stroke-width: 1px;"/><path class="xgrid crisp" transform="translate(443.92,0)" d="M0,20v564" style="stroke: rgb(235, 240, 248); stroke-opacity: 1; stroke-width: 1px;"/><path class="xgrid crisp" transform="translate(567.9,0)" d="M0,20v564" style="stroke: rgb(235, 240, 248); stroke-opacity: 1; stroke-width: 1px;"/></g><g class="y"><path class="ygrid crisp" transform="translate(0,546.3)" d="M45,0h620" style="stroke: rgb(235, 240, 248); stroke-opacity: 1; stroke-width: 1px;"/><path class="ygrid crisp" transform="translate(0,475.46)" d="M45,0h620" style="stroke: rgb(235, 240, 248); stroke-opacity: 1; stroke-width: 1px;"/><path class="ygrid crisp" transform="translate(0,404.61)" d="M45,0h620" style="stroke: rgb(235, 240, 248); stroke-opacity: 1; stroke-width: 1px;"/><path class="ygrid crisp" transform="translate(0,333.77)" d="M45,0h620" style="stroke: rgb(235, 240, 248); stroke-opacity: 1; stroke-width: 1px;"/><path class="ygrid crisp" transform="translate(0,262.93)" d="M45,0h620" style="stroke: rgb(235, 240, 248); stroke-opacity: 1; stroke-width: 1px;"/><path class="ygrid crisp" transform="translate(0,192.08)" d="M45,0h620" style="stroke: rgb(235, 240, 248); stroke-opacity: 1; stroke-width: 1px;"/><path class="ygrid crisp" transform="translate(0,121.24)" d="M45,0h620" style="stroke: rgb(235, 240, 248); stroke-opacity: 1; stroke-width: 1px;"/><path class="ygrid crisp" transform="translate(0,50.39)" d="M45,0h620" style="stroke: rgb(235, 240, 248); stroke-opacity: 1; stroke-width: 1px;"/></g></g><g class="zerolinelayer"/><path class="xlines-below"/><path class="ylines-below"/><g class="overlines-below"/><g class="xaxislayer-below"/><g class="yaxislayer-below"/><g class="overaxes-below"/><g class="plot" transform="translate(45,20)" clip-path="url(#clipeb72e3xyplot)"><g class="scatterlayer mlayer"><g class="trace scatter trace5c5aac" style="stroke-miterlimit: 2; opacity: 1;"><g class="fills"/><g class="errorbars"/><g class="lines"><path class="js-line" d="M0,470.5L4.21,491.49L6.11,504.82L8.22,512.04L10.25,513.3L14.39,485.3L16.5,481.45L18.6,482.96L20.64,487.61L22.75,476.45L24.78,459.59L26.89,455.46L28.99,457.67L30.96,465.2L33.07,456.89L35.1,451.09L37.21,452.83L39.25,452.75L41.35,461.02L45.49,480.68L47.6,482.92L49.64,478.67L51.74,479.79L53.85,470.9L55.75,470.44L57.85,469.91L59.89,473.57L61.99,477.25L64.03,477.96L66.14,488.31L68.24,482.22L70.28,482.51L72.38,471.47L76.52,457.98L78.63,466.05L82.63,487.55L84.67,498.51L86.78,514.84L88.81,514.1L90.92,502.62L93.02,483.31L95.06,484.43L97.17,477.55L99.2,482.21L101.31,484.63L105.31,473.18L107.42,463.71L111.56,481.34L113.6,487.34L115.7,488.09L117.81,473.17L121.95,440.19L123.99,442.57L126.09,449.12L128.2,442.63L130.17,431.7L132.27,427.95L136.41,442.84L138.45,431.01L142.66,407.66L144.7,404.89L146.8,408.99L148.84,407.39L150.94,404.06L153.05,392.82L154.95,392.87L157.05,399.45L159.09,414.38L161.2,419.31L163.23,422.61L165.34,412.46L167.44,404.21L169.48,411.61L171.58,404.81L173.62,412.9L175.73,385.62L177.83,385.74L179.73,382.04L181.84,400.58L183.87,407.3L185.98,403.88L188.02,389.38L190.12,394.01L192.23,380.27L194.26,383.05L196.37,371.37L198.41,370.98L200.51,368.7L202.62,369.7L204.52,369.7L206.62,364.62L208.66,367.33L210.76,382.16L212.8,393.77L214.91,393.06L217.01,366.49L219.05,359.09L221.15,343.7L223.19,351.97L225.29,338.5L227.4,330.36L229.37,312.11L231.47,318.86L233.51,323.67L235.61,341.48L237.65,347.07L239.76,360.87L241.86,357.48L243.9,343.14L246,331.73L248.04,330.6L250.15,344.24L252.25,335.76L254.15,333.15L256.26,322.12L258.29,323.44L260.4,325.73L262.44,321.8L264.54,313.88L266.65,296.51L268.68,301.39L270.79,319.76L272.82,346.23L274.93,347.7L277.03,341.32L278.94,332.97L281.04,334.12L285.18,317.81L287.22,296.16L291.43,265.27L293.47,275.2L297.61,300.25L299.71,301.44L301.82,303.48L303.72,323.3L307.86,340.87L309.97,338.54L316.21,290.21L318.25,293.31L320.35,287.84L322.39,280.13L324.5,276.35L326.6,270.99L330.68,282.94L332.71,285.17L334.82,287.7L336.85,276.87L338.96,291.82L341.06,295.48L343.1,311.65L345.21,310.39L347.24,317.41L349.35,311.74L351.45,305.71L353.35,311.7L357.5,323.94L359.6,320.13L361.64,325.88L363.74,336.15L367.89,302.55L369.99,292.33L372.03,302.88L374.13,307.93L376.24,294.76L378.14,294.21L380.24,296.41L382.28,308.09L384.39,332.22L386.42,345.62L388.53,354.23L390.63,346.01L392.67,341.9L394.77,343L396.81,335.86L398.92,339.58L401.02,340.54L402.92,358.05L405.03,368.96L407.06,363.09L409.17,347.33L411.21,324.5L413.31,327.21L415.42,326.74L417.45,321.3L419.56,304.56L421.59,286.06L423.7,285.91L425.8,304.65L427.77,337.71L431.92,353.57L434.02,330.26L436.06,326.58L438.16,336.04L440.27,349.27L442.3,349.43L446.45,311.43L448.55,310.99L450.66,299.8L452.56,304.32L454.66,302.08L456.7,286.62L460.84,260.74L462.95,283.49L465.05,289.3L467.09,278.61L471.23,241.98L473.33,243.26L479.45,214.18L481.48,213.47L483.59,227.92L485.62,222.38L489.83,223.9L491.87,230.81L493.98,226.75L496.01,231.65L500.22,212.66L502.12,200.99L504.23,210.12L506.27,211.99L508.37,206.06L510.41,180.61L514.62,156.14L516.66,163.13L518.76,159.01L520.8,141.47L522.9,134.08L525.01,139.04L526.98,162.11L529.08,172.74L535.26,235.43L537.37,245.9L539.47,249.61L541.51,262.96L543.61,261.94L545.65,252.74L547.75,240.45L549.86,220.9L551.76,219.08L553.86,225.83L555.9,217.9L558.01,205.68L560.04,176.43L562.15,173.78L564.25,167.43L566.29,181.27L568.4,191.8L570.43,181.77L572.54,176.6L574.64,153.14L576.54,154.54L578.65,145.5L580.69,140.29L582.79,121.71L584.83,113.93L586.93,113.31L589.04,112.54L591.07,96.9L593.18,91.8L595.22,82.43L597.32,87.51L599.43,78.29L601.33,72.22L603.43,57.23L605.47,43.22L607.57,45.81L609.61,42.69L611.72,46.18L613.82,28.2L615.86,34.86L617.96,45L620,76.72" style="vector-effect: non-scaling-stroke; fill: none; stroke: rgb(128, 0, 128); stroke-opacity: 1; stroke-width: 2px; opacity: 1;"/></g><g class="points"/><g class="text"/></g><g class="trace scatter trace0942e0" style="stroke-miterlimit: 2; opacity: 1;"><g class="fills"/><g class="errorbars"/><g class="lines"><path class="js-line" d="M0,478.07L2.1,479.14L4.21,477.32L6.11,481.17L8.22,481.46L10.25,481.64L12.36,480.04L14.39,474.27L16.5,474L18.6,469.55L20.64,467.71L24.78,455.17L26.89,455.46L28.99,455.63L30.96,460.58L37.21,453.97L39.25,449.72L41.35,449.93L43.46,447.23L45.49,452.24L47.6,452.17L51.74,454.04L53.85,453.74L55.75,456.12L57.85,455.48L61.99,458.73L64.03,459.07L66.14,463.5L68.24,461.32L70.28,463.74L72.38,462.21L74.42,461.5L76.52,458.03L78.63,453.94L80.53,457.14L82.63,462.78L84.67,464.29L86.78,467.64L88.81,462.23L90.92,464.12L93.02,456.43L95.06,459.56L97.17,456.82L99.2,455.3L101.31,451.49L103.41,448.15L105.31,452.64L111.56,465.66L113.6,463.7L115.7,462.91L117.81,455L126.09,441.27L128.2,440.76L136.41,453.81L138.45,452.24L140.55,453.85L142.66,445.96L144.7,446.97L146.8,443.68L148.84,444.61L150.94,443.68L153.05,438.85L154.95,443.55L157.05,440.91L159.09,444.76L161.2,440.78L163.23,441.42L165.34,442.27L167.44,440.22L169.48,442.39L171.58,438.19L173.62,435.54L175.73,429.79L177.83,427.05L179.73,431.27L183.87,435.83L185.98,436.39L188.02,433.44L190.12,434.25L192.23,427.49L194.26,427.8L196.37,424.26L198.41,422.58L200.51,420.17L202.62,416.07L204.52,420.05L206.62,420.07L210.76,418.99L212.8,415.82L214.91,417.69L217.01,411.03L219.05,409.83L221.15,403.59L227.4,390.54L229.37,389.65L231.47,388.09L233.51,389.89L235.61,392.47L237.65,391.05L239.76,392.83L241.86,388.41L243.9,393.25L246,392.73L248.04,395.22L250.15,391.49L252.25,389.6L254.15,395.74L258.29,406.35L260.4,408.62L262.44,406.22L264.54,409.9L266.65,405.98L268.68,410.92L274.93,404.69L277.03,403.96L278.94,407.9L281.04,407.42L285.18,406.56L287.22,404.66L289.32,402.28L291.43,390.41L293.47,387.37L295.57,380.51L297.61,379.68L299.71,377.06L301.82,376.42L303.72,380.19L305.82,382.43L307.86,388.93L309.97,392.83L312,391.75L314.11,392.83L316.21,387.6L318.25,388.62L320.35,383.51L322.39,381.52L324.5,377.1L326.6,373.08L328.57,374.95L330.68,377.85L332.71,378.48L334.82,382.37L336.85,380.13L338.96,386.49L341.06,376.59L343.1,375.03L345.21,367.44L347.24,368.03L349.35,366.67L351.45,363.01L353.35,364.68L355.46,361.87L357.5,364.46L361.64,372.64L363.74,377.71L365.85,374.97L367.89,379.88L369.99,378.98L372.03,381.33L374.13,379.4L376.24,374.76L378.14,373.05L380.24,368.64L384.39,371.08L386.42,367.28L388.53,368.29L390.63,366.85L392.67,373.4L394.77,373.24L396.81,369.25L398.92,367.97L401.02,361.36L402.92,360.44L405.03,355.73L407.06,356.16L409.17,353.16L411.21,344.73L415.42,340.36L417.45,339.95L421.59,320.15L423.7,321.22L425.8,322.42L427.77,332.38L429.88,331.27L431.92,335.42L434.02,334.96L436.06,338.01L438.16,343.31L440.27,346.2L442.3,344.71L444.41,339.88L446.45,333.42L448.55,336.13L450.66,332.57L452.56,335.07L454.66,332.29L456.7,330.84L458.8,325.28L460.84,316.73L462.95,314.53L465.05,311.17L467.09,308.56L469.19,302.25L471.23,294.48L473.33,296.15L475.44,295.37L477.34,301.73L479.45,297.34L481.48,299.53L489.83,292.03L491.87,291.33L496.01,281.62L498.12,279.64L500.22,278.3L502.12,278.58L506.27,276.75L508.37,271.58L510.41,264.84L512.51,264.17L514.62,262.73L516.66,266.27L520.8,259.46L522.9,257.79L525.01,254.22L526.98,256.53L529.08,265.97L531.12,283.88L533.22,298.98L535.26,299.85L539.47,294.21L541.51,295.69L543.61,289.61L545.65,281.16L547.75,276.31L549.86,273.36L551.76,276.46L553.86,275.99L555.9,275.07L558.01,269.1L560.04,260.72L562.15,270.49L566.29,291.69L568.4,280.34L570.43,265.73L572.54,256.94L574.64,250.36L576.54,251.39L582.79,227.37L584.83,222.88L586.93,221.01L589.04,220.94L595.22,195.09L597.32,198.4L599.43,194.45L601.33,199.21L603.43,192.33L605.47,189.92L607.57,182.91L609.61,179.73L615.86,184.09L617.96,179.89L620,176.44" style="vector-effect: non-scaling-stroke; fill: none; stroke: rgb(0, 0, 128); stroke-opacity: 1; stroke-width: 2px; opacity: 1;"/></g><g class="points"/><g class="text"/></g><g class="trace scatter trace7d229d" style="stroke-miterlimit: 2; opacity: 1;"><g class="fills"/><g class="errorbars"/><g class="lines"><path class="js-line" d="M0,535.8L18.6,512.01L20.64,509.55L39.25,488.34L41.35,486.08L61.99,465.3L64.03,463.39L84.67,445.23L86.78,443.5L107.42,427.69L109.46,426.23L130.17,412.45L132.27,411.14L154.95,398.11L157.05,396.99L181.84,384.79L183.87,383.86L210.76,372.5L212.8,371.69L248.04,358.78L250.15,358.05L347.24,324.41L349.35,323.59L378.14,311.46L380.24,310.5L405.03,298.29L407.06,297.2L429.88,284.07L431.92,282.81L454.66,267.55L456.7,266.07L477.34,250.04L479.45,248.29L500.22,229.75L502.12,227.94L520.8,209L522.9,206.74L541.51,185.49L543.61,182.94L562.15,159.2L564.25,156.35L582.79,129.84L584.83,126.77L603.43,97.18L605.47,93.77L620,68.44" style="vector-effect: non-scaling-stroke; fill: none; stroke: rgb(186, 85, 211); stroke-opacity: 1; stroke-width: 2px; opacity: 1;"/></g><g class="points"/><g class="text"/></g></g></g><g class="overplot"/><path class="xlines-above crisp" d="M0,0" style="fill: none;"/><path class="ylines-above crisp" d="M0,0" style="fill: none;"/><g class="overlines-above"/><g class="xaxislayer-above"><g class="xtick"><text text-anchor="middle" x="0" y="597" transform="translate(71.89,0)" style="font-family: 'Open Sans', verdana, arial, sans-serif; font-size: 12px; fill: rgb(42, 63, 95); fill-opacity: 1; white-space: pre; opacity: 1;">2000</text></g><g class="xtick"><text text-anchor="middle" x="0" y="597" style="font-family: 'Open Sans', verdana, arial, sans-serif; font-size: 12px; fill: rgb(42, 63, 95); fill-opacity: 1; white-space: pre; opacity: 1;" transform="translate(195.94,0)">2005</text></g><g class="xtick"><text text-anchor="middle" x="0" y="597" style="font-family: 'Open Sans', verdana, arial, sans-serif; font-size: 12px; fill: rgb(42, 63, 95); fill-opacity: 1; white-space: pre; opacity: 1;" transform="translate(319.93,0)">2010</text></g><g class="xtick"><text text-anchor="middle" x="0" y="597" style="font-family: 'Open Sans', verdana, arial, sans-serif; font-size: 12px; fill: rgb(42, 63, 95); fill-opacity: 1; white-space: pre; opacity: 1;" transform="translate(443.92,0)">2015</text></g><g class="xtick"><text text-anchor="middle" x="0" y="597" style="font-family: 'Open Sans', verdana, arial, sans-serif; font-size: 12px; fill: rgb(42, 63, 95); fill-opacity: 1; white-space: pre; opacity: 1;" transform="translate(567.9,0)">2020</text></g></g><g class="yaxislayer-above"><g class="ytick"><text text-anchor="end" x="44" y="4.199999999999999" transform="translate(0,546.3)" style="font-family: 'Open Sans', verdana, arial, sans-serif; font-size: 12px; fill: rgb(42, 63, 95); fill-opacity: 1; white-space: pre; opacity: 1;">0.9</text></g><g class="ytick"><text text-anchor="end" x="44" y="4.199999999999999" style="font-family: 'Open Sans', verdana, arial, sans-serif; font-size: 12px; fill: rgb(42, 63, 95); fill-opacity: 1; white-space: pre; opacity: 1;" transform="translate(0,475.46)">1</text></g><g class="ytick"><text text-anchor="end" x="44" y="4.199999999999999" style="font-family: 'Open Sans', verdana, arial, sans-serif; font-size: 12px; fill: rgb(42, 63, 95); fill-opacity: 1; white-space: pre; opacity: 1;" transform="translate(0,404.61)">1.1</text></g><g class="ytick"><text text-anchor="end" x="44" y="4.199999999999999" style="font-family: 'Open Sans', verdana, arial, sans-serif; font-size: 12px; fill: rgb(42, 63, 95); fill-opacity: 1; white-space: pre; opacity: 1;" transform="translate(0,333.77)">1.2</text></g><g class="ytick"><text text-anchor="end" x="44" y="4.199999999999999" style="font-family: 'Open Sans', verdana, arial, sans-serif; font-size: 12px; fill: rgb(42, 63, 95); fill-opacity: 1; white-space: pre; opacity: 1;" transform="translate(0,262.93)">1.3</text></g><g class="ytick"><text text-anchor="end" x="44" y="4.199999999999999" style="font-family: 'Open Sans', verdana, arial, sans-serif; font-size: 12px; fill: rgb(42, 63, 95); fill-opacity: 1; white-space: pre; opacity: 1;" transform="translate(0,192.08)">1.4</text></g><g class="ytick"><text text-anchor="end" x="44" y="4.199999999999999" style="font-family: 'Open Sans', verdana, arial, sans-serif; font-size: 12px; fill: rgb(42, 63, 95); fill-opacity: 1; white-space: pre; opacity: 1;" transform="translate(0,121.24)">1.5</text></g><g class="ytick"><text text-anchor="end" x="44" y="4.199999999999999" style="font-family: 'Open Sans', verdana, arial, sans-serif; font-size: 12px; fill: rgb(42, 63, 95); fill-opacity: 1; white-space: pre; opacity: 1;" transform="translate(0,50.39)">1.6</text></g></g><g class="overaxes-above"/></g></g><g class="polarlayer"/><g class="smithlayer"/><g class="ternarylayer"/><g class="geolayer"/><g class="funnelarealayer"/><g class="pielayer"/><g class="iciclelayer"/><g class="treemaplayer"/><g class="sunburstlayer"/><g class="glimages"/><defs id="topdefs-eb72e3"><g class="clips"/><clipPath id="legendeb72e3"><rect width="123" height="67" x="0" y="0"/></clipPath></defs><g class="layer-above"><g class="imagelayer"/><g class="shapelayer"/></g><g class="infolayer"><g class="legend" pointer-events="all" transform="translate(677,20)"><rect class="bg" shape-rendering="crispEdges" width="123" height="67" x="0" y="0" style="stroke: rgb(68, 68, 68); stroke-opacity: 1; fill: rgb(255, 255, 255); fill-opacity: 1; stroke-width: 0px;"/><g class="scrollbox" transform="" clip-path="url(#legendeb72e3)"><g class="groups"><g class="traces" transform="translate(0,14.5)" style="opacity: 1;"><text class="legendtext" text-anchor="start" x="40" y="4.680000000000001" style="font-family: 'Open Sans', verdana, arial, sans-serif; font-size: 12px; fill: rgb(42, 63, 95); fill-opacity: 1; white-space: pre;">Hunter</text><g class="layers" style="opacity: 1;"><g class="legendfill"/><g class="legendlines"><path class="js-line" d="M5,0h30" style="fill: none; stroke: rgb(128, 0, 128); stroke-opacity: 1; stroke-width: 2px;"/></g><g class="legendsymbols"><g class="legendpoints"/></g></g><rect class="legendtoggle" x="0" y="-9.5" width="117.5" height="19" style="fill: rgb(0, 0, 0); fill-opacity: 0;"/></g><g class="traces" transform="translate(0,33.5)" style="opacity: 1;"><text class="legendtext" text-anchor="start" x="40" y="4.680000000000001" style="font-family: 'Open Sans', verdana, arial, sans-serif; font-size: 12px; fill: rgb(42, 63, 95); fill-opacity: 1; white-space: pre;">NSW</text><g class="layers" style="opacity: 1;"><g class="legendfill"/><g class="legendlines"><path class="js-line" d="M5,0h30" style="fill: none; stroke: rgb(0, 0, 128); stroke-opacity: 1; stroke-width: 2px;"/></g><g class="legendsymbols"><g class="legendpoints"/></g></g><rect class="legendtoggle" x="0" y="-9.5" width="117.5" height="19" style="fill: rgb(0, 0, 0); fill-opacity: 0;"/></g><g class="traces" transform="translate(0,52.5)" style="opacity: 1;"><text class="legendtext" text-anchor="start" x="40" y="4.680000000000001" style="font-family: 'Open Sans', verdana, arial, sans-serif; font-size: 12px; fill: rgb(42, 63, 95); fill-opacity: 1; white-space: pre;">Hunter trend</text><g class="layers" style="opacity: 1;"><g class="legendfill"/><g class="legendlines"><path class="js-line" d="M5,0h30" style="fill: none; stroke: rgb(186, 85, 211); stroke-opacity: 1; stroke-width: 2px;"/></g><g class="legendsymbols"><g class="legendpoints"/></g></g><rect class="legendtoggle" x="0" y="-9.5" width="117.5" height="19" style="fill: rgb(0, 0, 0); fill-opacity: 0;"/></g></g></g><rect class="scrollbar" rx="20" ry="3" width="0" height="0" x="0" y="0" style="fill: rgb(128, 139, 164); fill-opacity: 1;"/></g><g class="g-gtitle"/><g class="g-xtitle"/><g class="g-ytitle" transform="translate(14.4248046875,0)"><text class="ytitle" transform="rotate(-90,-0.42499999999999716,302)" x="-0.42499999999999716" y="302" text-anchor="middle" style="font-family: 'Open Sans', verdana, arial, sans-serif; font-size: 14px; fill: rgb(42, 63, 95); opacity: 1; font-weight: normal; white-space: pre;">Growth in Employment</text></g></g></svg>