<svg class="main-svg" xmlns="http://www.w3.org/2000/svg" xmlns:xlink="http://www.w3.org/1999/xlink" width="800" height="600" style="" viewBox="0 0 800 600"><rect x="0" y="0" width="800" height="600" style="fill: rgb(255, 255, 255); fill-opacity: 1;"/><defs id="defs-3b7523"><g class="clips"><clipPath id="clip3b7523xyplot" class="plotclip"><rect width="660" height="564"/></clipPath><clipPath class="axesclip" id="clip3b7523x"><rect x="41" y="0" width="660" height="600"/></clipPath><clipPath class="axesclip" id="clip3b7523y"><rect x="0" y="20" width="800" height="564"/></clipPath><clipPath class="axesclip" id="clip3b7523xy"><rect x="41" y="20" width="660" height="564"/></clipPath></g><g class="gradients"/><g class="patterns"/></defs><g class="bglayer"/><g class="layer-below"><g class="imagelayer"/><g class="shapelayer"/></g><g class="cartesianlayer"><g class="subplot xy"><g class="layer-subplot"><g class="shapelayer"/><g class="imagelayer"/></g><g class="minor-gridlayer"><g class="x"/><g class="y"/></g><g class="gridlayer"><g class="x"><path class="xgrid crisp" transform="translate(52.4,0)" d="M0,20v564" style="stroke: rgb(235, 240, 248); stroke-opacity: 1; stroke-width: 1px;"/><path class="xgrid crisp" transform="translate(188.53,0)" d="M0,20v564" style="stroke: rgb(235, 240, 248); stroke-opacity: 1; stroke-width: 1px;"/><path class="xgrid crisp" transform="translate(324.58,0)" d="M0,20v564" style="stroke: rgb(235, 240, 248); stroke-opacity: 1; stroke-width: 1px;"/><path class="xgrid crisp" transform="translate(460.63,0)" d="M0,20v564" style="stroke: rgb(235, 240, 248); stroke-opacity: 1; stroke-width: 1px;"/><path class="xgrid crisp" transform="translate(596.69,0)" d="M0,20v564" style="stroke: rgb(235, 240, 248); stroke-opacity: 1; stroke-width: 1px;"/></g><g class="y"><path class="ygrid crisp" transform="translate(0,561.44)" d="M41,0h660" style="stroke: rgb(235, 240, 248); stroke-opacity: 1; stroke-width: 1px;"/><path class="ygrid crisp" transform="translate(0,474.82)" d="M41,0h660" style="stroke: rgb(235, 240, 248); stroke-opacity: 1; stroke-width: 1px;"/><path class="ygrid crisp" transform="translate(0,388.21)" d="M41,0h660" style="stroke: rgb(235, 240, 248); stroke-opacity: 1; stroke-width: 1px;"/><path class="ygrid crisp" transform="translate(0,301.6)" d="M41,0h660" style="stroke: rgb(235, 240, 248); stroke-opacity: 1; stroke-width: 1px;"/><path class="ygrid crisp" transform="translate(0,214.99)" d="M41,0h660" style="stroke: rgb(235, 240, 248); stroke-opacity: 1; stroke-width: 1px;"/><path class="ygrid crisp" transform="translate(0,128.37)" d="M41,0h660" style="stroke: rgb(235, 240, 248); stroke-opacity: 1; stroke-width: 1px;"/><path class="ygrid crisp" transform="translate(0,41.760000000000005)" d="M41,0h660" style="stroke: rgb(235, 240, 248); stroke-opacity: 1; stroke-width: 1px;"/></g></g><g class="zerolinelayer"/><path class="xlines-below"/><path class="ylines-below"/><g class="overlines-below"/><g class="xaxislayer-below"/><g class="yaxislayer-below"/><g class="overaxes-below"/><g class="plot" transform="translate(41,20)" clip-path="url(#clip3b7523xyplot)"><g class="scatterlayer mlayer"><g class="trace scatter trace849627" style="stroke-miterlimit: 2; opacity: 1;"><g class="fills"/><g class="errorbars"/><g class="lines"><path class="js-line" d="M0,504.79L6.85,515.27L13.71,503.85L20.42,489.24L27.27,486.31L34.13,471.95L40.98,472.05L47.61,476.95L54.47,446.15L61.32,444.38L68.18,456.82L74.81,460.96L81.66,495.04L88.52,532.38L95.37,535.8L102,526.91L108.86,509.65L115.71,488.49L122.57,501.44L129.27,503.59L136.13,489.22L142.98,474.28L149.84,455.07L163.32,463.17L170.18,462.46L177.03,463.42L183.66,452.06L190.52,424.64L197.37,402.16L204.23,392.35L210.86,398.92L217.72,428.32L224.57,444.46L231.42,428.95L238.13,442.7L244.99,464.83L251.84,500.22L258.69,534.34L265.33,528.95L272.18,514.54L279.04,473.27L285.89,419.38L292.52,399.45L299.38,399.3L306.23,408.51L313.09,418.63L319.72,379.64L326.57,347.83L333.43,324.8L340.28,354.04L346.99,422.24L353.84,477.67L360.7,514.87L367.55,521.64L374.18,507.77L381.04,482.11L387.89,490.92L394.75,479.14L401.38,496.76L408.23,513.21L415.09,522.19L421.94,514.11L428.58,494.34L435.43,484.5L442.28,455.52L449.14,452.9L455.85,456.19L462.7,477.63L469.56,469.64L476.41,451.62L483.04,408.35L489.9,375.39L496.75,401.89L503.61,415.83L510.24,420.73L517.09,388.9L523.95,350.65L530.8,321.97L537.43,325.32L544.29,381.12L551.14,384.72L558,380.31L564.7,365.08L571.56,345.52L578.41,382.03L585.27,420.35L591.9,464.18L598.75,421.05L605.61,421.59L612.46,413.35L619.09,392.63L625.95,356.07L632.8,348.25L639.66,368.98L646.29,397.98L653.15,445.38L660,467.58" style="vector-effect: non-scaling-stroke; fill: none; stroke: rgb(99, 110, 250); stroke-opacity: 1; stroke-width: 2px; opacity: 1; stroke-dasharray: 9px, 9px;"/></g><g class="points"/><g class="text"/></g><g class="trace scatter trace09fd19" style="stroke-miterlimit: 2; opacity: 1;"><g class="fills"/><g class="errorbars"/><g class="lines"><path class="js-line" d="M0,28.2L6.85,85.09L13.71,92.01L20.42,88.18L27.27,73.82L34.13,46.22L40.98,75.31L47.61,63.65L54.47,81.14L61.32,55.58L68.18,47.37L74.81,86.5L81.66,112.04L88.52,146.21L95.37,170.46L102,220.31L108.86,231.66L115.71,235.67L122.57,184.11L129.27,173.23L136.13,160.1L142.98,181.43L149.84,228.81L156.47,259.74L163.32,302.22L170.18,293.03L177.03,261.13L183.66,211.98L190.52,200.03L197.37,236L204.23,287.01L210.86,323.64L217.72,313.29L231.42,210.28L238.13,218.69L244.99,229.92L251.84,227.06L258.69,206.2L265.33,143.12L272.18,124.74L279.04,154.85L285.89,219.71L292.52,250.85L299.38,251.56L306.23,237.24L313.09,149.85L319.72,132.51L326.57,125.86L333.43,136.65L340.28,220.14L346.99,245.27L353.84,251.09L360.7,235.79L367.55,194.92L374.18,121.93L387.89,141.92L394.75,156.73L401.38,196.46L408.23,169.21L415.09,185.79L421.94,191.39L428.58,225.3L435.43,272.03L442.28,287.67L449.14,307.82L455.85,313.77L462.7,335.03L469.56,309.64L476.41,290.93L483.04,290.7L489.9,283.73L503.61,273.19L510.24,274.08L517.09,248.45L523.95,273.83L530.8,315.82L537.43,350.97L544.29,363.71L551.14,342.95L564.7,307.8L571.56,316.15L578.41,363.26L585.27,381.1L591.9,382.47L598.75,320.38L605.61,337.71L612.46,352.09L619.09,352.71L625.95,386.83L632.8,388.77L639.66,391.83L653.15,419.25L660,426.94" style="vector-effect: non-scaling-stroke; fill: none; stroke: rgb(239, 85, 59); stroke-opacity: 1; stroke-width: 2px; opacity: 1; stroke-dasharray: 9px, 9px;"/></g><g class="points"/><g class="text"/></g><g class="trace scatter trace202faa" style="stroke-miterlimit: 2; opacity: 1;"><g class="fills"/><g class="errorbars"/><g class="lines"><path class="js-line" d="M0,494.21L660,396.03" style="vector-effect: non-scaling-stroke; fill: none; stroke: rgb(0, 0, 255); stroke-opacity: 1; stroke-width: 2px; opacity: 1;"/></g><g class="points"/><g class="text"/></g><g class="trace scatter trace19c81b" style="stroke-miterlimit: 2; opacity: 1;"><g class="fills"/><g class="errorbars"/><g class="lines"><path class="js-line" d="M0,101.38L660,363.34" style="vector-effect: non-scaling-stroke; fill: none; stroke: rgb(255, 0, 0); stroke-opacity: 1; stroke-width: 2px; opacity: 1;"/></g><g class="points"/><g class="text"/></g></g></g><g class="overplot"/><path class="xlines-above crisp" d="M0,0" style="fill: none;"/><path class="ylines-above crisp" d="M0,0" style="fill: none;"/><g class="overlines-above"/><g class="xaxislayer-above"><g class="xtick"><text text-anchor="middle" x="0" y="597" transform="translate(52.4,0)" style="font-family: 'Open Sans', verdana, arial, sans-serif; font-size: 12px; fill: rgb(42, 63, 95); fill-opacity: 1; white-space: pre; opacity: 1;">2000</text></g><g class="xtick"><text text-anchor="middle" x="0" y="597" style="font-family: 'Open Sans', verdana, arial, sans-serif; font-size: 12px; fill: rgb(42, 63, 95); fill-opacity: 1; white-space: pre; opacity: 1;" transform="translate(188.53,0)">2005</text></g><g class="xtick"><text text-anchor="middle" x="0" y="597" style="font-family: 'Open Sans', verdana, arial, sans-serif; font-size: 12px; fill: rgb(42, 63, 95); fill-opacity: 1; white-space: pre; opacity: 1;" transform="translate(324.58,0)">2010</text></g><g class="xtick"><text text-anchor="middle" x="0" y="597" style="font-family: 'Open Sans', verdana, arial, sans-serif; font-size: 12px; fill: rgb(42, 63, 95); fill-opacity: 1; white-space: pre; opacity: 1;" transform="translate(460.63,0)">2015</text></g><g class="xtick"><text text-anchor="middle" x="0" y="597" style="font-family: 'Open Sans', verdana, arial, sans-serif; font-size: 12px; fill: rgb(42, 63, 95); fill-opacity: 1; white-space: pre; opacity: 1;" transform="translate(596.69,0)">2020</text></g></g><g class="yaxislayer-above"><g class="ytick"><text text-anchor="end" x="40" y="4.199999999999999" transform="translate(0,561.44)" style="font-family: 'Open Sans', verdana, arial, sans-serif; font-size: 12px; fill: rgb(42, 63, 95); fill-opacity: 1; white-space: pre; opacity: 1;">6</text></g><g class="ytick"><text text-anchor="end" x="40" y="4.199999999999999" style="font-family: 'Open Sans', verdana, arial, sans-serif; font-size: 12px; fill: rgb(42, 63, 95); fill-opacity: 1; white-space: pre; opacity: 1;" transform="translate(0,474.82)">8</text></g><g class="ytick"><text text-anchor="end" x="40" y="4.199999999999999" style="font-family: 'Open Sans', verdana, arial, sans-serif; font-size: 12px; fill: rgb(42, 63, 95); fill-opacity: 1; white-space: pre; opacity: 1;" transform="translate(0,388.21)">10</text></g><g class="ytick"><text text-anchor="end" x="40" y="4.199999999999999" style="font-family: 'Open Sans', verdana, arial, sans-serif; font-size: 12px; fill: rgb(42, 63, 95); fill-opacity: 1; white-space: pre; opacity: 1;" transform="translate(0,301.6)">12</text></g><g class="ytick"><text text-anchor="end" x="40" y="4.199999999999999" style="font-family: 'Open Sans', verdana, arial, sans-serif; font-size: 12px; fill: rgb(42, 63, 95); fill-opacity: 1; white-space: pre; opacity: 1;" transform="translate(0,214.99)">14</text></g><g class="ytick"><text text-anchor="end" x="40" y="4.199999999999999" style="font-family: 'Open Sans', verdana, arial, sans-serif; font-size: 12px; fill: rgb(42, 63, 95); fill-opacity: 1; white-space: pre; opacity: 1;" transform="translate(0,128.37)">16</text></g><g class="ytick"><text text-anchor="end" x="40" y="4.199999999999999" style="font-family: 'Open Sans', verdana, arial, sans-serif; font-size: 12px; fill: rgb(42, 63, 95); fill-opacity: 1; white-space: pre; opacity: 1;" transform="translate(0,41.760000000000005)">18</text></g></g><g class="overaxes-above"/></g></g><g class="polarlayer"/><g class="smithlayer"/><g class="ternarylayer"/><g class="geolayer"/><g class="funnelarealayer"/><g class="pielayer"/><g class="iciclelayer"/><g class="treemaplayer"/><g class="sunburstlayer"/><g class="glimages"/><defs id="topdefs-3b7523"><g class="clips"/><clipPath id="legend3b7523"><rect width="211" height="86" x="0" y="0"/></clipPath></defs><g class="layer-above"><g class="imagelayer"/><g class="shapelayer"/></g><g class="infolayer"><g class="legend" pointer-events="all" transform="translate(588.9999999999999,20)"><rect class="bg" shape-rendering="crispEdges" width="211" height="86" x="0" y="0" style="stroke: rgb(68, 68, 68); stroke-opacity: 1; fill: rgb(255, 255, 255); fill-opacity: 0.5; stroke-width: 0px;"/><g class="scrollbox" transform="" clip-path="url(#legend3b7523)"><g class="groups"><g class="traces" transform="translate(0,14.5)" style="opacity: 1;"><text class="legendtext" text-anchor="start" x="40" y="4.680000000000001" style="font-family: 'Open Sans', verdana, arial, sans-serif; font-size: 12px; fill: rgb(42, 63, 95); fill-opacity: 1; white-space: pre;">Knowledge jobs</text><g class="layers" style="opacity: 1;"><g class="legendfill"/><g class="legendlines"><path class="js-line" d="M5,0h30" style="fill: none; stroke: rgb(99, 110, 250); stroke-opacity: 1; stroke-dasharray: 9px, 9px; stroke-width: 2px;"/></g><g class="legendsymbols"><g class="legendpoints"/></g></g><rect class="legendtoggle" x="0" y="-9.5" width="205.234375" height="19" style="fill: rgb(0, 0, 0); fill-opacity: 0;"/></g><g class="traces" transform="translate(0,33.5)" style="opacity: 1;"><text class="legendtext" text-anchor="start" x="40" y="4.680000000000001" style="font-family: 'Open Sans', verdana, arial, sans-serif; font-size: 12px; fill: rgb(42, 63, 95); fill-opacity: 1; white-space: pre;">Tradeable good jobs</text><g class="layers" style="opacity: 1;"><g class="legendfill"/><g class="legendlines"><path class="js-line" d="M5,0h30" style="fill: none; stroke: rgb(239, 85, 59); stroke-opacity: 1; stroke-dasharray: 9px, 9px; stroke-width: 2px;"/></g><g class="legendsymbols"><g class="legendpoints"/></g></g><rect class="legendtoggle" x="0" y="-9.5" width="205.234375" height="19" style="fill: rgb(0, 0, 0); fill-opacity: 0;"/></g><g class="traces" transform="translate(0,52.5)" style="opacity: 1;"><text class="legendtext" text-anchor="start" x="40" y="4.680000000000001" style="font-family: 'Open Sans', verdana, arial, sans-serif; font-size: 12px; fill: rgb(42, 63, 95); fill-opacity: 1; white-space: pre;">Trend Knowledge jobs</text><g class="layers" style="opacity: 1;"><g class="legendfill"/><g class="legendlines"><path class="js-line" d="M5,0h30" style="fill: none; stroke: rgb(0, 0, 255); stroke-opacity: 1; stroke-width: 2px;"/></g><g class="legendsymbols"><g class="legendpoints"/></g></g><rect class="legendtoggle" x="0" y="-9.5" width="205.234375" height="19" style="fill: rgb(0, 0, 0); fill-opacity: 0;"/></g><g class="traces" transform="translate(0,71.5)" style="opacity: 1;"><text class="legendtext" text-anchor="start" x="40" y="4.680000000000001" style="font-family: 'Open Sans', verdana, arial, sans-serif; font-size: 12px; fill: rgb(42, 63, 95); fill-opacity: 1; white-space: pre;">Trend Tradeable goods jobs</text><g class="layers" style="opacity: 1;"><g class="legendfill"/><g class="legendlines"><path class="js-line" d="M5,0h30" style="fill: none; stroke: rgb(255, 0, 0); stroke-opacity: 1; stroke-width: 2px;"/></g><g class="legendsymbols"><g class="legendpoints"/></g></g><rect class="legendtoggle" x="0" y="-9.5" width="205.234375" height="19" style="fill: rgb(0, 0, 0); fill-opacity: 0;"/></g></g></g><rect class="scrollbar" rx="20" ry="3" width="0" height="0" x="0" y="0" style="fill: rgb(128, 139, 164); fill-opacity: 1;"/></g><g class="g-gtitle"/><g class="g-xtitle"/><g class="g-ytitle" transform="translate(14.0654296875,0)"><text class="ytitle" transform="rotate(-90,-0.06562499999999716,302)" x="-0.06562499999999716" y="302" text-anchor="middle" style="font-family: 'Open Sans', verdana, arial, sans-serif; font-size: 14px; fill: rgb(42, 63, 95); opacity: 1; font-weight: normal; white-space: pre;">% FTE</text></g></g></svg>