<svg class="main-svg" xmlns="http://www.w3.org/2000/svg" xmlns:xlink="http://www.w3.org/1999/xlink" width="800" height="600" style="" viewBox="0 0 800 600"><rect x="0" y="0" width="800" height="600" style="fill: rgb(255, 255, 255); fill-opacity: 1;"/><defs id="defs-340b5e"><g class="clips"><clipPath id="clip340b5exyplot" class="plotclip"><rect width="650" height="564"/></clipPath><clipPath id="clip340b5exy2plot" class="plotclip"><rect width="650" height="564"/></clipPath><clipPath class="axesclip" id="clip340b5ex"><rect x="49" y="0" width="650" height="600"/></clipPath><clipPath class="axesclip" id="clip340b5ey"><rect x="0" y="20" width="800" height="564"/></clipPath><clipPath class="axesclip" id="clip340b5exy"><rect x="49" y="20" width="650" height="564"/></clipPath><clipPath class="axesclip" id="clip340b5ey2"><rect x="0" y="20" width="800" height="564"/></clipPath><clipPath class="axesclip" id="clip340b5exy2"><rect x="49" y="20" width="650" height="564"/></clipPath></g><g class="gradients"/><g class="patterns"/></defs><g class="bglayer"/><g class="layer-below"><g class="imagelayer"/><g class="shapelayer"/></g><g class="cartesianlayer"><g class="subplot xy"><g class="layer-subplot"><g class="shapelayer"/><g class="imagelayer"/></g><g class="minor-gridlayer"><g class="x"/><g class="y"/><g class="y2"/></g><g class="gridlayer"><g class="x"><path class="xgrid crisp" transform="translate(77.19,0)" d="M0,20v564" style="stroke: rgb(235, 240, 248); stroke-opacity: 1; stroke-width: 1px;"/><path class="xgrid crisp" transform="translate(207.25,0)" d="M0,20v564" style="stroke: rgb(235, 240, 248); stroke-opacity: 1; stroke-width: 1px;"/><path class="xgrid crisp" transform="translate(337.23,0)" d="M0,20v564" style="stroke: rgb(235, 240, 248); stroke-opacity: 1; stroke-width: 1px;"/><path class="xgrid crisp" transform="translate(467.22,0)" d="M0,20v564" style="stroke: rgb(235, 240, 248); stroke-opacity: 1; stroke-width: 1px;"/><path class="xgrid crisp" transform="translate(597.2,0)" d="M0,20v564" style="stroke: rgb(235, 240, 248); stroke-opacity: 1; stroke-width: 1px;"/></g><g class="y"><path class="ygrid crisp" transform="translate(0,511.65)" d="M49,0h650" style="stroke: rgb(235, 240, 248); stroke-opacity: 1; stroke-width: 1px;"/><path class="ygrid crisp" transform="translate(0,421.5)" d="M49,0h650" style="stroke: rgb(235, 240, 248); stroke-opacity: 1; stroke-width: 1px;"/><path class="ygrid crisp" transform="translate(0,331.35)" d="M49,0h650" style="stroke: rgb(235, 240, 248); stroke-opacity: 1; stroke-width: 1px;"/><path class="ygrid crisp" transform="translate(0,241.21)" d="M49,0h650" style="stroke: rgb(235, 240, 248); stroke-opacity: 1; stroke-width: 1px;"/><path class="ygrid crisp" transform="translate(0,151.06)" d="M49,0h650" style="stroke: rgb(235, 240, 248); stroke-opacity: 1; stroke-width: 1px;"/><path class="ygrid crisp" transform="translate(0,60.91)" d="M49,0h650" style="stroke: rgb(235, 240, 248); stroke-opacity: 1; stroke-width: 1px;"/></g><g class="y2"><path class="y2grid crisp" transform="translate(0,541.11)" d="M49,0h650" style="stroke: rgb(235, 240, 248); stroke-opacity: 1; stroke-width: 1px;"/><path class="y2grid crisp" transform="translate(0,436.62)" d="M49,0h650" style="stroke: rgb(235, 240, 248); stroke-opacity: 1; stroke-width: 1px;"/><path class="y2grid crisp" transform="translate(0,332.13)" d="M49,0h650" style="stroke: rgb(235, 240, 248); stroke-opacity: 1; stroke-width: 1px;"/><path class="y2grid crisp" transform="translate(0,227.64)" d="M49,0h650" style="stroke: rgb(235, 240, 248); stroke-opacity: 1; stroke-width: 1px;"/><path class="y2grid crisp" transform="translate(0,123.15)" d="M49,0h650" style="stroke: rgb(235, 240, 248); stroke-opacity: 1; stroke-width: 1px;"/></g></g><g class="zerolinelayer"/><path class="xlines-below"/><path class="ylines-below"/><g class="overlines-below"><path class="xy2-x"/><path class="xy2-y"/></g><g class="xaxislayer-below"/><g class="yaxislayer-below"/><g class="overaxes-below"><g class="xy2-x"/><g class="xy2-y"/></g><g class="plot" transform="translate(49,20)" clip-path="url(#clip340b5exyplot)"><g class="scatterlayer mlayer"><g class="trace scatter tracee836ad" style="stroke-miterlimit: 2; opacity: 1;"><g class="fills"/><g class="errorbars"/><g class="lines"><path class="js-line" d="M0,489.55L4.41,511.45L6.41,525.35L8.61,532.88L10.75,534.19L15.09,504.99L17.3,500.97L19.5,502.55L21.64,507.4L23.85,495.75L25.98,478.18L28.19,473.86L30.4,476.17L32.46,484.02L34.67,475.36L36.8,469.31L39.01,471.12L41.15,471.04L43.35,479.67L47.69,500.17L49.9,502.51L52.04,498.08L54.24,499.24L56.45,489.97L58.44,489.49L60.65,488.93L62.79,492.76L64.99,496.59L67.13,497.34L69.34,508.13L71.54,501.78L73.68,502.08L75.88,490.56L80.23,476.5L82.43,484.91L86.63,507.34L88.77,518.76L90.98,535.8L93.11,535.03L95.32,523.06L97.52,502.91L99.66,504.08L101.87,496.9L104,501.76L106.21,504.29L110.41,492.35L112.62,482.47L116.96,500.86L119.09,507.11L121.3,507.9L123.51,492.34L127.85,457.94L129.99,460.42L132.19,467.25L134.4,460.49L136.46,449.08L138.67,445.17L143.01,460.7L145.15,448.36L149.56,424.01L151.7,421.11L153.9,425.39L156.04,423.73L158.25,420.25L160.45,408.53L162.45,408.57L164.65,415.44L166.79,431.02L169,436.16L171.13,439.59L173.34,429.02L175.54,420.41L177.68,428.13L179.89,421.03L182.02,429.47L184.23,401.01L186.44,401.14L188.43,397.29L190.64,416.62L192.77,423.63L194.98,420.06L197.11,404.94L199.32,409.77L201.53,395.43L203.66,398.34L205.87,386.16L208.01,385.74L210.21,383.36L212.42,384.41L214.41,384.41L216.62,379.11L218.75,381.94L220.96,397.41L223.1,409.52L225.3,408.78L227.51,381.06L229.65,373.35L231.85,357.29L233.99,365.92L236.2,351.86L238.4,343.38L240.47,324.34L242.67,331.38L244.81,336.4L247.02,354.98L249.15,360.81L251.36,375.2L253.56,371.66L255.7,356.7L257.91,344.81L260.04,343.62L262.25,357.86L264.46,349.01L266.45,346.29L268.66,334.78L270.79,336.16L273,338.54L275.13,334.45L277.34,326.19L279.55,308.06L281.68,313.16L283.89,332.31L286.03,359.93L288.23,361.46L290.44,354.81L292.43,346.09L294.64,347.3L298.98,330.29L301.12,307.71L305.53,275.49L307.67,285.84L312.01,311.97L314.22,313.21L316.42,315.34L318.42,336.01L322.76,354.33L324.96,351.9L331.51,301.49L333.65,304.73L335.86,299.03L337.99,290.98L340.2,287.04L342.4,281.45L346.68,293.91L348.81,296.24L351.02,298.88L353.15,287.58L355.36,303.18L357.57,306.99L359.7,323.86L361.91,322.54L364.05,329.87L366.25,323.95L368.46,317.66L370.45,323.91L374.79,336.68L377,332.71L379.14,338.7L381.34,349.41L385.69,314.37L387.89,303.71L390.03,314.71L392.24,319.98L394.44,306.24L396.44,305.67L398.64,307.96L400.78,320.15L402.98,345.31L405.12,359.29L407.33,368.27L409.53,359.7L411.67,355.41L413.88,356.56L416.01,349.11L418.22,352.99L420.42,354L422.42,372.26L424.62,383.64L426.76,377.52L428.97,361.08L431.1,337.27L433.31,340.09L435.52,339.6L437.65,333.92L439.86,316.46L441.99,297.17L444.2,297.01L446.41,316.56L448.47,351.04L452.81,367.58L455.02,343.27L457.16,339.44L459.36,349.3L461.57,363.1L463.71,363.27L468.05,323.63L470.26,323.17L472.46,311.5L474.46,316.22L476.66,313.88L478.8,297.75L483.14,270.75L485.35,294.49L487.55,300.55L489.69,289.4L494.03,251.19L496.24,252.53L502.64,222.19L504.78,221.45L506.99,236.52L509.12,230.74L513.54,232.33L515.67,239.54L517.88,235.31L520.01,240.42L524.43,220.61L526.42,208.43L528.63,217.96L530.76,219.91L532.97,213.72L535.11,187.17L539.52,161.65L541.65,168.94L543.86,164.65L546,146.35L548.2,138.64L550.41,143.82L552.48,167.88L554.68,178.96L559.02,228.78L561.16,244.36L563.37,255.27L565.57,259.15L567.71,273.07L569.92,272.01L574.26,249.6L576.46,229.2L578.46,227.3L580.66,234.34L582.8,226.08L585.01,213.33L587.14,182.82L589.35,180.05L591.56,173.42L593.69,187.86L595.9,198.85L598.03,188.38L600.24,182.99L602.45,158.52L604.44,159.98L606.65,150.55L608.78,145.12L610.99,125.74L613.13,117.63L615.33,116.97L617.54,116.18L619.67,99.86L621.88,94.54L624.02,84.76L626.22,90.06L628.43,80.44L630.42,74.12L632.63,58.48L634.77,43.87L636.97,46.57L639.11,43.32L641.32,46.95L643.52,28.2L645.66,35.15L647.86,45.72L650,78.81" style="vector-effect: non-scaling-stroke; fill: none; stroke: rgb(99, 110, 250); stroke-opacity: 1; stroke-width: 2px; opacity: 1;"/></g><g class="points"/><g class="text"/></g></g></g><g class="overplot"><g class="xy2" transform="translate(49,20)" clip-path="url(#clip340b5exy2plot)"><g class="scatterlayer mlayer"><g class="trace scatter trace0e7f42" style="stroke-miterlimit: 2; opacity: 1;"><g class="fills"/><g class="errorbars"/><g class="lines"><path class="js-line" d="M0,529.85L2.21,531.63L4.41,528.61L6.41,535.01L8.61,535.49L10.75,535.8L12.96,533.13L15.09,523.54L17.3,523.09L19.5,515.68L21.64,512.63L25.98,491.76L28.19,492.25L30.4,492.54L32.46,500.77L39.01,489.77L41.15,482.71L43.35,483.06L45.56,478.56L47.69,486.89L49.9,486.78L54.24,489.89L56.45,489.39L58.44,493.35L60.65,492.29L62.79,494.36L64.99,497.69L67.13,498.26L69.34,505.62L71.54,502L73.68,506.03L75.88,503.48L78.02,502.3L82.43,489.72L84.43,495.05L86.63,504.42L88.77,506.94L90.98,512.52L93.11,503.52L95.32,506.66L97.52,493.86L99.66,499.07L101.87,494.51L104,491.99L106.21,485.66L108.42,480.09L110.41,487.56L116.96,509.22L119.09,505.96L121.3,504.64L123.51,491.49L125.64,485.97L127.85,477.9L129.99,474.11L132.19,468.65L134.4,467.8L136.46,473.13L143.01,489.51L145.15,486.9L147.36,489.57L149.56,476.45L151.7,478.13L153.9,472.67L156.04,474.21L158.25,472.66L160.45,464.63L162.45,472.44L164.65,468.06L166.79,474.46L169,467.83L171.13,468.9L173.34,470.32L175.54,466.91L177.68,470.51L179.89,463.52L182.02,459.12L184.23,449.56L186.44,445.01L188.43,452.02L192.77,459.61L194.98,460.54L197.11,455.62L199.32,456.98L201.53,445.74L203.66,446.25L205.87,440.37L208.01,437.58L210.21,433.56L212.42,426.74L214.41,433.37L216.62,433.39L218.75,432.94L220.96,431.6L223.1,426.33L225.3,429.44L227.51,418.36L229.65,416.36L233.99,398.58L236.2,390.78L238.4,384.28L240.47,382.8L242.67,380.21L244.81,383.21L247.02,387.49L249.15,385.14L251.36,388.09L253.56,380.74L255.7,388.79L257.91,387.92L260.04,392.06L262.25,385.86L264.46,382.72L266.45,392.93L270.79,410.58L273,414.35L275.13,410.35L277.34,416.48L279.55,409.97L281.68,418.18L283.89,414.41L286.03,412.52L288.23,407.82L290.44,406.6L292.43,413.15L294.64,412.36L298.98,410.92L301.12,407.77L303.32,403.81L305.53,384.06L307.67,379L309.87,367.6L312.01,366.22L314.22,361.87L316.42,360.79L318.42,367.07L320.62,370.79L322.76,381.61L324.96,388.1L327.1,386.3L329.31,388.09L331.51,379.4L333.65,381.08L335.86,372.6L337.99,369.28L340.2,361.93L342.4,355.25L344.47,358.36L346.68,363.17L348.81,364.23L351.02,370.69L353.15,366.97L355.36,377.54L357.57,361.07L359.7,358.48L361.91,345.87L364.05,346.84L366.25,344.58L368.46,338.49L370.45,341.27L372.66,336.6L374.79,340.91L379.14,354.51L381.34,362.94L383.55,358.38L385.69,366.56L387.89,365.06L390.03,368.96L392.24,365.76L394.44,358.04L396.44,355.19L398.64,347.85L400.78,349.37L402.98,351.91L405.12,345.6L407.33,347.27L409.53,344.87L411.67,355.78L413.88,355.5L416.01,348.88L418.22,346.75L420.42,335.75L422.42,334.22L424.62,326.38L426.76,327.11L428.97,322.12L431.1,308.1L433.31,303.93L435.52,300.82L437.65,300.14L441.99,267.21L444.2,268.99L446.41,270.99L448.47,287.56L450.68,285.72L452.81,292.6L455.02,291.85L457.16,296.92L459.36,305.73L461.57,310.54L463.71,308.06L465.91,300.03L468.05,289.28L470.26,293.8L472.46,287.87L474.46,292.03L476.66,287.4L478.8,284.99L481,275.75L483.14,261.52L485.35,257.86L487.55,252.28L489.69,247.94L491.9,237.44L494.03,224.53L496.24,227.3L498.44,226.01L500.44,236.57L502.64,229.28L504.78,232.92L509.12,226.04L511.33,222.67L515.67,219.27L517.88,210.49L520.01,203.14L522.22,199.83L524.43,197.62L526.42,198.07L530.76,195.03L532.97,186.43L535.11,175.23L537.31,174.11L539.52,171.72L541.65,177.61L546,166.28L548.2,163.5L550.41,157.56L552.48,161.4L554.68,177.11L556.82,206.89L559.02,232L561.16,233.44L565.57,224.07L567.71,226.54L569.92,216.42L572.05,202.37L574.26,194.31L576.46,189.4L578.46,194.56L580.66,193.77L582.8,192.24L585.01,182.31L587.14,168.37L589.35,184.62L593.69,219.87L595.9,201.01L598.03,176.71L600.24,162.08L602.45,151.15L604.44,152.85L608.78,130.58L610.99,112.91L613.13,105.44L615.33,102.34L617.54,102.21L619.67,87.8L621.88,77.15L624.02,59.22L626.22,64.72L628.43,58.15L630.42,66.07L632.63,54.63L634.77,50.62L636.97,38.97L639.11,33.68L641.32,36.08L643.52,39.32L645.66,40.93L650,28.2" style="vector-effect: non-scaling-stroke; fill: none; stroke: rgb(239, 85, 59); stroke-opacity: 1; stroke-width: 2px; opacity: 1;"/></g><g class="points"/><g class="text"/></g></g></g></g><path class="xlines-above crisp" d="M0,0" style="fill: none;"/><path class="ylines-above crisp" d="M0,0" style="fill: none;"/><g class="overlines-above"><path class="xy2-x crisp" d="M0,0" style="fill: none;"/><path class="xy2-y crisp" d="M0,0" style="fill: none;"/></g><g class="xaxislayer-above"><g class="xtick"><text text-anchor="middle" x="0" y="597" transform="translate(77.19,0)" style="font-family: 'Open Sans', verdana, arial, sans-serif; font-size: 12px; fill: rgb(42, 63, 95); fill-opacity: 1; white-space: pre; opacity: 1;">2000</text></g><g class="xtick"><text text-anchor="middle" x="0" y="597" style="font-family: 'Open Sans', verdana, arial, sans-serif; font-size: 12px; fill: rgb(42, 63, 95); fill-opacity: 1; white-space: pre; opacity: 1;" transform="translate(207.25,0)">2005</text></g><g class="xtick"><text text-anchor="middle" x="0" y="597" style="font-family: 'Open Sans', verdana, arial, sans-serif; font-size: 12px; fill: rgb(42, 63, 95); fill-opacity: 1; white-space: pre; opacity: 1;" transform="translate(337.23,0)">2010</text></g><g class="xtick"><text text-anchor="middle" x="0" y="597" style="font-family: 'Open Sans', verdana, arial, sans-serif; font-size: 12px; fill: rgb(42, 63, 95); fill-opacity: 1; white-space: pre; opacity: 1;" transform="translate(467.22,0)">2015</text></g><g class="xtick"><text text-anchor="middle" x="0" y="597" style="font-family: 'Open Sans', verdana, arial, sans-serif; font-size: 12px; fill: rgb(42, 63, 95); fill-opacity: 1; white-space: pre; opacity: 1;" transform="translate(597.2,0)">2020</text></g></g><g class="yaxislayer-above"><g class="ytick"><text text-anchor="end" x="48" y="4.199999999999999" transform="translate(0,511.65)" style="font-family: 'Open Sans', verdana, arial, sans-serif; font-size: 12px; fill: rgb(42, 63, 95); fill-opacity: 1; white-space: pre; opacity: 1;">160</text></g><g class="ytick"><text text-anchor="end" x="48" y="4.199999999999999" style="font-family: 'Open Sans', verdana, arial, sans-serif; font-size: 12px; fill: rgb(42, 63, 95); fill-opacity: 1; white-space: pre; opacity: 1;" transform="translate(0,421.5)">180</text></g><g class="ytick"><text text-anchor="end" x="48" y="4.199999999999999" style="font-family: 'Open Sans', verdana, arial, sans-serif; font-size: 12px; fill: rgb(42, 63, 95); fill-opacity: 1; white-space: pre; opacity: 1;" transform="translate(0,331.35)">200</text></g><g class="ytick"><text text-anchor="end" x="48" y="4.199999999999999" style="font-family: 'Open Sans', verdana, arial, sans-serif; font-size: 12px; fill: rgb(42, 63, 95); fill-opacity: 1; white-space: pre; opacity: 1;" transform="translate(0,241.21)">220</text></g><g class="ytick"><text text-anchor="end" x="48" y="4.199999999999999" style="font-family: 'Open Sans', verdana, arial, sans-serif; font-size: 12px; fill: rgb(42, 63, 95); fill-opacity: 1; white-space: pre; opacity: 1;" transform="translate(0,151.06)">240</text></g><g class="ytick"><text text-anchor="end" x="48" y="4.199999999999999" style="font-family: 'Open Sans', verdana, arial, sans-serif; font-size: 12px; fill: rgb(42, 63, 95); fill-opacity: 1; white-space: pre; opacity: 1;" transform="translate(0,60.91)">260</text></g></g><g class="overaxes-above"><g class="xy2-x"/><g class="xy2-y"><g class="y2tick"><text text-anchor="start" x="700" y="4.199999999999999" transform="translate(0,541.11)" style="font-family: 'Open Sans', verdana, arial, sans-serif; font-size: 12px; fill: rgb(42, 63, 95); fill-opacity: 1; white-space: pre; opacity: 1;">2200</text></g><g class="y2tick"><text text-anchor="start" x="700" y="4.199999999999999" style="font-family: 'Open Sans', verdana, arial, sans-serif; font-size: 12px; fill: rgb(42, 63, 95); fill-opacity: 1; white-space: pre; opacity: 1;" transform="translate(0,436.62)">2400</text></g><g class="y2tick"><text text-anchor="start" x="700" y="4.199999999999999" style="font-family: 'Open Sans', verdana, arial, sans-serif; font-size: 12px; fill: rgb(42, 63, 95); fill-opacity: 1; white-space: pre; opacity: 1;" transform="translate(0,332.13)">2600</text></g><g class="y2tick"><text text-anchor="start" x="700" y="4.199999999999999" style="font-family: 'Open Sans', verdana, arial, sans-serif; font-size: 12px; fill: rgb(42, 63, 95); fill-opacity: 1; white-space: pre; opacity: 1;" transform="translate(0,227.64)">2800</text></g><g class="y2tick"><text text-anchor="start" x="700" y="4.199999999999999" style="font-family: 'Open Sans', verdana, arial, sans-serif; font-size: 12px; fill: rgb(42, 63, 95); fill-opacity: 1; white-space: pre; opacity: 1;" transform="translate(0,123.15)">3000</text></g></g></g></g><g class="subplot xy2"/></g><g class="polarlayer"/><g class="smithlayer"/><g class="ternarylayer"/><g class="geolayer"/><g class="funnelarealayer"/><g class="pielayer"/><g class="iciclelayer"/><g class="treemaplayer"/><g class="sunburstlayer"/><g class="glimages"/><defs id="topdefs-340b5e"><g class="clips"/><clipPath id="legend340b5e"><rect width="88" height="48" x="0" y="0"/></clipPath></defs><g class="layer-above"><g class="imagelayer"/><g class="shapelayer"/></g><g class="infolayer"><g class="legend" pointer-events="all" transform="translate(712,20)"><rect class="bg" shape-rendering="crispEdges" width="88" height="48" x="0" y="0" style="stroke: rgb(68, 68, 68); stroke-opacity: 1; fill: rgb(255, 255, 255); fill-opacity: 1; stroke-width: 0px;"/><g class="scrollbox" transform="" clip-path="url(#legend340b5e)"><g class="groups"><g class="traces" transform="translate(0,14.5)" style="opacity: 1;"><text class="legendtext" text-anchor="start" x="40" y="4.680000000000001" style="font-family: 'Open Sans', verdana, arial, sans-serif; font-size: 12px; fill: rgb(42, 63, 95); fill-opacity: 1; white-space: pre;">Hunter</text><g class="layers" style="opacity: 1;"><g class="legendfill"/><g class="legendlines"><path class="js-line" d="M5,0h30" style="fill: none; stroke: rgb(99, 110, 250); stroke-opacity: 1; stroke-width: 2px;"/></g><g class="legendsymbols"><g class="legendpoints"/></g></g><rect class="legendtoggle" x="0" y="-9.5" width="82.09375" height="19" style="fill: rgb(0, 0, 0); fill-opacity: 0;"/></g><g class="traces" transform="translate(0,33.5)" style="opacity: 1;"><text class="legendtext" text-anchor="start" x="40" y="4.680000000000001" style="font-family: 'Open Sans', verdana, arial, sans-serif; font-size: 12px; fill: rgb(42, 63, 95); fill-opacity: 1; white-space: pre;">NSW</text><g class="layers" style="opacity: 1;"><g class="legendfill"/><g class="legendlines"><path class="js-line" d="M5,0h30" style="fill: none; stroke: rgb(239, 85, 59); stroke-opacity: 1; stroke-width: 2px;"/></g><g class="legendsymbols"><g class="legendpoints"/></g></g><rect class="legendtoggle" x="0" y="-9.5" width="82.09375" height="19" style="fill: rgb(0, 0, 0); fill-opacity: 0;"/></g></g></g><rect class="scrollbar" rx="20" ry="3" width="0" height="0" x="0" y="0" style="fill: rgb(128, 139, 164); fill-opacity: 1;"/></g><g class="g-gtitle"/><g class="g-xtitle"/><g class="g-ytitle" transform="translate(13.6904296875,0)"><text class="ytitle" transform="rotate(-90,0.30937500000000284,302)" x="0.30937500000000284" y="302" text-anchor="middle" style="font-family: 'Open Sans', verdana, arial, sans-serif; font-size: 14px; fill: rgb(42, 63, 95); opacity: 1; font-weight: normal; white-space: pre;">Hunter Employment ('000)</text></g><g class="g-y2title"><text class="y2title" transform="rotate(-90,755.315625,302)" x="755.315625" y="302" text-anchor="middle" style="font-family: 'Open Sans', verdana, arial, sans-serif; font-size: 14px; fill: rgb(42, 63, 95); opacity: 1; font-weight: normal; white-space: pre;">NSW Employment ('000)</text></g></g></svg>