<svg class="main-svg" xmlns="http://www.w3.org/2000/svg" xmlns:xlink="http://www.w3.org/1999/xlink" width="600" height="400" style="" viewBox="0 0 600 400"><rect x="0" y="0" width="600" height="400" style="fill: rgb(255, 255, 255); fill-opacity: 1;"/><defs id="defs-19bf7c"><g class="clips"><clipPath id="clip19bf7cxyplot" class="plotclip"><rect width="557" height="364"/></clipPath><clipPath class="axesclip" id="clip19bf7cx"><rect x="43" y="0" width="557" height="400"/></clipPath><clipPath class="axesclip" id="clip19bf7cy"><rect x="0" y="20" width="600" height="364"/></clipPath><clipPath class="axesclip" id="clip19bf7cxy"><rect x="43" y="20" width="557" height="364"/></clipPath></g><g class="gradients"/><g class="patterns"/></defs><g class="bglayer"/><g class="layer-below"><g class="imagelayer"/><g class="shapelayer"/></g><g class="cartesianlayer"><g class="subplot xy"><g class="layer-subplot"><g class="shapelayer"/><g class="imagelayer"/></g><g class="minor-gridlayer"><g class="x"/><g class="y"/></g><g class="gridlayer"><g class="x"><path class="xgrid crisp" transform="translate(167.88,0)" d="M0,20v364" style="stroke: rgb(235, 240, 248); stroke-opacity: 1; stroke-width: 1px;"/><path class="xgrid crisp" transform="translate(295.90999999999997,0)" d="M0,20v364" style="stroke: rgb(235, 240, 248); stroke-opacity: 1; stroke-width: 1px;"/><path class="xgrid crisp" transform="translate(423.97,0)" d="M0,20v364" style="stroke: rgb(235, 240, 248); stroke-opacity: 1; stroke-width: 1px;"/><path class="xgrid crisp" transform="translate(552.01,0)" d="M0,20v364" style="stroke: rgb(235, 240, 248); stroke-opacity: 1; stroke-width: 1px;"/></g><g class="y"><path class="ygrid crisp" transform="translate(0,365.8)" d="M43,0h557" style="stroke: rgb(235, 240, 248); stroke-opacity: 1; stroke-width: 1px;"/><path class="ygrid crisp" transform="translate(0,325.36)" d="M43,0h557" style="stroke: rgb(235, 240, 248); stroke-opacity: 1; stroke-width: 1px;"/><path class="ygrid crisp" transform="translate(0,284.91)" d="M43,0h557" style="stroke: rgb(235, 240, 248); stroke-opacity: 1; stroke-width: 1px;"/><path class="ygrid crisp" transform="translate(0,204.02)" d="M43,0h557" style="stroke: rgb(235, 240, 248); stroke-opacity: 1; stroke-width: 1px;"/><path class="ygrid crisp" transform="translate(0,163.58)" d="M43,0h557" style="stroke: rgb(235, 240, 248); stroke-opacity: 1; stroke-width: 1px;"/><path class="ygrid crisp" transform="translate(0,123.13)" d="M43,0h557" style="stroke: rgb(235, 240, 248); stroke-opacity: 1; stroke-width: 1px;"/><path class="ygrid crisp" transform="translate(0,82.69)" d="M43,0h557" style="stroke: rgb(235, 240, 248); stroke-opacity: 1; stroke-width: 1px;"/><path class="ygrid crisp" transform="translate(0,42.239999999999995)" d="M43,0h557" style="stroke: rgb(235, 240, 248); stroke-opacity: 1; stroke-width: 1px;"/></g></g><g class="zerolinelayer"><path class="yzl zl crisp" transform="translate(0,244.47)" d="M43,0h557" style="stroke: rgb(235, 240, 248); stroke-opacity: 1; stroke-width: 2px;"/></g><path class="xlines-below"/><path class="ylines-below"/><g class="overlines-below"/><g class="xaxislayer-below"/><g class="yaxislayer-below"/><g class="overaxes-below"/><g class="plot" transform="translate(43,20)" clip-path="url(#clip19bf7cxyplot)"><g class="scatterlayer mlayer"><g class="trace scatter trace599e1f" style="stroke-miterlimit: 2; opacity: 1;"><g class="fills"/><g class="errorbars"/><g class="lines"><path class="js-line" d="M9.64,165.82L12.8,165.82L15.99,141.56L19.21,111.22L22.44,153.69L25.59,177.96L28.78,190.09L32.01,244.69L35.23,268.96L38.39,273L41.58,295.24L51.22,86.96L54.41,60.67L57.64,99.09L60.86,119.31L64.02,141.56L67.21,119.31L70.43,111.22L73.66,131.44L76.81,145.6L80,194.13L83.23,214.36L86.45,173.91L89.61,167.84L92.8,131.44L96.02,101.11L99.25,95.04L102.44,107.18L105.63,137.51L108.85,157.73L112.08,165.82L115.24,153.69L118.43,113.24L121.65,113.24L124.88,151.67L128.03,155.71L131.22,196.16L134.45,224.47L137.67,206.27L140.83,248.73L144.02,254.8L147.24,234.58L150.47,244.69L153.66,202.22L156.85,184.02L160.07,171.89L163.3,131.44L169.65,135.49L172.87,153.69L176.1,159.76L179.25,141.56L185.67,115.27L188.89,131.44L192.05,163.8L195.24,179.98L198.46,151.67L201.69,171.89L204.88,139.53L208.07,135.49L211.29,163.8L214.52,145.6L217.67,165.82L220.86,117.29L224.09,131.44L227.32,119.31L230.47,119.31L233.66,159.76L236.89,123.36L240.11,121.33L243.27,119.31L246.46,133.47L249.68,149.64L252.91,147.62L256.1,153.69L259.29,141.56L262.51,159.76L265.74,202.22L268.89,190.09L272.08,190.09L275.31,171.89L278.54,139.53L281.69,145.6L284.88,127.4L288.11,145.6L291.33,153.69L294.49,163.8L297.68,192.11L300.9,161.78L304.13,141.56L307.32,131.44L310.51,125.38L316.96,165.82L320.11,163.8L323.3,167.84L326.53,159.76L329.75,159.76L332.91,173.91L336.1,179.98L339.33,171.89L342.55,163.8L345.71,137.51L348.9,129.42L352.12,137.51L355.35,153.69L358.54,161.78L361.73,167.84L364.95,175.93L368.18,192.11L371.33,192.11L374.52,184.02L377.75,192.11L380.97,167.84L384.13,177.96L387.32,179.98L390.55,171.89L393.77,169.87L396.93,186.04L403.34,159.76L406.57,155.71L409.76,129.42L412.95,139.53L416.17,155.71L419.4,167.84L422.55,177.96L425.74,184.02L428.97,179.98L432.19,173.91L435.35,167.84L438.54,165.82L444.99,182L448.15,177.96L451.34,186.04L454.56,173.91L457.79,169.87L460.98,171.89L464.17,159.76L467.39,179.98L470.62,169.87L473.77,179.98L476.96,182L480.19,163.8L483.41,177.96L486.57,163.8L489.76,159.76L492.98,169.87L496.21,173.91L499.36,184.02L502.56,194.13L505.78,190.09L509.01,184.02L512.2,200.2L515.39,345.8L518.61,283.11L524.99,175.93L528.18,18.2L531.41,131.44L534.63,115.27L537.79,149.64L540.98,151.67L544.2,109.2L547.43,175.93L550.58,175.93L553.77,184.02L557,184.02" style="vector-effect: non-scaling-stroke; fill: none; stroke: rgb(9, 50, 102); stroke-opacity: 1; stroke-width: 2px; opacity: 1;"/></g><g class="points"/><g class="text"/></g></g></g><g class="overplot"/><path class="xlines-above crisp" d="M0,0" style="fill: none;"/><path class="ylines-above crisp" d="M0,0" style="fill: none;"/><g class="overlines-above"/><g class="xaxislayer-above"><g class="xtick"><text text-anchor="middle" x="0" y="397" transform="translate(167.88,0)" style="font-family: 'Open Sans', verdana, arial, sans-serif; font-size: 12px; fill: rgb(42, 63, 95); fill-opacity: 1; white-space: pre; opacity: 1;">1990</text></g><g class="xtick"><text text-anchor="middle" x="0" y="397" style="font-family: 'Open Sans', verdana, arial, sans-serif; font-size: 12px; fill: rgb(42, 63, 95); fill-opacity: 1; white-space: pre; opacity: 1;" transform="translate(295.90999999999997,0)">2000</text></g><g class="xtick"><text text-anchor="middle" x="0" y="397" style="font-family: 'Open Sans', verdana, arial, sans-serif; font-size: 12px; fill: rgb(42, 63, 95); fill-opacity: 1; white-space: pre; opacity: 1;" transform="translate(423.97,0)">2010</text></g><g class="xtick"><text text-anchor="middle" x="0" y="397" style="font-family: 'Open Sans', verdana, arial, sans-serif; font-size: 12px; fill: rgb(42, 63, 95); fill-opacity: 1; white-space: pre; opacity: 1;" transform="translate(552.01,0)">2020</text></g></g><g class="yaxislayer-above"><g class="ytick"><text text-anchor="end" x="42" y="4.199999999999999" transform="translate(0,365.8)" style="font-family: 'Open Sans', verdana, arial, sans-serif; font-size: 12px; fill: rgb(42, 63, 95); fill-opacity: 1; white-space: pre; opacity: 1;">−6</text></g><g class="ytick"><text text-anchor="end" x="42" y="4.199999999999999" style="font-family: 'Open Sans', verdana, arial, sans-serif; font-size: 12px; fill: rgb(42, 63, 95); fill-opacity: 1; white-space: pre; opacity: 1;" transform="translate(0,325.36)">−4</text></g><g class="ytick"><text text-anchor="end" x="42" y="4.199999999999999" style="font-family: 'Open Sans', verdana, arial, sans-serif; font-size: 12px; fill: rgb(42, 63, 95); fill-opacity: 1; white-space: pre; opacity: 1;" transform="translate(0,284.91)">−2</text></g><g class="ytick"><text text-anchor="end" x="42" y="4.199999999999999" style="font-family: 'Open Sans', verdana, arial, sans-serif; font-size: 12px; fill: rgb(42, 63, 95); fill-opacity: 1; white-space: pre; opacity: 1;" transform="translate(0,244.47)">0</text></g><g class="ytick"><text text-anchor="end" x="42" y="4.199999999999999" style="font-family: 'Open Sans', verdana, arial, sans-serif; font-size: 12px; fill: rgb(42, 63, 95); fill-opacity: 1; white-space: pre; opacity: 1;" transform="translate(0,204.02)">2</text></g><g class="ytick"><text text-anchor="end" x="42" y="4.199999999999999" style="font-family: 'Open Sans', verdana, arial, sans-serif; font-size: 12px; fill: rgb(42, 63, 95); fill-opacity: 1; white-space: pre; opacity: 1;" transform="translate(0,163.58)">4</text></g><g class="ytick"><text text-anchor="end" x="42" y="4.199999999999999" style="font-family: 'Open Sans', verdana, arial, sans-serif; font-size: 12px; fill: rgb(42, 63, 95); fill-opacity: 1; white-space: pre; opacity: 1;" transform="translate(0,123.13)">6</text></g><g class="ytick"><text text-anchor="end" x="42" y="4.199999999999999" style="font-family: 'Open Sans', verdana, arial, sans-serif; font-size: 12px; fill: rgb(42, 63, 95); fill-opacity: 1; white-space: pre; opacity: 1;" transform="translate(0,82.69)">8</text></g><g class="ytick"><text text-anchor="end" x="42" y="4.199999999999999" style="font-family: 'Open Sans', verdana, arial, sans-serif; font-size: 12px; fill: rgb(42, 63, 95); fill-opacity: 1; white-space: pre; opacity: 1;" transform="translate(0,42.239999999999995)">10</text></g></g><g class="overaxes-above"/></g></g><g class="polarlayer"/><g class="smithlayer"/><g class="ternarylayer"/><g class="geolayer"/><g class="funnelarealayer"/><g class="pielayer"/><g class="iciclelayer"/><g class="treemaplayer"/><g class="sunburstlayer"/><g class="glimages"/><defs id="topdefs-19bf7c"><g class="clips"/></defs><g class="layer-above"><g class="imagelayer"/><g class="shapelayer"/></g><g class="infolayer"><g class="g-gtitle"/><g class="g-xtitle"/><g class="g-ytitle" transform="translate(14.2529296875,0)"><text class="ytitle" transform="rotate(-90,-0.25312499999999716,202)" x="-0.25312499999999716" y="202" text-anchor="middle" style="font-family: 'Open Sans', verdana, arial, sans-serif; font-size: 14px; fill: rgb(42, 63, 95); opacity: 1; font-weight: normal; white-space: pre;">GDP Growth % p.a.</text></g><g class="annotation" data-index="0" style="opacity: 1;"><g class="annotation-text-g" transform="rotate(0,281.07,485.2)"><g class="cursor-pointer" transform="translate(49,477)"><rect class="bg" x="0.5" y="0.5" width="464" height="15" style="stroke-width: 1px; stroke: rgb(0, 0, 0); stroke-opacity: 0; fill: rgb(0, 0, 0); fill-opacity: 0;"/><text class="annotation-text" text-anchor="middle" x="232.53125" y="12" style="font-family: 'Open Sans', verdana, arial, sans-serif; font-size: 10px; fill: rgb(42, 63, 95); fill-opacity: 1; white-space: pre;">Data source: ABS Australian National Accounts: National Income, Expenditure and Product.</text></g></g></g></g></svg>