<svg class="main-svg" xmlns="http://www.w3.org/2000/svg" xmlns:xlink="http://www.w3.org/1999/xlink" width="800" height="600" style="" viewBox="0 0 800 600"><rect x="0" y="0" width="800" height="600" style="fill: rgb(255, 255, 255); fill-opacity: 1;"/><defs id="defs-42a1b9"><g class="clips"><clipPath id="clip42a1b9xyplot" class="plotclip"><rect width="542" height="564"/></clipPath><clipPath class="axesclip" id="clip42a1b9x"><rect x="56" y="0" width="542" height="600"/></clipPath><clipPath class="axesclip" id="clip42a1b9y"><rect x="0" y="20" width="800" height="564"/></clipPath><clipPath class="axesclip" id="clip42a1b9xy"><rect x="56" y="20" width="542" height="564"/></clipPath></g><g class="gradients"/><g class="patterns"/></defs><g class="bglayer"><rect class="bg" x="56" y="20" width="542" height="564" style="fill: rgb(229, 236, 246); fill-opacity: 1; stroke-width: 0;"/></g><g class="layer-below"><g class="imagelayer"/><g class="shapelayer"/></g><g class="cartesianlayer"><g class="subplot xy"><g class="layer-subplot"><g class="shapelayer"/><g class="imagelayer"/></g><g class="minor-gridlayer"><g class="x"/><g class="y"/></g><g class="gridlayer"><g class="x"><path class="xgrid crisp" transform="translate(111.75999999999999,0)" d="M0,20v564" style="stroke: rgb(255, 255, 255); stroke-opacity: 1; stroke-width: 1px;"/><path class="xgrid crisp" transform="translate(233.45,0)" d="M0,20v564" style="stroke: rgb(255, 255, 255); stroke-opacity: 1; stroke-width: 1px;"/><path class="xgrid crisp" transform="translate(354.97,0)" d="M0,20v564" style="stroke: rgb(255, 255, 255); stroke-opacity: 1; stroke-width: 1px;"/><path class="xgrid crisp" transform="translate(476.65,0)" d="M0,20v564" style="stroke: rgb(255, 255, 255); stroke-opacity: 1; stroke-width: 1px;"/></g><g class="y"><path class="ygrid crisp" transform="translate(0,561.83)" d="M56,0h542" style="stroke: rgb(255, 255, 255); stroke-opacity: 1; stroke-width: 1px;"/><path class="ygrid crisp" transform="translate(0,494.78)" d="M56,0h542" style="stroke: rgb(255, 255, 255); stroke-opacity: 1; stroke-width: 1px;"/><path class="ygrid crisp" transform="translate(0,427.73)" d="M56,0h542" style="stroke: rgb(255, 255, 255); stroke-opacity: 1; stroke-width: 1px;"/><path class="ygrid crisp" transform="translate(0,360.67)" d="M56,0h542" style="stroke: rgb(255, 255, 255); stroke-opacity: 1; stroke-width: 1px;"/><path class="ygrid crisp" transform="translate(0,293.62)" d="M56,0h542" style="stroke: rgb(255, 255, 255); stroke-opacity: 1; stroke-width: 1px;"/><path class="ygrid crisp" transform="translate(0,226.56)" d="M56,0h542" style="stroke: rgb(255, 255, 255); stroke-opacity: 1; stroke-width: 1px;"/><path class="ygrid crisp" transform="translate(0,159.51)" d="M56,0h542" style="stroke: rgb(255, 255, 255); stroke-opacity: 1; stroke-width: 1px;"/><path class="ygrid crisp" transform="translate(0,92.46)" d="M56,0h542" style="stroke: rgb(255, 255, 255); stroke-opacity: 1; stroke-width: 1px;"/><path class="ygrid crisp" transform="translate(0,25.4)" d="M56,0h542" style="stroke: rgb(255, 255, 255); stroke-opacity: 1; stroke-width: 1px;"/></g></g><g class="zerolinelayer"/><path class="xlines-below"/><path class="ylines-below"/><g class="overlines-below"/><g class="xaxislayer-below"/><g class="yaxislayer-below"/><g class="overaxes-below"/><g class="plot" transform="translate(56,20)" clip-path="url(#clip42a1b9xyplot)"><g class="scatterlayer mlayer"><g class="trace scatter trace79f8c0" style="stroke-miterlimit: 2; opacity: 1;"><g class="fills"/><g class="errorbars"/><g class="lines"><path class="js-line" d="M0,535.13L4.66,535.8L9.82,512.67L14.82,515.01L19.98,498.58L24.97,513.67L30.13,501.6L35.29,519.71L40.28,513.34L50.44,481.49L55.6,525.07L65.59,481.49L70.75,486.52L75.74,468.08L80.9,461.37L91.05,516.35L96.21,477.16L101.21,501.6L106.37,481.49L111.36,474.78L116.52,461.37L121.68,454.66L126.34,459.19L131.5,461.37L136.5,444.61L141.66,441.25L146.65,451.31L151.81,464.72L156.97,447.96L161.97,443.94L167.13,430.19L172.12,407.73L177.28,434.55L182.44,441.25L187.1,421.14L192.26,407.73L197.26,387.61L202.42,394.32L207.41,407.73L212.57,398.34L217.73,407.73L222.73,394.32L227.89,398.34L232.88,401.02L238.04,401.02L243.2,411.08L247.86,377.55L253.02,426.5L258.02,374.2L263.18,390.29L268.17,447.96L273.33,397L278.49,427.84L283.48,411.08L288.64,407.73L293.64,418.86L298.8,374.2L303.96,418.46L308.79,404.37L313.95,391.63L318.94,434.55L324.1,427.84L329.1,405.71L334.26,411.08L339.42,367.49L344.41,369.51L349.57,367.49L354.56,300.44L359.72,363.47L364.88,329.94L369.55,334.64L374.71,300.44L379.7,256.18L384.86,243.44L389.85,208.64L395.01,199.05L400.17,197.18L405.17,139.51L410.33,129.12L415.32,122.75L420.48,119.39L430.3,28.2L435.46,70.76L440.46,73.8L445.62,55.02L450.61,72.46L455.77,72.46L460.93,109.34L465.93,72.46L471.09,79.16L476.08,112.69L481.24,32.22L486.4,110.56L491.06,79.16L496.22,63.07L501.22,99.28L506.38,75.81L511.37,59.04L516.53,65.75L521.69,72.46L526.69,97.27L531.85,54.35L536.84,72.46L542,126.1" style="vector-effect: non-scaling-stroke; fill: none; stroke: rgb(99, 110, 250); stroke-opacity: 1; stroke-width: 2px; opacity: 1;"/></g><g class="points"/><g class="text"/></g><g class="trace scatter trace0f7277" style="stroke-miterlimit: 2; opacity: 1;"><g class="fills"/><g class="errorbars"/><g class="lines"><path class="js-line" d="M24.97,514.34L30.13,513.17L35.29,513.17L40.28,513.5L45.44,507.47L60.76,507.47L65.59,498.92L75.74,484L80.9,484L91.05,484L96.21,481.84L101.21,482.68L106.37,484.84L111.36,484.84L116.52,479.32L121.68,475.97L126.34,468.08L131.5,461.37L136.5,460.28L146.65,452.99L151.81,455.25L156.97,449.64L161.97,446.28L172.12,445.95L177.28,439.24L182.44,437.9L187.1,432.37L192.26,425.66L197.26,414.43L202.42,414.43L207.41,407.73L212.57,403.03L217.73,403.03L222.73,396.33L227.89,398.34L232.88,399.68L238.04,399.68L243.2,401.02L247.86,399.68L253.02,401.02L258.02,401.02L263.18,395.66L268.17,400.69L273.33,393.65L278.49,411.75L283.48,404.04L288.64,409.4L293.64,414.97L298.8,409.4L303.96,414.77L308.79,409.4L313.95,406.05L318.94,411.41L329.1,412.09L334.26,408.4L344.41,408.4L349.57,387.61L354.56,368.5L359.72,367.49L364.88,365.48L369.55,349.05L379.7,315.19L384.86,315.19L389.85,278.31L395.01,249.81L405.17,203.85L410.33,198.12L420.48,134.31L425.64,125.93L430.3,121.07L435.46,95.08L440.46,72.28L445.62,69.93L450.61,69.93L455.77,71.61L460.93,72.46L465.93,72.46L471.09,72.46L476.08,75.81L481.24,75.81L486.4,94.25L491.06,79.16L496.22,79.16L501.22,89.22L506.38,77.48L511.37,77.48L516.53,70.78L521.69,69.1L526.69,74.13L531.85,69.1L536.84,69.1L542,72.46" style="vector-effect: non-scaling-stroke; fill: none; stroke: rgb(239, 85, 59); stroke-opacity: 1; stroke-width: 2px; opacity: 1;"/></g><g class="points"/><g class="text"/></g></g></g><g class="overplot"/><path class="xlines-above crisp" d="M0,0" style="fill: none;"/><path class="ylines-above crisp" d="M0,0" style="fill: none;"/><g class="overlines-above"/><g class="xaxislayer-above"><g class="xtick"><text text-anchor="middle" x="0" y="597" transform="translate(111.75999999999999,0)" style="font-family: 'Open Sans', verdana, arial, sans-serif; font-size: 12px; fill: rgb(42, 63, 95); fill-opacity: 1; white-space: pre; opacity: 1;">2016</text></g><g class="xtick"><text text-anchor="middle" x="0" y="597" style="font-family: 'Open Sans', verdana, arial, sans-serif; font-size: 12px; fill: rgb(42, 63, 95); fill-opacity: 1; white-space: pre; opacity: 1;" transform="translate(233.45,0)">2018</text></g><g class="xtick"><text text-anchor="middle" x="0" y="597" style="font-family: 'Open Sans', verdana, arial, sans-serif; font-size: 12px; fill: rgb(42, 63, 95); fill-opacity: 1; white-space: pre; opacity: 1;" transform="translate(354.97,0)">2020</text></g><g class="xtick"><text text-anchor="middle" x="0" y="597" style="font-family: 'Open Sans', verdana, arial, sans-serif; font-size: 12px; fill: rgb(42, 63, 95); fill-opacity: 1; white-space: pre; opacity: 1;" transform="translate(476.65,0)">2022</text></g></g><g class="yaxislayer-above"><g class="ytick"><text text-anchor="end" x="55" y="4.199999999999999" transform="translate(0,561.83)" style="font-family: 'Open Sans', verdana, arial, sans-serif; font-size: 12px; fill: rgb(42, 63, 95); fill-opacity: 1; white-space: pre; opacity: 1;">350k</text></g><g class="ytick"><text text-anchor="end" x="55" y="4.199999999999999" style="font-family: 'Open Sans', verdana, arial, sans-serif; font-size: 12px; fill: rgb(42, 63, 95); fill-opacity: 1; white-space: pre; opacity: 1;" transform="translate(0,494.78)">400k</text></g><g class="ytick"><text text-anchor="end" x="55" y="4.199999999999999" style="font-family: 'Open Sans', verdana, arial, sans-serif; font-size: 12px; fill: rgb(42, 63, 95); fill-opacity: 1; white-space: pre; opacity: 1;" transform="translate(0,427.73)">450k</text></g><g class="ytick"><text text-anchor="end" x="55" y="4.199999999999999" style="font-family: 'Open Sans', verdana, arial, sans-serif; font-size: 12px; fill: rgb(42, 63, 95); fill-opacity: 1; white-space: pre; opacity: 1;" transform="translate(0,360.67)">500k</text></g><g class="ytick"><text text-anchor="end" x="55" y="4.199999999999999" style="font-family: 'Open Sans', verdana, arial, sans-serif; font-size: 12px; fill: rgb(42, 63, 95); fill-opacity: 1; white-space: pre; opacity: 1;" transform="translate(0,293.62)">550k</text></g><g class="ytick"><text text-anchor="end" x="55" y="4.199999999999999" style="font-family: 'Open Sans', verdana, arial, sans-serif; font-size: 12px; fill: rgb(42, 63, 95); fill-opacity: 1; white-space: pre; opacity: 1;" transform="translate(0,226.56)">600k</text></g><g class="ytick"><text text-anchor="end" x="55" y="4.199999999999999" style="font-family: 'Open Sans', verdana, arial, sans-serif; font-size: 12px; fill: rgb(42, 63, 95); fill-opacity: 1; white-space: pre; opacity: 1;" transform="translate(0,159.51)">650k</text></g><g class="ytick"><text text-anchor="end" x="55" y="4.199999999999999" style="font-family: 'Open Sans', verdana, arial, sans-serif; font-size: 12px; fill: rgb(42, 63, 95); fill-opacity: 1; white-space: pre; opacity: 1;" transform="translate(0,92.46)">700k</text></g><g class="ytick"><text text-anchor="end" x="55" y="4.199999999999999" style="font-family: 'Open Sans', verdana, arial, sans-serif; font-size: 12px; fill: rgb(42, 63, 95); fill-opacity: 1; white-space: pre; opacity: 1;" transform="translate(0,25.4)">750k</text></g></g><g class="overaxes-above"/></g></g><g class="polarlayer"/><g class="smithlayer"/><g class="ternarylayer"/><g class="geolayer"/><g class="funnelarealayer"/><g class="pielayer"/><g class="iciclelayer"/><g class="treemaplayer"/><g class="sunburstlayer"/><g class="glimages"/><defs id="topdefs-42a1b9"><g class="clips"/><clipPath id="legend42a1b9"><rect width="191" height="67" x="0" y="0"/></clipPath></defs><g class="layer-above"><g class="imagelayer"/><g class="shapelayer"><path data-index="0" fill-rule="evenodd" d="M585.63,584L585.63,20" clip-path="url(#clip42a1b9x)" style="opacity: 1; stroke: rgb(0, 128, 0); stroke-opacity: 1; fill: rgb(0, 0, 0); fill-opacity: 0; stroke-dasharray: 3px, 3px; stroke-width: 2px;"/></g></g><g class="infolayer"><g class="legend" pointer-events="all" transform="translate(608.84,20)"><rect class="bg" shape-rendering="crispEdges" width="191" height="67" x="0" y="0" style="stroke: rgb(68, 68, 68); stroke-opacity: 1; fill: rgb(255, 255, 255); fill-opacity: 1; stroke-width: 0px;"/><g class="scrollbox" transform="" clip-path="url(#legend42a1b9)"><text class="legendtitletext" text-anchor="start" x="2" y="18.2" style="font-family: 'Open Sans', verdana, arial, sans-serif; font-size: 14px; fill: rgb(42, 63, 95); fill-opacity: 1; white-space: pre;">variable</text><g class="groups" transform=""><g class="traces" transform="translate(0,32.7)" style="opacity: 1;"><text class="legendtext" text-anchor="start" x="40" y="4.680000000000001" style="font-family: 'Open Sans', verdana, arial, sans-serif; font-size: 12px; fill: rgb(42, 63, 95); fill-opacity: 1; white-space: pre;">Purchase price</text><g class="layers" style="opacity: 1;"><g class="legendfill"/><g class="legendlines"><path class="js-line" d="M5,0h30" style="fill: none; stroke: rgb(99, 110, 250); stroke-opacity: 1; stroke-width: 2px;"/></g><g class="legendsymbols"><g class="legendpoints"/></g></g><rect class="legendtoggle" x="0" y="-9.5" width="185.0625" height="19" style="fill: rgb(0, 0, 0); fill-opacity: 0;"/></g></g><g class="groups" transform=""><g class="traces" transform="translate(0,51.7)" style="opacity: 1;"><text class="legendtext" text-anchor="start" x="40" y="4.680000000000001" style="font-family: 'Open Sans', verdana, arial, sans-serif; font-size: 12px; fill: rgb(42, 63, 95); fill-opacity: 1; white-space: pre;">Rolling 6-month median</text><g class="layers" style="opacity: 1;"><g class="legendfill"/><g class="legendlines"><path class="js-line" d="M5,0h30" style="fill: none; stroke: rgb(239, 85, 59); stroke-opacity: 1; stroke-width: 2px;"/></g><g class="legendsymbols"><g class="legendpoints"/></g></g><rect class="legendtoggle" x="0" y="-9.5" width="185.0625" height="19" style="fill: rgb(0, 0, 0); fill-opacity: 0;"/></g></g></g><rect class="scrollbar" rx="20" ry="3" width="0" height="0" x="0" y="0" style="fill: rgb(128, 139, 164); fill-opacity: 1;"/></g><g class="g-gtitle"/><g class="g-xtitle"/><g class="g-ytitle" transform="translate(13.7998046875,0)"><text class="ytitle" transform="rotate(-90,0.20000000000000284,302)" x="0.20000000000000284" y="302" text-anchor="middle" style="font-family: 'Open Sans', verdana, arial, sans-serif; font-size: 14px; fill: rgb(42, 63, 95); opacity: 1; font-weight: normal; white-space: pre;">value</text></g></g></svg>