<svg class="main-svg" xmlns="http://www.w3.org/2000/svg" xmlns:xlink="http://www.w3.org/1999/xlink" width="800" height="600" style="" viewBox="0 0 800 600"><rect x="0" y="0" width="800" height="600" style="fill: rgb(255, 255, 255); fill-opacity: 1;"/><defs id="defs-62bca8"><g class="clips"><clipPath id="clip62bca8xyplot" class="plotclip"><rect width="542" height="564"/></clipPath><clipPath class="axesclip" id="clip62bca8x"><rect x="56" y="0" width="542" height="600"/></clipPath><clipPath class="axesclip" id="clip62bca8y"><rect x="0" y="20" width="800" height="564"/></clipPath><clipPath class="axesclip" id="clip62bca8xy"><rect x="56" y="20" width="542" height="564"/></clipPath></g><g class="gradients"/><g class="patterns"/></defs><g class="bglayer"><rect class="bg" x="56" y="20" width="542" height="564" style="fill: rgb(229, 236, 246); fill-opacity: 1; stroke-width: 0;"/></g><g class="layer-below"><g class="imagelayer"/><g class="shapelayer"/></g><g class="cartesianlayer"><g class="subplot xy"><g class="layer-subplot"><g class="shapelayer"/><g class="imagelayer"/></g><g class="minor-gridlayer"><g class="x"/><g class="y"/></g><g class="gridlayer"><g class="x"><path class="xgrid crisp" transform="translate(111.75999999999999,0)" d="M0,20v564" style="stroke: rgb(255, 255, 255); stroke-opacity: 1; stroke-width: 1px;"/><path class="xgrid crisp" transform="translate(233.45,0)" d="M0,20v564" style="stroke: rgb(255, 255, 255); stroke-opacity: 1; stroke-width: 1px;"/><path class="xgrid crisp" transform="translate(354.97,0)" d="M0,20v564" style="stroke: rgb(255, 255, 255); stroke-opacity: 1; stroke-width: 1px;"/><path class="xgrid crisp" transform="translate(476.65,0)" d="M0,20v564" style="stroke: rgb(255, 255, 255); stroke-opacity: 1; stroke-width: 1px;"/></g><g class="y"><path class="ygrid crisp" transform="translate(0,528.36)" d="M56,0h542" style="stroke: rgb(255, 255, 255); stroke-opacity: 1; stroke-width: 1px;"/><path class="ygrid crisp" transform="translate(0,459.77)" d="M56,0h542" style="stroke: rgb(255, 255, 255); stroke-opacity: 1; stroke-width: 1px;"/><path class="ygrid crisp" transform="translate(0,391.17)" d="M56,0h542" style="stroke: rgb(255, 255, 255); stroke-opacity: 1; stroke-width: 1px;"/><path class="ygrid crisp" transform="translate(0,322.58)" d="M56,0h542" style="stroke: rgb(255, 255, 255); stroke-opacity: 1; stroke-width: 1px;"/><path class="ygrid crisp" transform="translate(0,253.98)" d="M56,0h542" style="stroke: rgb(255, 255, 255); stroke-opacity: 1; stroke-width: 1px;"/><path class="ygrid crisp" transform="translate(0,185.39)" d="M56,0h542" style="stroke: rgb(255, 255, 255); stroke-opacity: 1; stroke-width: 1px;"/><path class="ygrid crisp" transform="translate(0,116.79)" d="M56,0h542" style="stroke: rgb(255, 255, 255); stroke-opacity: 1; stroke-width: 1px;"/><path class="ygrid crisp" transform="translate(0,48.2)" d="M56,0h542" style="stroke: rgb(255, 255, 255); stroke-opacity: 1; stroke-width: 1px;"/></g></g><g class="zerolinelayer"/><path class="xlines-below"/><path class="ylines-below"/><g class="overlines-below"/><g class="xaxislayer-below"/><g class="yaxislayer-below"/><g class="overaxes-below"/><g class="plot" transform="translate(56,20)" clip-path="url(#clip62bca8xyplot)"><g class="scatterlayer mlayer"><g class="trace scatter trace637c4b" style="stroke-miterlimit: 2; opacity: 1;"><g class="fills"/><g class="errorbars"/><g class="lines"><path class="js-line" d="M0,522.08L4.66,535.8L9.82,524.82L14.82,535.8L19.98,516.94L24.97,535.8L30.13,522.08L35.29,518.65L40.28,508.43L45.44,494.64L50.44,504.93L60.76,531.68L65.59,494.64L70.75,480.92L75.74,487.78L80.9,480.92L85.89,494.64L91.05,489.84L96.21,474.06L101.21,479.55L106.37,453.49L111.36,467.21L116.52,458.65L121.68,442.85L126.34,436.68L131.5,439.77L136.5,439.77L141.66,438.4L146.65,412.33L151.81,453.49L156.97,426.05L161.97,419.19L167.13,409.59L172.12,402.04L177.28,410.96L182.44,405.47L187.1,384.89L197.26,384.89L202.42,388.32L207.41,391.75L212.57,409.59L217.73,412.33L222.73,396.9L232.88,371.86L238.04,384.89L243.2,384.89L247.86,398.61L253.02,398.61L258.02,405.47L268.17,419.19L273.33,405.47L278.49,422.62L283.48,398.61L293.64,371.17L298.8,371.17L303.96,391.75L308.79,371.17L313.95,378.03L318.94,398.61L324.1,378.03L329.1,383.52L334.26,371.17L339.42,371.17L344.41,371.17L349.57,325.56L354.56,302.58L359.72,295.72L364.88,323.16L369.55,288.86L374.71,275.14L379.7,235.36L384.86,233.98L389.85,220.26L395.01,220.26L400.17,188.63L405.17,137.95L410.33,105.36L415.32,96.79L420.48,83.08L425.64,96.79L430.3,28.2L435.46,59.07L440.46,28.2L445.62,69.36L450.61,62.5L455.77,83.08L460.93,119.66L465.93,62.5L471.09,79.65L476.08,83.08L481.24,69.36L486.4,55.64L491.06,70.73L496.22,96.11L501.22,69.36L506.38,96.79L511.37,69.36L516.53,69.36L521.69,28.2L526.69,69.36L531.85,55.64L536.84,83.08L542,124.23" style="vector-effect: non-scaling-stroke; fill: none; stroke: rgb(99, 110, 250); stroke-opacity: 1; stroke-width: 2px; opacity: 1;"/></g><g class="points"/><g class="text"/></g><g class="trace scatter tracefbbeb4" style="stroke-miterlimit: 2; opacity: 1;"><g class="fills"/><g class="errorbars"/><g class="lines"><path class="js-line" d="M24.97,530.31L30.13,530.31L35.29,523.45L45.44,517.79L50.44,513.54L60.76,513.2L65.59,506.68L70.75,499.79L75.74,499.79L80.9,491.21L85.89,491.21L91.05,488.81L96.21,484.35L101.21,484.35L106.37,480.24L111.36,476.81L116.52,470.64L136.5,441.31L141.66,439.77L151.81,439.08L156.97,439.08L161.97,432.22L167.13,422.62L172.12,415.76L177.28,415.07L182.44,410.27L187.1,407.53L192.26,403.76L197.26,393.47L202.42,386.61L207.41,386.61L212.57,386.61L217.73,390.04L222.73,394.32L227.89,394.32L232.88,394.32L238.04,390.89L243.2,384.89L247.86,384.89L253.02,384.89L258.02,391.75L263.18,398.61L268.17,402.04L278.49,408.9L283.48,408.9L288.64,408.9L293.64,402.04L298.8,391.75L303.96,388.32L308.79,378.03L313.95,374.6L318.94,374.6L324.1,378.03L329.1,380.78L334.26,378.03L339.42,378.03L344.41,374.6L349.57,371.17L354.56,371.17L364.88,324.36L369.55,312.87L374.71,299.15L379.7,292.29L384.86,282L389.85,255.25L395.01,234.67L400.17,227.12L405.17,220.26L410.33,204.45L420.48,121.66L425.64,101.08L430.3,96.79L435.46,89.94L440.46,71.07L445.62,64.21L450.61,60.78L455.77,60.78L460.93,65.93L465.93,65.93L476.08,81.36L481.24,81.36L486.4,74.5L491.06,70.04L496.22,75.19L501.22,70.04L542,69.36" style="vector-effect: non-scaling-stroke; fill: none; stroke: rgb(239, 85, 59); stroke-opacity: 1; stroke-width: 2px; opacity: 1;"/></g><g class="points"/><g class="text"/></g></g></g><g class="overplot"/><path class="xlines-above crisp" d="M0,0" style="fill: none;"/><path class="ylines-above crisp" d="M0,0" style="fill: none;"/><g class="overlines-above"/><g class="xaxislayer-above"><g class="xtick"><text text-anchor="middle" x="0" y="597" transform="translate(111.75999999999999,0)" style="font-family: 'Open Sans', verdana, arial, sans-serif; font-size: 12px; fill: rgb(42, 63, 95); fill-opacity: 1; white-space: pre; opacity: 1;">2016</text></g><g class="xtick"><text text-anchor="middle" x="0" y="597" style="font-family: 'Open Sans', verdana, arial, sans-serif; font-size: 12px; fill: rgb(42, 63, 95); fill-opacity: 1; white-space: pre; opacity: 1;" transform="translate(233.45,0)">2018</text></g><g class="xtick"><text text-anchor="middle" x="0" y="597" style="font-family: 'Open Sans', verdana, arial, sans-serif; font-size: 12px; fill: rgb(42, 63, 95); fill-opacity: 1; white-space: pre; opacity: 1;" transform="translate(354.97,0)">2020</text></g><g class="xtick"><text text-anchor="middle" x="0" y="597" style="font-family: 'Open Sans', verdana, arial, sans-serif; font-size: 12px; fill: rgb(42, 63, 95); fill-opacity: 1; white-space: pre; opacity: 1;" transform="translate(476.65,0)">2022</text></g></g><g class="yaxislayer-above"><g class="ytick"><text text-anchor="end" x="55" y="4.199999999999999" transform="translate(0,528.36)" style="font-family: 'Open Sans', verdana, arial, sans-serif; font-size: 12px; fill: rgb(42, 63, 95); fill-opacity: 1; white-space: pre; opacity: 1;">450k</text></g><g class="ytick"><text text-anchor="end" x="55" y="4.199999999999999" style="font-family: 'Open Sans', verdana, arial, sans-serif; font-size: 12px; fill: rgb(42, 63, 95); fill-opacity: 1; white-space: pre; opacity: 1;" transform="translate(0,459.77)">500k</text></g><g class="ytick"><text text-anchor="end" x="55" y="4.199999999999999" style="font-family: 'Open Sans', verdana, arial, sans-serif; font-size: 12px; fill: rgb(42, 63, 95); fill-opacity: 1; white-space: pre; opacity: 1;" transform="translate(0,391.17)">550k</text></g><g class="ytick"><text text-anchor="end" x="55" y="4.199999999999999" style="font-family: 'Open Sans', verdana, arial, sans-serif; font-size: 12px; fill: rgb(42, 63, 95); fill-opacity: 1; white-space: pre; opacity: 1;" transform="translate(0,322.58)">600k</text></g><g class="ytick"><text text-anchor="end" x="55" y="4.199999999999999" style="font-family: 'Open Sans', verdana, arial, sans-serif; font-size: 12px; fill: rgb(42, 63, 95); fill-opacity: 1; white-space: pre; opacity: 1;" transform="translate(0,253.98)">650k</text></g><g class="ytick"><text text-anchor="end" x="55" y="4.199999999999999" style="font-family: 'Open Sans', verdana, arial, sans-serif; font-size: 12px; fill: rgb(42, 63, 95); fill-opacity: 1; white-space: pre; opacity: 1;" transform="translate(0,185.39)">700k</text></g><g class="ytick"><text text-anchor="end" x="55" y="4.199999999999999" style="font-family: 'Open Sans', verdana, arial, sans-serif; font-size: 12px; fill: rgb(42, 63, 95); fill-opacity: 1; white-space: pre; opacity: 1;" transform="translate(0,116.79)">750k</text></g><g class="ytick"><text text-anchor="end" x="55" y="4.199999999999999" style="font-family: 'Open Sans', verdana, arial, sans-serif; font-size: 12px; fill: rgb(42, 63, 95); fill-opacity: 1; white-space: pre; opacity: 1;" transform="translate(0,48.2)">800k</text></g></g><g class="overaxes-above"/></g></g><g class="polarlayer"/><g class="smithlayer"/><g class="ternarylayer"/><g class="geolayer"/><g class="funnelarealayer"/><g class="pielayer"/><g class="iciclelayer"/><g class="treemaplayer"/><g class="sunburstlayer"/><g class="glimages"/><defs id="topdefs-62bca8"><g class="clips"/><clipPath id="legend62bca8"><rect width="191" height="67" x="0" y="0"/></clipPath></defs><g class="layer-above"><g class="imagelayer"/><g class="shapelayer"><path data-index="0" fill-rule="evenodd" d="M585.63,584L585.63,20" clip-path="url(#clip62bca8x)" style="opacity: 1; stroke: rgb(0, 128, 0); stroke-opacity: 1; fill: rgb(0, 0, 0); fill-opacity: 0; stroke-dasharray: 3px, 3px; stroke-width: 2px;"/></g></g><g class="infolayer"><g class="legend" pointer-events="all" transform="translate(608.84,20)"><rect class="bg" shape-rendering="crispEdges" width="191" height="67" x="0" y="0" style="stroke: rgb(68, 68, 68); stroke-opacity: 1; fill: rgb(255, 255, 255); fill-opacity: 1; stroke-width: 0px;"/><g class="scrollbox" transform="" clip-path="url(#legend62bca8)"><text class="legendtitletext" text-anchor="start" x="2" y="18.2" style="font-family: 'Open Sans', verdana, arial, sans-serif; font-size: 14px; fill: rgb(42, 63, 95); fill-opacity: 1; white-space: pre;">variable</text><g class="groups" transform=""><g class="traces" transform="translate(0,32.7)" style="opacity: 1;"><text class="legendtext" text-anchor="start" x="40" y="4.680000000000001" style="font-family: 'Open Sans', verdana, arial, sans-serif; font-size: 12px; fill: rgb(42, 63, 95); fill-opacity: 1; white-space: pre;">Purchase price</text><g class="layers" style="opacity: 1;"><g class="legendfill"/><g class="legendlines"><path class="js-line" d="M5,0h30" style="fill: none; stroke: rgb(99, 110, 250); stroke-opacity: 1; stroke-width: 2px;"/></g><g class="legendsymbols"><g class="legendpoints"/></g></g><rect class="legendtoggle" x="0" y="-9.5" width="185.0625" height="19" style="fill: rgb(0, 0, 0); fill-opacity: 0;"/></g></g><g class="groups" transform=""><g class="traces" transform="translate(0,51.7)" style="opacity: 1;"><text class="legendtext" text-anchor="start" x="40" y="4.680000000000001" style="font-family: 'Open Sans', verdana, arial, sans-serif; font-size: 12px; fill: rgb(42, 63, 95); fill-opacity: 1; white-space: pre;">Rolling 6-month median</text><g class="layers" style="opacity: 1;"><g class="legendfill"/><g class="legendlines"><path class="js-line" d="M5,0h30" style="fill: none; stroke: rgb(239, 85, 59); stroke-opacity: 1; stroke-width: 2px;"/></g><g class="legendsymbols"><g class="legendpoints"/></g></g><rect class="legendtoggle" x="0" y="-9.5" width="185.0625" height="19" style="fill: rgb(0, 0, 0); fill-opacity: 0;"/></g></g></g><rect class="scrollbar" rx="20" ry="3" width="0" height="0" x="0" y="0" style="fill: rgb(128, 139, 164); fill-opacity: 1;"/></g><g class="g-gtitle"/><g class="g-xtitle"/><g class="g-ytitle" transform="translate(13.7998046875,0)"><text class="ytitle" transform="rotate(-90,0.20000000000000284,302)" x="0.20000000000000284" y="302" text-anchor="middle" style="font-family: 'Open Sans', verdana, arial, sans-serif; font-size: 14px; fill: rgb(42, 63, 95); opacity: 1; font-weight: normal; white-space: pre;">value</text></g></g></svg>