<svg class="main-svg" xmlns="http://www.w3.org/2000/svg" xmlns:xlink="http://www.w3.org/1999/xlink" width="800" height="600" style="" viewBox="0 0 800 600"><rect x="0" y="0" width="800" height="600" style="fill: rgb(255, 255, 255); fill-opacity: 1;"/><defs id="defs-e2e08d"><g class="clips"><clipPath id="clipe2e08dxyplot" class="plotclip"><rect width="542" height="564"/></clipPath><clipPath class="axesclip" id="clipe2e08dx"><rect x="56" y="0" width="542" height="600"/></clipPath><clipPath class="axesclip" id="clipe2e08dy"><rect x="0" y="20" width="800" height="564"/></clipPath><clipPath class="axesclip" id="clipe2e08dxy"><rect x="56" y="20" width="542" height="564"/></clipPath></g><g class="gradients"/><g class="patterns"/></defs><g class="bglayer"><rect class="bg" x="56" y="20" width="542" height="564" style="fill: rgb(229, 236, 246); fill-opacity: 1; stroke-width: 0;"/></g><g class="layer-below"><g class="imagelayer"/><g class="shapelayer"/></g><g class="cartesianlayer"><g class="subplot xy"><g class="layer-subplot"><g class="shapelayer"/><g class="imagelayer"/></g><g class="minor-gridlayer"><g class="x"/><g class="y"/></g><g class="gridlayer"><g class="x"><path class="xgrid crisp" transform="translate(111.75999999999999,0)" d="M0,20v564" style="stroke: rgb(255, 255, 255); stroke-opacity: 1; stroke-width: 1px;"/><path class="xgrid crisp" transform="translate(233.45,0)" d="M0,20v564" style="stroke: rgb(255, 255, 255); stroke-opacity: 1; stroke-width: 1px;"/><path class="xgrid crisp" transform="translate(354.97,0)" d="M0,20v564" style="stroke: rgb(255, 255, 255); stroke-opacity: 1; stroke-width: 1px;"/><path class="xgrid crisp" transform="translate(476.65,0)" d="M0,20v564" style="stroke: rgb(255, 255, 255); stroke-opacity: 1; stroke-width: 1px;"/></g><g class="y"><path class="ygrid crisp" transform="translate(0,555.8)" d="M56,0h542" style="stroke: rgb(255, 255, 255); stroke-opacity: 1; stroke-width: 1px;"/><path class="ygrid crisp" transform="translate(0,454.28)" d="M56,0h542" style="stroke: rgb(255, 255, 255); stroke-opacity: 1; stroke-width: 1px;"/><path class="ygrid crisp" transform="translate(0,352.76)" d="M56,0h542" style="stroke: rgb(255, 255, 255); stroke-opacity: 1; stroke-width: 1px;"/><path class="ygrid crisp" transform="translate(0,251.24)" d="M56,0h542" style="stroke: rgb(255, 255, 255); stroke-opacity: 1; stroke-width: 1px;"/><path class="ygrid crisp" transform="translate(0,149.72)" d="M56,0h542" style="stroke: rgb(255, 255, 255); stroke-opacity: 1; stroke-width: 1px;"/><path class="ygrid crisp" transform="translate(0,48.2)" d="M56,0h542" style="stroke: rgb(255, 255, 255); stroke-opacity: 1; stroke-width: 1px;"/></g></g><g class="zerolinelayer"/><path class="xlines-below"/><path class="ylines-below"/><g class="overlines-below"/><g class="xaxislayer-below"/><g class="yaxislayer-below"/><g class="overaxes-below"/><g class="plot" transform="translate(56,20)" clip-path="url(#clipe2e08dxyplot)"><g class="scatterlayer mlayer"><g class="trace scatter trace029414" style="stroke-miterlimit: 2; opacity: 1;"><g class="fills"/><g class="errorbars"/><g class="lines"><path class="js-line" d="M0,495.19L4.66,472.86L9.82,464.74L14.82,465.75L19.98,474.89L24.97,521.59L30.13,531.74L35.29,474.89L40.28,485.04L45.44,458.64L50.44,491.13L55.6,398.75L60.76,515.5L65.59,474.89L70.75,535.8L75.74,495.19L80.9,462.2L85.89,467.78L91.05,485.04L96.21,452.05L101.21,456.61L106.37,515.5L111.36,475.9L116.52,462.71L121.68,430.22L126.34,500.78L131.5,495.19L136.5,454.58L141.66,454.58L146.65,478.95L151.81,454.58L161.97,441.39L167.13,447.48L172.12,413.98L177.28,429.2L182.44,393.67L187.1,383.52L192.26,434.28L197.26,474.89L202.42,449.51L207.41,434.79L212.57,375.4L217.73,426.67L222.73,420.07L227.89,403.82L232.88,430.22L238.04,422.1L243.2,394.69L247.86,454.58L253.02,353.06L258.02,434.28L263.18,424.13L268.17,429.2L273.33,434.28L278.49,454.58L283.48,408.9L288.64,442.4L293.64,413.98L298.8,398.75L303.96,384.03L308.79,353.06L313.95,424.13L318.94,454.58L324.1,414.99L329.1,393.67L334.26,434.28L339.42,389.61L344.41,414.99L349.57,342.91L354.56,342.91L359.72,312.46L364.88,363.22L369.55,363.22L374.71,353.06L379.7,332.76L384.86,398.24L389.85,342.91L395.01,312.46L400.17,241.39L405.17,313.47L410.33,231.24L415.32,251.54L420.48,231.24L425.64,195.71L430.3,221.09L435.46,172.36L440.46,180.48L445.62,99.26L450.61,170.33L455.77,160.18L460.93,155.1L465.93,129.72L471.09,129.72L476.08,94.19L481.24,89.11L486.4,37.34L491.06,89.11L496.22,129.72L501.22,48.5L506.38,104.34L511.37,124.64L516.53,78.96L521.69,73.88L526.69,28.2L531.85,43.43L536.84,66.78L542,231.24" style="vector-effect: non-scaling-stroke; fill: none; stroke: rgb(99, 110, 250); stroke-opacity: 1; stroke-width: 2px; opacity: 1;"/></g><g class="points"/><g class="text"/></g><g class="trace scatter trace934142" style="stroke-miterlimit: 2; opacity: 1;"><g class="fills"/><g class="errorbars"/><g class="lines"><path class="js-line" d="M24.97,473.87L30.13,473.87L35.29,474.89L40.28,479.96L45.44,479.96L50.44,488.09L55.6,479.96L65.59,479.96L70.75,483.01L75.74,493.16L80.9,485.04L85.89,485.04L91.05,479.96L96.21,476.41L101.21,464.99L106.37,464.99L111.36,471.84L116.52,469.3L121.68,459.66L126.34,469.3L131.5,485.55L136.5,469.3L141.66,458.64L146.65,466.77L151.81,466.77L156.97,454.58L161.97,454.58L177.28,444.43L182.44,435.3L187.1,421.59L192.26,421.59L197.26,421.59L202.42,431.74L207.41,434.53L212.57,434.53L217.73,434.53L222.73,430.73L227.89,423.37L232.88,423.37L238.04,421.08L243.2,421.08L247.86,421.08L253.02,412.96L258.02,426.16L263.18,423.11L268.17,426.67L273.33,431.74L293.64,431.74L298.8,424.13L303.96,411.44L308.79,403.82L313.95,406.36L318.94,406.36L324.1,406.87L329.1,404.33L334.26,419.56L339.42,419.56L344.41,414.99L349.57,404.33L354.56,391.64L359.72,366.26L364.88,353.06L369.55,353.06L374.71,347.99L379.7,347.99L384.86,358.14L389.85,358.14L400.17,337.84L405.17,323.12L410.33,312.96L415.32,282L420.48,246.47L425.64,236.32L435.46,226.16L440.46,208.4L445.62,188.09L450.61,176.42L460.93,165.25L465.93,157.64L471.09,142.41L476.08,142.41L481.24,129.72L486.4,111.95L491.06,91.65L496.22,91.65L501.22,89.11L506.38,89.11L511.37,96.73L516.53,96.73L521.69,91.65L526.69,76.42L531.85,76.42L536.84,70.33L542,70.33" style="vector-effect: non-scaling-stroke; fill: none; stroke: rgb(239, 85, 59); stroke-opacity: 1; stroke-width: 2px; opacity: 1;"/></g><g class="points"/><g class="text"/></g></g></g><g class="overplot"/><path class="xlines-above crisp" d="M0,0" style="fill: none;"/><path class="ylines-above crisp" d="M0,0" style="fill: none;"/><g class="overlines-above"/><g class="xaxislayer-above"><g class="xtick"><text text-anchor="middle" x="0" y="597" transform="translate(111.75999999999999,0)" style="font-family: 'Open Sans', verdana, arial, sans-serif; font-size: 12px; fill: rgb(42, 63, 95); fill-opacity: 1; white-space: pre; opacity: 1;">2016</text></g><g class="xtick"><text text-anchor="middle" x="0" y="597" style="font-family: 'Open Sans', verdana, arial, sans-serif; font-size: 12px; fill: rgb(42, 63, 95); fill-opacity: 1; white-space: pre; opacity: 1;" transform="translate(233.45,0)">2018</text></g><g class="xtick"><text text-anchor="middle" x="0" y="597" style="font-family: 'Open Sans', verdana, arial, sans-serif; font-size: 12px; fill: rgb(42, 63, 95); fill-opacity: 1; white-space: pre; opacity: 1;" transform="translate(354.97,0)">2020</text></g><g class="xtick"><text text-anchor="middle" x="0" y="597" style="font-family: 'Open Sans', verdana, arial, sans-serif; font-size: 12px; fill: rgb(42, 63, 95); fill-opacity: 1; white-space: pre; opacity: 1;" transform="translate(476.65,0)">2022</text></g></g><g class="yaxislayer-above"><g class="ytick"><text text-anchor="end" x="55" y="4.199999999999999" transform="translate(0,555.8)" style="font-family: 'Open Sans', verdana, arial, sans-serif; font-size: 12px; fill: rgb(42, 63, 95); fill-opacity: 1; white-space: pre; opacity: 1;">300k</text></g><g class="ytick"><text text-anchor="end" x="55" y="4.199999999999999" style="font-family: 'Open Sans', verdana, arial, sans-serif; font-size: 12px; fill: rgb(42, 63, 95); fill-opacity: 1; white-space: pre; opacity: 1;" transform="translate(0,454.28)">350k</text></g><g class="ytick"><text text-anchor="end" x="55" y="4.199999999999999" style="font-family: 'Open Sans', verdana, arial, sans-serif; font-size: 12px; fill: rgb(42, 63, 95); fill-opacity: 1; white-space: pre; opacity: 1;" transform="translate(0,352.76)">400k</text></g><g class="ytick"><text text-anchor="end" x="55" y="4.199999999999999" style="font-family: 'Open Sans', verdana, arial, sans-serif; font-size: 12px; fill: rgb(42, 63, 95); fill-opacity: 1; white-space: pre; opacity: 1;" transform="translate(0,251.24)">450k</text></g><g class="ytick"><text text-anchor="end" x="55" y="4.199999999999999" style="font-family: 'Open Sans', verdana, arial, sans-serif; font-size: 12px; fill: rgb(42, 63, 95); fill-opacity: 1; white-space: pre; opacity: 1;" transform="translate(0,149.72)">500k</text></g><g class="ytick"><text text-anchor="end" x="55" y="4.199999999999999" style="font-family: 'Open Sans', verdana, arial, sans-serif; font-size: 12px; fill: rgb(42, 63, 95); fill-opacity: 1; white-space: pre; opacity: 1;" transform="translate(0,48.2)">550k</text></g></g><g class="overaxes-above"/></g></g><g class="polarlayer"/><g class="smithlayer"/><g class="ternarylayer"/><g class="geolayer"/><g class="funnelarealayer"/><g class="pielayer"/><g class="iciclelayer"/><g class="treemaplayer"/><g class="sunburstlayer"/><g class="glimages"/><defs id="topdefs-e2e08d"><g class="clips"/><clipPath id="legende2e08d"><rect width="191" height="67" x="0" y="0"/></clipPath></defs><g class="layer-above"><g class="imagelayer"/><g class="shapelayer"><path data-index="0" fill-rule="evenodd" d="M585.63,584L585.63,20" clip-path="url(#clipe2e08dx)" style="opacity: 1; stroke: rgb(0, 128, 0); stroke-opacity: 1; fill: rgb(0, 0, 0); fill-opacity: 0; stroke-dasharray: 3px, 3px; stroke-width: 2px;"/></g></g><g class="infolayer"><g class="legend" pointer-events="all" transform="translate(608.84,20)"><rect class="bg" shape-rendering="crispEdges" width="191" height="67" x="0" y="0" style="stroke: rgb(68, 68, 68); stroke-opacity: 1; fill: rgb(255, 255, 255); fill-opacity: 1; stroke-width: 0px;"/><g class="scrollbox" transform="" clip-path="url(#legende2e08d)"><text class="legendtitletext" text-anchor="start" x="2" y="18.2" style="font-family: 'Open Sans', verdana, arial, sans-serif; font-size: 14px; fill: rgb(42, 63, 95); fill-opacity: 1; white-space: pre;">variable</text><g class="groups" transform=""><g class="traces" transform="translate(0,32.7)" style="opacity: 1;"><text class="legendtext" text-anchor="start" x="40" y="4.680000000000001" style="font-family: 'Open Sans', verdana, arial, sans-serif; font-size: 12px; fill: rgb(42, 63, 95); fill-opacity: 1; white-space: pre;">Purchase price</text><g class="layers" style="opacity: 1;"><g class="legendfill"/><g class="legendlines"><path class="js-line" d="M5,0h30" style="fill: none; stroke: rgb(99, 110, 250); stroke-opacity: 1; stroke-width: 2px;"/></g><g class="legendsymbols"><g class="legendpoints"/></g></g><rect class="legendtoggle" x="0" y="-9.5" width="185.0625" height="19" style="fill: rgb(0, 0, 0); fill-opacity: 0;"/></g></g><g class="groups" transform=""><g class="traces" transform="translate(0,51.7)" style="opacity: 1;"><text class="legendtext" text-anchor="start" x="40" y="4.680000000000001" style="font-family: 'Open Sans', verdana, arial, sans-serif; font-size: 12px; fill: rgb(42, 63, 95); fill-opacity: 1; white-space: pre;">Rolling 6-month median</text><g class="layers" style="opacity: 1;"><g class="legendfill"/><g class="legendlines"><path class="js-line" d="M5,0h30" style="fill: none; stroke: rgb(239, 85, 59); stroke-opacity: 1; stroke-width: 2px;"/></g><g class="legendsymbols"><g class="legendpoints"/></g></g><rect class="legendtoggle" x="0" y="-9.5" width="185.0625" height="19" style="fill: rgb(0, 0, 0); fill-opacity: 0;"/></g></g></g><rect class="scrollbar" rx="20" ry="3" width="0" height="0" x="0" y="0" style="fill: rgb(128, 139, 164); fill-opacity: 1;"/></g><g class="g-gtitle"/><g class="g-xtitle"/><g class="g-ytitle" transform="translate(13.7998046875,0)"><text class="ytitle" transform="rotate(-90,0.20000000000000284,302)" x="0.20000000000000284" y="302" text-anchor="middle" style="font-family: 'Open Sans', verdana, arial, sans-serif; font-size: 14px; fill: rgb(42, 63, 95); opacity: 1; font-weight: normal; white-space: pre;">value</text></g></g></svg>