<svg class="main-svg" xmlns="http://www.w3.org/2000/svg" xmlns:xlink="http://www.w3.org/1999/xlink" width="800" height="600" style="" viewBox="0 0 800 600"><rect x="0" y="0" width="800" height="600" style="fill: rgb(255, 255, 255); fill-opacity: 1;"/><defs id="defs-7a836f"><g class="clips"><clipPath id="clip7a836fxyplot" class="plotclip"><rect width="542" height="564"/></clipPath><clipPath class="axesclip" id="clip7a836fx"><rect x="56" y="0" width="542" height="600"/></clipPath><clipPath class="axesclip" id="clip7a836fy"><rect x="0" y="20" width="800" height="564"/></clipPath><clipPath class="axesclip" id="clip7a836fxy"><rect x="56" y="20" width="542" height="564"/></clipPath></g><g class="gradients"/><g class="patterns"/></defs><g class="bglayer"><rect class="bg" x="56" y="20" width="542" height="564" style="fill: rgb(229, 236, 246); fill-opacity: 1; stroke-width: 0;"/></g><g class="layer-below"><g class="imagelayer"/><g class="shapelayer"/></g><g class="cartesianlayer"><g class="subplot xy"><g class="layer-subplot"><g class="shapelayer"/><g class="imagelayer"/></g><g class="minor-gridlayer"><g class="x"/><g class="y"/></g><g class="gridlayer"><g class="x"><path class="xgrid crisp" transform="translate(111.75999999999999,0)" d="M0,20v564" style="stroke: rgb(255, 255, 255); stroke-opacity: 1; stroke-width: 1px;"/><path class="xgrid crisp" transform="translate(233.45,0)" d="M0,20v564" style="stroke: rgb(255, 255, 255); stroke-opacity: 1; stroke-width: 1px;"/><path class="xgrid crisp" transform="translate(354.97,0)" d="M0,20v564" style="stroke: rgb(255, 255, 255); stroke-opacity: 1; stroke-width: 1px;"/><path class="xgrid crisp" transform="translate(476.65,0)" d="M0,20v564" style="stroke: rgb(255, 255, 255); stroke-opacity: 1; stroke-width: 1px;"/></g><g class="y"><path class="ygrid crisp" transform="translate(0,501.22)" d="M56,0h542" style="stroke: rgb(255, 255, 255); stroke-opacity: 1; stroke-width: 1px;"/><path class="ygrid crisp" transform="translate(0,392.06)" d="M56,0h542" style="stroke: rgb(255, 255, 255); stroke-opacity: 1; stroke-width: 1px;"/><path class="ygrid crisp" transform="translate(0,282.9)" d="M56,0h542" style="stroke: rgb(255, 255, 255); stroke-opacity: 1; stroke-width: 1px;"/><path class="ygrid crisp" transform="translate(0,173.74)" d="M56,0h542" style="stroke: rgb(255, 255, 255); stroke-opacity: 1; stroke-width: 1px;"/><path class="ygrid crisp" transform="translate(0,64.57)" d="M56,0h542" style="stroke: rgb(255, 255, 255); stroke-opacity: 1; stroke-width: 1px;"/></g></g><g class="zerolinelayer"/><path class="xlines-below"/><path class="ylines-below"/><g class="overlines-below"/><g class="xaxislayer-below"/><g class="yaxislayer-below"/><g class="overaxes-below"/><g class="plot" transform="translate(56,20)" clip-path="url(#clip7a836fxyplot)"><g class="scatterlayer mlayer"><g class="trace scatter trace5e1b6f" style="stroke-miterlimit: 2; opacity: 1;"><g class="fills"/><g class="errorbars"/><g class="lines"><path class="js-line" d="M0,527.07L4.66,517.24L9.82,515.06L14.82,500.32L19.98,470.65L24.97,495.41L30.13,489.68L35.29,481.22L40.28,508.51L45.44,471.09L50.44,470.85L55.6,473.31L60.76,535.8L65.59,480.13L70.75,470.3L75.74,486.68L80.9,486.68L85.89,469.21L91.05,453.93L96.21,437.55L101.21,445.2L106.37,437.55L111.36,421.18L116.52,427.73L121.68,432.1L126.34,406.99L131.5,424.46L136.5,375.33L141.66,361.14L146.65,381.88L151.81,393.89L156.97,372.06L161.97,377.52L167.13,361.14L172.12,351.32L177.28,365.24L182.44,350.23L187.1,339.31L192.26,344.77L197.26,348.86L202.42,363.87L207.41,298.92L212.57,369.87L217.73,347.5L222.73,317.48L227.89,372.06L232.88,366.6L238.04,350.23L243.2,391.16L247.86,382.97L253.02,350.23L258.02,399.35L263.18,407.54L268.17,382.97L273.33,404.81L278.49,388.43L283.48,361.14L288.64,372.06L293.64,348.04L298.8,363.87L303.96,361.14L308.79,349.41L313.95,360.05L318.94,355.68L324.1,336.03L329.1,339.31L334.26,344.77L339.42,325.12L344.41,317.48L349.57,283.64L354.56,262.9L364.88,284.73L369.55,253.62L374.71,241.06L379.7,181.03L384.86,197.4L389.85,131.9L395.01,186.48L400.17,170.11L405.17,131.9L410.33,50.03L415.32,99.15L420.48,118.26L425.64,153.74L430.3,35.84L435.46,62.18L440.46,29.84L445.62,44.57L450.61,28.2L460.93,99.15L465.93,60.95L471.09,69.03L476.08,129.17L481.24,120.99L486.4,99.15L491.06,66.41L496.22,108.43L501.22,80.05L506.38,68.59L511.37,55.49L516.53,110.07L521.69,85.51L526.69,93.21L531.85,130.81L536.84,110.07L542,208.32" style="vector-effect: non-scaling-stroke; fill: none; stroke: rgb(99, 110, 250); stroke-opacity: 1; stroke-width: 2px; opacity: 1;"/></g><g class="points"/><g class="text"/></g><g class="trace scatter trace38d006" style="stroke-miterlimit: 2; opacity: 1;"><g class="fills"/><g class="errorbars"/><g class="lines"><path class="js-line" d="M24.97,507.69L30.13,497.87L35.29,492.54L40.28,492.54L45.44,485.45L50.44,485.45L55.6,477.26L65.59,476.72L70.75,472.2L75.74,476.72L80.9,483.4L85.89,483.4L91.05,475.22L96.21,469.76L101.21,461.57L106.37,449.56L111.36,441.38L116.52,437.55L121.68,434.83L126.34,429.91L131.5,426.09L136.5,422.82L141.66,415.72L146.65,394.44L151.81,387.89L156.97,378.61L161.97,376.42L167.13,374.79L172.12,374.79L182.44,363.19L187.1,356.23L192.26,350.77L197.26,349.54L202.42,349.54L207.41,346.81L212.57,346.81L217.73,348.18L222.73,348.18L227.89,355.68L238.04,358.41L243.2,358.41L247.86,369.33L253.02,369.33L258.02,374.79L263.18,387.07L268.17,387.07L273.33,391.16L278.49,393.89L283.48,393.89L293.64,377.52L298.8,367.96L303.96,362.51L308.79,361.14L313.95,360.6L318.94,357.87L324.1,357.87L329.1,352.55L339.42,342.04L344.41,337.67L349.57,330.58L354.56,321.3L359.72,300.56L364.88,284.18L369.55,278.73L374.71,268.35L384.86,247.34L389.85,219.23L395.01,191.94L400.17,183.75L405.17,175.57L410.33,151.01L415.32,131.9L420.48,125.08L425.64,125.08L430.3,108.71L435.46,80.67L440.46,80.67L445.62,53.38L450.61,40.21L455.77,40.21L460.93,53.38L465.93,52.76L471.09,63.68L476.08,67.72L481.24,84.09L486.4,99.15L491.06,84.09L496.22,103.79L501.22,103.79L511.37,74.32L516.53,74.32L521.69,82.78L526.69,82.78L531.85,89.36L536.84,101.64L542,110.07" style="vector-effect: non-scaling-stroke; fill: none; stroke: rgb(239, 85, 59); stroke-opacity: 1; stroke-width: 2px; opacity: 1;"/></g><g class="points"/><g class="text"/></g></g></g><g class="overplot"/><path class="xlines-above crisp" d="M0,0" style="fill: none;"/><path class="ylines-above crisp" d="M0,0" style="fill: none;"/><g class="overlines-above"/><g class="xaxislayer-above"><g class="xtick"><text text-anchor="middle" x="0" y="597" transform="translate(111.75999999999999,0)" style="font-family: 'Open Sans', verdana, arial, sans-serif; font-size: 12px; fill: rgb(42, 63, 95); fill-opacity: 1; white-space: pre; opacity: 1;">2016</text></g><g class="xtick"><text text-anchor="middle" x="0" y="597" style="font-family: 'Open Sans', verdana, arial, sans-serif; font-size: 12px; fill: rgb(42, 63, 95); fill-opacity: 1; white-space: pre; opacity: 1;" transform="translate(233.45,0)">2018</text></g><g class="xtick"><text text-anchor="middle" x="0" y="597" style="font-family: 'Open Sans', verdana, arial, sans-serif; font-size: 12px; fill: rgb(42, 63, 95); fill-opacity: 1; white-space: pre; opacity: 1;" transform="translate(354.97,0)">2020</text></g><g class="xtick"><text text-anchor="middle" x="0" y="597" style="font-family: 'Open Sans', verdana, arial, sans-serif; font-size: 12px; fill: rgb(42, 63, 95); fill-opacity: 1; white-space: pre; opacity: 1;" transform="translate(476.65,0)">2022</text></g></g><g class="yaxislayer-above"><g class="ytick"><text text-anchor="end" x="55" y="4.199999999999999" transform="translate(0,501.22)" style="font-family: 'Open Sans', verdana, arial, sans-serif; font-size: 12px; fill: rgb(42, 63, 95); fill-opacity: 1; white-space: pre; opacity: 1;">500k</text></g><g class="ytick"><text text-anchor="end" x="55" y="4.199999999999999" style="font-family: 'Open Sans', verdana, arial, sans-serif; font-size: 12px; fill: rgb(42, 63, 95); fill-opacity: 1; white-space: pre; opacity: 1;" transform="translate(0,392.06)">600k</text></g><g class="ytick"><text text-anchor="end" x="55" y="4.199999999999999" style="font-family: 'Open Sans', verdana, arial, sans-serif; font-size: 12px; fill: rgb(42, 63, 95); fill-opacity: 1; white-space: pre; opacity: 1;" transform="translate(0,282.9)">700k</text></g><g class="ytick"><text text-anchor="end" x="55" y="4.199999999999999" style="font-family: 'Open Sans', verdana, arial, sans-serif; font-size: 12px; fill: rgb(42, 63, 95); fill-opacity: 1; white-space: pre; opacity: 1;" transform="translate(0,173.74)">800k</text></g><g class="ytick"><text text-anchor="end" x="55" y="4.199999999999999" style="font-family: 'Open Sans', verdana, arial, sans-serif; font-size: 12px; fill: rgb(42, 63, 95); fill-opacity: 1; white-space: pre; opacity: 1;" transform="translate(0,64.57)">900k</text></g></g><g class="overaxes-above"/></g></g><g class="polarlayer"/><g class="smithlayer"/><g class="ternarylayer"/><g class="geolayer"/><g class="funnelarealayer"/><g class="pielayer"/><g class="iciclelayer"/><g class="treemaplayer"/><g class="sunburstlayer"/><g class="glimages"/><defs id="topdefs-7a836f"><g class="clips"/><clipPath id="legend7a836f"><rect width="191" height="67" x="0" y="0"/></clipPath></defs><g class="layer-above"><g class="imagelayer"/><g class="shapelayer"><path data-index="0" fill-rule="evenodd" d="M585.63,584L585.63,20" clip-path="url(#clip7a836fx)" style="opacity: 1; stroke: rgb(0, 128, 0); stroke-opacity: 1; fill: rgb(0, 0, 0); fill-opacity: 0; stroke-dasharray: 3px, 3px; stroke-width: 2px;"/></g></g><g class="infolayer"><g class="legend" pointer-events="all" transform="translate(608.84,20)"><rect class="bg" shape-rendering="crispEdges" width="191" height="67" x="0" y="0" style="stroke: rgb(68, 68, 68); stroke-opacity: 1; fill: rgb(255, 255, 255); fill-opacity: 1; stroke-width: 0px;"/><g class="scrollbox" transform="" clip-path="url(#legend7a836f)"><text class="legendtitletext" text-anchor="start" x="2" y="18.2" style="font-family: 'Open Sans', verdana, arial, sans-serif; font-size: 14px; fill: rgb(42, 63, 95); fill-opacity: 1; white-space: pre;">variable</text><g class="groups" transform=""><g class="traces" transform="translate(0,32.7)" style="opacity: 1;"><text class="legendtext" text-anchor="start" x="40" y="4.680000000000001" style="font-family: 'Open Sans', verdana, arial, sans-serif; font-size: 12px; fill: rgb(42, 63, 95); fill-opacity: 1; white-space: pre;">Purchase price</text><g class="layers" style="opacity: 1;"><g class="legendfill"/><g class="legendlines"><path class="js-line" d="M5,0h30" style="fill: none; stroke: rgb(99, 110, 250); stroke-opacity: 1; stroke-width: 2px;"/></g><g class="legendsymbols"><g class="legendpoints"/></g></g><rect class="legendtoggle" x="0" y="-9.5" width="185.0625" height="19" style="fill: rgb(0, 0, 0); fill-opacity: 0;"/></g></g><g class="groups" transform=""><g class="traces" transform="translate(0,51.7)" style="opacity: 1;"><text class="legendtext" text-anchor="start" x="40" y="4.680000000000001" style="font-family: 'Open Sans', verdana, arial, sans-serif; font-size: 12px; fill: rgb(42, 63, 95); fill-opacity: 1; white-space: pre;">Rolling 6-month median</text><g class="layers" style="opacity: 1;"><g class="legendfill"/><g class="legendlines"><path class="js-line" d="M5,0h30" style="fill: none; stroke: rgb(239, 85, 59); stroke-opacity: 1; stroke-width: 2px;"/></g><g class="legendsymbols"><g class="legendpoints"/></g></g><rect class="legendtoggle" x="0" y="-9.5" width="185.0625" height="19" style="fill: rgb(0, 0, 0); fill-opacity: 0;"/></g></g></g><rect class="scrollbar" rx="20" ry="3" width="0" height="0" x="0" y="0" style="fill: rgb(128, 139, 164); fill-opacity: 1;"/></g><g class="g-gtitle"/><g class="g-xtitle"/><g class="g-ytitle" transform="translate(13.7998046875,0)"><text class="ytitle" transform="rotate(-90,0.20000000000000284,302)" x="0.20000000000000284" y="302" text-anchor="middle" style="font-family: 'Open Sans', verdana, arial, sans-serif; font-size: 14px; fill: rgb(42, 63, 95); opacity: 1; font-weight: normal; white-space: pre;">value</text></g></g></svg>