<svg class="main-svg" xmlns="http://www.w3.org/2000/svg" xmlns:xlink="http://www.w3.org/1999/xlink" width="800" height="600" style="" viewBox="0 0 800 600"><rect x="0" y="0" width="800" height="600" style="fill: rgb(255, 255, 255); fill-opacity: 1;"/><defs id="defs-a4b588"><g class="clips"><clipPath id="clipa4b588xyplot" class="plotclip"><rect width="542" height="564"/></clipPath><clipPath class="axesclip" id="clipa4b588x"><rect x="56" y="0" width="542" height="600"/></clipPath><clipPath class="axesclip" id="clipa4b588y"><rect x="0" y="20" width="800" height="564"/></clipPath><clipPath class="axesclip" id="clipa4b588xy"><rect x="56" y="20" width="542" height="564"/></clipPath></g><g class="gradients"/><g class="patterns"/></defs><g class="bglayer"><rect class="bg" x="56" y="20" width="542" height="564" style="fill: rgb(229, 236, 246); fill-opacity: 1; stroke-width: 0;"/></g><g class="layer-below"><g class="imagelayer"/><g class="shapelayer"/></g><g class="cartesianlayer"><g class="subplot xy"><g class="layer-subplot"><g class="shapelayer"/><g class="imagelayer"/></g><g class="minor-gridlayer"><g class="x"/><g class="y"/></g><g class="gridlayer"><g class="x"><path class="xgrid crisp" transform="translate(215.95,0)" d="M0,20v564" style="stroke: rgb(255, 255, 255); stroke-opacity: 1; stroke-width: 1px;"/><path class="xgrid crisp" transform="translate(378.65,0)" d="M0,20v564" style="stroke: rgb(255, 255, 255); stroke-opacity: 1; stroke-width: 1px;"/><path class="xgrid crisp" transform="translate(541.27,0)" d="M0,20v564" style="stroke: rgb(255, 255, 255); stroke-opacity: 1; stroke-width: 1px;"/></g><g class="y"><path class="ygrid crisp" transform="translate(0,565.66)" d="M56,0h542" style="stroke: rgb(255, 255, 255); stroke-opacity: 1; stroke-width: 1px;"/><path class="ygrid crisp" transform="translate(0,467.09)" d="M56,0h542" style="stroke: rgb(255, 255, 255); stroke-opacity: 1; stroke-width: 1px;"/><path class="ygrid crisp" transform="translate(0,368.53)" d="M56,0h542" style="stroke: rgb(255, 255, 255); stroke-opacity: 1; stroke-width: 1px;"/><path class="ygrid crisp" transform="translate(0,269.97)" d="M56,0h542" style="stroke: rgb(255, 255, 255); stroke-opacity: 1; stroke-width: 1px;"/><path class="ygrid crisp" transform="translate(0,171.4)" d="M56,0h542" style="stroke: rgb(255, 255, 255); stroke-opacity: 1; stroke-width: 1px;"/><path class="ygrid crisp" transform="translate(0,72.84)" d="M56,0h542" style="stroke: rgb(255, 255, 255); stroke-opacity: 1; stroke-width: 1px;"/></g></g><g class="zerolinelayer"/><path class="xlines-below"/><path class="ylines-below"/><g class="overlines-below"/><g class="xaxislayer-below"/><g class="yaxislayer-below"/><g class="overaxes-below"/><g class="plot" transform="translate(56,20)" clip-path="url(#clipa4b588xyplot)"><g class="scatterlayer mlayer"><g class="trace scatter tracebcfc0f" style="stroke-miterlimit: 2; opacity: 1;"><g class="fills"/><g class="errorbars"/><g class="lines"><path class="js-line" d="M0,535.8L2.49,475.24L5.25,427.38L7.93,471.73L10.69,417.52L13.36,449.66L16.12,447.09L18.88,421.47L21.55,417.52L24.31,411.36L26.98,418.51L32.51,500.32L35.09,449.06L37.85,427.38L40.52,442.17L43.28,423.44L45.95,417.52L48.71,434.77L51.47,418.51L54.15,397.81L56.91,383.03L59.58,368.24L62.34,398.8L65.1,456.95L67.59,385.98L70.35,348.53L73.03,333.75L75.79,359.37L78.46,328.82L81.22,397.86L83.98,378.1L86.65,348.53L89.41,363.31L92.08,348.53L94.85,387.96L97.61,417.52L100.1,380.56L102.86,345.33L105.53,373.17L108.29,378.1L110.96,368.24L113.73,392.88L116.49,392.88L119.16,368.24L121.92,392.88L124.59,381.06L127.35,415.06L130.11,447.09L132.61,404.71L135.37,378.1L138.04,387.96L140.8,397.81L143.47,387.96L146.23,397.81L148.99,392.88L151.66,368.24L154.42,353.46L157.1,317.68L159.86,365.78L162.62,437.24L165.2,341.14L167.96,348.55L170.63,358.39L173.39,358.39L176.07,365.29L178.83,378.1L181.59,348.53L184.26,353.46L187.02,322.9L189.69,307.13L192.45,333.75L195.21,328.82L197.71,284.46L200.47,245.04L203.14,235.68L205.9,176.04L208.57,180.97L211.33,215.47L214.09,200.69L219.53,97.19L222.2,87.34L224.96,102.12L227.72,171.12L230.21,72.55L232.97,52.84L235.64,52.84L238.41,107.05L241.08,102.12L243.84,116.91L246.6,136.62L249.27,102.12L252.03,102.12L254.7,92.27L260.22,176.04L262.72,131.69L265.48,102.12L268.15,92.27L270.91,96.7L273.58,28.2L276.34,121.83L279.1,72.55L281.78,47.91L284.54,107.05L287.21,200.69L289.97,348.53" style="vector-effect: non-scaling-stroke; fill: none; stroke: rgb(99, 110, 250); stroke-opacity: 1; stroke-width: 2px; opacity: 1;"/></g><g class="points"/><g class="text"/></g><g class="trace scatter traceff18a0" style="stroke-miterlimit: 2; opacity: 1;"><g class="fills"/><g class="errorbars"/><g class="lines"><path class="js-line" d="M13.36,460.7L18.88,437.24L21.55,434.28L24.31,419.5L26.98,419.99L32.51,419.99L35.09,433.79L37.85,438.22L40.52,445.61L43.28,445.61L45.95,434.77L48.71,431.08L51.47,425.41L54.15,420.97L56.91,418.02L62.34,398.3L65.1,398.3L73.03,377.11L75.79,372.68L78.46,353.95L81.22,353.95L86.65,353.95L89.41,361.34L92.08,355.92L94.85,370.71L97.61,370.71L100.1,371.94L102.86,371.94L105.53,376.87L108.29,379.33L110.96,375.63L119.16,375.63L121.92,385.49L124.59,386.97L127.35,392.88L130.11,392.88L132.61,398.8L135.37,398.8L138.04,396.33L140.8,401.26L143.47,392.88L146.23,392.88L148.99,390.42L154.42,390.42L157.1,378.1L159.86,367.01L162.62,367.01L167.96,351.01L170.63,353.47L173.39,358.39L176.07,358.39L184.26,358.39L187.02,355.92L189.69,350.99L192.45,341.14L195.21,331.28L197.71,325.86L200.47,315.02L203.14,295.8L208.57,240.36L211.33,225.57L216.76,190.83L219.53,178.51L222.2,163.72L224.96,124.3L227.72,124.3L230.21,99.66L232.97,92.27L235.64,79.95L238.41,87.34L241.08,87.34L243.84,87.34L246.6,104.59L252.03,104.59L254.7,102.12L260.22,116.91L262.72,116.91L270.91,116.91L273.58,99.41L276.34,99.41L279.1,94.48L281.78,82.41L284.54,84.63L287.21,89.8L289.97,114.44" style="vector-effect: non-scaling-stroke; fill: none; stroke: rgb(239, 85, 59); stroke-opacity: 1; stroke-width: 2px; opacity: 1;"/></g><g class="points"/><g class="text"/></g></g></g><g class="overplot"/><path class="xlines-above crisp" d="M0,0" style="fill: none;"/><path class="ylines-above crisp" d="M0,0" style="fill: none;"/><g class="overlines-above"/><g class="xaxislayer-above"><g class="xtick"><text text-anchor="middle" x="0" y="597" transform="translate(215.95,0)" style="font-family: 'Open Sans', verdana, arial, sans-serif; font-size: 12px; fill: rgb(42, 63, 95); fill-opacity: 1; white-space: pre; opacity: 1;">2020</text></g><g class="xtick"><text text-anchor="middle" x="0" y="597" style="font-family: 'Open Sans', verdana, arial, sans-serif; font-size: 12px; fill: rgb(42, 63, 95); fill-opacity: 1; white-space: pre; opacity: 1;" transform="translate(378.65,0)">2025</text></g><g class="xtick"><text text-anchor="middle" x="0" y="597" style="font-family: 'Open Sans', verdana, arial, sans-serif; font-size: 12px; fill: rgb(42, 63, 95); fill-opacity: 1; white-space: pre; opacity: 1;" transform="translate(541.27,0)">2030</text></g></g><g class="yaxislayer-above"><g class="ytick"><text text-anchor="end" x="55" y="4.199999999999999" transform="translate(0,565.66)" style="font-family: 'Open Sans', verdana, arial, sans-serif; font-size: 12px; fill: rgb(42, 63, 95); fill-opacity: 1; white-space: pre; opacity: 1;">0.5M</text></g><g class="ytick"><text text-anchor="end" x="55" y="4.199999999999999" style="font-family: 'Open Sans', verdana, arial, sans-serif; font-size: 12px; fill: rgb(42, 63, 95); fill-opacity: 1; white-space: pre; opacity: 1;" transform="translate(0,467.09)">0.6M</text></g><g class="ytick"><text text-anchor="end" x="55" y="4.199999999999999" style="font-family: 'Open Sans', verdana, arial, sans-serif; font-size: 12px; fill: rgb(42, 63, 95); fill-opacity: 1; white-space: pre; opacity: 1;" transform="translate(0,368.53)">0.7M</text></g><g class="ytick"><text text-anchor="end" x="55" y="4.199999999999999" style="font-family: 'Open Sans', verdana, arial, sans-serif; font-size: 12px; fill: rgb(42, 63, 95); fill-opacity: 1; white-space: pre; opacity: 1;" transform="translate(0,269.97)">0.8M</text></g><g class="ytick"><text text-anchor="end" x="55" y="4.199999999999999" style="font-family: 'Open Sans', verdana, arial, sans-serif; font-size: 12px; fill: rgb(42, 63, 95); fill-opacity: 1; white-space: pre; opacity: 1;" transform="translate(0,171.4)">0.9M</text></g><g class="ytick"><text text-anchor="end" x="55" y="4.199999999999999" style="font-family: 'Open Sans', verdana, arial, sans-serif; font-size: 12px; fill: rgb(42, 63, 95); fill-opacity: 1; white-space: pre; opacity: 1;" transform="translate(0,72.84)">1M</text></g></g><g class="overaxes-above"/></g></g><g class="polarlayer"/><g class="smithlayer"/><g class="ternarylayer"/><g class="geolayer"/><g class="funnelarealayer"/><g class="pielayer"/><g class="iciclelayer"/><g class="treemaplayer"/><g class="sunburstlayer"/><g class="glimages"/><defs id="topdefs-a4b588"><g class="clips"/><clipPath id="legenda4b588"><rect width="191" height="67" x="0" y="0"/></clipPath></defs><g class="layer-above"><g class="imagelayer"/><g class="shapelayer"><path data-index="0" fill-rule="evenodd" d="M339.35,584L339.35,20" clip-path="url(#clipa4b588x)" style="opacity: 1; stroke: rgb(0, 128, 0); stroke-opacity: 1; fill: rgb(0, 0, 0); fill-opacity: 0; stroke-dasharray: 3px, 3px; stroke-width: 2px;"/></g></g><g class="infolayer"><g class="legend" pointer-events="all" transform="translate(608.84,20)"><rect class="bg" shape-rendering="crispEdges" width="191" height="67" x="0" y="0" style="stroke: rgb(68, 68, 68); stroke-opacity: 1; fill: rgb(255, 255, 255); fill-opacity: 1; stroke-width: 0px;"/><g class="scrollbox" transform="" clip-path="url(#legenda4b588)"><text class="legendtitletext" text-anchor="start" x="2" y="18.2" style="font-family: 'Open Sans', verdana, arial, sans-serif; font-size: 14px; fill: rgb(42, 63, 95); fill-opacity: 1; white-space: pre;">variable</text><g class="groups" transform=""><g class="traces" transform="translate(0,32.7)" style="opacity: 1;"><text class="legendtext" text-anchor="start" x="40" y="4.680000000000001" style="font-family: 'Open Sans', verdana, arial, sans-serif; font-size: 12px; fill: rgb(42, 63, 95); fill-opacity: 1; white-space: pre;">Purchase price</text><g class="layers" style="opacity: 1;"><g class="legendfill"/><g class="legendlines"><path class="js-line" d="M5,0h30" style="fill: none; stroke: rgb(99, 110, 250); stroke-opacity: 1; stroke-width: 2px;"/></g><g class="legendsymbols"><g class="legendpoints"/></g></g><rect class="legendtoggle" x="0" y="-9.5" width="185.0625" height="19" style="fill: rgb(0, 0, 0); fill-opacity: 0;"/></g></g><g class="groups" transform=""><g class="traces" transform="translate(0,51.7)" style="opacity: 1;"><text class="legendtext" text-anchor="start" x="40" y="4.680000000000001" style="font-family: 'Open Sans', verdana, arial, sans-serif; font-size: 12px; fill: rgb(42, 63, 95); fill-opacity: 1; white-space: pre;">Rolling 6-month median</text><g class="layers" style="opacity: 1;"><g class="legendfill"/><g class="legendlines"><path class="js-line" d="M5,0h30" style="fill: none; stroke: rgb(239, 85, 59); stroke-opacity: 1; stroke-width: 2px;"/></g><g class="legendsymbols"><g class="legendpoints"/></g></g><rect class="legendtoggle" x="0" y="-9.5" width="185.0625" height="19" style="fill: rgb(0, 0, 0); fill-opacity: 0;"/></g></g></g><rect class="scrollbar" rx="20" ry="3" width="0" height="0" x="0" y="0" style="fill: rgb(128, 139, 164); fill-opacity: 1;"/></g><g class="g-gtitle"/><g class="g-xtitle"/><g class="g-ytitle" transform="translate(13.5498046875,0)"><text class="ytitle" transform="rotate(-90,0.45000000000000284,302)" x="0.45000000000000284" y="302" text-anchor="middle" style="font-family: 'Open Sans', verdana, arial, sans-serif; font-size: 14px; fill: rgb(42, 63, 95); opacity: 1; font-weight: normal; white-space: pre;">value</text></g></g></svg>