<svg class="main-svg" xmlns="http://www.w3.org/2000/svg" xmlns:xlink="http://www.w3.org/1999/xlink" width="800" height="600" style="" viewBox="0 0 800 600"><rect x="0" y="0" width="800" height="600" style="fill: rgb(255, 255, 255); fill-opacity: 1;"/><defs id="defs-7d2104"><g class="clips"><clipPath id="clip7d2104xyplot" class="plotclip"><rect width="633" height="564"/></clipPath><clipPath class="axesclip" id="clip7d2104x"><rect x="66" y="0" width="633" height="600"/></clipPath><clipPath class="axesclip" id="clip7d2104y"><rect x="0" y="20" width="800" height="564"/></clipPath><clipPath class="axesclip" id="clip7d2104xy"><rect x="66" y="20" width="633" height="564"/></clipPath></g><g class="gradients"/><g class="patterns"/></defs><g class="bglayer"/><g class="layer-below"><g class="imagelayer"/><g class="shapelayer"/></g><g class="cartesianlayer"><g class="subplot xy"><g class="layer-subplot"><g class="shapelayer"/><g class="imagelayer"/></g><g class="minor-gridlayer"><g class="x"/><g class="y"/></g><g class="gridlayer"><g class="x"><path class="xgrid crisp" transform="translate(93.45,0)" d="M0,20v564" style="stroke: rgb(235, 240, 248); stroke-opacity: 1; stroke-width: 1px;"/><path class="xgrid crisp" transform="translate(220.11,0)" d="M0,20v564" style="stroke: rgb(235, 240, 248); stroke-opacity: 1; stroke-width: 1px;"/><path class="xgrid crisp" transform="translate(346.69,0)" d="M0,20v564" style="stroke: rgb(235, 240, 248); stroke-opacity: 1; stroke-width: 1px;"/><path class="xgrid crisp" transform="translate(473.28,0)" d="M0,20v564" style="stroke: rgb(235, 240, 248); stroke-opacity: 1; stroke-width: 1px;"/><path class="xgrid crisp" transform="translate(599.87,0)" d="M0,20v564" style="stroke: rgb(235, 240, 248); stroke-opacity: 1; stroke-width: 1px;"/></g><g class="y"><path class="ygrid crisp" transform="translate(0,577.79)" d="M66,0h633" style="stroke: rgb(235, 240, 248); stroke-opacity: 1; stroke-width: 1px;"/><path class="ygrid crisp" transform="translate(0,516.25)" d="M66,0h633" style="stroke: rgb(235, 240, 248); stroke-opacity: 1; stroke-width: 1px;"/><path class="ygrid crisp" transform="translate(0,454.7)" d="M66,0h633" style="stroke: rgb(235, 240, 248); stroke-opacity: 1; stroke-width: 1px;"/><path class="ygrid crisp" transform="translate(0,393.15)" d="M66,0h633" style="stroke: rgb(235, 240, 248); stroke-opacity: 1; stroke-width: 1px;"/><path class="ygrid crisp" transform="translate(0,331.61)" d="M66,0h633" style="stroke: rgb(235, 240, 248); stroke-opacity: 1; stroke-width: 1px;"/><path class="ygrid crisp" transform="translate(0,270.06)" d="M66,0h633" style="stroke: rgb(235, 240, 248); stroke-opacity: 1; stroke-width: 1px;"/><path class="ygrid crisp" transform="translate(0,208.52)" d="M66,0h633" style="stroke: rgb(235, 240, 248); stroke-opacity: 1; stroke-width: 1px;"/><path class="ygrid crisp" transform="translate(0,146.97)" d="M66,0h633" style="stroke: rgb(235, 240, 248); stroke-opacity: 1; stroke-width: 1px;"/><path class="ygrid crisp" transform="translate(0,85.42)" d="M66,0h633" style="stroke: rgb(235, 240, 248); stroke-opacity: 1; stroke-width: 1px;"/><path class="ygrid crisp" transform="translate(0,23.88)" d="M66,0h633" style="stroke: rgb(235, 240, 248); stroke-opacity: 1; stroke-width: 1px;"/></g></g><g class="zerolinelayer"/><path class="xlines-below"/><path class="ylines-below"/><g class="overlines-below"/><g class="xaxislayer-below"/><g class="yaxislayer-below"/><g class="overaxes-below"/><g class="plot" transform="translate(66,20)" clip-path="url(#clip7d2104xyplot)"><g class="scatterlayer mlayer"><g class="trace scatter trace3db45e" style="stroke-miterlimit: 2; opacity: 1;"><g class="fills"/><g class="errorbars"/><g class="lines"><path class="js-line" d="M0,136.38L6.24,28.2L8.39,66.42L10.47,103.42L12.62,98.97L14.7,94.13L16.85,39.25L18.99,31.8L21.07,29L23.22,85.08L25.3,108.39L27.45,114.34L29.6,109.36L33.76,162.62L35.84,204.88L37.99,224.58L40.07,260.7L42.22,269.07L44.37,251.82L46.45,215.28L48.6,193.16L50.68,151.67L52.83,87.57L54.97,44.38L56.92,51.18L59.06,72.2L61.14,74.12L63.29,76.27L65.37,72.19L67.52,53.78L69.67,42.51L71.75,41.54L73.9,70.65L75.98,89.24L78.13,80.58L80.28,83.43L82.22,88.14L84.37,103.25L86.45,68.76L88.6,73.65L90.68,126.56L92.83,213.08L94.97,261.64L97.05,293.43L99.2,285.16L101.28,241.74L103.43,162.43L105.58,157.39L107.52,193.72L109.67,260.02L111.75,263.66L115.98,236.3L118.13,250.9L120.28,288.37L122.36,293.66L126.59,256.11L128.74,237.58L130.88,227.68L132.89,208.54L135.04,227.09L137.12,259.39L139.27,269.46L141.35,290.73L143.5,302.46L145.65,302.95L147.73,305.6L149.88,290.79L151.96,303.52L154.11,303.29L156.26,294.64L158.2,296.95L160.35,300.69L162.43,346.75L164.58,341.39L166.66,340.16L168.8,342.17L170.95,347.99L175.18,291.65L177.26,295.93L183.5,241.44L185.65,248.54L187.73,274.98L189.88,290.87L191.96,353.15L194.11,344.04L196.26,358.04L198.34,346.65L200.49,354.94L202.57,371.3L204.71,348.66L206.86,358.97L208.8,360.07L210.95,379.35L213.03,384.68L215.18,379.09L217.26,407.55L219.41,425.63L221.56,440.46L223.64,418.61L225.79,392.75L227.87,356.04L230.02,282.57L232.17,285.51L236.33,395.21L238.41,403.87L240.56,375.23L242.63,403.53L244.78,412.4L246.93,432.11L249.01,442.85L251.16,432.11L253.24,404.72L255.39,346.65L257.54,328.09L259.48,301.79L261.63,298.68L263.71,309.53L267.94,340.95L270.09,363.05L272.24,394.33L274.32,411.26L278.54,356.67L280.69,334.09L282.84,328.79L284.78,334.73L289.01,395.11L291.16,411.74L293.24,407.88L295.39,425.48L297.54,426.18L299.62,407.23L301.77,396.63L303.85,395.67L306,430.53L308.15,393.58L312.24,348.14L314.32,376.32L320.69,495.62L322.84,463.11L324.92,405.18L327.07,380.31L331.3,424.87L333.45,423.57L335.46,393.23L337.61,397.99L339.69,377.98L341.84,396.2L343.92,395.02L346.07,411.59L350.3,343.66L352.44,353.27L356.67,406.05L358.82,356.48L362.91,323.09L364.99,298.61L369.22,311.43L371.37,388.27L373.52,398.17L375.6,415.54L377.75,416.58L379.83,433.71L381.98,399.69L384.13,333.02L386.07,268.63L388.22,255.76L390.3,264.25L392.44,277.7L394.52,260.43L396.67,221.87L398.82,195.4L400.9,189.61L403.05,180.42L405.13,187.28L407.28,131.25L409.43,101.24L411.37,48.9L413.52,83.54L419.83,207.52L421.98,211.56L424.13,247.36L426.21,243.94L428.35,268.61L430.43,257.64L432.58,259.64L434.73,298.35L438.89,354.9L440.97,341.14L445.2,326.49L447.35,327.93L449.5,336.35L451.58,382.47L453.73,404.86L455.81,399.15L457.96,395.88L460.11,362.26L462.05,345.05L464.2,332.69L466.28,363.04L468.42,369.69L470.5,380.67L472.65,324.29L474.8,342.53L476.88,339.62L479.03,399.62L481.11,391.01L485.41,307.38L487.35,278.09L489.5,283.57L491.58,277.21L495.81,356.96L497.96,338.1L500.11,338.52L502.19,345.29L504.33,409.24L506.41,394.52L510.71,364.34L512.65,368.15L514.8,382.87L516.88,385.3L519.03,366.78L521.11,372.87L523.26,387.82L525.41,431.24L527.49,437.05L529.64,420.67L531.72,403.74L533.87,414.91L536.02,411.4L538.03,391.85L546.48,126.51L548.63,167.73L552.86,203L555.01,178.74L559.24,266.24L561.39,342.12L563.33,380.53L565.48,405.32L567.56,415.12L569.71,416.96L571.79,436.51L573.94,411.38L576.08,427.73L578.16,405.65L582.39,443.28L584.54,455.69L586.69,450.92L588.63,426.16L590.78,435.9L592.86,402.79L595.01,417.53L597.09,426.53L599.24,456.23L601.39,469.17L603.47,472.35L605.62,480.69L607.7,485.15L609.85,468.21L611.99,468.04L613.94,448.6L616.08,482.6L618.16,502.14L620.31,535.8L622.39,535.03L624.54,527.66L626.69,495.24L630.92,481.06L633,498.39" style="vector-effect: non-scaling-stroke; fill: none; stroke: rgb(128, 0, 128); stroke-opacity: 1; stroke-width: 2px; opacity: 1;"/></g><g class="points"/><g class="text"/></g><g class="trace scatter tracedd7303" style="stroke-miterlimit: 2; opacity: 1;"><g class="fills"/><g class="errorbars"/><g class="lines"><path class="js-line" d="M0,284.66L2.15,266.5L4.3,257.98L6.24,247.13L8.39,257.9L14.7,329.78L16.85,323.57L18.99,300.33L21.07,297.18L25.3,344.12L27.45,329.68L29.6,299.82L31.61,294.69L40.07,370.21L42.22,378.54L44.37,381.63L46.45,375.27L48.6,370.66L50.68,361.25L52.83,343.86L54.97,317.54L56.92,313.81L59.06,314.36L61.14,331.04L63.29,327.68L65.37,332.85L67.52,326.9L69.67,317.55L71.75,301.94L73.9,299.02L75.98,304.83L80.28,282.6L82.22,273.98L86.45,300.16L88.6,309.06L92.83,335.06L94.97,335.48L97.05,340.74L99.2,336.11L101.28,338.12L103.43,312.88L105.58,293.47L107.52,291.75L111.75,320.97L113.9,325.92L115.98,328L118.13,340.97L120.28,342.28L122.36,349.77L124.51,348.84L126.59,357.12L128.74,347.44L130.88,333.01L132.89,328.42L135.04,336.26L137.12,348.24L139.27,351.72L149.88,373.78L151.96,377.03L154.11,363.14L156.26,344.27L158.2,327.95L160.35,337.52L164.58,372.57L166.66,384.01L168.8,393.55L170.95,384.05L173.03,374.32L175.18,368.26L177.26,371.48L179.41,347.27L181.56,328.46L183.5,330.6L187.73,359.35L189.88,357.02L191.96,376.12L194.11,377.5L196.26,376.43L198.34,376.93L200.49,383.95L202.57,394.73L204.71,376.54L206.86,351.21L208.8,344.06L210.95,349.73L213.03,372.29L215.18,384.02L217.26,399.81L219.41,408.21L221.56,405.26L223.64,403.79L225.79,402.28L227.87,404.11L230.02,392.17L232.17,386.82L234.18,388.77L236.33,398.01L240.56,396.69L242.63,401.64L244.78,404.69L246.93,397.8L249.01,383.48L251.16,376.77L253.24,370.39L255.39,349.04L259.48,276.26L261.63,275.21L263.71,279.25L265.86,291.52L270.09,320.66L272.24,339.57L274.32,329.75L276.47,330.15L278.54,323.79L280.69,321.55L282.84,318.43L284.78,318.29L286.93,322.71L289.01,335.77L295.39,375.73L297.54,377.87L301.77,370.19L303.85,381.52L306,383.34L308.15,374.24L310.09,356.49L312.24,355.86L314.32,363.63L316.47,367.21L318.55,374.85L320.69,369.97L324.92,357.37L327.07,362.19L329.15,362.28L331.3,356.03L333.45,340.62L335.46,351.04L337.61,361.17L339.69,374.98L341.84,372L343.92,373.71L346.07,384.56L348.22,380.2L350.3,376.89L352.44,369.49L354.52,377.07L356.67,369.83L360.76,332.41L362.91,333.24L364.99,337.5L367.14,347.33L369.22,347.94L371.37,345.95L373.52,339.23L375.6,329.63L377.75,330.36L379.83,329.89L381.98,324.02L384.13,309.79L386.07,312.79L388.22,328.86L390.3,343.02L392.44,340.87L394.52,334.17L396.67,336.04L403.05,324.52L405.13,326.23L409.43,289.59L411.37,280.08L415.6,320.4L417.75,331.76L419.83,331.46L421.98,326.59L424.13,325.43L426.21,333.72L430.43,368.64L432.58,356.22L436.74,331.37L438.89,348.71L443.12,369.06L445.2,371.22L447.35,372.55L449.5,378L453.73,389.75L455.81,384.14L460.11,349.63L462.05,344.55L468.42,396.18L470.5,390.7L472.65,384.97L474.8,387.41L479.03,407.82L481.11,404.66L485.41,363.46L487.35,351.61L489.5,365.41L491.58,373.43L493.73,387.93L495.81,389.85L497.96,392.86L500.11,399.09L504.33,422.14L506.41,422.64L508.56,423.1L510.71,410.87L512.65,403.12L514.8,398.17L521.11,404.36L523.26,409.04L525.41,412.22L527.49,407.01L531.72,406.53L533.87,403.52L538.03,374.91L540.17,345.04L544.4,285.24L546.48,268L550.78,261.35L552.86,277.15L555.01,287.32L557.09,301.26L559.24,299.61L561.39,299.75L563.33,308.76L565.48,329.94L569.71,365.01L571.79,383.24L573.94,390.07L576.08,400.82L578.16,384.55L580.31,391.58L584.54,419.61L586.69,426.11L588.63,421.92L590.78,442.31L592.86,442.47L595.01,458.85L597.09,464.36L599.24,476.74L601.39,477.52L603.47,484.01L607.7,496.27L609.85,486.84L613.94,470.01L616.08,470.62L618.16,478.87L620.31,491.81L622.39,495.2L624.54,483.76L626.69,474.78L628.77,472.1L630.92,479.17L633,479.05" style="vector-effect: non-scaling-stroke; fill: none; stroke: rgb(0, 0, 128); stroke-opacity: 1; stroke-width: 2px; opacity: 1;"/></g><g class="points"/><g class="text"/></g></g></g><g class="overplot"/><path class="xlines-above crisp" d="M0,0" style="fill: none;"/><path class="ylines-above crisp" d="M0,0" style="fill: none;"/><g class="overlines-above"/><g class="xaxislayer-above"><g class="xtick"><text text-anchor="middle" x="0" y="597" transform="translate(93.45,0)" style="font-family: 'Open Sans', verdana, arial, sans-serif; font-size: 12px; fill: rgb(42, 63, 95); fill-opacity: 1; white-space: pre; opacity: 1;">2000</text></g><g class="xtick"><text text-anchor="middle" x="0" y="597" style="font-family: 'Open Sans', verdana, arial, sans-serif; font-size: 12px; fill: rgb(42, 63, 95); fill-opacity: 1; white-space: pre; opacity: 1;" transform="translate(220.11,0)">2005</text></g><g class="xtick"><text text-anchor="middle" x="0" y="597" style="font-family: 'Open Sans', verdana, arial, sans-serif; font-size: 12px; fill: rgb(42, 63, 95); fill-opacity: 1; white-space: pre; opacity: 1;" transform="translate(346.69,0)">2010</text></g><g class="xtick"><text text-anchor="middle" x="0" y="597" style="font-family: 'Open Sans', verdana, arial, sans-serif; font-size: 12px; fill: rgb(42, 63, 95); fill-opacity: 1; white-space: pre; opacity: 1;" transform="translate(473.28,0)">2015</text></g><g class="xtick"><text text-anchor="middle" x="0" y="597" style="font-family: 'Open Sans', verdana, arial, sans-serif; font-size: 12px; fill: rgb(42, 63, 95); fill-opacity: 1; white-space: pre; opacity: 1;" transform="translate(599.87,0)">2020</text></g></g><g class="yaxislayer-above"><g class="ytick"><text text-anchor="end" x="65" y="4.199999999999999" transform="translate(0,577.79)" style="font-family: 'Open Sans', verdana, arial, sans-serif; font-size: 12px; fill: rgb(42, 63, 95); fill-opacity: 1; white-space: pre; opacity: 1;">2.0%</text></g><g class="ytick"><text text-anchor="end" x="65" y="4.199999999999999" style="font-family: 'Open Sans', verdana, arial, sans-serif; font-size: 12px; fill: rgb(42, 63, 95); fill-opacity: 1; white-space: pre; opacity: 1;" transform="translate(0,516.25)">3.0%</text></g><g class="ytick"><text text-anchor="end" x="65" y="4.199999999999999" style="font-family: 'Open Sans', verdana, arial, sans-serif; font-size: 12px; fill: rgb(42, 63, 95); fill-opacity: 1; white-space: pre; opacity: 1;" transform="translate(0,454.7)">4.0%</text></g><g class="ytick"><text text-anchor="end" x="65" y="4.199999999999999" style="font-family: 'Open Sans', verdana, arial, sans-serif; font-size: 12px; fill: rgb(42, 63, 95); fill-opacity: 1; white-space: pre; opacity: 1;" transform="translate(0,393.15)">5.0%</text></g><g class="ytick"><text text-anchor="end" x="65" y="4.199999999999999" style="font-family: 'Open Sans', verdana, arial, sans-serif; font-size: 12px; fill: rgb(42, 63, 95); fill-opacity: 1; white-space: pre; opacity: 1;" transform="translate(0,331.61)">6.0%</text></g><g class="ytick"><text text-anchor="end" x="65" y="4.199999999999999" style="font-family: 'Open Sans', verdana, arial, sans-serif; font-size: 12px; fill: rgb(42, 63, 95); fill-opacity: 1; white-space: pre; opacity: 1;" transform="translate(0,270.06)">7.0%</text></g><g class="ytick"><text text-anchor="end" x="65" y="4.199999999999999" style="font-family: 'Open Sans', verdana, arial, sans-serif; font-size: 12px; fill: rgb(42, 63, 95); fill-opacity: 1; white-space: pre; opacity: 1;" transform="translate(0,208.52)">8.0%</text></g><g class="ytick"><text text-anchor="end" x="65" y="4.199999999999999" style="font-family: 'Open Sans', verdana, arial, sans-serif; font-size: 12px; fill: rgb(42, 63, 95); fill-opacity: 1; white-space: pre; opacity: 1;" transform="translate(0,146.97)">9.0%</text></g><g class="ytick"><text text-anchor="end" x="65" y="4.199999999999999" style="font-family: 'Open Sans', verdana, arial, sans-serif; font-size: 12px; fill: rgb(42, 63, 95); fill-opacity: 1; white-space: pre; opacity: 1;" transform="translate(0,85.42)">10.0%</text></g><g class="ytick"><text text-anchor="end" x="65" y="4.199999999999999" style="font-family: 'Open Sans', verdana, arial, sans-serif; font-size: 12px; fill: rgb(42, 63, 95); fill-opacity: 1; white-space: pre; opacity: 1;" transform="translate(0,23.88)">11.0%</text></g></g><g class="overaxes-above"/></g></g><g class="polarlayer"/><g class="smithlayer"/><g class="ternarylayer"/><g class="geolayer"/><g class="funnelarealayer"/><g class="pielayer"/><g class="iciclelayer"/><g class="treemaplayer"/><g class="sunburstlayer"/><g class="glimages"/><defs id="topdefs-7d2104"><g class="clips"/><clipPath id="legend7d2104"><rect width="88" height="48" x="0" y="0"/></clipPath></defs><g class="layer-above"><g class="imagelayer"/><g class="shapelayer"/></g><g class="infolayer"><g class="legend" pointer-events="all" transform="translate(711.66,20)"><rect class="bg" shape-rendering="crispEdges" width="88" height="48" x="0" y="0" style="stroke: rgb(68, 68, 68); stroke-opacity: 1; fill: rgb(255, 255, 255); fill-opacity: 1; stroke-width: 0px;"/><g class="scrollbox" transform="" clip-path="url(#legend7d2104)"><g class="groups"><g class="traces" transform="translate(0,14.5)" style="opacity: 1;"><text class="legendtext" text-anchor="start" x="40" y="4.680000000000001" style="font-family: 'Open Sans', verdana, arial, sans-serif; font-size: 12px; fill: rgb(42, 63, 95); fill-opacity: 1; white-space: pre;">Hunter</text><g class="layers" style="opacity: 1;"><g class="legendfill"/><g class="legendlines"><path class="js-line" d="M5,0h30" style="fill: none; stroke: rgb(128, 0, 128); stroke-opacity: 1; stroke-width: 2px;"/></g><g class="legendsymbols"><g class="legendpoints"/></g></g><rect class="legendtoggle" x="0" y="-9.5" width="82.09375" height="19" style="fill: rgb(0, 0, 0); fill-opacity: 0;"/></g><g class="traces" transform="translate(0,33.5)" style="opacity: 1;"><text class="legendtext" text-anchor="start" x="40" y="4.680000000000001" style="font-family: 'Open Sans', verdana, arial, sans-serif; font-size: 12px; fill: rgb(42, 63, 95); fill-opacity: 1; white-space: pre;">NSW</text><g class="layers" style="opacity: 1;"><g class="legendfill"/><g class="legendlines"><path class="js-line" d="M5,0h30" style="fill: none; stroke: rgb(0, 0, 128); stroke-opacity: 1; stroke-width: 2px;"/></g><g class="legendsymbols"><g class="legendpoints"/></g></g><rect class="legendtoggle" x="0" y="-9.5" width="82.09375" height="19" style="fill: rgb(0, 0, 0); fill-opacity: 0;"/></g></g></g><rect class="scrollbar" rx="20" ry="3" width="0" height="0" x="0" y="0" style="fill: rgb(128, 139, 164); fill-opacity: 1;"/></g><g class="g-gtitle"/><g class="g-xtitle"/><g class="g-ytitle" transform="translate(13.9716796875,0)"><text class="ytitle" transform="rotate(-90,0.028125000000002842,302)" x="0.028125000000002842" y="302" text-anchor="middle" style="font-family: 'Open Sans', verdana, arial, sans-serif; font-size: 14px; fill: rgb(42, 63, 95); opacity: 1; font-weight: normal; white-space: pre;">Unemployment</text></g></g></svg>