<?xml version="1.0" encoding="UTF-8"?>
<svg id="Layer_1" data-name="Layer 1" xmlns="http://www.w3.org/2000/svg" xmlns:xlink="http://www.w3.org/1999/xlink" viewBox="0 0 430.06 430.06">
  <defs>
    <style>
      .cls-1 {
        clip-path: url(#clippath-2);
      }

      .cls-2 {
        fill-rule: evenodd;
      }

      .cls-2, .cls-3, .cls-4, .cls-5, .cls-6, .cls-7 {
        stroke-width: 0px;
      }

      .cls-2, .cls-7 {
        fill: #5c0425;
      }

      .cls-3, .cls-4, .cls-5 {
        fill: none;
      }

      .cls-8 {
        clip-path: url(#clippath-1);
      }

      .cls-4, .cls-5 {
        clip-rule: evenodd;
      }

      .cls-5 {
        clip-path: url(#clippath);
      }

      .cls-6 {
        fill: #edc8bd;
      }
    </style>
    <clipPath id="clippath">
      <polygon class="cls-4" points="138.34 430.06 286.42 430.06 286.42 281.86 138.34 281.86 138.34 430.06 138.34 430.06"/>
    </clipPath>
    <clipPath id="clippath-1">
      <polygon class="cls-5" points="138.34 281.86 286.42 281.86 286.42 430.06 138.34 430.06 138.34 281.86 138.34 281.86"/>
    </clipPath>
    <clipPath id="clippath-2">
      <polygon class="cls-3" points="138.34 430.06 286.42 430.06 286.42 281.86 138.34 281.86 138.34 430.06 138.34 430.06"/>
    </clipPath>
  </defs>
  <rect class="cls-6" width="430.06" height="430.06"/>
  <path class="cls-2" d="m237.04,253.83h-42.46l2.43-4.04h34.62v-.45h.49v-.5h0v-.45h0l5.9-24.32h.49v-.5h-.49v-.45h0v-.4h-.49v-.5h-.97v-.45h-36.62c-.97,0-1.95.95-1.95,1.8,0,1.4.97,2.3,1.95,2.3h34.13l-5.36,20.27h-27.32l-5.84-29.76h0v-.45h-.49v-.45h-.49v-.45h-6.87c-.97,0-1.95.9-1.95,1.8s.97,1.8,1.95,1.8h4.38l5.41,27.51h-2.43v.45h-.49v.45h-.49l-4.92,7.24v.45h-.49v.45h0v.45h0v.45h.49v.45h0q0,.45.49.45h.49v.45h8.82c-.49.9-.97,2.25-.97,3.6,0,3.65,3.41,7.24,7.79,7.24s7.79-3.6,7.79-7.24c0-1.35-.49-2.7-.92-3.6h9.74c-.49.9-.97,2.25-.97,3.6,0,3.65,3.89,7.24,7.79,7.24,4.38,0,7.84-3.6,7.84-7.24,0-1.35,0-2.7-.97-3.6h.97c1.46,0,1.95-.9,1.95-1.8,0-1.35-.49-1.8-1.95-1.8h0Zm-27.32,7.19h0c0,1.85-1.95,3.65-3.95,3.65s-3.89-1.8-3.89-3.65c0-2.25,1.95-3.6,3.89-3.6s3.95,1.35,3.95,3.6h0Zm23.42,0h0c0,1.85-1.51,3.65-3.95,3.65-1.95,0-3.89-1.8-3.89-3.65,0-2.25,1.95-3.6,3.89-3.6,2.43,0,3.95,1.35,3.95,3.6h0Z"/>
  <polygon class="cls-2" points="237.35 102.32 228.39 102.32 228.39 194.24 201.66 194.24 201.66 102.32 192.71 102.32 215.03 80 237.35 102.32 237.35 102.32"/>
  <g>
    <path class="cls-7" d="m90.68,47l1.54,2.27c.28.39.25.81-.2,1.12-1.37.98-3.28,1.51-5.21,1.51-5.77,0-9.27-3.86-9.27-10.3s3.5-10.33,9.24-10.33c1.9,0,3.78.53,5.18,1.51.42.28.45.7.17,1.12l-1.54,2.27c-.28.45-.67.45-1.12.2-.73-.45-1.54-.67-2.41-.67-2.35,0-3.67,1.93-3.67,5.91s1.32,5.88,3.67,5.88c.9,0,1.74-.22,2.49-.67.45-.28.81-.28,1.12.2Z"/>
    <path class="cls-7" d="m108.1,43.72c0,5.1-2.88,8.18-7.64,8.18s-7.67-3.08-7.67-8.18,2.88-8.18,7.67-8.18,7.64,3.11,7.64,8.18Zm-5.52,0c0-2.58-.76-3.98-2.13-3.98s-2.16,1.4-2.16,3.98.76,4,2.16,4,2.13-1.43,2.13-4Z"/>
    <path class="cls-7" d="m123.69,40.22v10.33c0,.5-.31.81-.81.81h-3.78c-.5,0-.78-.31-.78-.81v-9.41c0-.9-.42-1.4-1.12-1.4s-1.37.53-1.79,1.43v9.38c0,.5-.31.81-.81.81h-3.75c-.53,0-.81-.31-.81-.81v-13.66c0-.5.28-.78.81-.78h3.53c.5,0,.81.28.81.78v1.06c.9-1.48,2.63-2.41,4.26-2.41,2.58,0,4.26,1.9,4.26,4.68Z"/>
    <path class="cls-7" d="m132.91,41.87c2.16.59,5.04,1.32,5.04,4.79,0,3.14-2.83,5.24-7.06,5.24-2.13,0-4.37-.64-5.85-1.68-.42-.31-.48-.7-.17-1.15l1.32-1.79c.31-.42.67-.48,1.15-.2.95.53,2.21.87,3.25.87,1.15,0,1.85-.39,1.85-.98,0-.73-.67-.95-2.04-1.32-2.07-.56-5.24-1.57-5.24-5.04,0-3.19,2.41-5.07,6.47-5.07,1.76,0,3.84.53,5.38,1.4.48.25.53.67.22,1.12l-1.32,1.79c-.28.45-.64.48-1.09.25-.78-.39-1.76-.62-2.63-.62-.98,0-1.68.39-1.68.95,0,.76.78.95,2.41,1.43Z"/>
    <path class="cls-7" d="m153.01,36.89v13.66c0,.5-.31.81-.81.81h-3.39c-.5,0-.81-.31-.81-.81v-1.04c-.92,1.51-2.63,2.38-4.26,2.38-2.58,0-4.23-1.85-4.23-4.65v-10.36c0-.5.28-.78.81-.78h3.75c.53,0,.81.28.81.78v9.41c0,.95.39,1.46,1.09,1.46.64,0,1.23-.42,1.62-1.18v-9.69c0-.5.31-.78.81-.78h3.78c.5,0,.81.28.81.78Z"/>
    <path class="cls-7" d="m176.53,40.22v10.33c0,.5-.31.81-.81.81h-3.78c-.5,0-.81-.31-.81-.81v-9.41c0-.9-.34-1.4-.98-1.4-.56,0-1.09.42-1.46,1.15v9.66c0,.5-.31.81-.81.81h-3.78c-.5,0-.81-.31-.81-.81v-9.41c0-.95-.25-1.4-.87-1.4s-1.18.42-1.6,1.2v9.6c0,.5-.31.81-.81.81h-3.75c-.53,0-.81-.31-.81-.81v-13.66c0-.5.28-.78.81-.78h3.53c.5,0,.81.28.81.78v1.06c.87-1.43,2.58-2.41,4.2-2.41s2.86.9,3.47,2.35c.87-1.4,2.52-2.35,4.06-2.35,2.63,0,4.2,1.76,4.2,4.68Z"/>
    <path class="cls-7" d="m178.35,43.72c0-5.07,2.91-8.18,7.73-8.18,4.4,0,6.97,2.88,6.97,7.67,0,.45-.03.95-.11,1.46-.06.48-.36.73-.84.73h-8.26c.42,1.6,1.54,2.44,3.33,2.44.81,0,1.82-.22,2.66-.59.48-.2.81-.11,1.12.28l1.15,1.57c.28.42.25.81-.14,1.09-1.51,1.09-3.75,1.71-5.88,1.71-4.82,0-7.73-3.08-7.73-8.18Zm9.52-1.46c-.03-1.88-.76-2.97-1.96-2.97s-1.99,1.01-2.24,2.97h4.2Z"/>
    <path class="cls-7" d="m205.14,36.75l-.53,3.64c-.08.53-.39.73-.84.64-.25-.06-.5-.08-.76-.08-1.26,0-2.3.84-2.74,2.16v7.45c0,.5-.31.81-.81.81h-3.75c-.53,0-.81-.31-.81-.81v-13.66c0-.5.28-.78.81-.78h3.53c.5,0,.81.28.81.78v1.26c.73-1.62,2.02-2.6,3.47-2.6.36,0,.78.08,1.12.2.45.14.56.53.5,1.01Z"/>
    <path class="cls-7" d="m227.26,43.75c0,5.07-2.27,8.15-5.99,8.15-1.23,0-2.52-.53-3.44-1.43v6.41c0,.53-.31.81-.81.81h-3.75c-.53,0-.81-.28-.81-.81v-19.99c0-.5.28-.78.81-.78h3.53c.5,0,.81.28.81.78v1.04c.9-1.46,2.63-2.35,4.37-2.35,3.3,0,5.29,3.08,5.29,8.18Zm-5.52-.06c0-2.55-.67-3.95-1.9-3.95-.81,0-1.54.48-2.02,1.37v5.24c.48.87,1.18,1.37,1.99,1.37,1.26,0,1.93-1.43,1.93-4.03Z"/>
    <path class="cls-7" d="m239.47,36.75l-.53,3.64c-.08.53-.39.73-.84.64-.25-.06-.5-.08-.76-.08-1.26,0-2.3.84-2.74,2.16v7.45c0,.5-.31.81-.81.81h-3.75c-.53,0-.81-.31-.81-.81v-13.66c0-.5.28-.78.81-.78h3.53c.5,0,.81.28.81.78v1.26c.73-1.62,2.02-2.6,3.47-2.6.36,0,.78.08,1.12.2.45.14.56.53.5,1.01Z"/>
    <path class="cls-7" d="m240.51,33.56v-2.32c0-.5.28-.81.81-.81h3.84c.5,0,.81.31.81.81v2.32c0,.53-.31.81-.81.81h-3.84c-.53,0-.81-.28-.81-.81Zm.03,17v-13.66c0-.5.31-.78.81-.78h3.78c.5,0,.78.28.78.78v13.66c0,.5-.28.81-.78.81h-3.78c-.5,0-.81-.31-.81-.81Z"/>
    <path class="cls-7" d="m247.87,43.72c0-4.93,3.11-8.18,7.73-8.18,1.76,0,3.53.53,4.76,1.4.42.34.48.7.17,1.15l-1.48,2.07c-.31.39-.67.39-1.12.14-.48-.28-1.01-.39-1.54-.39-1.93,0-2.91,1.26-2.91,3.81s.95,3.84,2.94,3.84c.5,0,1.06-.17,1.54-.42.48-.28.81-.28,1.12.14l1.48,2.07c.31.42.31.78-.06,1.06-1.26.92-3.05,1.48-4.9,1.48-4.68,0-7.73-3.22-7.73-8.18Z"/>
    <path class="cls-7" d="m260.95,43.72c0-5.07,2.91-8.18,7.73-8.18,4.4,0,6.97,2.88,6.97,7.67,0,.45-.03.95-.11,1.46-.06.48-.36.73-.84.73h-8.26c.42,1.6,1.54,2.44,3.33,2.44.81,0,1.82-.22,2.66-.59.48-.2.81-.11,1.12.28l1.15,1.57c.28.42.25.81-.14,1.09-1.51,1.09-3.75,1.71-5.88,1.71-4.82,0-7.73-3.08-7.73-8.18Zm9.52-1.46c-.03-1.88-.76-2.97-1.96-2.97s-1.99,1.01-2.24,2.97h4.2Z"/>
    <path class="cls-7" d="m283.71,33.56v-2.32c0-.5.28-.81.81-.81h3.84c.5,0,.81.31.81.81v2.32c0,.53-.31.81-.81.81h-3.84c-.53,0-.81-.28-.81-.81Zm.03,17v-13.66c0-.5.31-.78.81-.78h3.78c.5,0,.78.28.78.78v13.66c0,.5-.28.81-.78.81h-3.78c-.5,0-.81-.31-.81-.81Z"/>
    <path class="cls-7" d="m305.27,40.22v10.33c0,.5-.31.81-.81.81h-3.78c-.5,0-.78-.31-.78-.81v-9.41c0-.9-.42-1.4-1.12-1.4s-1.37.53-1.79,1.43v9.38c0,.5-.31.81-.81.81h-3.75c-.53,0-.81-.31-.81-.81v-13.66c0-.5.28-.78.81-.78h3.53c.5,0,.81.28.81.78v1.06c.9-1.48,2.63-2.41,4.26-2.41,2.58,0,4.26,1.9,4.26,4.68Z"/>
    <path class="cls-7" d="m307.09,43.72c0-5.07,2.27-8.15,6.02-8.15,1.23,0,2.52.56,3.44,1.46v-5.8c0-.5.31-.81.81-.81h3.78c.5,0,.81.31.81.81v19.32c0,.5-.31.81-.81.81h-3.3c-.5,0-.81-.31-.81-.81v-.56c-1.01,1.18-2.55,1.9-4.2,1.9-3.56,0-5.74-3.08-5.74-8.18Zm9.46,2.63v-5.26c-.45-.87-1.18-1.37-1.99-1.37-1.26,0-1.96,1.43-1.96,4.06s.67,3.95,1.9,3.95c.87,0,1.6-.5,2.04-1.37Z"/>
    <path class="cls-7" d="m323.86,43.72c0-5.07,2.91-8.18,7.73-8.18,4.4,0,6.97,2.88,6.97,7.67,0,.45-.03.95-.11,1.46-.06.48-.36.73-.84.73h-8.26c.42,1.6,1.54,2.44,3.33,2.44.81,0,1.82-.22,2.66-.59.48-.2.81-.11,1.12.28l1.15,1.57c.28.42.25.81-.14,1.09-1.51,1.09-3.75,1.71-5.88,1.71-4.82,0-7.73-3.08-7.73-8.18Zm9.52-1.46c-.03-1.88-.76-2.97-1.96-2.97s-1.99,1.01-2.24,2.97h4.2Z"/>
    <path class="cls-7" d="m338.65,50.38l3.98-6.69-3.72-6.64c-.28-.56-.06-.95.59-.95h3.89c.48,0,.78.17.95.62l1.68,3.95,1.79-3.98c.2-.42.48-.59.95-.59h3.78c.62,0,.87.39.56.95l-3.7,6.61,3.92,6.72c.34.56.08.98-.56.98h-3.89c-.45,0-.76-.2-.95-.62l-1.93-4.28-2.07,4.31c-.2.39-.5.59-.95.59h-3.78c-.64,0-.87-.42-.53-.98Z"/>
  </g>
  <g>
    <path class="cls-7" d="m57.23,209.1h-5.23v5.3c0,.7-.43,1.13-1.13,1.13h-3.16c-.7,0-1.13-.43-1.13-1.13v-5.3h-5.23c-.74,0-1.13-.39-1.13-1.09v-3.2c0-.7.39-1.13,1.13-1.13h5.19v-5.3c0-.7.43-1.13,1.13-1.13h3.2c.7,0,1.13.43,1.13,1.13v5.3h5.23c.7,0,1.13.43,1.13,1.13v3.2c0,.7-.43,1.09-1.13,1.09Z"/>
    <path class="cls-7" d="m80.01,214.88v3.35c0,.7-.43,1.13-1.13,1.13h-15.95c-.74,0-1.13-.43-1.13-1.13v-3.35c0-.74.39-1.13,1.13-1.13h4.95v-13.88l-3.9,2.18c-.62.35-1.13.19-1.56-.31l-2.26-2.69c-.47-.62-.39-1.17.27-1.56l8.5-4.99c.47-.27.9-.39,1.4-.39h3.71c.7,0,1.09.43,1.09,1.13v20.51h3.74c.7,0,1.13.39,1.13,1.13Z"/>
    <path class="cls-7" d="m83.4,218.23v-5.11c0-.7.43-1.13,1.13-1.13h5.5c.7,0,1.13.43,1.13,1.13v5.11c0,.7-.43,1.13-1.13,1.13h-5.5c-.7,0-1.13-.43-1.13-1.13Z"/>
    <path class="cls-7" d="m116.55,205.75c0,9.32-3.71,14.35-10.73,14.35s-10.73-5.03-10.73-14.35,3.71-14.39,10.73-14.39,10.73,5.03,10.73,14.39Zm-7.64,0c0-6.04-.9-8.42-3.08-8.42s-3.08,2.38-3.08,8.42.9,8.38,3.08,8.38,3.08-2.38,3.08-8.38Z"/>
    <path class="cls-7" d="m120.45,198.93c0-4.49,2.73-7.22,7.22-7.22s7.22,2.73,7.22,7.22-2.73,7.21-7.22,7.21-7.22-2.77-7.22-7.21Zm9.52,20.44h-3.67c-.9,0-1.21-.58-.7-1.37l17.28-25.19c.31-.51.74-.7,1.33-.7h3.67c.9,0,1.25.58.7,1.37l-17.24,25.19c-.35.51-.78.7-1.36.7Zm-.31-20.44c0-1.91-.7-2.96-1.99-2.96s-1.99,1.05-1.99,2.96.7,2.92,1.99,2.92,1.99-1.05,1.99-2.92Zm9.59,13.61c0-4.49,2.73-7.22,7.22-7.22s7.22,2.73,7.22,7.22-2.73,7.25-7.22,7.25-7.22-2.77-7.22-7.25Zm9.2,0c0-1.87-.7-2.92-1.99-2.92s-1.99,1.05-1.99,2.92.7,2.96,1.99,2.96,1.99-1.05,1.99-2.96Z"/>
    <path class="cls-7" d="m45.37,240.9v-10.26c0-.29.18-.46.46-.46h3.2c.27,0,.45.13.5.42l1.58,7.71,1.54-7.71c.06-.29.24-.42.51-.42h3.2c.29,0,.46.18.46.46v10.26c0,.29-.18.46-.46.46h-1.94c-.29,0-.45-.18-.45-.46v-3.47c0-1.02.1-3.09.21-4.1h-.05l-1.71,7.62c-.06.27-.24.42-.51.42h-1.6c-.27,0-.45-.14-.51-.42l-1.74-7.62h-.05c.11,1.01.21,3.07.21,4.1v3.47c0,.29-.16.46-.46.46h-1.92c-.29,0-.46-.18-.46-.46Z"/>
    <path class="cls-7" d="m65.62,235.26v5.63c0,.29-.16.46-.46.46h-1.89c-.29,0-.45-.18-.45-.46v-.26c-.62.64-1.55,1.02-2.4,1.02-1.54,0-2.56-1.1-2.56-2.75s1.36-2.75,3.39-2.75h1.38v-.5c0-.72-.46-1.02-1.39-1.02-.43,0-.96.11-1.39.3-.26.13-.46.1-.64-.14l-.74-1.02c-.18-.26-.13-.5.13-.64.91-.5,2.13-.82,3.17-.82,2.53,0,3.86,1.01,3.86,2.95Zm-2.99,2.38h-.88c-.56,0-.88.35-.88.99,0,.53.29.85.75.85.4,0,.77-.22,1.01-.62v-1.22Z"/>
    <path class="cls-7" d="m72.82,233.01l-.3,2.08c-.05.3-.22.42-.48.37-.14-.03-.29-.05-.43-.05-.72,0-1.31.48-1.57,1.23v4.26c0,.29-.18.46-.46.46h-2.15c-.3,0-.46-.18-.46-.46v-7.81c0-.29.16-.45.46-.45h2.02c.29,0,.46.16.46.45v.72c.42-.93,1.15-1.49,1.98-1.49.21,0,.45.05.64.11.26.08.32.3.29.58Z"/>
    <path class="cls-7" d="m72.89,236.99c0-2.82,1.78-4.67,4.42-4.67,1.01,0,2.02.3,2.72.8.24.19.27.4.1.66l-.85,1.18c-.18.22-.38.22-.64.08-.27-.16-.58-.22-.88-.22-1.1,0-1.66.72-1.66,2.18s.54,2.19,1.68,2.19c.29,0,.61-.1.88-.24.27-.16.46-.16.64.08l.85,1.18c.18.24.18.45-.03.61-.72.53-1.74.85-2.8.85-2.67,0-4.42-1.84-4.42-4.67Z"/>
    <path class="cls-7" d="m88.64,234.99v5.91c0,.29-.18.46-.46.46h-2.16c-.29,0-.45-.18-.45-.46v-5.38c0-.54-.21-.8-.66-.8-.37,0-.75.24-1.01.7v5.47c0,.29-.18.46-.46.46h-2.15c-.3,0-.46-.18-.46-.46v-11.04c0-.29.16-.46.46-.46h2.15c.29,0,.46.18.46.46v3.65c.56-.74,1.42-1.18,2.31-1.18,1.54,0,2.43,1.01,2.43,2.67Z"/>
    <path class="cls-7" d="m98.69,244.52v-3.89c-.58.67-1.47,1.04-2.42,1.04-1.87,0-3.02-1.76-3.02-4.67s1.3-4.66,3.44-4.66c.83,0,1.67.42,2.23,1.07v-.32c0-.29.16-.45.45-.45h1.94c.3,0,.46.16.46.45v11.43c0,.3-.16.46-.46.46h-2.15c-.29,0-.46-.16-.46-.46Zm0-6.07v-2.91c-.27-.51-.69-.83-1.17-.83-.72,0-1.12.82-1.12,2.32s.38,2.26,1.09,2.26c.5,0,.93-.29,1.2-.83Z"/>
    <path class="cls-7" d="m110.82,233.09v7.81c0,.29-.18.46-.46.46h-1.94c-.29,0-.46-.18-.46-.46v-.59c-.53.86-1.5,1.36-2.43,1.36-1.47,0-2.42-1.06-2.42-2.66v-5.92c0-.29.16-.45.46-.45h2.15c.3,0,.46.16.46.45v5.38c0,.54.22.83.62.83.37,0,.7-.24.93-.67v-5.54c0-.29.18-.45.46-.45h2.16c.29,0,.46.16.46.45Z"/>
    <path class="cls-7" d="m119.55,235.26v5.63c0,.29-.16.46-.46.46h-1.89c-.29,0-.45-.18-.45-.46v-.26c-.62.64-1.55,1.02-2.4,1.02-1.54,0-2.56-1.1-2.56-2.75s1.36-2.75,3.39-2.75h1.38v-.5c0-.72-.46-1.02-1.39-1.02-.43,0-.96.11-1.39.3-.26.13-.46.1-.64-.14l-.74-1.02c-.18-.26-.13-.5.13-.64.91-.5,2.13-.82,3.17-.82,2.53,0,3.86,1.01,3.86,2.95Zm-2.99,2.38h-.88c-.56,0-.88.35-.88.99,0,.53.29.85.75.85.4,0,.77-.22,1.01-.62v-1.22Z"/>
    <path class="cls-7" d="m126.75,233.01l-.3,2.08c-.05.3-.22.42-.48.37-.14-.03-.29-.05-.43-.05-.72,0-1.31.48-1.57,1.23v4.26c0,.29-.18.46-.46.46h-2.15c-.3,0-.46-.18-.46-.46v-7.81c0-.29.16-.45.46-.45h2.02c.29,0,.46.16.46.45v.72c.42-.93,1.15-1.49,1.98-1.49.21,0,.45.05.64.11.26.08.32.3.29.58Z"/>
    <path class="cls-7" d="m127.85,238.64v-3.81h-.67c-.29,0-.45-.16-.45-.46v-.94c0-.26.11-.45.37-.53l.3-.06c.29-.11.46-.21.54-.72l.14-.91c.05-.29.22-.42.51-.42h1.87c.29,0,.45.18.45.46v1.39h1.52c.3,0,.46.16.46.45v1.28c0,.3-.16.46-.46.46h-1.52v3.54c0,.64.27.9.77.9.19,0,.4-.05.67-.11.3-.08.51.03.56.34l.19,1.3c.05.29-.11.5-.43.59-.64.19-1.23.29-1.79.29-1.79,0-3.04-1.01-3.04-3.02Z"/>
    <path class="cls-7" d="m133.31,236.99c0-2.9,1.66-4.67,4.42-4.67,2.51,0,3.99,1.65,3.99,4.39,0,.26-.02.54-.06.83-.03.27-.21.42-.48.42h-4.72c.24.91.88,1.39,1.9,1.39.46,0,1.04-.13,1.52-.34.27-.11.46-.06.64.16l.66.9c.16.24.14.46-.08.62-.86.62-2.14.98-3.36.98-2.75,0-4.42-1.76-4.42-4.67Zm5.44-.83c-.02-1.07-.43-1.7-1.12-1.7s-1.14.58-1.28,1.7h2.4Z"/>
    <path class="cls-7" d="m148.62,233.01l-.3,2.08c-.05.3-.22.42-.48.37-.14-.03-.29-.05-.43-.05-.72,0-1.31.48-1.57,1.23v4.26c0,.29-.18.46-.46.46h-2.15c-.3,0-.46-.18-.46-.46v-7.81c0-.29.16-.45.46-.45h2.02c.29,0,.46.16.46.45v.72c.42-.93,1.15-1.49,1.98-1.49.21,0,.45.05.64.11.26.08.32.3.29.58Z"/>
  </g>
  <g>
    <path class="cls-7" d="m291.76,198.81h-5.36v5.44c0,.72-.44,1.16-1.16,1.16h-3.24c-.72,0-1.16-.44-1.16-1.16v-5.44h-5.36c-.76,0-1.16-.4-1.16-1.12v-3.28c0-.72.4-1.16,1.16-1.16h5.32v-5.44c0-.72.44-1.16,1.16-1.16h3.28c.72,0,1.16.44,1.16,1.16v5.44h5.36c.72,0,1.16.44,1.16,1.16v3.28c0,.72-.44,1.12-1.16,1.12Z"/>
    <path class="cls-7" d="m294.84,207.29c-.56-.44-.6-1.04-.12-1.6l2.2-2.64c.44-.6,1-.6,1.64-.16,1.28.92,2.88,1.48,4.32,1.48,2.08,0,3.6-1.08,3.6-3.36s-1.56-3.52-4.36-3.52h-1.56c-.72,0-1.2-.4-1.2-1.16v-1.08c0-.6.12-1,.52-1.4l5.68-6.72h-8.96c-.72,0-1.12-.4-1.12-1.16v-3.44c0-.72.4-1.16,1.12-1.16h16.08c.72,0,1.12.44,1.12,1.16v2.92c0,.6-.16,1-.52,1.44l-5.8,6.88c4.4.68,6.84,3.48,6.84,7.72,0,5.44-4.56,8.6-10.24,8.6-3.48,0-6.88-1.04-9.24-2.8Z"/>
    <path class="cls-7" d="m318.08,208.17v-5.24c0-.72.44-1.16,1.16-1.16h5.64c.72,0,1.16.44,1.16,1.16v5.24c0,.72-.44,1.16-1.16,1.16h-5.64c-.72,0-1.16-.44-1.16-1.16Z"/>
    <path class="cls-7" d="m351.44,199.93c0,6.12-4.2,10.16-10.56,10.16-6.8,0-10.8-4.96-10.8-13.36,0-9.68,5.08-16.12,12.64-16.12,2.72,0,5.64.88,7.56,2.24.64.4.64,1.04.16,1.6l-1.92,2.32c-.48.56-1,.6-1.64.24-1-.52-2.28-.84-3.36-.84-2.88,0-4.6,2.08-5.16,6.28,1.48-1.08,3.36-1.76,5.2-1.76,4.8,0,7.88,3.64,7.88,9.24Zm-7.68.04c0-2.96-.76-4.16-2.6-4.16-1.08,0-2.2.56-3.04,1.4.08,5.56.88,7.52,2.88,7.52,1.76,0,2.76-1.64,2.76-4.76Z"/>
    <path class="cls-7" d="m355,188.37c0-4.6,2.8-7.4,7.4-7.4s7.4,2.8,7.4,7.4-2.8,7.4-7.4,7.4-7.4-2.84-7.4-7.4Zm9.76,20.96h-3.76c-.92,0-1.24-.6-.72-1.4l17.72-25.84c.32-.52.76-.72,1.36-.72h3.76c.92,0,1.28.6.72,1.4l-17.68,25.84c-.36.52-.8.72-1.4.72Zm-.32-20.96c0-1.96-.72-3.04-2.04-3.04s-2.04,1.08-2.04,3.04.72,3,2.04,3,2.04-1.08,2.04-3Zm9.84,13.96c0-4.6,2.8-7.4,7.4-7.4s7.4,2.8,7.4,7.4-2.8,7.44-7.4,7.44-7.4-2.84-7.4-7.44Zm9.44,0c0-1.92-.72-3-2.04-3s-2.04,1.08-2.04,3,.72,3.04,2.04,3.04,2.04-1.08,2.04-3.04Z"/>
    <path class="cls-7" d="m290.34,229.49v1.38c0,.29-.18.46-.46.46h-6.55c-.3,0-.46-.18-.46-.46v-1.38c0-.3.16-.46.46-.46h2.03v-5.7l-1.6.9c-.26.14-.46.08-.64-.13l-.93-1.1c-.19-.26-.16-.48.11-.64l3.49-2.05c.19-.11.37-.16.58-.16h1.52c.29,0,.45.18.45.46v8.42h1.54c.29,0,.46.16.46.46Z"/>
    <path class="cls-7" d="m298.18,229.49v1.38c0,.29-.18.46-.46.46h-6.63c-.29,0-.46-.18-.46-.46v-1.31c0-.24.08-.4.24-.58,1.7-1.65,4.15-3.75,4.15-5.55,0-.72-.45-1.2-1.1-1.2-.58,0-1.3.32-1.94.88-.24.19-.46.19-.66-.05l-.8-.96c-.18-.21-.19-.43-.02-.64,1.01-1.14,2.4-1.62,3.68-1.62,2.37,0,3.95,1.26,3.95,3.18s-1.28,3.68-3.65,6h3.23c.29,0,.46.16.46.46Z"/>
    <path class="cls-7" d="m314.98,224.96v5.91c0,.29-.18.46-.46.46h-2.16c-.29,0-.46-.18-.46-.46v-5.38c0-.51-.19-.8-.56-.8-.32,0-.62.24-.83.66v5.52c0,.29-.18.46-.46.46h-2.16c-.29,0-.46-.18-.46-.46v-5.38c0-.54-.14-.8-.5-.8s-.67.24-.91.69v5.49c0,.29-.18.46-.46.46h-2.14c-.3,0-.46-.18-.46-.46v-7.81c0-.29.16-.45.46-.45h2.02c.29,0,.46.16.46.45v.61c.5-.82,1.47-1.38,2.4-1.38s1.63.51,1.98,1.34c.5-.8,1.44-1.34,2.32-1.34,1.5,0,2.4,1.01,2.4,2.67Z"/>
    <path class="cls-7" d="m324.77,226.96c0,2.91-1.65,4.67-4.37,4.67s-4.39-1.76-4.39-4.67,1.65-4.67,4.39-4.67,4.37,1.78,4.37,4.67Zm-3.15,0c0-1.47-.43-2.27-1.22-2.27s-1.23.8-1.23,2.27.43,2.29,1.23,2.29,1.22-.82,1.22-2.29Z"/>
    <path class="cls-7" d="m333.69,224.96v5.91c0,.29-.18.46-.46.46h-2.16c-.29,0-.45-.18-.45-.46v-5.38c0-.51-.24-.8-.64-.8s-.78.3-1.02.82v5.36c0,.29-.18.46-.46.46h-2.15c-.3,0-.46-.18-.46-.46v-7.81c0-.29.16-.45.46-.45h2.02c.29,0,.46.16.46.45v.61c.51-.85,1.5-1.38,2.43-1.38,1.47,0,2.43,1.09,2.43,2.67Z"/>
    <path class="cls-7" d="m335.49,228.61v-3.81h-.67c-.29,0-.45-.16-.45-.46v-.94c0-.26.11-.45.37-.53l.3-.06c.29-.11.46-.21.54-.72l.14-.91c.05-.29.22-.42.51-.42h1.87c.29,0,.45.18.45.46v1.39h1.52c.3,0,.46.16.46.45v1.28c0,.3-.16.46-.46.46h-1.52v3.54c0,.64.27.9.77.9.19,0,.4-.05.67-.11.3-.08.51.03.56.34l.19,1.3c.05.29-.11.5-.43.59-.64.19-1.23.29-1.79.29-1.79,0-3.04-1.01-3.04-3.02Z"/>
    <path class="cls-7" d="m349.22,224.96v5.91c0,.29-.18.46-.46.46h-2.16c-.29,0-.45-.18-.45-.46v-5.38c0-.54-.21-.8-.66-.8-.37,0-.75.24-1.01.7v5.47c0,.29-.18.46-.46.46h-2.14c-.3,0-.46-.18-.46-.46v-11.04c0-.29.16-.46.46-.46h2.14c.29,0,.46.18.46.46v3.65c.56-.74,1.42-1.18,2.31-1.18,1.54,0,2.43,1.01,2.43,2.67Z"/>
    <path class="cls-7" d="m354.48,225.91c1.23.34,2.88.75,2.88,2.74,0,1.79-1.62,2.99-4.03,2.99-1.22,0-2.5-.37-3.35-.96-.24-.18-.27-.4-.1-.66l.75-1.02c.18-.24.38-.27.66-.11.54.3,1.26.5,1.86.5.66,0,1.06-.22,1.06-.56,0-.42-.38-.54-1.17-.75-1.18-.32-2.99-.9-2.99-2.88,0-1.83,1.38-2.9,3.7-2.9,1.01,0,2.19.3,3.07.8.27.14.3.38.13.64l-.75,1.02c-.16.26-.37.27-.62.14-.45-.22-1.01-.35-1.5-.35-.56,0-.96.22-.96.54,0,.43.45.54,1.38.82Z"/>
    <path class="cls-7" d="m362.35,228.61v-3.81h-.67c-.29,0-.45-.16-.45-.46v-.94c0-.26.11-.45.37-.53l.3-.06c.29-.11.46-.21.54-.72l.14-.91c.05-.29.22-.42.51-.42h1.87c.29,0,.45.18.45.46v1.39h1.52c.3,0,.46.16.46.45v1.28c0,.3-.16.46-.46.46h-1.52v3.54c0,.64.27.9.77.9.19,0,.4-.05.67-.11.3-.08.51.03.56.34l.19,1.3c.05.29-.11.5-.43.59-.64.19-1.23.29-1.79.29-1.79,0-3.04-1.01-3.04-3.02Z"/>
    <path class="cls-7" d="m376.57,226.96c0,2.91-1.65,4.67-4.37,4.67s-4.39-1.76-4.39-4.67,1.65-4.67,4.39-4.67,4.37,1.78,4.37,4.67Zm-3.15,0c0-1.47-.43-2.27-1.22-2.27s-1.23.8-1.23,2.27.43,2.29,1.23,2.29,1.22-.82,1.22-2.29Z"/>
    <path class="cls-7" d="m294.3,252.82l2.77-10.28c.06-.26.26-.4.53-.4h3.47c.27,0,.46.14.53.4l2.75,10.28c.08.3-.06.51-.4.51h-2.37c-.27,0-.45-.13-.51-.42l-.37-1.78h-2.77l-.35,1.78c-.06.29-.24.42-.51.42h-2.37c-.32,0-.48-.19-.4-.51Zm5.99-3.92l-.94-4.61h-.03l-.94,4.61h1.92Z"/>
    <path class="cls-7" d="m313.18,248.98c0,2.9-1.3,4.66-3.43,4.66-.7,0-1.44-.3-1.97-.82v3.67c0,.3-.18.46-.46.46h-2.14c-.3,0-.46-.16-.46-.46v-11.43c0-.29.16-.45.46-.45h2.02c.29,0,.46.16.46.45v.59c.51-.83,1.5-1.34,2.5-1.34,1.89,0,3.03,1.76,3.03,4.67Zm-3.15-.03c0-1.46-.38-2.26-1.09-2.26-.46,0-.88.27-1.15.78v2.99c.27.5.67.78,1.14.78.72,0,1.1-.82,1.1-2.3Z"/>
    <path class="cls-7" d="m320.16,244.98l-.3,2.08c-.05.3-.22.42-.48.37-.14-.03-.29-.05-.43-.05-.72,0-1.31.48-1.57,1.23v4.26c0,.29-.18.46-.46.46h-2.14c-.3,0-.46-.18-.46-.46v-7.81c0-.29.16-.45.46-.45h2.02c.29,0,.46.16.46.45v.72c.42-.93,1.15-1.49,1.99-1.49.21,0,.45.05.64.11.26.08.32.3.29.58Z"/>
    <path class="cls-7" d="m320.75,243.15v-1.33c0-.29.16-.46.46-.46h2.19c.29,0,.46.18.46.46v1.33c0,.3-.18.46-.46.46h-2.19c-.3,0-.46-.16-.46-.46Zm.02,9.72v-7.81c0-.29.18-.45.46-.45h2.16c.29,0,.45.16.45.45v7.81c0,.29-.16.46-.45.46h-2.16c-.29,0-.46-.18-.46-.46Z"/>
    <path class="cls-7" d="m325.2,252.87v-11.04c0-.29.16-.46.46-.46h2.15c.3,0,.46.18.46.46v11.04c0,.29-.16.46-.46.46h-2.15c-.3,0-.46-.18-.46-.46Z"/>
    <path class="cls-7" d="m340.22,251.49v1.38c0,.29-.18.46-.46.46h-6.63c-.29,0-.46-.18-.46-.46v-1.31c0-.24.08-.4.24-.58,1.7-1.65,4.15-3.75,4.15-5.55,0-.72-.45-1.2-1.1-1.2-.58,0-1.3.32-1.94.88-.24.19-.46.19-.66-.05l-.8-.96c-.18-.21-.19-.43-.02-.64,1.01-1.14,2.4-1.62,3.68-1.62,2.37,0,3.95,1.26,3.95,3.18s-1.28,3.68-3.65,6h3.23c.29,0,.46.16.46.46Z"/>
    <path class="cls-7" d="m349.95,247.75c0,3.83-1.52,5.89-4.4,5.89s-4.4-2.06-4.4-5.89,1.52-5.91,4.4-5.91,4.4,2.06,4.4,5.91Zm-3.14,0c0-2.48-.37-3.46-1.26-3.46s-1.26.98-1.26,3.46.37,3.44,1.26,3.44,1.26-.98,1.26-3.44Z"/>
    <path class="cls-7" d="m358.14,251.49v1.38c0,.29-.18.46-.46.46h-6.63c-.29,0-.46-.18-.46-.46v-1.31c0-.24.08-.4.24-.58,1.7-1.65,4.15-3.75,4.15-5.55,0-.72-.45-1.2-1.1-1.2-.58,0-1.3.32-1.94.88-.24.19-.46.19-.66-.05l-.8-.96c-.18-.21-.19-.43-.02-.64,1.01-1.14,2.4-1.62,3.68-1.62,2.37,0,3.95,1.26,3.95,3.18s-1.28,3.68-3.65,6h3.23c.29,0,.46.16.46.46Z"/>
    <path class="cls-7" d="m363.53,252.87v-1.76h-4.11c-.3,0-.46-.16-.46-.46v-1.25c0-.21.03-.37.11-.56l2.71-6.34c.11-.22.27-.35.54-.35h2.05c.34,0,.5.21.35.54l-2.62,6.15h1.44l.38-1.46c.08-.26.24-.38.51-.38h1.6c.29,0,.45.18.45.46v1.36h.83c.3,0,.46.18.46.46v1.36c0,.3-.16.46-.46.46h-.83v1.76c0,.29-.16.46-.45.46h-2.03c-.3,0-.46-.18-.46-.46Z"/>
  </g>
  <g class="cls-8">
    <g class="cls-1">
      <path class="cls-2" d="m277.86,429.99h-122.98c-5.82,0-8.44-3.04-7.95-8.78,1.31-9.19,6.39-22.97,24.51-28.88,19.27-7.47,20.74-8.21,20.74-8.21,0,0,4.43-7.47,6.56-7.96,2.13-.49.33-3.45,0-4.18-.33-.9-2.95,0-2.95-10.75,0-3.53.49-3.86-1.31-3.86s-5.74-2.46-5.74-11.08,0-9.03,1.48-9.27c.25-3.28-1.56-8.62-1.56-20.68s9.51-23.39,27.79-23.39c5.33,0,9.84-2.54,14.84-2.87.66,1.56,1.39,4.18,2.46,4.84,3.77,2.54,8.94,8.86,10.74,21.42,0,12.06-1.89,17.4-1.64,20.68,1.48.25,1.48.57,1.48,9.27s-4.02,11.08-5.74,11.08-1.31.25-1.31,3.86c0,10.75-2.62,9.93-2.95,10.75-.33.82-2.05,3.77,0,4.18,2.05.49,6.56,7.96,6.56,7.96,0,0,1.39.82,20.58,8.21,18.28,5.99,23.28,19.94,24.51,29.13.33,5.91-1.48,8.53-8.2,8.53h.08Z"/>
    </g>
  </g>
</svg>