<?xml version="1.0" encoding="UTF-8"?>
<svg id="Layer_2" data-name="Layer 2" xmlns="http://www.w3.org/2000/svg" viewBox="0 0 430.06 430.06">
  <defs>
    <style>
      .cls-1, .cls-2, .cls-3, .cls-4, .cls-5, .cls-6 {
        stroke-width: 0px;
      }

      .cls-1, .cls-4 {
        fill: #bfd4e4;
      }

      .cls-2 {
        fill: #fff;
      }

      .cls-2, .cls-4, .cls-5, .cls-6 {
        fill-rule: evenodd;
      }

      .cls-3, .cls-6 {
        fill: #1e3564;
      }

      .cls-5 {
        fill: #a2c3e7;
      }
    </style>
  </defs>
  <g id="Layer_1-2" data-name="Layer 1">
    <g>
      <rect class="cls-1" width="430.06" height="430.06"/>
      <g>
        <path class="cls-3" d="m182.83,76.41c0,10.89-5.67,18.13-14.22,18.13-3.29,0-6.71-1.04-9.04-2.7-.67-.5-.67-1.12-.13-1.8l2.21-2.65c.5-.63,1.08-.67,1.8-.27,1.39.77,3.01,1.17,4.27,1.17,3.24,0,5.17-2.29,5.85-7.06-1.67,1.26-3.73,1.98-5.89,1.98-5.35,0-8.86-4.1-8.86-10.4,0-6.88,4.77-11.43,11.92-11.43,7.61,0,12.1,5.58,12.1,15.03Zm-12.46,1.04c1.26,0,2.52-.58,3.42-1.58-.04-6.25-.99-8.46-3.2-8.46-2.02,0-3.1,1.84-3.1,5.35s.85,4.68,2.88,4.68Z"/>
        <path class="cls-3" d="m185.49,85.19h6.34c.81,0,1.3.5,1.3,1.31v5.58c0,5.22-2.88,8.55-7.74,9.18-.81.14-1.26-.31-1.4-1.12l-.09-.58c-.13-.81.27-1.26,1.04-1.53,1.8-.67,2.83-2.21,2.92-4.32h-2.38c-.81,0-1.31-.5-1.31-1.31v-5.89c0-.81.5-1.31,1.31-1.31Z"/>
        <path class="cls-3" d="m199.61,92.39v-3.55c0-2.29.27-4.09,1.39-6.39l6.48-13.72h-11.43c-.81,0-1.31-.45-1.31-1.3v-3.87c0-.81.5-1.3,1.31-1.3h19.08c.81,0,1.3.5,1.3,1.3v3.56c0,.58-.13,1.12-.36,1.62l-6.39,13.5c-1.26,2.52-1.71,4.41-1.71,6.39v3.78c0,.81-.5,1.31-1.3,1.31h-5.76c-.86,0-1.3-.5-1.3-1.31Z"/>
        <path class="cls-3" d="m242.95,77.99c0,10.75-4.28,16.56-12.38,16.56s-12.37-5.8-12.37-16.56,4.27-16.6,12.37-16.6,12.38,5.8,12.38,16.6Zm-8.82,0c0-6.97-1.04-9.72-3.56-9.72s-3.55,2.74-3.55,9.72,1.04,9.67,3.55,9.67,3.56-2.74,3.56-9.67Z"/>
        <path class="cls-3" d="m270.22,77.99c0,10.75-4.28,16.56-12.38,16.56s-12.37-5.8-12.37-16.56,4.27-16.6,12.37-16.6,12.38,5.8,12.38,16.6Zm-8.82,0c0-6.97-1.04-9.72-3.56-9.72s-3.55,2.74-3.55,9.72,1.04,9.67,3.55,9.67,3.56-2.74,3.56-9.67Z"/>
        <path class="cls-3" d="m140.44,125.4v-9.1h-1.13c-.43,0-.7-.24-.7-.7v-1.42c0-.38.19-.67.58-.79l.48-.12c.55-.17.77-.46.77-1.03v-.31c0-2.57,2.06-4.25,5.11-4.25.84,0,1.75.14,2.47.38.38.12.53.43.46.84l-.26,1.92c-.07.48-.38.62-.84.5-.36-.1-.77-.14-1.18-.14-1.01,0-1.56.5-1.56,1.42v.41h2.09c.43,0,.7.24.7.67v1.92c0,.43-.26.7-.7.7h-1.68v9.1c0,.43-.26.7-.7.7h-3.24c-.43,0-.67-.26-.67-.7Z"/>
        <path class="cls-3" d="m159.95,113.68v11.71c0,.43-.26.7-.7.7h-2.9c-.43,0-.7-.26-.7-.7v-.89c-.79,1.3-2.26,2.04-3.65,2.04-2.21,0-3.62-1.58-3.62-3.98v-8.88c0-.43.24-.67.7-.67h3.22c.46,0,.7.24.7.67v8.06c0,.82.34,1.25.94,1.25.55,0,1.06-.36,1.39-1.01v-8.3c0-.43.26-.67.7-.67h3.24c.43,0,.7.24.7.67Z"/>
        <path class="cls-3" d="m161.94,125.4v-16.56c0-.43.24-.7.7-.7h3.22c.46,0,.7.26.7.7v16.56c0,.43-.24.7-.7.7h-3.22c-.46,0-.7-.26-.7-.7Z"/>
        <path class="cls-3" d="m168.47,125.4v-16.56c0-.43.24-.7.7-.7h3.22c.46,0,.7.26.7.7v16.56c0,.43-.24.7-.7.7h-3.22c-.46,0-.7-.26-.7-.7Z"/>
        <path class="cls-3" d="m182.63,118.27v1.97c0,.43-.24.7-.67.7h-6.72c-.43,0-.7-.26-.7-.7v-1.97c0-.43.26-.7.7-.7h6.72c.43,0,.67.26.67.7Z"/>
        <path class="cls-3" d="m184.91,122.01v-5.71h-1.01c-.43,0-.67-.24-.67-.7v-1.42c0-.38.17-.67.55-.79l.46-.1c.43-.17.7-.31.82-1.08l.22-1.37c.07-.43.34-.62.77-.62h2.81c.43,0,.67.26.67.7v2.09h2.28c.46,0,.7.24.7.67v1.92c0,.46-.24.7-.7.7h-2.28v5.3c0,.96.41,1.34,1.15,1.34.29,0,.6-.07,1.01-.17.46-.12.77.05.84.5l.29,1.94c.07.43-.17.74-.65.89-.96.29-1.85.43-2.69.43-2.69,0-4.56-1.51-4.56-4.54Z"/>
        <path class="cls-3" d="m193.76,110.83v-1.99c0-.43.24-.7.7-.7h3.29c.43,0,.7.26.7.7v1.99c0,.46-.26.7-.7.7h-3.29c-.46,0-.7-.24-.7-.7Zm.02,14.57v-11.71c0-.43.26-.67.7-.67h3.24c.43,0,.67.24.67.67v11.71c0,.43-.24.7-.67.7h-3.24c-.43,0-.7-.26-.7-.7Z"/>
        <path class="cls-3" d="m218.6,116.54v8.86c0,.43-.26.7-.7.7h-3.24c-.43,0-.7-.26-.7-.7v-8.06c0-.77-.29-1.2-.84-1.2-.48,0-.94.36-1.25.98v8.28c0,.43-.26.7-.7.7h-3.24c-.43,0-.7-.26-.7-.7v-8.06c0-.82-.22-1.2-.74-1.2s-1.01.36-1.37,1.03v8.23c0,.43-.26.7-.7.7h-3.22c-.46,0-.7-.26-.7-.7v-11.71c0-.43.24-.67.7-.67h3.02c.43,0,.7.24.7.67v.91c.74-1.22,2.21-2.06,3.6-2.06s2.45.77,2.98,2.02c.74-1.2,2.16-2.02,3.48-2.02,2.26,0,3.6,1.51,3.6,4.01Z"/>
        <path class="cls-3" d="m220.16,119.54c0-4.34,2.5-7.01,6.62-7.01,3.77,0,5.98,2.47,5.98,6.58,0,.38-.02.82-.1,1.25-.05.41-.31.62-.72.62h-7.08c.36,1.37,1.32,2.09,2.86,2.09.7,0,1.56-.19,2.28-.5.41-.17.7-.1.96.24l.98,1.34c.24.36.22.7-.12.94-1.3.94-3.22,1.46-5.04,1.46-4.13,0-6.62-2.64-6.62-7.01Zm8.16-1.25c-.02-1.61-.65-2.54-1.68-2.54s-1.7.86-1.92,2.54h3.6Z"/>
        <path class="cls-3" d="m237.78,131.3l-.31-2.02c-.07-.41.1-.65.43-.84,1.27-.74,1.85-1.63,1.85-2.98v-11.79c0-.43.24-.67.67-.67h3.24c.43,0,.7.24.7.67v11.4c0,3.46-2.23,6.19-5.81,6.82-.43.07-.7-.17-.77-.6Zm1.92-20.47v-1.99c0-.43.26-.7.7-.7h3.29c.46,0,.7.26.7.7v1.99c0,.46-.24.7-.7.7h-3.29c-.43,0-.7-.24-.7-.7Z"/>
        <path class="cls-3" d="m259.19,119.54c0,4.37-2.47,7.01-6.55,7.01s-6.58-2.64-6.58-7.01,2.47-7.01,6.58-7.01,6.55,2.66,6.55,7.01Zm-4.73,0c0-2.21-.65-3.41-1.82-3.41s-1.85,1.2-1.85,3.41.65,3.43,1.85,3.43,1.82-1.22,1.82-3.43Z"/>
        <path class="cls-3" d="m265.04,124.89v.5c0,.43-.24.7-.7.7h-2.81c-.46,0-.7-.26-.7-.7v-16.56c0-.43.24-.7.7-.7h3.22c.43,0,.7.26.7.7v5.47c.82-1.08,2.16-1.75,3.55-1.75,2.83,0,4.54,2.64,4.54,7.01s-1.94,6.98-5.14,6.98c-1.25,0-2.57-.65-3.36-1.66Zm3.77-5.38c0-2.18-.58-3.38-1.63-3.38-.7,0-1.32.43-1.73,1.18v4.51c.41.74,1.01,1.15,1.7,1.15,1.08,0,1.66-1.22,1.66-3.46Z"/>
        <path class="cls-3" d="m281.1,117.96c1.85.5,4.32,1.13,4.32,4.1,0,2.69-2.42,4.49-6.05,4.49-1.82,0-3.74-.55-5.02-1.44-.36-.26-.41-.6-.14-.98l1.13-1.54c.26-.36.58-.41.98-.17.82.46,1.9.74,2.78.74.98,0,1.58-.34,1.58-.84,0-.62-.58-.82-1.75-1.13-1.78-.48-4.49-1.34-4.49-4.32,0-2.74,2.06-4.34,5.54-4.34,1.51,0,3.29.46,4.61,1.2.41.22.46.58.19.96l-1.13,1.54c-.24.38-.55.41-.94.22-.67-.34-1.51-.53-2.26-.53-.84,0-1.44.34-1.44.82,0,.65.67.82,2.06,1.22Z"/>
        <path class="cls-3" d="m176.39,145.75v8.45c0,.43-.24.7-.7.7h-2.83c-.43,0-.67-.26-.67-.7v-.38c-.94.96-2.33,1.54-3.6,1.54-2.3,0-3.84-1.66-3.84-4.13s2.04-4.13,5.09-4.13h2.06v-.74c0-1.08-.7-1.54-2.09-1.54-.65,0-1.44.17-2.09.46-.38.19-.7.14-.96-.22l-1.1-1.54c-.26-.38-.19-.74.19-.96,1.37-.74,3.19-1.22,4.75-1.22,3.79,0,5.79,1.51,5.79,4.42Zm-4.49,3.58h-1.32c-.84,0-1.32.53-1.32,1.49,0,.79.43,1.27,1.13,1.27.6,0,1.15-.34,1.51-.94v-1.82Z"/>
        <path class="cls-3" d="m177.95,148.34c0-4.34,1.94-6.98,5.16-6.98,1.06,0,2.16.48,2.95,1.25v-4.97c0-.43.26-.7.7-.7h3.24c.43,0,.7.26.7.7v16.56c0,.43-.26.7-.7.7h-2.83c-.43,0-.7-.26-.7-.7v-.48c-.86,1.01-2.18,1.63-3.6,1.63-3.05,0-4.92-2.64-4.92-7.01Zm8.11,2.26v-4.51c-.38-.74-1.01-1.18-1.7-1.18-1.08,0-1.68,1.22-1.68,3.48s.58,3.38,1.63,3.38c.74,0,1.37-.43,1.75-1.18Z"/>
        <path class="cls-3" d="m192.32,148.34c0-4.34,1.94-6.98,5.16-6.98,1.06,0,2.16.48,2.95,1.25v-4.97c0-.43.26-.7.7-.7h3.24c.43,0,.7.26.7.7v16.56c0,.43-.26.7-.7.7h-2.83c-.43,0-.7-.26-.7-.7v-.48c-.86,1.01-2.18,1.63-3.6,1.63-3.05,0-4.92-2.64-4.92-7.01Zm8.11,2.26v-4.51c-.38-.74-1.01-1.18-1.7-1.18-1.08,0-1.68,1.22-1.68,3.48s.58,3.38,1.63,3.38c.74,0,1.37-.43,1.75-1.18Z"/>
        <path class="cls-3" d="m206.7,148.34c0-4.34,2.5-7.01,6.62-7.01,3.77,0,5.98,2.47,5.98,6.58,0,.38-.02.82-.1,1.25-.05.41-.31.62-.72.62h-7.08c.36,1.37,1.32,2.09,2.86,2.09.7,0,1.56-.19,2.28-.5.41-.17.7-.1.96.24l.98,1.34c.24.36.22.7-.12.94-1.3.94-3.22,1.46-5.04,1.46-4.13,0-6.62-2.64-6.62-7.01Zm8.16-1.25c-.02-1.61-.65-2.54-1.68-2.54s-1.7.86-1.92,2.54h3.6Z"/>
        <path class="cls-3" d="m220.43,148.34c0-4.34,1.94-6.98,5.16-6.98,1.06,0,2.16.48,2.95,1.25v-4.97c0-.43.26-.7.7-.7h3.24c.43,0,.7.26.7.7v16.56c0,.43-.26.7-.7.7h-2.83c-.43,0-.7-.26-.7-.7v-.48c-.86,1.01-2.18,1.63-3.6,1.63-3.05,0-4.92-2.64-4.92-7.01Zm8.11,2.26v-4.51c-.38-.74-1.01-1.18-1.7-1.18-1.08,0-1.68,1.22-1.68,3.48s.58,3.38,1.63,3.38c.74,0,1.37-.43,1.75-1.18Z"/>
        <path class="cls-3" d="m240.59,139.63v-1.99c0-.43.24-.7.7-.7h3.29c.43,0,.7.26.7.7v1.99c0,.46-.26.7-.7.7h-3.29c-.46,0-.7-.24-.7-.7Zm.02,14.57v-11.71c0-.43.26-.67.7-.67h3.24c.43,0,.67.24.67.67v11.71c0,.43-.24.7-.67.7h-3.24c-.43,0-.7-.26-.7-.7Z"/>
        <path class="cls-3" d="m259.07,145.34v8.86c0,.43-.26.7-.7.7h-3.24c-.43,0-.67-.26-.67-.7v-8.06c0-.77-.36-1.2-.96-1.2s-1.18.46-1.54,1.22v8.04c0,.43-.26.7-.7.7h-3.22c-.46,0-.7-.26-.7-.7v-11.71c0-.43.24-.67.7-.67h3.02c.43,0,.7.24.7.67v.91c.77-1.27,2.26-2.06,3.65-2.06,2.21,0,3.65,1.63,3.65,4.01Z"/>
        <path class="cls-3" d="m101.52,183v-15.39c0-.43.26-.7.7-.7h4.8c.41,0,.67.19.74.62l2.38,11.57,2.3-11.57c.1-.43.36-.62.77-.62h4.8c.43,0,.7.26.7.7v15.39c0,.43-.26.7-.7.7h-2.9c-.43,0-.67-.26-.67-.7v-5.21c0-1.54.14-4.63.31-6.14h-.07l-2.57,11.42c-.1.41-.36.62-.77.62h-2.4c-.41,0-.67-.22-.77-.62l-2.62-11.42h-.07c.17,1.51.31,4.61.31,6.14v5.21c0,.43-.24.7-.7.7h-2.88c-.43,0-.7-.26-.7-.7Z"/>
        <path class="cls-3" d="m131.88,174.55v8.45c0,.43-.24.7-.7.7h-2.83c-.43,0-.67-.26-.67-.7v-.38c-.94.96-2.33,1.54-3.6,1.54-2.3,0-3.84-1.66-3.84-4.13s2.04-4.13,5.09-4.13h2.06v-.74c0-1.08-.7-1.54-2.09-1.54-.65,0-1.44.17-2.09.46-.38.19-.7.14-.96-.22l-1.1-1.54c-.26-.38-.19-.74.19-.96,1.37-.74,3.19-1.22,4.75-1.22,3.79,0,5.78,1.51,5.78,4.42Zm-4.49,3.58h-1.32c-.84,0-1.32.53-1.32,1.49,0,.79.43,1.27,1.13,1.27.6,0,1.15-.34,1.51-.94v-1.82Z"/>
        <path class="cls-3" d="m142.68,171.16l-.46,3.12c-.07.46-.34.62-.72.55-.22-.05-.43-.07-.65-.07-1.08,0-1.97.72-2.35,1.85v6.38c0,.43-.26.7-.7.7h-3.22c-.46,0-.7-.26-.7-.7v-11.71c0-.43.24-.67.7-.67h3.02c.43,0,.7.24.7.67v1.08c.62-1.39,1.73-2.23,2.98-2.23.31,0,.67.07.96.17.38.12.48.46.43.86Z"/>
        <path class="cls-3" d="m142.8,177.14c0-4.22,2.66-7.01,6.62-7.01,1.51,0,3.02.46,4.08,1.2.36.29.41.6.14.98l-1.27,1.78c-.26.34-.58.34-.96.12-.41-.24-.86-.34-1.32-.34-1.66,0-2.5,1.08-2.5,3.26s.82,3.29,2.52,3.29c.43,0,.91-.14,1.32-.36.41-.24.7-.24.96.12l1.27,1.78c.26.36.26.67-.05.91-1.08.79-2.62,1.27-4.2,1.27-4.01,0-6.62-2.76-6.62-7.01Z"/>
        <path class="cls-3" d="m166.42,174.14v8.86c0,.43-.26.7-.7.7h-3.24c-.43,0-.67-.26-.67-.7v-8.06c0-.82-.31-1.2-.98-1.2-.55,0-1.13.36-1.51,1.06v8.21c0,.43-.26.7-.7.7h-3.22c-.46,0-.7-.26-.7-.7v-16.56c0-.43.24-.7.7-.7h3.22c.43,0,.7.26.7.7v5.47c.84-1.1,2.14-1.78,3.46-1.78,2.3,0,3.65,1.51,3.65,4.01Z"/>
        <path class="cls-3" d="m184.8,174.55v8.45c0,.43-.24.7-.7.7h-2.83c-.43,0-.67-.26-.67-.7v-.38c-.94.96-2.33,1.54-3.6,1.54-2.3,0-3.84-1.66-3.84-4.13s2.04-4.13,5.09-4.13h2.06v-.74c0-1.08-.7-1.54-2.09-1.54-.65,0-1.44.17-2.09.46-.38.19-.7.14-.96-.22l-1.1-1.54c-.26-.38-.19-.74.19-.96,1.37-.74,3.19-1.22,4.75-1.22,3.79,0,5.78,1.51,5.78,4.42Zm-4.49,3.58h-1.32c-.84,0-1.32.53-1.32,1.49,0,.79.43,1.27,1.13,1.27.6,0,1.15-.34,1.51-.94v-1.82Z"/>
        <path class="cls-3" d="m198.53,174.14v8.86c0,.43-.26.7-.7.7h-3.24c-.43,0-.67-.26-.67-.7v-8.06c0-.77-.36-1.2-.96-1.2s-1.18.46-1.54,1.22v8.04c0,.43-.26.7-.7.7h-3.22c-.46,0-.7-.26-.7-.7v-11.71c0-.43.24-.67.7-.67h3.02c.43,0,.7.24.7.67v.91c.77-1.27,2.26-2.06,3.65-2.06,2.21,0,3.65,1.63,3.65,4.01Z"/>
        <path class="cls-3" d="m200.09,177.14c0-4.34,1.94-6.98,5.16-6.98,1.06,0,2.16.48,2.95,1.25v-4.97c0-.43.26-.7.7-.7h3.24c.43,0,.7.26.7.7v16.56c0,.43-.26.7-.7.7h-2.83c-.43,0-.7-.26-.7-.7v-.48c-.86,1.01-2.18,1.63-3.6,1.63-3.05,0-4.92-2.64-4.92-7.01Zm8.11,2.26v-4.51c-.38-.74-1.01-1.18-1.7-1.18-1.08,0-1.68,1.22-1.68,3.48s.58,3.38,1.63,3.38c.74,0,1.37-.43,1.75-1.18Z"/>
        <path class="cls-3" d="m218.71,182.93l4.15-15.41c.1-.38.38-.6.79-.6h5.21c.41,0,.7.22.79.6l4.13,15.41c.12.46-.1.77-.6.77h-3.55c-.41,0-.67-.19-.77-.62l-.55-2.66h-4.15l-.53,2.66c-.1.43-.36.62-.77.62h-3.55c-.48,0-.72-.29-.6-.77Zm8.98-5.88l-1.42-6.91h-.05l-1.42,6.91h2.88Z"/>
        <path class="cls-3" d="m247.03,177.17c0,4.34-1.94,6.98-5.14,6.98-1.06,0-2.16-.46-2.95-1.22v5.5c0,.46-.26.7-.7.7h-3.22c-.46,0-.7-.24-.7-.7v-17.14c0-.43.24-.67.7-.67h3.02c.43,0,.7.24.7.67v.89c.77-1.25,2.26-2.02,3.74-2.02,2.83,0,4.54,2.64,4.54,7.01Zm-4.73-.05c0-2.18-.58-3.38-1.63-3.38-.7,0-1.32.41-1.73,1.18v4.49c.41.74,1.01,1.18,1.7,1.18,1.08,0,1.66-1.22,1.66-3.46Z"/>
        <path class="cls-3" d="m257.5,171.16l-.46,3.12c-.07.46-.34.62-.72.55-.22-.05-.43-.07-.65-.07-1.08,0-1.97.72-2.35,1.85v6.38c0,.43-.26.7-.7.7h-3.22c-.46,0-.7-.26-.7-.7v-11.71c0-.43.24-.67.7-.67h3.02c.43,0,.7.24.7.67v1.08c.62-1.39,1.73-2.23,2.98-2.23.31,0,.67.07.96.17.38.12.48.46.43.86Z"/>
        <path class="cls-3" d="m258.38,168.43v-1.99c0-.43.24-.7.7-.7h3.29c.43,0,.7.26.7.7v1.99c0,.46-.26.7-.7.7h-3.29c-.46,0-.7-.24-.7-.7Zm.02,14.57v-11.71c0-.43.26-.67.7-.67h3.24c.43,0,.67.24.67.67v11.71c0,.43-.24.7-.67.7h-3.24c-.43,0-.7-.26-.7-.7Z"/>
        <path class="cls-3" d="m265.05,183v-16.56c0-.43.24-.7.7-.7h3.22c.46,0,.7.26.7.7v16.56c0,.43-.24.7-.7.7h-3.22c-.46,0-.7-.26-.7-.7Z"/>
        <path class="cls-3" d="m287.59,180.93v2.06c0,.43-.26.7-.7.7h-9.94c-.43,0-.7-.26-.7-.7v-1.97c0-.36.12-.6.36-.86,2.54-2.47,6.22-5.62,6.22-8.33,0-1.08-.67-1.8-1.66-1.8-.86,0-1.94.48-2.9,1.32-.36.29-.7.29-.98-.07l-1.2-1.44c-.26-.31-.29-.65-.02-.96,1.51-1.7,3.6-2.42,5.52-2.42,3.55,0,5.93,1.9,5.93,4.78s-1.92,5.52-5.47,9h4.85c.43,0,.7.24.7.7Z"/>
        <path class="cls-3" d="m302.18,175.32c0,5.74-2.28,8.83-6.6,8.83s-6.6-3.1-6.6-8.83,2.28-8.86,6.6-8.86,6.6,3.1,6.6,8.86Zm-4.7,0c0-3.72-.55-5.18-1.9-5.18s-1.9,1.46-1.9,5.18.55,5.16,1.9,5.16,1.9-1.46,1.9-5.16Z"/>
        <path class="cls-3" d="m314.47,180.93v2.06c0,.43-.26.7-.7.7h-9.94c-.43,0-.7-.26-.7-.7v-1.97c0-.36.12-.6.36-.86,2.54-2.47,6.22-5.62,6.22-8.33,0-1.08-.67-1.8-1.66-1.8-.86,0-1.94.48-2.9,1.32-.36.29-.7.29-.98-.07l-1.2-1.44c-.26-.31-.29-.65-.02-.96,1.51-1.7,3.6-2.42,5.52-2.42,3.55,0,5.93,1.9,5.93,4.78s-1.92,5.52-5.47,9h4.85c.43,0,.7.24.7.7Z"/>
        <path class="cls-3" d="m322.56,183v-2.64h-6.17c-.46,0-.7-.24-.7-.7v-1.87c0-.31.05-.55.17-.84l4.06-9.5c.17-.34.41-.53.82-.53h3.07c.5,0,.74.31.53.82l-3.94,9.22h2.16l.58-2.18c.12-.38.36-.58.77-.58h2.4c.43,0,.67.26.67.7v2.04h1.25c.46,0,.7.26.7.7v2.04c0,.46-.24.7-.7.7h-1.25v2.64c0,.43-.24.7-.67.7h-3.05c-.46,0-.7-.26-.7-.7Z"/>
      </g>
      <g>
        <polygon class="cls-6" points="18.84 265.81 140.11 265.81 140.11 417.82 18.84 417.82 18.84 265.81 18.84 265.81"/>
        <polygon class="cls-2" points="25.2 269.53 136.15 269.53 136.15 407.86 25.2 407.86 25.2 269.53 25.2 269.53"/>
        <polygon class="cls-2" points="25.2 269.53 136.15 269.53 136.15 412.66 25.2 412.66 25.2 269.53 25.2 269.53"/>
        <path class="cls-6" d="m58.32,340.62h0c4.2-8.5,11.36-11.08,22.91-11.08,13.86,0,21.01,4.55,23.12,11.46-24.82.38-46.03-.38-46.03-.38"/>
        <path class="cls-6" d="m76.32,288.16h0c-5.83,1.6-5.63,4.57-7.53,7.55-1.84,2.78-6.28,4.72-6.68,6.74-.65,1.93,1.25,5.9-.85,8.11-2.09,2.36-2.94,3.35-2.09,5.71.85,2.17,2.74,5.75,2.94,6.13.2.61,2.49,3.96,5.43,4.39,2.94.38,8.37,1.18,10.87,2.36,2.74,1.18,11.51-1.37,16.35-1.18,4.79,0,8.17-3.35,7.93-5.57-.4-2.17,3.59-6.7,3.59-10.47-.2-4.15-5.23-7.31-6.48-10.09-1.5-2.59.2-7.55-5.03-10.28-3.14-1.79-5.43-1.6-7.98-2.41-2.49-.8-6.68-1.98-10.47-.99"/>
        <path class="cls-4" d="m83.6,336.26h0c-1.25,1.8-2.3,1.98-3.75,0-1.05-1.56-3.4-5.15-3.4-6.76v-17.62c0-1.8,1.5-3.35,3.4-3.35h3.75c1.9,0,3.35,1.56,3.35,3.35v17.62c0,1.61-2.1,4.96-3.35,6.76"/>
        <path class="cls-4" d="m83.6,308.53h-3.75c-1.9,0-3.4,1.55-3.4,3.34v15.6c4.2,1.17,8.01-1.22,10.51-4.18v-11.42c0-1.79-1.45-3.34-3.35-3.34"/>
        <path class="cls-4" d="m92.83,308.68h0c0,8.08-5.05,14.57-11.34,14.57s-11.29-6.48-11.29-14.57,5-14.43,11.29-14.43,11.34,6.53,11.34,14.43"/>
        <path class="cls-6" d="m86.63,297.2h0c-7.06,11.29-17.51,10.3-17.51,10.3,0,0,.2-15.01,8.56-15.81s13.13,2.35,15.02,7.48c1.69,5.13,0,8.7,0,8.7,0,0-2.69-1.98-4.18-5.32-1.24-3.15-1.89-5.36-1.89-5.36"/>
        <path class="cls-4" d="m71.39,308.71h0c1.04,2.15.6,4.3-.85,5.09-1.44.56-3.53-.61-4.58-2.76-1.04-1.96-.65-4.3.85-4.91,1.44-.61,3.53.61,4.58,2.57"/>
        <path class="cls-4" d="m91.24,308.71h0c-.99,2.15-.6,4.3.85,5.09,1.49.56,3.58-.61,4.63-2.76,1.04-1.96.6-4.3-.85-4.91-1.49-.61-3.58.61-4.63,2.57"/>
        <path class="cls-6" d="m95.02,363.81h-28.44c-1.89,0-3.34-1.43-3.34-3.24s1.44-3.19,3.34-3.19h28.44c1.89,0,3.34,1.43,3.34,3.19s-1.44,3.24-3.34,3.24"/>
        <path class="cls-6" d="m100.29,373.41h-38.98c-1.65,0-3.34-1.38-3.34-3.19,0-1.62,1.7-3,3.34-3h38.98c1.9,0,3.34,1.38,3.34,3,0,1.81-1.45,3.19-3.34,3.19"/>
        <path class="cls-6" d="m124.16,383.15H40.44c-.93,0-1.68-.42-1.68-.95s.75-.95,1.68-.95h83.72c.93,0,1.68.42,1.68.95s-.75.95-1.68.95"/>
        <path class="cls-6" d="m123.56,392.87H39.84c-.93,0-1.68-.48-1.68-1.08,0-.68.75-1.17,1.68-1.17h83.72c.93,0,1.68.48,1.68,1.17,0,.6-.75,1.08-1.68,1.08"/>
        <path class="cls-6" d="m124.15,402.1H39.85c-.93,0-1.69-.51-1.69-1.17s.76-1.2,1.69-1.2h84.3c.93,0,1.69.54,1.69,1.2s-.76,1.17-1.69,1.17"/>
        <path class="cls-6" d="m114.81,342.81H46.54c-1.85,0-3.34-1.6-3.34-3.39v-59.29c0-1.79,1.5-3.16,3.34-3.16h68.27c1.89,0,3.34,1.37,3.34,3.16v59.29c0,1.79-1.45,3.39-3.34,3.39h0Zm-68.27-63.24h0c-.2,0-.6.38-.6.57v59.29c0,.42.4.61.6.61h68.27c.4,0,.6-.19.6-.61v-59.29c0-.19-.2-.57-.6-.57H46.54Z"/>
        <polygon class="cls-6" points="289.32 265.81 410.71 265.81 410.71 417.82 289.32 417.82 289.32 265.81 289.32 265.81"/>
        <polygon class="cls-2" points="295.68 269.53 406.75 269.53 406.75 412.66 295.68 412.66 295.68 269.53 295.68 269.53"/>
        <path class="cls-6" d="m334.2,307.93h0c0,8.32,5.44,22.03,18,21.61,12.77-.57,15.46-13.47,16.11-17.26.4-3.55-34.11-4.35-34.11-4.35"/>
        <path class="cls-6" d="m328.92,340.62h0c4.2-8.5,11.29-11.08,22.83-11.08,13.84,0,21.18,4.55,23.08,11.46-24.73.38-45.91-.38-45.91-.38"/>
        <path class="cls-4" d="m354.03,336.26h0c-1.25,1.8-2.3,1.98-3.75,0-1.05-1.56-3.35-5.15-3.35-6.76v-17.62c0-1.8,1.65-3.35,3.35-3.35h3.75c1.9,0,3.4,1.56,3.4,3.35v17.62c0,1.61-2.1,4.96-3.4,6.76"/>
        <path class="cls-4" d="m354.03,308.53h-3.75c-1.7,0-3.35,1.55-3.35,3.34v15.6c4.2,1.17,8.16-1.22,10.51-4.18v-11.42c0-1.79-1.5-3.34-3.4-3.34"/>
        <path class="cls-4" d="m363.43,308.68h0c0,8.08-5.05,14.57-11.29,14.57s-11.34-6.48-11.34-14.57,5.25-14.43,11.34-14.43,11.29,6.53,11.29,14.43"/>
        <path class="cls-6" d="m358.42,297.98h0c-1.25,4.35-4.14,4.35-8.33,5.77-4.19,1.56-6.09,2.98-7.33,5.96-1.7,3.55.6,14.29.6,14.29,0,0-10.23-7.33-8.98-19.06,1.05-11.54,8.38-16.08,15.07-16.08s9.43,3.97,9.43,3.97c0,0,3.54,0,6.89,3.97,4.64,5.16,3.14,17.65,0,22.04-3.14,4.54-5.19,5.96-5.19,5.72.2-.19,2.89-10.5,1.45-16.84-1.45-6.39-3.59-9.74-3.59-9.74"/>
        <path class="cls-6" d="m365.37,363.81h-28.5c-1.65,0-3.14-1.43-3.14-3.24s1.5-3.19,3.14-3.19h28.5c1.9,0,3.34,1.43,3.34,3.19s-1.45,3.24-3.34,3.24"/>
        <path class="cls-6" d="m370.88,373.41h-38.84c-1.9,0-3.35-1.38-3.35-3.19,0-1.62,1.45-3,3.35-3h38.84c1.9,0,3.35,1.38,3.35,3,0,1.81-1.45,3.19-3.35,3.19"/>
        <path class="cls-6" d="m399.27,385.65h-94.73c-1.05,0-1.89-.79-1.89-1.78s.85-1.78,1.89-1.78h94.73c1.05,0,1.84.79,1.84,1.78s-.8,1.78-1.84,1.78"/>
        <path class="cls-6" d="m398.79,394.53h-94.85c-1.05,0-1.9-.79-1.9-1.77,0-1.12.85-1.91,1.9-1.91h94.85c1.05,0,1.85.79,1.85,1.91,0,.98-.8,1.77-1.85,1.77"/>
        <path class="cls-6" d="m398.79,402.45h-94.85c-1.05,0-1.9-.73-1.9-1.69s.85-1.74,1.9-1.74h94.85c1.05,0,1.85.78,1.85,1.74s-.8,1.69-1.85,1.69"/>
        <path class="cls-6" d="m385.33,342.81h-67.94c-1.89,0-3.59-1.6-3.59-3.39v-59.29c0-1.79,1.69-3.16,3.59-3.16h67.94c1.89,0,3.54,1.37,3.54,3.16v59.29c0,1.79-1.64,3.39-3.54,3.39h0Zm-67.94-63.24h0c-.45,0-.65.38-.65.57v59.29c0,.42.2.61.65.61h67.94c.4,0,.65-.19.65-.61v-59.29c0-.19-.25-.57-.65-.57h-67.94Z"/>
        <path class="cls-5" d="m289.27,266.65h-1.86c0,1.77-.25,3.49-.25,5.25s.25,3.53.25,5.25l1.86.6v-11.11"/>
        <polygon class="cls-6" points="131.64 233.41 297.19 233.41 297.19 430.06 131.64 430.06 131.64 233.41 131.64 233.41"/>
        <polygon class="cls-2" points="140.16 236.65 291.67 236.65 291.67 424.54 140.16 424.54 140.16 236.65 140.16 236.65"/>
        <path class="cls-6" d="m202.02,287.61h0c-.2-.24-2.74-14.71-3.14-20.29-.4-5.53,9.41-6.53,9.41-6.53,0,0,8.16-3.97,13.99-1.99,5.63,2.18,9.61,5.77,12.35,10.12,2.69,4.35-2.29,18.26-2.29,18.26l-30.32.43"/>
        <path class="cls-6" d="m183.68,333.78h0c-.2-.24.6-5.94.6-6.13,1.3-11.88,16.97-15.27,32.49-15.27,18.22,0,30.6,3.16,32.69,15.65,0,.19,1.05,5.94,1.05,6.32-33.94.42-66.83-.57-66.83-.57"/>
        <path class="cls-4" d="m220.07,321.55h0c-1.89,2.54-3.13,2.54-5.21,0-1.44-2.21-6.65-6.92-6.65-9.32l2.08-23.9c0-2.54,2.08-4.52,4.57-4.52h5.21c2.48,0,4.57,1.98,4.57,4.52l1.04,23.9c0,2.4-3.92,6.92-5.61,9.32"/>
        <path class="cls-4" d="m219.86,283.81h-5.21c-2.48,0-4.56,1.98-4.56,4.52l-1.89,21.17c5.81,1.74,13.55-1.79,16.87-5.55l-.65-15.62c0-2.54-2.08-4.52-4.56-4.52"/>
        <polyline class="cls-4" points="209.28 320.57 215.39 324.27 213.49 334.53 221.69 334.11 219.59 324.88 224.59 320.57 222.29 318.37 211.58 318.37 209.28 320.57"/>
        <path class="cls-6" d="m208.43,306.87h0l-7.54,6.91s7.74,12.83,8.19,12.83c.4,0,6.49-7.1,6.49-7.1l3.75-.23,6.29,6.16,7.14-11.85-7.34-7.33s-6.29,11.28-7.34,11.66c-1.05.19-1.05.38-2.1-.38-.85-.61-7.54-10.67-7.54-10.67"/>
        <path class="cls-4" d="m232.75,284.36h0c0,10.89-6.94,19.8-15.27,19.8s-15.52-8.91-15.52-19.8,6.94-19.99,15.52-19.99,15.27,8.91,15.27,19.99"/>
        <path class="cls-4" d="m203.5,283.83h0c1.29,2.97.84,5.94-.99,6.93-2.14.8-4.82-.8-6.26-3.58-1.49-2.97-1.04-5.94,1.04-6.93,1.84-.75,4.77.8,6.21,3.58"/>
        <path class="cls-4" d="m230.57,283.83h0c-1.25,2.97-.85,5.94,1.05,6.93,2.1.8,4.79-.8,6.29-3.58,1.45-2.97,1.05-5.94-1.05-6.93-1.9-.75-4.84.8-6.29,3.58"/>
        <path class="cls-6" d="m208.28,270.69h0c6.48-4.13,9.22-3.38,14,3.52,4.83,6.9,10.46,6.9,10.46,6.9l.85-7.09s-7.13-13-16.74-11.22c-9.42,1.78-14.85,9.86-14.85,9.86,0,0-.4,14.98.85,15.54,1.45.61,1.45-4.93,2.49-5.92.85-1.17-1.05-6.29.2-8.64,1.25-2.39,2.74-2.96,2.74-2.96"/>
        <path class="cls-6" d="m228.84,278.41h0c2.27,2.36,1.48,11.47,2.52,11.28,1.24,0,1.63-8.73,1.24-9.54-.2-.99-3.76-1.75-3.76-1.75"/>
        <path class="cls-6" d="m251.68,365.01h-70.77c-2.49,0-4.39-1.97-4.39-4.31s1.9-4.17,4.39-4.17h70.77c2.49,0,4.59,1.78,4.59,4.17s-2.09,4.31-4.59,4.31"/>
        <path class="cls-6" d="m242.87,378.21h-53.2c-2.3,0-4.39-1.98-4.39-4.14,0-2.4,2.1-4.33,4.39-4.33h53.2c2.55,0,4.64,1.93,4.64,4.33,0,2.17-2.1,4.14-4.64,4.14"/>
        <path class="cls-6" d="m280.77,389.37h-128.99c-1.49,0-2.74-1.19-2.74-2.57s1.25-2.42,2.74-2.42h128.99c1.49,0,2.74,1,2.74,2.42s-1.25,2.57-2.74,2.57"/>
        <path class="cls-6" d="m280.77,401.01h-128.99c-1.49,0-2.74-1-2.74-2.42s1.25-2.57,2.74-2.57h128.99c1.49,0,2.74,1.19,2.74,2.57s-1.25,2.42-2.74,2.42"/>
        <path class="cls-6" d="m280.77,414.33h-128.99c-1.49,0-2.74-1-2.74-2.38s1.25-2.62,2.74-2.62h128.99c1.49,0,2.74,1.19,2.74,2.62s-1.25,2.38-2.74,2.38"/>
        <path class="cls-6" d="m262.88,336.21h-93.2c-2.35,0-4.19-1.79-4.19-3.96v-81.19c0-2.17,1.85-3.96,4.19-3.96h93.2c2.35,0,4.19,1.79,4.19,3.96v81.19c0,2.17-1.85,3.96-4.19,3.96h0Zm-93.2-86.52h0c-.85,0-1.5.57-1.5,1.37v81.19c0,.61.65,1.18,1.5,1.18h93.2c.65,0,1.3-.57,1.3-1.18v-81.19c0-.8-.65-1.37-1.3-1.37h-93.2Z"/>
      </g>
    </g>
  </g>
</svg>