<?xml version="1.0" encoding="UTF-8"?>
<svg id="Layer_1" data-name="Layer 1" xmlns="http://www.w3.org/2000/svg" viewBox="0 0 430.06 430.06">
  <defs>
    <style>
      .cls-1, .cls-2 {
        fill-rule: evenodd;
      }

      .cls-1, .cls-2, .cls-3, .cls-4, .cls-5 {
        stroke-width: 0px;
      }

      .cls-1, .cls-5 {
        fill: #5c0425;
      }

      .cls-2, .cls-4 {
        fill: #edc8bd;
      }

      .cls-3 {
        fill: #fff;
      }
    </style>
  </defs>
  <rect class="cls-4" width="430.06" height="430.06"/>
  <path class="cls-1" d="m213.61,68.44c-4.01,0-6.02-3.93-10.03-3.93-2.01-1.97-2.01,0,0,1.97,0,1.97,4.01,0,4.01,0,2.01,1.97,0,5.9,2.01,5.9,0,1.97-2.01,1.97-4.01,1.97-2.01,1.97-4.01,1.97-6.02,1.97-4.01-1.97-4.01,0-8.02,0-6.02,1.97-4.01,7.87-8.02,9.83-4.01,3.93-6.02,9.83-4.01,13.77,4.01,5.9-6.02,1.97-8.02,1.97s-8.02,5.9-8.02,5.9c0,0-2.01-9.83-4.01-11.8,0-1.97-2.01-1.97-4.01-1.97q-2.01-1.97-2.01-3.93c-2.01-1.97-2.01,1.97-2.01,3.93-2.01,0-4.01,0-4.01-1.97-4.01,0-2.01,7.87-6.02,5.9l-2.01-1.97-2.01,1.97c-6.02-1.97-2.01,5.9-2.01,5.9h-4.01c0,1.97,2.01,1.97,2.01,1.97-2.01,3.93-4.01,0-4.01,5.9,0,1.97,2.01,1.97,2.01,3.93,0,3.93-14.04-3.93-14.04,1.97,0,1.97,8.02,5.9,4.01,7.87-2.01,0-2.01-1.97-2.01,0q-2.01,1.97-4.01,0c-2.01,0,0-3.93-2.01-5.9-2.01-3.93-6.02,3.93-8.02,5.9,0,1.97-2.01,3.93-2.01,5.9,0,0,2.01,1.97,2.01,3.93,0,0-4.01,3.93-6.02,5.9-6.02,5.9-12.03,9.83-20.05,11.8-6.02,0-12.03,3.93-20.05,5.9-6.02,1.97-12.03,1.97-18.05,5.9-4.01,3.93-6.02,3.93-10.03,5.9-2.01,1.97-6.02,7.87-6.02,7.87-2.01,0,0-5.9,0-7.87-4.01,0-6.02,9.83-6.02,9.83,2.01,5.9-2.01,7.87-2.01,13.77,0,1.97,10.03,23.6,6.02,25.57l-6.02-7.87c0,1.97,6.02,7.87,2.01,9.83-4.01,0-4.01-9.83-8.02-9.83,0,0,12.03,15.73,12.03,17.7,2.01,1.97,0,5.9,2.01,9.83,2.01,3.93,4.01,5.9,6.02,9.83,2.01,1.97,2.01,7.87,2.01,9.83,0,3.93,2.01,7.87,4.01,9.83,2.01,5.9,2.01,7.87,2.01,13.77v11.8c-2.01,1.97-4.01,1.97-6.02,3.93-2.01,5.9,2.01,5.9,4.01,7.87,8.02,3.93,14.04,7.87,24.06,5.9,4.01-1.97,8.02-3.93,10.03-5.9,6.02-1.97,4.01,0,6.02-3.93,4.01-3.93,18.05-3.93,22.06-1.97,6.02,0,16.04,3.93,20.05-1.97,2.01-1.97,2.01-5.9,6.02-7.87,4.01-1.97,8.02-3.93,12.03-5.9,6.02-3.93,14.04,0,20.05-3.93,10.03-3.93,18.05-3.93,30.08-5.9,2.01,0,4.01-1.97,8.02-1.97,2.01,1.97,6.02,3.93,8.02,5.9,2.01,0,22.06,3.93,22.06,5.9-2.01,1.97-4.01,7.87,0,5.9,2.01,0,6.02,5.9,8.02,7.87,2.01,1.97,2.01,3.93,2.01,7.87,2.01,1.97,6.02,5.9,6.02,5.9,0-1.97-2.01-3.93,2.01-5.9,2.01-1.97,4.01-3.93,8.02-5.9,2.01-1.97,12.03-11.8,10.03-13.77,2.01,3.93,0,5.9,0,9.83,2.01,1.97-2.01,3.93-2.01,3.93-2.01,3.93-2.01,5.9-2.01,7.87,0,3.93-8.02,5.9-2.01,5.9,8.02,0,4.01-7.87,6.02-11.8,0,0,8.02,7.87,6.02,11.8-6.02,7.87,2.01,1.97,6.02,5.9,6.02,5.9,6.02,7.87,6.02,13.77-2.01,5.9,6.02,11.8,10.03,11.8,4.01,1.97,8.02,3.93,12.03,3.93s12.03,9.83,16.04,7.87,8.02-3.93,10.03-7.87c0,0,4.01-5.9,6.02-3.93,0,1.97-4.01,3.93-2.01,5.9,2.01,1.97,2.01-3.93,4.01-3.93,0,0,4.01,5.9,6.02,5.9,0,1.97,4.01,5.9,6.02,5.9-2.01,0,4.01-5.9,4.01-5.9,4.01-1.97,6.02-5.9,8.02-7.87,6.02-1.97,22.06,1.97,22.06-5.9,2.01-9.83,4.01-15.73,6.02-23.6,4.01-7.87,6.02-15.73,12.03-23.6,2.01-1.97,6.02-3.93,8.02-7.87v-3.93c2.01-1.97,4.01-3.93,4.01-7.87,2.01-3.93,0-7.87,2.01-11.8,0-1.97,2.01-3.93,2.01-5.9,2.01-1.97-2.01-3.93,0-5.9,2.01-1.97,4.01-7.87,2.01-9.83,0-3.93-2.01-5.9-2.01-7.87-2.01-1.97-2.01-5.9-2.01-7.87-2.01-7.87,4.01-11.8,2.01-19.67,0,1.97-2.01,5.9-4.01,5.9-4.01,0-6.02-7.87-8.02-11.8-4.01-5.9-12.03-5.9-12.03-15.73-2.01-3.93-4.01-3.93-6.02-5.9-4.01-1.97-4.01,3.93-6.02,0,0-5.9-2.01-7.87-6.02-11.8,0,0-2.01-1.97-2.01-3.93-2.01,0,0-3.93,0-1.97-4.01-3.93-8.02-5.9-12.03-7.87-4.01-3.93-10.03-1.97-12.03-5.9-4.01-3.93-2.01-11.8-4.01-13.77,0-3.93,0-7.87-2.01-9.83-2.01-1.97-4.01-1.97-4.01-5.9s0-9.83-4.01-15.73c-2.01,0-6.02-5.9-6.02-3.93-4.01,0-4.01,1.97-6.02-1.97-4.01-3.93-2.01-11.8-6.02-17.7,0-1.97-8.02-15.73-8.02-15.73-2.01,0-2.01,3.93-2.01,5.9s-2.01,3.93-4.01,5.9c0,0-4.01,3.93-2.01,5.9,0,0,4.01,0,2.01,1.97-2.01,0-4.01,9.83-4.01,11.8,2.01,3.93,2.01,7.87,2.01,11.8-2.01,7.87-2.01,27.53-14.04,27.53-8.02,0-8.02-7.87-14.04-9.83-4.01-1.97-8.02-1.97-12.03-5.9-2.01-1.97-24.06-13.77-22.06-15.73,0-1.97,2.01-3.93,4.01-5.9,0-1.97,4.01-1.97,4.01-3.93,0,0-2.01-1.97-2.01-3.93l4.01-3.93c0-1.97,4.01-3.93,6.02-5.9,0-1.97-4.01-5.9-6.02-3.93l-2.01,3.93-4.01-3.93c0-1.97-4.01,1.97-6.02,1.97-2.01,1.97-4.01,0-6.02,0-4.01-1.97-10.03-3.93-16.04-5.9-4.01,0,4.01,1.97,0,0h0Z"/>
  <polygon class="cls-2" points="235.57 156.09 227.55 156.09 227.55 248.55 203.63 248.55 203.63 156.09 195.61 156.09 215.59 136.11 235.57 156.09 235.57 156.09"/>
  <g>
    <path class="cls-3" d="m276.19,204.03h-5.23v5.3c0,.7-.43,1.13-1.13,1.13h-3.16c-.7,0-1.13-.43-1.13-1.13v-5.3h-5.23c-.74,0-1.13-.39-1.13-1.09v-3.2c0-.7.39-1.13,1.13-1.13h5.19v-5.3c0-.7.43-1.13,1.13-1.13h3.2c.7,0,1.13.43,1.13,1.13v5.3h5.23c.7,0,1.13.43,1.13,1.13v3.2c0,.7-.43,1.09-1.13,1.09Z"/>
    <path class="cls-3" d="m298.97,209.8v3.35c0,.7-.43,1.13-1.13,1.13h-15.95c-.74,0-1.13-.43-1.13-1.13v-3.35c0-.74.39-1.13,1.13-1.13h4.95v-13.88l-3.9,2.18c-.62.35-1.13.19-1.56-.31l-2.26-2.69c-.47-.62-.39-1.17.27-1.56l8.5-4.99c.47-.27.9-.39,1.4-.39h3.71c.7,0,1.09.43,1.09,1.13v20.51h3.74c.7,0,1.13.39,1.13,1.13Z"/>
    <path class="cls-3" d="m300.41,213.16v-5.11c0-.7.43-1.13,1.13-1.13h5.5c.7,0,1.13.43,1.13,1.13v5.11c0,.7-.43,1.13-1.13,1.13h-5.5c-.7,0-1.13-.43-1.13-1.13Z"/>
    <path class="cls-3" d="m327.48,209.8v3.35c0,.7-.43,1.13-1.13,1.13h-15.95c-.74,0-1.13-.43-1.13-1.13v-3.35c0-.74.39-1.13,1.13-1.13h4.95v-13.88l-3.9,2.18c-.62.35-1.13.19-1.56-.31l-2.26-2.69c-.47-.62-.39-1.17.27-1.56l8.5-4.99c.47-.27.9-.39,1.4-.39h3.71c.7,0,1.09.43,1.09,1.13v20.51h3.74c.7,0,1.13.39,1.13,1.13Z"/>
    <path class="cls-3" d="m328.57,193.85c0-4.49,2.73-7.22,7.22-7.22s7.21,2.73,7.21,7.22-2.73,7.21-7.21,7.21-7.22-2.77-7.22-7.21Zm9.52,20.44h-3.67c-.9,0-1.21-.58-.7-1.37l17.28-25.19c.31-.51.74-.7,1.33-.7h3.67c.9,0,1.25.58.7,1.37l-17.24,25.19c-.35.51-.78.7-1.37.7Zm-.31-20.44c0-1.91-.7-2.96-1.99-2.96s-1.99,1.05-1.99,2.96.7,2.92,1.99,2.92,1.99-1.05,1.99-2.92Zm9.59,13.61c0-4.49,2.73-7.22,7.22-7.22s7.21,2.73,7.21,7.22-2.73,7.25-7.21,7.25-7.22-2.77-7.22-7.25Zm9.21,0c0-1.87-.7-2.92-1.99-2.92s-1.99,1.05-1.99,2.92.7,2.96,1.99,2.96,1.99-1.05,1.99-2.96Z"/>
    <path class="cls-3" d="m265.95,234.43v1.43c0,.27-.15.43-.43.43h-5.77c-.27,0-.44-.17-.44-.43v-9.62c0-.27.17-.43.44-.43h2.13c.27,0,.43.17.43.43v7.77h3.21c.29,0,.43.15.43.42Z"/>
    <path class="cls-3" d="m273.64,230.57v5.28c0,.27-.15.43-.43.43h-1.77c-.27,0-.42-.17-.42-.43v-.24c-.58.6-1.46.96-2.25.96-1.44,0-2.4-1.04-2.4-2.58s1.27-2.58,3.18-2.58h1.29v-.46c0-.67-.44-.96-1.3-.96-.41,0-.9.11-1.31.29-.24.12-.43.09-.6-.13l-.69-.96c-.17-.24-.12-.46.12-.6.86-.46,2-.76,2.97-.76,2.37,0,3.62.95,3.62,2.76Zm-2.8,2.24h-.83c-.53,0-.83.33-.83.93,0,.5.27.79.71.79.38,0,.72-.21.95-.58v-1.14Z"/>
    <path class="cls-3" d="m278.58,231.2c1.15.32,2.7.71,2.7,2.57,0,1.68-1.51,2.8-3.78,2.8-1.14,0-2.34-.34-3.13-.9-.23-.17-.25-.38-.09-.61l.71-.96c.17-.23.36-.26.62-.11.51.29,1.18.46,1.74.46.62,0,.99-.21.99-.52,0-.39-.36-.51-1.1-.71-1.11-.3-2.8-.84-2.8-2.7,0-1.71,1.29-2.71,3.46-2.71.95,0,2.05.29,2.88.75.25.13.29.36.12.6l-.71.96c-.15.24-.34.25-.58.14-.42-.21-.95-.33-1.41-.33-.52,0-.9.21-.9.51,0,.41.42.51,1.29.76Z"/>
    <path class="cls-3" d="m282.61,233.74v-3.57h-.63c-.27,0-.42-.15-.42-.43v-.88c0-.24.11-.42.35-.5l.28-.06c.27-.1.44-.19.51-.67l.13-.85c.04-.27.21-.39.48-.39h1.75c.27,0,.42.17.42.44v1.3h1.43c.28,0,.43.15.43.42v1.2c0,.29-.15.43-.43.43h-1.43v3.32c0,.6.26.84.72.84.18,0,.38-.04.63-.11.29-.07.48.03.52.32l.18,1.21c.04.27-.11.46-.41.55-.6.18-1.16.27-1.68.27-1.68,0-2.85-.95-2.85-2.83Z"/>
    <path class="cls-3" d="m298.56,234.56v1.29c0,.27-.16.43-.43.43h-6.13c-.29,0-.43-.17-.43-.43v-1.29c0-.29.15-.44.43-.44h1.91v-5.34l-1.5.84c-.24.14-.44.08-.6-.12l-.87-1.04c-.18-.24-.15-.45.1-.6l3.27-1.92c.18-.1.35-.15.54-.15h1.42c.27,0,.42.17.42.43v7.89h1.44c.27,0,.43.15.43.44Z"/>
    <path class="cls-3" d="m305.91,234.56v1.29c0,.27-.17.43-.44.43h-6.21c-.27,0-.43-.17-.43-.43v-1.23c0-.22.08-.38.22-.54,1.59-1.54,3.89-3.51,3.89-5.21,0-.67-.42-1.12-1.04-1.12-.54,0-1.21.3-1.82.82-.22.18-.43.18-.61-.04l-.75-.9c-.17-.2-.18-.41-.02-.6.95-1.06,2.25-1.51,3.45-1.51,2.22,0,3.71,1.18,3.71,2.98s-1.2,3.45-3.42,5.62h3.03c.27,0,.44.15.44.44Z"/>
    <path class="cls-3" d="m321.66,230.32v5.54c0,.27-.17.43-.43.43h-2.03c-.27,0-.43-.17-.43-.43v-5.04c0-.48-.18-.75-.53-.75-.3,0-.58.22-.78.62v5.17c0,.27-.17.43-.44.43h-2.02c-.27,0-.44-.17-.44-.43v-5.04c0-.51-.13-.75-.46-.75s-.63.22-.85.64v5.15c0,.27-.17.43-.44.43h-2.01c-.29,0-.43-.17-.43-.43v-7.32c0-.27.15-.42.43-.42h1.89c.27,0,.44.15.44.42v.57c.46-.76,1.38-1.29,2.25-1.29s1.53.48,1.86,1.26c.46-.75,1.35-1.26,2.17-1.26,1.41,0,2.25.95,2.25,2.5Z"/>
    <path class="cls-3" d="m330.83,232.19c0,2.73-1.54,4.38-4.09,4.38s-4.11-1.65-4.11-4.38,1.54-4.38,4.11-4.38,4.09,1.67,4.09,4.38Zm-2.95,0c0-1.38-.41-2.13-1.14-2.13s-1.15.75-1.15,2.13.4,2.14,1.15,2.14,1.14-.76,1.14-2.14Z"/>
    <path class="cls-3" d="m339.19,230.32v5.54c0,.27-.17.43-.43.43h-2.03c-.27,0-.42-.17-.42-.43v-5.04c0-.48-.22-.75-.6-.75s-.74.29-.96.76v5.03c0,.27-.17.43-.44.43h-2.01c-.29,0-.43-.17-.43-.43v-7.32c0-.27.15-.42.43-.42h1.89c.27,0,.44.15.44.42v.57c.48-.79,1.41-1.29,2.28-1.29,1.38,0,2.28,1.02,2.28,2.5Z"/>
    <path class="cls-3" d="m340.88,233.74v-3.57h-.63c-.27,0-.42-.15-.42-.43v-.88c0-.24.11-.42.35-.5l.28-.06c.27-.1.44-.19.51-.67l.13-.85c.04-.27.21-.39.48-.39h1.75c.27,0,.42.17.42.44v1.3h1.43c.28,0,.43.15.43.42v1.2c0,.29-.15.43-.43.43h-1.43v3.32c0,.6.26.84.72.84.18,0,.38-.04.63-.11.29-.07.48.03.52.32l.18,1.21c.04.27-.11.46-.41.55-.6.18-1.16.27-1.68.27-1.68,0-2.85-.95-2.85-2.83Z"/>
    <path class="cls-3" d="m353.75,230.32v5.54c0,.27-.17.43-.43.43h-2.03c-.27,0-.42-.17-.42-.43v-5.04c0-.51-.2-.75-.62-.75-.34,0-.71.22-.94.66v5.13c0,.27-.17.43-.44.43h-2.01c-.29,0-.43-.17-.43-.43v-10.35c0-.27.15-.44.43-.44h2.01c.27,0,.44.17.44.44v3.42c.52-.69,1.33-1.11,2.16-1.11,1.44,0,2.28.95,2.28,2.5Z"/>
    <path class="cls-3" d="m358.69,231.2c1.15.32,2.7.71,2.7,2.57,0,1.68-1.51,2.8-3.78,2.8-1.14,0-2.34-.34-3.13-.9-.23-.17-.25-.38-.09-.61l.71-.96c.17-.23.36-.26.62-.11.51.29,1.18.46,1.74.46.62,0,.99-.21.99-.52,0-.39-.36-.51-1.1-.71-1.11-.3-2.8-.84-2.8-2.7,0-1.71,1.29-2.71,3.46-2.71.95,0,2.05.29,2.88.75.25.13.29.36.12.6l-.71.96c-.15.24-.34.25-.58.14-.42-.21-.95-.33-1.41-.33-.52,0-.9.21-.9.51,0,.41.42.51,1.29.76Z"/>
  </g>
  <g>
    <path class="cls-3" d="m82.09,204.03h-5.23v5.3c0,.7-.43,1.13-1.13,1.13h-3.16c-.7,0-1.13-.43-1.13-1.13v-5.3h-5.23c-.74,0-1.13-.39-1.13-1.09v-3.2c0-.7.39-1.13,1.13-1.13h5.19v-5.3c0-.7.43-1.13,1.13-1.13h3.2c.7,0,1.13.43,1.13,1.13v5.3h5.23c.7,0,1.13.43,1.13,1.13v3.2c0,.7-.43,1.09-1.13,1.09Z"/>
    <path class="cls-3" d="m107.36,200.68c0,9.32-3.71,14.35-10.73,14.35s-10.73-5.03-10.73-14.35,3.71-14.39,10.73-14.39,10.73,5.03,10.73,14.39Zm-7.64,0c0-6.04-.9-8.42-3.08-8.42s-3.08,2.38-3.08,8.42.9,8.38,3.08,8.38,3.08-2.38,3.08-8.38Z"/>
    <path class="cls-3" d="m109.34,213.16v-5.11c0-.7.43-1.13,1.13-1.13h5.5c.7,0,1.13.43,1.13,1.13v5.11c0,.7-.43,1.13-1.13,1.13h-5.5c-.7,0-1.13-.43-1.13-1.13Z"/>
    <path class="cls-3" d="m136.41,209.8v3.35c0,.7-.43,1.13-1.13,1.13h-15.95c-.74,0-1.13-.43-1.13-1.13v-3.35c0-.74.39-1.13,1.13-1.13h4.95v-13.88l-3.9,2.18c-.62.35-1.13.19-1.56-.31l-2.26-2.69c-.47-.62-.39-1.17.27-1.56l8.5-4.99c.47-.27.9-.39,1.4-.39h3.71c.7,0,1.09.43,1.09,1.13v20.51h3.74c.7,0,1.13.39,1.13,1.13Z"/>
    <path class="cls-3" d="m137.5,193.85c0-4.49,2.73-7.22,7.22-7.22s7.22,2.73,7.22,7.22-2.73,7.21-7.22,7.21-7.22-2.77-7.22-7.21Zm9.52,20.44h-3.67c-.9,0-1.21-.58-.7-1.37l17.28-25.19c.31-.51.74-.7,1.33-.7h3.67c.9,0,1.25.58.7,1.37l-17.24,25.19c-.35.51-.78.7-1.36.7Zm-.31-20.44c0-1.91-.7-2.96-1.99-2.96s-1.99,1.05-1.99,2.96.7,2.92,1.99,2.92,1.99-1.05,1.99-2.92Zm9.59,13.61c0-4.49,2.73-7.22,7.22-7.22s7.22,2.73,7.22,7.22-2.73,7.25-7.22,7.25-7.22-2.77-7.22-7.25Zm9.2,0c0-1.87-.7-2.92-1.99-2.92s-1.99,1.05-1.99,2.92.7,2.96,1.99,2.96,1.99-1.05,1.99-2.96Z"/>
    <path class="cls-3" d="m82.65,234.43v1.43c0,.27-.15.43-.43.43h-5.77c-.27,0-.44-.17-.44-.43v-9.62c0-.27.17-.43.44-.43h2.13c.27,0,.44.17.44.43v7.77h3.21c.28,0,.43.15.43.42Z"/>
    <path class="cls-3" d="m90.35,230.57v5.28c0,.27-.15.43-.44.43h-1.77c-.27,0-.42-.17-.42-.43v-.24c-.58.6-1.46.96-2.25.96-1.44,0-2.4-1.04-2.4-2.58s1.27-2.58,3.18-2.58h1.29v-.46c0-.67-.44-.96-1.3-.96-.41,0-.9.11-1.31.29-.24.12-.44.09-.6-.13l-.69-.96c-.17-.24-.12-.46.12-.6.85-.46,2-.76,2.97-.76,2.37,0,3.62.95,3.62,2.76Zm-2.81,2.24h-.82c-.53,0-.83.33-.83.93,0,.5.27.79.71.79.38,0,.72-.21.94-.58v-1.14Z"/>
    <path class="cls-3" d="m95.28,231.2c1.15.32,2.7.71,2.7,2.57,0,1.68-1.52,2.8-3.78,2.8-1.14,0-2.34-.34-3.13-.9-.23-.17-.25-.38-.09-.61l.71-.96c.17-.23.36-.26.62-.11.51.29,1.18.46,1.74.46.62,0,.99-.21.99-.52,0-.39-.36-.51-1.1-.71-1.11-.3-2.8-.84-2.8-2.7,0-1.71,1.29-2.71,3.46-2.71.94,0,2.05.29,2.88.75.25.13.28.36.12.6l-.7.96c-.15.24-.35.25-.58.14-.42-.21-.95-.33-1.41-.33-.52,0-.9.21-.9.51,0,.41.42.51,1.29.76Z"/>
    <path class="cls-3" d="m99.32,233.74v-3.57h-.63c-.27,0-.42-.15-.42-.43v-.88c0-.24.1-.42.35-.5l.28-.06c.27-.1.44-.19.51-.67l.13-.85c.04-.27.21-.39.48-.39h1.75c.27,0,.42.17.42.44v1.3h1.43c.28,0,.44.15.44.42v1.2c0,.29-.15.43-.44.43h-1.43v3.32c0,.6.26.84.72.84.18,0,.38-.04.63-.11.29-.07.48.03.52.32l.18,1.21c.04.27-.1.46-.4.55-.6.18-1.16.27-1.68.27-1.68,0-2.85-.95-2.85-2.83Z"/>
    <path class="cls-3" d="m113.03,239.24v-3.65c-.54.63-1.38.98-2.26.98-1.75,0-2.83-1.65-2.83-4.38s1.21-4.37,3.22-4.37c.78,0,1.56.39,2.08,1v-.3c0-.27.15-.42.42-.42h1.81c.28,0,.43.15.43.42v10.71c0,.29-.15.43-.43.43h-2.01c-.27,0-.44-.15-.44-.43Zm0-5.68v-2.73c-.25-.48-.65-.78-1.09-.78-.67,0-1.05.77-1.05,2.18s.36,2.11,1.02,2.11c.47,0,.87-.27,1.12-.78Z"/>
    <path class="cls-3" d="m124.4,228.53v7.32c0,.27-.17.43-.44.43h-1.81c-.27,0-.43-.17-.43-.43v-.56c-.5.81-1.41,1.28-2.28,1.28-1.38,0-2.26-.99-2.26-2.49v-5.55c0-.27.15-.42.44-.42h2.01c.29,0,.44.15.44.42v5.04c0,.51.21.78.58.78.34,0,.66-.23.87-.63v-5.19c0-.27.17-.42.44-.42h2.02c.27,0,.44.15.44.42Z"/>
    <path class="cls-3" d="m132.59,230.57v5.28c0,.27-.15.43-.44.43h-1.77c-.27,0-.42-.17-.42-.43v-.24c-.58.6-1.46.96-2.25.96-1.44,0-2.4-1.04-2.4-2.58s1.27-2.58,3.18-2.58h1.29v-.46c0-.67-.44-.96-1.3-.96-.41,0-.9.11-1.31.29-.24.12-.44.09-.6-.13l-.69-.96c-.17-.24-.12-.46.12-.6.85-.46,2-.76,2.97-.76,2.37,0,3.62.95,3.62,2.76Zm-2.81,2.24h-.82c-.53,0-.83.33-.83.93,0,.5.27.79.71.79.38,0,.72-.21.94-.58v-1.14Z"/>
    <path class="cls-3" d="m139.34,228.46l-.29,1.95c-.04.29-.21.39-.45.34-.13-.03-.27-.04-.4-.04-.67,0-1.23.45-1.47,1.16v3.99c0,.27-.17.43-.44.43h-2.01c-.28,0-.43-.17-.43-.43v-7.32c0-.27.15-.42.43-.42h1.89c.27,0,.44.15.44.42v.67c.39-.87,1.08-1.39,1.86-1.39.19,0,.42.04.6.1.24.08.3.29.27.54Z"/>
    <path class="cls-3" d="m140.37,233.74v-3.57h-.63c-.27,0-.42-.15-.42-.43v-.88c0-.24.1-.42.35-.5l.28-.06c.27-.1.44-.19.51-.67l.13-.85c.04-.27.21-.39.48-.39h1.75c.27,0,.42.17.42.44v1.3h1.43c.28,0,.44.15.44.42v1.2c0,.29-.15.43-.44.43h-1.43v3.32c0,.6.26.84.72.84.18,0,.38-.04.63-.11.29-.07.48.03.52.32l.18,1.21c.04.27-.1.46-.4.55-.6.18-1.16.27-1.68.27-1.68,0-2.85-.95-2.85-2.83Z"/>
    <path class="cls-3" d="m145.49,232.19c0-2.71,1.56-4.38,4.14-4.38,2.35,0,3.73,1.54,3.73,4.11,0,.24-.01.51-.06.78-.03.25-.19.39-.45.39h-4.42c.23.86.82,1.31,1.78,1.31.44,0,.98-.12,1.43-.32.25-.1.44-.06.6.15l.62.84c.15.22.13.43-.08.58-.81.58-2.01.92-3.15.92-2.58,0-4.14-1.65-4.14-4.38Zm5.1-.78c-.01-1-.4-1.59-1.05-1.59s-1.06.54-1.2,1.59h2.25Z"/>
    <path class="cls-3" d="m159.84,228.46l-.29,1.95c-.04.29-.21.39-.45.34-.13-.03-.27-.04-.4-.04-.67,0-1.23.45-1.47,1.16v3.99c0,.27-.17.43-.44.43h-2.01c-.28,0-.43-.17-.43-.43v-7.32c0-.27.15-.42.43-.42h1.89c.27,0,.44.15.44.42v.67c.39-.87,1.08-1.39,1.86-1.39.19,0,.42.04.6.1.24.08.3.29.27.54Z"/>
  </g>
  <path class="cls-1" d="m336.75,376.42c0,1.45,2.73,5.79,2.73,7.23,1.36,1.45,2.73,2.89,2.73,4.34s-1.36,1.45-1.36,2.89c1.36,4.34,5.46,7.23,8.19,8.68,2.73,0,2.73-2.89,4.09-4.34l1.36,2.89c0-1.45,0-4.34,1.36-4.34,1.36-1.45,1.36,1.45,2.73,1.45-1.36,0,2.73-10.13,2.73-11.57s1.36-10.13-2.73-8.68c-4.09,1.45-8.19,4.34-12.28,2.89-1.36,0-8.19-4.34-9.55-1.45,0,1.45,1.36-2.89,0,0h0Z"/>
  <path class="cls-1" d="m361.39,363.27c0-1.08-3.6,3.24-2.4,4.32,1.2,0,2.4-1.08,2.4-4.32h0Z"/>
  <path class="cls-1" d="m335.4,368.94c-1.8,0-1.8-3.6,0-3.6s1.8,3.6,0,3.6h0Z"/>
  <g>
    <path class="cls-5" d="m7.64,423.9v-10.26c0-.29.18-.46.46-.46h3.2c.27,0,.45.13.5.42l1.58,7.71,1.54-7.71c.06-.29.24-.42.51-.42h3.2c.29,0,.46.18.46.46v10.26c0,.29-.18.46-.46.46h-1.94c-.29,0-.45-.18-.45-.46v-3.47c0-1.02.1-3.09.21-4.1h-.05l-1.71,7.62c-.06.27-.24.42-.51.42h-1.6c-.27,0-.45-.14-.51-.42l-1.74-7.62h-.05c.11,1.01.21,3.07.21,4.1v3.47c0,.29-.16.46-.46.46h-1.92c-.29,0-.46-.18-.46-.46Z"/>
    <path class="cls-5" d="m27.89,418.26v5.63c0,.29-.16.46-.46.46h-1.89c-.29,0-.45-.18-.45-.46v-.26c-.62.64-1.55,1.02-2.4,1.02-1.54,0-2.56-1.1-2.56-2.75s1.36-2.75,3.39-2.75h1.38v-.5c0-.72-.46-1.02-1.39-1.02-.43,0-.96.11-1.39.3-.26.13-.46.1-.64-.14l-.74-1.02c-.18-.26-.13-.5.13-.64.91-.5,2.13-.82,3.17-.82,2.53,0,3.86,1.01,3.86,2.95Zm-2.99,2.38h-.88c-.56,0-.88.35-.88.99,0,.53.29.85.75.85.4,0,.77-.22,1.01-.62v-1.22Z"/>
    <path class="cls-5" d="m35.09,416.01l-.3,2.08c-.05.3-.22.42-.48.37-.14-.03-.29-.05-.43-.05-.72,0-1.31.48-1.57,1.23v4.26c0,.29-.18.46-.46.46h-2.15c-.3,0-.46-.18-.46-.46v-7.81c0-.29.16-.45.46-.45h2.02c.29,0,.46.16.46.45v.72c.42-.93,1.15-1.49,1.98-1.49.21,0,.45.05.64.11.26.08.32.3.29.58Z"/>
    <path class="cls-5" d="m35.16,419.99c0-2.82,1.78-4.67,4.42-4.67,1.01,0,2.02.3,2.72.8.24.19.27.4.1.66l-.85,1.18c-.18.22-.38.22-.64.08-.27-.16-.58-.22-.88-.22-1.1,0-1.66.72-1.66,2.18s.54,2.19,1.68,2.19c.29,0,.61-.1.88-.24.27-.16.46-.16.64.08l.85,1.18c.18.24.18.45-.03.61-.72.53-1.74.85-2.8.85-2.67,0-4.42-1.84-4.42-4.67Z"/>
    <path class="cls-5" d="m50.91,417.99v5.91c0,.29-.18.46-.46.46h-2.16c-.29,0-.45-.18-.45-.46v-5.38c0-.54-.21-.8-.66-.8-.37,0-.75.24-1.01.7v5.47c0,.29-.18.46-.46.46h-2.15c-.3,0-.46-.18-.46-.46v-11.04c0-.29.16-.46.46-.46h2.15c.29,0,.46.18.46.46v3.65c.56-.74,1.42-1.18,2.31-1.18,1.54,0,2.43,1.01,2.43,2.67Z"/>
    <path class="cls-5" d="m60.96,427.52v-3.89c-.58.67-1.47,1.04-2.42,1.04-1.87,0-3.02-1.76-3.02-4.67s1.3-4.66,3.44-4.66c.83,0,1.66.42,2.22,1.07v-.32c0-.29.16-.45.45-.45h1.94c.3,0,.46.16.46.45v11.43c0,.3-.16.46-.46.46h-2.14c-.29,0-.46-.16-.46-.46Zm0-6.07v-2.91c-.27-.51-.69-.83-1.17-.83-.72,0-1.12.82-1.12,2.32s.38,2.26,1.09,2.26c.5,0,.93-.29,1.2-.83Z"/>
    <path class="cls-5" d="m73.09,416.09v7.81c0,.29-.18.46-.46.46h-1.94c-.29,0-.46-.18-.46-.46v-.59c-.53.86-1.5,1.36-2.43,1.36-1.47,0-2.42-1.06-2.42-2.66v-5.92c0-.29.16-.45.46-.45h2.15c.3,0,.46.16.46.45v5.38c0,.54.22.83.62.83.37,0,.7-.24.93-.67v-5.54c0-.29.18-.45.46-.45h2.16c.29,0,.46.16.46.45Z"/>
    <path class="cls-5" d="m81.82,418.26v5.63c0,.29-.16.46-.46.46h-1.89c-.29,0-.45-.18-.45-.46v-.26c-.62.64-1.55,1.02-2.4,1.02-1.54,0-2.56-1.1-2.56-2.75s1.36-2.75,3.39-2.75h1.38v-.5c0-.72-.46-1.02-1.39-1.02-.43,0-.96.11-1.39.3-.26.13-.46.1-.64-.14l-.74-1.02c-.18-.26-.13-.5.13-.64.91-.5,2.13-.82,3.17-.82,2.53,0,3.86,1.01,3.86,2.95Zm-2.99,2.38h-.88c-.56,0-.88.35-.88.99,0,.53.29.85.75.85.4,0,.77-.22,1.01-.62v-1.22Z"/>
    <path class="cls-5" d="m89.02,416.01l-.3,2.08c-.05.3-.22.42-.48.37-.14-.03-.29-.05-.43-.05-.72,0-1.31.48-1.57,1.23v4.26c0,.29-.18.46-.46.46h-2.15c-.3,0-.46-.18-.46-.46v-7.81c0-.29.16-.45.46-.45h2.02c.29,0,.46.16.46.45v.72c.42-.93,1.15-1.49,1.98-1.49.21,0,.45.05.64.11.26.08.32.3.29.58Z"/>
    <path class="cls-5" d="m90.12,421.64v-3.81h-.67c-.29,0-.45-.16-.45-.46v-.94c0-.26.11-.45.37-.53l.3-.06c.29-.11.46-.21.54-.72l.14-.91c.05-.29.22-.42.51-.42h1.87c.29,0,.45.18.45.46v1.39h1.52c.3,0,.46.16.46.45v1.28c0,.3-.16.46-.46.46h-1.52v3.54c0,.64.27.9.77.9.19,0,.4-.05.67-.11.3-.08.51.03.56.34l.19,1.3c.05.29-.11.5-.43.59-.64.19-1.23.29-1.79.29-1.79,0-3.04-1.01-3.04-3.03Z"/>
    <path class="cls-5" d="m95.58,419.99c0-2.9,1.66-4.67,4.42-4.67,2.51,0,3.99,1.65,3.99,4.39,0,.26-.02.54-.06.83-.03.27-.21.42-.48.42h-4.72c.24.91.88,1.39,1.9,1.39.46,0,1.04-.13,1.52-.34.27-.11.46-.06.64.16l.66.9c.16.24.14.46-.08.62-.86.62-2.14.98-3.36.98-2.75,0-4.42-1.76-4.42-4.67Zm5.44-.83c-.02-1.07-.43-1.7-1.12-1.7s-1.14.58-1.28,1.7h2.4Z"/>
    <path class="cls-5" d="m110.89,416.01l-.3,2.08c-.05.3-.22.42-.48.37-.14-.03-.29-.05-.43-.05-.72,0-1.31.48-1.57,1.23v4.26c0,.29-.18.46-.46.46h-2.15c-.3,0-.46-.18-.46-.46v-7.81c0-.29.16-.45.46-.45h2.02c.29,0,.46.16.46.45v.72c.42-.93,1.15-1.49,1.98-1.49.21,0,.45.05.64.11.26.08.32.3.29.58Z"/>
    <path class="cls-5" d="m110.49,421.34h2.26c.29,0,.46.18.46.46v1.99c0,1.86-1.02,3.04-2.75,3.26-.29.05-.45-.11-.5-.4l-.03-.21c-.05-.29.1-.45.37-.54.64-.24,1.01-.78,1.04-1.54h-.85c-.29,0-.46-.18-.46-.46v-2.1c0-.29.18-.46.46-.46Z"/>
    <path class="cls-5" d="m117.55,419.99c0-2.82,1.78-4.67,4.42-4.67,1.01,0,2.02.3,2.72.8.24.19.27.4.1.66l-.85,1.18c-.18.22-.38.22-.64.08-.27-.16-.58-.22-.88-.22-1.1,0-1.66.72-1.66,2.18s.54,2.19,1.68,2.19c.29,0,.61-.1.88-.24.27-.16.46-.16.64.08l.85,1.18c.18.24.18.45-.03.61-.72.53-1.74.85-2.8.85-2.67,0-4.42-1.84-4.42-4.67Z"/>
    <path class="cls-5" d="m133.29,417.99v5.91c0,.29-.18.46-.46.46h-2.16c-.29,0-.45-.18-.45-.46v-5.38c0-.54-.21-.8-.66-.8-.37,0-.75.24-1.01.7v5.47c0,.29-.18.46-.46.46h-2.15c-.3,0-.46-.18-.46-.46v-11.04c0-.29.16-.46.46-.46h2.15c.29,0,.46.18.46.46v3.65c.56-.74,1.42-1.18,2.31-1.18,1.54,0,2.43,1.01,2.43,2.67Z"/>
    <path class="cls-5" d="m141.98,418.26v5.63c0,.29-.16.46-.46.46h-1.89c-.29,0-.45-.18-.45-.46v-.26c-.62.64-1.55,1.02-2.4,1.02-1.54,0-2.56-1.1-2.56-2.75s1.36-2.75,3.39-2.75h1.38v-.5c0-.72-.46-1.02-1.39-1.02-.43,0-.96.11-1.39.3-.26.13-.46.1-.64-.14l-.74-1.02c-.18-.26-.13-.5.13-.64.91-.5,2.13-.82,3.17-.82,2.53,0,3.86,1.01,3.86,2.95Zm-2.99,2.38h-.88c-.56,0-.88.35-.88.99,0,.53.29.85.75.85.4,0,.77-.22,1.01-.62v-1.22Z"/>
    <path class="cls-5" d="m143.31,414.18v-1.33c0-.29.16-.46.46-.46h2.19c.29,0,.46.18.46.46v1.33c0,.3-.18.46-.46.46h-2.19c-.3,0-.46-.16-.46-.46Zm.02,9.72v-7.81c0-.29.18-.45.46-.45h2.16c.29,0,.45.16.45.45v7.81c0,.29-.16.46-.45.46h-2.16c-.29,0-.46-.18-.46-.46Z"/>
    <path class="cls-5" d="m155.63,417.99v5.91c0,.29-.18.46-.46.46h-2.16c-.29,0-.45-.18-.45-.46v-5.38c0-.51-.24-.8-.64-.8s-.78.3-1.02.82v5.36c0,.29-.18.46-.46.46h-2.15c-.3,0-.46-.18-.46-.46v-7.81c0-.29.16-.45.46-.45h2.02c.29,0,.46.16.46.45v.61c.51-.85,1.5-1.38,2.43-1.38,1.47,0,2.43,1.09,2.43,2.67Z"/>
    <path class="cls-5" d="m162.11,423.98l-2.38-7.83c-.1-.3.05-.51.38-.51h2.27c.29,0,.45.11.51.4l1.14,5.68h.05l1.15-5.68c.05-.29.22-.4.5-.4h2.21c.34,0,.48.21.38.51l-2.37,7.83c-.08.26-.26.38-.51.38h-2.82c-.26,0-.43-.13-.51-.38Z"/>
    <path class="cls-5" d="m177.2,419.99c0,2.91-1.65,4.67-4.37,4.67s-4.39-1.76-4.39-4.67,1.65-4.67,4.39-4.67,4.37,1.78,4.37,4.67Zm-3.15,0c0-1.47-.43-2.27-1.22-2.27s-1.23.8-1.23,2.27.43,2.29,1.23,2.29,1.22-.82,1.22-2.29Z"/>
    <path class="cls-5" d="m178.23,423.9v-11.04c0-.29.16-.46.46-.46h2.14c.3,0,.46.18.46.46v11.04c0,.29-.16.46-.46.46h-2.14c-.3,0-.46-.18-.46-.46Z"/>
    <path class="cls-5" d="m190.3,416.09v7.81c0,.29-.18.46-.46.46h-1.94c-.29,0-.46-.18-.46-.46v-.59c-.53.86-1.5,1.36-2.43,1.36-1.47,0-2.42-1.06-2.42-2.66v-5.92c0-.29.16-.45.46-.45h2.14c.3,0,.46.16.46.45v5.38c0,.54.22.83.62.83.37,0,.7-.24.93-.67v-5.54c0-.29.18-.45.46-.45h2.16c.29,0,.46.16.46.45Z"/>
    <path class="cls-5" d="m203.74,417.99v5.91c0,.29-.18.46-.46.46h-2.16c-.29,0-.46-.18-.46-.46v-5.38c0-.51-.19-.8-.56-.8-.32,0-.62.24-.83.66v5.52c0,.29-.18.46-.46.46h-2.16c-.29,0-.46-.18-.46-.46v-5.38c0-.54-.14-.8-.5-.8s-.67.24-.91.69v5.49c0,.29-.18.46-.46.46h-2.14c-.3,0-.46-.18-.46-.46v-7.81c0-.29.16-.45.46-.45h2.02c.29,0,.46.16.46.45v.61c.5-.82,1.47-1.38,2.4-1.38s1.63.51,1.98,1.34c.5-.8,1.44-1.34,2.32-1.34,1.5,0,2.4,1.01,2.4,2.67Z"/>
    <path class="cls-5" d="m204.78,419.99c0-2.9,1.66-4.67,4.42-4.67,2.51,0,3.99,1.65,3.99,4.39,0,.26-.02.54-.06.83-.03.27-.21.42-.48.42h-4.72c.24.91.88,1.39,1.91,1.39.46,0,1.04-.13,1.52-.34.27-.11.46-.06.64.16l.66.9c.16.24.14.46-.08.62-.86.62-2.15.98-3.36.98-2.75,0-4.42-1.76-4.42-4.67Zm5.44-.83c-.02-1.07-.43-1.7-1.12-1.7s-1.14.58-1.28,1.7h2.4Z"/>
    <path class="cls-5" d="m229.85,417.99v5.91c0,.29-.18.46-.46.46h-2.16c-.29,0-.46-.18-.46-.46v-5.38c0-.51-.19-.8-.56-.8-.32,0-.62.24-.83.66v5.52c0,.29-.18.46-.46.46h-2.16c-.29,0-.46-.18-.46-.46v-5.38c0-.54-.14-.8-.5-.8s-.67.24-.91.69v5.49c0,.29-.18.46-.46.46h-2.14c-.3,0-.46-.18-.46-.46v-7.81c0-.29.16-.45.46-.45h2.02c.29,0,.46.16.46.45v.61c.5-.82,1.47-1.38,2.4-1.38s1.63.51,1.98,1.34c.5-.8,1.44-1.34,2.32-1.34,1.5,0,2.4,1.01,2.4,2.67Z"/>
    <path class="cls-5" d="m230.89,419.99c0-2.9,1.66-4.67,4.42-4.67,2.51,0,3.99,1.65,3.99,4.39,0,.26-.02.54-.06.83-.03.27-.21.42-.48.42h-4.72c.24.91.88,1.39,1.91,1.39.46,0,1.04-.13,1.52-.34.27-.11.46-.06.64.16l.66.9c.16.24.14.46-.08.62-.86.62-2.15.98-3.36.98-2.75,0-4.42-1.76-4.42-4.67Zm5.44-.83c-.02-1.07-.43-1.7-1.12-1.7s-1.14.58-1.28,1.7h2.4Z"/>
    <path class="cls-5" d="m247.69,418.26v5.63c0,.29-.16.46-.46.46h-1.89c-.29,0-.45-.18-.45-.46v-.26c-.62.64-1.55,1.02-2.4,1.02-1.54,0-2.56-1.1-2.56-2.75s1.36-2.75,3.39-2.75h1.38v-.5c0-.72-.46-1.02-1.39-1.02-.43,0-.96.11-1.39.3-.26.13-.46.1-.64-.14l-.74-1.02c-.18-.26-.13-.5.13-.64.91-.5,2.13-.82,3.17-.82,2.53,0,3.86,1.01,3.86,2.95Zm-2.99,2.38h-.88c-.56,0-.88.35-.88.99,0,.53.29.85.75.85.4,0,.77-.22,1.01-.62v-1.22Z"/>
    <path class="cls-5" d="m252.95,418.94c1.23.34,2.88.75,2.88,2.74,0,1.79-1.62,2.99-4.03,2.99-1.22,0-2.5-.37-3.35-.96-.24-.18-.27-.4-.1-.66l.75-1.02c.18-.24.38-.27.66-.11.54.3,1.26.5,1.86.5.66,0,1.06-.22,1.06-.56,0-.42-.38-.54-1.17-.75-1.18-.32-2.99-.9-2.99-2.88,0-1.83,1.38-2.9,3.7-2.9,1.01,0,2.19.3,3.07.8.27.14.3.38.13.64l-.75,1.02c-.16.26-.37.27-.62.14-.45-.22-1.01-.35-1.5-.35-.56,0-.96.22-.96.54,0,.43.45.54,1.38.82Z"/>
    <path class="cls-5" d="m264.44,416.09v7.81c0,.29-.18.46-.46.46h-1.94c-.29,0-.46-.18-.46-.46v-.59c-.53.86-1.5,1.36-2.43,1.36-1.47,0-2.42-1.06-2.42-2.66v-5.92c0-.29.16-.45.46-.45h2.14c.3,0,.46.16.46.45v5.38c0,.54.22.83.62.83.37,0,.7-.24.93-.67v-5.54c0-.29.18-.45.46-.45h2.16c.29,0,.46.16.46.45Z"/>
    <path class="cls-5" d="m271.69,416.01l-.3,2.08c-.05.3-.22.42-.48.37-.14-.03-.29-.05-.43-.05-.72,0-1.31.48-1.57,1.23v4.26c0,.29-.18.46-.46.46h-2.14c-.3,0-.46-.18-.46-.46v-7.81c0-.29.16-.45.46-.45h2.02c.29,0,.46.16.46.45v.72c.42-.93,1.15-1.49,1.99-1.49.21,0,.45.05.64.11.26.08.32.3.29.58Z"/>
    <path class="cls-5" d="m271.77,419.99c0-2.9,1.66-4.67,4.42-4.67,2.51,0,3.99,1.65,3.99,4.39,0,.26-.02.54-.06.83-.03.27-.21.42-.48.42h-4.72c.24.91.88,1.39,1.91,1.39.46,0,1.04-.13,1.52-.34.27-.11.46-.06.64.16l.66.9c.16.24.14.46-.08.62-.86.62-2.15.98-3.36.98-2.75,0-4.42-1.76-4.42-4.67Zm5.44-.83c-.02-1.07-.43-1.7-1.12-1.7s-1.14.58-1.28,1.7h2.4Z"/>
    <path class="cls-5" d="m285.15,418.94c1.23.34,2.88.75,2.88,2.74,0,1.79-1.62,2.99-4.03,2.99-1.22,0-2.5-.37-3.35-.96-.24-.18-.27-.4-.1-.66l.75-1.02c.18-.24.38-.27.66-.11.54.3,1.26.5,1.86.5.66,0,1.06-.22,1.06-.56,0-.42-.38-.54-1.17-.75-1.18-.32-2.99-.9-2.99-2.88,0-1.83,1.38-2.9,3.7-2.9,1.01,0,2.19.3,3.07.8.27.14.3.38.13.64l-.75,1.02c-.16.26-.37.27-.62.14-.45-.22-1.01-.35-1.5-.35-.56,0-.96.22-.96.54,0,.43.45.54,1.38.82Z"/>
    <path class="cls-5" d="m288.65,423.9v-2.1c0-.29.18-.46.46-.46h2.26c.29,0,.46.18.46.46v2.1c0,.29-.18.46-.46.46h-2.26c-.29,0-.46-.18-.46-.46Z"/>
  </g>
  <g>
    <path class="cls-5" d="m74.87,34.35v8.5c0,.41-.12.72-.46.99-1.68,1.16-4.38,1.97-6.99,1.97-6.06,0-9.6-3.86-9.6-10.67s3.8-10.7,10.09-10.7c2.06,0,4.15.7,5.8,1.89.44.29.49.72.17,1.16l-1.54,2.12c-.32.44-.73.49-1.19.17-.93-.67-1.91-.96-2.9-.96-2.84,0-4.38,2.21-4.38,6.32s1.31,6.29,3.8,6.29c.61,0,1.25-.12,1.77-.32v-3.77h-1.16c-.52,0-.81-.32-.81-.84v-2.15c0-.52.29-.84.81-.84h5.74c.55,0,.84.32.84.84Z"/>
    <path class="cls-5" d="m87.84,30.12l-.55,3.77c-.09.55-.41.75-.87.67-.26-.06-.52-.09-.78-.09-1.31,0-2.38.87-2.84,2.23v7.72c0,.52-.32.84-.84.84h-3.89c-.55,0-.84-.32-.84-.84v-14.16c0-.52.29-.81.84-.81h3.65c.52,0,.84.29.84.81v1.31c.75-1.68,2.09-2.7,3.6-2.7.38,0,.81.09,1.16.2.46.14.58.55.52,1.04Z"/>
    <path class="cls-5" d="m103.84,37.34c0,5.28-2.99,8.47-7.92,8.47s-7.95-3.19-7.95-8.47,2.99-8.47,7.95-8.47,7.92,3.22,7.92,8.47Zm-5.71,0c0-2.67-.78-4.12-2.2-4.12s-2.23,1.45-2.23,4.12.78,4.15,2.23,4.15,2.2-1.48,2.2-4.15Z"/>
    <path class="cls-5" d="m112.95,35.43c2.23.61,5.22,1.36,5.22,4.96,0,3.25-2.93,5.42-7.31,5.42-2.2,0-4.52-.67-6.06-1.74-.44-.32-.49-.72-.17-1.19l1.36-1.86c.32-.43.7-.49,1.19-.2.99.55,2.29.9,3.36.9,1.19,0,1.91-.41,1.91-1.01,0-.75-.7-.99-2.12-1.36-2.15-.58-5.42-1.62-5.42-5.22,0-3.31,2.49-5.25,6.7-5.25,1.83,0,3.97.55,5.57,1.45.49.26.55.7.23,1.16l-1.36,1.86c-.29.46-.67.49-1.13.26-.81-.41-1.83-.64-2.73-.64-1.02,0-1.74.41-1.74.99,0,.78.81.99,2.49,1.48Z"/>
    <path class="cls-5" d="m127.01,35.43c2.23.61,5.22,1.36,5.22,4.96,0,3.25-2.93,5.42-7.31,5.42-2.2,0-4.52-.67-6.06-1.74-.44-.32-.49-.72-.17-1.19l1.36-1.86c.32-.43.7-.49,1.19-.2.99.55,2.29.9,3.36.9,1.19,0,1.91-.41,1.91-1.01,0-.75-.7-.99-2.12-1.36-2.15-.58-5.42-1.62-5.42-5.22,0-3.31,2.49-5.25,6.7-5.25,1.83,0,3.97.55,5.57,1.45.49.26.55.7.23,1.16l-1.36,1.86c-.29.46-.67.49-1.13.26-.81-.41-1.83-.64-2.73-.64-1.02,0-1.74.41-1.74.99,0,.78.81.99,2.49,1.48Z"/>
    <path class="cls-5" d="m139.89,37.34c0-5.25,2.35-8.44,6.24-8.44,1.28,0,2.61.58,3.57,1.51v-6c0-.52.32-.84.84-.84h3.92c.52,0,.84.32.84.84v20.02c0,.52-.32.84-.84.84h-3.42c-.52,0-.84-.32-.84-.84v-.58c-1.04,1.22-2.64,1.97-4.35,1.97-3.68,0-5.95-3.19-5.95-8.47Zm9.8,2.73v-5.45c-.46-.9-1.22-1.42-2.06-1.42-1.31,0-2.03,1.48-2.03,4.21s.7,4.09,1.97,4.09c.9,0,1.65-.52,2.12-1.42Z"/>
    <path class="cls-5" d="m173.12,37.34c0,5.28-2.99,8.47-7.92,8.47s-7.95-3.19-7.95-8.47,2.99-8.47,7.95-8.47,7.92,3.22,7.92,8.47Zm-5.71,0c0-2.67-.78-4.12-2.2-4.12s-2.23,1.45-2.23,4.12.78,4.15,2.23,4.15,2.2-1.48,2.2-4.15Z"/>
    <path class="cls-5" d="m196.96,33.71v10.7c0,.52-.32.84-.84.84h-3.92c-.52,0-.84-.32-.84-.84v-9.75c0-.93-.35-1.45-1.02-1.45-.58,0-1.13.44-1.51,1.19v10.01c0,.52-.32.84-.84.84h-3.92c-.52,0-.84-.32-.84-.84v-9.75c0-.99-.26-1.45-.9-1.45s-1.22.44-1.65,1.25v9.95c0,.52-.32.84-.84.84h-3.89c-.55,0-.84-.32-.84-.84v-14.16c0-.52.29-.81.84-.81h3.65c.52,0,.84.29.84.81v1.1c.9-1.48,2.67-2.49,4.35-2.49s2.96.93,3.6,2.44c.9-1.45,2.61-2.44,4.21-2.44,2.73,0,4.35,1.83,4.35,4.84Z"/>
    <path class="cls-5" d="m198.84,37.34c0-5.25,3.02-8.47,8.01-8.47,4.55,0,7.22,2.99,7.22,7.95,0,.46-.03.99-.12,1.51-.06.49-.38.75-.87.75h-8.56c.44,1.65,1.6,2.52,3.45,2.52.84,0,1.89-.23,2.76-.61.49-.2.84-.12,1.16.29l1.19,1.62c.29.44.26.84-.15,1.13-1.57,1.13-3.89,1.77-6.09,1.77-4.99,0-8.01-3.19-8.01-8.47Zm9.86-1.51c-.03-1.94-.78-3.07-2.03-3.07s-2.06,1.04-2.32,3.07h4.35Z"/>
    <path class="cls-5" d="m223.09,35.43c2.23.61,5.22,1.36,5.22,4.96,0,3.25-2.93,5.42-7.31,5.42-2.21,0-4.53-.67-6.06-1.74-.44-.32-.49-.72-.17-1.19l1.36-1.86c.32-.43.7-.49,1.19-.2.99.55,2.29.9,3.36.9,1.19,0,1.92-.41,1.92-1.01,0-.75-.7-.99-2.12-1.36-2.15-.58-5.42-1.62-5.42-5.22,0-3.31,2.49-5.25,6.7-5.25,1.83,0,3.97.55,5.57,1.45.49.26.55.7.23,1.16l-1.36,1.86c-.29.46-.67.49-1.13.26-.81-.41-1.83-.64-2.73-.64-1.01,0-1.74.41-1.74.99,0,.78.81.99,2.49,1.48Z"/>
    <path class="cls-5" d="m230.89,40.33v-6.9h-1.22c-.52,0-.81-.29-.81-.84v-1.71c0-.46.2-.81.67-.96l.55-.12c.52-.2.84-.38.99-1.3l.26-1.65c.09-.52.41-.75.93-.75h3.39c.52,0,.81.32.81.84v2.52h2.75c.55,0,.84.29.84.81v2.32c0,.55-.29.84-.84.84h-2.75v6.41c0,1.16.49,1.62,1.39,1.62.35,0,.73-.09,1.22-.2.55-.15.93.06,1.01.61l.35,2.35c.09.52-.2.9-.78,1.07-1.16.35-2.23.52-3.25.52-3.25,0-5.51-1.83-5.51-5.48Z"/>
    <path class="cls-5" d="m241.59,26.81v-2.41c0-.52.29-.84.84-.84h3.97c.52,0,.84.32.84.84v2.41c0,.55-.32.84-.84.84h-3.97c-.55,0-.84-.29-.84-.84Zm.03,17.61v-14.16c0-.52.32-.81.84-.81h3.92c.52,0,.81.29.81.81v14.16c0,.52-.29.84-.81.84h-3.92c-.52,0-.84-.32-.84-.84Z"/>
    <path class="cls-5" d="m249.21,37.34c0-5.11,3.22-8.47,8.01-8.47,1.83,0,3.66.55,4.93,1.45.43.35.49.72.17,1.19l-1.54,2.15c-.32.41-.7.41-1.16.14-.49-.29-1.04-.41-1.6-.41-2,0-3.02,1.31-3.02,3.95s.99,3.97,3.05,3.97c.52,0,1.1-.17,1.59-.43.49-.29.84-.29,1.16.14l1.54,2.15c.32.44.32.81-.06,1.1-1.3.96-3.16,1.54-5.08,1.54-4.84,0-8.01-3.34-8.01-8.47Z"/>
    <path class="cls-5" d="m285.41,37.37c0,5.25-2.35,8.44-6.21,8.44-1.28,0-2.61-.55-3.57-1.48v6.64c0,.55-.32.84-.84.84h-3.89c-.55,0-.84-.29-.84-.84v-20.71c0-.52.29-.81.84-.81h3.65c.52,0,.84.29.84.81v1.07c.93-1.51,2.73-2.44,4.52-2.44,3.42,0,5.48,3.19,5.48,8.47Zm-5.71-.06c0-2.64-.7-4.09-1.97-4.09-.84,0-1.6.49-2.09,1.42v5.42c.49.9,1.22,1.42,2.06,1.42,1.31,0,2-1.48,2-4.18Z"/>
    <path class="cls-5" d="m298.05,30.12l-.55,3.77c-.09.55-.41.75-.87.67-.26-.06-.52-.09-.78-.09-1.31,0-2.38.87-2.84,2.23v7.72c0,.52-.32.84-.84.84h-3.89c-.55,0-.84-.32-.84-.84v-14.16c0-.52.29-.81.84-.81h3.65c.52,0,.84.29.84.81v1.31c.75-1.68,2.09-2.7,3.6-2.7.38,0,.81.09,1.16.2.46.14.58.55.52,1.04Z"/>
    <path class="cls-5" d="m314.06,37.34c0,5.28-2.99,8.47-7.92,8.47s-7.95-3.19-7.95-8.47,2.99-8.47,7.95-8.47,7.92,3.22,7.92,8.47Zm-5.71,0c0-2.67-.78-4.12-2.2-4.12s-2.23,1.45-2.23,4.12.78,4.15,2.23,4.15,2.2-1.48,2.2-4.15Z"/>
    <path class="cls-5" d="m315.51,37.34c0-5.25,2.35-8.44,6.24-8.44,1.28,0,2.61.58,3.57,1.51v-6c0-.52.32-.84.84-.84h3.92c.52,0,.84.32.84.84v20.02c0,.52-.32.84-.84.84h-3.42c-.52,0-.84-.32-.84-.84v-.58c-1.04,1.22-2.64,1.97-4.35,1.97-3.68,0-5.95-3.19-5.95-8.47Zm9.8,2.73v-5.45c-.46-.9-1.22-1.42-2.06-1.42-1.31,0-2.03,1.48-2.03,4.21s.7,4.09,1.97,4.09c.9,0,1.65-.52,2.12-1.42Z"/>
    <path class="cls-5" d="m347.29,30.26v14.16c0,.52-.32.84-.84.84h-3.51c-.52,0-.84-.32-.84-.84v-1.07c-.96,1.57-2.73,2.46-4.41,2.46-2.67,0-4.38-1.91-4.38-4.81v-10.73c0-.52.29-.81.84-.81h3.89c.55,0,.84.29.84.81v9.75c0,.99.41,1.51,1.13,1.51.67,0,1.28-.43,1.68-1.22v-10.04c0-.52.32-.81.84-.81h3.92c.52,0,.84.29.84.81Z"/>
    <path class="cls-5" d="m349.26,37.34c0-5.11,3.22-8.47,8.01-8.47,1.83,0,3.66.55,4.93,1.45.44.35.49.72.17,1.19l-1.54,2.15c-.32.41-.7.41-1.16.14-.49-.29-1.04-.41-1.6-.41-2,0-3.02,1.31-3.02,3.95s.99,3.97,3.05,3.97c.52,0,1.1-.17,1.6-.43.49-.29.84-.29,1.16.14l1.54,2.15c.32.44.32.81-.06,1.1-1.31.96-3.16,1.54-5.08,1.54-4.84,0-8.01-3.34-8.01-8.47Z"/>
    <path class="cls-5" d="m364.49,40.33v-6.9h-1.22c-.52,0-.81-.29-.81-.84v-1.71c0-.46.2-.81.67-.96l.55-.12c.52-.2.84-.38.99-1.3l.26-1.65c.09-.52.41-.75.93-.75h3.39c.52,0,.81.32.81.84v2.52h2.76c.55,0,.84.29.84.81v2.32c0,.55-.29.84-.84.84h-2.76v6.41c0,1.16.49,1.62,1.39,1.62.35,0,.73-.09,1.22-.2.55-.15.93.06,1.01.61l.35,2.35c.09.52-.2.9-.78,1.07-1.16.35-2.23.52-3.25.52-3.25,0-5.51-1.83-5.51-5.48Z"/>
  </g>
</svg>