<?xml version="1.0" encoding="UTF-8"?>
<svg id="Layer_1" data-name="Layer 1" xmlns="http://www.w3.org/2000/svg" xmlns:xlink="http://www.w3.org/1999/xlink" viewBox="0 0 430.06 430.06">
  <defs>
    <style>
      .cls-1 {
        clip-path: url(#clippath-2);
      }

      .cls-2 {
        fill-rule: evenodd;
      }

      .cls-2, .cls-3, .cls-4, .cls-5, .cls-6, .cls-7, .cls-8 {
        stroke-width: 0px;
      }

      .cls-2, .cls-8 {
        fill: #5c0425;
      }

      .cls-3 {
        clip-path: url(#clippath);
      }

      .cls-3, .cls-4, .cls-5, .cls-7 {
        fill: none;
      }

      .cls-9 {
        clip-path: url(#clippath-7);
      }

      .cls-10 {
        clip-path: url(#clippath-1);
      }

      .cls-11 {
        clip-path: url(#clippath-4);
      }

      .cls-5 {
        clip-path: url(#clippath-6);
      }

      .cls-12 {
        clip-path: url(#clippath-8);
      }

      .cls-6 {
        fill: #edc8bd;
      }

      .cls-7 {
        clip-path: url(#clippath-3);
      }

      .cls-13 {
        clip-path: url(#clippath-5);
      }
    </style>
    <clipPath id="clippath">
      <polygon class="cls-4" points="22.42 429.69 128.38 429.69 128.38 323.73 22.42 323.73 22.42 429.69 22.42 429.69"/>
    </clipPath>
    <clipPath id="clippath-1">
      <polygon class="cls-3" points="22.42 323.73 128.38 323.73 128.38 429.69 22.42 429.69 22.42 323.73 22.42 323.73"/>
    </clipPath>
    <clipPath id="clippath-2">
      <polygon class="cls-4" points="22.42 429.69 128.38 429.69 128.38 323.73 22.42 323.73 22.42 429.69 22.42 429.69"/>
    </clipPath>
    <clipPath id="clippath-3">
      <polygon class="cls-4" points="160.14 429.57 265.86 429.57 265.86 323.85 160.14 323.85 160.14 429.57 160.14 429.57"/>
    </clipPath>
    <clipPath id="clippath-4">
      <polygon class="cls-7" points="160.14 323.85 265.86 323.85 265.86 429.57 160.14 429.57 160.14 323.85 160.14 323.85"/>
    </clipPath>
    <clipPath id="clippath-5">
      <polygon class="cls-4" points="160.14 429.57 265.86 429.57 265.86 323.85 160.14 323.85 160.14 429.57 160.14 429.57"/>
    </clipPath>
    <clipPath id="clippath-6">
      <polygon class="cls-4" points="297.62 429.57 403.34 429.57 403.34 323.85 297.62 323.85 297.62 429.57 297.62 429.57"/>
    </clipPath>
    <clipPath id="clippath-7">
      <polygon class="cls-5" points="297.62 323.85 403.34 323.85 403.34 429.57 297.62 429.57 297.62 323.85 297.62 323.85"/>
    </clipPath>
    <clipPath id="clippath-8">
      <polygon class="cls-4" points="297.62 429.57 403.34 429.57 403.34 323.85 297.62 323.85 297.62 429.57 297.62 429.57"/>
    </clipPath>
  </defs>
  <rect class="cls-6" width="430.06" height="430.06"/>
  <polygon class="cls-2" points="197.87 212.16 204.76 212.16 204.76 153.96 225.31 153.96 225.31 212.16 232.19 212.16 215.03 229.32 197.87 212.16 197.87 212.16"/>
  <g>
    <path class="cls-8" d="m169.27,106.97c-.55-.43-.58-1.01-.12-1.56l2.15-2.57c.43-.58.97-.58,1.6-.16,1.25.9,2.81,1.44,4.21,1.44,2.03,0,3.51-1.05,3.51-3.28s-1.52-3.43-4.25-3.43h-1.52c-.7,0-1.17-.39-1.17-1.13v-1.05c0-.58.12-.97.51-1.37l5.54-6.55h-8.74c-.7,0-1.09-.39-1.09-1.13v-3.35c0-.7.39-1.13,1.09-1.13h15.68c.7,0,1.09.43,1.09,1.13v2.85c0,.58-.16.98-.51,1.4l-5.65,6.71c4.29.66,6.67,3.39,6.67,7.53,0,5.3-4.45,8.39-9.98,8.39-3.39,0-6.71-1.01-9.01-2.73Z"/>
    <path class="cls-8" d="m192.91,107.82v-5.11c0-.7.43-1.13,1.13-1.13h5.5c.7,0,1.13.43,1.13,1.13v5.11c0,.7-.43,1.13-1.13,1.13h-5.5c-.7,0-1.13-.43-1.13-1.13Z"/>
    <path class="cls-8" d="m222.9,104.47v3.35c0,.7-.43,1.13-1.13,1.13h-15.95c-.74,0-1.13-.43-1.13-1.13v-3.35c0-.74.39-1.13,1.13-1.13h4.95v-13.88l-3.9,2.18c-.62.35-1.13.19-1.56-.31l-2.26-2.69c-.47-.62-.39-1.17.27-1.56l8.5-4.99c.47-.27.9-.39,1.4-.39h3.71c.7,0,1.09.43,1.09,1.13v20.51h3.74c.7,0,1.13.39,1.13,1.13Z"/>
    <path class="cls-8" d="m226.92,88.52c0-4.49,2.73-7.22,7.22-7.22s7.21,2.73,7.21,7.22-2.73,7.21-7.21,7.21-7.22-2.77-7.22-7.21Zm9.52,20.44h-3.67c-.9,0-1.21-.58-.7-1.37l17.28-25.19c.31-.51.74-.7,1.33-.7h3.67c.9,0,1.25.58.7,1.37l-17.24,25.19c-.35.51-.78.7-1.37.7Zm-.31-20.44c0-1.91-.7-2.96-1.99-2.96s-1.99,1.05-1.99,2.96.7,2.92,1.99,2.92,1.99-1.05,1.99-2.92Zm9.59,13.61c0-4.49,2.73-7.22,7.22-7.22s7.21,2.73,7.21,7.22-2.73,7.25-7.21,7.25-7.22-2.77-7.22-7.25Zm9.2,0c0-1.87-.7-2.92-1.99-2.92s-1.99,1.05-1.99,2.92.7,2.96,1.99,2.96,1.99-1.05,1.99-2.96Z"/>
    <path class="cls-8" d="m170.4,120.78v-1.33c0-.29.16-.46.46-.46h2.19c.29,0,.46.18.46.46v1.33c0,.3-.18.46-.46.46h-2.19c-.3,0-.46-.16-.46-.46Zm.02,9.72v-7.81c0-.29.18-.45.46-.45h2.16c.29,0,.45.16.45.45v7.81c0,.29-.16.46-.45.46h-2.16c-.29,0-.46-.18-.46-.46Z"/>
    <path class="cls-8" d="m182.72,124.59v5.91c0,.29-.18.46-.46.46h-2.16c-.29,0-.45-.18-.45-.46v-5.38c0-.51-.24-.8-.64-.8s-.78.3-1.02.82v5.36c0,.29-.18.46-.46.46h-2.15c-.3,0-.46-.18-.46-.46v-7.81c0-.29.16-.45.46-.45h2.02c.29,0,.46.16.46.45v.61c.51-.85,1.5-1.38,2.43-1.38,1.47,0,2.43,1.09,2.43,2.67Z"/>
    <path class="cls-8" d="m186.59,130.44l2.77-10.28c.06-.26.26-.4.53-.4h3.47c.27,0,.46.14.53.4l2.75,10.28c.08.3-.06.51-.4.51h-2.37c-.27,0-.45-.13-.51-.42l-.37-1.78h-2.77l-.35,1.78c-.06.29-.24.42-.51.42h-2.37c-.32,0-.48-.19-.4-.51Zm5.99-3.92l-.94-4.61h-.03l-.94,4.61h1.92Z"/>
    <path class="cls-8" d="m205.47,126.6c0,2.9-1.3,4.66-3.43,4.66-.7,0-1.44-.3-1.97-.82v3.67c0,.3-.18.46-.46.46h-2.15c-.3,0-.46-.16-.46-.46v-11.43c0-.29.16-.45.46-.45h2.02c.29,0,.46.16.46.45v.59c.51-.83,1.5-1.34,2.5-1.34,1.89,0,3.03,1.76,3.03,4.67Zm-3.15-.03c0-1.46-.38-2.26-1.09-2.26-.46,0-.88.27-1.15.78v2.99c.27.5.67.78,1.14.78.72,0,1.1-.82,1.1-2.3Z"/>
    <path class="cls-8" d="m212.45,122.6l-.3,2.08c-.05.3-.22.42-.48.37-.14-.03-.29-.05-.43-.05-.72,0-1.31.48-1.57,1.23v4.26c0,.29-.18.46-.46.46h-2.15c-.3,0-.46-.18-.46-.46v-7.81c0-.29.16-.45.46-.45h2.02c.29,0,.46.16.46.45v.72c.42-.93,1.15-1.49,1.98-1.49.21,0,.45.05.64.11.26.08.32.3.29.58Z"/>
    <path class="cls-8" d="m213.04,120.78v-1.33c0-.29.16-.46.46-.46h2.19c.29,0,.46.18.46.46v1.33c0,.3-.18.46-.46.46h-2.19c-.3,0-.46-.16-.46-.46Zm.02,9.72v-7.81c0-.29.18-.45.46-.45h2.16c.29,0,.45.16.45.45v7.81c0,.29-.16.46-.45.46h-2.16c-.29,0-.46-.18-.46-.46Z"/>
    <path class="cls-8" d="m217.48,130.49v-11.04c0-.29.16-.46.46-.46h2.14c.3,0,.46.18.46.46v11.04c0,.29-.16.46-.46.46h-2.14c-.3,0-.46-.18-.46-.46Z"/>
    <path class="cls-8" d="m232.51,129.11v1.38c0,.29-.18.46-.46.46h-6.63c-.29,0-.46-.18-.46-.46v-1.31c0-.24.08-.4.24-.58,1.7-1.65,4.15-3.75,4.15-5.55,0-.72-.45-1.2-1.1-1.2-.58,0-1.3.32-1.94.88-.24.19-.46.19-.66-.05l-.8-.96c-.18-.21-.19-.43-.02-.64,1.01-1.14,2.4-1.62,3.68-1.62,2.37,0,3.95,1.26,3.95,3.18s-1.28,3.68-3.65,6h3.23c.29,0,.46.16.46.46Z"/>
    <path class="cls-8" d="m242.24,125.37c0,3.83-1.52,5.89-4.4,5.89s-4.4-2.06-4.4-5.89,1.52-5.91,4.4-5.91,4.4,2.06,4.4,5.91Zm-3.14,0c0-2.48-.37-3.46-1.26-3.46s-1.26.98-1.26,3.46.37,3.44,1.26,3.44,1.26-.98,1.26-3.44Z"/>
    <path class="cls-8" d="m250.43,129.11v1.38c0,.29-.18.46-.46.46h-6.63c-.29,0-.46-.18-.46-.46v-1.31c0-.24.08-.4.24-.58,1.7-1.65,4.15-3.75,4.15-5.55,0-.72-.45-1.2-1.1-1.2-.58,0-1.3.32-1.94.88-.24.19-.46.19-.66-.05l-.8-.96c-.18-.21-.19-.43-.02-.64,1.01-1.14,2.4-1.62,3.68-1.62,2.37,0,3.95,1.26,3.95,3.18s-1.28,3.68-3.65,6h3.23c.29,0,.46.16.46.46Z"/>
    <path class="cls-8" d="m255.82,130.49v-1.76h-4.11c-.3,0-.46-.16-.46-.46v-1.25c0-.21.03-.37.11-.56l2.71-6.34c.11-.22.27-.35.54-.35h2.05c.34,0,.5.21.35.54l-2.62,6.15h1.44l.38-1.46c.08-.26.24-.38.51-.38h1.6c.29,0,.45.18.45.46v1.36h.83c.3,0,.46.18.46.46v1.36c0,.3-.16.46-.46.46h-.83v1.76c0,.29-.16.46-.45.46h-2.03c-.3,0-.46-.18-.46-.46Z"/>
  </g>
  <g>
    <path class="cls-8" d="m178.56,278v-4.29h-10.02c-.74,0-1.13-.39-1.13-1.13v-3.04c0-.51.08-.9.27-1.36l6.59-15.45c.27-.55.66-.86,1.33-.86h4.99c.82,0,1.21.51.86,1.33l-6.4,14.98h3.51l.94-3.55c.19-.62.58-.94,1.25-.94h3.9c.7,0,1.09.43,1.09,1.13v3.32h2.03c.74,0,1.13.43,1.13,1.13v3.31c0,.74-.39,1.13-1.13,1.13h-2.03v4.29c0,.7-.39,1.13-1.09,1.13h-4.95c-.74,0-1.13-.43-1.13-1.13Z"/>
    <path class="cls-8" d="m193.3,278v-5.11c0-.7.43-1.13,1.13-1.13h5.5c.7,0,1.13.43,1.13,1.13v5.11c0,.7-.43,1.13-1.13,1.13h-5.5c-.7,0-1.13-.43-1.13-1.13Z"/>
    <path class="cls-8" d="m224.54,270.12c0,6.12-4.52,9.75-10.34,9.75-3.35,0-6.83-1.09-9.09-2.85-.58-.47-.58-1.05-.12-1.6l2.15-2.57c.47-.58,1.01-.58,1.56-.16,1.44,1.05,3.16,1.68,4.56,1.68,2.22,0,3.67-1.37,3.67-4.06,0-2.5-1.33-3.9-3.67-3.9-.9,0-1.75.2-2.5.55-.58.27-1.01.27-1.56.08l-2.26-.94c-.62-.27-.9-.66-.86-1.33l.66-11.82c.04-.74.39-1.09,1.09-1.09h14.2c.7,0,1.13.43,1.13,1.13v3.35c0,.74-.43,1.13-1.13,1.13h-8.58l-.27,4.8c1.29-.58,2.65-.82,3.94-.82,4.49,0,7.41,3.43,7.41,8.66Z"/>
    <path class="cls-8" d="m229.34,258.69c0-4.49,2.73-7.22,7.21-7.22s7.22,2.73,7.22,7.22-2.73,7.21-7.22,7.21-7.21-2.77-7.21-7.21Zm9.52,20.44h-3.67c-.9,0-1.21-.58-.7-1.37l17.28-25.19c.31-.51.74-.7,1.33-.7h3.67c.9,0,1.25.58.7,1.37l-17.24,25.19c-.35.51-.78.7-1.36.7Zm-.31-20.44c0-1.91-.7-2.96-1.99-2.96s-1.99,1.05-1.99,2.96.7,2.92,1.99,2.92,1.99-1.05,1.99-2.92Zm9.59,13.61c0-4.49,2.73-7.22,7.21-7.22s7.22,2.73,7.22,7.22-2.73,7.25-7.22,7.25-7.21-2.77-7.21-7.25Zm9.2,0c0-1.87-.7-2.92-1.99-2.92s-1.99,1.05-1.99,2.92.7,2.96,1.99,2.96,1.99-1.05,1.99-2.96Z"/>
    <path class="cls-8" d="m156.72,290.95v-1.33c0-.29.16-.46.46-.46h2.19c.29,0,.46.18.46.46v1.33c0,.3-.18.46-.46.46h-2.19c-.3,0-.46-.16-.46-.46Zm.02,9.72v-7.81c0-.29.18-.45.46-.45h2.16c.29,0,.45.16.45.45v7.81c0,.29-.16.46-.45.46h-2.16c-.29,0-.46-.18-.46-.46Z"/>
    <path class="cls-8" d="m169.04,294.76v5.91c0,.29-.18.46-.46.46h-2.16c-.29,0-.45-.18-.45-.46v-5.38c0-.51-.24-.8-.64-.8s-.78.3-1.02.82v5.36c0,.29-.18.46-.46.46h-2.15c-.3,0-.46-.18-.46-.46v-7.81c0-.29.16-.45.46-.45h2.02c.29,0,.46.16.46.45v.61c.51-.85,1.5-1.38,2.43-1.38,1.47,0,2.43,1.09,2.43,2.67Z"/>
    <path class="cls-8" d="m173.47,300.59c-.22-.19-.22-.42-.06-.64l.88-1.3c.18-.24.4-.26.66-.08.29.21.61.32.88.32.69,0,1.02-.48,1.02-1.28v-5.23h-2.29c-.29,0-.45-.16-.45-.46v-1.5c0-.29.16-.46.45-.46h5.03c.29,0,.46.18.46.46l-.02,7.11c-.02,2.35-1.58,3.92-3.92,3.92-.96,0-1.97-.34-2.64-.85Z"/>
    <path class="cls-8" d="m188.78,295.03v5.63c0,.29-.16.46-.46.46h-1.89c-.29,0-.45-.18-.45-.46v-.26c-.62.64-1.55,1.02-2.4,1.02-1.54,0-2.56-1.1-2.56-2.75s1.36-2.75,3.39-2.75h1.38v-.5c0-.72-.46-1.02-1.39-1.02-.43,0-.96.11-1.39.3-.26.13-.46.1-.64-.14l-.74-1.02c-.18-.26-.13-.5.13-.64.91-.5,2.13-.82,3.17-.82,2.53,0,3.86,1.01,3.86,2.95Zm-2.99,2.38h-.88c-.56,0-.88.35-.88.99,0,.53.29.85.75.85.4,0,.77-.22,1.01-.62v-1.22Z"/>
    <path class="cls-8" d="m197.93,294.76v5.91c0,.29-.18.46-.46.46h-2.16c-.29,0-.45-.18-.45-.46v-5.38c0-.51-.24-.8-.64-.8s-.78.3-1.02.82v5.36c0,.29-.18.46-.46.46h-2.15c-.3,0-.46-.18-.46-.46v-7.81c0-.29.16-.45.46-.45h2.02c.29,0,.46.16.46.45v.61c.51-.85,1.5-1.38,2.43-1.38,1.47,0,2.43,1.09,2.43,2.67Z"/>
    <path class="cls-8" d="m206.93,292.86v7.81c0,.29-.18.46-.46.46h-1.94c-.29,0-.46-.18-.46-.46v-.59c-.53.86-1.5,1.36-2.43,1.36-1.47,0-2.42-1.06-2.42-2.66v-5.92c0-.29.16-.45.46-.45h2.15c.3,0,.46.16.46.45v5.38c0,.54.22.83.62.83.37,0,.7-.24.93-.67v-5.54c0-.29.18-.45.46-.45h2.16c.29,0,.46.16.46.45Z"/>
    <path class="cls-8" d="m215.66,295.03v5.63c0,.29-.16.46-.46.46h-1.89c-.29,0-.45-.18-.45-.46v-.26c-.62.64-1.55,1.02-2.4,1.02-1.54,0-2.56-1.1-2.56-2.75s1.36-2.75,3.39-2.75h1.38v-.5c0-.72-.46-1.02-1.39-1.02-.43,0-.96.11-1.39.3-.26.13-.46.1-.64-.14l-.74-1.02c-.18-.26-.13-.5.13-.64.91-.5,2.13-.82,3.17-.82,2.53,0,3.86,1.01,3.86,2.95Zm-2.99,2.38h-.88c-.56,0-.88.35-.88.99,0,.53.29.85.75.85.4,0,.77-.22,1.01-.62v-1.22Z"/>
    <path class="cls-8" d="m222.86,292.78l-.3,2.08c-.05.3-.22.42-.48.37-.14-.03-.29-.05-.43-.05-.72,0-1.31.48-1.57,1.23v4.26c0,.29-.18.46-.46.46h-2.15c-.3,0-.46-.18-.46-.46v-7.81c0-.29.16-.45.46-.45h2.02c.29,0,.46.16.46.45v.72c.42-.93,1.15-1.49,1.98-1.49.21,0,.45.05.64.11.26.08.32.3.29.58Z"/>
    <path class="cls-8" d="m231.5,292.92l-2.61,8.58c-.67,2.26-2.22,3.36-5.01,3.54-.29.02-.46-.13-.51-.42l-.18-1.2c-.06-.29.1-.46.4-.51,1.68-.22,2.38-.75,2.62-1.78h-.74c-.26,0-.45-.13-.53-.4l-2.22-7.81c-.08-.3.06-.51.4-.51h2.29c.27,0,.43.11.5.4l1.12,5.7,1.3-5.7c.06-.27.24-.4.51-.4h2.27c.32,0,.48.21.38.51Z"/>
    <path class="cls-8" d="m242.62,299.29v1.38c0,.29-.18.46-.46.46h-6.63c-.29,0-.46-.18-.46-.46v-1.31c0-.24.08-.4.24-.58,1.7-1.65,4.15-3.75,4.15-5.55,0-.72-.45-1.2-1.1-1.2-.58,0-1.3.32-1.94.88-.24.19-.46.19-.66-.05l-.8-.96c-.18-.21-.19-.43-.02-.64,1.01-1.14,2.4-1.62,3.68-1.62,2.37,0,3.95,1.26,3.95,3.18s-1.28,3.68-3.65,6h3.23c.29,0,.46.16.46.46Z"/>
    <path class="cls-8" d="m252.35,295.54c0,3.83-1.52,5.89-4.4,5.89s-4.4-2.06-4.4-5.89,1.52-5.91,4.4-5.91,4.4,2.06,4.4,5.91Zm-3.14,0c0-2.48-.37-3.46-1.26-3.46s-1.26.98-1.26,3.46.37,3.44,1.26,3.44,1.26-.98,1.26-3.44Z"/>
    <path class="cls-8" d="m260.54,299.29v1.38c0,.29-.18.46-.46.46h-6.63c-.29,0-.46-.18-.46-.46v-1.31c0-.24.08-.4.24-.58,1.7-1.65,4.15-3.75,4.15-5.55,0-.72-.45-1.2-1.1-1.2-.58,0-1.3.32-1.94.88-.24.19-.46.19-.66-.05l-.8-.96c-.18-.21-.19-.43-.02-.64,1.01-1.14,2.4-1.62,3.68-1.62,2.37,0,3.95,1.26,3.95,3.18s-1.28,3.68-3.65,6h3.23c.29,0,.46.16.46.46Z"/>
    <path class="cls-8" d="m265.93,300.67v-1.76h-4.11c-.3,0-.46-.16-.46-.46v-1.25c0-.21.03-.37.11-.56l2.71-6.34c.11-.22.27-.35.54-.35h2.05c.34,0,.5.21.35.54l-2.62,6.15h1.44l.38-1.46c.08-.26.24-.38.51-.38h1.6c.29,0,.45.18.45.46v1.36h.83c.3,0,.46.18.46.46v1.36c0,.3-.16.46-.46.46h-.83v1.76c0,.29-.16.46-.45.46h-2.03c-.3,0-.46-.18-.46-.46Z"/>
  </g>
  <g>
    <path class="cls-8" d="m38.96,25.92v12.27c0,4.99-2.9,7.72-8.3,7.72s-8.3-2.73-8.3-7.72v-12.27c0-.52.32-.84.84-.84h4.12c.52,0,.84.32.84.84v12.56c0,2.21.96,3.13,2.49,3.13s2.49-.93,2.49-3.13v-12.56c0-.52.32-.84.84-.84h4.12c.55,0,.84.32.84.84Z"/>
    <path class="cls-8" d="m55.43,33.81v10.7c0,.52-.32.84-.84.84h-3.92c-.52,0-.81-.32-.81-.84v-9.75c0-.93-.44-1.45-1.16-1.45s-1.42.55-1.86,1.48v9.72c0,.52-.32.84-.84.84h-3.89c-.55,0-.84-.32-.84-.84v-14.16c0-.52.29-.81.84-.81h3.65c.52,0,.84.29.84.81v1.1c.93-1.54,2.73-2.49,4.41-2.49,2.67,0,4.41,1.97,4.41,4.84Z"/>
    <path class="cls-8" d="m57.31,37.44c0-5.25,3.02-8.47,8.01-8.47,4.55,0,7.22,2.99,7.22,7.95,0,.46-.03.99-.12,1.51-.06.49-.38.75-.87.75h-8.56c.44,1.65,1.6,2.52,3.45,2.52.84,0,1.89-.23,2.76-.61.49-.2.84-.12,1.16.29l1.19,1.62c.29.44.26.84-.15,1.13-1.57,1.13-3.89,1.77-6.09,1.77-4.99,0-8.01-3.19-8.01-8.47Zm9.86-1.51c-.03-1.94-.78-3.07-2.03-3.07s-2.06,1.04-2.32,3.07h4.35Z"/>
    <path class="cls-8" d="m96.29,33.81v10.7c0,.52-.32.84-.84.84h-3.92c-.52,0-.84-.32-.84-.84v-9.75c0-.93-.35-1.45-1.02-1.45-.58,0-1.13.44-1.51,1.19v10.01c0,.52-.32.84-.84.84h-3.92c-.52,0-.84-.32-.84-.84v-9.75c0-.99-.26-1.45-.9-1.45s-1.22.44-1.65,1.25v9.95c0,.52-.32.84-.84.84h-3.89c-.55,0-.84-.32-.84-.84v-14.16c0-.52.29-.81.84-.81h3.65c.52,0,.84.29.84.81v1.1c.9-1.48,2.67-2.49,4.35-2.49s2.96.93,3.6,2.44c.9-1.45,2.61-2.44,4.21-2.44,2.73,0,4.35,1.83,4.35,4.84Z"/>
    <path class="cls-8" d="m114.07,37.47c0,5.25-2.35,8.44-6.21,8.44-1.28,0-2.61-.55-3.57-1.48v6.64c0,.55-.32.84-.84.84h-3.89c-.55,0-.84-.29-.84-.84v-20.71c0-.52.29-.81.84-.81h3.65c.52,0,.84.29.84.81v1.07c.93-1.51,2.73-2.44,4.52-2.44,3.42,0,5.48,3.19,5.48,8.47Zm-5.71-.06c0-2.64-.7-4.09-1.97-4.09-.84,0-1.6.49-2.09,1.42v5.42c.49.9,1.22,1.42,2.06,1.42,1.31,0,2-1.48,2-4.18Z"/>
    <path class="cls-8" d="m115.98,44.52v-20.02c0-.52.29-.84.84-.84h3.89c.55,0,.84.32.84.84v20.02c0,.52-.29.84-.84.84h-3.89c-.55,0-.84-.32-.84-.84Z"/>
    <path class="cls-8" d="m139.3,37.44c0,5.28-2.99,8.47-7.92,8.47s-7.95-3.19-7.95-8.47,2.99-8.47,7.95-8.47,7.92,3.22,7.92,8.47Zm-5.71,0c0-2.67-.78-4.12-2.2-4.12s-2.23,1.45-2.23,4.12.78,4.15,2.23,4.15,2.2-1.48,2.2-4.15Z"/>
    <path class="cls-8" d="m155.25,30.48l-4.73,15.55c-1.22,4.09-4.03,6.09-9.08,6.41-.52.03-.84-.23-.93-.75l-.32-2.17c-.12-.52.17-.84.73-.93,3.05-.41,4.32-1.36,4.76-3.22h-1.33c-.46,0-.81-.23-.96-.73l-4.03-14.16c-.15-.55.12-.93.73-.93h4.15c.49,0,.78.2.9.72l2.03,10.33,2.35-10.33c.12-.49.44-.72.93-.72h4.12c.58,0,.87.38.7.93Z"/>
    <path class="cls-8" d="m178.02,33.81v10.7c0,.52-.32.84-.84.84h-3.92c-.52,0-.84-.32-.84-.84v-9.75c0-.93-.35-1.45-1.02-1.45-.58,0-1.13.44-1.51,1.19v10.01c0,.52-.32.84-.84.84h-3.92c-.52,0-.84-.32-.84-.84v-9.75c0-.99-.26-1.45-.9-1.45s-1.22.44-1.65,1.25v9.95c0,.52-.32.84-.84.84h-3.89c-.55,0-.84-.32-.84-.84v-14.16c0-.52.29-.81.84-.81h3.65c.52,0,.84.29.84.81v1.1c.9-1.48,2.67-2.49,4.35-2.49s2.96.93,3.6,2.44c.9-1.45,2.61-2.44,4.21-2.44,2.73,0,4.35,1.83,4.35,4.84Z"/>
    <path class="cls-8" d="m179.89,37.44c0-5.25,3.02-8.47,8.01-8.47,4.55,0,7.22,2.99,7.22,7.95,0,.46-.03.99-.12,1.51-.06.49-.38.75-.87.75h-8.56c.44,1.65,1.6,2.52,3.45,2.52.84,0,1.89-.23,2.76-.61.49-.2.84-.12,1.16.29l1.19,1.62c.29.44.26.84-.15,1.13-1.57,1.13-3.89,1.77-6.09,1.77-4.99,0-8.01-3.19-8.01-8.47Zm9.86-1.51c-.03-1.94-.78-3.07-2.03-3.07s-2.06,1.04-2.32,3.07h4.35Z"/>
    <path class="cls-8" d="m211.19,33.81v10.7c0,.52-.32.84-.84.84h-3.92c-.52,0-.81-.32-.81-.84v-9.75c0-.93-.44-1.45-1.16-1.45s-1.42.55-1.86,1.48v9.72c0,.52-.32.84-.84.84h-3.89c-.55,0-.84-.32-.84-.84v-14.16c0-.52.29-.81.84-.81h3.65c.52,0,.84.29.84.81v1.1c.93-1.54,2.73-2.49,4.41-2.49,2.67,0,4.41,1.97,4.41,4.84Z"/>
    <path class="cls-8" d="m214.46,40.42v-6.9h-1.22c-.52,0-.81-.29-.81-.84v-1.71c0-.46.2-.81.67-.96l.55-.12c.52-.2.84-.38.99-1.3l.26-1.65c.09-.52.41-.75.93-.75h3.39c.52,0,.81.32.81.84v2.52h2.75c.55,0,.84.29.84.81v2.32c0,.55-.29.84-.84.84h-2.75v6.41c0,1.16.49,1.62,1.39,1.62.35,0,.73-.09,1.22-.2.55-.15.93.06,1.01.61l.35,2.35c.09.52-.2.9-.78,1.07-1.16.35-2.23.52-3.25.52-3.25,0-5.51-1.83-5.51-5.48Z"/>
    <path class="cls-8" d="m231.63,26.91v-2.41c0-.52.29-.84.84-.84h3.97c.52,0,.84.32.84.84v2.41c0,.55-.32.84-.84.84h-3.97c-.55,0-.84-.29-.84-.84Zm.03,17.61v-14.16c0-.52.32-.81.84-.81h3.92c.52,0,.81.29.81.81v14.16c0,.52-.29.84-.81.84h-3.92c-.52,0-.84-.32-.84-.84Z"/>
    <path class="cls-8" d="m253.96,33.81v10.7c0,.52-.32.84-.84.84h-3.92c-.52,0-.81-.32-.81-.84v-9.75c0-.93-.44-1.45-1.16-1.45s-1.42.55-1.86,1.48v9.72c0,.52-.32.84-.84.84h-3.89c-.55,0-.84-.32-.84-.84v-14.16c0-.52.29-.81.84-.81h3.66c.52,0,.84.29.84.81v1.1c.93-1.54,2.73-2.49,4.41-2.49,2.67,0,4.41,1.97,4.41,4.84Z"/>
    <path class="cls-8" d="m263.7,40.42v-6.9h-1.22c-.52,0-.81-.29-.81-.84v-1.71c0-.46.2-.81.67-.96l.55-.12c.52-.2.84-.38.99-1.3l.26-1.65c.09-.52.41-.75.93-.75h3.39c.52,0,.81.32.81.84v2.52h2.76c.55,0,.84.29.84.81v2.32c0,.55-.29.84-.84.84h-2.76v6.41c0,1.16.49,1.62,1.39,1.62.35,0,.72-.09,1.22-.2.55-.15.93.06,1.02.61l.35,2.35c.09.52-.2.9-.78,1.07-1.16.35-2.23.52-3.25.52-3.25,0-5.51-1.83-5.51-5.48Z"/>
    <path class="cls-8" d="m288.59,33.81v10.7c0,.52-.32.84-.84.84h-3.92c-.52,0-.81-.32-.81-.84v-9.75c0-.99-.38-1.45-1.19-1.45-.67,0-1.36.44-1.83,1.28v9.92c0,.52-.32.84-.84.84h-3.89c-.55,0-.84-.32-.84-.84v-20.02c0-.52.29-.84.84-.84h3.89c.52,0,.84.32.84.84v6.61c1.01-1.33,2.58-2.15,4.18-2.15,2.78,0,4.41,1.83,4.41,4.84Z"/>
    <path class="cls-8" d="m290.47,37.44c0-5.25,3.02-8.47,8.01-8.47,4.55,0,7.22,2.99,7.22,7.95,0,.46-.03.99-.12,1.51-.06.49-.38.75-.87.75h-8.56c.44,1.65,1.6,2.52,3.45,2.52.84,0,1.89-.23,2.76-.61.49-.2.84-.12,1.16.29l1.19,1.62c.29.44.26.84-.15,1.13-1.57,1.13-3.89,1.77-6.09,1.77-4.99,0-8.01-3.19-8.01-8.47Zm9.86-1.51c-.03-1.94-.78-3.07-2.03-3.07s-2.06,1.04-2.32,3.07h4.35Z"/>
    <path class="cls-8" d="m330.55,25.92v18.59c0,.52-.29.84-.81.84h-4.15c-.52,0-.84-.32-.84-.84v-7.54h-4.81v7.54c0,.52-.32.84-.84.84h-4.12c-.52,0-.84-.32-.84-.84v-18.59c0-.52.32-.84.84-.84h4.12c.52,0,.84.32.84.84v6.73h4.81v-6.73c0-.52.32-.84.84-.84h4.15c.52,0,.81.32.81.84Z"/>
    <path class="cls-8" d="m347.02,30.36v14.16c0,.52-.32.84-.84.84h-3.51c-.52,0-.84-.32-.84-.84v-1.07c-.96,1.57-2.73,2.46-4.41,2.46-2.67,0-4.38-1.91-4.38-4.81v-10.73c0-.52.29-.81.84-.81h3.89c.55,0,.84.29.84.81v9.75c0,.99.41,1.51,1.13,1.51.67,0,1.28-.43,1.68-1.22v-10.04c0-.52.32-.81.84-.81h3.92c.52,0,.84.29.84.81Z"/>
    <path class="cls-8" d="m363.7,33.81v10.7c0,.52-.32.84-.84.84h-3.92c-.52,0-.81-.32-.81-.84v-9.75c0-.93-.44-1.45-1.16-1.45s-1.42.55-1.86,1.48v9.72c0,.52-.32.84-.84.84h-3.89c-.55,0-.84-.32-.84-.84v-14.16c0-.52.29-.81.84-.81h3.65c.52,0,.84.29.84.81v1.1c.93-1.54,2.73-2.49,4.41-2.49,2.67,0,4.41,1.97,4.41,4.84Z"/>
    <path class="cls-8" d="m366.97,40.42v-6.9h-1.22c-.52,0-.81-.29-.81-.84v-1.71c0-.46.2-.81.67-.96l.55-.12c.52-.2.84-.38.99-1.3l.26-1.65c.09-.52.41-.75.93-.75h3.39c.52,0,.81.32.81.84v2.52h2.76c.55,0,.84.29.84.81v2.32c0,.55-.29.84-.84.84h-2.76v6.41c0,1.16.49,1.62,1.39,1.62.35,0,.73-.09,1.22-.2.55-.15.93.06,1.01.61l.35,2.35c.09.52-.2.9-.78,1.07-1.16.35-2.23.52-3.25.52-3.25,0-5.51-1.83-5.51-5.48Z"/>
    <path class="cls-8" d="m376.86,37.44c0-5.25,3.02-8.47,8.01-8.47,4.55,0,7.22,2.99,7.22,7.95,0,.46-.03.99-.12,1.51-.06.49-.38.75-.87.75h-8.56c.44,1.65,1.6,2.52,3.45,2.52.84,0,1.89-.23,2.76-.61.49-.2.84-.12,1.16.29l1.19,1.62c.29.44.26.84-.15,1.13-1.57,1.13-3.89,1.77-6.09,1.77-4.99,0-8.01-3.19-8.01-8.47Zm9.86-1.51c-.03-1.94-.78-3.07-2.03-3.07s-2.06,1.04-2.32,3.07h4.35Z"/>
    <path class="cls-8" d="m404.61,30.21l-.55,3.77c-.09.55-.41.75-.87.67-.26-.06-.52-.09-.78-.09-1.31,0-2.38.87-2.84,2.23v7.72c0,.52-.32.84-.84.84h-3.89c-.55,0-.84-.32-.84-.84v-14.16c0-.52.29-.81.84-.81h3.66c.52,0,.84.29.84.81v1.31c.75-1.68,2.09-2.7,3.6-2.7.38,0,.81.09,1.16.2.46.14.58.55.52,1.04Z"/>
  </g>
  <g class="cls-10">
    <g class="cls-1">
      <path class="cls-2" d="m90.99,392.68c1.53.35,4.69,5.46,4.69,5.46,0,0,1,.59,14.78,5.69,12.44,3.87,16.31,12.73,17.36,19.07,1.41,4.87-1.06,6.75-5.69,6.75H34.61c-4.52,0-6.57-1.88-6.1-6.34,1-6.22,4.63-15.55,17.31-19.48,13.55-5.1,14.55-5.69,14.55-5.69,0,0,3.23-5.1,4.63-5.46,1.53-.29.29-2.35,0-2.87-1.23-2.87-3.7-5.16-4.58-9.68-.88-4.46-1.06-8.15-1.47-14.26.12-1.17-.23-2.82-.59-5.34-1.11.47-2.17,1.17-3.05,2.29-4.4-13.85,9.86-24.87,11.26-25.11,2.99-1.7,6.69-2.82,11.03-2.93h.65c.76,0,1.47.12,2.17.18h0c-.59-2.11-10.03-2.52-12.2,1.41.23-5.93,7.45-6.75,9.56-6.75,24.4,0,26.93,21.71,26.93,38.49s9.86,22.7,9.86,22.7c-10.44-.94-20.36-3.4-20.24-5.1v-4.58c3.05-1.7,5.34-5.63,5.34-5.63,0,0-.82.29-2.05.41-.88,2.93-2.7,3.87-3.64,3.87-1.23,0-.94.18-.94,2.58,0,7.39-1.88,6.81-2.17,7.39-.18.53-1.47,2.58,0,2.87h0l.12.06h0Z"/>
    </g>
  </g>
  <g class="cls-11">
    <g class="cls-13">
      <path class="cls-2" d="m259.75,429.52h-87.8c-4.16,0-6.03-2.17-5.68-6.26.94-6.56,4.57-16.39,17.5-20.6,13.75-5.33,14.81-5.85,14.81-5.85,0,0,3.16-5.33,4.68-5.68,1.52-.35.23-2.46,0-2.99-.23-.64-2.11,0-2.11-7.67,0-2.52.35-2.75-.94-2.75s-4.1-1.76-4.1-7.9,0-6.44,1.05-6.61c.18-2.34-1.11-6.15-1.11-14.75s6.79-16.68,19.84-16.68c3.8,0,7.02-1.81,10.59-2.05.47,1.11,1,2.99,1.76,3.45,2.69,1.81,6.38,6.32,7.67,15.28,0,8.6-1.35,12.41-1.17,14.75,1.05.18,1.05.41,1.05,6.61s-2.87,7.9-4.1,7.9-.94.18-.94,2.75c0,7.67-1.87,7.08-2.11,7.67-.23.59-1.46,2.69,0,2.99,1.46.35,4.68,5.68,4.68,5.68,0,0,1,.59,14.69,5.85,13.05,4.27,16.62,14.22,17.5,20.78.23,4.21-1.05,6.09-5.85,6.09h.09Z"/>
    </g>
  </g>
  <g class="cls-9">
    <g class="cls-12">
      <path class="cls-2" d="m365.5,391.64c1.46.29,4.8,5.56,4.8,5.56,0,0,.99.59,15.03,5.79,13.22,4.15,16.91,13.86,17.84,20.3.64,5.03-1.05,6.2-5.73,6.2h-88.1c-3.22,0-6.26-1.35-5.79-6.2.94-6.43,4.5-16.15,17.14-20.3,13.51-5.21,14.45-5.79,14.45-5.79,0,0,3.16-5.26,4.62-5.56,1.46-.35.23-2.4,0-2.98-.18-.47-1.35-.23-1.87-3.57-1.81,2.57-6.49,2.28-19.89,2.11,12.05-4.86,9.24-11.29,12.23-35.51,2.81-21.88,19.01-22.11,22.11-21.94,3.28-.18,20.18,0,23.05,21.94,3.16,24.22.18,30.65,12.75,35.51-13.98.18-18.84.47-20.71-2.11-.58,3.33-1.75,3.1-1.93,3.57-.23.59-1.52,2.63,0,2.98h0Z"/>
    </g>
  </g>
</svg>