<svg class="main-svg" xmlns="http://www.w3.org/2000/svg" xmlns:xlink="http://www.w3.org/1999/xlink" width="800" height="600" style="" viewBox="0 0 800 600"><rect x="0" y="0" width="800" height="600" style="fill: rgb(255, 255, 255); fill-opacity: 1;"/><defs id="defs-54be50"><g class="clips"><clipPath id="clip54be50xyplot" class="plotclip"><rect width="620" height="564"/></clipPath><clipPath class="axesclip" id="clip54be50x"><rect x="45" y="0" width="620" height="600"/></clipPath><clipPath class="axesclip" id="clip54be50y"><rect x="0" y="20" width="800" height="564"/></clipPath><clipPath class="axesclip" id="clip54be50xy"><rect x="45" y="20" width="620" height="564"/></clipPath></g><g class="gradients"/><g class="patterns"/></defs><g class="bglayer"/><g class="layer-below"><g class="imagelayer"/><g class="shapelayer"/></g><g class="cartesianlayer"><g class="subplot xy"><g class="layer-subplot"><g class="shapelayer"/><g class="imagelayer"/></g><g class="minor-gridlayer"><g class="x"/><g class="y"/></g><g class="gridlayer"><g class="x"><path class="xgrid crisp" transform="translate(72.35,0)" d="M0,20v564" style="stroke: rgb(235, 240, 248); stroke-opacity: 1; stroke-width: 1px;"/><path class="xgrid crisp" transform="translate(198.52,0)" d="M0,20v564" style="stroke: rgb(235, 240, 248); stroke-opacity: 1; stroke-width: 1px;"/><path class="xgrid crisp" transform="translate(324.61,0)" d="M0,20v564" style="stroke: rgb(235, 240, 248); stroke-opacity: 1; stroke-width: 1px;"/><path class="xgrid crisp" transform="translate(450.71,0)" d="M0,20v564" style="stroke: rgb(235, 240, 248); stroke-opacity: 1; stroke-width: 1px;"/><path class="xgrid crisp" transform="translate(576.81,0)" d="M0,20v564" style="stroke: rgb(235, 240, 248); stroke-opacity: 1; stroke-width: 1px;"/></g><g class="y"><path class="ygrid crisp" transform="translate(0,546.13)" d="M45,0h620" style="stroke: rgb(235, 240, 248); stroke-opacity: 1; stroke-width: 1px;"/><path class="ygrid crisp" transform="translate(0,476.11)" d="M45,0h620" style="stroke: rgb(235, 240, 248); stroke-opacity: 1; stroke-width: 1px;"/><path class="ygrid crisp" transform="translate(0,406.1)" d="M45,0h620" style="stroke: rgb(235, 240, 248); stroke-opacity: 1; stroke-width: 1px;"/><path class="ygrid crisp" transform="translate(0,336.08)" d="M45,0h620" style="stroke: rgb(235, 240, 248); stroke-opacity: 1; stroke-width: 1px;"/><path class="ygrid crisp" transform="translate(0,266.07)" d="M45,0h620" style="stroke: rgb(235, 240, 248); stroke-opacity: 1; stroke-width: 1px;"/><path class="ygrid crisp" transform="translate(0,196.05)" d="M45,0h620" style="stroke: rgb(235, 240, 248); stroke-opacity: 1; stroke-width: 1px;"/><path class="ygrid crisp" transform="translate(0,126.04)" d="M45,0h620" style="stroke: rgb(235, 240, 248); stroke-opacity: 1; stroke-width: 1px;"/><path class="ygrid crisp" transform="translate(0,56.03)" d="M45,0h620" style="stroke: rgb(235, 240, 248); stroke-opacity: 1; stroke-width: 1px;"/></g></g><g class="zerolinelayer"/><path class="xlines-below"/><path class="ylines-below"/><g class="overlines-below"/><g class="xaxislayer-below"/><g class="yaxislayer-below"/><g class="overaxes-below"/><g class="plot" transform="translate(45,20)" clip-path="url(#clip54be50xyplot)"><g class="scatterlayer mlayer"><g class="trace scatter trace55b6e8" style="stroke-miterlimit: 2; opacity: 1;"><g class="fills"/><g class="errorbars"/><g class="lines"><path class="js-line" d="M0,470.97L4.28,491.72L6.22,504.89L8.36,512.03L10.43,513.27L14.64,485.6L16.78,481.79L18.92,483.29L20.99,487.89L23.13,476.85L25.21,460.2L27.35,456.11L29.49,458.3L31.49,465.74L33.63,457.53L35.7,451.8L37.84,453.52L39.92,453.43L42.06,461.61L46.27,481.04L48.41,483.25L50.48,479.05L52.62,480.16L54.76,471.38L56.7,470.92L58.84,470.39L60.91,474.01L63.05,477.65L65.12,478.35L67.26,488.58L69.4,482.56L71.47,482.85L73.62,471.93L77.83,458.61L79.97,466.57L84.04,487.83L86.11,498.65L88.26,514.79L90.33,514.06L92.47,502.72L94.61,483.64L96.68,484.74L98.82,477.94L100.89,482.55L103.03,484.94L107.11,473.62L109.25,464.27L113.46,481.69L115.53,487.62L117.67,488.36L119.82,473.62L124.03,441.03L126.1,443.38L128.24,449.85L130.38,443.44L132.38,432.63L134.52,428.93L138.74,443.64L140.81,431.95L145.09,408.88L147.16,406.13L149.3,410.18L151.37,408.61L153.52,405.32L155.66,394.21L157.59,394.25L159.73,400.76L161.8,415.52L163.94,420.39L166.01,423.64L168.16,413.62L170.3,405.47L172.37,412.78L174.51,406.05L176.58,414.05L178.72,387.09L180.86,387.21L182.8,383.56L184.94,401.88L187.01,408.52L189.15,405.14L191.22,390.81L193.36,395.38L195.5,381.8L197.57,384.56L199.71,373.01L201.79,372.62L203.93,370.37L206.07,371.36L208,371.36L210.14,366.33L212.21,369.02L214.36,383.67L216.43,395.15L218.57,394.44L220.71,368.18L222.78,360.87L224.92,345.66L226.99,353.84L229.13,340.52L231.27,332.48L233.28,314.44L235.42,321.11L237.49,325.87L239.63,343.47L241.7,349L243.84,362.63L245.98,359.28L248.06,345.1L250.2,333.84L252.27,332.71L254.41,346.2L256.55,337.81L258.48,335.24L260.62,324.33L262.7,325.64L264.84,327.9L266.91,324.02L269.05,316.19L271.19,299.02L273.26,303.85L275.4,322L277.47,348.17L279.61,349.61L281.76,343.31L283.69,335.05L285.83,336.2L290.04,320.08L292.11,298.68L296.4,268.16L298.47,277.96L302.68,302.72L304.82,303.9L306.96,305.92L308.9,325.5L313.11,342.86L315.25,340.56L321.6,292.79L323.67,295.86L325.81,290.46L327.89,282.83L330.03,279.1L332.17,273.81L336.31,285.62L338.38,287.81L340.52,290.32L342.6,279.61L344.74,294.39L346.88,298.01L348.95,313.99L351.09,312.74L353.16,319.68L355.3,314.08L357.44,308.12L359.38,314.04L363.59,326.14L365.73,322.37L367.8,328.05L369.94,338.2L374.15,305L376.3,294.89L378.37,305.32L380.51,310.32L382.65,297.3L384.58,296.75L386.72,298.92L388.79,310.47L390.94,334.31L393.01,347.56L395.15,356.07L397.29,347.95L399.36,343.88L401.5,344.97L403.57,337.91L405.71,341.59L407.85,342.54L409.79,359.85L411.93,370.63L414,364.83L416.14,349.25L418.21,326.69L420.35,329.37L422.49,328.9L424.57,323.52L426.71,306.98L428.78,288.7L430.92,288.55L433.06,307.07L435.06,339.74L439.28,355.41L441.42,332.38L443.49,328.76L445.63,338.13L447.77,351.24L449.84,351.45L454.05,313.99L456.2,313.61L458.34,302.59L460.27,307.11L462.41,304.94L464.48,289.7L468.69,264.23L470.84,286.77L472.98,292.56L475.05,282.07L479.26,246.03L481.4,247.35L487.62,218.75L489.69,218.07L491.83,232.37L493.9,226.95L498.18,228.57L500.25,235.45L502.39,231.45L504.47,236.32L508.75,217.62L510.68,206.11L512.82,215.16L514.89,217.05L517.03,211.28L519.11,186.23L523.39,162.19L525.46,169.12L527.6,165.12L529.67,147.9L531.81,140.69L533.95,145.65L535.96,168.48L538.1,179.02L544.38,240.95L546.52,251.23L548.66,254.8L550.74,267.86L552.88,266.74L554.95,257.54L557.09,245.27L559.23,225.82L561.16,223.83L563.3,230.3L565.38,222.27L567.52,210.03L569.59,180.79L571.73,177.64L573.87,170.65L575.94,183.57L578.08,193.27L580.15,182.49L582.29,176.61L584.44,152.37L586.37,152.9L588.51,143.1L590.58,137.04L592.72,117.69L594.79,108.95L596.93,107.28L599.08,105.34L601.15,88.75L603.29,82.8L605.36,72.98L607.5,77.39L609.64,67.55L611.57,60.8L613.72,45.49L615.79,30.84L617.93,32.54L620,28.2" style="vector-effect: non-scaling-stroke; fill: none; stroke: rgb(128, 0, 128); stroke-opacity: 1; stroke-width: 2px; opacity: 1;"/></g><g class="points"/><g class="text"/></g><g class="trace scatter trace4af525" style="stroke-miterlimit: 2; opacity: 1;"><g class="fills"/><g class="errorbars"/><g class="lines"><path class="js-line" d="M0,478.46L2.14,479.51L4.28,477.72L6.22,481.52L8.36,481.8L10.43,481.99L12.57,480.4L14.64,474.71L16.78,474.44L18.92,470.03L20.99,468.22L25.21,455.82L27.35,456.11L29.49,456.29L31.49,461.17L37.84,454.64L39.92,450.44L42.06,450.65L44.2,447.98L46.27,452.93L48.41,452.86L52.62,454.71L54.76,454.41L56.7,456.77L58.84,456.14L63.05,459.34L65.12,459.68L67.26,464.05L69.4,461.91L71.47,464.3L73.62,462.78L75.69,462.08L77.83,458.65L79.97,454.61L81.9,457.78L84.04,463.35L86.11,464.84L88.26,468.15L90.33,462.81L92.47,464.67L94.61,457.07L96.68,460.16L98.82,457.45L100.89,455.96L103.03,452.19L105.17,448.88L107.11,453.32L113.46,466.2L115.53,464.26L117.67,463.47L119.82,455.66L121.89,452.38L124.03,447.58L128.24,442.09L130.38,441.59L138.74,454.48L140.81,452.93L142.95,454.52L145.09,446.72L147.16,447.72L149.3,444.47L151.37,445.39L153.52,444.47L155.66,439.7L157.59,444.34L159.73,441.74L161.8,445.54L163.94,441.6L166.01,442.24L168.16,443.08L170.3,441.06L172.37,443.19L174.51,439.04L176.58,436.43L178.72,430.74L180.86,428.04L182.8,432.21L187.01,436.71L189.15,437.27L191.22,434.35L193.36,435.15L195.5,428.47L197.57,428.78L199.71,425.28L201.79,423.62L203.93,421.24L206.07,417.18L208,421.12L210.14,421.13L214.36,420.07L216.43,416.94L218.57,418.79L220.71,412.2L222.78,411.01L224.92,404.85L231.27,391.95L233.28,391.08L235.42,389.53L237.49,391.31L239.63,393.86L241.7,392.46L243.84,394.22L245.98,389.85L248.06,394.63L250.2,394.11L252.27,396.58L254.41,392.89L256.55,391.03L258.48,397.1L262.7,407.58L264.84,409.82L266.91,407.45L269.05,411.09L271.19,407.22L273.26,412.1L279.61,405.94L281.76,405.22L283.69,409.11L285.83,408.64L290.04,407.78L292.11,405.91L294.25,403.56L296.4,391.82L298.47,388.82L300.61,382.04L302.68,381.22L304.82,378.63L306.96,377.99L308.9,381.73L311.04,383.94L313.11,390.37L315.25,394.22L317.32,393.15L319.46,394.22L321.6,389.05L323.67,390.05L325.81,385.01L327.89,383.04L330.03,378.67L332.17,374.7L334.17,376.55L336.31,379.41L338.38,380.04L340.52,383.87L342.6,381.67L344.74,387.95L346.88,378.16L348.95,376.62L351.09,369.13L353.16,369.7L355.3,368.36L357.44,364.74L359.38,366.39L361.52,363.62L363.59,366.18L367.8,374.26L369.94,379.27L372.08,376.56L374.15,381.42L376.3,380.53L378.37,382.85L380.51,380.95L382.65,376.36L384.58,374.67L386.72,370.31L390.94,372.72L393.01,368.97L395.15,369.96L397.29,368.54L399.36,375.02L401.5,374.85L403.57,370.91L405.71,369.65L407.85,363.11L409.79,362.21L411.93,357.55L414,357.98L416.14,355.01L418.21,346.68L422.49,342.36L424.57,341.95L428.78,322.39L430.92,323.44L433.06,324.63L435.06,334.48L437.2,333.38L439.28,337.48L441.42,337.03L443.49,340.06L445.63,345.33L447.77,348.23L449.84,346.81L451.98,342.08L454.05,335.75L456.2,338.48L458.34,335.01L460.27,337.53L462.41,334.83L464.48,333.43L466.62,327.99L468.69,319.59L470.84,317.47L472.98,314.21L475.05,311.69L477.19,305.51L479.26,297.9L481.4,299.61L483.54,298.9L485.48,305.21L487.62,300.92L489.69,303.12L498.18,295.9L500.25,295.24L504.47,285.73L506.61,283.81L508.75,282.54L510.68,282.85L514.89,281.11L517.03,276.06L519.11,269.46L521.25,268.84L523.39,267.45L525.46,270.97L529.67,264.33L531.81,262.74L533.95,259.27L535.96,261.62L538.1,270.98L540.17,288.69L542.31,303.63L544.38,304.49L548.66,298.78L550.74,300.13L552.88,293.99L554.95,285.52L559.23,277.49L561.16,280.36L565.38,278.62L567.52,272.54L569.59,264.18L571.73,273.84L575.94,294.94L578.08,283.83L580.15,269.52L582.29,260.95L584.44,254.57L586.37,255.65L592.72,232.31L594.79,228.04L596.93,226.37L599.08,226.46L605.36,202.08L607.5,205.61L609.64,201.95L611.57,206.67L613.72,200.08L615.79,197.9L617.93,191.35L620,188.49" style="vector-effect: non-scaling-stroke; fill: none; stroke: rgb(0, 0, 128); stroke-opacity: 1; stroke-width: 2px; opacity: 1;"/></g><g class="points"/><g class="text"/></g><g class="trace scatter trace6130b9" style="stroke-miterlimit: 2; opacity: 1;"><g class="fills"/><g class="errorbars"/><g class="lines"><path class="js-line" d="M0,535.8L18.92,512.15L20.99,509.71L39.92,488.64L42.06,486.39L60.91,467.76L63.05,465.77L81.9,449.3L84.04,447.54L105.17,431.39L107.11,430.01L128.24,415.98L130.38,414.66L151.37,402.58L153.52,401.44L178.72,388.98L180.86,388L208,376.56L210.14,375.72L243.84,363.49L245.98,362.77L317.32,339.54L319.46,338.83L357.44,325.3L359.38,324.56L388.79,312.28L390.94,311.31L416.14,298.91L418.21,297.81L441.42,284.45L443.49,283.16L464.48,269.13L466.62,267.59L485.48,253.17L487.62,251.42L506.61,234.93L508.75,232.95L527.6,214.41L529.67,212.25L548.66,191.21L550.74,188.78L569.59,165.34L571.73,162.52L590.58,136.32L592.72,133.18L611.57,104.01L613.72,100.53L620,90.07" style="vector-effect: non-scaling-stroke; fill: none; stroke: rgb(186, 85, 211); stroke-opacity: 1; stroke-width: 2px; opacity: 1;"/></g><g class="points"/><g class="text"/></g></g></g><g class="overplot"/><path class="xlines-above crisp" d="M0,0" style="fill: none;"/><path class="ylines-above crisp" d="M0,0" style="fill: none;"/><g class="overlines-above"/><g class="xaxislayer-above"><g class="xtick"><text text-anchor="middle" x="0" y="597" transform="translate(72.35,0)" style="font-family: 'Open Sans', verdana, arial, sans-serif; font-size: 12px; fill: rgb(42, 63, 95); fill-opacity: 1; white-space: pre; opacity: 1;">2000</text></g><g class="xtick"><text text-anchor="middle" x="0" y="597" style="font-family: 'Open Sans', verdana, arial, sans-serif; font-size: 12px; fill: rgb(42, 63, 95); fill-opacity: 1; white-space: pre; opacity: 1;" transform="translate(198.52,0)">2005</text></g><g class="xtick"><text text-anchor="middle" x="0" y="597" style="font-family: 'Open Sans', verdana, arial, sans-serif; font-size: 12px; fill: rgb(42, 63, 95); fill-opacity: 1; white-space: pre; opacity: 1;" transform="translate(324.61,0)">2010</text></g><g class="xtick"><text text-anchor="middle" x="0" y="597" style="font-family: 'Open Sans', verdana, arial, sans-serif; font-size: 12px; fill: rgb(42, 63, 95); fill-opacity: 1; white-space: pre; opacity: 1;" transform="translate(450.71,0)">2015</text></g><g class="xtick"><text text-anchor="middle" x="0" y="597" style="font-family: 'Open Sans', verdana, arial, sans-serif; font-size: 12px; fill: rgb(42, 63, 95); fill-opacity: 1; white-space: pre; opacity: 1;" transform="translate(576.81,0)">2020</text></g></g><g class="yaxislayer-above"><g class="ytick"><text text-anchor="end" x="44" y="4.199999999999999" transform="translate(0,546.13)" style="font-family: 'Open Sans', verdana, arial, sans-serif; font-size: 12px; fill: rgb(42, 63, 95); fill-opacity: 1; white-space: pre; opacity: 1;">0.9</text></g><g class="ytick"><text text-anchor="end" x="44" y="4.199999999999999" style="font-family: 'Open Sans', verdana, arial, sans-serif; font-size: 12px; fill: rgb(42, 63, 95); fill-opacity: 1; white-space: pre; opacity: 1;" transform="translate(0,476.11)">1</text></g><g class="ytick"><text text-anchor="end" x="44" y="4.199999999999999" style="font-family: 'Open Sans', verdana, arial, sans-serif; font-size: 12px; fill: rgb(42, 63, 95); fill-opacity: 1; white-space: pre; opacity: 1;" transform="translate(0,406.1)">1.1</text></g><g class="ytick"><text text-anchor="end" x="44" y="4.199999999999999" style="font-family: 'Open Sans', verdana, arial, sans-serif; font-size: 12px; fill: rgb(42, 63, 95); fill-opacity: 1; white-space: pre; opacity: 1;" transform="translate(0,336.08)">1.2</text></g><g class="ytick"><text text-anchor="end" x="44" y="4.199999999999999" style="font-family: 'Open Sans', verdana, arial, sans-serif; font-size: 12px; fill: rgb(42, 63, 95); fill-opacity: 1; white-space: pre; opacity: 1;" transform="translate(0,266.07)">1.3</text></g><g class="ytick"><text text-anchor="end" x="44" y="4.199999999999999" style="font-family: 'Open Sans', verdana, arial, sans-serif; font-size: 12px; fill: rgb(42, 63, 95); fill-opacity: 1; white-space: pre; opacity: 1;" transform="translate(0,196.05)">1.4</text></g><g class="ytick"><text text-anchor="end" x="44" y="4.199999999999999" style="font-family: 'Open Sans', verdana, arial, sans-serif; font-size: 12px; fill: rgb(42, 63, 95); fill-opacity: 1; white-space: pre; opacity: 1;" transform="translate(0,126.04)">1.5</text></g><g class="ytick"><text text-anchor="end" x="44" y="4.199999999999999" style="font-family: 'Open Sans', verdana, arial, sans-serif; font-size: 12px; fill: rgb(42, 63, 95); fill-opacity: 1; white-space: pre; opacity: 1;" transform="translate(0,56.03)">1.6</text></g></g><g class="overaxes-above"/></g></g><g class="polarlayer"/><g class="smithlayer"/><g class="ternarylayer"/><g class="geolayer"/><g class="funnelarealayer"/><g class="pielayer"/><g class="iciclelayer"/><g class="treemaplayer"/><g class="sunburstlayer"/><g class="glimages"/><defs id="topdefs-54be50"><g class="clips"/><clipPath id="legend54be50"><rect width="123" height="67" x="0" y="0"/></clipPath></defs><g class="layer-above"><g class="imagelayer"/><g class="shapelayer"/></g><g class="infolayer"><g class="legend" pointer-events="all" transform="translate(677,20)"><rect class="bg" shape-rendering="crispEdges" width="123" height="67" x="0" y="0" style="stroke: rgb(68, 68, 68); stroke-opacity: 1; fill: rgb(255, 255, 255); fill-opacity: 1; stroke-width: 0px;"/><g class="scrollbox" transform="" clip-path="url(#legend54be50)"><g class="groups"><g class="traces" transform="translate(0,14.5)" style="opacity: 1;"><text class="legendtext" text-anchor="start" x="40" y="4.680000000000001" style="font-family: 'Open Sans', verdana, arial, sans-serif; font-size: 12px; fill: rgb(42, 63, 95); fill-opacity: 1; white-space: pre;">Hunter</text><g class="layers" style="opacity: 1;"><g class="legendfill"/><g class="legendlines"><path class="js-line" d="M5,0h30" style="fill: none; stroke: rgb(128, 0, 128); stroke-opacity: 1; stroke-width: 2px;"/></g><g class="legendsymbols"><g class="legendpoints"/></g></g><rect class="legendtoggle" x="0" y="-9.5" width="117.5" height="19" style="fill: rgb(0, 0, 0); fill-opacity: 0;"/></g><g class="traces" transform="translate(0,33.5)" style="opacity: 1;"><text class="legendtext" text-anchor="start" x="40" y="4.680000000000001" style="font-family: 'Open Sans', verdana, arial, sans-serif; font-size: 12px; fill: rgb(42, 63, 95); fill-opacity: 1; white-space: pre;">NSW</text><g class="layers" style="opacity: 1;"><g class="legendfill"/><g class="legendlines"><path class="js-line" d="M5,0h30" style="fill: none; stroke: rgb(0, 0, 128); stroke-opacity: 1; stroke-width: 2px;"/></g><g class="legendsymbols"><g class="legendpoints"/></g></g><rect class="legendtoggle" x="0" y="-9.5" width="117.5" height="19" style="fill: rgb(0, 0, 0); fill-opacity: 0;"/></g><g class="traces" transform="translate(0,52.5)" style="opacity: 1;"><text class="legendtext" text-anchor="start" x="40" y="4.680000000000001" style="font-family: 'Open Sans', verdana, arial, sans-serif; font-size: 12px; fill: rgb(42, 63, 95); fill-opacity: 1; white-space: pre;">Hunter trend</text><g class="layers" style="opacity: 1;"><g class="legendfill"/><g class="legendlines"><path class="js-line" d="M5,0h30" style="fill: none; stroke: rgb(186, 85, 211); stroke-opacity: 1; stroke-width: 2px;"/></g><g class="legendsymbols"><g class="legendpoints"/></g></g><rect class="legendtoggle" x="0" y="-9.5" width="117.5" height="19" style="fill: rgb(0, 0, 0); fill-opacity: 0;"/></g></g></g><rect class="scrollbar" rx="20" ry="3" width="0" height="0" x="0" y="0" style="fill: rgb(128, 139, 164); fill-opacity: 1;"/></g><g class="g-gtitle"/><g class="g-xtitle"/><g class="g-ytitle" transform="translate(14.4248046875,0)"><text class="ytitle" transform="rotate(-90,-0.42499999999999716,302)" x="-0.42499999999999716" y="302" text-anchor="middle" style="font-family: 'Open Sans', verdana, arial, sans-serif; font-size: 14px; fill: rgb(42, 63, 95); opacity: 1; font-weight: normal; white-space: pre;">Growth in Employment</text></g></g></svg>