<svg class="main-svg" xmlns="http://www.w3.org/2000/svg" xmlns:xlink="http://www.w3.org/1999/xlink" width="800" height="600" style="" viewBox="0 0 800 600"><rect x="0" y="0" width="800" height="600" style="fill: rgb(255, 255, 255); fill-opacity: 1;"/><defs id="defs-f4fd5d"><g class="clips"><clipPath id="clipf4fd5dxyplot" class="plotclip"><rect width="650" height="564"/></clipPath><clipPath id="clipf4fd5dxy2plot" class="plotclip"><rect width="650" height="564"/></clipPath><clipPath class="axesclip" id="clipf4fd5dx"><rect x="49" y="0" width="650" height="600"/></clipPath><clipPath class="axesclip" id="clipf4fd5dy"><rect x="0" y="20" width="800" height="564"/></clipPath><clipPath class="axesclip" id="clipf4fd5dxy"><rect x="49" y="20" width="650" height="564"/></clipPath><clipPath class="axesclip" id="clipf4fd5dy2"><rect x="0" y="20" width="800" height="564"/></clipPath><clipPath class="axesclip" id="clipf4fd5dxy2"><rect x="49" y="20" width="650" height="564"/></clipPath></g><g class="gradients"/><g class="patterns"/></defs><g class="bglayer"/><g class="layer-below"><g class="imagelayer"/><g class="shapelayer"/></g><g class="cartesianlayer"><g class="subplot xy"><g class="layer-subplot"><g class="shapelayer"/><g class="imagelayer"/></g><g class="minor-gridlayer"><g class="x"/><g class="y"/><g class="y2"/></g><g class="gridlayer"><g class="x"><path class="xgrid crisp" transform="translate(77.67,0)" d="M0,20v564" style="stroke: rgb(235, 240, 248); stroke-opacity: 1; stroke-width: 1px;"/><path class="xgrid crisp" transform="translate(209.94,0)" d="M0,20v564" style="stroke: rgb(235, 240, 248); stroke-opacity: 1; stroke-width: 1px;"/><path class="xgrid crisp" transform="translate(342.14,0)" d="M0,20v564" style="stroke: rgb(235, 240, 248); stroke-opacity: 1; stroke-width: 1px;"/><path class="xgrid crisp" transform="translate(474.35,0)" d="M0,20v564" style="stroke: rgb(235, 240, 248); stroke-opacity: 1; stroke-width: 1px;"/><path class="xgrid crisp" transform="translate(606.55,0)" d="M0,20v564" style="stroke: rgb(235, 240, 248); stroke-opacity: 1; stroke-width: 1px;"/></g><g class="y"><path class="ygrid crisp" transform="translate(0,512.1600000000001)" d="M49,0h650" style="stroke: rgb(235, 240, 248); stroke-opacity: 1; stroke-width: 1px;"/><path class="ygrid crisp" transform="translate(0,423.06)" d="M49,0h650" style="stroke: rgb(235, 240, 248); stroke-opacity: 1; stroke-width: 1px;"/><path class="ygrid crisp" transform="translate(0,333.96)" d="M49,0h650" style="stroke: rgb(235, 240, 248); stroke-opacity: 1; stroke-width: 1px;"/><path class="ygrid crisp" transform="translate(0,244.86)" d="M49,0h650" style="stroke: rgb(235, 240, 248); stroke-opacity: 1; stroke-width: 1px;"/><path class="ygrid crisp" transform="translate(0,155.77)" d="M49,0h650" style="stroke: rgb(235, 240, 248); stroke-opacity: 1; stroke-width: 1px;"/><path class="ygrid crisp" transform="translate(0,66.67)" d="M49,0h650" style="stroke: rgb(235, 240, 248); stroke-opacity: 1; stroke-width: 1px;"/></g><g class="y2"><path class="y2grid crisp" transform="translate(0,540.7)" d="M49,0h650" style="stroke: rgb(235, 240, 248); stroke-opacity: 1; stroke-width: 1px;"/><path class="y2grid crisp" transform="translate(0,433.32)" d="M49,0h650" style="stroke: rgb(235, 240, 248); stroke-opacity: 1; stroke-width: 1px;"/><path class="y2grid crisp" transform="translate(0,325.93)" d="M49,0h650" style="stroke: rgb(235, 240, 248); stroke-opacity: 1; stroke-width: 1px;"/><path class="y2grid crisp" transform="translate(0,218.55)" d="M49,0h650" style="stroke: rgb(235, 240, 248); stroke-opacity: 1; stroke-width: 1px;"/><path class="y2grid crisp" transform="translate(0,111.16)" d="M49,0h650" style="stroke: rgb(235, 240, 248); stroke-opacity: 1; stroke-width: 1px;"/></g></g><g class="zerolinelayer"/><path class="xlines-below"/><path class="ylines-below"/><g class="overlines-below"><path class="xy2-x"/><path class="xy2-y"/></g><g class="xaxislayer-below"/><g class="yaxislayer-below"/><g class="overaxes-below"><g class="xy2-x"/><g class="xy2-y"/></g><g class="plot" transform="translate(49,20)" clip-path="url(#clipf4fd5dxyplot)"><g class="scatterlayer mlayer"><g class="trace scatter tracef68eca" style="stroke-miterlimit: 2; opacity: 1;"><g class="fills"/><g class="errorbars"/><g class="lines"><path class="js-line" d="M0,490.09L4.49,511.73L6.52,525.47L8.76,532.91L10.93,534.21L15.35,505.34L17.59,501.37L19.84,502.94L22.01,507.73L24.25,496.22L26.43,478.85L28.67,474.58L30.91,476.86L33.01,484.63L35.26,476.06L37.43,470.08L39.67,471.88L41.85,471.79L44.09,480.32L48.51,500.59L50.75,502.9L52.92,498.52L55.17,499.67L57.41,490.51L59.44,490.03L61.68,489.48L63.86,493.26L66.1,497.05L68.27,497.78L70.52,508.46L72.76,502.18L74.93,502.47L77.18,491.09L81.59,477.18L83.84,485.5L88.11,507.67L90.28,518.96L92.53,535.8L94.7,535.04L96.94,523.2L99.19,503.3L101.36,504.45L103.6,497.36L105.78,502.16L108.02,504.66L112.29,492.85L114.54,483.09L118.95,501.27L121.12,507.45L123.37,508.23L125.61,492.84L127.78,472.67L130.03,458.85L132.2,461.3L134.45,468.05L136.69,461.36L138.79,450.09L141.03,446.23L143.21,454.38L145.45,461.57L147.62,449.38L152.11,425.31L154.28,422.45L156.53,426.67L158.7,425.03L160.94,421.6L163.19,410.01L165.21,410.05L167.46,416.84L169.63,432.24L171.88,437.32L174.05,440.71L176.29,430.26L178.54,421.75L180.71,429.38L182.95,422.37L185.12,430.7L187.37,402.58L189.61,402.71L191.64,398.9L193.89,418.01L196.06,424.93L198.3,421.41L200.47,406.46L202.72,411.23L204.96,397.07L207.13,399.94L209.38,387.9L211.55,387.49L213.79,385.14L216.04,386.17L218.07,386.17L220.31,380.93L222.48,383.73L224.73,399.02L226.9,410.99L229.14,410.25L231.39,382.86L233.56,375.23L235.8,359.37L237.98,367.9L240.22,354L242.46,345.61L244.56,326.8L246.81,333.76L248.98,338.72L251.23,357.08L253.4,362.84L255.64,377.06L257.89,373.57L260.06,358.78L262.3,347.03L264.47,345.86L266.72,359.93L268.96,351.18L270.99,348.49L273.23,337.12L275.41,338.48L277.65,340.84L279.82,336.79L282.07,328.63L284.31,310.71L286.48,315.75L288.73,334.68L290.9,361.98L293.14,363.49L295.39,356.92L297.42,348.3L299.66,349.49L304.08,332.68L306.25,310.36L310.74,278.51L312.91,288.74L317.33,314.57L319.57,315.8L321.81,317.91L323.84,338.34L328.26,356.44L330.5,354.04L334.92,321.58L337.16,304.22L339.34,307.41L341.58,301.78L343.75,293.83L346,289.93L348.24,284.41L350.34,289.67L352.58,296.73L354.76,299.02L357,301.63L359.17,290.46L361.42,305.88L363.66,309.65L365.83,326.33L368.08,325.02L370.25,332.26L372.49,326.42L374.74,320.2L376.77,326.37L381.18,339L383.43,335.07L385.6,340.99L387.84,351.58L392.26,316.95L394.5,306.41L396.68,317.28L398.92,322.49L401.16,308.91L403.19,308.34L405.44,310.61L407.61,322.66L409.85,347.53L412.02,361.35L414.27,370.22L416.51,361.75L418.68,357.51L420.93,358.65L423.1,351.28L425.35,355.12L427.59,356.11L429.62,374.16L431.86,385.41L434.03,379.36L436.28,363.11L438.45,339.58L440.69,342.37L442.94,341.88L445.11,336.27L447.35,319.01L449.53,299.94L451.77,299.79L454.02,319.11L456.11,353.19L458.36,363.29L460.53,369.54L462.78,345.51L464.95,341.74L467.19,351.51L469.44,365.19L471.61,365.4L473.85,348.03L476.02,326.33L478.27,325.93L480.51,314.44L482.54,319.15L484.79,316.89L486.96,300.99L491.37,274.42L493.62,297.93L495.86,303.97L498.03,293.03L502.45,255.43L504.69,256.81L511.21,226.97L513.38,226.26L515.63,241.18L517.8,235.53L522.29,237.22L524.46,244.39L526.7,240.23L528.88,245.3L533.36,225.8L535.39,213.79L537.64,223.23L539.81,225.21L542.05,219.18L544.22,193.05L548.71,167.97L550.89,175.21L553.13,171.03L555.3,153.06L557.55,145.54L559.79,150.72L561.89,174.53L564.13,185.53L568.55,234.76L570.72,250.14L572.97,260.86L575.21,264.58L577.38,278.2L579.63,277.04L584.04,254.64L586.29,234.35L588.32,232.27L590.56,239.02L592.73,230.65L594.98,217.88L597.15,187.37L599.39,184.09L601.64,176.79L603.81,190.28L606.05,200.39L608.23,189.15L610.47,183.02L612.71,157.73L614.74,158.28L616.99,148.06L619.16,141.74L621.4,121.55L623.57,112.44L625.82,110.69L628.06,108.67L630.24,91.36L632.48,85.16L634.65,74.91L636.9,79.51L639.14,69.25L641.17,62.21L643.41,46.24L645.58,30.95L647.83,32.73L650,28.2" style="vector-effect: non-scaling-stroke; fill: none; stroke: rgb(99, 110, 250); stroke-opacity: 1; stroke-width: 2px; opacity: 1;"/></g><g class="points"/><g class="text"/></g></g></g><g class="overplot"><g class="xy2" transform="translate(49,20)" clip-path="url(#clipf4fd5dxy2plot)"><g class="scatterlayer mlayer"><g class="trace scatter trace5ed07a" style="stroke-miterlimit: 2; opacity: 1;"><g class="fills"/><g class="errorbars"/><g class="lines"><path class="js-line" d="M0,529.69L2.24,531.51L4.49,528.41L6.52,534.99L8.76,535.48L10.93,535.8L13.18,533.06L15.35,523.2L17.59,522.74L19.84,515.12L22.01,511.99L26.43,490.54L28.67,491.04L30.91,491.34L33.01,499.8L39.67,488.5L41.85,481.24L44.09,481.6L46.34,476.98L48.51,485.54L50.75,485.42L55.17,488.61L57.41,488.1L59.44,492.17L61.68,491.09L63.86,493.21L66.1,496.63L68.27,497.22L70.52,504.78L72.76,501.06L74.93,505.21L77.18,502.58L79.35,501.37L83.84,488.44L85.87,493.92L88.11,503.55L90.28,506.14L92.53,511.87L94.7,502.62L96.94,505.85L99.19,492.7L101.36,498.05L103.6,493.36L105.78,490.78L108.02,484.27L110.26,478.54L112.29,486.22L118.95,508.49L121.12,505.13L123.37,503.77L125.61,490.26L127.78,484.59L130.03,476.29L132.2,472.4L134.45,466.79L136.69,465.92L138.79,471.39L145.45,488.23L147.62,485.55L149.87,488.29L152.11,474.8L154.28,476.54L156.53,470.92L158.7,472.5L160.94,470.91L163.19,462.66L165.21,470.68L167.46,466.18L169.63,472.76L171.88,465.94L174.05,467.05L176.29,468.5L178.54,465L180.71,468.7L182.95,461.52L185.12,457L187.37,447.17L189.61,442.49L191.64,449.7L196.06,457.49L198.3,458.45L200.47,453.4L202.72,454.8L204.96,443.25L207.13,443.77L209.38,437.72L211.55,434.85L213.79,430.73L216.04,423.72L218.07,430.53L220.31,430.55L222.48,430.08L224.73,428.71L226.9,423.29L229.14,426.49L231.39,415.1L233.56,413.05L237.98,394.77L240.22,386.76L242.46,380.08L244.56,378.56L246.81,375.89L248.98,378.98L251.23,383.38L253.4,380.96L255.64,384L257.89,376.44L260.06,384.72L262.3,383.82L264.47,388.08L266.72,381.7L268.96,378.48L270.99,388.97L275.41,407.11L277.65,410.98L279.82,406.88L282.07,413.17L284.31,406.48L286.48,414.92L288.73,411.04L290.9,409.11L293.14,404.27L295.39,403.02L297.42,409.75L299.66,408.94L304.08,407.46L306.25,404.22L308.49,400.15L310.74,379.85L312.91,374.66L315.15,362.94L317.33,361.52L319.57,357.05L321.81,355.94L323.84,362.39L326.09,366.22L328.26,377.34L330.5,384L332.67,382.15L334.92,383.99L337.16,375.06L339.34,376.8L341.58,368.07L343.75,364.66L346,357.11L348.24,350.24L350.34,353.44L352.58,358.39L354.76,359.48L357,366.11L359.17,362.29L361.42,373.16L363.66,356.23L365.83,353.56L368.08,340.61L370.25,341.6L372.49,339.28L374.74,333.02L376.77,335.88L379.01,331.08L381.18,335.51L385.6,349.48L387.84,358.15L390.09,353.46L392.26,361.87L394.5,360.33L396.68,364.34L398.92,361.04L401.16,353.12L403.19,350.19L405.44,342.64L407.61,344.2L409.85,346.82L412.02,340.33L414.27,342.05L416.51,339.58L418.68,350.79L420.93,350.51L423.1,343.69L425.35,341.51L427.59,330.2L429.62,328.64L431.86,320.58L434.03,321.33L436.28,316.19L438.45,301.79L440.69,297.51L442.94,294.31L445.11,293.61L449.53,259.77L451.77,261.59L454.02,263.65L456.11,280.68L458.36,278.78L460.53,285.86L462.78,285.09L464.95,290.32L467.19,299.44L469.44,304.46L471.61,302L473.85,293.83L476.02,282.87L478.27,287.6L480.51,281.6L482.54,285.96L484.79,281.28L486.96,278.87L489.2,269.46L491.37,254.93L493.62,251.27L495.86,245.63L498.03,241.26L500.28,230.58L502.45,217.42L504.69,220.38L506.94,219.15L508.97,230.06L511.21,222.64L513.38,226.45L517.8,219.54L520.04,216.15L524.46,212.81L526.7,203.86L528.88,196.37L531.12,193.05L533.36,190.85L535.39,191.38L539.81,188.38L542.05,179.64L544.22,168.23L546.47,167.16L548.71,164.75L550.89,170.84L555.3,159.37L557.55,156.6L559.79,150.61L561.89,154.67L564.13,170.86L566.31,201.49L568.55,227.32L570.72,228.81L575.21,218.93L577.38,221.27L579.63,210.65L581.8,196L584.04,187.45L586.29,182.11L588.32,187.08L590.56,185.95L592.73,184.07L594.98,173.56L597.15,159.1L599.39,175.8L603.81,212.3L606.05,193.09L608.23,168.33L610.47,153.52L612.71,142.48L614.74,144.35L619.16,121.81L621.4,103.98L623.57,96.6L625.82,93.71L628.06,93.86L630.24,79.51L632.48,69.26L634.65,51.7L636.9,57.8L639.14,51.48L641.17,59.64L643.41,48.23L645.58,44.46L647.83,33.15L650,28.2" style="vector-effect: non-scaling-stroke; fill: none; stroke: rgb(239, 85, 59); stroke-opacity: 1; stroke-width: 2px; opacity: 1;"/></g><g class="points"/><g class="text"/></g></g></g></g><path class="xlines-above crisp" d="M0,0" style="fill: none;"/><path class="ylines-above crisp" d="M0,0" style="fill: none;"/><g class="overlines-above"><path class="xy2-x crisp" d="M0,0" style="fill: none;"/><path class="xy2-y crisp" d="M0,0" style="fill: none;"/></g><g class="xaxislayer-above"><g class="xtick"><text text-anchor="middle" x="0" y="597" transform="translate(77.67,0)" style="font-family: 'Open Sans', verdana, arial, sans-serif; font-size: 12px; fill: rgb(42, 63, 95); fill-opacity: 1; white-space: pre; opacity: 1;">2000</text></g><g class="xtick"><text text-anchor="middle" x="0" y="597" style="font-family: 'Open Sans', verdana, arial, sans-serif; font-size: 12px; fill: rgb(42, 63, 95); fill-opacity: 1; white-space: pre; opacity: 1;" transform="translate(209.94,0)">2005</text></g><g class="xtick"><text text-anchor="middle" x="0" y="597" style="font-family: 'Open Sans', verdana, arial, sans-serif; font-size: 12px; fill: rgb(42, 63, 95); fill-opacity: 1; white-space: pre; opacity: 1;" transform="translate(342.14,0)">2010</text></g><g class="xtick"><text text-anchor="middle" x="0" y="597" style="font-family: 'Open Sans', verdana, arial, sans-serif; font-size: 12px; fill: rgb(42, 63, 95); fill-opacity: 1; white-space: pre; opacity: 1;" transform="translate(474.35,0)">2015</text></g><g class="xtick"><text text-anchor="middle" x="0" y="597" style="font-family: 'Open Sans', verdana, arial, sans-serif; font-size: 12px; fill: rgb(42, 63, 95); fill-opacity: 1; white-space: pre; opacity: 1;" transform="translate(606.55,0)">2020</text></g></g><g class="yaxislayer-above"><g class="ytick"><text text-anchor="end" x="48" y="4.199999999999999" transform="translate(0,512.1600000000001)" style="font-family: 'Open Sans', verdana, arial, sans-serif; font-size: 12px; fill: rgb(42, 63, 95); fill-opacity: 1; white-space: pre; opacity: 1;">160</text></g><g class="ytick"><text text-anchor="end" x="48" y="4.199999999999999" style="font-family: 'Open Sans', verdana, arial, sans-serif; font-size: 12px; fill: rgb(42, 63, 95); fill-opacity: 1; white-space: pre; opacity: 1;" transform="translate(0,423.06)">180</text></g><g class="ytick"><text text-anchor="end" x="48" y="4.199999999999999" style="font-family: 'Open Sans', verdana, arial, sans-serif; font-size: 12px; fill: rgb(42, 63, 95); fill-opacity: 1; white-space: pre; opacity: 1;" transform="translate(0,333.96)">200</text></g><g class="ytick"><text text-anchor="end" x="48" y="4.199999999999999" style="font-family: 'Open Sans', verdana, arial, sans-serif; font-size: 12px; fill: rgb(42, 63, 95); fill-opacity: 1; white-space: pre; opacity: 1;" transform="translate(0,244.86)">220</text></g><g class="ytick"><text text-anchor="end" x="48" y="4.199999999999999" style="font-family: 'Open Sans', verdana, arial, sans-serif; font-size: 12px; fill: rgb(42, 63, 95); fill-opacity: 1; white-space: pre; opacity: 1;" transform="translate(0,155.77)">240</text></g><g class="ytick"><text text-anchor="end" x="48" y="4.199999999999999" style="font-family: 'Open Sans', verdana, arial, sans-serif; font-size: 12px; fill: rgb(42, 63, 95); fill-opacity: 1; white-space: pre; opacity: 1;" transform="translate(0,66.67)">260</text></g></g><g class="overaxes-above"><g class="xy2-x"/><g class="xy2-y"><g class="y2tick"><text text-anchor="start" x="700" y="4.199999999999999" transform="translate(0,540.7)" style="font-family: 'Open Sans', verdana, arial, sans-serif; font-size: 12px; fill: rgb(42, 63, 95); fill-opacity: 1; white-space: pre; opacity: 1;">2200</text></g><g class="y2tick"><text text-anchor="start" x="700" y="4.199999999999999" style="font-family: 'Open Sans', verdana, arial, sans-serif; font-size: 12px; fill: rgb(42, 63, 95); fill-opacity: 1; white-space: pre; opacity: 1;" transform="translate(0,433.32)">2400</text></g><g class="y2tick"><text text-anchor="start" x="700" y="4.199999999999999" style="font-family: 'Open Sans', verdana, arial, sans-serif; font-size: 12px; fill: rgb(42, 63, 95); fill-opacity: 1; white-space: pre; opacity: 1;" transform="translate(0,325.93)">2600</text></g><g class="y2tick"><text text-anchor="start" x="700" y="4.199999999999999" style="font-family: 'Open Sans', verdana, arial, sans-serif; font-size: 12px; fill: rgb(42, 63, 95); fill-opacity: 1; white-space: pre; opacity: 1;" transform="translate(0,218.55)">2800</text></g><g class="y2tick"><text text-anchor="start" x="700" y="4.199999999999999" style="font-family: 'Open Sans', verdana, arial, sans-serif; font-size: 12px; fill: rgb(42, 63, 95); fill-opacity: 1; white-space: pre; opacity: 1;" transform="translate(0,111.16)">3000</text></g></g></g></g><g class="subplot xy2"/></g><g class="polarlayer"/><g class="smithlayer"/><g class="ternarylayer"/><g class="geolayer"/><g class="funnelarealayer"/><g class="pielayer"/><g class="iciclelayer"/><g class="treemaplayer"/><g class="sunburstlayer"/><g class="glimages"/><defs id="topdefs-f4fd5d"><g class="clips"/><clipPath id="legendf4fd5d"><rect width="88" height="48" x="0" y="0"/></clipPath></defs><g class="layer-above"><g class="imagelayer"/><g class="shapelayer"/></g><g class="infolayer"><g class="legend" pointer-events="all" transform="translate(712,20)"><rect class="bg" shape-rendering="crispEdges" width="88" height="48" x="0" y="0" style="stroke: rgb(68, 68, 68); stroke-opacity: 1; fill: rgb(255, 255, 255); fill-opacity: 1; stroke-width: 0px;"/><g class="scrollbox" transform="" clip-path="url(#legendf4fd5d)"><g class="groups"><g class="traces" transform="translate(0,14.5)" style="opacity: 1;"><text class="legendtext" text-anchor="start" x="40" y="4.680000000000001" style="font-family: 'Open Sans', verdana, arial, sans-serif; font-size: 12px; fill: rgb(42, 63, 95); fill-opacity: 1; white-space: pre;">Hunter</text><g class="layers" style="opacity: 1;"><g class="legendfill"/><g class="legendlines"><path class="js-line" d="M5,0h30" style="fill: none; stroke: rgb(99, 110, 250); stroke-opacity: 1; stroke-width: 2px;"/></g><g class="legendsymbols"><g class="legendpoints"/></g></g><rect class="legendtoggle" x="0" y="-9.5" width="82.09375" height="19" style="fill: rgb(0, 0, 0); fill-opacity: 0;"/></g><g class="traces" transform="translate(0,33.5)" style="opacity: 1;"><text class="legendtext" text-anchor="start" x="40" y="4.680000000000001" style="font-family: 'Open Sans', verdana, arial, sans-serif; font-size: 12px; fill: rgb(42, 63, 95); fill-opacity: 1; white-space: pre;">NSW</text><g class="layers" style="opacity: 1;"><g class="legendfill"/><g class="legendlines"><path class="js-line" d="M5,0h30" style="fill: none; stroke: rgb(239, 85, 59); stroke-opacity: 1; stroke-width: 2px;"/></g><g class="legendsymbols"><g class="legendpoints"/></g></g><rect class="legendtoggle" x="0" y="-9.5" width="82.09375" height="19" style="fill: rgb(0, 0, 0); fill-opacity: 0;"/></g></g></g><rect class="scrollbar" rx="20" ry="3" width="0" height="0" x="0" y="0" style="fill: rgb(128, 139, 164); fill-opacity: 1;"/></g><g class="g-gtitle"/><g class="g-xtitle"/><g class="g-ytitle" transform="translate(13.6904296875,0)"><text class="ytitle" transform="rotate(-90,0.30937500000000284,302)" x="0.30937500000000284" y="302" text-anchor="middle" style="font-family: 'Open Sans', verdana, arial, sans-serif; font-size: 14px; fill: rgb(42, 63, 95); opacity: 1; font-weight: normal; white-space: pre;">Hunter Employment ('000)</text></g><g class="g-y2title"><text class="y2title" transform="rotate(-90,755.315625,302)" x="755.315625" y="302" text-anchor="middle" style="font-family: 'Open Sans', verdana, arial, sans-serif; font-size: 14px; fill: rgb(42, 63, 95); opacity: 1; font-weight: normal; white-space: pre;">NSW Employment ('000)</text></g></g></svg>