<svg class="main-svg" xmlns="http://www.w3.org/2000/svg" xmlns:xlink="http://www.w3.org/1999/xlink" width="600" height="400" style="" viewBox="0 0 600 400"><rect x="0" y="0" width="600" height="400" style="fill: rgb(255, 255, 255); fill-opacity: 1;"/><defs id="defs-eb0c87"><g class="clips"><clipPath id="clipeb0c87xyplot" class="plotclip"><rect width="557" height="364"/></clipPath><clipPath class="axesclip" id="clipeb0c87x"><rect x="43" y="0" width="557" height="400"/></clipPath><clipPath class="axesclip" id="clipeb0c87y"><rect x="0" y="20" width="600" height="364"/></clipPath><clipPath class="axesclip" id="clipeb0c87xy"><rect x="43" y="20" width="557" height="364"/></clipPath></g><g class="gradients"/><g class="patterns"/></defs><g class="bglayer"/><g class="layer-below"><g class="imagelayer"/><g class="shapelayer"/></g><g class="cartesianlayer"><g class="subplot xy"><g class="layer-subplot"><g class="shapelayer"/><g class="imagelayer"/></g><g class="minor-gridlayer"><g class="x"/><g class="y"/></g><g class="gridlayer"><g class="x"><path class="xgrid crisp" transform="translate(168.6,0)" d="M0,20v364" style="stroke: rgb(235, 240, 248); stroke-opacity: 1; stroke-width: 1px;"/><path class="xgrid crisp" transform="translate(297.38,0)" d="M0,20v364" style="stroke: rgb(235, 240, 248); stroke-opacity: 1; stroke-width: 1px;"/><path class="xgrid crisp" transform="translate(426.19,0)" d="M0,20v364" style="stroke: rgb(235, 240, 248); stroke-opacity: 1; stroke-width: 1px;"/><path class="xgrid crisp" transform="translate(554.97,0)" d="M0,20v364" style="stroke: rgb(235, 240, 248); stroke-opacity: 1; stroke-width: 1px;"/></g><g class="y"><path class="ygrid crisp" transform="translate(0,372.1)" d="M43,0h557" style="stroke: rgb(235, 240, 248); stroke-opacity: 1; stroke-width: 1px;"/><path class="ygrid crisp" transform="translate(0,330.1)" d="M43,0h557" style="stroke: rgb(235, 240, 248); stroke-opacity: 1; stroke-width: 1px;"/><path class="ygrid crisp" transform="translate(0,288.1)" d="M43,0h557" style="stroke: rgb(235, 240, 248); stroke-opacity: 1; stroke-width: 1px;"/><path class="ygrid crisp" transform="translate(0,204.1)" d="M43,0h557" style="stroke: rgb(235, 240, 248); stroke-opacity: 1; stroke-width: 1px;"/><path class="ygrid crisp" transform="translate(0,162.1)" d="M43,0h557" style="stroke: rgb(235, 240, 248); stroke-opacity: 1; stroke-width: 1px;"/><path class="ygrid crisp" transform="translate(0,120.1)" d="M43,0h557" style="stroke: rgb(235, 240, 248); stroke-opacity: 1; stroke-width: 1px;"/><path class="ygrid crisp" transform="translate(0,78.1)" d="M43,0h557" style="stroke: rgb(235, 240, 248); stroke-opacity: 1; stroke-width: 1px;"/><path class="ygrid crisp" transform="translate(0,36.1)" d="M43,0h557" style="stroke: rgb(235, 240, 248); stroke-opacity: 1; stroke-width: 1px;"/></g></g><g class="zerolinelayer"><path class="yzl zl crisp" transform="translate(0,246.1)" d="M43,0h557" style="stroke: rgb(235, 240, 248); stroke-opacity: 1; stroke-width: 2px;"/></g><path class="xlines-below"/><path class="ylines-below"/><g class="overlines-below"/><g class="xaxislayer-below"/><g class="yaxislayer-below"/><g class="overaxes-below"/><g class="plot" transform="translate(43,20)" clip-path="url(#clipeb0c87xyplot)"><g class="scatterlayer mlayer"><g class="trace scatter trace1a9f0a" style="stroke-miterlimit: 2; opacity: 1;"><g class="fills"/><g class="errorbars"/><g class="lines"><path class="js-line" d="M9.7,165.2L12.87,165.2L16.08,140L19.32,108.5L22.57,152.6L25.74,177.8L28.95,190.4L32.19,247.1L35.44,272.3L38.61,276.5L41.82,299.6L51.52,83.3L54.73,56L57.97,95.9L61.21,116.9L64.39,140L67.6,116.9L70.84,108.5L74.09,129.5L77.26,144.2L80.47,194.6L83.71,215.6L86.96,173.6L90.13,167.3L93.34,129.5L96.58,98L99.83,91.7L103.04,104.3L106.24,135.8L109.49,156.8L112.73,165.2L115.91,152.6L119.12,110.6L122.36,110.6L125.6,150.5L128.78,154.7L131.99,196.7L135.23,226.1L138.47,207.2L141.65,251.3L144.86,257.6L148.1,234.5L151.34,245L154.55,200.9L157.76,182L161.01,171.5L164.25,129.5L170.63,133.7L173.88,152.6L177.12,158.9L180.3,140L186.75,112.7L189.99,127.4L193.17,161L196.37,177.8L199.62,146.3L202.86,169.4L206.07,135.8L209.28,131.6L212.52,163.1L215.77,144.2L218.94,165.2L222.15,114.8L225.4,129.5L228.64,116.9L231.81,116.9L235.02,161L238.27,123.2L241.51,123.2L244.68,121.1L247.89,133.7L251.14,148.4L254.38,144.2L257.59,150.5L260.8,137.9L264.04,156.8L267.29,200.9L270.46,188.3L273.67,190.4L276.91,171.5L280.16,137.9L283.33,142.1L286.54,123.2L289.78,142.1L293.03,150.5L296.2,163.1L299.41,190.4L302.65,161L305.9,142.1L309.11,129.5L312.32,123.2L318.8,163.1L321.98,163.1L325.19,167.3L328.43,161L331.68,158.9L334.85,173.6L338.06,179.9L341.3,171.5L344.55,161L347.72,133.7L350.93,123.2L354.17,131.6L357.42,150.5L360.63,158.9L367.08,175.7L370.32,192.5L373.5,194.6L376.7,186.2L379.95,194.6L383.19,169.4L386.37,179.9L389.58,182L392.82,173.6L396.06,173.6L399.24,188.3L402.45,173.6L405.69,158.9L408.93,152.6L412.14,125.3L415.35,137.9L418.6,154.7L421.84,167.3L425.01,177.8L428.22,184.1L431.47,179.9L434.71,173.6L437.88,167.3L441.09,165.2L447.58,182L450.76,179.9L453.96,188.3L457.21,175.7L460.45,171.5L463.66,171.5L466.87,161L470.11,179.9L473.36,169.4L476.53,182L479.74,182L482.98,165.2L486.23,177.8L489.4,163.1L492.61,161L495.86,171.5L499.1,177.8L502.27,186.2L505.48,192.5L508.73,186.2L511.97,179.9L515.18,196.7L518.39,345.8L521.63,280.7L528.05,173.6L531.26,18.2L534.5,142.1L537.75,129.5L540.92,161L544.13,161L547.37,102.2L550.62,169.4L553.79,173.6L557,179.9" style="vector-effect: non-scaling-stroke; fill: none; stroke: rgb(9, 50, 102); stroke-opacity: 1; stroke-width: 2px; opacity: 1;"/></g><g class="points"/><g class="text"/></g></g></g><g class="overplot"/><path class="xlines-above crisp" d="M0,0" style="fill: none;"/><path class="ylines-above crisp" d="M0,0" style="fill: none;"/><g class="overlines-above"/><g class="xaxislayer-above"><g class="xtick"><text text-anchor="middle" x="0" y="397" transform="translate(168.6,0)" style="font-family: 'Open Sans', verdana, arial, sans-serif; font-size: 12px; fill: rgb(42, 63, 95); fill-opacity: 1; white-space: pre; opacity: 1;">1990</text></g><g class="xtick"><text text-anchor="middle" x="0" y="397" style="font-family: 'Open Sans', verdana, arial, sans-serif; font-size: 12px; fill: rgb(42, 63, 95); fill-opacity: 1; white-space: pre; opacity: 1;" transform="translate(297.38,0)">2000</text></g><g class="xtick"><text text-anchor="middle" x="0" y="397" style="font-family: 'Open Sans', verdana, arial, sans-serif; font-size: 12px; fill: rgb(42, 63, 95); fill-opacity: 1; white-space: pre; opacity: 1;" transform="translate(426.19,0)">2010</text></g><g class="xtick"><text text-anchor="middle" x="0" y="397" style="font-family: 'Open Sans', verdana, arial, sans-serif; font-size: 12px; fill: rgb(42, 63, 95); fill-opacity: 1; white-space: pre; opacity: 1;" transform="translate(554.97,0)">2020</text></g></g><g class="yaxislayer-above"><g class="ytick"><text text-anchor="end" x="42" y="4.199999999999999" transform="translate(0,372.1)" style="font-family: 'Open Sans', verdana, arial, sans-serif; font-size: 12px; fill: rgb(42, 63, 95); fill-opacity: 1; white-space: pre; opacity: 1;">−6</text></g><g class="ytick"><text text-anchor="end" x="42" y="4.199999999999999" style="font-family: 'Open Sans', verdana, arial, sans-serif; font-size: 12px; fill: rgb(42, 63, 95); fill-opacity: 1; white-space: pre; opacity: 1;" transform="translate(0,330.1)">−4</text></g><g class="ytick"><text text-anchor="end" x="42" y="4.199999999999999" style="font-family: 'Open Sans', verdana, arial, sans-serif; font-size: 12px; fill: rgb(42, 63, 95); fill-opacity: 1; white-space: pre; opacity: 1;" transform="translate(0,288.1)">−2</text></g><g class="ytick"><text text-anchor="end" x="42" y="4.199999999999999" style="font-family: 'Open Sans', verdana, arial, sans-serif; font-size: 12px; fill: rgb(42, 63, 95); fill-opacity: 1; white-space: pre; opacity: 1;" transform="translate(0,246.1)">0</text></g><g class="ytick"><text text-anchor="end" x="42" y="4.199999999999999" style="font-family: 'Open Sans', verdana, arial, sans-serif; font-size: 12px; fill: rgb(42, 63, 95); fill-opacity: 1; white-space: pre; opacity: 1;" transform="translate(0,204.1)">2</text></g><g class="ytick"><text text-anchor="end" x="42" y="4.199999999999999" style="font-family: 'Open Sans', verdana, arial, sans-serif; font-size: 12px; fill: rgb(42, 63, 95); fill-opacity: 1; white-space: pre; opacity: 1;" transform="translate(0,162.1)">4</text></g><g class="ytick"><text text-anchor="end" x="42" y="4.199999999999999" style="font-family: 'Open Sans', verdana, arial, sans-serif; font-size: 12px; fill: rgb(42, 63, 95); fill-opacity: 1; white-space: pre; opacity: 1;" transform="translate(0,120.1)">6</text></g><g class="ytick"><text text-anchor="end" x="42" y="4.199999999999999" style="font-family: 'Open Sans', verdana, arial, sans-serif; font-size: 12px; fill: rgb(42, 63, 95); fill-opacity: 1; white-space: pre; opacity: 1;" transform="translate(0,78.1)">8</text></g><g class="ytick"><text text-anchor="end" x="42" y="4.199999999999999" style="font-family: 'Open Sans', verdana, arial, sans-serif; font-size: 12px; fill: rgb(42, 63, 95); fill-opacity: 1; white-space: pre; opacity: 1;" transform="translate(0,36.1)">10</text></g></g><g class="overaxes-above"/></g></g><g class="polarlayer"/><g class="smithlayer"/><g class="ternarylayer"/><g class="geolayer"/><g class="funnelarealayer"/><g class="pielayer"/><g class="iciclelayer"/><g class="treemaplayer"/><g class="sunburstlayer"/><g class="glimages"/><defs id="topdefs-eb0c87"><g class="clips"/></defs><g class="layer-above"><g class="imagelayer"/><g class="shapelayer"/></g><g class="infolayer"><g class="g-gtitle"/><g class="g-xtitle"/><g class="g-ytitle" transform="translate(14.2529296875,0)"><text class="ytitle" transform="rotate(-90,-0.25312499999999716,202)" x="-0.25312499999999716" y="202" text-anchor="middle" style="font-family: 'Open Sans', verdana, arial, sans-serif; font-size: 14px; fill: rgb(42, 63, 95); opacity: 1; font-weight: normal; white-space: pre;">GDP Growth % p.a.</text></g><g class="annotation" data-index="0" style="opacity: 1;"><g class="annotation-text-g" transform="rotate(0,281.07,485.2)"><g class="cursor-pointer" transform="translate(49,477)"><rect class="bg" x="0.5" y="0.5" width="464" height="15" style="stroke-width: 1px; stroke: rgb(0, 0, 0); stroke-opacity: 0; fill: rgb(0, 0, 0); fill-opacity: 0;"/><text class="annotation-text" text-anchor="middle" x="232.53125" y="12" style="font-family: 'Open Sans', verdana, arial, sans-serif; font-size: 10px; fill: rgb(42, 63, 95); fill-opacity: 1; white-space: pre;">Data source: ABS Australian National Accounts: National Income, Expenditure and Product.</text></g></g></g></g></svg>