<svg class="main-svg" xmlns="http://www.w3.org/2000/svg" xmlns:xlink="http://www.w3.org/1999/xlink" width="800" height="600" style="" viewBox="0 0 800 600"><rect x="0" y="0" width="800" height="600" style="fill: rgb(255, 255, 255); fill-opacity: 1;"/><defs id="defs-64670d"><g class="clips"><clipPath id="clip64670dxyplot" class="plotclip"><rect width="633" height="564"/></clipPath><clipPath class="axesclip" id="clip64670dx"><rect x="66" y="0" width="633" height="600"/></clipPath><clipPath class="axesclip" id="clip64670dy"><rect x="0" y="20" width="800" height="564"/></clipPath><clipPath class="axesclip" id="clip64670dxy"><rect x="66" y="20" width="633" height="564"/></clipPath></g><g class="gradients"/><g class="patterns"/></defs><g class="bglayer"/><g class="layer-below"><g class="imagelayer"/><g class="shapelayer"/></g><g class="cartesianlayer"><g class="subplot xy"><g class="layer-subplot"><g class="shapelayer"/><g class="imagelayer"/></g><g class="minor-gridlayer"><g class="x"/><g class="y"/></g><g class="gridlayer"><g class="x"><path class="xgrid crisp" transform="translate(93.92,0)" d="M0,20v564" style="stroke: rgb(235, 240, 248); stroke-opacity: 1; stroke-width: 1px;"/><path class="xgrid crisp" transform="translate(222.73,0)" d="M0,20v564" style="stroke: rgb(235, 240, 248); stroke-opacity: 1; stroke-width: 1px;"/><path class="xgrid crisp" transform="translate(351.48,0)" d="M0,20v564" style="stroke: rgb(235, 240, 248); stroke-opacity: 1; stroke-width: 1px;"/><path class="xgrid crisp" transform="translate(480.22,0)" d="M0,20v564" style="stroke: rgb(235, 240, 248); stroke-opacity: 1; stroke-width: 1px;"/><path class="xgrid crisp" transform="translate(608.96,0)" d="M0,20v564" style="stroke: rgb(235, 240, 248); stroke-opacity: 1; stroke-width: 1px;"/></g><g class="y"><path class="ygrid crisp" transform="translate(0,579.64)" d="M66,0h633" style="stroke: rgb(235, 240, 248); stroke-opacity: 1; stroke-width: 1px;"/><path class="ygrid crisp" transform="translate(0,517.88)" d="M66,0h633" style="stroke: rgb(235, 240, 248); stroke-opacity: 1; stroke-width: 1px;"/><path class="ygrid crisp" transform="translate(0,456.12)" d="M66,0h633" style="stroke: rgb(235, 240, 248); stroke-opacity: 1; stroke-width: 1px;"/><path class="ygrid crisp" transform="translate(0,394.36)" d="M66,0h633" style="stroke: rgb(235, 240, 248); stroke-opacity: 1; stroke-width: 1px;"/><path class="ygrid crisp" transform="translate(0,332.6)" d="M66,0h633" style="stroke: rgb(235, 240, 248); stroke-opacity: 1; stroke-width: 1px;"/><path class="ygrid crisp" transform="translate(0,270.84000000000003)" d="M66,0h633" style="stroke: rgb(235, 240, 248); stroke-opacity: 1; stroke-width: 1px;"/><path class="ygrid crisp" transform="translate(0,209.08)" d="M66,0h633" style="stroke: rgb(235, 240, 248); stroke-opacity: 1; stroke-width: 1px;"/><path class="ygrid crisp" transform="translate(0,147.31)" d="M66,0h633" style="stroke: rgb(235, 240, 248); stroke-opacity: 1; stroke-width: 1px;"/><path class="ygrid crisp" transform="translate(0,85.55)" d="M66,0h633" style="stroke: rgb(235, 240, 248); stroke-opacity: 1; stroke-width: 1px;"/><path class="ygrid crisp" transform="translate(0,23.79)" d="M66,0h633" style="stroke: rgb(235, 240, 248); stroke-opacity: 1; stroke-width: 1px;"/></g></g><g class="zerolinelayer"/><path class="xlines-below"/><path class="ylines-below"/><g class="overlines-below"/><g class="xaxislayer-below"/><g class="yaxislayer-below"/><g class="overaxes-below"/><g class="plot" transform="translate(66,20)" clip-path="url(#clip64670dxyplot)"><g class="scatterlayer mlayer"><g class="trace scatter tracecccdb1" style="stroke-miterlimit: 2; opacity: 1;"><g class="fills"/><g class="errorbars"/><g class="lines"><path class="js-line" d="M0,136.75L6.35,28.2L8.53,66.55L10.65,103.68L12.83,99.22L14.95,94.36L17.13,39.29L19.32,31.81L21.43,29.01L23.62,85.28L25.73,108.66L27.92,114.64L30.11,109.65L34.34,163.09L36.45,205.49L38.64,225.27L40.75,261.51L42.94,269.91L45.12,252.6L47.24,215.93L49.42,193.73L51.54,152.1L53.73,87.78L55.91,44.43L57.89,51.26L60.07,72.35L62.19,74.28L64.37,76.44L66.49,72.35L68.67,53.87L70.86,42.56L72.97,41.59L75.16,70.8L77.27,89.46L79.46,80.76L81.65,83.62L83.62,88.34L85.81,103.51L87.92,68.91L90.11,73.81L92.22,126.9L94.41,213.72L96.59,262.45L98.71,294.35L100.89,286.06L103.01,242.49L105.19,162.9L107.38,157.84L109.35,194.3L111.54,260.83L113.66,264.48L117.96,237.02L120.14,251.68L122.33,289.28L124.44,294.58L128.74,256.91L130.93,238.31L133.11,228.38L135.16,209.17L137.35,227.79L139.46,260.2L141.65,270.3L143.76,291.65L145.95,303.42L148.13,303.91L150.25,306.56L152.43,291.71L154.55,304.48L156.73,304.25L158.92,295.57L160.89,297.89L163.08,301.64L165.19,347.86L167.38,342.48L169.5,341.25L171.68,343.27L173.87,349.1L178.17,292.57L180.28,296.87L186.63,242.18L188.81,249.31L190.93,275.84L193.12,291.79L195.23,354.29L197.42,345.15L199.6,359.2L201.72,347.76L203.9,356.08L206.02,372.5L208.2,349.78L210.39,360.13L212.36,361.23L214.55,380.58L216.66,385.92L218.85,380.32L220.96,408.88L223.15,427.02L225.34,441.9L227.45,419.97L229.64,394.02L231.75,357.19L233.94,283.46L236.12,286.41L238.17,331.53L240.35,396.49L242.47,405.18L244.65,376.44L246.77,404.84L248.96,413.74L251.14,433.52L253.26,444.29L255.44,433.52L257.56,406.04L259.74,347.76L261.93,329.13L263.9,302.74L266.09,299.63L268.2,310.52L270.39,326.77L272.5,342.04L274.69,364.22L276.88,395.6L278.99,412.6L283.29,357.82L285.48,335.16L287.66,329.83L289.64,335.8L293.94,396.39L296.12,413.08L298.24,409.21L300.42,426.86L302.61,427.57L304.73,408.56L306.91,397.92L309.03,396.96L311.21,431.93L313.4,394.85L317.56,349.25L319.67,377.54L326.16,497.26L328.34,464.63L330.46,406.49L332.65,381.54L336.95,426.26L339.13,424.95L341.18,394.51L343.36,399.28L345.48,379.2L347.66,397.48L349.78,396.3L351.96,412.93L356.27,344.76L358.45,354.4L362.75,407.37L364.94,357.62L369.1,324.12L371.21,299.55L375.51,312.42L377.7,389.53L379.88,399.46L382,416.9L384.19,417.93L386.3,435.12L388.49,400.98L390.67,334.09L392.65,269.47L394.83,256.55L396.95,265.07L399.13,278.57L401.25,261.24L403.43,222.54L405.62,195.99L407.73,190.18L409.92,180.95L412.04,187.83L414.22,131.61L416.41,101.5L418.38,48.97L420.57,83.74L426.98,208.14L429.17,212.2L431.35,248.12L433.47,244.69L435.65,269.45L437.77,258.44L439.96,260.45L442.14,299.29L446.37,356.04L448.49,342.23L452.79,327.54L454.97,328.99L457.16,337.45L459.27,383.73L461.46,406.2L463.57,400.48L465.76,397.19L467.95,363.49L469.92,346.24L472.11,333.87L474.22,364.34L476.41,371.01L478.52,382.06L480.71,325.5L482.89,343.77L485.01,340.82L487.19,401L489.31,392.38L493.68,308.44L495.65,279.05L497.84,284.62L499.96,278.32L504.26,358.27L506.44,339.32L508.63,339.75L510.74,346.55L512.93,410.68L515.04,395.95L519.42,365.76L521.39,369.56L523.58,384.28L525.69,386.73L527.88,368.12L529.99,374.25L532.18,389.19L534.36,432.73L536.48,438.55L538.66,422.16L540.78,405.18L542.96,416.43L545.15,412.97L547.19,393.39L555.8,127.01L557.98,168.39L562.28,203.78L564.47,179.45L568.77,267.21L570.96,343.29L572.93,381.79L575.11,406.64L577.23,416.42L579.42,418.21L581.53,437.81L583.72,412.72L585.9,429.15L588.02,407.03L592.32,444.88L594.5,457.3L596.69,452.61L598.66,427.69L600.85,437.39L602.96,404.54L607.27,428.76L609.45,458.34L611.64,471.2L613.75,474.08L615.94,481.68L618.05,486.06L620.24,468.48L622.42,467.8L624.4,446.95L626.58,480.54L628.7,500.59L630.88,535.71L633,535.8" style="vector-effect: non-scaling-stroke; fill: none; stroke: rgb(128, 0, 128); stroke-opacity: 1; stroke-width: 2px; opacity: 1;"/></g><g class="points"/><g class="text"/></g><g class="trace scatter trace907072" style="stroke-miterlimit: 2; opacity: 1;"><g class="fills"/><g class="errorbars"/><g class="lines"><path class="js-line" d="M0,285.55L2.19,267.33L4.37,258.78L6.35,247.89L8.53,258.71L14.95,330.83L17.13,324.6L19.32,301.28L21.43,298.12L25.73,345.23L27.92,330.73L30.11,300.77L32.15,295.62L40.75,371.4L42.94,379.77L45.12,382.87L47.24,376.48L49.42,371.85L51.54,362.41L53.73,344.96L55.91,318.55L57.89,314.81L60.07,315.36L62.19,332.1L64.37,328.73L66.49,333.91L68.67,327.94L70.86,318.56L72.97,302.89L75.16,299.96L77.27,305.8L81.65,283.49L83.62,274.84L87.92,301.11L90.11,310.04L94.41,336.13L96.59,336.56L98.71,341.83L100.89,337.19L103.01,339.21L105.19,313.88L107.38,294.4L109.35,292.67L113.66,321.99L115.84,326.95L117.96,329.04L120.14,342.06L122.33,343.37L124.44,350.89L126.63,349.96L128.74,358.27L130.93,348.56L133.11,334.07L135.16,329.47L137.35,337.34L139.46,349.36L141.65,352.85L152.43,374.98L154.55,378.25L156.73,364.31L158.92,345.37L160.89,328.99L163.08,338.6L167.38,373.77L169.5,385.25L171.68,394.82L173.87,385.29L175.98,375.53L178.17,369.45L180.28,372.67L182.47,348.38L184.65,329.51L186.63,331.66L190.93,360.51L193.12,358.16L195.23,377.33L197.42,378.72L199.6,377.65L201.72,378.14L203.9,385.19L206.02,396.01L208.2,377.75L210.39,352.33L212.36,345.17L214.55,350.85L216.66,373.49L218.85,385.26L220.96,401.1L223.15,409.54L225.34,406.57L227.45,405.1L229.64,403.58L231.75,405.42L233.94,393.44L236.12,388.07L238.17,390.03L240.35,399.3L244.65,397.98L246.77,402.94L248.96,406.01L251.14,399.09L253.26,384.72L255.44,377.99L257.56,371.59L259.74,350.16L263.9,277.13L266.09,276.07L268.2,280.12L270.39,292.44L274.69,321.68L276.88,340.65L278.99,330.8L281.18,331.2L283.29,324.82L285.48,322.57L287.66,319.45L289.64,319.3L291.82,323.74L293.94,336.84L300.42,376.94L302.61,379.09L306.91,371.38L309.03,382.75L311.21,384.58L313.4,375.45L315.37,357.64L317.56,357L319.67,364.8L321.86,368.39L323.97,376.06L326.16,371.16L330.46,358.52L332.65,363.36L334.76,363.45L336.95,357.18L339.13,341.71L341.18,352.17L343.36,362.33L345.48,376.19L347.66,373.2L349.78,374.91L351.96,385.81L354.15,381.43L356.27,378.11L358.45,370.68L360.57,378.28L362.75,371.03L366.91,333.47L369.1,334.31L371.21,338.58L373.4,348.44L375.51,349.05L377.7,347.06L379.88,340.32L382,330.68L384.19,331.42L386.3,330.94L388.49,325.05L390.67,310.77L392.65,313.78L394.83,329.91L396.95,344.12L399.13,341.96L401.25,335.24L403.43,337.12L409.92,325.56L412.04,327.27L416.41,290.5L418.38,280.96L422.68,321.42L424.87,332.82L426.98,332.51L429.17,327.63L431.35,326.46L433.47,334.79L437.77,369.83L439.96,357.36L444.19,332.43L446.37,349.83L450.67,370.25L452.79,372.42L454.97,373.77L457.16,379.24L461.46,391.04L463.57,385.42L467.95,350.8L469.92,345.71L476.41,397.52L478.52,392.03L480.71,386.29L482.89,388.74L487.19,409.22L489.31,406.04L493.68,364.7L495.65,352.81L497.84,366.67L499.96,374.72L502.14,389.27L504.26,391.19L506.44,394.22L508.63,400.48L512.93,423.63L515.04,424.15L517.23,424.62L519.42,412.36L521.39,404.57L523.58,399.61L529.99,405.8L532.18,410.48L534.36,413.67L536.48,408.43L540.78,407.95L542.96,404.95L547.19,376.25L549.38,346.28L553.68,286.31L555.8,269.02L560.17,262.33L562.28,278.17L564.47,288.38L566.58,302.34L568.77,300.67L570.96,300.81L572.93,309.83L575.11,331.07L579.42,366.22L581.53,384.51L583.72,391.37L585.9,402.18L588.02,385.88L590.2,392.88L594.5,420.97L596.69,427.5L598.66,423.21L600.85,443.63L602.96,443.77L605.15,460.2L607.27,465.83L609.45,478.29L611.64,479.18L613.75,485.73L618.05,497.74L620.24,488.19L622.42,480.82L624.4,471.31L626.58,471.82L628.7,480.12L630.88,493.05L633,496.35" style="vector-effect: non-scaling-stroke; fill: none; stroke: rgb(0, 0, 128); stroke-opacity: 1; stroke-width: 2px; opacity: 1;"/></g><g class="points"/><g class="text"/></g></g></g><g class="overplot"/><path class="xlines-above crisp" d="M0,0" style="fill: none;"/><path class="ylines-above crisp" d="M0,0" style="fill: none;"/><g class="overlines-above"/><g class="xaxislayer-above"><g class="xtick"><text text-anchor="middle" x="0" y="597" transform="translate(93.92,0)" style="font-family: 'Open Sans', verdana, arial, sans-serif; font-size: 12px; fill: rgb(42, 63, 95); fill-opacity: 1; white-space: pre; opacity: 1;">2000</text></g><g class="xtick"><text text-anchor="middle" x="0" y="597" style="font-family: 'Open Sans', verdana, arial, sans-serif; font-size: 12px; fill: rgb(42, 63, 95); fill-opacity: 1; white-space: pre; opacity: 1;" transform="translate(222.73,0)">2005</text></g><g class="xtick"><text text-anchor="middle" x="0" y="597" style="font-family: 'Open Sans', verdana, arial, sans-serif; font-size: 12px; fill: rgb(42, 63, 95); fill-opacity: 1; white-space: pre; opacity: 1;" transform="translate(351.48,0)">2010</text></g><g class="xtick"><text text-anchor="middle" x="0" y="597" style="font-family: 'Open Sans', verdana, arial, sans-serif; font-size: 12px; fill: rgb(42, 63, 95); fill-opacity: 1; white-space: pre; opacity: 1;" transform="translate(480.22,0)">2015</text></g><g class="xtick"><text text-anchor="middle" x="0" y="597" style="font-family: 'Open Sans', verdana, arial, sans-serif; font-size: 12px; fill: rgb(42, 63, 95); fill-opacity: 1; white-space: pre; opacity: 1;" transform="translate(608.96,0)">2020</text></g></g><g class="yaxislayer-above"><g class="ytick"><text text-anchor="end" x="65" y="4.199999999999999" transform="translate(0,579.64)" style="font-family: 'Open Sans', verdana, arial, sans-serif; font-size: 12px; fill: rgb(42, 63, 95); fill-opacity: 1; white-space: pre; opacity: 1;">2.0%</text></g><g class="ytick"><text text-anchor="end" x="65" y="4.199999999999999" style="font-family: 'Open Sans', verdana, arial, sans-serif; font-size: 12px; fill: rgb(42, 63, 95); fill-opacity: 1; white-space: pre; opacity: 1;" transform="translate(0,517.88)">3.0%</text></g><g class="ytick"><text text-anchor="end" x="65" y="4.199999999999999" style="font-family: 'Open Sans', verdana, arial, sans-serif; font-size: 12px; fill: rgb(42, 63, 95); fill-opacity: 1; white-space: pre; opacity: 1;" transform="translate(0,456.12)">4.0%</text></g><g class="ytick"><text text-anchor="end" x="65" y="4.199999999999999" style="font-family: 'Open Sans', verdana, arial, sans-serif; font-size: 12px; fill: rgb(42, 63, 95); fill-opacity: 1; white-space: pre; opacity: 1;" transform="translate(0,394.36)">5.0%</text></g><g class="ytick"><text text-anchor="end" x="65" y="4.199999999999999" style="font-family: 'Open Sans', verdana, arial, sans-serif; font-size: 12px; fill: rgb(42, 63, 95); fill-opacity: 1; white-space: pre; opacity: 1;" transform="translate(0,332.6)">6.0%</text></g><g class="ytick"><text text-anchor="end" x="65" y="4.199999999999999" style="font-family: 'Open Sans', verdana, arial, sans-serif; font-size: 12px; fill: rgb(42, 63, 95); fill-opacity: 1; white-space: pre; opacity: 1;" transform="translate(0,270.84000000000003)">7.0%</text></g><g class="ytick"><text text-anchor="end" x="65" y="4.199999999999999" style="font-family: 'Open Sans', verdana, arial, sans-serif; font-size: 12px; fill: rgb(42, 63, 95); fill-opacity: 1; white-space: pre; opacity: 1;" transform="translate(0,209.08)">8.0%</text></g><g class="ytick"><text text-anchor="end" x="65" y="4.199999999999999" style="font-family: 'Open Sans', verdana, arial, sans-serif; font-size: 12px; fill: rgb(42, 63, 95); fill-opacity: 1; white-space: pre; opacity: 1;" transform="translate(0,147.31)">9.0%</text></g><g class="ytick"><text text-anchor="end" x="65" y="4.199999999999999" style="font-family: 'Open Sans', verdana, arial, sans-serif; font-size: 12px; fill: rgb(42, 63, 95); fill-opacity: 1; white-space: pre; opacity: 1;" transform="translate(0,85.55)">10.0%</text></g><g class="ytick"><text text-anchor="end" x="65" y="4.199999999999999" style="font-family: 'Open Sans', verdana, arial, sans-serif; font-size: 12px; fill: rgb(42, 63, 95); fill-opacity: 1; white-space: pre; opacity: 1;" transform="translate(0,23.79)">11.0%</text></g></g><g class="overaxes-above"/></g></g><g class="polarlayer"/><g class="smithlayer"/><g class="ternarylayer"/><g class="geolayer"/><g class="funnelarealayer"/><g class="pielayer"/><g class="iciclelayer"/><g class="treemaplayer"/><g class="sunburstlayer"/><g class="glimages"/><defs id="topdefs-64670d"><g class="clips"/><clipPath id="legend64670d"><rect width="88" height="48" x="0" y="0"/></clipPath></defs><g class="layer-above"><g class="imagelayer"/><g class="shapelayer"/></g><g class="infolayer"><g class="legend" pointer-events="all" transform="translate(711.66,20)"><rect class="bg" shape-rendering="crispEdges" width="88" height="48" x="0" y="0" style="stroke: rgb(68, 68, 68); stroke-opacity: 1; fill: rgb(255, 255, 255); fill-opacity: 1; stroke-width: 0px;"/><g class="scrollbox" transform="" clip-path="url(#legend64670d)"><g class="groups"><g class="traces" transform="translate(0,14.5)" style="opacity: 1;"><text class="legendtext" text-anchor="start" x="40" y="4.680000000000001" style="font-family: 'Open Sans', verdana, arial, sans-serif; font-size: 12px; fill: rgb(42, 63, 95); fill-opacity: 1; white-space: pre;">Hunter</text><g class="layers" style="opacity: 1;"><g class="legendfill"/><g class="legendlines"><path class="js-line" d="M5,0h30" style="fill: none; stroke: rgb(128, 0, 128); stroke-opacity: 1; stroke-width: 2px;"/></g><g class="legendsymbols"><g class="legendpoints"/></g></g><rect class="legendtoggle" x="0" y="-9.5" width="82.09375" height="19" style="fill: rgb(0, 0, 0); fill-opacity: 0;"/></g><g class="traces" transform="translate(0,33.5)" style="opacity: 1;"><text class="legendtext" text-anchor="start" x="40" y="4.680000000000001" style="font-family: 'Open Sans', verdana, arial, sans-serif; font-size: 12px; fill: rgb(42, 63, 95); fill-opacity: 1; white-space: pre;">NSW</text><g class="layers" style="opacity: 1;"><g class="legendfill"/><g class="legendlines"><path class="js-line" d="M5,0h30" style="fill: none; stroke: rgb(0, 0, 128); stroke-opacity: 1; stroke-width: 2px;"/></g><g class="legendsymbols"><g class="legendpoints"/></g></g><rect class="legendtoggle" x="0" y="-9.5" width="82.09375" height="19" style="fill: rgb(0, 0, 0); fill-opacity: 0;"/></g></g></g><rect class="scrollbar" rx="20" ry="3" width="0" height="0" x="0" y="0" style="fill: rgb(128, 139, 164); fill-opacity: 1;"/></g><g class="g-gtitle"/><g class="g-xtitle"/><g class="g-ytitle" transform="translate(13.9716796875,0)"><text class="ytitle" transform="rotate(-90,0.028125000000002842,302)" x="0.028125000000002842" y="302" text-anchor="middle" style="font-family: 'Open Sans', verdana, arial, sans-serif; font-size: 14px; fill: rgb(42, 63, 95); opacity: 1; font-weight: normal; white-space: pre;">Unemployment</text></g></g></svg>