<svg class="main-svg" xmlns="http://www.w3.org/2000/svg" xmlns:xlink="http://www.w3.org/1999/xlink" width="800" height="600" style="" viewBox="0 0 800 600"><rect x="0" y="0" width="800" height="600" style="fill: rgb(255, 255, 255); fill-opacity: 1;"/><defs id="defs-3f8d5a"><g class="clips"><clipPath id="clip3f8d5axyplot" class="plotclip"><rect width="751" height="564"/></clipPath><clipPath class="axesclip" id="clip3f8d5ax"><rect x="49" y="0" width="751" height="600"/></clipPath><clipPath class="axesclip" id="clip3f8d5ay"><rect x="0" y="20" width="800" height="564"/></clipPath><clipPath class="axesclip" id="clip3f8d5axy"><rect x="49" y="20" width="751" height="564"/></clipPath></g><g class="gradients"/><g class="patterns"/></defs><g class="bglayer"/><g class="layer-below"><g class="imagelayer"/><g class="shapelayer"/></g><g class="cartesianlayer"><g class="subplot xy"><g class="layer-subplot"><g class="shapelayer"/><g class="imagelayer"/></g><g class="minor-gridlayer"><g class="x"/><g class="y"/></g><g class="gridlayer"><g class="x"><path class="xgrid crisp" transform="translate(87.11,0)" d="M0,20v564" style="stroke: rgb(235, 240, 248); stroke-opacity: 1; stroke-width: 1px;"/><path class="xgrid crisp" transform="translate(201.14,0)" d="M0,20v564" style="stroke: rgb(235, 240, 248); stroke-opacity: 1; stroke-width: 1px;"/><path class="xgrid crisp" transform="translate(315.16,0)" d="M0,20v564" style="stroke: rgb(235, 240, 248); stroke-opacity: 1; stroke-width: 1px;"/><path class="xgrid crisp" transform="translate(429.5,0)" d="M0,20v564" style="stroke: rgb(235, 240, 248); stroke-opacity: 1; stroke-width: 1px;"/><path class="xgrid crisp" transform="translate(543.52,0)" d="M0,20v564" style="stroke: rgb(235, 240, 248); stroke-opacity: 1; stroke-width: 1px;"/><path class="xgrid crisp" transform="translate(657.55,0)" d="M0,20v564" style="stroke: rgb(235, 240, 248); stroke-opacity: 1; stroke-width: 1px;"/><path class="xgrid crisp" transform="translate(771.57,0)" d="M0,20v564" style="stroke: rgb(235, 240, 248); stroke-opacity: 1; stroke-width: 1px;"/></g><g class="y"><path class="ygrid crisp" transform="translate(0,545.89)" d="M49,0h751" style="stroke: rgb(235, 240, 248); stroke-opacity: 1; stroke-width: 1px;"/><path class="ygrid crisp" transform="translate(0,446.75)" d="M49,0h751" style="stroke: rgb(235, 240, 248); stroke-opacity: 1; stroke-width: 1px;"/><path class="ygrid crisp" transform="translate(0,347.6)" d="M49,0h751" style="stroke: rgb(235, 240, 248); stroke-opacity: 1; stroke-width: 1px;"/><path class="ygrid crisp" transform="translate(0,248.46)" d="M49,0h751" style="stroke: rgb(235, 240, 248); stroke-opacity: 1; stroke-width: 1px;"/><path class="ygrid crisp" transform="translate(0,149.32)" d="M49,0h751" style="stroke: rgb(235, 240, 248); stroke-opacity: 1; stroke-width: 1px;"/><path class="ygrid crisp" transform="translate(0,50.18)" d="M49,0h751" style="stroke: rgb(235, 240, 248); stroke-opacity: 1; stroke-width: 1px;"/></g></g><g class="zerolinelayer"/><path class="xlines-below"/><path class="ylines-below"/><g class="overlines-below"/><g class="xaxislayer-below"/><g class="yaxislayer-below"/><g class="overaxes-below"/><g class="plot" transform="translate(49,20)" clip-path="url(#clip3f8d5axyplot)"><g class="scatterlayer mlayer"><g class="trace scatter trace652556" style="stroke-miterlimit: 2; opacity: 1;"><g class="fills"/><g class="errorbars"/><g class="lines"><path class="js-line" d="M0,426.75L19.06,426.75L28.43,417.82L47.8,417.82L56.54,399.98L75.6,399.98L85.28,412.87L104.34,412.87L114.02,407.91L133.08,407.91L142.45,399.98L161.82,399.98L170.57,405.93L189.62,405.93L199.31,422.78L218.36,422.78L228.05,429.72L247.11,429.72L256.48,435.67L275.85,435.67L284.91,422.78L303.96,422.78L313.65,447.56L332.7,447.56L342.39,454.5L361.44,454.5L370.81,528.86L390.18,528.86L398.93,535.8L417.99,535.8L427.67,505.07L446.73,505.07L456.41,503.08L465.78,507.05L475.47,498.13L484.84,495.15L494.52,496.14L504.21,499.12L512.95,500.11L522.64,505.07L532.01,503.08L541.69,479.29L551.07,469.38L560.75,456.49L570.44,498.13L579.81,398.99L589.49,400.97L598.86,360.32L608.55,355.36L618.23,355.36L626.98,356.36L636.66,366.27L646.03,374.2L655.72,383.12L665.09,320.66L674.78,334.54L684.46,332.56L693.83,295.88L703.52,291.91L712.89,356.36L722.57,346.44L732.26,352.39L741.32,300.84L751,321.66" style="vector-effect: none; fill: none; stroke: rgb(0, 0, 139); stroke-opacity: 1; stroke-width: 2px; opacity: 1;"/></g><g class="points"/><g class="text"/></g><g class="trace scatter trace7b8eba" style="stroke-miterlimit: 2; opacity: 1;"><g class="fills"/><g class="errorbars"/><g class="lines"><path class="js-line" d="M0,426.75L9.37,430.71L19.06,425.75L28.43,418.81L38.11,420.8L47.8,420.8L56.54,417.82L66.23,415.84L75.6,412.87L85.28,407.91L94.66,409.89L104.34,413.86L114.02,409.89L123.4,408.9L133.08,406.92L142.45,404.93L152.14,408.9L161.82,408.9L170.57,406.92L189.62,410.88L199.31,409.89L208.68,409.89L218.36,413.86L228.05,408.9L237.42,407.91L247.11,407.91L256.48,405.93L266.16,404.93L275.85,400.97L284.91,401.96L294.59,401.96L303.96,404.93L313.65,399.98L332.7,396.01L342.39,396.01L351.76,394.03L361.44,390.06L370.81,390.06L380.5,382.13L390.18,392.05L398.93,393.04L408.61,401.96L417.99,389.07L427.67,381.14L437.04,376.18L446.73,354.37L456.41,344.46L465.78,342.48L475.47,318.68L484.84,290.92L494.52,273.08L504.21,254.24L512.95,231.44L522.64,205.66L532.01,189.8L541.69,167L551.07,150.14L560.75,136.26L570.44,129.32L579.81,123.37L589.49,122.38L598.86,110.49L608.55,104.54L618.23,102.56L626.98,99.58L646.03,87.68L655.72,84.71L665.09,75.79L674.78,74.8L684.46,65.87L693.83,62.9L703.52,51L712.89,44.06L722.57,42.08L732.26,38.11L741.32,32.17L751,28.2" style="vector-effect: none; fill: none; stroke: rgb(128, 0, 128); stroke-opacity: 1; stroke-width: 2px; opacity: 1;"/></g><g class="points"/><g class="text"/></g><g class="trace scatter trace2a6fa7" style="stroke-miterlimit: 2; opacity: 1;"><g class="fills"/><g class="errorbars"/><g class="lines"><path class="js-line" d="M0,426.75L19.06,426.75L28.43,443.6L47.8,443.6L56.54,385.11L75.6,385.11L85.28,407.91L104.34,407.91L114.02,397L133.08,397L142.45,411.87L161.82,411.87L170.57,402.95L189.62,402.95L199.31,407.91L218.36,407.91L228.05,378.17L247.11,378.17L256.48,397.99L275.85,397.99L284.91,394.03L303.96,394.03L313.65,402.95L332.7,402.95L342.39,409.89L361.44,409.89L370.81,424.76L390.18,424.76L398.93,408.9L417.99,408.9L427.67,411.87L446.73,411.87L456.41,399.98L465.78,424.76L475.47,400.97L484.84,378.17L494.52,368.25L504.21,348.42L512.95,347.43L522.64,349.42L532.01,379.16L541.69,344.46L551.07,239.37L560.75,224.5L570.44,220.53L579.81,254.24L589.49,226.48L598.86,183.85L608.55,83.72L618.23,71.82L626.98,67.86L636.66,67.86L646.03,96.61L655.72,106.52L665.09,75.79L674.78,70.83L684.46,68.85L693.83,102.56L703.52,72.81L712.89,78.76L722.57,102.56L732.26,104.54L741.32,107.51L751,115.44" style="vector-effect: none; fill: none; stroke: rgb(0, 191, 255); stroke-opacity: 1; stroke-width: 2px; opacity: 1;"/></g><g class="points"/><g class="text"/></g><g class="trace scatter trace3c5a87" style="stroke-miterlimit: 2; opacity: 1;"><g class="fills"/><g class="errorbars"/><g class="lines"><path class="js-line" d="M0,426.75L9.37,426.75L19.06,424.76L38.11,424.76L47.8,421.79L94.66,421.79L104.34,420.8L123.4,420.8L133.08,418.81L152.14,418.81L161.82,417.82L208.68,417.82L218.36,416.83L266.16,416.83L275.85,415.84L294.59,415.84L303.96,429.72L323.02,429.72L332.7,431.7L351.76,431.7L361.44,430.71L408.61,430.71L417.99,429.72L437.04,429.72L446.73,428.73L465.78,428.73L475.47,427.74L494.52,427.74L504.21,420.8L522.64,420.8L532.01,414.85L541.69,414.85L551.07,409.89L570.44,399.98L579.81,394.03L589.49,392.05L598.86,387.09L618.23,373.21L626.98,368.25L636.66,360.32L646.03,351.4L655.72,341.48L665.09,333.55L674.78,325.62L684.46,322.65L693.83,326.61L703.52,318.68L741.32,286.96L751,281.01" style="vector-effect: none; fill: none; stroke: rgb(138, 43, 226); stroke-opacity: 1; stroke-width: 2px; opacity: 1;"/></g><g class="points"/><g class="text"/></g></g></g><g class="overplot"/><path class="xlines-above crisp" d="M0,0" style="fill: none;"/><path class="ylines-above crisp" d="M0,0" style="fill: none;"/><g class="overlines-above"/><g class="xaxislayer-above"><g class="xtick"><text text-anchor="middle" x="0" y="597" transform="translate(87.11,0)" style="font-family: 'Open Sans', verdana, arial, sans-serif; font-size: 12px; fill: rgb(42, 63, 95); fill-opacity: 1; white-space: pre; opacity: 1;">2018</text></g><g class="xtick"><text text-anchor="middle" x="0" y="597" style="font-family: 'Open Sans', verdana, arial, sans-serif; font-size: 12px; fill: rgb(42, 63, 95); fill-opacity: 1; white-space: pre; opacity: 1;" transform="translate(201.14,0)">2019</text></g><g class="xtick"><text text-anchor="middle" x="0" y="597" style="font-family: 'Open Sans', verdana, arial, sans-serif; font-size: 12px; fill: rgb(42, 63, 95); fill-opacity: 1; white-space: pre; opacity: 1;" transform="translate(315.16,0)">2020</text></g><g class="xtick"><text text-anchor="middle" x="0" y="597" style="font-family: 'Open Sans', verdana, arial, sans-serif; font-size: 12px; fill: rgb(42, 63, 95); fill-opacity: 1; white-space: pre; opacity: 1;" transform="translate(429.5,0)">2021</text></g><g class="xtick"><text text-anchor="middle" x="0" y="597" style="font-family: 'Open Sans', verdana, arial, sans-serif; font-size: 12px; fill: rgb(42, 63, 95); fill-opacity: 1; white-space: pre; opacity: 1;" transform="translate(543.52,0)">2022</text></g><g class="xtick"><text text-anchor="middle" x="0" y="597" style="font-family: 'Open Sans', verdana, arial, sans-serif; font-size: 12px; fill: rgb(42, 63, 95); fill-opacity: 1; white-space: pre; opacity: 1;" transform="translate(657.55,0)">2023</text></g><g class="xtick"><text text-anchor="middle" x="0" y="597" style="font-family: 'Open Sans', verdana, arial, sans-serif; font-size: 12px; fill: rgb(42, 63, 95); fill-opacity: 1; white-space: pre; opacity: 1;" transform="translate(771.57,0)">2024</text></g></g><g class="yaxislayer-above"><g class="ytick"><text text-anchor="end" x="48" y="4.199999999999999" transform="translate(0,545.89)" style="font-family: 'Open Sans', verdana, arial, sans-serif; font-size: 12px; fill: rgb(42, 63, 95); fill-opacity: 1; white-space: pre; opacity: 1;">90</text></g><g class="ytick"><text text-anchor="end" x="48" y="4.199999999999999" style="font-family: 'Open Sans', verdana, arial, sans-serif; font-size: 12px; fill: rgb(42, 63, 95); fill-opacity: 1; white-space: pre; opacity: 1;" transform="translate(0,446.75)">100</text></g><g class="ytick"><text text-anchor="end" x="48" y="4.199999999999999" style="font-family: 'Open Sans', verdana, arial, sans-serif; font-size: 12px; fill: rgb(42, 63, 95); fill-opacity: 1; white-space: pre; opacity: 1;" transform="translate(0,347.6)">110</text></g><g class="ytick"><text text-anchor="end" x="48" y="4.199999999999999" style="font-family: 'Open Sans', verdana, arial, sans-serif; font-size: 12px; fill: rgb(42, 63, 95); fill-opacity: 1; white-space: pre; opacity: 1;" transform="translate(0,248.46)">120</text></g><g class="ytick"><text text-anchor="end" x="48" y="4.199999999999999" style="font-family: 'Open Sans', verdana, arial, sans-serif; font-size: 12px; fill: rgb(42, 63, 95); fill-opacity: 1; white-space: pre; opacity: 1;" transform="translate(0,149.32)">130</text></g><g class="ytick"><text text-anchor="end" x="48" y="4.199999999999999" style="font-family: 'Open Sans', verdana, arial, sans-serif; font-size: 12px; fill: rgb(42, 63, 95); fill-opacity: 1; white-space: pre; opacity: 1;" transform="translate(0,50.18)">140</text></g></g><g class="overaxes-above"/></g></g><g class="polarlayer"/><g class="smithlayer"/><g class="ternarylayer"/><g class="geolayer"/><g class="funnelarealayer"/><g class="pielayer"/><g class="iciclelayer"/><g class="treemaplayer"/><g class="sunburstlayer"/><g class="glimages"/><defs id="topdefs-3f8d5a"><g class="clips"/><clipPath id="legend3f8d5a"><rect width="717" height="29" x="0" y="0"/></clipPath></defs><g class="layer-above"><g class="imagelayer"/><g class="shapelayer"/></g><g class="infolayer"><g class="legend" pointer-events="all" transform="translate(66,19.200000000000024)"><rect class="bg" shape-rendering="crispEdges" width="717" height="29" x="0" y="0" style="stroke: rgb(68, 68, 68); stroke-opacity: 1; fill: rgb(255, 255, 255); fill-opacity: 1; stroke-width: 0px;"/><g class="scrollbox" transform="" clip-path="url(#legend3f8d5a)"><g class="groups" transform=""><g class="traces" transform="translate(0,14.5)" style="opacity: 1;"><text class="legendtext" text-anchor="start" x="40" y="4.680000000000001" style="font-family: 'Open Sans', verdana, arial, sans-serif; font-size: 12px; fill: rgb(42, 63, 95); fill-opacity: 1; white-space: pre;">Electricity</text><g class="layers" style="opacity: 1;"><g class="legendfill"/><g class="legendlines"><path class="js-line" d="M5,0h30" style="fill: none; stroke: rgb(0, 0, 139); stroke-opacity: 1; stroke-width: 2px;"/></g><g class="legendsymbols"><g class="legendpoints"/></g></g><rect class="legendtoggle" x="0" y="-9.5" width="101.25" height="19" style="fill: rgb(0, 0, 0); fill-opacity: 0;"/></g></g><g class="groups" transform="translate(103.75,0)"><g class="traces" transform="translate(0,14.5)" style="opacity: 1;"><text class="legendtext" text-anchor="start" x="40" y="4.680000000000001" style="font-family: 'Open Sans', verdana, arial, sans-serif; font-size: 12px; fill: rgb(42, 63, 95); fill-opacity: 1; white-space: pre;">New dwelling purchase by owner-occupiers</text><g class="layers" style="opacity: 1;"><g class="legendfill"/><g class="legendlines"><path class="js-line" d="M5,0h30" style="fill: none; stroke: rgb(128, 0, 128); stroke-opacity: 1; stroke-width: 2px;"/></g><g class="legendsymbols"><g class="legendpoints"/></g></g><rect class="legendtoggle" x="0" y="-9.5" width="302.890625" height="19" style="fill: rgb(0, 0, 0); fill-opacity: 0;"/></g></g><g class="groups" transform="translate(409.140625,0)"><g class="traces" transform="translate(0,14.5)" style="opacity: 1;"><text class="legendtext" text-anchor="start" x="40" y="4.680000000000001" style="font-family: 'Open Sans', verdana, arial, sans-serif; font-size: 12px; fill: rgb(42, 63, 95); fill-opacity: 1; white-space: pre;">Gas and other household fuels</text><g class="layers" style="opacity: 1;"><g class="legendfill"/><g class="legendlines"><path class="js-line" d="M5,0h30" style="fill: none; stroke: rgb(0, 191, 255); stroke-opacity: 1; stroke-width: 2px;"/></g><g class="legendsymbols"><g class="legendpoints"/></g></g><rect class="legendtoggle" x="0" y="-9.5" width="226.328125" height="19" style="fill: rgb(0, 0, 0); fill-opacity: 0;"/></g></g><g class="groups" transform="translate(637.96875,0)"><g class="traces" transform="translate(0,14.5)" style="opacity: 1;"><text class="legendtext" text-anchor="start" x="40" y="4.680000000000001" style="font-family: 'Open Sans', verdana, arial, sans-serif; font-size: 12px; fill: rgb(42, 63, 95); fill-opacity: 1; white-space: pre;">Rents</text><g class="layers" style="opacity: 1;"><g class="legendfill"/><g class="legendlines"><path class="js-line" d="M5,0h30" style="fill: none; stroke: rgb(138, 43, 226); stroke-opacity: 1; stroke-width: 2px;"/></g><g class="legendsymbols"><g class="legendpoints"/></g></g><rect class="legendtoggle" x="0" y="-9.5" width="76.28125" height="19" style="fill: rgb(0, 0, 0); fill-opacity: 0;"/></g></g></g><rect class="scrollbar" rx="20" ry="3" width="0" height="0" x="0" y="0" style="fill: rgb(128, 139, 164); fill-opacity: 1;"/></g><g class="g-gtitle"/><g class="g-xtitle"/><g class="g-ytitle" transform="translate(13.1904296875,0)"><text class="ytitle" transform="rotate(-90,0.8093750000000028,302)" x="0.8093750000000028" y="302" text-anchor="middle" style="font-family: 'Open Sans', verdana, arial, sans-serif; font-size: 14px; fill: rgb(42, 63, 95); opacity: 1; font-weight: normal; white-space: pre;">Index</text></g><g class="annotation" data-index="0" style="opacity: 1;"><g class="annotation-text-g" transform="rotate(0,221.51,745.2)"><g class="cursor-pointer" transform="translate(57,737)"><rect class="bg" x="0.5" y="0.5" width="329" height="15" style="stroke-width: 1px; stroke: rgb(0, 0, 0); stroke-opacity: 0; fill: rgb(0, 0, 0); fill-opacity: 0;"/><text class="annotation-text" text-anchor="middle" x="164.921875" y="12" style="font-family: 'Open Sans', verdana, arial, sans-serif; font-size: 10px; fill: rgb(42, 63, 95); fill-opacity: 1; white-space: pre;">Data source: ABS API - Consumer Price Index: ABS,CPI_M,1.2.0</text></g></g></g></g></svg>