<svg class="main-svg" xmlns="http://www.w3.org/2000/svg" xmlns:xlink="http://www.w3.org/1999/xlink" width="800" height="600" style="" viewBox="0 0 800 600"><rect x="0" y="0" width="800" height="600" style="fill: rgb(255, 255, 255); fill-opacity: 1;"/><defs id="defs-e9dc7b"><g class="clips"><clipPath id="clipe9dc7bxyplot" class="plotclip"><rect width="620" height="564"/></clipPath><clipPath class="axesclip" id="clipe9dc7bx"><rect x="45" y="0" width="620" height="600"/></clipPath><clipPath class="axesclip" id="clipe9dc7by"><rect x="0" y="20" width="800" height="564"/></clipPath><clipPath class="axesclip" id="clipe9dc7bxy"><rect x="45" y="20" width="620" height="564"/></clipPath></g><g class="gradients"/><g class="patterns"/></defs><g class="bglayer"/><g class="layer-below"><g class="imagelayer"/><g class="shapelayer"/></g><g class="cartesianlayer"><g class="subplot xy"><g class="layer-subplot"><g class="shapelayer"/><g class="imagelayer"/></g><g class="minor-gridlayer"><g class="x"/><g class="y"/></g><g class="gridlayer"><g class="x"><path class="xgrid crisp" transform="translate(71.53,0)" d="M0,20v564" style="stroke: rgb(235, 240, 248); stroke-opacity: 1; stroke-width: 1px;"/><path class="xgrid crisp" transform="translate(193.95,0)" d="M0,20v564" style="stroke: rgb(235, 240, 248); stroke-opacity: 1; stroke-width: 1px;"/><path class="xgrid crisp" transform="translate(316.3,0)" d="M0,20v564" style="stroke: rgb(235, 240, 248); stroke-opacity: 1; stroke-width: 1px;"/><path class="xgrid crisp" transform="translate(438.66,0)" d="M0,20v564" style="stroke: rgb(235, 240, 248); stroke-opacity: 1; stroke-width: 1px;"/><path class="xgrid crisp" transform="translate(561.01,0)" d="M0,20v564" style="stroke: rgb(235, 240, 248); stroke-opacity: 1; stroke-width: 1px;"/></g><g class="y"><path class="ygrid crisp" transform="translate(0,546.15)" d="M45,0h620" style="stroke: rgb(235, 240, 248); stroke-opacity: 1; stroke-width: 1px;"/><path class="ygrid crisp" transform="translate(0,473.3)" d="M45,0h620" style="stroke: rgb(235, 240, 248); stroke-opacity: 1; stroke-width: 1px;"/><path class="ygrid crisp" transform="translate(0,400.45)" d="M45,0h620" style="stroke: rgb(235, 240, 248); stroke-opacity: 1; stroke-width: 1px;"/><path class="ygrid crisp" transform="translate(0,327.6)" d="M45,0h620" style="stroke: rgb(235, 240, 248); stroke-opacity: 1; stroke-width: 1px;"/><path class="ygrid crisp" transform="translate(0,254.74)" d="M45,0h620" style="stroke: rgb(235, 240, 248); stroke-opacity: 1; stroke-width: 1px;"/><path class="ygrid crisp" transform="translate(0,181.89)" d="M45,0h620" style="stroke: rgb(235, 240, 248); stroke-opacity: 1; stroke-width: 1px;"/><path class="ygrid crisp" transform="translate(0,109.04)" d="M45,0h620" style="stroke: rgb(235, 240, 248); stroke-opacity: 1; stroke-width: 1px;"/><path class="ygrid crisp" transform="translate(0,36.19)" d="M45,0h620" style="stroke: rgb(235, 240, 248); stroke-opacity: 1; stroke-width: 1px;"/></g></g><g class="zerolinelayer"/><path class="xlines-below"/><path class="ylines-below"/><g class="overlines-below"/><g class="xaxislayer-below"/><g class="yaxislayer-below"/><g class="overaxes-below"/><g class="plot" transform="translate(45,20)" clip-path="url(#clipe9dc7bxyplot)"><g class="scatterlayer mlayer"><g class="trace scatter trace11dfdd" style="stroke-miterlimit: 2; opacity: 1;"><g class="fills"/><g class="errorbars"/><g class="lines"><path class="js-line" d="M0,468.77L4.15,490.35L6.03,504.06L8.11,511.48L10.12,512.78L14.21,483.98L16.28,480.02L18.36,481.59L20.37,486.36L22.45,474.88L24.46,457.55L26.53,453.3L28.61,455.57L30.55,463.32L32.63,454.78L34.64,448.81L36.72,450.6L38.73,450.51L40.81,459.02L44.89,479.24L46.97,481.54L48.98,477.17L51.06,478.32L53.14,469.18L55.01,468.71L57.09,468.16L59.1,471.93L61.18,475.71L63.19,476.44L65.26,487.09L67.34,480.82L69.35,481.12L71.43,469.76L75.51,455.9L77.59,464.19L81.55,486.3L83.56,497.57L85.63,514.36L87.64,513.6L89.72,501.8L91.8,481.94L93.81,483.09L95.88,476.02L97.89,480.81L99.97,483.3L103.93,471.52L106,461.79L110.09,479.92L112.1,486.08L114.18,486.86L116.25,471.52L120.34,437.6L122.35,440.05L124.43,446.78L126.51,440.11L128.45,428.87L130.53,425.01L134.61,440.32L136.62,428.16L140.78,404.15L142.79,401.29L144.87,405.51L146.88,403.87L148.95,400.45L151.03,388.89L152.91,388.93L154.98,395.7L156.99,411.06L159.07,416.13L161.08,419.52L163.16,409.09L165.24,400.6L167.25,408.21L169.32,401.21L171.33,409.53L173.41,381.48L175.49,381.61L177.36,377.8L179.44,396.87L181.45,403.78L183.53,400.26L185.54,385.35L187.61,390.11L189.69,375.98L191.7,378.84L193.78,366.83L195.79,366.42L197.87,364.08L199.94,365.11L201.82,365.11L203.9,359.88L205.91,362.68L207.98,377.92L209.99,389.87L212.07,389.13L214.15,361.81L216.16,354.2L218.24,338.38L220.25,346.88L222.32,333.02L224.4,324.66L226.34,305.89L228.42,312.83L230.43,317.78L232.51,336.1L234.52,341.84L236.6,356.03L238.67,352.54L240.68,337.79L242.76,326.07L244.77,324.9L246.85,338.93L248.92,330.21L250.8,327.53L252.88,316.18L254.89,317.54L256.97,319.89L258.98,315.85L261.05,307.71L263.13,289.84L265.14,294.87L267.22,313.75L269.23,340.98L271.3,342.49L273.38,335.93L275.26,327.34L277.33,328.53L281.42,311.75L283.43,289.49L287.59,257.73L289.6,267.93L293.68,293.7L295.76,294.92L297.84,297.02L299.71,317.4L303.8,335.46L305.88,333.06L312.04,283.36L314.05,286.55L316.13,280.94L318.14,273L320.22,269.12L322.3,263.61L326.32,275.89L328.33,278.18L330.4,280.79L332.41,269.65L334.49,285.03L336.57,288.79L338.58,305.42L340.65,304.12L342.67,311.34L344.74,305.51L346.82,299.31L348.7,305.47L352.78,318.06L354.86,314.14L356.87,320.05L358.95,330.61L363.03,296.06L365.11,285.55L367.12,296.4L369.2,301.6L371.28,288.05L373.15,287.48L375.23,289.74L377.24,301.76L379.32,326.57L381.33,340.35L383.4,349.2L385.48,340.75L387.49,336.52L389.57,337.66L391.58,330.31L393.66,334.14L395.73,335.13L397.61,353.13L399.69,364.35L401.7,358.32L403.77,342.11L405.78,318.64L407.86,321.42L409.94,320.93L411.95,315.34L414.03,298.12L416.04,279.1L418.11,278.95L420.19,298.22L422.13,332.22L426.22,348.52L428.3,324.55L430.31,320.77L432.39,330.95L434.46,344.33L436.47,343.95L440.56,302.85L442.64,305.12L444.71,296.5L446.59,305.56L448.67,303.61L450.68,291.22L454.76,269.59L456.84,291.21L458.92,294.58L460.93,284.23L465.02,250.81L467.09,252.32L469.17,242.06L471.05,226.9L473.12,216.61L475.13,213.17L477.21,229.54L479.22,227.44L481.3,230.85L483.38,230.51L485.39,236.68L487.46,234.02L489.47,239.1L491.55,230.17L495.5,206.01L497.58,214.94L499.59,217.14L501.67,211.99L503.68,187.44L505.76,174.06L507.83,161.49L509.84,167.69L511.92,162.65L513.93,142.74L516.01,135.1L518.08,139.66L520.03,163.41L522.11,172.63L526.19,220.54L528.2,233.16L530.28,241.63L532.36,243.02L534.37,257.92L536.44,257.25L538.45,249.6L540.53,237.14L542.61,217.16L544.49,213.56L546.56,213.1L548.57,198.96L550.65,181.57L552.66,155.97L554.74,157.55L556.81,156.21L560.9,187.38L562.91,182.15L564.99,181.26L567.07,163.85L568.94,168.57L571.02,160.28L573.03,153.43L575.11,133.23L577.12,123.9L579.19,123.93L581.27,120.79L583.28,102.78L587.37,84.08L589.45,88.38L593.4,72.86L595.48,56.31L597.49,41.68L599.56,42.42L601.57,42.77L603.65,45.76L605.73,28.2L607.74,32.79L609.82,44.05L611.83,75.25L613.9,93.88L615.98,102.44L617.92,90.21L620,59.49" style="vector-effect: none; fill: none; stroke: rgb(128, 0, 128); stroke-opacity: 1; stroke-width: 2px; opacity: 1;"/></g><g class="points"/><g class="text"/></g><g class="trace scatter trace18496a" style="stroke-miterlimit: 2; opacity: 1;"><g class="fills"/><g class="errorbars"/><g class="lines"><path class="js-line" d="M0,476.55L2.08,477.65L4.15,475.78L6.03,479.74L8.11,480.03L10.12,480.23L12.19,478.58L14.21,472.65L16.28,472.37L18.36,467.79L20.37,465.9L24.46,453L26.53,453.3L28.61,453.48L30.55,458.57L36.72,451.77L38.73,447.4L40.81,447.62L42.88,444.84L44.89,449.99L46.97,449.92L51.06,451.84L53.14,451.53L55.01,453.98L57.09,453.33L61.18,456.66L63.19,457.02L65.26,461.57L67.34,459.33L69.35,461.82L71.43,460.24L73.44,459.51L75.51,455.94L77.59,451.73L79.47,455.03L81.55,460.83L83.56,462.38L85.63,465.83L87.64,460.27L89.72,462.21L91.8,454.3L93.81,457.52L95.88,454.7L97.89,453.14L99.97,449.22L102.05,445.78L103.93,450.4L110.09,463.79L112.1,461.77L114.18,460.96L116.25,452.83L124.43,438.71L126.51,438.18L134.61,451.61L136.62,449.99L138.7,451.65L140.78,443.53L142.79,444.57L144.87,441.19L146.88,442.14L148.95,441.19L151.03,436.22L152.91,441.05L154.98,438.34L156.99,442.3L159.07,438.2L161.08,438.86L163.16,439.74L165.24,437.63L167.25,439.86L169.32,435.54L171.33,432.82L173.41,426.9L175.49,424.09L177.36,428.43L181.45,433.12L183.53,433.69L185.54,430.65L187.61,431.49L189.69,424.54L191.7,424.86L193.78,421.22L195.79,419.49L197.87,417.01L199.94,412.8L201.82,416.89L203.9,416.91L207.98,415.8L209.99,412.54L212.07,414.46L214.15,407.61L216.16,406.37L218.24,399.96L224.4,386.54L226.34,385.63L228.42,384.02L230.43,385.88L232.51,388.53L234.52,387.07L236.6,388.9L238.67,384.35L240.68,389.33L242.76,388.79L244.77,391.35L246.85,387.52L248.92,385.58L250.8,391.89L254.89,402.8L256.97,405.13L258.98,402.66L261.05,406.45L263.13,402.42L265.14,407.5L271.3,401.1L273.38,400.34L275.26,404.39L277.33,403.9L281.42,403.01L283.43,401.06L285.51,398.62L287.59,386.41L289.6,383.28L291.67,376.23L293.68,375.37L295.76,372.68L297.84,372.02L299.71,375.9L301.79,378.2L303.8,384.89L305.88,388.9L307.89,387.79L309.97,388.9L312.04,383.52L314.05,384.57L316.13,379.32L318.14,377.26L320.22,372.72L322.3,368.59L324.24,370.51L326.32,373.49L328.33,374.14L330.4,378.14L332.41,375.84L334.49,382.37L336.57,372.19L338.58,370.59L340.65,362.79L342.67,363.39L344.74,361.99L346.82,358.23L348.7,359.95L350.77,357.06L352.78,359.72L356.87,368.13L358.95,373.35L361.02,370.53L363.03,375.58L365.11,374.66L367.12,377.07L369.2,375.09L371.28,370.32L373.15,368.56L375.23,364.02L379.32,366.53L381.33,362.63L383.4,363.66L385.48,362.18L387.49,368.92L389.57,368.75L391.58,364.65L393.66,363.33L395.73,356.53L397.61,355.59L399.69,350.74L401.7,351.19L403.77,348.1L405.78,339.44L409.94,334.94L411.95,334.52L416.04,314.16L418.11,315.25L420.19,316.49L422.13,326.74L424.21,325.6L426.22,329.86L428.3,329.39L430.31,332.52L432.39,338.25L434.46,341.7L436.47,340.76L438.55,336.55L440.56,330.43L442.64,333.93L444.71,330.89L446.59,334.24L450.68,329.7L452.75,323.22L454.76,314.38L456.84,311.95L460.93,304.9L463.01,298.5L465.02,291.29L467.09,293.97L469.17,293.7L471.05,300.21L473.12,295.61L475.13,297.94L479.22,294.5L481.3,292.33L485.39,290.05L487.46,284.66L489.47,279.74L491.55,277.25L493.63,275.73L495.5,276.07L499.59,275.3L501.67,270.26L503.68,263.42L505.76,262.43L507.83,261.01L509.84,264.72L518.08,253.46L520.03,255.77L522.11,265.31L524.12,283.27L526.19,298.35L528.2,298.97L532.36,292.59L534.37,293.76L540.53,274.34L542.61,270.8L544.49,273.14L546.56,271.45L548.57,270.27L550.65,263.8L552.66,255.39L554.74,265.46L558.82,288.61L560.9,278.03L562.91,263.68L564.99,254.89L567.07,248.13L568.94,249.18L573.03,235.81L575.11,224.76L577.12,220.2L579.19,218.2L581.27,217.3L583.28,208.27L585.36,201.85L587.37,192.02L589.45,196.17L591.52,192.02L593.4,196.85L595.48,189.05L597.49,186.27L599.56,178.97L601.57,175.51L603.65,177.39L607.74,180.12L609.82,175.54L611.83,172.06L613.9,178.83L615.98,179.22L617.92,181.69L620,175.04" style="vector-effect: none; fill: none; stroke: rgb(0, 0, 128); stroke-opacity: 1; stroke-width: 2px; opacity: 1;"/></g><g class="points"/><g class="text"/></g><g class="trace scatter tracee920aa" style="stroke-miterlimit: 2; opacity: 1;"><g class="fills"/><g class="errorbars"/><g class="lines"><path class="js-line" d="M0,535.8L18.36,511.47L20.37,508.95L38.73,487.21L40.81,484.89L59.1,465.61L61.18,463.54L81.55,444.62L83.56,442.87L102.05,427.78L103.93,426.35L122.35,413.08L124.43,411.68L146.88,397.63L148.95,396.43L171.33,384.36L173.41,383.32L199.94,371.05L201.82,370.25L232.51,358.05L234.52,357.3L281.42,340.91L283.43,340.23L336.57,321.61L338.58,320.86L371.28,307.59L373.15,306.77L399.69,294.11L401.7,293.07L424.21,280.53L426.22,279.33L446.59,266.22L448.67,264.79L469.17,249.62L471.05,248.14L491.55,230.73L493.63,228.84L511.92,211.18L513.93,209.12L532.36,189.07L534.37,186.75L552.66,164.42L554.74,161.74L573.03,136.78L575.11,133.79L593.4,106L595.48,102.67L613.9,71.62L615.98,67.93L620,60.7" style="vector-effect: none; fill: none; stroke: rgb(186, 85, 211); stroke-opacity: 1; stroke-width: 2px; opacity: 1;"/></g><g class="points"/><g class="text"/></g></g></g><g class="overplot"/><path class="xlines-above crisp" d="M0,0" style="fill: none;"/><path class="ylines-above crisp" d="M0,0" style="fill: none;"/><g class="overlines-above"/><g class="xaxislayer-above"><g class="xtick"><text text-anchor="middle" x="0" y="597" transform="translate(71.53,0)" style="font-family: 'Open Sans', verdana, arial, sans-serif; font-size: 12px; fill: rgb(42, 63, 95); fill-opacity: 1; white-space: pre; opacity: 1;">2000</text></g><g class="xtick"><text text-anchor="middle" x="0" y="597" style="font-family: 'Open Sans', verdana, arial, sans-serif; font-size: 12px; fill: rgb(42, 63, 95); fill-opacity: 1; white-space: pre; opacity: 1;" transform="translate(193.95,0)">2005</text></g><g class="xtick"><text text-anchor="middle" x="0" y="597" style="font-family: 'Open Sans', verdana, arial, sans-serif; font-size: 12px; fill: rgb(42, 63, 95); fill-opacity: 1; white-space: pre; opacity: 1;" transform="translate(316.3,0)">2010</text></g><g class="xtick"><text text-anchor="middle" x="0" y="597" style="font-family: 'Open Sans', verdana, arial, sans-serif; font-size: 12px; fill: rgb(42, 63, 95); fill-opacity: 1; white-space: pre; opacity: 1;" transform="translate(438.66,0)">2015</text></g><g class="xtick"><text text-anchor="middle" x="0" y="597" style="font-family: 'Open Sans', verdana, arial, sans-serif; font-size: 12px; fill: rgb(42, 63, 95); fill-opacity: 1; white-space: pre; opacity: 1;" transform="translate(561.01,0)">2020</text></g></g><g class="yaxislayer-above"><g class="ytick"><text text-anchor="end" x="44" y="4.199999999999999" transform="translate(0,546.15)" style="font-family: 'Open Sans', verdana, arial, sans-serif; font-size: 12px; fill: rgb(42, 63, 95); fill-opacity: 1; white-space: pre; opacity: 1;">0.9</text></g><g class="ytick"><text text-anchor="end" x="44" y="4.199999999999999" style="font-family: 'Open Sans', verdana, arial, sans-serif; font-size: 12px; fill: rgb(42, 63, 95); fill-opacity: 1; white-space: pre; opacity: 1;" transform="translate(0,473.3)">1</text></g><g class="ytick"><text text-anchor="end" x="44" y="4.199999999999999" style="font-family: 'Open Sans', verdana, arial, sans-serif; font-size: 12px; fill: rgb(42, 63, 95); fill-opacity: 1; white-space: pre; opacity: 1;" transform="translate(0,400.45)">1.1</text></g><g class="ytick"><text text-anchor="end" x="44" y="4.199999999999999" style="font-family: 'Open Sans', verdana, arial, sans-serif; font-size: 12px; fill: rgb(42, 63, 95); fill-opacity: 1; white-space: pre; opacity: 1;" transform="translate(0,327.6)">1.2</text></g><g class="ytick"><text text-anchor="end" x="44" y="4.199999999999999" style="font-family: 'Open Sans', verdana, arial, sans-serif; font-size: 12px; fill: rgb(42, 63, 95); fill-opacity: 1; white-space: pre; opacity: 1;" transform="translate(0,254.74)">1.3</text></g><g class="ytick"><text text-anchor="end" x="44" y="4.199999999999999" style="font-family: 'Open Sans', verdana, arial, sans-serif; font-size: 12px; fill: rgb(42, 63, 95); fill-opacity: 1; white-space: pre; opacity: 1;" transform="translate(0,181.89)">1.4</text></g><g class="ytick"><text text-anchor="end" x="44" y="4.199999999999999" style="font-family: 'Open Sans', verdana, arial, sans-serif; font-size: 12px; fill: rgb(42, 63, 95); fill-opacity: 1; white-space: pre; opacity: 1;" transform="translate(0,109.04)">1.5</text></g><g class="ytick"><text text-anchor="end" x="44" y="4.199999999999999" style="font-family: 'Open Sans', verdana, arial, sans-serif; font-size: 12px; fill: rgb(42, 63, 95); fill-opacity: 1; white-space: pre; opacity: 1;" transform="translate(0,36.19)">1.6</text></g></g><g class="overaxes-above"/></g></g><g class="polarlayer"/><g class="smithlayer"/><g class="ternarylayer"/><g class="geolayer"/><g class="funnelarealayer"/><g class="pielayer"/><g class="iciclelayer"/><g class="treemaplayer"/><g class="sunburstlayer"/><g class="glimages"/><defs id="topdefs-e9dc7b"><g class="clips"/><clipPath id="legende9dc7b"><rect width="123" height="67" x="0" y="0"/></clipPath></defs><g class="layer-above"><g class="imagelayer"/><g class="shapelayer"/></g><g class="infolayer"><g class="legend" pointer-events="all" transform="translate(677,20)"><rect class="bg" shape-rendering="crispEdges" width="123" height="67" x="0" y="0" style="stroke: rgb(68, 68, 68); stroke-opacity: 1; fill: rgb(255, 255, 255); fill-opacity: 1; stroke-width: 0px;"/><g class="scrollbox" transform="" clip-path="url(#legende9dc7b)"><g class="groups"><g class="traces" transform="translate(0,14.5)" style="opacity: 1;"><text class="legendtext" text-anchor="start" x="40" y="4.680000000000001" style="font-family: 'Open Sans', verdana, arial, sans-serif; font-size: 12px; fill: rgb(42, 63, 95); fill-opacity: 1; white-space: pre;">Hunter</text><g class="layers" style="opacity: 1;"><g class="legendfill"/><g class="legendlines"><path class="js-line" d="M5,0h30" style="fill: none; stroke: rgb(128, 0, 128); stroke-opacity: 1; stroke-width: 2px;"/></g><g class="legendsymbols"><g class="legendpoints"/></g></g><rect class="legendtoggle" x="0" y="-9.5" width="117.5" height="19" style="fill: rgb(0, 0, 0); fill-opacity: 0;"/></g><g class="traces" transform="translate(0,33.5)" style="opacity: 1;"><text class="legendtext" text-anchor="start" x="40" y="4.680000000000001" style="font-family: 'Open Sans', verdana, arial, sans-serif; font-size: 12px; fill: rgb(42, 63, 95); fill-opacity: 1; white-space: pre;">NSW</text><g class="layers" style="opacity: 1;"><g class="legendfill"/><g class="legendlines"><path class="js-line" d="M5,0h30" style="fill: none; stroke: rgb(0, 0, 128); stroke-opacity: 1; stroke-width: 2px;"/></g><g class="legendsymbols"><g class="legendpoints"/></g></g><rect class="legendtoggle" x="0" y="-9.5" width="117.5" height="19" style="fill: rgb(0, 0, 0); fill-opacity: 0;"/></g><g class="traces" transform="translate(0,52.5)" style="opacity: 1;"><text class="legendtext" text-anchor="start" x="40" y="4.680000000000001" style="font-family: 'Open Sans', verdana, arial, sans-serif; font-size: 12px; fill: rgb(42, 63, 95); fill-opacity: 1; white-space: pre;">Hunter trend</text><g class="layers" style="opacity: 1;"><g class="legendfill"/><g class="legendlines"><path class="js-line" d="M5,0h30" style="fill: none; stroke: rgb(186, 85, 211); stroke-opacity: 1; stroke-width: 2px;"/></g><g class="legendsymbols"><g class="legendpoints"/></g></g><rect class="legendtoggle" x="0" y="-9.5" width="117.5" height="19" style="fill: rgb(0, 0, 0); fill-opacity: 0;"/></g></g></g><rect class="scrollbar" rx="20" ry="3" width="0" height="0" x="0" y="0" style="fill: rgb(128, 139, 164); fill-opacity: 1;"/></g><g class="g-gtitle"/><g class="g-xtitle"/><g class="g-ytitle" transform="translate(13.9248046875,0)"><text class="ytitle" transform="rotate(-90,0.07500000000000284,302)" x="0.07500000000000284" y="302" text-anchor="middle" style="font-family: 'Open Sans', verdana, arial, sans-serif; font-size: 14px; fill: rgb(42, 63, 95); opacity: 1; font-weight: normal; white-space: pre;">Growth in Employment</text></g></g></svg>