<svg class="main-svg" xmlns="http://www.w3.org/2000/svg" xmlns:xlink="http://www.w3.org/1999/xlink" width="800" height="600" style="" viewBox="0 0 800 600"><rect x="0" y="0" width="800" height="600" style="fill: rgb(255, 255, 255); fill-opacity: 1;"/><defs id="defs-5f91b9"><g class="clips"><clipPath id="clip5f91b9xyplot" class="plotclip"><rect width="650" height="564"/></clipPath><clipPath id="clip5f91b9xy2plot" class="plotclip"><rect width="650" height="564"/></clipPath><clipPath class="axesclip" id="clip5f91b9x"><rect x="49" y="0" width="650" height="600"/></clipPath><clipPath class="axesclip" id="clip5f91b9y"><rect x="0" y="20" width="800" height="564"/></clipPath><clipPath class="axesclip" id="clip5f91b9xy"><rect x="49" y="20" width="650" height="564"/></clipPath><clipPath class="axesclip" id="clip5f91b9y2"><rect x="0" y="20" width="800" height="564"/></clipPath><clipPath class="axesclip" id="clip5f91b9xy2"><rect x="49" y="20" width="650" height="564"/></clipPath></g><g class="gradients"/><g class="patterns"/></defs><g class="bglayer"/><g class="layer-below"><g class="imagelayer"/><g class="shapelayer"/></g><g class="cartesianlayer"><g class="subplot xy"><g class="layer-subplot"><g class="shapelayer"/><g class="imagelayer"/></g><g class="minor-gridlayer"><g class="x"/><g class="y"/><g class="y2"/></g><g class="gridlayer"><g class="x"><path class="xgrid crisp" transform="translate(76.82,0)" d="M0,20v564" style="stroke: rgb(235, 240, 248); stroke-opacity: 1; stroke-width: 1px;"/><path class="xgrid crisp" transform="translate(205.16,0)" d="M0,20v564" style="stroke: rgb(235, 240, 248); stroke-opacity: 1; stroke-width: 1px;"/><path class="xgrid crisp" transform="translate(333.43,0)" d="M0,20v564" style="stroke: rgb(235, 240, 248); stroke-opacity: 1; stroke-width: 1px;"/><path class="xgrid crisp" transform="translate(461.7,0)" d="M0,20v564" style="stroke: rgb(235, 240, 248); stroke-opacity: 1; stroke-width: 1px;"/><path class="xgrid crisp" transform="translate(589.98,0)" d="M0,20v564" style="stroke: rgb(235, 240, 248); stroke-opacity: 1; stroke-width: 1px;"/></g><g class="y"><path class="ygrid crisp" transform="translate(0,510.35)" d="M49,0h650" style="stroke: rgb(235, 240, 248); stroke-opacity: 1; stroke-width: 1px;"/><path class="ygrid crisp" transform="translate(0,417.56)" d="M49,0h650" style="stroke: rgb(235, 240, 248); stroke-opacity: 1; stroke-width: 1px;"/><path class="ygrid crisp" transform="translate(0,324.77)" d="M49,0h650" style="stroke: rgb(235, 240, 248); stroke-opacity: 1; stroke-width: 1px;"/><path class="ygrid crisp" transform="translate(0,231.98)" d="M49,0h650" style="stroke: rgb(235, 240, 248); stroke-opacity: 1; stroke-width: 1px;"/><path class="ygrid crisp" transform="translate(0,139.18)" d="M49,0h650" style="stroke: rgb(235, 240, 248); stroke-opacity: 1; stroke-width: 1px;"/><path class="ygrid crisp" transform="translate(0,46.39)" d="M49,0h650" style="stroke: rgb(235, 240, 248); stroke-opacity: 1; stroke-width: 1px;"/></g><g class="y2"><path class="y2grid crisp" transform="translate(0,540.84)" d="M49,0h650" style="stroke: rgb(235, 240, 248); stroke-opacity: 1; stroke-width: 1px;"/><path class="y2grid crisp" transform="translate(0,434.42)" d="M49,0h650" style="stroke: rgb(235, 240, 248); stroke-opacity: 1; stroke-width: 1px;"/><path class="y2grid crisp" transform="translate(0,328)" d="M49,0h650" style="stroke: rgb(235, 240, 248); stroke-opacity: 1; stroke-width: 1px;"/><path class="y2grid crisp" transform="translate(0,221.58)" d="M49,0h650" style="stroke: rgb(235, 240, 248); stroke-opacity: 1; stroke-width: 1px;"/><path class="y2grid crisp" transform="translate(0,115.16)" d="M49,0h650" style="stroke: rgb(235, 240, 248); stroke-opacity: 1; stroke-width: 1px;"/></g></g><g class="zerolinelayer"/><path class="xlines-below"/><path class="ylines-below"/><g class="overlines-below"><path class="xy2-x"/><path class="xy2-y"/></g><g class="xaxislayer-below"/><g class="yaxislayer-below"/><g class="overaxes-below"><g class="xy2-x"/><g class="xy2-y"/></g><g class="plot" transform="translate(49,20)" clip-path="url(#clip5f91b9xyplot)"><g class="scatterlayer mlayer"><g class="trace scatter traceafd7f3" style="stroke-miterlimit: 2; opacity: 1;"><g class="fills"/><g class="errorbars"/><g class="lines"><path class="js-line" d="M0,488.19L4.36,510.73L6.32,525.04L8.5,532.79L10.61,534.14L14.89,504.08L17.07,499.95L19.25,501.58L21.36,506.57L23.53,494.58L25.64,476.48L27.82,472.05L30,474.42L32.03,482.5L34.21,473.59L36.32,467.36L38.5,469.23L40.6,469.14L42.78,478.02L47.07,499.13L49.24,501.53L51.35,496.97L53.53,498.17L55.71,488.63L57.67,488.13L59.85,487.56L61.96,491.49L64.14,495.44L66.24,496.21L68.42,507.32L70.6,500.78L72.71,501.09L74.88,489.23L79.17,474.76L81.35,483.41L85.49,506.5L87.6,518.26L89.78,535.8L91.88,535L94.06,522.68L96.24,501.95L98.35,503.15L100.52,495.76L102.63,500.76L104.81,503.37L108.95,491.07L111.13,480.91L115.42,499.84L117.52,506.27L119.7,507.08L121.88,491.06L126.16,455.66L128.27,458.21L130.45,465.24L132.63,458.28L134.66,446.53L136.84,442.51L141.13,458.49L143.23,445.8L147.59,420.73L149.7,417.75L151.88,422.15L153.98,420.44L156.16,416.86L158.34,404.79L160.3,404.84L162.48,411.91L164.59,427.94L166.77,433.23L168.87,436.77L171.05,425.88L173.23,417.03L175.34,424.97L177.52,417.66L179.62,426.35L181.8,397.06L183.98,397.19L185.95,393.22L188.12,413.13L190.23,420.34L192.41,416.67L194.52,401.1L196.69,406.07L198.87,391.32L200.98,394.31L203.16,381.77L205.26,381.34L207.44,378.89L209.62,379.97L211.59,379.97L213.76,374.51L215.87,377.43L218.05,393.35L220.16,405.82L222.33,405.05L224.51,376.52L226.62,368.58L228.8,352.05L230.9,360.94L233.08,346.47L235.26,337.73L237.3,318.13L239.47,325.38L241.58,330.55L243.76,349.67L245.87,355.67L248.04,370.48L250.22,366.85L252.33,351.45L254.51,339.21L256.61,337.98L258.79,352.64L260.97,343.52L262.94,340.73L265.11,328.88L267.22,330.3L269.4,332.75L271.51,328.54L273.68,320.04L275.86,301.38L277.97,306.63L280.15,326.34L282.25,354.77L284.43,356.34L286.61,349.5L288.58,340.53L290.75,341.77L295.04,324.26L297.15,301.01L301.5,267.85L303.61,278.5L307.89,305.4L310.07,306.68L312.25,308.87L314.22,330.15L318.5,349.01L320.68,346.51L327.14,294.62L329.25,297.95L331.43,292.08L333.54,283.8L335.71,279.74L337.89,273.99L342.11,286.82L344.21,289.21L346.39,291.93L348.5,280.29L350.68,296.35L352.85,300.28L354.96,317.64L357.14,316.28L359.25,323.82L361.42,317.74L363.6,311.26L365.57,317.69L369.85,330.84L372.03,326.75L374.14,332.92L376.32,343.94L380.6,307.87L382.78,296.9L384.89,308.22L387.06,313.65L389.24,299.51L391.21,298.91L393.39,301.27L395.49,313.82L397.67,339.72L399.78,354.11L401.96,363.36L404.13,354.53L406.24,350.12L408.42,351.3L410.53,343.63L412.7,347.63L414.88,348.66L416.85,367.46L419.03,379.18L421.13,372.88L423.31,355.95L425.42,331.44L427.6,334.35L429.77,333.84L431.88,328L434.06,310.02L436.17,290.16L438.34,290L440.52,310.12L442.56,345.62L446.84,362.64L449.02,337.62L451.13,333.68L453.31,344.3L455.48,358.27L457.59,357.87L461.88,314.96L464.05,317.33L466.23,308.33L468.2,317.8L470.38,315.76L472.48,302.82L476.77,280.23L478.95,302.81L481.13,306.32L483.23,295.52L487.52,260.63L489.7,262.2L491.87,251.49L493.84,235.66L496.02,224.92L498.12,221.33L500.3,238.41L502.41,236.23L504.59,239.78L506.77,239.43L508.87,245.87L511.05,243.09L513.16,248.4L515.34,239.07L519.48,213.85L521.66,223.18L523.77,225.47L525.94,220.1L528.05,194.46L530.23,180.49L532.41,167.37L534.51,173.84L536.69,168.57L538.8,147.79L540.98,139.81L543.15,144.58L545.19,169.37L547.37,179L551.65,229.02L553.76,242.2L555.94,251.04L558.12,252.49L560.22,268.05L562.4,267.35L564.51,259.36L566.69,246.36L568.86,225.5L570.83,221.74L573.01,221.26L575.12,206.49L577.29,188.33L579.4,161.61L581.58,163.26L583.76,161.86L588.04,194.4L590.15,188.94L592.33,188.01L594.5,169.83L596.47,174.76L598.65,166.1L600.76,158.95L602.93,137.86L605.04,128.11L607.22,128.15L609.4,124.88L611.5,106.06L615.79,86.54L617.97,91.03L622.11,74.83L624.29,57.55L626.4,42.27L628.57,43.04L630.68,43.42L632.86,46.53L635.04,28.2L637.14,33L639.32,44.75L641.43,77.32L643.61,96.78L645.79,105.72L647.82,92.95L650,60.87" style="vector-effect: none; fill: none; stroke: rgb(99, 110, 250); stroke-opacity: 1; stroke-width: 2px; opacity: 1;"/></g><g class="points"/><g class="text"/></g></g></g><g class="overplot"><g class="xy2" transform="translate(49,20)" clip-path="url(#clip5f91b9xy2plot)"><g class="scatterlayer mlayer"><g class="trace scatter traceefeafe" style="stroke-miterlimit: 2; opacity: 1;"><g class="fills"/><g class="errorbars"/><g class="lines"><path class="js-line" d="M0,529.74L2.18,531.55L4.36,528.47L6.32,534.99L8.5,535.48L10.61,535.8L12.79,533.08L14.89,523.31L17.07,522.86L19.25,515.31L21.36,512.2L25.64,490.95L27.82,491.45L30,491.74L32.03,500.12L38.5,488.92L40.6,481.73L42.78,482.09L44.96,477.51L47.07,485.99L49.24,485.87L53.53,489.04L55.71,488.53L57.67,492.57L59.85,491.49L61.96,493.6L64.14,496.99L66.24,497.57L68.42,505.06L70.6,501.38L72.71,505.48L74.88,502.88L76.99,501.68L81.35,488.87L83.31,494.3L85.49,503.84L87.6,506.41L89.78,512.09L91.88,502.92L94.06,506.12L96.24,493.08L98.35,498.39L100.52,493.74L102.63,491.18L104.81,484.73L106.99,479.06L108.95,486.67L115.42,508.73L117.52,505.4L119.7,504.06L121.88,490.67L123.99,485.05L126.16,476.83L128.27,472.97L130.45,467.41L132.63,466.55L134.66,471.97L141.13,488.66L143.23,486L145.41,488.72L147.59,475.35L149.7,477.07L151.88,471.5L153.98,473.07L156.16,471.5L158.34,463.32L160.3,471.27L162.48,466.81L164.59,473.32L166.77,466.57L168.87,467.67L171.05,469.11L173.23,465.64L175.34,469.31L177.52,462.19L179.62,457.7L181.8,447.97L183.98,443.33L185.95,450.47L190.23,458.2L192.41,459.15L194.52,454.14L196.69,455.53L198.87,444.08L200.98,444.59L203.16,438.61L205.26,435.76L207.44,431.68L209.62,424.73L211.59,431.48L213.76,431.5L215.87,431.03L218.05,429.67L220.16,424.31L222.33,427.47L224.51,416.19L226.62,414.15L230.9,396.04L233.08,388.1L235.26,381.49L237.3,379.98L239.47,377.33L241.58,380.39L243.76,384.75L245.87,382.35L248.04,385.36L250.22,377.88L252.33,386.08L254.51,385.19L256.61,389.41L258.79,383.09L260.97,379.89L262.94,390.3L267.22,408.27L269.4,412.1L271.51,408.04L273.68,414.27L275.86,407.64L277.97,416.01L280.15,412.16L282.25,410.25L284.43,405.45L286.61,404.21L288.58,410.89L290.75,410.08L295.04,408.61L297.15,405.4L299.32,401.37L301.5,381.26L303.61,376.11L305.79,364.49L307.89,363.08L310.07,358.65L312.25,357.56L314.22,363.95L316.39,367.75L318.5,378.76L320.68,385.37L322.79,383.53L324.96,385.36L327.14,376.51L329.25,378.23L331.43,369.58L333.54,366.2L335.71,358.72L337.89,351.91L339.93,355.08L342.11,359.98L344.21,361.06L346.39,367.64L348.5,363.85L350.68,374.62L352.85,357.85L354.96,355.2L357.14,342.36L359.25,343.35L361.42,341.04L363.6,334.85L365.57,337.67L367.75,332.92L369.85,337.31L374.14,351.16L376.32,359.75L378.49,355.1L380.6,363.43L382.78,361.9L384.89,365.88L387.06,362.62L389.24,354.76L391.21,351.86L393.39,344.38L395.49,345.92L397.67,348.52L399.78,342.09L401.96,343.79L404.13,341.35L406.24,352.45L408.42,352.17L410.53,345.42L412.7,343.25L414.88,332.05L416.85,330.5L419.03,322.51L421.13,323.25L423.31,318.17L425.42,303.89L427.6,299.65L429.77,296.48L431.88,295.78L436.17,262.25L438.34,264.06L440.52,266.1L442.56,282.97L444.74,281.1L446.84,288.11L449.02,287.34L451.13,292.5L453.31,301.94L455.48,307.63L457.59,306.08L459.77,299.13L461.88,289.06L464.05,294.81L466.23,289.81L468.2,295.32L472.48,287.85L474.66,277.17L476.77,262.62L478.95,258.61L483.23,247L485.41,236.45L487.52,224.59L489.7,228.99L491.87,228.56L493.84,239.28L496.02,231.7L498.12,235.54L502.41,229.87L504.59,226.3L508.87,222.54L511.05,213.66L513.16,205.56L515.34,201.46L517.51,198.95L519.48,199.51L523.77,198.24L525.94,189.95L528.05,178.67L530.23,177.05L532.41,174.71L534.51,180.82L538.8,170.81L540.98,168.27L543.15,162.27L545.19,166.08L547.37,181.78L549.48,211.38L551.65,236.21L553.76,237.24L558.12,226.73L560.22,228.65L566.69,196.66L568.86,190.83L570.83,194.69L573.01,191.91L575.12,189.96L577.29,179.31L579.4,165.45L581.58,182.05L585.86,220.18L588.04,202.75L590.15,179.1L592.33,164.63L594.5,153.49L596.47,155.23L600.76,133.2L602.93,115L605.04,107.48L607.22,104.19L609.4,102.71L611.5,87.83L613.68,77.27L615.79,61.07L617.97,67.9L620.14,61.06L622.11,69.03L624.29,56.18L626.4,51.59L628.57,39.57L630.68,33.88L632.86,36.98L637.14,41.48L639.32,33.93L641.43,28.2L643.61,39.34L645.79,39.98L647.82,44.05L650,33.1" style="vector-effect: none; fill: none; stroke: rgb(239, 85, 59); stroke-opacity: 1; stroke-width: 2px; opacity: 1;"/></g><g class="points"/><g class="text"/></g></g></g></g><path class="xlines-above crisp" d="M0,0" style="fill: none;"/><path class="ylines-above crisp" d="M0,0" style="fill: none;"/><g class="overlines-above"><path class="xy2-x crisp" d="M0,0" style="fill: none;"/><path class="xy2-y crisp" d="M0,0" style="fill: none;"/></g><g class="xaxislayer-above"><g class="xtick"><text text-anchor="middle" x="0" y="597" transform="translate(76.82,0)" style="font-family: 'Open Sans', verdana, arial, sans-serif; font-size: 12px; fill: rgb(42, 63, 95); fill-opacity: 1; white-space: pre; opacity: 1;">2000</text></g><g class="xtick"><text text-anchor="middle" x="0" y="597" style="font-family: 'Open Sans', verdana, arial, sans-serif; font-size: 12px; fill: rgb(42, 63, 95); fill-opacity: 1; white-space: pre; opacity: 1;" transform="translate(205.16,0)">2005</text></g><g class="xtick"><text text-anchor="middle" x="0" y="597" style="font-family: 'Open Sans', verdana, arial, sans-serif; font-size: 12px; fill: rgb(42, 63, 95); fill-opacity: 1; white-space: pre; opacity: 1;" transform="translate(333.43,0)">2010</text></g><g class="xtick"><text text-anchor="middle" x="0" y="597" style="font-family: 'Open Sans', verdana, arial, sans-serif; font-size: 12px; fill: rgb(42, 63, 95); fill-opacity: 1; white-space: pre; opacity: 1;" transform="translate(461.7,0)">2015</text></g><g class="xtick"><text text-anchor="middle" x="0" y="597" style="font-family: 'Open Sans', verdana, arial, sans-serif; font-size: 12px; fill: rgb(42, 63, 95); fill-opacity: 1; white-space: pre; opacity: 1;" transform="translate(589.98,0)">2020</text></g></g><g class="yaxislayer-above"><g class="ytick"><text text-anchor="end" x="48" y="4.199999999999999" transform="translate(0,510.35)" style="font-family: 'Open Sans', verdana, arial, sans-serif; font-size: 12px; fill: rgb(42, 63, 95); fill-opacity: 1; white-space: pre; opacity: 1;">160</text></g><g class="ytick"><text text-anchor="end" x="48" y="4.199999999999999" style="font-family: 'Open Sans', verdana, arial, sans-serif; font-size: 12px; fill: rgb(42, 63, 95); fill-opacity: 1; white-space: pre; opacity: 1;" transform="translate(0,417.56)">180</text></g><g class="ytick"><text text-anchor="end" x="48" y="4.199999999999999" style="font-family: 'Open Sans', verdana, arial, sans-serif; font-size: 12px; fill: rgb(42, 63, 95); fill-opacity: 1; white-space: pre; opacity: 1;" transform="translate(0,324.77)">200</text></g><g class="ytick"><text text-anchor="end" x="48" y="4.199999999999999" style="font-family: 'Open Sans', verdana, arial, sans-serif; font-size: 12px; fill: rgb(42, 63, 95); fill-opacity: 1; white-space: pre; opacity: 1;" transform="translate(0,231.98)">220</text></g><g class="ytick"><text text-anchor="end" x="48" y="4.199999999999999" style="font-family: 'Open Sans', verdana, arial, sans-serif; font-size: 12px; fill: rgb(42, 63, 95); fill-opacity: 1; white-space: pre; opacity: 1;" transform="translate(0,139.18)">240</text></g><g class="ytick"><text text-anchor="end" x="48" y="4.199999999999999" style="font-family: 'Open Sans', verdana, arial, sans-serif; font-size: 12px; fill: rgb(42, 63, 95); fill-opacity: 1; white-space: pre; opacity: 1;" transform="translate(0,46.39)">260</text></g></g><g class="overaxes-above"><g class="xy2-x"/><g class="xy2-y"><g class="y2tick"><text text-anchor="start" x="700" y="4.199999999999999" transform="translate(0,540.84)" style="font-family: 'Open Sans', verdana, arial, sans-serif; font-size: 12px; fill: rgb(42, 63, 95); fill-opacity: 1; white-space: pre; opacity: 1;">2200</text></g><g class="y2tick"><text text-anchor="start" x="700" y="4.199999999999999" style="font-family: 'Open Sans', verdana, arial, sans-serif; font-size: 12px; fill: rgb(42, 63, 95); fill-opacity: 1; white-space: pre; opacity: 1;" transform="translate(0,434.42)">2400</text></g><g class="y2tick"><text text-anchor="start" x="700" y="4.199999999999999" style="font-family: 'Open Sans', verdana, arial, sans-serif; font-size: 12px; fill: rgb(42, 63, 95); fill-opacity: 1; white-space: pre; opacity: 1;" transform="translate(0,328)">2600</text></g><g class="y2tick"><text text-anchor="start" x="700" y="4.199999999999999" style="font-family: 'Open Sans', verdana, arial, sans-serif; font-size: 12px; fill: rgb(42, 63, 95); fill-opacity: 1; white-space: pre; opacity: 1;" transform="translate(0,221.58)">2800</text></g><g class="y2tick"><text text-anchor="start" x="700" y="4.199999999999999" style="font-family: 'Open Sans', verdana, arial, sans-serif; font-size: 12px; fill: rgb(42, 63, 95); fill-opacity: 1; white-space: pre; opacity: 1;" transform="translate(0,115.16)">3000</text></g></g></g></g><g class="subplot xy2"/></g><g class="polarlayer"/><g class="smithlayer"/><g class="ternarylayer"/><g class="geolayer"/><g class="funnelarealayer"/><g class="pielayer"/><g class="iciclelayer"/><g class="treemaplayer"/><g class="sunburstlayer"/><g class="glimages"/><defs id="topdefs-5f91b9"><g class="clips"/><clipPath id="legend5f91b9"><rect width="88" height="48" x="0" y="0"/></clipPath></defs><g class="layer-above"><g class="imagelayer"/><g class="shapelayer"/></g><g class="infolayer"><g class="legend" pointer-events="all" transform="translate(712,20)"><rect class="bg" shape-rendering="crispEdges" width="88" height="48" x="0" y="0" style="stroke: rgb(68, 68, 68); stroke-opacity: 1; fill: rgb(255, 255, 255); fill-opacity: 1; stroke-width: 0px;"/><g class="scrollbox" transform="" clip-path="url(#legend5f91b9)"><g class="groups"><g class="traces" transform="translate(0,14.5)" style="opacity: 1;"><text class="legendtext" text-anchor="start" x="40" y="4.680000000000001" style="font-family: 'Open Sans', verdana, arial, sans-serif; font-size: 12px; fill: rgb(42, 63, 95); fill-opacity: 1; white-space: pre;">Hunter</text><g class="layers" style="opacity: 1;"><g class="legendfill"/><g class="legendlines"><path class="js-line" d="M5,0h30" style="fill: none; stroke: rgb(99, 110, 250); stroke-opacity: 1; stroke-width: 2px;"/></g><g class="legendsymbols"><g class="legendpoints"/></g></g><rect class="legendtoggle" x="0" y="-9.5" width="82.09375" height="19" style="fill: rgb(0, 0, 0); fill-opacity: 0;"/></g><g class="traces" transform="translate(0,33.5)" style="opacity: 1;"><text class="legendtext" text-anchor="start" x="40" y="4.680000000000001" style="font-family: 'Open Sans', verdana, arial, sans-serif; font-size: 12px; fill: rgb(42, 63, 95); fill-opacity: 1; white-space: pre;">NSW</text><g class="layers" style="opacity: 1;"><g class="legendfill"/><g class="legendlines"><path class="js-line" d="M5,0h30" style="fill: none; stroke: rgb(239, 85, 59); stroke-opacity: 1; stroke-width: 2px;"/></g><g class="legendsymbols"><g class="legendpoints"/></g></g><rect class="legendtoggle" x="0" y="-9.5" width="82.09375" height="19" style="fill: rgb(0, 0, 0); fill-opacity: 0;"/></g></g></g><rect class="scrollbar" rx="20" ry="3" width="0" height="0" x="0" y="0" style="fill: rgb(128, 139, 164); fill-opacity: 1;"/></g><g class="g-gtitle"/><g class="g-xtitle"/><g class="g-ytitle" transform="translate(13.1904296875,0)"><text class="ytitle" transform="rotate(-90,0.8093750000000028,302)" x="0.8093750000000028" y="302" text-anchor="middle" style="font-family: 'Open Sans', verdana, arial, sans-serif; font-size: 14px; fill: rgb(42, 63, 95); opacity: 1; font-weight: normal; white-space: pre;">Hunter Employment ('000)</text></g><g class="g-y2title"><text class="y2title" transform="rotate(-90,754.815625,302)" x="754.815625" y="302" text-anchor="middle" style="font-family: 'Open Sans', verdana, arial, sans-serif; font-size: 14px; fill: rgb(42, 63, 95); opacity: 1; font-weight: normal; white-space: pre;">NSW Employment ('000)</text></g></g></svg>