<svg class="main-svg" xmlns="http://www.w3.org/2000/svg" xmlns:xlink="http://www.w3.org/1999/xlink" width="600" height="400" style="" viewBox="0 0 600 400"><rect x="0" y="0" width="600" height="400" style="fill: rgb(255, 255, 255); fill-opacity: 1;"/><defs id="defs-83e426"><g class="clips"><clipPath id="clip83e426xyplot" class="plotclip"><rect width="557" height="364"/></clipPath><clipPath class="axesclip" id="clip83e426x"><rect x="43" y="0" width="557" height="400"/></clipPath><clipPath class="axesclip" id="clip83e426y"><rect x="0" y="20" width="600" height="364"/></clipPath><clipPath class="axesclip" id="clip83e426xy"><rect x="43" y="20" width="557" height="364"/></clipPath></g><g class="gradients"/><g class="patterns"/></defs><g class="bglayer"/><g class="layer-below"><g class="imagelayer"/><g class="shapelayer"/></g><g class="cartesianlayer"><g class="subplot xy"><g class="layer-subplot"><g class="shapelayer"/><g class="imagelayer"/></g><g class="minor-gridlayer"><g class="x"/><g class="y"/></g><g class="gridlayer"><g class="x"><path class="xgrid crisp" transform="translate(166.45,0)" d="M0,20v364" style="stroke: rgb(235, 240, 248); stroke-opacity: 1; stroke-width: 1px;"/><path class="xgrid crisp" transform="translate(293.03,0)" d="M0,20v364" style="stroke: rgb(235, 240, 248); stroke-opacity: 1; stroke-width: 1px;"/><path class="xgrid crisp" transform="translate(419.64,0)" d="M0,20v364" style="stroke: rgb(235, 240, 248); stroke-opacity: 1; stroke-width: 1px;"/><path class="xgrid crisp" transform="translate(546.21,0)" d="M0,20v364" style="stroke: rgb(235, 240, 248); stroke-opacity: 1; stroke-width: 1px;"/></g><g class="y"><path class="ygrid crisp" transform="translate(0,363.8)" d="M43,0h557" style="stroke: rgb(235, 240, 248); stroke-opacity: 1; stroke-width: 1px;"/><path class="ygrid crisp" transform="translate(0,323.85)" d="M43,0h557" style="stroke: rgb(235, 240, 248); stroke-opacity: 1; stroke-width: 1px;"/><path class="ygrid crisp" transform="translate(0,283.9)" d="M43,0h557" style="stroke: rgb(235, 240, 248); stroke-opacity: 1; stroke-width: 1px;"/><path class="ygrid crisp" transform="translate(0,204)" d="M43,0h557" style="stroke: rgb(235, 240, 248); stroke-opacity: 1; stroke-width: 1px;"/><path class="ygrid crisp" transform="translate(0,164.05)" d="M43,0h557" style="stroke: rgb(235, 240, 248); stroke-opacity: 1; stroke-width: 1px;"/><path class="ygrid crisp" transform="translate(0,124.1)" d="M43,0h557" style="stroke: rgb(235, 240, 248); stroke-opacity: 1; stroke-width: 1px;"/><path class="ygrid crisp" transform="translate(0,84.14)" d="M43,0h557" style="stroke: rgb(235, 240, 248); stroke-opacity: 1; stroke-width: 1px;"/><path class="ygrid crisp" transform="translate(0,44.19)" d="M43,0h557" style="stroke: rgb(235, 240, 248); stroke-opacity: 1; stroke-width: 1px;"/></g></g><g class="zerolinelayer"><path class="yzl zl crisp" transform="translate(0,243.95)" d="M43,0h557" style="stroke: rgb(235, 240, 248); stroke-opacity: 1; stroke-width: 2px;"/></g><path class="xlines-below"/><path class="ylines-below"/><g class="overlines-below"/><g class="xaxislayer-below"/><g class="yaxislayer-below"/><g class="overaxes-below"/><g class="plot" transform="translate(43,20)" clip-path="url(#clip83e426xyplot)"><g class="scatterlayer mlayer"><g class="trace scatter trace828e4d" style="stroke-miterlimit: 2; opacity: 1;"><g class="fills"/><g class="errorbars"/><g class="lines"><path class="js-line" d="M9.53,166.02L12.65,166.02L15.8,142.05L18.99,112.09L22.18,154.03L25.3,178L28.45,189.99L31.64,243.92L34.83,267.9L37.95,271.89L41.11,293.86L50.64,88.11L53.79,62.15L56.98,100.1L60.17,120.08L63.29,142.05L66.44,120.08L69.63,112.09L72.82,132.06L75.94,146.04L79.09,193.99L82.28,213.96L85.47,174.01L88.59,168.02L91.74,132.06L94.93,102.1L98.12,96.1L101.27,108.09L104.43,138.05L107.62,158.03L110.8,166.02L113.92,154.03L117.08,114.08L120.27,114.08L123.45,152.04L126.57,156.03L129.73,195.98L132.92,223.95L136.1,205.97L139.22,247.92L142.38,253.91L145.57,233.94L148.76,243.92L151.91,201.98L155.06,184L158.25,172.01L161.44,132.06L167.71,136.06L170.9,154.03L174.09,160.03L177.21,142.05L183.55,116.08L186.74,132.06L189.86,164.02L193.01,180L196.2,152.04L199.39,172.01L202.55,140.05L205.7,136.06L208.89,164.02L212.08,146.04L215.2,166.02L218.35,118.08L221.54,132.06L224.73,120.08L227.85,120.08L231,160.03L234.19,124.07L237.38,122.07L240.5,120.08L243.65,134.06L246.84,150.04L250.03,148.04L253.18,154.03L256.34,142.05L259.52,160.03L262.71,201.98L265.83,189.99L268.99,189.99L272.17,172.01L275.36,140.05L278.48,146.04L281.64,128.07L284.83,146.04L288.01,154.03L291.13,164.02L294.29,191.99L297.48,162.02L300.66,142.05L303.82,132.06L306.97,126.07L313.35,166.02L316.47,164.02L319.62,168.02L322.81,160.03L326,160.03L329.12,174.01L332.27,180L335.46,172.01L338.65,164.02L341.77,138.05L344.92,130.06L348.11,138.05L351.3,154.03L354.45,162.02L357.61,168.02L360.8,176.01L363.99,191.99L367.1,191.99L370.26,184L373.45,191.99L376.64,168.02L379.76,178L382.91,180L386.1,172.01L389.29,170.01L392.41,186L398.75,160.03L401.94,156.03L405.09,130.06L408.24,140.05L411.43,156.03L414.62,168.02L417.74,178L420.9,184L424.08,180L427.27,174.01L430.39,168.02L433.55,166.02L439.92,182L443.04,178L446.2,186L449.38,174.01L452.57,170.01L455.73,172.01L458.88,160.03L462.07,180L465.26,170.01L468.38,180L471.53,182L474.72,164.02L477.91,178L481.03,164.02L484.18,162.02L487.37,172.01L490.56,174.01L493.68,184L496.83,191.99L500.02,189.99L503.21,186L506.36,201.98L509.52,345.8L512.71,281.88L519.01,174.01L522.17,18.2L525.36,130.06L528.55,122.07L531.66,150.04L534.82,150.04L538.01,110.09L541.2,172.01L544.31,176.01L547.47,186L550.66,184L553.85,193.99L557,203.97" style="vector-effect: none; fill: none; stroke: rgb(9, 50, 102); stroke-opacity: 1; stroke-width: 2px; opacity: 1;"/></g><g class="points"/><g class="text"/></g></g></g><g class="overplot"/><path class="xlines-above crisp" d="M0,0" style="fill: none;"/><path class="ylines-above crisp" d="M0,0" style="fill: none;"/><g class="overlines-above"/><g class="xaxislayer-above"><g class="xtick"><text text-anchor="middle" x="0" y="397" transform="translate(166.45,0)" style="font-family: 'Open Sans', verdana, arial, sans-serif; font-size: 12px; fill: rgb(42, 63, 95); fill-opacity: 1; white-space: pre; opacity: 1;">1990</text></g><g class="xtick"><text text-anchor="middle" x="0" y="397" style="font-family: 'Open Sans', verdana, arial, sans-serif; font-size: 12px; fill: rgb(42, 63, 95); fill-opacity: 1; white-space: pre; opacity: 1;" transform="translate(293.03,0)">2000</text></g><g class="xtick"><text text-anchor="middle" x="0" y="397" style="font-family: 'Open Sans', verdana, arial, sans-serif; font-size: 12px; fill: rgb(42, 63, 95); fill-opacity: 1; white-space: pre; opacity: 1;" transform="translate(419.64,0)">2010</text></g><g class="xtick"><text text-anchor="middle" x="0" y="397" style="font-family: 'Open Sans', verdana, arial, sans-serif; font-size: 12px; fill: rgb(42, 63, 95); fill-opacity: 1; white-space: pre; opacity: 1;" transform="translate(546.21,0)">2020</text></g></g><g class="yaxislayer-above"><g class="ytick"><text text-anchor="end" x="42" y="4.199999999999999" transform="translate(0,363.8)" style="font-family: 'Open Sans', verdana, arial, sans-serif; font-size: 12px; fill: rgb(42, 63, 95); fill-opacity: 1; white-space: pre; opacity: 1;">−6</text></g><g class="ytick"><text text-anchor="end" x="42" y="4.199999999999999" style="font-family: 'Open Sans', verdana, arial, sans-serif; font-size: 12px; fill: rgb(42, 63, 95); fill-opacity: 1; white-space: pre; opacity: 1;" transform="translate(0,323.85)">−4</text></g><g class="ytick"><text text-anchor="end" x="42" y="4.199999999999999" style="font-family: 'Open Sans', verdana, arial, sans-serif; font-size: 12px; fill: rgb(42, 63, 95); fill-opacity: 1; white-space: pre; opacity: 1;" transform="translate(0,283.9)">−2</text></g><g class="ytick"><text text-anchor="end" x="42" y="4.199999999999999" style="font-family: 'Open Sans', verdana, arial, sans-serif; font-size: 12px; fill: rgb(42, 63, 95); fill-opacity: 1; white-space: pre; opacity: 1;" transform="translate(0,243.95)">0</text></g><g class="ytick"><text text-anchor="end" x="42" y="4.199999999999999" style="font-family: 'Open Sans', verdana, arial, sans-serif; font-size: 12px; fill: rgb(42, 63, 95); fill-opacity: 1; white-space: pre; opacity: 1;" transform="translate(0,204)">2</text></g><g class="ytick"><text text-anchor="end" x="42" y="4.199999999999999" style="font-family: 'Open Sans', verdana, arial, sans-serif; font-size: 12px; fill: rgb(42, 63, 95); fill-opacity: 1; white-space: pre; opacity: 1;" transform="translate(0,164.05)">4</text></g><g class="ytick"><text text-anchor="end" x="42" y="4.199999999999999" style="font-family: 'Open Sans', verdana, arial, sans-serif; font-size: 12px; fill: rgb(42, 63, 95); fill-opacity: 1; white-space: pre; opacity: 1;" transform="translate(0,124.1)">6</text></g><g class="ytick"><text text-anchor="end" x="42" y="4.199999999999999" style="font-family: 'Open Sans', verdana, arial, sans-serif; font-size: 12px; fill: rgb(42, 63, 95); fill-opacity: 1; white-space: pre; opacity: 1;" transform="translate(0,84.14)">8</text></g><g class="ytick"><text text-anchor="end" x="42" y="4.199999999999999" style="font-family: 'Open Sans', verdana, arial, sans-serif; font-size: 12px; fill: rgb(42, 63, 95); fill-opacity: 1; white-space: pre; opacity: 1;" transform="translate(0,44.19)">10</text></g></g><g class="overaxes-above"/></g></g><g class="polarlayer"/><g class="smithlayer"/><g class="ternarylayer"/><g class="geolayer"/><g class="funnelarealayer"/><g class="pielayer"/><g class="iciclelayer"/><g class="treemaplayer"/><g class="sunburstlayer"/><g class="glimages"/><defs id="topdefs-83e426"><g class="clips"/></defs><g class="layer-above"><g class="imagelayer"/><g class="shapelayer"/></g><g class="infolayer"><g class="g-gtitle"/><g class="g-xtitle"/><g class="g-ytitle" transform="translate(13.7529296875,0)"><text class="ytitle" transform="rotate(-90,0.24687500000000284,202)" x="0.24687500000000284" y="202" text-anchor="middle" style="font-family: 'Open Sans', verdana, arial, sans-serif; font-size: 14px; fill: rgb(42, 63, 95); opacity: 1; font-weight: normal; white-space: pre;">GDP Growth % p.a.</text></g></g></svg>