<svg class="main-svg" xmlns="http://www.w3.org/2000/svg" xmlns:xlink="http://www.w3.org/1999/xlink" width="800" height="600" style="" viewBox="0 0 800 600"><rect x="0" y="0" width="800" height="600" style="fill: rgb(255, 255, 255); fill-opacity: 1;"/><defs id="defs-4fa03a"><g class="clips"><clipPath id="clip4fa03axyplot" class="plotclip"><rect width="633" height="564"/></clipPath><clipPath class="axesclip" id="clip4fa03ax"><rect x="66" y="0" width="633" height="600"/></clipPath><clipPath class="axesclip" id="clip4fa03ay"><rect x="0" y="20" width="800" height="564"/></clipPath><clipPath class="axesclip" id="clip4fa03axy"><rect x="66" y="20" width="633" height="564"/></clipPath></g><g class="gradients"/><g class="patterns"/></defs><g class="bglayer"/><g class="layer-below"><g class="imagelayer"/><g class="shapelayer"/></g><g class="cartesianlayer"><g class="subplot xy"><g class="layer-subplot"><g class="shapelayer"/><g class="imagelayer"/></g><g class="minor-gridlayer"><g class="x"/><g class="y"/></g><g class="gridlayer"><g class="x"><path class="xgrid crisp" transform="translate(93.09,0)" d="M0,20v564" style="stroke: rgb(235, 240, 248); stroke-opacity: 1; stroke-width: 1px;"/><path class="xgrid crisp" transform="translate(218.08,0)" d="M0,20v564" style="stroke: rgb(235, 240, 248); stroke-opacity: 1; stroke-width: 1px;"/><path class="xgrid crisp" transform="translate(342.99,0)" d="M0,20v564" style="stroke: rgb(235, 240, 248); stroke-opacity: 1; stroke-width: 1px;"/><path class="xgrid crisp" transform="translate(467.91,0)" d="M0,20v564" style="stroke: rgb(235, 240, 248); stroke-opacity: 1; stroke-width: 1px;"/><path class="xgrid crisp" transform="translate(592.83,0)" d="M0,20v564" style="stroke: rgb(235, 240, 248); stroke-opacity: 1; stroke-width: 1px;"/></g><g class="y"><path class="ygrid crisp" transform="translate(0,581.14)" d="M66,0h633" style="stroke: rgb(235, 240, 248); stroke-opacity: 1; stroke-width: 1px;"/><path class="ygrid crisp" transform="translate(0,519.2)" d="M66,0h633" style="stroke: rgb(235, 240, 248); stroke-opacity: 1; stroke-width: 1px;"/><path class="ygrid crisp" transform="translate(0,457.27)" d="M66,0h633" style="stroke: rgb(235, 240, 248); stroke-opacity: 1; stroke-width: 1px;"/><path class="ygrid crisp" transform="translate(0,395.33)" d="M66,0h633" style="stroke: rgb(235, 240, 248); stroke-opacity: 1; stroke-width: 1px;"/><path class="ygrid crisp" transform="translate(0,333.4)" d="M66,0h633" style="stroke: rgb(235, 240, 248); stroke-opacity: 1; stroke-width: 1px;"/><path class="ygrid crisp" transform="translate(0,271.46000000000004)" d="M66,0h633" style="stroke: rgb(235, 240, 248); stroke-opacity: 1; stroke-width: 1px;"/><path class="ygrid crisp" transform="translate(0,209.53)" d="M66,0h633" style="stroke: rgb(235, 240, 248); stroke-opacity: 1; stroke-width: 1px;"/><path class="ygrid crisp" transform="translate(0,147.59)" d="M66,0h633" style="stroke: rgb(235, 240, 248); stroke-opacity: 1; stroke-width: 1px;"/><path class="ygrid crisp" transform="translate(0,85.66)" d="M66,0h633" style="stroke: rgb(235, 240, 248); stroke-opacity: 1; stroke-width: 1px;"/><path class="ygrid crisp" transform="translate(0,23.72)" d="M66,0h633" style="stroke: rgb(235, 240, 248); stroke-opacity: 1; stroke-width: 1px;"/></g></g><g class="zerolinelayer"/><path class="xlines-below"/><path class="ylines-below"/><g class="overlines-below"/><g class="xaxislayer-below"/><g class="yaxislayer-below"/><g class="overaxes-below"/><g class="plot" transform="translate(66,20)" clip-path="url(#clip4fa03axyplot)"><g class="scatterlayer mlayer"><g class="trace scatter trace7c21a0" style="stroke-miterlimit: 2; opacity: 1;"><g class="fills"/><g class="errorbars"/><g class="lines"><path class="js-line" d="M0,137.06L6.16,28.2L8.28,66.66L10.33,103.9L12.45,99.42L14.5,94.55L16.62,39.32L18.74,31.82L20.8,29.01L22.92,85.44L24.97,108.89L27.09,114.88L29.21,109.88L33.32,163.47L35.37,205.99L37.49,225.82L39.54,262.17L41.66,270.59L43.78,253.24L45.83,216.46L47.96,194.2L50.01,152.45L52.13,87.95L54.25,44.48L56.16,51.32L58.29,72.48L60.34,74.41L62.46,76.57L64.51,72.47L66.63,53.94L68.75,42.6L70.8,41.62L72.93,70.92L74.98,89.63L77.1,80.91L79.22,83.78L81.13,88.51L83.26,103.73L85.31,69.02L87.43,73.93L89.48,127.18L91.6,214.24L93.72,263.11L95.77,295.1L97.9,286.79L99.95,243.09L102.07,163.28L104.19,158.21L106.1,194.77L108.23,261.48L110.28,265.15L114.45,237.61L116.57,252.31L118.69,290.01L120.74,295.33L124.92,257.56L127.04,238.91L129.16,228.94L131.14,209.68L133.26,228.35L135.32,260.85L137.44,270.99L139.49,292.39L141.61,304.19L143.73,304.69L145.78,307.35L147.9,292.45L149.96,305.26L152.08,305.03L154.2,296.32L156.11,298.65L158.23,302.41L160.29,348.76L162.41,343.37L164.46,342.13L166.58,344.16L168.7,350.01L172.87,293.32L174.92,297.62L181.08,242.79L183.2,249.94L185.25,276.54L187.38,292.53L189.43,355.21L191.55,346.04L193.67,360.13L195.72,348.67L197.84,357.01L199.89,373.47L202.02,350.69L204.14,361.06L206.05,362.17L208.17,381.57L210.22,386.93L212.35,381.31L214.4,409.95L216.52,428.15L218.64,443.06L220.69,421.08L222.81,395.06L224.86,358.11L226.99,284.18L229.11,287.14L233.21,397.53L235.26,406.24L237.38,377.42L239.44,405.9L241.56,414.83L243.68,434.66L245.73,445.47L247.85,434.67L249.9,407.1L252.02,348.66L254.14,329.98L256.06,303.52L258.18,300.39L260.23,311.31L264.41,342.93L266.53,365.16L268.65,396.64L270.7,413.68L274.87,358.75L276.99,336.02L279.11,330.69L281.03,336.66L285.2,397.43L287.32,414.17L289.38,410.28L291.5,427.99L293.62,428.7L295.67,409.63L297.79,398.96L299.84,398L301.96,433.07L304.08,395.89L308.12,350.16L310.17,378.52L316.47,498.58L318.59,465.86L320.64,407.56L322.76,382.53L326.93,427.38L329.05,426.07L331.04,395.54L333.16,400.33L335.21,380.19L337.33,398.52L339.38,397.34L341.5,414.02L345.68,345.66L347.8,355.32L351.97,408.44L354.09,358.55L358.13,324.96L360.18,300.31L364.35,313.22L366.47,390.55L368.59,400.51L370.65,417.99L372.77,419.03L374.82,436.27L376.94,402.03L379.06,334.95L380.98,270.15L383.1,257.19L385.15,265.74L387.27,279.27L389.32,261.9L391.44,223.09L393.56,196.46L395.62,190.63L397.74,181.38L399.79,188.28L401.91,131.9L404.03,101.71L405.95,49.03L408.07,83.89L414.29,208.65L416.41,212.72L418.53,248.75L420.59,245.3L422.71,270.13L424.76,259.09L426.88,261.1L429,300.06L433.11,356.96L435.16,343.12L439.33,328.38L441.45,329.42L443.57,336.67L445.62,381.68L447.75,403.11L449.8,396.75L451.92,393.25L454.04,359.55L455.95,343.12L458.08,332.2L460.13,363.27L462.25,370.7L464.3,380.33L466.42,336.05L468.54,353.23L470.59,348.69L472.71,394.61L474.77,385.93L479.01,303.63L480.92,276.98L483.04,283.34L485.1,274.76L489.27,351.33L491.39,337.47L493.51,338.47L495.56,345.88L497.68,408.96L499.74,395.56L503.98,369.55L505.89,373.75L508.01,386.34L510.07,386.97L512.19,367.97L514.24,373.59L516.36,388.32L518.48,430.49L520.53,435.58L522.65,418.73L524.71,402.36L526.83,414.65L528.95,411.33L530.93,391.91L539.28,141.93L541.4,180.18L545.57,219.78L547.69,193.79L551.87,273.5L553.99,345.05L555.9,382.12L558.02,403.6L560.07,413.76L562.2,414.19L564.25,437.54L566.37,414.76L568.49,432.84L570.54,409.92L574.71,445.32L576.84,457.04L578.96,452.44L580.87,426.85L582.99,436.38L585.04,403.16L589.22,426.48L591.34,456.36L593.46,469.41L595.51,472.53L597.63,480.91L599.68,485.46L601.8,468.72L603.93,468.23L605.84,448.62L607.96,482.47L610.01,501.3L612.13,535.8L614.19,534.89L616.31,527.4L618.43,495.23L620.48,490.53L622.6,482.19L624.65,497.04L626.77,460.37L628.9,445.3L630.88,440.86L633,468.73" style="vector-effect: none; fill: none; stroke: rgb(128, 0, 128); stroke-opacity: 1; stroke-width: 2px; opacity: 1;"/></g><g class="points"/><g class="text"/></g><g class="trace scatter traceb3df09" style="stroke-miterlimit: 2; opacity: 1;"><g class="fills"/><g class="errorbars"/><g class="lines"><path class="js-line" d="M0,286.28L2.12,268.01L4.24,259.43L6.16,248.51L8.28,259.36L14.5,331.69L16.62,325.44L18.74,302.05L20.8,298.88L24.97,346.12L27.09,331.58L29.21,301.54L31.2,296.37L39.54,372.37L41.66,380.76L43.78,383.87L45.83,377.46L47.96,372.82L50.01,363.35L52.13,345.85L54.25,319.37L56.16,315.61L58.29,316.17L60.34,332.95L62.46,329.58L64.51,334.77L66.63,328.78L68.75,319.38L70.8,303.67L72.93,300.73L74.98,306.58L79.22,284.21L81.13,275.54L85.31,301.88L87.43,310.83L91.6,337L93.72,337.43L95.77,342.71L97.9,338.06L99.95,340.08L102.07,314.68L104.19,295.15L106.1,293.41L110.28,322.82L112.4,327.8L114.45,329.89L116.57,342.95L118.69,344.26L120.74,351.8L122.86,350.87L124.92,359.2L127.04,349.46L129.16,334.94L131.14,330.32L133.26,338.21L135.32,350.27L137.44,353.77L147.9,375.96L149.96,379.23L152.08,365.26L154.2,346.26L156.11,329.84L158.23,339.48L162.41,374.75L164.46,386.26L166.58,395.86L168.7,386.3L170.75,376.51L172.87,370.41L174.92,373.65L177.05,349.29L179.17,330.36L181.08,332.51L185.25,361.45L187.38,359.09L189.43,378.32L191.55,379.71L193.67,378.63L195.72,379.13L197.84,386.2L199.89,397.05L202.02,378.74L204.14,353.25L206.05,346.06L208.17,351.76L210.22,374.46L212.35,386.27L214.4,402.16L216.52,410.61L218.64,407.64L220.69,406.16L222.81,404.64L224.86,406.49L226.99,394.47L229.11,389.08L231.09,391.05L233.21,400.35L237.38,399.02L239.44,404L241.56,407.07L243.68,400.14L245.73,385.73L247.85,378.98L249.9,372.56L252.02,351.07L256.06,277.83L258.18,276.77L260.23,280.83L262.35,293.19L266.53,322.51L268.65,341.53L270.7,331.66L272.82,332.06L274.87,325.66L276.99,323.4L279.11,320.27L281.03,320.12L283.15,324.58L285.2,337.71L291.5,377.92L293.62,380.08L297.79,372.35L299.84,383.75L301.96,385.59L304.08,376.43L306,358.57L308.12,357.93L310.17,365.75L312.29,369.35L314.35,377.04L316.47,372.13L320.64,359.45L322.76,364.3L324.81,364.39L326.93,358.1L329.05,342.6L331.04,353.08L333.16,363.28L335.21,377.17L337.33,374.18L339.38,375.89L341.5,386.82L343.62,382.43L345.68,379.1L347.8,371.65L349.85,379.27L351.97,371.99L356.01,334.33L358.13,335.17L360.18,339.46L362.3,349.34L364.35,349.96L366.47,347.96L368.59,341.2L370.65,331.54L372.77,332.27L374.82,331.8L376.94,325.89L379.06,311.57L380.98,314.59L383.1,330.76L385.15,345.01L387.27,342.85L389.32,336.11L391.44,337.99L397.74,326.39L399.79,328.11L404.03,291.24L405.95,281.68L410.12,322.25L412.24,333.68L414.29,333.37L416.41,328.47L418.53,327.3L420.59,335.65L424.76,370.79L426.88,358.29L430.98,333.29L433.11,350.74L437.28,371.22L439.33,373.38L441.45,374.53L443.57,379.87L447.75,391.36L449.8,386L454.04,351.1L455.95,344.92L462.25,396.33L464.3,390.43L466.42,385.12L468.54,388.54L472.71,406.52L474.77,402.47L479.01,363.47L480.92,351.88L483.04,365.96L485.1,374.4L487.22,389.37L489.27,391.1L491.39,394.23L493.51,400.05L497.68,421.68L499.74,421.95L501.86,423.15L503.98,411.66L505.89,404.26L508.01,399.26L512.19,403.39L514.24,405.03L518.48,412.21L520.53,407.34L524.71,407.48L526.83,404.79L530.93,376.92L533.05,347.1L537.23,289.16L539.28,272.46L543.52,265.67L545.57,280.88L547.69,290.12L549.74,303.17L553.99,300.45L555.9,308.45L564.25,383.14L566.37,389.69L568.49,400.51L570.54,384.2L572.66,390.99L574.71,403.25L576.84,419.58L578.96,426.99L580.87,422.85L582.99,443.68L585.04,443.8L587.17,460.2L589.22,464.62L591.34,476.25L593.46,476.96L595.51,483.38L599.68,495.92L601.8,486.98L605.84,470.77L607.96,471.2L610.01,479.13L612.13,491.59L614.19,494.85L616.31,483.22L618.43,474.73L620.48,472.28L622.6,479.09L624.65,478.27L626.77,455.86L628.9,443.56L630.88,429.82L633,439.71" style="vector-effect: none; fill: none; stroke: rgb(0, 0, 128); stroke-opacity: 1; stroke-width: 2px; opacity: 1;"/></g><g class="points"/><g class="text"/></g></g></g><g class="overplot"/><path class="xlines-above crisp" d="M0,0" style="fill: none;"/><path class="ylines-above crisp" d="M0,0" style="fill: none;"/><g class="overlines-above"/><g class="xaxislayer-above"><g class="xtick"><text text-anchor="middle" x="0" y="597" transform="translate(93.09,0)" style="font-family: 'Open Sans', verdana, arial, sans-serif; font-size: 12px; fill: rgb(42, 63, 95); fill-opacity: 1; white-space: pre; opacity: 1;">2000</text></g><g class="xtick"><text text-anchor="middle" x="0" y="597" style="font-family: 'Open Sans', verdana, arial, sans-serif; font-size: 12px; fill: rgb(42, 63, 95); fill-opacity: 1; white-space: pre; opacity: 1;" transform="translate(218.08,0)">2005</text></g><g class="xtick"><text text-anchor="middle" x="0" y="597" style="font-family: 'Open Sans', verdana, arial, sans-serif; font-size: 12px; fill: rgb(42, 63, 95); fill-opacity: 1; white-space: pre; opacity: 1;" transform="translate(342.99,0)">2010</text></g><g class="xtick"><text text-anchor="middle" x="0" y="597" style="font-family: 'Open Sans', verdana, arial, sans-serif; font-size: 12px; fill: rgb(42, 63, 95); fill-opacity: 1; white-space: pre; opacity: 1;" transform="translate(467.91,0)">2015</text></g><g class="xtick"><text text-anchor="middle" x="0" y="597" style="font-family: 'Open Sans', verdana, arial, sans-serif; font-size: 12px; fill: rgb(42, 63, 95); fill-opacity: 1; white-space: pre; opacity: 1;" transform="translate(592.83,0)">2020</text></g></g><g class="yaxislayer-above"><g class="ytick"><text text-anchor="end" x="65" y="4.199999999999999" transform="translate(0,581.14)" style="font-family: 'Open Sans', verdana, arial, sans-serif; font-size: 12px; fill: rgb(42, 63, 95); fill-opacity: 1; white-space: pre; opacity: 1;">2.0%</text></g><g class="ytick"><text text-anchor="end" x="65" y="4.199999999999999" style="font-family: 'Open Sans', verdana, arial, sans-serif; font-size: 12px; fill: rgb(42, 63, 95); fill-opacity: 1; white-space: pre; opacity: 1;" transform="translate(0,519.2)">3.0%</text></g><g class="ytick"><text text-anchor="end" x="65" y="4.199999999999999" style="font-family: 'Open Sans', verdana, arial, sans-serif; font-size: 12px; fill: rgb(42, 63, 95); fill-opacity: 1; white-space: pre; opacity: 1;" transform="translate(0,457.27)">4.0%</text></g><g class="ytick"><text text-anchor="end" x="65" y="4.199999999999999" style="font-family: 'Open Sans', verdana, arial, sans-serif; font-size: 12px; fill: rgb(42, 63, 95); fill-opacity: 1; white-space: pre; opacity: 1;" transform="translate(0,395.33)">5.0%</text></g><g class="ytick"><text text-anchor="end" x="65" y="4.199999999999999" style="font-family: 'Open Sans', verdana, arial, sans-serif; font-size: 12px; fill: rgb(42, 63, 95); fill-opacity: 1; white-space: pre; opacity: 1;" transform="translate(0,333.4)">6.0%</text></g><g class="ytick"><text text-anchor="end" x="65" y="4.199999999999999" style="font-family: 'Open Sans', verdana, arial, sans-serif; font-size: 12px; fill: rgb(42, 63, 95); fill-opacity: 1; white-space: pre; opacity: 1;" transform="translate(0,271.46000000000004)">7.0%</text></g><g class="ytick"><text text-anchor="end" x="65" y="4.199999999999999" style="font-family: 'Open Sans', verdana, arial, sans-serif; font-size: 12px; fill: rgb(42, 63, 95); fill-opacity: 1; white-space: pre; opacity: 1;" transform="translate(0,209.53)">8.0%</text></g><g class="ytick"><text text-anchor="end" x="65" y="4.199999999999999" style="font-family: 'Open Sans', verdana, arial, sans-serif; font-size: 12px; fill: rgb(42, 63, 95); fill-opacity: 1; white-space: pre; opacity: 1;" transform="translate(0,147.59)">9.0%</text></g><g class="ytick"><text text-anchor="end" x="65" y="4.199999999999999" style="font-family: 'Open Sans', verdana, arial, sans-serif; font-size: 12px; fill: rgb(42, 63, 95); fill-opacity: 1; white-space: pre; opacity: 1;" transform="translate(0,85.66)">10.0%</text></g><g class="ytick"><text text-anchor="end" x="65" y="4.199999999999999" style="font-family: 'Open Sans', verdana, arial, sans-serif; font-size: 12px; fill: rgb(42, 63, 95); fill-opacity: 1; white-space: pre; opacity: 1;" transform="translate(0,23.72)">11.0%</text></g></g><g class="overaxes-above"/></g></g><g class="polarlayer"/><g class="smithlayer"/><g class="ternarylayer"/><g class="geolayer"/><g class="funnelarealayer"/><g class="pielayer"/><g class="iciclelayer"/><g class="treemaplayer"/><g class="sunburstlayer"/><g class="glimages"/><defs id="topdefs-4fa03a"><g class="clips"/><clipPath id="legend4fa03a"><rect width="88" height="48" x="0" y="0"/></clipPath></defs><g class="layer-above"><g class="imagelayer"/><g class="shapelayer"/></g><g class="infolayer"><g class="legend" pointer-events="all" transform="translate(711.66,20)"><rect class="bg" shape-rendering="crispEdges" width="88" height="48" x="0" y="0" style="stroke: rgb(68, 68, 68); stroke-opacity: 1; fill: rgb(255, 255, 255); fill-opacity: 1; stroke-width: 0px;"/><g class="scrollbox" transform="" clip-path="url(#legend4fa03a)"><g class="groups"><g class="traces" transform="translate(0,14.5)" style="opacity: 1;"><text class="legendtext" text-anchor="start" x="40" y="4.680000000000001" style="font-family: 'Open Sans', verdana, arial, sans-serif; font-size: 12px; fill: rgb(42, 63, 95); fill-opacity: 1; white-space: pre;">Hunter</text><g class="layers" style="opacity: 1;"><g class="legendfill"/><g class="legendlines"><path class="js-line" d="M5,0h30" style="fill: none; stroke: rgb(128, 0, 128); stroke-opacity: 1; stroke-width: 2px;"/></g><g class="legendsymbols"><g class="legendpoints"/></g></g><rect class="legendtoggle" x="0" y="-9.5" width="82.09375" height="19" style="fill: rgb(0, 0, 0); fill-opacity: 0;"/></g><g class="traces" transform="translate(0,33.5)" style="opacity: 1;"><text class="legendtext" text-anchor="start" x="40" y="4.680000000000001" style="font-family: 'Open Sans', verdana, arial, sans-serif; font-size: 12px; fill: rgb(42, 63, 95); fill-opacity: 1; white-space: pre;">NSW</text><g class="layers" style="opacity: 1;"><g class="legendfill"/><g class="legendlines"><path class="js-line" d="M5,0h30" style="fill: none; stroke: rgb(0, 0, 128); stroke-opacity: 1; stroke-width: 2px;"/></g><g class="legendsymbols"><g class="legendpoints"/></g></g><rect class="legendtoggle" x="0" y="-9.5" width="82.09375" height="19" style="fill: rgb(0, 0, 0); fill-opacity: 0;"/></g></g></g><rect class="scrollbar" rx="20" ry="3" width="0" height="0" x="0" y="0" style="fill: rgb(128, 139, 164); fill-opacity: 1;"/></g><g class="g-gtitle"/><g class="g-xtitle"/><g class="g-ytitle" transform="translate(13.4716796875,0)"><text class="ytitle" transform="rotate(-90,0.5281250000000028,302)" x="0.5281250000000028" y="302" text-anchor="middle" style="font-family: 'Open Sans', verdana, arial, sans-serif; font-size: 14px; fill: rgb(42, 63, 95); opacity: 1; font-weight: normal; white-space: pre;">Unemployment</text></g></g></svg>